<svg xmlns="http://www.w3.org/2000/svg" xmlns:xlink="http://www.w3.org/1999/xlink" width="750" zoomAndPan="magnify" viewBox="0 0 562.5 251.250001" height="335" preserveAspectRatio="xMidYMid meet" version="1.0"><defs><clipPath id="729bc36ee0"><path d="M 0.585938 0 L 561.414062 0 L 561.414062 250.503906 L 0.585938 250.503906 Z M 0.585938 0 " clip-rule="nonzero"/></clipPath><clipPath id="b78f1cd03c"><path d="M 225.167969 236.332031 L 249.636719 236.332031 L 249.636719 250.503906 L 225.167969 250.503906 Z M 225.167969 236.332031 " clip-rule="nonzero"/></clipPath><clipPath id="861841bf7e"><path d="M 276 237 L 298 237 L 298 250.503906 L 276 250.503906 Z M 276 237 " clip-rule="nonzero"/></clipPath><clipPath id="aa26f1c949"><path d="M 309 165 L 378.6875 165 L 378.6875 183 L 309 183 Z M 309 165 " clip-rule="nonzero"/></clipPath><clipPath id="6f342a2be3"><path d="M 364 247 L 373 247 L 373 250.503906 L 364 250.503906 Z M 364 247 " clip-rule="nonzero"/></clipPath><clipPath id="e33a2bdf46"><path d="M 315 247 L 324 247 L 324 250.503906 L 315 250.503906 Z M 315 247 " clip-rule="nonzero"/></clipPath><clipPath id="b586bb3799"><path d="M 276 243 L 298 243 L 298 250.503906 L 276 250.503906 Z M 276 243 " clip-rule="nonzero"/></clipPath></defs><g clip-path="url(#729bc36ee0)"><path fill="#ffffff" d="M 0.585938 0 L 561.914062 0 L 561.914062 250.726562 L 0.585938 250.726562 Z M 0.585938 0 " fill-opacity="1" fill-rule="nonzero"/><path fill="#ffffff" d="M 0.585938 0 L 561.914062 0 L 561.914062 250.726562 L 0.585938 250.726562 Z M 0.585938 0 " fill-opacity="1" fill-rule="nonzero"/></g><path fill="#f7936a" d="M 338.007812 90.164062 L 332.0625 74.230469 L 299.257812 85.203125 C 299.257812 85.203125 290.960938 94.222656 296.789062 97.585938 C 302.613281 100.949219 338.007812 90.164062 338.007812 90.164062 " fill-opacity="1" fill-rule="nonzero"/><path fill="#f7936a" d="M 302.617188 96.59375 C 300.675781 98.613281 296.230469 99.53125 291.035156 97.757812 C 285.839844 95.984375 263.675781 90.238281 263.675781 90.238281 L 264.355469 84.347656 C 264.355469 84.347656 293.609375 83.113281 299.929688 85.394531 C 304.011719 86.867188 306.328125 92.722656 302.617188 96.59375 " fill-opacity="1" fill-rule="nonzero"/><path fill="#f7936a" d="M 267.421875 85.757812 C 266.648438 84.777344 262.871094 81.234375 261.605469 80.238281 C 260.339844 79.242188 253.917969 79.058594 253.117188 79.78125 C 252.316406 80.5 252.585938 80.976562 253.554688 82.082031 C 254.523438 83.1875 256.328125 87.761719 257.539062 89.054688 C 258.832031 90.4375 264.40625 90.386719 264.40625 90.386719 L 269.359375 89.445312 C 269.359375 89.445312 268.199219 86.738281 267.421875 85.757812 " fill-opacity="1" fill-rule="nonzero"/><path fill="#f7d8c8" d="M 338.328125 69.839844 C 338.328125 69.839844 309.824219 76.902344 309.003906 79.253906 C 308.179688 81.609375 308.566406 85.214844 309.003906 87.722656 C 309.4375 90.230469 312.261719 95.835938 312.261719 95.835938 C 312.261719 95.835938 333.304688 95.25 333.304688 94.777344 C 333.304688 94.308594 341.183594 79.410156 341.171875 77.84375 C 341.15625 76.277344 338.328125 69.839844 338.328125 69.839844 " fill-opacity="1" fill-rule="nonzero"/><g clip-path="url(#b78f1cd03c)"><path fill="#4d3932" d="M 246.941406 236.371094 C 246.941406 236.371094 250.53125 249.585938 249.292969 250.117188 C 248.058594 250.644531 226.253906 250.910156 225.425781 250.117188 C 224.597656 249.320312 226.347656 244.839844 229.507812 243.648438 C 233.484375 242.148438 237.8125 242.261719 238.875 241.664062 C 239.933594 241.070312 238.414062 236.371094 238.414062 236.371094 L 246.941406 236.371094 " fill-opacity="1" fill-rule="nonzero"/></g><path fill="#ebc599" d="M 227.699219 108.996094 C 227.699219 108.996094 221.292969 162.605469 221.929688 171.011719 C 222.5625 179.414062 227.261719 237.417969 229.332031 237.9375 C 231.402344 238.457031 238.492188 239.222656 242.507812 238.582031 C 246.523438 237.941406 252.050781 236.328125 253.179688 234.710938 C 254.304688 233.089844 251.832031 172.476562 252.132812 170.605469 C 252.433594 168.738281 261.121094 132.742188 262.0625 122.109375 C 263.003906 111.480469 260.363281 105.449219 260.363281 105.449219 L 227.699219 108.996094 " fill-opacity="1" fill-rule="nonzero"/><path fill="#f7936a" d="M 188.21875 24.546875 C 188.21875 24.546875 186.773438 28.992188 187.058594 30.265625 C 187.34375 31.539062 190.566406 31.167969 190.566406 31.167969 L 188.21875 24.546875 " fill-opacity="1" fill-rule="nonzero"/><path fill="#ffaf8f" d="M 188.28125 7.976562 C 186.621094 10.273438 184.097656 14.808594 186.589844 21.5625 C 189.082031 28.316406 192.402344 39.3125 195.65625 39.769531 C 199.949219 40.371094 203.964844 36.570312 205.140625 37.710938 C 206.320312 38.855469 213.457031 46.65625 213.457031 46.65625 L 224.742188 37.816406 L 214.265625 22.851562 L 204.929688 2.855469 C 204.929688 2.855469 193.738281 0.421875 188.28125 7.976562 " fill-opacity="1" fill-rule="nonzero"/><path fill="#f7936a" d="M 192.785156 32.910156 C 193.300781 32.894531 193.707031 32.914062 194.203125 32.714844 C 194.722656 32.507812 195.386719 32.203125 195.769531 31.789062 C 196.0625 31.472656 196.605469 31.871094 196.3125 32.1875 C 195.898438 32.636719 195.261719 32.96875 194.714844 33.226562 C 194.058594 33.535156 193.570312 33.558594 192.875 33.578125 C 192.445312 33.589844 192.347656 32.925781 192.785156 32.910156 " fill-opacity="1" fill-rule="nonzero"/><path fill="#e8d4ca" d="M 187.957031 21.785156 C 188.628906 22.109375 189.539062 21.613281 190.171875 21.382812 C 190.707031 21.191406 191.253906 21.046875 191.796875 20.875 C 192.199219 20.746094 192.175781 20.445312 191.855469 20.214844 C 191.691406 20.09375 191.480469 20.050781 191.28125 20.050781 C 190.867188 20.050781 190.453125 20.070312 190.042969 20.125 C 189.238281 20.230469 188.453125 20.480469 187.78125 20.945312 C 187.75 20.964844 187.726562 20.984375 187.703125 21.007812 C 187.433594 21.265625 187.625 21.621094 187.957031 21.785156 " fill-opacity="1" fill-rule="nonzero"/><path fill="#4d3932" d="M 191.441406 24.5 C 191.386719 24.105469 191.183594 23.671875 190.992188 23.539062 C 190.824219 23.425781 190.609375 23.308594 190.402344 23.394531 C 189.695312 23.683594 190.367188 25.195312 190.992188 25.214844 C 191.394531 25.230469 191.492188 24.882812 191.441406 24.5 " fill-opacity="1" fill-rule="nonzero"/><path fill="#3d2711" d="M 189.59375 21.796875 C 189.570312 21.796875 189.546875 21.800781 189.527344 21.808594 C 189.234375 21.921875 189.066406 23.109375 189.683594 24.710938 C 190.296875 26.3125 191.21875 27.085938 191.515625 26.96875 C 191.808594 26.855469 191.976562 25.664062 191.359375 24.066406 C 190.785156 22.570312 189.941406 21.796875 189.59375 21.796875 Z M 191.449219 27.921875 C 190.4375 27.921875 189.386719 26.5625 188.800781 25.046875 C 188.140625 23.328125 188.0625 21.363281 189.191406 20.929688 C 190.316406 20.496094 191.578125 22.007812 192.238281 23.730469 C 192.902344 25.445312 192.980469 27.410156 191.851562 27.847656 C 191.71875 27.898438 191.585938 27.921875 191.449219 27.921875 " fill-opacity="1" fill-rule="nonzero"/><path fill="#3d2711" d="M 191.800781 24.367188 C 191.644531 24.367188 191.492188 24.289062 191.402344 24.148438 C 191.261719 23.929688 191.328125 23.636719 191.546875 23.5 L 201.070312 17.480469 C 201.289062 17.339844 201.582031 17.40625 201.71875 17.625 C 201.859375 17.84375 201.792969 18.136719 201.574219 18.273438 L 192.050781 24.292969 C 191.972656 24.34375 191.886719 24.367188 191.800781 24.367188 " fill-opacity="1" fill-rule="nonzero"/><path fill="#e8d4ca" d="M 194.570312 3.4375 C 194.332031 3.574219 194.640625 6.8125 194.636719 7.214844 C 194.621094 8.953125 194.855469 10.890625 195.414062 12.539062 C 196.195312 14.851562 199.863281 18.515625 202.414062 16.175781 C 203.613281 15.078125 205.820312 16.183594 206.375 17.535156 C 206.929688 18.886719 207.867188 21.996094 208.667969 22.515625 C 211.789062 24.527344 214.265625 22.851562 214.265625 22.851562 C 214.265625 22.851562 213.113281 20.089844 213.449219 17.964844 C 214.007812 14.425781 213.335938 12.121094 212.9375 9.917969 C 212.539062 7.722656 210.082031 3.890625 206.65625 2.550781 C 200.429688 0.117188 194.570312 3.4375 194.570312 3.4375 " fill-opacity="1" fill-rule="nonzero"/><path fill="#5c3d32" d="M 221.882812 30.792969 C 217.269531 30.566406 208.988281 34.566406 205.472656 41.898438 C 201.957031 49.230469 204.84375 58.804688 209.410156 69.839844 C 213.976562 80.875 219.523438 89.40625 220.84375 93.074219 C 222.167969 96.738281 222.308594 111.699219 224.800781 114.074219 C 227.289062 116.445312 237.949219 118.882812 244.585938 118.457031 C 251.21875 118.03125 264.042969 112.726562 264.132812 110.929688 C 264.21875 109.132812 258.554688 68.816406 248.78125 53.65625 C 236.449219 34.53125 230.730469 31.226562 221.882812 30.792969 " fill-opacity="1" fill-rule="nonzero"/><g clip-path="url(#861841bf7e)"><path fill="#ffaf8f" d="M 297.640625 246.769531 C 297.597656 248.175781 297.445312 249.203125 297.09375 249.355469 C 295.855469 249.878906 277.917969 250.539062 277.089844 249.75 C 276.261719 248.953125 277.640625 245.472656 280.800781 244.28125 C 281.296875 244.089844 281.757812 243.921875 282.1875 243.765625 C 285.230469 242.648438 286.78125 242.183594 287.710938 241.664062 C 288.773438 241.070312 289.011719 237.179688 289.011719 237.179688 L 297.09375 237.179688 C 297.09375 237.179688 297.734375 243.1875 297.640625 246.769531 " fill-opacity="1" fill-rule="nonzero"/></g><path fill="#f5e8e1" d="M 323.980469 189.070312 L 363.445312 189.070312 C 368.796875 189.070312 373.128906 184.738281 373.128906 179.394531 L 314.292969 179.394531 C 314.292969 184.738281 318.628906 189.070312 323.980469 189.070312 " fill-opacity="1" fill-rule="nonzero"/><g clip-path="url(#aa26f1c949)"><path fill="#874c43" d="M 316.160156 182.113281 L 371.542969 182.113281 C 375.488281 182.113281 378.6875 178.917969 378.6875 174.980469 L 378.6875 172.210938 C 378.6875 168.273438 375.488281 165.078125 371.542969 165.078125 L 316.160156 165.078125 C 312.21875 165.078125 309.019531 168.273438 309.019531 172.210938 L 309.019531 174.980469 C 309.019531 178.917969 312.21875 182.113281 316.160156 182.113281 " fill-opacity="1" fill-rule="nonzero"/></g><path fill="#f5e8e1" d="M 364.285156 248.546875 L 372.136719 248.546875 L 372.136719 182.113281 L 364.285156 182.113281 L 364.285156 248.546875 " fill-opacity="1" fill-rule="nonzero"/><g clip-path="url(#6f342a2be3)"><path fill="#3d3227" d="M 366.175781 250.117188 L 370.242188 250.117188 C 371.730469 250.117188 372.730469 248.597656 372.144531 247.234375 L 372.136719 247.214844 L 364.28125 247.214844 L 364.273438 247.234375 C 363.6875 248.597656 364.691406 250.117188 366.175781 250.117188 " fill-opacity="1" fill-rule="nonzero"/></g><path fill="#f5e8e1" d="M 323.765625 248.546875 L 315.914062 248.546875 L 315.914062 182.113281 L 323.765625 182.113281 L 323.765625 248.546875 " fill-opacity="1" fill-rule="nonzero"/><g clip-path="url(#e33a2bdf46)"><path fill="#3d3227" d="M 321.875 250.117188 L 317.808594 250.117188 C 316.324219 250.117188 315.320312 248.597656 315.90625 247.234375 L 315.914062 247.214844 L 323.769531 247.214844 L 323.777344 247.234375 C 324.363281 248.597656 323.359375 250.117188 321.875 250.117188 " fill-opacity="1" fill-rule="nonzero"/></g><path fill="#e8d4ca" d="M 364.964844 188.753906 L 371.457031 188.753906 C 371.859375 188.753906 371.859375 189.382812 371.457031 189.382812 L 364.964844 189.382812 C 364.558594 189.382812 364.558594 188.753906 364.964844 188.753906 " fill-opacity="1" fill-rule="nonzero"/><path fill="#e8d4ca" d="M 316.597656 188.753906 L 323.085938 188.753906 C 323.492188 188.753906 323.492188 189.382812 323.085938 189.382812 L 316.597656 189.382812 C 316.191406 189.382812 316.191406 188.753906 316.597656 188.753906 " fill-opacity="1" fill-rule="nonzero"/><path fill="#ffaf8f" d="M 297.097656 229.3125 L 297.097656 237.179688 L 289.011719 237.179688 L 287.597656 228.84375 L 297.097656 229.3125 " fill-opacity="1" fill-rule="nonzero"/><path fill="#a7b3c9" d="M 366.007812 145.109375 C 366.007812 145.109375 367.667969 159.863281 363.074219 162.675781 C 353.863281 168.320312 304.035156 170.199219 301.941406 171.453125 C 299.847656 172.710938 302.988281 182.847656 302.988281 189.070312 C 302.988281 195.289062 301.339844 209.089844 301.21875 215.152344 C 301.101562 221.214844 304.035156 235.382812 302.566406 236.636719 C 301.101562 237.890625 283.515625 237.890625 281.421875 237.472656 C 279.328125 237.054688 279.230469 220.378906 279.175781 216.195312 C 279.117188 212.015625 277.773438 171.664062 278.550781 166.226562 C 279.328125 160.792969 279.734375 153.785156 288.636719 149.761719 C 297.542969 145.738281 335.160156 141.972656 335.160156 141.972656 L 366.007812 145.109375 " fill-opacity="1" fill-rule="nonzero"/><path fill="#f7936a" d="M 325.042969 50.488281 C 325.042969 50.488281 322.625 54.160156 322.566406 55.386719 C 322.507812 56.613281 325.523438 57.074219 325.523438 57.074219 L 325.042969 50.488281 " fill-opacity="1" fill-rule="nonzero"/><path fill="#ffaf8f" d="M 324.640625 47.386719 C 324.6875 50.949219 324.523438 55.515625 324.808594 59.140625 C 324.847656 59.640625 324.890625 60.113281 324.949219 60.574219 C 325.257812 63.109375 325.886719 64.945312 327.089844 65.214844 C 331.632812 66.242188 335.070312 64.777344 335.75 66.152344 C 336.4375 67.53125 336.761719 76.339844 336.761719 76.339844 L 349.871094 75.484375 L 346.769531 36.558594 L 329.105469 35.707031 C 329.105469 35.707031 324.554688 40.621094 324.640625 47.386719 " fill-opacity="1" fill-rule="nonzero"/><path fill="#4d3932" d="M 326.222656 51.28125 C 326.167969 50.902344 326.242188 50.445312 326.386719 50.273438 C 326.511719 50.125 326.679688 49.960938 326.890625 49.984375 C 327.625 50.070312 327.394531 51.644531 326.820312 51.828125 C 326.453125 51.945312 326.273438 51.648438 326.222656 51.28125 " fill-opacity="1" fill-rule="nonzero"/><path fill="#4d3932" d="M 325.589844 47.042969 C 326.105469 46.734375 327.0625 47.082031 327.585938 47.234375 C 328.382812 47.46875 329.089844 47.777344 329.753906 48.289062 C 329.890625 48.394531 329.882812 48.558594 329.777344 48.683594 C 329.515625 49 328.917969 48.742188 328.601562 48.675781 C 327.691406 48.484375 326.796875 48.050781 325.878906 47.960938 C 325.496094 47.921875 325.191406 47.289062 325.589844 47.042969 " fill-opacity="1" fill-rule="nonzero"/><path fill="#f7936a" d="M 325.609375 59.117188 C 326.070312 59.246094 326.890625 59.292969 327.328125 59.097656 C 327.550781 59 327.796875 58.890625 327.988281 58.734375 C 328.160156 58.597656 328.199219 58.519531 328.433594 58.480469 C 328.832031 58.421875 328.84375 59.046875 328.449219 59.109375 C 328.53125 59.097656 328.140625 59.390625 328.050781 59.441406 C 327.832031 59.558594 327.550781 59.742188 327.3125 59.796875 C 327.050781 59.855469 326.683594 59.824219 326.414062 59.824219 C 326.074219 59.828125 325.785156 59.820312 325.457031 59.726562 C 325.070312 59.617188 325.21875 59.007812 325.609375 59.117188 " fill-opacity="1" fill-rule="nonzero"/><path fill="#4d3932" d="M 326.554688 39.558594 C 326.554688 39.558594 328.996094 43.316406 332.007812 44.4375 C 335.015625 45.5625 337.113281 46.242188 337.371094 48.027344 C 337.628906 49.816406 340.222656 48.410156 341.714844 50.074219 C 343.839844 52.4375 341.164062 54.675781 341.28125 55.730469 C 341.398438 56.78125 348.695312 60.714844 348.695312 60.714844 C 348.695312 60.714844 354.382812 48.578125 352.515625 41.546875 C 350.648438 34.515625 342.003906 32.667969 334.777344 33.0625 C 328.738281 33.390625 326.554688 39.558594 326.554688 39.558594 " fill-opacity="1" fill-rule="nonzero"/><path fill="#ffe9de" d="M 349.160156 66.25 C 349.160156 66.25 343.171875 68.445312 339.996094 71.027344 C 334.351562 75.609375 330.886719 84.511719 328.269531 92.664062 C 325.652344 100.820312 330.574219 109.703125 331.515625 112.421875 C 332.457031 115.140625 330.785156 142.367188 332.144531 144.433594 C 333.503906 146.5 339.585938 145.976562 346.386719 146.394531 C 353.1875 146.8125 359.058594 148.589844 363.398438 147.859375 C 367.738281 147.128906 370.773438 147.335938 369.9375 143.78125 C 369.097656 140.230469 366.5 101.394531 365.851562 94.859375 C 363.398438 70.085938 349.160156 66.25 349.160156 66.25 " fill-opacity="1" fill-rule="nonzero"/><path fill="#ffaf8f" d="M 341.171875 98.703125 L 332.878906 83.851562 L 302.117188 99.648438 C 302.117188 99.648438 295.277344 109.816406 301.546875 112.261719 C 307.816406 114.707031 341.171875 98.703125 341.171875 98.703125 " fill-opacity="1" fill-rule="nonzero"/><path fill="#ffaf8f" d="M 306.792969 110.828125 C 304.710938 112.703125 300.210938 113.296875 295.160156 111.148438 C 290.105469 109.003906 268.417969 101.664062 268.417969 101.664062 L 269.527344 95.835938 C 269.527344 95.835938 298.792969 96.730469 304.929688 99.464844 C 308.894531 101.226562 310.777344 107.238281 306.792969 110.828125 " fill-opacity="1" fill-rule="nonzero"/><path fill="#8997b0" d="M 298.375 164.5 C 297.078125 163.140625 296.003906 161.621094 295.027344 160.023438 C 294.589844 159.308594 294.085938 158.628906 293.679688 157.898438 C 293.390625 157.386719 292.542969 155.984375 292.53125 155.566406 C 292.519531 155.164062 291.890625 155.160156 291.902344 155.566406 C 291.925781 156.390625 292.246094 156.707031 292.675781 157.371094 C 293.296875 158.335938 293.878906 159.355469 294.484375 160.339844 C 295.636719 162.230469 296.941406 164.0625 298.570312 165.582031 C 298.839844 165.832031 299.273438 166.066406 299.488281 166.355469 C 300.226562 167.347656 299.808594 167.78125 298.972656 167.800781 C 297.667969 167.832031 296.664062 166.382812 295.792969 165.589844 C 294.84375 164.722656 293.835938 163.902344 292.820312 163.121094 C 292.503906 162.878906 290.230469 161.679688 290.226562 161.210938 C 290.222656 160.808594 289.59375 160.804688 289.597656 161.210938 C 289.605469 162.007812 290.308594 162.1875 290.90625 162.535156 C 292.507812 163.460938 293.980469 164.792969 295.347656 166.03125 C 296.1875 166.792969 296.945312 167.8125 298.039062 168.234375 C 298.65625 168.472656 299.796875 168.660156 300.414062 168.316406 C 302.328125 167.25 298.9375 165.09375 298.375 164.5 " fill-opacity="1" fill-rule="nonzero"/><path fill="#8997b0" d="M 299.542969 170.515625 C 298.085938 170.582031 296.605469 170.945312 295.1875 171.269531 C 294.90625 171.332031 291.617188 172.589844 291.472656 172.207031 C 291.328125 171.835938 290.722656 171.996094 290.867188 172.375 C 291.199219 173.242188 291.992188 173.027344 292.726562 172.75 C 294.859375 171.941406 297.257812 171.25 299.542969 171.140625 C 299.945312 171.121094 299.949219 170.496094 299.542969 170.515625 " fill-opacity="1" fill-rule="nonzero"/><path fill="#8997b0" d="M 350.816406 162.191406 C 350.292969 161.375 349.902344 160.488281 349.390625 159.664062 C 348.429688 158.113281 347.464844 156.445312 346.324219 155.023438 C 345.199219 153.617188 343.992188 152.195312 342.484375 151.175781 C 341.015625 150.1875 339.429688 149.25 338.019531 148.1875 C 337.695312 147.941406 337.382812 148.488281 337.699219 148.726562 C 340.304688 150.691406 343.089844 152.132812 345.234375 154.683594 C 346.394531 156.058594 347.21875 157.589844 348.230469 159.066406 C 348.769531 159.84375 349.234375 160.640625 349.671875 161.480469 C 349.960938 162.035156 350.734375 162.890625 350.734375 163.511719 C 350.734375 163.914062 351.363281 163.914062 351.363281 163.511719 C 351.363281 162.960938 351.101562 162.644531 350.816406 162.191406 " fill-opacity="1" fill-rule="nonzero"/><path fill="#8997b0" d="M 351.757812 157.804688 C 351.160156 156.863281 350.699219 155.871094 350.074219 154.941406 C 349.648438 154.308594 349.320312 153.753906 348.738281 153.257812 C 348.011719 152.644531 347.15625 152.230469 346.457031 151.582031 C 346.160156 151.308594 345.714844 151.75 346.011719 152.023438 C 347.089844 153.019531 348.375 153.574219 349.238281 154.808594 C 349.699219 155.464844 350.148438 156.128906 350.515625 156.839844 C 350.894531 157.5625 351.6875 158.523438 351.78125 159.328125 C 351.828125 159.726562 352.457031 159.730469 352.410156 159.328125 C 352.335938 158.683594 352.101562 158.347656 351.757812 157.804688 " fill-opacity="1" fill-rule="nonzero"/><path fill="#8997b0" d="M 299.320312 226.425781 C 298.28125 227.695312 297.382812 228.417969 295.90625 229.105469 C 294.289062 229.859375 292.65625 230.378906 290.917969 230.773438 C 287.773438 231.496094 284.582031 232.730469 281.328125 232.816406 C 280.925781 232.828125 280.925781 233.457031 281.328125 233.441406 C 284.808594 233.351562 288.25 232.042969 291.609375 231.261719 C 293.210938 230.890625 294.738281 230.34375 296.222656 229.648438 C 297.808594 228.902344 298.664062 228.214844 299.765625 226.871094 C 300.019531 226.5625 299.578125 226.113281 299.320312 226.425781 " fill-opacity="1" fill-rule="nonzero"/><path fill="#4d3932" d="M 332.613281 33.476562 C 332.613281 33.476562 343.40625 28.605469 352.304688 36.449219 C 357.332031 40.875 360.890625 48.613281 362.355469 51.4375 C 363.820312 54.257812 366.125 55.722656 366.4375 58.546875 C 366.65625 60.496094 364.996094 61.109375 363.625 61.972656 C 362.058594 62.957031 361.335938 65.429688 359.457031 65.910156 C 358.074219 66.265625 356.617188 65.195312 355.21875 65.351562 C 352.488281 65.652344 353.710938 67.691406 352.050781 69.261719 C 351.347656 69.929688 350.222656 69.972656 349.316406 69.628906 C 346.640625 68.605469 345.164062 65.628906 343.929688 63.261719 C 342.570312 60.648438 341.28125 55.730469 341.28125 55.730469 C 341.28125 55.730469 346.757812 50.816406 346.652344 49.984375 C 346.546875 49.148438 340.101562 39.113281 339.609375 39.113281 C 339.117188 39.113281 332.613281 33.476562 332.613281 33.476562 " fill-opacity="1" fill-rule="nonzero"/><path fill="#ffe9de" d="M 313.292969 92.976562 C 312.28125 95.25 318.125 109.136719 319.363281 109.136719 C 320.597656 109.136719 343.304688 98.183594 343.304688 98.183594 L 339.457031 72.660156 C 339.457031 72.660156 323.972656 85.34375 320.035156 87.925781 C 316.101562 90.507812 314.304688 90.699219 313.292969 92.976562 " fill-opacity="1" fill-rule="nonzero"/><path fill="#ffaf8f" d="M 241.441406 97.214844 C 241.441406 97.214844 241.257812 100.296875 238.199219 101.730469 C 235.140625 103.164062 231.042969 104.246094 228.820312 104.390625 C 226.394531 104.550781 226.214844 102.285156 227.0625 100.40625 C 227.90625 98.53125 229.410156 96.214844 232.710938 94.414062 C 236.007812 92.613281 239.121094 91.964844 239.121094 91.964844 L 241.441406 97.214844 " fill-opacity="1" fill-rule="nonzero"/><g clip-path="url(#b586bb3799)"><path fill="#3d3227" d="M 297.640625 246.769531 C 297.597656 248.175781 297.445312 249.203125 297.09375 249.355469 C 295.855469 249.878906 277.917969 250.539062 277.089844 249.75 C 276.261719 248.953125 277.640625 245.472656 280.800781 244.28125 C 281.296875 244.089844 281.757812 243.921875 282.1875 243.765625 C 282.1875 243.765625 284.675781 246.613281 288.34375 246.769531 C 291.929688 246.921875 297.410156 246.777344 297.640625 246.769531 " fill-opacity="1" fill-rule="nonzero"/></g><path fill="#9e663f" d="M 225.636719 37.328125 C 221.691406 36.160156 215.472656 36.882812 213.714844 41.625 C 211.398438 47.878906 218.515625 57.09375 225.636719 61.484375 C 232.753906 65.875 240.398438 66.484375 240.816406 67.015625 C 241.234375 67.542969 235.382812 84.101562 234.117188 86.886719 C 233.199219 88.898438 232.546875 92.324219 236.417969 94.621094 C 240.292969 96.921875 243.183594 98.480469 246.15625 95.835938 C 253.273438 89.5 261.175781 63.898438 260.496094 61.375 C 259.136719 56.328125 239.777344 41.523438 225.636719 37.328125 " fill-opacity="1" fill-rule="nonzero"/><path fill="#ffaf8f" d="M 272.484375 97.46875 C 271.78125 96.433594 268.269531 92.621094 267.082031 91.539062 C 265.890625 90.453125 259.5 89.804688 258.648438 90.464844 C 257.796875 91.125 258.03125 91.621094 258.917969 92.792969 C 259.804688 93.96875 264.703125 98.503906 265.816406 99.882812 C 267.003906 101.355469 269.132812 101.863281 269.132812 101.863281 L 274.144531 101.28125 C 274.144531 101.28125 273.183594 98.5 272.484375 97.46875 " fill-opacity="1" fill-rule="nonzero"/><path fill="#f0dace" d="M 350.210938 78.675781 C 348.789062 75.3125 345.441406 71.699219 341.628906 71.519531 C 341.222656 71.5 341.226562 72.125 341.628906 72.144531 C 345.257812 72.320312 348.679688 76.175781 349.828125 79.460938 C 351.074219 83.019531 350.511719 87.0625 348.476562 90.179688 C 348.253906 90.515625 348.796875 90.832031 349.019531 90.496094 C 351.246094 87.089844 351.828125 82.496094 350.210938 78.675781 " fill-opacity="1" fill-rule="nonzero"/><path fill="#f0dace" d="M 345.59375 92.9375 C 343.480469 94.949219 341.222656 96.570312 338.929688 98.324219 C 336.90625 99.875 334.902344 101.289062 332.542969 102.265625 C 332.171875 102.417969 332.335938 103.023438 332.707031 102.867188 C 335.054688 101.898438 336.972656 100.550781 339.039062 99.078125 C 341.511719 97.316406 343.832031 95.480469 346.039062 93.378906 C 346.332031 93.101562 345.886719 92.65625 345.59375 92.9375 " fill-opacity="1" fill-rule="nonzero"/><path fill="#f0dace" d="M 346.863281 69.324219 C 346.460938 69.316406 346.003906 69.628906 345.65625 69.804688 C 345.414062 69.933594 345.199219 70.105469 344.957031 70.234375 C 344.808594 70.316406 344.652344 70.355469 344.503906 70.433594 C 344.425781 70.472656 344.355469 70.570312 344.265625 70.589844 C 343.871094 70.679688 344.039062 71.285156 344.433594 71.195312 C 344.621094 71.152344 344.734375 71.03125 344.902344 70.945312 C 345.117188 70.835938 345.324219 70.753906 345.527344 70.625 C 345.753906 70.480469 345.980469 70.347656 346.226562 70.230469 C 346.402344 70.148438 346.667969 69.949219 346.863281 69.949219 C 347.265625 69.960938 347.265625 69.332031 346.863281 69.324219 " fill-opacity="1" fill-rule="nonzero"/><path fill="#f0dace" d="M 365.789062 136.445312 C 364.703125 136.117188 363.636719 136.082031 362.511719 136.007812 C 360.890625 135.90625 359.296875 135.578125 357.738281 135.132812 C 354.492188 134.207031 351.566406 132.460938 348.691406 130.726562 C 345.9375 129.070312 343.246094 127.292969 340.582031 125.496094 C 337.621094 123.488281 334.984375 121.441406 332.894531 118.507812 C 332.664062 118.179688 332.121094 118.492188 332.355469 118.824219 C 336.164062 124.179688 342.355469 127.582031 347.871094 130.964844 C 350.621094 132.648438 353.480469 134.449219 356.570312 135.441406 C 358.109375 135.9375 359.636719 136.277344 361.234375 136.484375 C 362.707031 136.679688 364.1875 136.617188 365.621094 137.050781 C 366.011719 137.167969 366.175781 136.5625 365.789062 136.445312 " fill-opacity="1" fill-rule="nonzero"/><path fill="#f0dace" d="M 359.820312 138.957031 C 356.59375 138.039062 353.308594 136.878906 350.246094 135.472656 C 348.84375 134.828125 347.40625 134.226562 346.109375 133.386719 C 344.605469 132.410156 343.226562 131.269531 341.785156 130.207031 C 341.460938 129.964844 341.148438 130.511719 341.46875 130.75 C 342.910156 131.808594 344.289062 132.949219 345.792969 133.925781 C 347.234375 134.859375 348.855469 135.535156 350.421875 136.238281 C 353.382812 137.570312 356.542969 138.675781 359.65625 139.558594 C 360.042969 139.671875 360.210938 139.066406 359.820312 138.957031 " fill-opacity="1" fill-rule="nonzero"/><path fill="#d4a979" d="M 249.554688 172.230469 C 248.890625 172.582031 248.4375 173.136719 247.71875 173.457031 C 246.726562 173.902344 245.726562 174.210938 244.65625 174.394531 C 242.613281 174.742188 240.476562 174.902344 238.40625 174.902344 C 238.003906 174.90625 238.003906 175.53125 238.40625 175.53125 C 240.546875 175.527344 242.710938 175.359375 244.824219 175 C 245.777344 174.835938 246.679688 174.574219 247.570312 174.203125 C 247.996094 174.027344 248.488281 173.851562 248.878906 173.597656 C 249.230469 173.367188 249.511719 172.960938 249.871094 172.769531 C 250.230469 172.582031 249.914062 172.039062 249.554688 172.230469 " fill-opacity="1" fill-rule="nonzero"/><path fill="#d4a979" d="M 249.703125 174.578125 C 249.015625 175.277344 248.128906 176.007812 247.324219 176.558594 C 246.472656 177.140625 245.679688 177.660156 244.738281 178.082031 C 244.371094 178.25 244.691406 178.789062 245.054688 178.625 C 246.9375 177.777344 248.707031 176.492188 250.144531 175.023438 C 250.429688 174.734375 249.984375 174.289062 249.703125 174.578125 " fill-opacity="1" fill-rule="nonzero"/><path fill="#d4a979" d="M 250.28125 229.210938 C 249.496094 230.378906 247.757812 231.585938 246.511719 232.289062 C 245.203125 233.027344 243.703125 233.679688 242.261719 234.195312 C 242.140625 232.984375 241.730469 231.839844 241.664062 230.609375 C 241.605469 229.527344 241.660156 228.433594 241.675781 227.351562 C 241.703125 225.28125 241.125 223.191406 241.023438 221.109375 C 240.914062 218.917969 240.730469 216.820312 240.339844 214.648438 C 240.113281 213.402344 239.796875 212.164062 239.621094 210.90625 C 239.457031 209.714844 239.589844 208.511719 239.515625 207.308594 C 239.21875 202.347656 239.085938 197.40625 238.957031 192.4375 C 238.90625 190.371094 238.199219 188.523438 237.792969 186.519531 C 237.277344 183.984375 237.464844 181.34375 237.464844 178.773438 C 237.464844 178.367188 236.835938 178.367188 236.835938 178.773438 C 236.835938 181.042969 236.679688 183.378906 237.003906 185.632812 C 237.332031 187.941406 238.238281 190.097656 238.332031 192.4375 C 238.429688 194.941406 238.269531 197.441406 238.5 199.941406 C 238.726562 202.390625 238.746094 204.847656 238.886719 207.308594 C 238.949219 208.351562 238.832031 209.398438 238.914062 210.4375 C 239.007812 211.535156 239.308594 212.644531 239.519531 213.726562 C 240.003906 216.1875 240.273438 218.609375 240.394531 221.109375 C 240.496094 223.191406 240.996094 225.28125 241.046875 227.351562 C 241.074219 228.433594 240.988281 229.523438 241.035156 230.609375 C 241.089844 231.90625 241.5625 233.101562 241.652344 234.386719 C 241.652344 234.394531 241.660156 234.398438 241.660156 234.410156 C 241.648438 234.410156 241.636719 234.417969 241.625 234.421875 C 239.933594 234.976562 238.449219 235.179688 236.683594 235.355469 C 235.085938 235.511719 233.640625 235.84375 232.078125 236.214844 C 231.980469 236.238281 231.882812 236.332031 231.859375 236.433594 C 231.847656 236.488281 231.835938 236.546875 231.824219 236.601562 C 231.738281 236.996094 232.34375 237.164062 232.429688 236.765625 C 232.5 236.433594 235.40625 236.171875 235.582031 236.148438 C 236.453125 236.042969 237.3125 235.972656 238.183594 235.90625 C 239.910156 235.78125 241.703125 235.171875 243.292969 234.507812 C 244.835938 233.867188 246.476562 233.148438 247.824219 232.152344 C 248.957031 231.320312 250.039062 230.695312 250.824219 229.527344 C 251.046875 229.1875 250.503906 228.875 250.28125 229.210938 " fill-opacity="1" fill-rule="nonzero"/><path fill="#d4a979" d="M 242.910156 120.859375 C 242.671875 122.839844 242.023438 124.738281 241.820312 126.714844 C 241.722656 127.6875 241.484375 128.613281 241.339844 129.578125 C 241.175781 130.671875 241.285156 131.761719 241.125 132.855469 C 240.484375 137.222656 241.496094 141.882812 240.210938 146.148438 C 239.605469 148.171875 239.035156 150.253906 238.699219 152.335938 C 238.390625 154.261719 238.375 156.234375 238.304688 158.175781 C 238.230469 160.285156 238.105469 162.484375 237.722656 164.554688 C 237.339844 166.621094 237.296875 168.839844 237.6875 170.910156 C 237.761719 171.308594 238.367188 171.140625 238.292969 170.746094 C 237.800781 168.132812 238.300781 165.734375 238.640625 163.164062 C 238.757812 162.273438 238.667969 161.402344 238.699219 160.511719 C 238.730469 159.589844 238.914062 158.699219 238.921875 157.78125 C 238.9375 155.675781 239.101562 153.40625 239.503906 151.339844 C 239.90625 149.289062 240.667969 147.300781 241.066406 145.257812 C 241.503906 143.03125 241.386719 140.886719 241.445312 138.625 C 241.496094 136.515625 241.714844 134.402344 241.875 132.3125 C 241.953125 131.242188 241.835938 130.246094 242.046875 129.175781 C 242.214844 128.347656 242.363281 127.558594 242.449219 126.714844 C 242.648438 124.738281 243.300781 122.835938 243.539062 120.859375 C 243.585938 120.460938 242.957031 120.464844 242.910156 120.859375 " fill-opacity="1" fill-rule="nonzero"/><path fill="#8a5530" d="M 253.0625 61.109375 C 252.179688 61.699219 250.632812 61.765625 249.621094 62.074219 C 248.347656 62.464844 247.125 63.011719 245.902344 63.53125 C 244.679688 64.050781 242.324219 64.839844 241.769531 66.15625 C 241.613281 66.527344 242.21875 66.691406 242.375 66.324219 C 242.707031 65.539062 244.277344 65.0625 244.980469 64.703125 C 245.863281 64.253906 246.769531 63.90625 247.664062 63.488281 C 248.835938 62.945312 250.054688 62.589844 251.296875 62.253906 C 251.933594 62.082031 252.820312 62.019531 253.378906 61.652344 C 253.714844 61.425781 253.398438 60.882812 253.0625 61.109375 " fill-opacity="1" fill-rule="nonzero"/><path fill="#8a5530" d="M 250.707031 64.046875 C 248.914062 64.195312 247.28125 65.339844 245.59375 65.867188 C 244.894531 66.082031 242.453125 66.375 242.238281 67.253906 C 242.144531 67.648438 242.75 67.8125 242.84375 67.421875 C 242.953125 66.96875 245.9375 66.40625 246.429688 66.230469 C 247.8125 65.742188 249.226562 64.792969 250.707031 64.671875 C 251.109375 64.640625 251.113281 64.011719 250.707031 64.046875 " fill-opacity="1" fill-rule="nonzero"/><path fill="#8a5530" d="M 246.46875 92.898438 C 244.097656 92.894531 241.914062 92.976562 239.710938 91.953125 C 237.910156 91.121094 236.035156 90.109375 234.378906 89.019531 C 234.039062 88.796875 233.726562 89.339844 234.0625 89.5625 C 235.917969 90.785156 238.09375 92.023438 240.160156 92.839844 C 242.199219 93.644531 244.316406 93.523438 246.46875 93.523438 C 246.871094 93.523438 246.875 92.898438 246.46875 92.898438 " fill-opacity="1" fill-rule="nonzero"/></svg>