<svg xmlns="http://www.w3.org/2000/svg" xmlns:xlink="http://www.w3.org/1999/xlink" width="750" zoomAndPan="magnify" viewBox="0 0 562.5 251.250001" height="335" preserveAspectRatio="xMidYMid meet" version="1.0"><defs><clipPath id="b1bd309618"><path d="M 0.585938 0 L 561.414062 0 L 561.414062 250.503906 L 0.585938 250.503906 Z M 0.585938 0 " clip-rule="nonzero"/></clipPath><clipPath id="64b6eaf2b9"><path d="M 275.640625 238.820312 L 294.671875 238.820312 L 294.671875 250.503906 L 275.640625 250.503906 Z M 275.640625 238.820312 " clip-rule="nonzero"/></clipPath><clipPath id="bec5c8a16b"><path d="M 358 139.746094 L 414.898438 139.746094 L 414.898438 155.398438 L 358 155.398438 Z M 358 139.746094 " clip-rule="nonzero"/></clipPath><clipPath id="32c8b2aff4"><path d="M 143.21875 139 L 192 139 L 192 156 L 143.21875 156 Z M 143.21875 139 " clip-rule="nonzero"/></clipPath><clipPath id="d2e4ec09fe"><path d="M 387.738281 247.855469 L 395.320312 247.855469 L 395.320312 250.503906 L 387.738281 250.503906 Z M 387.738281 247.855469 " clip-rule="nonzero"/></clipPath><clipPath id="93c4b4ff03"><path d="M 164.027344 247.855469 L 171.605469 247.855469 L 171.605469 250.503906 L 164.027344 250.503906 Z M 164.027344 247.855469 " clip-rule="nonzero"/></clipPath></defs><g clip-path="url(#b1bd309618)"><path fill="#ffffff" d="M 0.585938 0 L 561.914062 0 L 561.914062 250.726562 L 0.585938 250.726562 Z M 0.585938 0 " fill-opacity="1" fill-rule="nonzero"/><path fill="#ffffff" d="M 0.585938 0 L 561.914062 0 L 561.914062 250.726562 L 0.585938 250.726562 Z M 0.585938 0 " fill-opacity="1" fill-rule="nonzero"/></g><path fill="#8997b0" d="M 247.558594 108.195312 C 247.558594 108.195312 244.472656 117.796875 244.046875 122.433594 C 243.625 127.070312 242.957031 130.203125 244.046875 131.4375 C 245.140625 132.671875 250.453125 134.304688 255.957031 134.582031 C 261.460938 134.855469 266.679688 129.945312 268.527344 127.75 C 270.378906 125.554688 273.445312 119.953125 270.535156 117.296875 C 267.625 114.636719 247.558594 108.195312 247.558594 108.195312 " fill-opacity="1" fill-rule="nonzero"/><path fill="#4d3932" d="M 243.296875 183.335938 C 243.28125 183.6875 235.367188 197.964844 234.921875 199.214844 C 232.726562 205.402344 228.578125 211.222656 226.847656 212.683594 C 224.34375 214.796875 220.246094 213.195312 220.578125 209.894531 C 220.914062 206.589844 222.621094 203.269531 224.050781 200.949219 C 226.691406 196.648438 228.875 194.300781 229.191406 193.476562 C 229.511719 192.65625 233.53125 179.546875 233.53125 179.546875 L 243.296875 183.335938 " fill-opacity="1" fill-rule="nonzero"/><g clip-path="url(#64b6eaf2b9)"><path fill="#4d3932" d="M 276.179688 238.941406 C 276.179688 238.941406 275.058594 249.515625 276.179688 249.996094 C 277.300781 250.472656 293.558594 251.074219 294.3125 250.355469 C 295.0625 249.636719 293.8125 246.472656 290.949219 245.390625 C 287.347656 244.027344 284.222656 242.996094 283.265625 242.453125 C 282.304688 241.914062 282.703125 238.941406 282.703125 238.941406 L 276.179688 238.941406 " fill-opacity="1" fill-rule="nonzero"/></g><path fill="#a7b3c9" d="M 293.734375 109.195312 C 293.734375 109.195312 291.050781 232.828125 290.722656 236.246094 C 290.398438 239.664062 287.484375 240.566406 282.652344 240.957031 C 275 241.574219 271.734375 239.285156 271.390625 237.765625 C 271.042969 236.246094 270.933594 110.71875 270.933594 110.71875 L 293.734375 109.195312 " fill-opacity="1" fill-rule="nonzero"/><path fill="#ffe9de" d="M 301.179688 38.234375 C 301.179688 38.234375 288.210938 33.144531 282.917969 31.621094 C 272.511719 28.628906 262.15625 30.707031 260.039062 31.882812 C 257.917969 33.0625 250.503906 57.972656 250.453125 63.289062 C 250.40625 68.605469 247.894531 82.226562 247.5 93.414062 C 247.316406 98.636719 245.332031 111.175781 252.921875 114.449219 C 256.03125 115.789062 289.320312 120.398438 294.113281 113.785156 C 294.277344 113.558594 296.617188 90.480469 298.585938 73.886719 C 300.359375 58.9375 301.179688 38.234375 301.179688 38.234375 " fill-opacity="1" fill-rule="nonzero"/><path fill="#8f4838" d="M 312.546875 66.535156 C 312.546875 66.535156 314.527344 73.65625 315.0625 76.746094 C 315.59375 79.835938 317.089844 86.847656 312.46875 88.8125 C 308.675781 90.421875 305.394531 87.957031 303.382812 83.347656 C 301.371094 78.742188 299.726562 69.757812 299.726562 69.757812 L 312.546875 66.535156 " fill-opacity="1" fill-rule="nonzero"/><path fill="#a7b3c9" d="M 262.558594 109.011719 C 258.738281 107.433594 252.585938 106.757812 248.835938 114.621094 C 245.089844 122.484375 224.464844 189.210938 224.300781 190.480469 C 224.136719 191.75 229.929688 195.394531 233.265625 196.414062 C 236.601562 197.433594 241.519531 198.214844 242.332031 197.117188 C 242.792969 196.496094 254.640625 166.144531 261.152344 148.265625 C 266.089844 134.699219 271.4375 122.226562 270.40625 118.179688 C 269.058594 112.886719 266.382812 110.589844 262.558594 109.011719 " fill-opacity="1" fill-rule="nonzero"/><path fill="#8f4838" d="M 244.355469 61.441406 C 244.355469 61.441406 238.976562 66.507812 236.492188 68.421875 C 234.003906 70.332031 227.578125 74.339844 224.277344 71.878906 C 220.976562 69.414062 222.074219 65.082031 225.214844 61.152344 C 228.355469 57.226562 235.539062 51.589844 235.539062 51.589844 L 244.355469 61.441406 " fill-opacity="1" fill-rule="nonzero"/><path fill="#ffe9de" d="M 301.179688 38.234375 C 301.179688 38.234375 306.191406 40.28125 308.566406 47.625 C 309.988281 52.023438 312.558594 60.664062 313.074219 62.722656 C 313.585938 64.78125 315.121094 70.226562 314.199219 70.667969 C 313.277344 71.105469 306.777344 73.144531 303.105469 73.671875 C 299.429688 74.195312 295.75 74.34375 295.996094 73.757812 C 296.238281 73.171875 295.742188 45.523438 296.160156 44.734375 C 296.582031 43.949219 301.179688 38.234375 301.179688 38.234375 " fill-opacity="1" fill-rule="nonzero"/><path fill="#747385" d="M 286.554688 124.171875 C 286.664062 124.539062 287.277344 125.113281 287.5 125.410156 C 287.898438 125.9375 288.269531 126.445312 288.761719 126.890625 C 289.214844 127.300781 289.695312 127.675781 290.140625 128.09375 C 290.695312 128.613281 291.320312 128.878906 291.925781 129.316406 C 292.21875 129.53125 291.933594 130.023438 291.636719 129.808594 C 291.097656 129.417969 290.5 129.195312 290 128.746094 C 289.414062 128.21875 288.792969 127.714844 288.222656 127.171875 C 287.707031 126.679688 287.316406 126.101562 286.882812 125.535156 C 286.578125 125.140625 286.148438 124.804688 286.003906 124.324219 C 285.898438 123.972656 286.445312 123.824219 286.554688 124.171875 " fill-opacity="1" fill-rule="nonzero"/><path fill="#a65d4c" d="M 275.425781 33.929688 L 277.355469 38.175781 L 281.769531 40.921875 L 287.390625 36.566406 L 287.917969 34.933594 L 289.488281 30.125 C 289.492188 30.121094 289.492188 30.121094 289.492188 30.121094 L 289.9375 28.742188 L 286.140625 29.117188 L 277.511719 25.972656 L 275.425781 33.929688 " fill-opacity="1" fill-rule="nonzero"/><path fill="#a65d4c" d="M 298.023438 12.351562 C 298.023438 12.351562 293.34375 25.382812 292.375 27.253906 C 290.585938 30.722656 284.183594 32.667969 282.371094 32.246094 C 281.316406 32.003906 275.683594 27.625 276.144531 22.464844 C 276.296875 20.714844 278.320312 7.875 278.421875 7.714844 C 278.519531 7.550781 290.5 3.328125 290.5 3.328125 L 298.023438 12.351562 " fill-opacity="1" fill-rule="nonzero"/><path fill="#362722" d="M 290.453125 19.9375 C 290.515625 19.597656 290.71875 19.226562 290.890625 19.121094 C 291.042969 19.027344 291.234375 18.9375 291.410156 19.019531 C 292.011719 19.308594 291.351562 20.59375 290.804688 20.582031 C 290.457031 20.574219 290.390625 20.269531 290.453125 19.9375 " fill-opacity="1" fill-rule="nonzero"/><path fill="#362722" d="M 280.328125 16.773438 C 280.386719 16.417969 280.585938 16.03125 280.765625 15.914062 C 280.921875 15.816406 281.117188 15.71875 281.300781 15.800781 C 281.933594 16.089844 281.273438 17.441406 280.707031 17.4375 C 280.34375 17.4375 280.269531 17.121094 280.328125 16.773438 " fill-opacity="1" fill-rule="nonzero"/><path fill="#8f4838" d="M 283.386719 22.527344 C 283.382812 21.835938 285.597656 18.4375 286.035156 18.816406 C 286.269531 19.023438 285.90625 21.546875 285.84375 22.433594 C 285.824219 22.734375 285.773438 23.039062 285.609375 23.292969 C 285.253906 23.847656 284.40625 23.824219 283.914062 23.46875 C 283.53125 23.1875 283.386719 22.867188 283.386719 22.527344 " fill-opacity="1" fill-rule="nonzero"/><path fill="#a65d4c" d="M 277.914062 12.847656 C 277.914062 12.847656 276.144531 11.6875 275.539062 14.226562 C 274.9375 16.765625 276.816406 19.152344 276.816406 19.152344 L 277.914062 12.847656 " fill-opacity="1" fill-rule="nonzero"/><path fill="#a65d4c" d="M 295.871094 17.109375 C 295.871094 17.109375 297.976562 16.867188 297.375 19.40625 C 296.773438 21.945312 293.863281 22.992188 293.863281 22.992188 L 295.871094 17.109375 " fill-opacity="1" fill-rule="nonzero"/><path fill="#8f4838" d="M 278.894531 31.292969 C 279.246094 32.359375 281.355469 34.847656 284.925781 34.933594 C 286.359375 34.96875 287.308594 34.960938 287.917969 34.933594 L 289.488281 30.125 C 289.328125 30.21875 285.257812 32.246094 283.011719 32.140625 C 280.710938 32.027344 279.679688 29.667969 279.277344 29.722656 C 278.875 29.765625 278.546875 30.226562 278.894531 31.292969 " fill-opacity="1" fill-rule="nonzero"/><path fill="#362722" d="M 290.167969 16.074219 C 290.207031 15.984375 290.292969 15.898438 290.453125 15.828125 C 290.859375 15.65625 291.597656 15.847656 292 15.972656 C 292.917969 16.265625 293.730469 16.894531 294.089844 17.8125 C 294.3125 18.382812 292.976562 17.664062 292.773438 17.585938 C 292.15625 17.339844 291.535156 17.109375 290.902344 16.898438 C 290.527344 16.773438 290.046875 16.382812 290.167969 16.074219 " fill-opacity="1" fill-rule="nonzero"/><path fill="#362722" d="M 284.183594 14.296875 C 284.214844 14.203125 284.199219 14.082031 284.117188 13.929688 C 283.914062 13.535156 283.222656 13.21875 282.828125 13.0625 C 281.929688 12.710938 280.902344 12.683594 280.050781 13.171875 C 279.515625 13.472656 281.003906 13.761719 281.210938 13.824219 C 281.84375 14.023438 282.472656 14.238281 283.09375 14.476562 C 283.464844 14.613281 284.085938 14.613281 284.183594 14.296875 " fill-opacity="1" fill-rule="nonzero"/><path fill="#362722" d="M 277.703125 12.738281 C 277.703125 12.738281 278.269531 12.8125 279.320312 11.453125 C 279.992188 10.585938 280.535156 9.65625 280.871094 8.613281 C 281.039062 8.105469 281.261719 7.585938 281.792969 7.378906 C 282.09375 7.261719 282.421875 7.242188 282.742188 7.234375 C 287.125 7.144531 291.269531 9.566406 293.554688 13.269531 C 293.910156 13.847656 294.269531 14.449219 294.503906 15.085938 C 294.761719 15.792969 294.914062 16.546875 295.328125 17.1875 C 296.507812 18.992188 299.035156 16.0625 299.476562 14.933594 C 302.464844 7.234375 295.996094 3.476562 294.839844 2.617188 C 293.683594 1.753906 290.707031 0.046875 285.75 1.21875 C 283.003906 1.863281 281.386719 0.785156 278.917969 6.199219 C 277.976562 8.261719 277.703125 12.738281 277.703125 12.738281 " fill-opacity="1" fill-rule="nonzero"/><path fill="#8f4838" d="M 286.175781 26.027344 C 285.035156 26.539062 282.171875 26.042969 281.648438 24.738281 C 281.511719 24.40625 280.960938 24.550781 281.097656 24.890625 C 281.785156 26.589844 284.929688 27.207031 286.460938 26.519531 C 286.792969 26.371094 286.503906 25.878906 286.175781 26.027344 " fill-opacity="1" fill-rule="nonzero"/><path fill="#ffe9de" d="M 288.90625 34.554688 C 288.90625 34.554688 287.046875 36.375 283.210938 35.964844 C 278.261719 35.4375 275.832031 31.242188 275.722656 31.238281 C 275.617188 31.234375 272.582031 32.324219 272.523438 32.890625 C 272.464844 33.457031 272.683594 36.890625 274.816406 37.882812 C 276.949219 38.875 277.886719 39.644531 279.484375 40.261719 C 281.089844 40.878906 282.285156 42.953125 283.535156 42.894531 C 284.785156 42.839844 287.003906 39.140625 287.980469 38.410156 C 288.960938 37.679688 288.90625 34.554688 288.90625 34.554688 " fill-opacity="1" fill-rule="nonzero"/><path fill="#f7936a" d="M 273.699219 93.949219 C 273.699219 93.949219 269.335938 84.929688 263.925781 84.078125 C 258.519531 83.222656 250.265625 87.207031 242.578125 90.53125 C 234.894531 93.851562 211.554688 103.914062 209.375 104.199219 C 207.191406 104.484375 198.46875 98.867188 196.847656 98.125 C 192.601562 96.171875 192.675781 99.261719 193.148438 100.972656 C 193.625 102.679688 200.453125 108.660156 202.730469 111.316406 C 205.007812 113.972656 205.292969 115.398438 207.664062 115.777344 C 210.039062 116.15625 211.175781 111.601562 214.117188 110.84375 C 217.058594 110.082031 245.710938 106.285156 250.265625 104.292969 C 254.820312 102.300781 257.285156 100.738281 257.855469 101.257812 C 258.421875 101.773438 260.035156 104.578125 260.035156 104.578125 L 273.699219 93.949219 " fill-opacity="1" fill-rule="nonzero"/><path fill="#4f3228" d="M 295.996094 122.246094 C 295.996094 122.246094 274.503906 92.335938 273.367188 91.621094 C 272.230469 90.910156 263.832031 97.03125 262.125 98.742188 C 260.417969 100.449219 257.144531 104.152344 257.144531 104.863281 C 257.144531 105.574219 268.527344 127.75 268.527344 127.75 L 279.0625 128.804688 L 295.996094 122.246094 " fill-opacity="1" fill-rule="nonzero"/><path fill="#ffaf8f" d="M 247.132812 125.363281 C 247.132812 125.363281 228.109375 125.753906 226.023438 125.753906 C 223.9375 125.753906 177.0625 131.738281 174.632812 132.136719 C 172.207031 132.539062 169.644531 116.933594 165.855469 117.707031 C 164.105469 118.0625 164.835938 124.457031 165.046875 129.386719 C 165.253906 134.316406 164.199219 139.785156 167.222656 140.492188 C 168.917969 140.886719 172.207031 139.617188 174.269531 139.429688 C 176.332031 139.238281 210.367188 142.03125 210.367188 142.03125 L 247.894531 140.929688 L 247.132812 125.363281 " fill-opacity="1" fill-rule="nonzero"/><path fill="#f7936a" d="M 170.542969 135.0625 C 170.941406 134.996094 171.394531 135.269531 171.773438 135.371094 C 172.144531 135.476562 172.511719 135.550781 172.898438 135.511719 C 173.273438 135.46875 173.1875 134.886719 172.8125 134.925781 C 171.988281 135.015625 171.261719 134.34375 170.457031 134.480469 C 170.082031 134.539062 170.167969 135.125 170.542969 135.0625 " fill-opacity="1" fill-rule="nonzero"/><path fill="#5c3d32" d="M 296.644531 121.863281 C 296.644531 121.863281 289.746094 119.769531 265.253906 121.007812 C 256.800781 121.433594 244.851562 122.484375 243.339844 123.382812 C 241.828125 124.28125 241.480469 129.457031 241.628906 133.253906 C 241.78125 137.050781 243.292969 140.847656 244.046875 141.796875 C 244.804688 142.746094 294.945312 144.265625 294.945312 144.265625 L 296.644531 121.863281 " fill-opacity="1" fill-rule="nonzero"/><path fill="#f7936a" d="M 388.796875 118.324219 C 388.796875 118.324219 385.738281 115.761719 384.636719 115.582031 C 383.539062 115.398438 382.808594 118.066406 382.808594 118.066406 L 388.796875 118.324219 " fill-opacity="1" fill-rule="nonzero"/><path fill="#ffaf8f" d="M 402.101562 122.378906 C 402.101562 122.378906 397.8125 118.167969 391.675781 117.984375 C 385.539062 117.800781 375.78125 116.921875 374.382812 119.347656 C 372.539062 122.546875 374.269531 126.933594 372.992188 127.5 C 371.710938 128.066406 363.710938 128.019531 363.710938 128.019531 L 363.984375 139.925781 L 400.636719 138.449219 L 402.101562 122.378906 " fill-opacity="1" fill-rule="nonzero"/><path fill="#f7936a" d="M 380.53125 118.460938 C 380.367188 118.898438 380.214844 119.234375 380.214844 119.71875 C 380.214844 120.226562 380.242188 120.890625 380.464844 121.351562 C 380.632812 121.703125 380.113281 122.027344 379.945312 121.671875 C 379.707031 121.171875 379.644531 120.523438 379.609375 119.976562 C 379.570312 119.320312 379.71875 118.902344 379.9375 118.308594 C 380.074219 117.945312 380.667969 118.089844 380.53125 118.460938 " fill-opacity="1" fill-rule="nonzero"/><path fill="#d18d56" d="M 391.679688 119.503906 C 391.148438 119.921875 391.191406 120.859375 391.125 121.464844 C 391.070312 121.980469 390.96875 122.484375 390.894531 122.992188 C 390.839844 123.371094 391.09375 123.472656 391.414062 123.304688 C 391.574219 123.21875 391.691406 123.0625 391.773438 122.902344 C 391.9375 122.5625 392.085938 122.21875 392.207031 121.863281 C 392.4375 121.164062 392.546875 120.425781 392.433594 119.691406 C 392.429688 119.660156 392.421875 119.632812 392.414062 119.605469 C 392.3125 119.285156 391.945312 119.296875 391.679688 119.503906 " fill-opacity="1" fill-rule="nonzero"/><path fill="#4d3932" d="M 388.820312 119.816406 C 389.160156 119.734375 389.578125 119.765625 389.746094 119.878906 C 389.890625 119.980469 390.054688 120.117188 390.050781 120.3125 C 390.035156 120.980469 388.59375 120.90625 388.378906 120.402344 C 388.242188 120.082031 388.492188 119.894531 388.820312 119.816406 " fill-opacity="1" fill-rule="nonzero"/><path fill="#e35e4b" d="M 369.886719 137.96875 C 369.886719 137.96875 366.609375 129.007812 363.609375 125.089844 C 360.050781 120.445312 354.289062 117.214844 342.402344 117.792969 C 336.234375 118.09375 308.011719 120.15625 304.3125 120.25 C 300.609375 120.34375 298.199219 119.679688 296.132812 120.914062 C 294.066406 122.148438 293.117188 126.609375 292.167969 130.5 C 291.21875 134.394531 292.546875 140.84375 292.546875 140.84375 C 292.546875 140.84375 329.035156 152.425781 329.984375 152.425781 C 330.933594 152.425781 370.628906 140.5625 370.628906 140.5625 L 369.886719 137.96875 " fill-opacity="1" fill-rule="nonzero"/><path fill="#ffaf8f" d="M 287.121094 136.007812 C 287.121094 136.007812 279.070312 134.367188 277.851562 134.605469 C 276.632812 134.84375 271.699219 138.0625 271.058594 138.960938 C 270.417969 139.859375 270.546875 140.8125 270.546875 140.8125 C 270.546875 140.8125 286.246094 141.585938 286.375 141.40625 C 286.5 141.226562 287.589844 138.664062 287.589844 138.664062 L 287.121094 136.007812 " fill-opacity="1" fill-rule="nonzero"/><path fill="#ffaf8f" d="M 345.558594 129.820312 L 321.488281 131.5625 C 321.488281 131.5625 313.722656 130.34375 310.066406 131.003906 C 306.40625 131.667969 286.804688 136.078125 286.804688 136.078125 L 286.894531 141.121094 L 345.78125 142.03125 L 345.558594 129.820312 " fill-opacity="1" fill-rule="nonzero"/><path fill="#f5e8e1" d="M 159.683594 161.203125 L 399.644531 161.203125 C 404.492188 161.203125 408.421875 157.273438 408.421875 152.421875 L 150.902344 152.421875 C 150.902344 157.273438 154.832031 161.203125 159.683594 161.203125 " fill-opacity="1" fill-rule="nonzero"/><g clip-path="url(#bec5c8a16b)"><path fill="#874c43" d="M 364.492188 155.269531 L 408.425781 155.269531 C 412 155.269531 414.898438 152.371094 414.898438 148.792969 L 414.898438 146.28125 C 414.898438 142.703125 412 139.804688 408.425781 139.804688 L 364.492188 139.804688 C 360.917969 139.804688 358.019531 142.703125 358.019531 146.28125 L 358.019531 148.792969 C 358.019531 152.371094 360.917969 155.269531 364.492188 155.269531 " fill-opacity="1" fill-rule="nonzero"/></g><path fill="#874c43" d="M 303.203125 155.269531 L 353.394531 155.269531 C 356.96875 155.269531 359.867188 152.371094 359.867188 148.792969 L 359.867188 146.28125 C 359.867188 142.703125 356.96875 139.804688 353.394531 139.804688 L 303.203125 139.804688 C 299.628906 139.804688 296.730469 142.703125 296.730469 146.28125 L 296.730469 148.792969 C 296.730469 152.371094 299.628906 155.269531 303.203125 155.269531 " fill-opacity="1" fill-rule="nonzero"/><path fill="#874c43" d="M 195.234375 155.269531 L 292.863281 155.269531 C 296.441406 155.269531 299.335938 152.371094 299.335938 148.792969 L 299.335938 146.28125 C 299.335938 142.703125 296.441406 139.804688 292.863281 139.804688 L 195.234375 139.804688 C 191.65625 139.804688 188.757812 142.703125 188.757812 146.28125 L 188.757812 148.792969 C 188.757812 152.371094 191.65625 155.269531 195.234375 155.269531 " fill-opacity="1" fill-rule="nonzero"/><g clip-path="url(#32c8b2aff4)"><path fill="#874c43" d="M 149.691406 155.269531 L 184.753906 155.269531 C 188.328125 155.269531 191.226562 152.371094 191.226562 148.792969 L 191.226562 146.28125 C 191.226562 142.703125 188.328125 139.804688 184.753906 139.804688 L 149.691406 139.804688 C 146.117188 139.804688 143.21875 142.703125 143.21875 146.28125 L 143.21875 148.792969 C 143.21875 152.371094 146.117188 155.269531 149.691406 155.269531 " fill-opacity="1" fill-rule="nonzero"/></g><path fill="#f5e8e1" d="M 388 249.1875 L 395.117188 249.1875 L 395.117188 159.496094 L 388 159.496094 L 388 249.1875 " fill-opacity="1" fill-rule="nonzero"/><g clip-path="url(#d2e4ec09fe)"><path fill="#3d3227" d="M 389.714844 250.613281 L 393.402344 250.613281 C 394.746094 250.613281 395.65625 249.234375 395.125 247.996094 L 395.117188 247.980469 L 387.996094 247.980469 L 387.992188 247.996094 C 387.460938 249.234375 388.367188 250.613281 389.714844 250.613281 " fill-opacity="1" fill-rule="nonzero"/></g><path fill="#f5e8e1" d="M 171.328125 249.1875 L 164.210938 249.1875 L 164.210938 159.496094 L 171.328125 159.496094 L 171.328125 249.1875 " fill-opacity="1" fill-rule="nonzero"/><g clip-path="url(#93c4b4ff03)"><path fill="#3d3227" d="M 169.613281 250.613281 L 165.925781 250.613281 C 164.578125 250.613281 163.671875 249.234375 164.203125 247.996094 L 164.210938 247.980469 L 171.328125 247.980469 L 171.335938 247.996094 C 171.867188 249.234375 170.957031 250.613281 169.613281 250.613281 " fill-opacity="1" fill-rule="nonzero"/></g><path fill="#e8d4ca" d="M 388.757812 161.109375 L 394.640625 161.109375 C 395.007812 161.109375 395.007812 161.679688 394.640625 161.679688 L 388.757812 161.679688 C 388.394531 161.679688 388.394531 161.109375 388.757812 161.109375 " fill-opacity="1" fill-rule="nonzero"/><path fill="#e8d4ca" d="M 164.921875 160.824219 C 166.816406 160.824219 168.738281 160.933594 170.617188 160.921875 C 170.980469 160.917969 170.984375 161.488281 170.617188 161.488281 C 168.738281 161.503906 166.816406 161.394531 164.921875 161.394531 C 164.554688 161.394531 164.554688 160.824219 164.921875 160.824219 " fill-opacity="1" fill-rule="nonzero"/><path fill="#c9503e" d="M 344.539062 127.179688 C 346.074219 127.132812 347.582031 126.917969 349.085938 126.65625 C 350.808594 126.355469 352.425781 126.300781 354.082031 125.660156 C 357.140625 124.480469 359.96875 125.539062 363.003906 126.257812 C 363.09375 126.277344 363.183594 126.363281 363.203125 126.453125 C 363.210938 126.480469 363.214844 126.507812 363.21875 126.535156 C 363.289062 126.890625 362.742188 127.046875 362.667969 126.6875 C 362.65625 126.609375 360.710938 126.230469 360.570312 126.199219 C 359.605469 125.984375 358.632812 125.742188 357.644531 125.660156 C 355.847656 125.503906 354.5625 126.21875 352.914062 126.714844 C 351.585938 127.109375 350.148438 127.03125 348.785156 127.292969 C 347.382812 127.558594 345.96875 127.703125 344.539062 127.75 C 344.171875 127.761719 344.171875 127.191406 344.539062 127.179688 " fill-opacity="1" fill-rule="nonzero"/><path fill="#c9503e" d="M 347.113281 129.160156 C 348.578125 130.425781 349.867188 132.003906 350.875 133.660156 C 351.296875 134.355469 351.707031 135.054688 352.003906 135.816406 C 352.277344 136.503906 352.488281 137.527344 352.90625 138.203125 C 353.050781 138.199219 353.1875 138.289062 353.171875 138.472656 C 353.167969 138.53125 353.164062 138.585938 353.160156 138.640625 C 353.140625 138.863281 352.84375 139.050781 352.671875 138.84375 C 351.75 137.734375 351.582031 136.042969 350.882812 134.789062 C 349.804688 132.851562 348.390625 131.015625 346.710938 129.5625 C 346.433594 129.324219 346.835938 128.921875 347.113281 129.160156 " fill-opacity="1" fill-rule="nonzero"/><path fill="#c9503e" d="M 352.28125 132.160156 C 352.859375 133.097656 353.355469 134.050781 353.75 135.082031 C 353.996094 135.722656 354.21875 136.371094 354.429688 137.023438 C 354.554688 137.398438 354.660156 138.214844 355.023438 138.417969 C 355.34375 138.597656 355.058594 139.089844 354.738281 138.910156 C 354.070312 138.535156 353.945312 137.34375 353.726562 136.699219 C 353.222656 135.199219 352.621094 133.792969 351.789062 132.449219 C 351.59375 132.136719 352.085938 131.851562 352.28125 132.160156 " fill-opacity="1" fill-rule="nonzero"/><path fill="#c9503e" d="M 300.726562 131.460938 C 301.667969 131.289062 302.328125 129.878906 302.933594 129.148438 C 303.640625 128.296875 304.40625 127.648438 305.246094 126.933594 C 305.960938 126.320312 306.746094 125.828125 307.503906 125.269531 C 308.605469 124.460938 309.589844 123.476562 310.5625 122.515625 C 310.824219 122.257812 311.226562 122.660156 310.964844 122.917969 C 309.136719 124.726562 307.128906 126.125 305.152344 127.734375 C 304.140625 128.558594 303.300781 129.515625 302.515625 130.558594 C 301.996094 131.246094 301.769531 131.847656 300.875 132.011719 C 300.519531 132.074219 300.363281 131.527344 300.726562 131.460938 " fill-opacity="1" fill-rule="nonzero"/><path fill="#c9503e" d="M 297.964844 132.988281 C 298.363281 131.605469 298.984375 129.992188 299.871094 128.835938 C 300.917969 127.460938 302.726562 127.066406 303.921875 125.839844 C 304.175781 125.574219 304.578125 125.980469 304.324219 126.242188 C 303.242188 127.351562 301.617188 127.757812 300.570312 128.875 C 299.566406 129.953125 298.917969 131.734375 298.515625 133.140625 C 298.414062 133.492188 297.863281 133.339844 297.964844 132.988281 " fill-opacity="1" fill-rule="nonzero"/><path fill="#826055" d="M 289.042969 126.644531 C 289.460938 125.203125 290.027344 123.667969 290.78125 122.386719 C 290.96875 122.070312 291.460938 122.355469 291.273438 122.671875 C 290.570312 123.867188 289.984375 125.464844 289.589844 126.792969 C 289.046875 128.628906 288.714844 130.441406 288.75 132.351562 C 288.757812 132.71875 288.191406 132.71875 288.183594 132.351562 C 288.144531 130.363281 288.484375 128.558594 289.042969 126.644531 " fill-opacity="1" fill-rule="nonzero"/><path fill="#826055" d="M 285.636719 126.472656 C 285.824219 125.402344 285.933594 124.324219 286.34375 123.308594 C 286.476562 122.972656 287.027344 123.117188 286.890625 123.457031 C 286.523438 124.375 286.4375 125.335938 286.238281 126.296875 C 285.984375 127.511719 285.65625 128.972656 285.621094 130.214844 C 285.609375 130.582031 285.042969 130.585938 285.050781 130.214844 C 285.085938 128.996094 285.421875 127.6875 285.636719 126.472656 " fill-opacity="1" fill-rule="nonzero"/><path fill="#d18d56" d="M 398.679688 119.960938 C 398.679688 119.960938 395.902344 122.609375 394.914062 125.128906 C 393.929688 127.652344 389.960938 128.054688 389.195312 128.804688 C 388.429688 129.550781 388.851562 131.464844 386.460938 132.027344 C 384.0625 132.589844 382.546875 129.804688 381.597656 129.820312 C 380.648438 129.835938 377.234375 130.683594 375.714844 132.015625 C 374.195312 133.347656 373.039062 133.917969 370.632812 134.582031 C 368.21875 135.246094 366.800781 134.839844 366.609375 137.335938 C 366.414062 139.828125 367.160156 141.320312 370.632812 141.320312 C 374.101562 141.320312 396.113281 140.941406 399.148438 140.65625 C 402.183594 140.371094 403.417969 138.664062 404.082031 134.867188 C 404.746094 131.070312 406.167969 129.570312 403.324219 123.847656 C 402.101562 121.390625 398.679688 119.960938 398.679688 119.960938 " fill-opacity="1" fill-rule="nonzero"/><path fill="#d18d56" d="M 368.394531 135.078125 C 368.394531 135.078125 365.300781 135.402344 364.949219 137.394531 C 364.589844 139.386719 363.402344 142.945312 363.710938 145.367188 C 364.023438 147.789062 365.089844 150.347656 368.078125 152.273438 C 371.066406 154.195312 374.695312 151.558594 376.902344 149.636719 C 379.105469 147.714844 381.027344 147.429688 384.800781 146.148438 C 388.570312 144.867188 388.855469 142.542969 390.707031 142.03125 C 392.554688 141.523438 400.011719 140.523438 400.011719 140.523438 C 400.011719 140.523438 393.265625 137.464844 390.5625 137.25 C 387.859375 137.039062 368.394531 135.078125 368.394531 135.078125 " fill-opacity="1" fill-rule="nonzero"/><path fill="#a65d4c" d="M 276.03125 31.628906 C 276.03125 31.628906 276.855469 41.292969 279.523438 41.332031 C 282.191406 41.367188 287.808594 35.273438 287.808594 35.273438 L 283.222656 34.957031 L 278.417969 32.679688 L 276.03125 31.628906 " fill-opacity="1" fill-rule="nonzero"/><path fill="#f0dace" d="M 290.289062 36.691406 C 288.625 38.453125 286.707031 40.203125 284.714844 41.585938 C 283.578125 42.371094 282.378906 42.976562 281.15625 43.613281 C 280.574219 43.914062 279.265625 45.035156 278.621094 45.015625 C 278.554688 45.015625 278.503906 45.035156 278.464844 45.066406 C 277.683594 44.449219 277.113281 43.078125 276.691406 42.214844 C 276.304688 41.414062 275.882812 40.625 275.519531 39.8125 C 275.050781 38.75 274.6875 37.625 274.421875 36.496094 C 274.183594 35.46875 273.75 34.421875 273.914062 33.359375 C 273.972656 33 273.414062 32.886719 273.355469 33.246094 C 273.199219 34.253906 273.515625 35.125 273.746094 36.101562 C 274.058594 37.414062 274.417969 38.664062 274.9375 39.914062 C 275.304688 40.800781 275.78125 41.648438 276.203125 42.503906 C 276.671875 43.460938 277.246094 44.835938 278.097656 45.503906 C 278.222656 45.601562 278.363281 45.574219 278.457031 45.496094 C 278.507812 45.546875 278.574219 45.582031 278.660156 45.585938 C 279.414062 45.609375 280.457031 44.640625 281.082031 44.296875 C 282.363281 43.597656 283.65625 42.972656 284.882812 42.160156 C 286.996094 40.761719 288.984375 38.902344 290.71875 37.0625 C 290.972656 36.796875 290.539062 36.421875 290.289062 36.691406 " fill-opacity="1" fill-rule="nonzero"/><path fill="#ffe9de" d="M 263.957031 30.742188 C 263.957031 30.742188 251.167969 33.675781 246.183594 38.234375 C 241.203125 42.789062 229.105469 54.433594 229.105469 55.445312 C 229.105469 56.457031 238.074219 66.992188 239.496094 66.992188 C 240.917969 66.992188 260.984375 53.75 260.984375 53.75 L 263.957031 30.742188 " fill-opacity="1" fill-rule="nonzero"/><path fill="#a65d4c" d="M 222.269531 67.277344 C 222.074219 68.820312 221.527344 73.199219 227.453125 78.039062 C 233.378906 82.871094 248.328125 95.527344 248.328125 95.527344 L 251.613281 89.898438 C 251.613281 89.898438 244.847656 80.089844 238.832031 70.710938 C 232.816406 61.335938 229.347656 60.753906 226.183594 61.742188 C 223.019531 62.730469 222.46875 65.734375 222.269531 67.277344 " fill-opacity="1" fill-rule="nonzero"/><path fill="#a65d4c" d="M 250.65625 88.5 C 250.65625 88.5 254.699219 92.894531 255.511719 94.722656 C 256.324219 96.554688 257.402344 101.621094 257.136719 102.511719 C 256.324219 105.21875 253.726562 106.140625 252.542969 105.785156 C 249.636719 104.917969 248.140625 100.289062 247.769531 99.152344 C 246.796875 96.171875 247.5 93.414062 247.5 93.414062 L 250.65625 88.5 " fill-opacity="1" fill-rule="nonzero"/><path fill="#a65d4c" d="M 311.898438 77.277344 C 310.511719 76.578125 306.175781 75.300781 299.644531 79.28125 C 293.109375 83.261719 276.5625 93.5625 276.5625 93.5625 L 280.414062 98.117188 C 280.414062 98.117188 291.917969 95.019531 302.757812 92.457031 C 316.0625 89.308594 315.957031 86.070312 315.953125 83.363281 C 315.949219 80.050781 313.289062 77.976562 311.898438 77.277344 " fill-opacity="1" fill-rule="nonzero"/><path fill="#a65d4c" d="M 277.328125 93.191406 C 277.328125 93.191406 274.351562 92.210938 272.574219 92.40625 C 270.796875 92.605469 266.511719 95.238281 265.265625 96.703125 C 263.886719 98.332031 264.765625 100.605469 266.15625 101.839844 C 266.949219 102.542969 270.402344 102.875 272.722656 102.628906 C 275.042969 102.382812 281.339844 97.929688 281.339844 97.929688 C 281.339844 97.929688 284.222656 93.148438 283.925781 92.902344 C 283.628906 92.652344 277.328125 93.191406 277.328125 93.191406 " fill-opacity="1" fill-rule="nonzero"/><path fill="#f0dace" d="M 257.191406 34.875 C 257.191406 34.507812 256.636719 34.507812 256.621094 34.875 C 256.539062 36.921875 255.921875 39.066406 255.445312 41.058594 C 254.980469 43.007812 254.457031 44.949219 253.75 46.820312 C 253.175781 48.34375 252.71875 49.917969 252.152344 51.445312 C 251.851562 52.265625 251.527344 53.078125 251.132812 53.859375 C 250.828125 54.464844 250.378906 54.976562 250.179688 55.621094 C 250.070312 55.972656 250.621094 56.121094 250.730469 55.773438 C 250.996094 54.917969 251.652344 54.132812 252.027344 53.304688 C 252.3125 52.675781 252.542969 52.03125 252.78125 51.382812 C 253.402344 49.691406 253.996094 47.988281 254.589844 46.289062 C 255.21875 44.476562 255.691406 42.558594 256.117188 40.683594 C 256.511719 38.9375 257.019531 37.125 257.160156 35.328125 C 257.179688 35.289062 257.191406 35.246094 257.191406 35.195312 L 257.191406 34.875 " fill-opacity="1" fill-rule="nonzero"/><path fill="#f0dace" d="M 257.757812 41.839844 C 257.761719 42.9375 257.289062 44.300781 257.039062 45.359375 C 256.738281 46.652344 256.363281 47.859375 255.898438 49.105469 C 255.378906 50.5 254.699219 51.832031 253.925781 53.105469 C 253.585938 53.664062 253.21875 54.207031 252.859375 54.75 C 252.390625 55.460938 252 56.515625 251.257812 56.96875 C 250.949219 57.160156 251.234375 57.652344 251.546875 57.460938 C 252.601562 56.816406 253.070312 55.472656 253.734375 54.464844 C 254.675781 53.039062 255.523438 51.546875 256.175781 49.964844 C 256.738281 48.59375 257.25 47.175781 257.546875 45.726562 C 257.808594 44.457031 258.328125 43.136719 258.328125 41.839844 C 258.328125 41.472656 257.757812 41.472656 257.757812 41.839844 " fill-opacity="1" fill-rule="nonzero"/><path fill="#f0dace" d="M 302.75 41.375 C 302.699219 41.390625 302.648438 41.398438 302.597656 41.414062 C 302.503906 41.433594 302.421875 41.515625 302.398438 41.609375 C 301.859375 43.730469 301.058594 45.777344 300.511719 47.886719 C 299.90625 50.222656 299.375 52.601562 298.847656 54.953125 C 298.371094 57.082031 298.214844 59.078125 298.011719 61.234375 C 297.894531 62.484375 297.972656 63.703125 297.765625 64.957031 C 297.621094 65.847656 297.46875 66.761719 297.417969 67.65625 C 297.398438 68.023438 297.96875 68.023438 297.988281 67.65625 C 298.046875 66.5625 298.300781 65.4375 298.445312 64.347656 C 298.59375 63.222656 298.480469 62.089844 298.617188 60.964844 C 298.753906 59.878906 298.683594 58.800781 298.859375 57.722656 C 299.027344 56.679688 299.269531 55.648438 299.503906 54.617188 C 300.003906 52.429688 300.496094 50.214844 301.058594 48.039062 C 301.339844 46.949219 301.800781 45.921875 302.113281 44.839844 C 302.242188 44.40625 302.609375 41.996094 302.902344 41.925781 C 303.257812 41.839844 303.109375 41.289062 302.75 41.375 " fill-opacity="1" fill-rule="nonzero"/><path fill="#f0dace" d="M 290.816406 53.84375 C 289.957031 54.996094 289.027344 56.097656 288.160156 57.246094 C 287.347656 58.324219 286.742188 59.496094 286.054688 60.65625 C 284.382812 63.46875 282.691406 66.398438 280.5 68.855469 C 278.636719 70.941406 277.027344 73.195312 275.207031 75.320312 C 274.171875 76.535156 272.953125 77.601562 271.816406 78.726562 C 271.382812 79.15625 270.878906 79.566406 270.507812 80.054688 C 270.097656 80.589844 269.882812 81.179688 269.417969 81.691406 C 269.171875 81.960938 269.574219 82.367188 269.820312 82.09375 C 270.6875 81.132812 271.28125 80.058594 272.21875 79.128906 C 273.355469 78.003906 274.570312 76.933594 275.613281 75.722656 C 276.527344 74.652344 277.308594 73.46875 278.1875 72.367188 C 279.144531 71.167969 280.238281 70.054688 281.230469 68.878906 C 283.195312 66.550781 284.710938 63.914062 286.304688 61.335938 C 287.148438 59.972656 287.875 58.601562 288.832031 57.3125 C 289.632812 56.226562 290.503906 55.210938 291.308594 54.132812 C 291.527344 53.839844 291.03125 53.554688 290.816406 53.84375 " fill-opacity="1" fill-rule="nonzero"/><path fill="#8997b0" d="M 288.300781 236.148438 C 288.039062 235.382812 287.339844 234.757812 286.828125 234.128906 C 285.964844 233.085938 285.320312 231.964844 284.554688 230.851562 C 283.074219 228.707031 281.710938 226.480469 280.515625 224.160156 C 279.199219 221.597656 277.941406 218.917969 276.894531 216.234375 C 275.996094 213.933594 275.238281 211.558594 274.230469 209.3125 C 274.078125 208.980469 273.589844 209.269531 273.738281 209.601562 C 274.875 212.132812 275.652344 214.835938 276.753906 217.390625 C 277.746094 219.683594 278.773438 221.984375 279.902344 224.210938 C 281.046875 226.464844 282.339844 228.679688 283.785156 230.746094 C 284.425781 231.660156 284.921875 232.683594 285.582031 233.570312 C 286 234.136719 286.492188 234.65625 286.925781 235.210938 C 287.136719 235.484375 287.644531 235.984375 287.75 236.296875 C 287.867188 236.644531 288.417969 236.492188 288.300781 236.148438 " fill-opacity="1" fill-rule="nonzero"/><path fill="#8997b0" d="M 283.101562 233.550781 C 282.257812 232.574219 281.632812 231.425781 280.9375 230.339844 C 280.289062 229.328125 280.007812 228.160156 279.351562 227.15625 C 279.152344 226.851562 278.660156 227.136719 278.859375 227.445312 C 279.585938 228.554688 279.953125 229.851562 280.679688 230.984375 C 281.328125 231.996094 281.910156 233.042969 282.699219 233.957031 C 282.941406 234.234375 283.34375 233.828125 283.101562 233.550781 " fill-opacity="1" fill-rule="nonzero"/><path fill="#8997b0" d="M 251.011719 164.078125 C 250.191406 164.773438 249.242188 165.320312 248.46875 166.0625 C 247.6875 166.808594 247 167.707031 246.230469 168.484375 C 244.5 170.222656 242.75 171.917969 240.953125 173.585938 C 239.3125 175.109375 237.5625 176.632812 235.789062 178.011719 C 234.84375 178.75 233.894531 179.457031 232.871094 180.078125 C 232.019531 180.59375 231.042969 181.40625 230.074219 181.65625 C 229.722656 181.75 229.871094 182.300781 230.226562 182.207031 C 231.121094 181.972656 231.945312 181.285156 232.734375 180.820312 C 233.765625 180.207031 234.71875 179.546875 235.671875 178.816406 C 236.589844 178.113281 237.398438 177.339844 238.265625 176.582031 C 239.085938 175.863281 239.984375 175.34375 240.757812 174.570312 C 242.5625 172.769531 244.46875 171.074219 246.265625 169.257812 C 246.972656 168.542969 247.734375 167.855469 248.382812 167.085938 C 249.242188 166.074219 250.394531 165.34375 251.414062 164.480469 C 251.695312 164.242188 251.289062 163.839844 251.011719 164.078125 " fill-opacity="1" fill-rule="nonzero"/></svg>