<svg xmlns="http://www.w3.org/2000/svg" xmlns:xlink="http://www.w3.org/1999/xlink" width="750" zoomAndPan="magnify" viewBox="0 0 562.5 251.250001" height="335" preserveAspectRatio="xMidYMid meet" version="1.0"><defs><clipPath id="09c97d4ee7"><path d="M 0.585938 0 L 561.414062 0 L 561.414062 250.503906 L 0.585938 250.503906 Z M 0.585938 0 " clip-rule="nonzero"/></clipPath><clipPath id="bed8354e8e"><path d="M 221.546875 160 L 300 160 L 300 234 L 221.546875 234 Z M 221.546875 160 " clip-rule="nonzero"/></clipPath><clipPath id="c09d361a7b"><path d="M 271 188 L 297 188 L 297 250.503906 L 271 250.503906 Z M 271 188 " clip-rule="nonzero"/></clipPath></defs><g clip-path="url(#09c97d4ee7)"><path fill="#ffffff" d="M 0.585938 0 L 561.914062 0 L 561.914062 250.726562 L 0.585938 250.726562 Z M 0.585938 0 " fill-opacity="1" fill-rule="nonzero"/><path fill="#ffffff" d="M 0.585938 0 L 561.914062 0 L 561.914062 250.726562 L 0.585938 250.726562 Z M 0.585938 0 " fill-opacity="1" fill-rule="nonzero"/></g><path fill="#ffc7ad" d="M 269.4375 59.566406 C 268.890625 59.332031 268.386719 58.996094 267.964844 58.558594 C 267.371094 57.945312 266.632812 57.519531 265.898438 57.097656 C 263.8125 55.886719 261.726562 54.679688 259.640625 53.472656 C 259.300781 53.277344 258.835938 53.089844 258.519531 53.382812 C 258.382812 53.511719 258.316406 53.703125 258.292969 53.890625 C 258.214844 54.464844 258.484375 55.011719 258.855469 55.40625 C 259.230469 55.796875 259.707031 56.0625 260.15625 56.359375 C 260.90625 56.847656 261.59375 57.429688 262.214844 58.085938 C 262.265625 58.148438 262.328125 58.210938 262.332031 58.296875 C 262.339844 58.457031 262.164062 58.566406 262.011719 58.625 C 261.34375 58.886719 260.640625 59.007812 259.941406 59.035156 C 259.578125 59.050781 259.21875 59.042969 258.859375 59.015625 C 258.527344 58.996094 258.203125 59.070312 257.886719 59.023438 C 256.164062 58.75 254.496094 58.152344 252.734375 58.1875 C 252.140625 58.199219 251.148438 58.65625 251.828125 59.328125 C 252.390625 59.882812 253.203125 60.058594 253.972656 60.246094 C 254.90625 60.472656 255.828125 60.738281 256.738281 61.046875 C 256.953125 61.117188 257.160156 61.210938 257.382812 61.265625 C 257.484375 61.289062 257.691406 61.265625 257.765625 61.351562 C 258.195312 61.84375 256.574219 61.984375 256.378906 62.023438 C 255.59375 62.167969 254.8125 62.3125 254.027344 62.457031 C 253.144531 62.621094 252.175781 62.835938 251.585938 63.578125 C 251.394531 63.820312 251.257812 64.042969 251.414062 64.28125 C 251.53125 64.460938 251.832031 64.613281 252.035156 64.667969 C 252.480469 64.789062 252.96875 64.660156 253.433594 64.550781 C 254.578125 64.28125 255.734375 64.105469 256.890625 64.027344 C 257.425781 63.992188 258.042969 63.921875 258.570312 63.988281 C 259.265625 64.074219 258.722656 64.570312 258.308594 64.695312 C 257.402344 64.980469 256.46875 65.234375 255.625 65.726562 C 255.277344 65.929688 254.78125 66.226562 254.523438 66.558594 C 254.203125 66.964844 254.570312 67.351562 254.957031 67.410156 C 255.34375 67.472656 255.742188 67.34375 256.128906 67.222656 C 257.058594 66.921875 257.992188 66.625 258.925781 66.328125 C 259.308594 66.199219 259.792969 65.949219 260.1875 65.9375 C 260.480469 65.929688 260.726562 66.097656 260.503906 66.414062 C 260.195312 66.84375 259.707031 67.074219 259.3125 67.410156 C 259.035156 67.648438 258.800781 67.9375 258.628906 68.261719 C 258.546875 68.414062 258.484375 68.609375 258.585938 68.730469 C 258.667969 68.824219 258.8125 68.820312 258.9375 68.800781 C 259.628906 68.710938 260.359375 68.542969 260.964844 68.128906 C 261.617188 67.683594 262.441406 67.390625 263.152344 67.085938 C 264.582031 66.472656 265.980469 66.113281 267.527344 65.988281 C 268.796875 65.886719 270.0625 66.0625 271.34375 65.914062 C 271.757812 65.867188 272.1875 65.789062 272.523438 65.546875 C 273.144531 65.097656 273.28125 64.25 273.371094 63.488281 C 273.457031 62.742188 273.574219 61.71875 273.398438 60.976562 C 273.328125 60.671875 273.167969 60.375 272.90625 60.199219 C 272.53125 59.949219 272.042969 59.992188 271.589844 59.992188 C 270.84375 59.992188 270.109375 59.851562 269.4375 59.566406 " fill-opacity="1" fill-rule="nonzero"/><path fill="#cddcfb" d="M 309.480469 31.976562 C 306.785156 30.816406 303.53125 31.789062 301.304688 33.699219 C 297.167969 37.25 291.742188 54.449219 291.246094 55.664062 C 290.941406 56.402344 290.613281 57.175781 289.984375 57.667969 C 289.347656 58.175781 288.496094 58.3125 287.679688 58.351562 C 284.867188 58.488281 274.570312 58.132812 272.265625 58.195312 C 271.085938 58.222656 269.382812 58.054688 268.28125 58.597656 C 266.992188 59.234375 268.554688 66.53125 268.980469 66.660156 C 270.085938 66.984375 278.542969 69.007812 281.667969 69.679688 C 282.765625 69.917969 291.5625 71.058594 293.640625 70.519531 C 295.476562 70.046875 296.695312 69.273438 297.921875 68.355469 C 300.472656 66.445312 301.335938 63.546875 302.597656 60.75 C 304.136719 57.335938 305.457031 53.804688 306.820312 50.316406 C 307.875 47.628906 309.476562 44.671875 309.882812 41.800781 C 310.042969 40.664062 310.316406 39.542969 310.738281 38.46875 C 311.066406 37.632812 311.828125 36.957031 312.117188 36.183594 C 312.769531 34.460938 310.941406 32.605469 309.480469 31.976562 " fill-opacity="1" fill-rule="nonzero"/><path fill="#7a472d" d="M 331.425781 16.003906 C 330.613281 16.957031 329.609375 17.707031 328.453125 18.128906 C 325.445312 19.222656 325.703125 17.976562 324.132812 16.214844 C 322.1875 14.03125 319.871094 14.035156 317.660156 12.390625 C 316.160156 11.273438 315.589844 8.976562 316.363281 7.171875 C 316.914062 5.890625 318.007812 4.953125 319.121094 4.167969 C 323.859375 0.835938 330.808594 -0.015625 333.296875 6.636719 C 334.410156 9.609375 333.570312 13.503906 331.425781 16.003906 " fill-opacity="1" fill-rule="nonzero"/><path fill="#dae8fd" d="M 325.632812 182.988281 C 325.613281 183.335938 325.558594 183.679688 325.441406 184.007812 C 325.195312 184.714844 324.730469 185.339844 324.40625 186.015625 C 323.542969 187.808594 322.34375 189.417969 321.265625 191.078125 C 320.03125 192.976562 318.789062 194.875 317.550781 196.769531 C 316.65625 198.144531 316.128906 199.492188 315.53125 200.996094 C 315.300781 201.566406 315.144531 202.207031 315.324219 202.792969 C 315.441406 203.171875 315.691406 203.492188 315.960938 203.777344 C 317.25 205.132812 319.371094 205.769531 321.179688 205.96875 C 322.199219 206.078125 323.203125 206.34375 324.203125 205.953125 C 325.167969 205.570312 325.820312 204.667969 326.53125 203.976562 C 328.230469 202.328125 329.015625 200.085938 329.894531 197.96875 C 330.214844 197.203125 330.785156 196.542969 331.402344 195.996094 C 332.59375 194.9375 333.992188 194.277344 334.734375 192.820312 C 335.574219 191.179688 336.066406 189.054688 335.414062 187.277344 C 334.699219 185.320312 334.550781 183.039062 334.203125 180.96875 C 334.109375 180.398438 334 179.796875 333.632812 179.347656 C 332.996094 178.5625 332.089844 178.179688 331.097656 178.050781 C 330.257812 177.941406 329.40625 178.007812 328.566406 178.074219 C 327.859375 178.125 327.105469 178.195312 326.542969 178.628906 C 325.699219 179.277344 325.582031 180.488281 325.617188 181.550781 C 325.632812 182.019531 325.660156 182.511719 325.632812 182.988281 " fill-opacity="1" fill-rule="nonzero"/><path fill="#dae8fd" d="M 309.792969 174.726562 C 308.914062 175.371094 308.128906 176.128906 307.269531 176.789062 C 306.417969 177.445312 305.519531 177.96875 304.679688 178.644531 C 302.835938 180.128906 300.917969 181.523438 298.9375 182.824219 C 297.441406 183.808594 295.898438 184.742188 294.511719 185.878906 C 293.429688 186.765625 292.441406 187.785156 291.703125 188.980469 C 291.292969 189.640625 291.140625 190.007812 291.351562 190.769531 C 291.542969 191.441406 291.921875 192.054688 292.308594 192.628906 C 293.035156 193.726562 293.886719 194.839844 295.109375 195.335938 C 296.289062 195.8125 297.648438 195.636719 298.835938 195.1875 C 300.621094 194.511719 302.535156 193.199219 303.75 191.730469 C 305.050781 190.15625 306.546875 188.890625 308.480469 188.148438 C 310.019531 187.5625 311.71875 187.316406 313.066406 186.375 C 314.257812 185.535156 315.023438 184.164062 315.207031 182.730469 C 315.414062 181.058594 314.734375 179.378906 314.84375 177.6875 C 314.914062 176.601562 313.578125 172.785156 312.671875 172.691406 C 311.660156 172.589844 310.640625 172.980469 309.84375 173.609375 L 309.792969 174.726562 " fill-opacity="1" fill-rule="nonzero"/><path fill="#275ebe" d="M 296.132812 110.339844 C 296.167969 110.878906 296.207031 111.417969 296.25 111.960938 C 296.828125 119.09375 298.386719 126.007812 299.890625 132.984375 C 300.589844 136.226562 300.71875 144.546875 306.320312 143.046875 C 309.0625 142.308594 313.816406 137.480469 314.230469 131.519531 C 314.453125 128.304688 314.269531 123.730469 314.4375 120.511719 C 314.78125 113.859375 311.109375 91.824219 311.109375 91.824219 C 311.109375 91.824219 298.71875 87.570312 298.167969 88.871094 C 297.105469 91.378906 296.941406 94 296.613281 96.273438 C 295.941406 100.925781 295.839844 105.648438 296.132812 110.339844 " fill-opacity="1" fill-rule="nonzero"/><path fill="#275ebe" d="M 298.828125 125.355469 C 299.445312 132.621094 300.925781 139.789062 302.226562 146.953125 C 303.589844 154.46875 304.140625 161.800781 303.851562 169.449219 C 303.785156 171.199219 303.703125 172.945312 303.628906 174.691406 C 303.542969 176.78125 303.617188 179.199219 305.257812 180.5 C 307.257812 182.085938 310.222656 181.449219 312.421875 180.679688 C 313.242188 180.390625 314.746094 180 315.253906 179.226562 C 315.945312 178.175781 315.523438 176.136719 315.441406 174.964844 C 314.824219 166.273438 317.394531 157.886719 317.15625 149.199219 C 317.003906 143.535156 315.667969 138.601562 313.296875 133.472656 C 312.722656 132.234375 311.894531 130.894531 310.550781 130.667969 L 298.828125 125.355469 " fill-opacity="1" fill-rule="nonzero"/><path fill="#3574e0" d="M 334.941406 100.332031 C 334.179688 95.308594 332.863281 89.636719 330.03125 86.707031 C 330.03125 86.707031 316.792969 94.972656 306.238281 91.859375 C 305.109375 91.523438 306.347656 92.988281 306.667969 94.140625 C 307.386719 96.742188 308.105469 99.335938 308.828125 101.9375 C 310.390625 107.605469 312.722656 113.539062 313.53125 119.335938 C 314.398438 125.566406 315.191406 131.808594 316.441406 137.980469 C 317.007812 140.769531 318.707031 143.5 320.144531 145.828125 C 321.8125 148.546875 323.414062 150.019531 326.144531 149.53125 C 327.382812 149.3125 329.4375 147.761719 330.058594 146.664062 C 330.488281 145.890625 330.640625 144.835938 330.851562 143.988281 C 331.964844 139.472656 332.363281 134.96875 332.800781 130.371094 C 333.261719 125.542969 333.515625 120.699219 333.917969 115.867188 C 334.335938 110.808594 335.707031 105.351562 334.941406 100.332031 " fill-opacity="1" fill-rule="nonzero"/><path fill="#3574e0" d="M 316.355469 135.585938 C 316.484375 135.609375 317.230469 139.777344 317.359375 140.226562 C 317.789062 141.726562 318.308594 143.199219 318.859375 144.664062 C 319.960938 147.613281 321.332031 150.574219 322.027344 153.65625 C 323.5625 160.421875 324.121094 167.703125 323.835938 174.648438 C 323.773438 176.179688 323.667969 177.703125 323.515625 179.230469 C 323.339844 180.980469 323.109375 182.777344 323.585938 184.476562 C 324.28125 186.9375 326.519531 187.941406 328.824219 188.480469 C 329.78125 188.707031 330.78125 188.816406 331.753906 188.664062 C 333.019531 188.460938 334.722656 188.035156 335.460938 186.910156 C 335.921875 186.21875 336.113281 185.386719 336.253906 184.566406 C 336.695312 182.019531 336.6875 179.429688 336.574219 176.855469 C 336.472656 174.523438 336.832031 172.308594 337.035156 169.976562 C 337.480469 164.871094 337.765625 159.714844 337.183594 154.613281 C 336.542969 148.972656 334.492188 143.105469 331.835938 138.105469 C 331.199219 136.898438 331.136719 138.386719 329.777344 138.234375 L 316.355469 135.585938 " fill-opacity="1" fill-rule="nonzero"/><path fill="#f3a984" d="M 331.402344 37.078125 C 328.40625 35.722656 322.917969 33.042969 319.960938 31.027344 C 319.53125 30.734375 317.539062 32.035156 317.027344 31.921875 C 313.199219 31.117188 309.121094 31.296875 305.570312 32.855469 L 305.453125 32.910156 L 305.453125 56.347656 L 327.980469 56.347656 L 331.402344 37.078125 " fill-opacity="1" fill-rule="nonzero"/><path fill="#f3a984" d="M 322.914062 35.289062 C 322.914062 35.289062 308.894531 42.320312 309.570312 34.554688 C 310.507812 23.742188 311.199219 22.53125 316.0625 21.136719 C 317.390625 20.753906 317.917969 19.632812 319.296875 19.6875 C 324.328125 19.886719 322.21875 22.507812 321.914062 24.40625 C 321.011719 30.035156 323.003906 32.308594 322.914062 35.289062 " fill-opacity="1" fill-rule="nonzero"/><path fill="#dae8fd" d="M 310.253906 31.101562 C 310.1875 31.101562 310.125 31.105469 310.0625 31.109375 C 310.621094 30.9375 310.941406 31.082031 310.253906 31.101562 " fill-opacity="1" fill-rule="nonzero"/><path fill="#dae8fd" d="M 338.617188 45.148438 C 338.644531 45.578125 338.648438 46.027344 338.628906 46.492188 C 338.574219 47.789062 338.234375 49.042969 337.949219 50.296875 C 337.609375 51.785156 336.894531 53.128906 336.089844 54.410156 C 335.238281 55.773438 334.546875 57.160156 333.699219 58.527344 C 330.105469 64.355469 327.953125 70.4375 329.375 77.296875 C 330.167969 81.117188 331.640625 84.761719 332.796875 88.496094 C 333.363281 90.324219 334.136719 92.34375 334.277344 94.269531 C 334.378906 95.648438 332.136719 97.015625 331.046875 97.730469 C 328.175781 99.621094 324.808594 100.664062 321.441406 101.257812 C 315.339844 102.335938 309.003906 102.082031 303 100.527344 C 300.722656 99.9375 298.476562 99.113281 296.6875 97.542969 C 295.410156 96.421875 296.046875 93.898438 296.136719 92.324219 C 296.398438 87.839844 296.839844 83.308594 297.859375 78.929688 C 298.726562 75.207031 299.378906 71.175781 298.34375 67.378906 C 296.792969 61.710938 293.957031 57.335938 295.925781 51.320312 C 296.53125 49.464844 297.789062 47.714844 298.558594 45.855469 C 301.40625 39.054688 299.613281 31.480469 310.054688 31.101562 C 309.414062 31.300781 303.367188 41.453125 310.644531 44.429688 C 315.335938 46.351562 324.625 41.230469 326.792969 34.875 C 329.886719 36.316406 332.695312 37.230469 335.269531 39.125 C 337.46875 40.746094 338.453125 42.660156 338.617188 45.148438 " fill-opacity="1" fill-rule="nonzero"/><path fill="#ffc7ad" d="M 317.484375 28.230469 C 317.890625 27.890625 318.289062 27.542969 318.679688 27.1875 C 320.023438 25.949219 321.550781 24.507812 322.488281 22.9375 C 325.5 17.890625 325.671875 11.113281 321.429688 6.695312 C 318.421875 3.558594 313.632812 2.246094 309.441406 3.414062 C 308.308594 3.734375 307.222656 4.210938 306.175781 4.746094 C 305.269531 5.207031 304.367188 5.71875 303.675781 6.464844 C 303.21875 6.953125 302.871094 7.527344 302.546875 8.113281 C 301.96875 9.164062 301.664062 10.199219 301.335938 11.34375 C 301.15625 11.96875 301.21875 12.632812 301.21875 13.285156 C 301.21875 14.433594 301.300781 15.539062 301.523438 16.671875 C 301.710938 17.597656 301.835938 18.535156 301.859375 19.476562 C 301.878906 20.433594 301.410156 21.246094 301.105469 22.132812 C 300.921875 22.675781 300.601562 23.523438 300.761719 24.070312 C 300.941406 24.667969 301.589844 25.148438 301.886719 25.691406 C 302.210938 26.273438 302.308594 26.710938 302.335938 27.386719 C 302.351562 27.824219 302.5 28.105469 302.667969 28.488281 C 302.8125 28.8125 302.734375 29.050781 302.78125 29.375 C 302.839844 29.761719 303.140625 30.097656 303.277344 30.453125 C 303.433594 30.855469 303.5625 31.25 303.777344 31.632812 C 305.027344 33.878906 306.84375 34.027344 309.097656 33.160156 C 312.140625 31.980469 314.984375 30.300781 317.484375 28.230469 " fill-opacity="1" fill-rule="nonzero"/><path fill="#a26749" d="M 328.605469 13.363281 C 328.539062 12.320312 328.351562 11.28125 328.03125 10.28125 C 327.71875 9.320312 327.292969 8.398438 326.757812 7.539062 C 326.484375 7.097656 326.191406 6.640625 325.847656 6.25 C 325.53125 5.902344 324.859375 5.53125 324.691406 5.105469 C 324.664062 5.046875 322.867188 0.597656 314.570312 0.601562 C 311.445312 0.601562 308.386719 1.738281 305.742188 3.371094 C 303.867188 4.527344 302.714844 5.558594 301.820312 7.613281 C 300.933594 9.636719 300.488281 11.859375 300.554688 14.070312 C 300.5625 14.40625 300.59375 14.765625 300.824219 15.011719 C 301.171875 15.375 301.765625 15.289062 302.253906 15.164062 C 304.09375 14.691406 305.625 14.085938 307.246094 13.160156 C 307.996094 12.734375 309.988281 11.8125 310.867188 12.214844 C 311.597656 12.542969 311.054688 14.425781 311.328125 15.261719 C 311.675781 16.316406 312.351562 17.273438 313.269531 17.910156 C 314.054688 18.449219 314.980469 18.722656 315.765625 19.25 C 316.464844 19.726562 316.976562 20.476562 317.144531 21.300781 C 317.222656 21.667969 317.234375 22.050781 317.34375 22.414062 C 317.402344 22.605469 317.492188 22.792969 317.621094 22.949219 C 317.75 23.09375 317.980469 23.160156 318.078125 23.304688 C 318.171875 23.453125 318.171875 23.714844 318.261719 23.882812 C 318.363281 24.074219 318.507812 24.234375 318.699219 24.34375 C 319.78125 24.984375 322.769531 22.503906 322.613281 22.765625 C 321.898438 23.980469 322 23.769531 321.734375 25.917969 C 325.171875 23.878906 327.8125 20.207031 328.457031 16.222656 C 328.613281 15.277344 328.660156 14.316406 328.605469 13.363281 " fill-opacity="1" fill-rule="nonzero"/><path fill="#ffc7ad" d="M 321.523438 18.6875 C 323.703125 18.546875 324.246094 21.25 322.742188 23.328125 C 322.304688 23.933594 321.527344 24.472656 320.957031 24.953125 C 317.035156 28.253906 316.070312 24.664062 317.3125 23.539062 C 320.210938 20.925781 318.78125 18.859375 321.523438 18.6875 " fill-opacity="1" fill-rule="nonzero"/><path fill="#f3a984" d="M 320.109375 23.625 C 320.363281 23.398438 322.851562 21.945312 321.164062 20.941406 C 320.699219 20.664062 320.171875 21.074219 320.097656 21.5625 C 320.0625 21.820312 320.140625 22.085938 320.101562 22.34375 C 320.078125 22.496094 320.015625 22.636719 319.929688 22.769531 C 319.707031 23.125 318.957031 23.464844 319.101562 23.988281 C 319.230469 24.453125 319.96875 23.757812 320.109375 23.625 " fill-opacity="1" fill-rule="nonzero"/><path fill="#f3a984" d="M 279.855469 82.6875 C 282.65625 81.667969 286.125 84.457031 285.835938 87.558594 C 285.628906 89.753906 278.265625 100.652344 275.125 105.085938 C 271.925781 109.59375 266.242188 119.476562 265.742188 120.207031 C 264.679688 121.757812 263.082031 121.847656 261.375 121.316406 C 259.359375 120.6875 257.839844 118.941406 257.042969 116.992188 C 255.433594 113.082031 256.789062 109.664062 258.722656 106.234375 C 260.128906 103.734375 262.25 101.429688 264.054688 99.203125 C 266.628906 96.023438 269.328125 92.945312 272.148438 89.976562 C 273.453125 88.597656 275.027344 87.304688 276.164062 85.792969 C 277.144531 84.484375 278.25 83.265625 279.855469 82.6875 " fill-opacity="1" fill-rule="nonzero"/><g clip-path="url(#bed8354e8e)"><path fill="#fe443e" d="M 299.6875 197.183594 C 299.6875 177.089844 282.230469 160.800781 260.695312 160.800781 C 239.160156 160.800781 221.703125 177.089844 221.703125 197.183594 C 221.703125 217.277344 239.160156 233.5625 260.695312 233.5625 C 282.230469 233.5625 299.6875 217.277344 299.6875 197.183594 " fill-opacity="1" fill-rule="nonzero"/></g><path fill="#ee342e" d="M 267.980469 161.4375 C 270.527344 163.703125 272.898438 166.246094 275.046875 169.058594 C 288.453125 186.878906 279.886719 211.382812 261.269531 219.917969 C 249.503906 225.3125 234.476562 219.324219 224.3125 210.289062 C 229.949219 223.90625 244.113281 233.5625 260.695312 233.5625 C 282.230469 233.5625 299.6875 217.277344 299.6875 197.183594 C 299.6875 179.410156 286.03125 164.621094 267.980469 161.4375 " fill-opacity="1" fill-rule="nonzero"/><path fill="#222229" d="M 259.394531 174.402344 C 262.84375 176.816406 266.589844 178.265625 270.652344 179.335938 C 274.980469 180.472656 279.304688 181.613281 283.628906 182.75 C 288 183.898438 292.28125 184.910156 296.867188 184.558594 C 299.949219 184.316406 305.632812 183.171875 306.039062 179.453125 C 306.375 176.328125 303.925781 173.617188 301.410156 171.722656 C 296.28125 167.855469 290.261719 165.464844 284.332031 163.128906 C 281.335938 161.949219 278.335938 160.777344 275.421875 159.414062 C 272.699219 158.144531 270.484375 156.625 268.085938 154.824219 C 266.21875 153.417969 264.035156 152.171875 261.695312 152.308594 C 259.414062 152.445312 257.355469 153.945312 256.171875 155.894531 C 254.988281 157.84375 254.589844 160.1875 254.632812 162.464844 C 254.699219 166.265625 256.050781 172.058594 259.394531 174.402344 " fill-opacity="1" fill-rule="nonzero"/><path fill="#f3a984" d="M 293.128906 198.894531 C 294.589844 203.917969 297.003906 210.417969 297.683594 215.605469 C 297.957031 217.710938 298.011719 219.9375 299.074219 221.777344 C 300.140625 223.621094 302.695312 224.832031 304.449219 223.621094 C 305.792969 222.695312 306.101562 218.042969 306.25 216.421875 C 307.390625 203.921875 308.234375 192.453125 306.398438 180.039062 C 306.285156 179.273438 305.863281 178.589844 305.648438 177.835938 C 305.3125 176.671875 305.074219 175.488281 304.160156 174.714844 C 302.011719 172.890625 298.539062 173.625 296.484375 175.546875 C 293.699219 178.15625 293.089844 181.609375 292.441406 185.140625 C 291.558594 189.929688 291.753906 194.1875 293.128906 198.894531 " fill-opacity="1" fill-rule="nonzero"/><path fill="#2e2e37" d="M 241.402344 182.878906 C 244.359375 185.875 247.78125 187.976562 251.582031 189.757812 C 255.632812 191.652344 259.683594 193.550781 263.734375 195.449219 C 266.683594 196.832031 269.640625 198.214844 272.699219 199.347656 C 275.167969 200.257812 277.785156 201.015625 280.398438 200.699219 C 283.011719 200.378906 285.617188 198.75 286.367188 196.234375 C 287.265625 193.21875 285.34375 190.113281 283.214844 187.796875 C 278.871094 183.074219 273.378906 179.640625 267.96875 176.273438 C 265.238281 174.578125 262.5 172.886719 259.878906 171.019531 C 257.429688 169.28125 255.527344 167.386719 253.496094 165.1875 C 251.910156 163.46875 249.988281 161.847656 247.664062 161.5625 C 245.394531 161.285156 243.097656 162.390625 241.582031 164.097656 C 240.0625 165.800781 239.25 168.03125 238.875 170.28125 C 238.253906 174.03125 238.539062 179.972656 241.402344 182.878906 " fill-opacity="1" fill-rule="nonzero"/><g clip-path="url(#c09d361a7b)"><path fill="#ffc7ad" d="M 296.863281 247.550781 C 297.082031 245.835938 293.617188 243.867188 292.683594 243.082031 C 291.84375 242.378906 288.667969 240.144531 288.023438 239.503906 C 286.980469 238.476562 285.800781 237.300781 284.921875 236.140625 C 283.898438 234.792969 284.082031 232.867188 284.234375 231.285156 C 284.878906 224.636719 285.003906 216.390625 285.277344 209.710938 C 285.433594 205.890625 286.289062 202.214844 286.671875 198.414062 C 286.941406 195.75 286.71875 192.890625 285.183594 190.695312 C 283.644531 188.5 280.488281 187.285156 278.148438 188.597656 C 275.210938 190.238281 275.09375 194.003906 273.960938 196.769531 C 272.1875 201.105469 271.339844 205.835938 271.871094 210.507812 C 272.402344 215.171875 274.460938 221.214844 275.28125 225.839844 C 275.566406 227.449219 275.886719 229.121094 275.925781 230.757812 C 275.953125 231.847656 275.75 232.984375 275.613281 234.0625 C 275.53125 234.734375 275.496094 235.480469 275.304688 236.132812 C 275.039062 237.035156 274.8125 237.902344 274.886719 238.871094 C 274.988281 240.199219 275.671875 241.359375 276.660156 242.246094 C 277.308594 242.828125 278.058594 243.277344 278.839844 243.648438 C 279.5625 243.992188 280.164062 244.386719 280.828125 244.832031 C 281.617188 245.363281 282.351562 245.972656 283.007812 246.65625 C 283.671875 247.347656 284.234375 248.085938 285.0625 248.601562 C 286.511719 249.511719 288.136719 250.164062 289.832031 250.433594 C 291.523438 250.699219 293.4375 249.625 295.023438 249.089844 C 295.585938 248.898438 296.175781 248.6875 296.554688 248.234375 C 296.738281 248.011719 296.835938 247.78125 296.863281 247.550781 " fill-opacity="1" fill-rule="nonzero"/></g><path fill="#2e2e37" d="M 284.121094 232.867188 C 284.132812 232.324219 285.324219 216.648438 285.59375 209.972656 C 285.75 206.152344 286.289062 202.214844 286.671875 198.414062 C 286.867188 196.5 286.886719 194.457031 286.265625 192.65625 C 286.023438 191.957031 285.613281 191.3125 285.183594 190.695312 C 283.644531 188.5 280.542969 186.746094 278.199219 188.054688 C 275.261719 189.699219 274.425781 193.632812 273.292969 196.398438 C 271.515625 200.738281 271.339844 205.835938 271.871094 210.507812 C 272.402344 215.171875 274.460938 221.214844 275.28125 225.839844 C 275.566406 227.449219 275.578125 231.714844 275.480469 232.65625 C 278.050781 233.804688 281.65625 234.128906 284.121094 232.867188 " fill-opacity="1" fill-rule="nonzero"/><path fill="#d6af75" d="M 261.464844 116.316406 C 261.171875 117.929688 260 119.226562 259.398438 120.753906 C 258.023438 124.246094 257.628906 128.148438 260.527344 131.003906 C 260.9375 131.40625 261.484375 131.789062 262.046875 131.667969 C 262.863281 131.488281 263.09375 130.464844 263.589844 129.792969 C 264.089844 129.125 264.6875 129.25 265.246094 128.84375 C 265.777344 128.464844 265.988281 127.621094 266.183594 127.039062 C 266.796875 125.21875 266.339844 123.148438 266.039062 121.304688 C 265.507812 118.003906 265.417969 110.902344 265.898438 107.550781 C 268.332031 90.652344 261.460938 83.40625 261.460938 83.40625 C 261.460938 83.40625 262.636719 92.835938 262.414062 93.671875 C 261.113281 98.582031 262.179688 112.328125 261.464844 116.316406 " fill-opacity="1" fill-rule="nonzero"/><path fill="#f3a984" d="M 249.480469 109.628906 C 246.957031 110.246094 244.40625 110.996094 242.023438 112.074219 L 242.023438 132.691406 L 258.507812 132.691406 L 258.507812 109.628906 L 249.480469 109.628906 " fill-opacity="1" fill-rule="nonzero"/><path fill="#dae8fd" d="M 233.929688 121.867188 C 234.09375 123.59375 234.765625 125.324219 235.386719 126.976562 C 237.25 131.914062 238.789062 136.96875 240 142.105469 C 240.605469 144.679688 241.019531 147.28125 241.554688 149.863281 C 242.140625 152.65625 241.183594 155.714844 240.746094 158.496094 C 240.246094 161.691406 239.742188 164.882812 239.242188 168.078125 C 239.148438 168.667969 239.058594 169.277344 239.1875 169.859375 C 239.488281 171.164062 240.558594 171.144531 241.609375 171.523438 C 242.898438 171.984375 244.1875 172.402344 245.523438 172.714844 C 248.179688 173.335938 250.921875 173.609375 253.652344 173.535156 C 258.949219 173.402344 265.261719 172.1875 269.300781 168.554688 C 270.277344 167.679688 271.066406 166.621094 271.847656 165.570312 C 274.316406 162.253906 271.996094 159.0625 270.863281 155.765625 C 269.605469 152.089844 269.117188 148.15625 269.433594 144.285156 C 269.535156 143.039062 269.59375 141.40625 270.007812 140.21875 C 270.5625 138.636719 271.789062 137.273438 272.390625 135.671875 C 273.074219 133.855469 273.359375 131.832031 272.8125 129.96875 C 272.074219 127.445312 269.789062 125.84375 268.917969 123.449219 C 268.046875 121.046875 266.65625 119.019531 266.382812 116.390625 C 266.207031 114.71875 266.355469 112.96875 265.722656 111.410156 C 265.175781 110.058594 264.039062 108.957031 262.667969 108.449219 C 260.796875 107.757812 258.386719 108.289062 256.441406 108.511719 C 254.28125 108.761719 252.136719 109.121094 250.019531 109.589844 C 246.546875 110.359375 242.976562 111.242188 239.933594 113.117188 C 238.808594 113.808594 237.6875 114.507812 236.703125 115.394531 C 235.480469 116.496094 234.464844 117.882812 234.074219 119.480469 C 233.886719 120.269531 233.855469 121.066406 233.929688 121.867188 " fill-opacity="1" fill-rule="nonzero"/><path fill="#f3a984" d="M 242.894531 112.585938 C 242.605469 113.546875 242.554688 114.515625 243.105469 115.457031 C 243.726562 116.527344 244.964844 116.601562 246.019531 117.007812 C 247.441406 117.546875 248.886719 118.042969 250.386719 118.324219 C 252.382812 118.695312 254.503906 118.667969 256.378906 117.882812 C 257.289062 117.507812 258.210938 116.832031 258.335938 115.855469 C 258.425781 115.164062 258.03125 114.460938 257.820312 113.820312 C 257.359375 112.421875 257.199219 111.019531 256.859375 109.621094 C 256.480469 108.089844 256.003906 106.605469 255.714844 105.050781 C 255.40625 103.410156 255.292969 102.226562 254.03125 100.976562 C 252.71875 99.683594 250.226562 99.710938 248.46875 99.5625 C 247.515625 99.480469 246.1875 99.039062 245.28125 99.445312 C 243.523438 100.230469 244.675781 102.195312 244.816406 103.566406 C 244.984375 105.289062 244.964844 107.035156 244.496094 108.707031 C 244.148438 109.9375 243.292969 111.257812 242.894531 112.585938 " fill-opacity="1" fill-rule="nonzero"/><path fill="#ffc7ad" d="M 247.621094 107.839844 C 247.523438 107.710938 247.425781 107.570312 247.320312 107.414062 C 246.925781 106.804688 246.53125 106.144531 246.101562 105.585938 C 245.515625 104.8125 244.808594 104.136719 244.097656 103.480469 C 243.28125 102.722656 242.449219 101.964844 241.785156 101.066406 C 240.203125 98.945312 239.875 95.589844 240.101562 93.015625 C 240.34375 90.230469 241.472656 87.5625 243.417969 85.523438 C 246.539062 82.261719 251.515625 80.894531 255.871094 82.101562 C 257.046875 82.429688 258.175781 82.929688 259.265625 83.480469 C 260.207031 83.957031 261.148438 84.492188 261.867188 85.261719 C 262.339844 85.769531 262.703125 86.363281 263.039062 86.972656 C 263.503906 87.8125 263.675781 88.398438 263.734375 89.332031 C 263.796875 90.335938 263.761719 91.34375 263.804688 92.351562 C 263.976562 95.996094 264.324219 99.65625 263.847656 103.320312 C 263.632812 105.007812 263.355469 106.691406 262.90625 108.335938 C 262.636719 109.324219 262.480469 110.945312 261.886719 111.792969 C 261.261719 112.675781 260.203125 113.132812 259.015625 113.132812 C 257.167969 113.128906 254.566406 112.339844 252.964844 111.5 C 251.519531 110.738281 250.097656 109.914062 248.792969 108.933594 C 248.308594 108.570312 247.957031 108.261719 247.621094 107.839844 " fill-opacity="1" fill-rule="nonzero"/><path fill="#d6af75" d="M 238.75 90.964844 C 238.78125 90.097656 238.796875 89.175781 238.976562 88.320312 C 239.152344 87.496094 242.019531 78.570312 254.894531 79.890625 C 258.0625 80.214844 260.761719 82 262.375 84.707031 C 265.007812 89.109375 263.949219 95.039062 263.949219 95.039062 C 263.953125 95.007812 263.046875 94.128906 262.972656 94.039062 C 262.507812 93.457031 262.070312 92.855469 261.640625 92.25 C 261.429688 91.949219 261.21875 91.648438 261.011719 91.34375 C 260.859375 91.125 260.679688 90.675781 260.457031 90.535156 C 260.109375 90.304688 259.59375 90.773438 259.300781 90.953125 C 258.871094 91.222656 258.449219 91.503906 258.035156 91.804688 C 256.414062 92.976562 254.953125 94.375 253.703125 95.9375 C 253.082031 96.71875 252.511719 97.542969 252 98.402344 C 251.503906 99.234375 251.027344 100.058594 250.171875 100.582031 C 249.261719 101.140625 248.078125 101.222656 247.101562 100.789062 C 246.707031 100.617188 246.347656 100.363281 245.953125 100.1875 C 245.5625 100.011719 245.101562 99.914062 244.695312 100.0625 C 244.332031 100.199219 244.054688 100.523438 243.925781 100.890625 C 243.714844 101.484375 243.859375 101.785156 244.191406 102.242188 C 244.28125 102.363281 244.851562 103.3125 244.441406 103.316406 C 243.9375 103.320312 238.480469 98.660156 238.75 90.964844 " fill-opacity="1" fill-rule="nonzero"/><path fill="#ffc7ad" d="M 227.605469 148.851562 C 227.589844 143.613281 228.261719 137.007812 228.839844 128.679688 C 228.992188 126.4375 229.484375 124.183594 230.320312 122.085938 C 231.160156 119.96875 232.226562 118.382812 233.972656 116.898438 C 234.761719 116.222656 236.050781 115.640625 237.074219 115.851562 C 238.007812 116.039062 238.625 116.890625 239.082031 117.707031 C 241.835938 122.636719 241.898438 128.878906 240.769531 134.285156 C 239.714844 139.316406 239.347656 144.480469 238.25 149.523438 C 238.042969 150.480469 237.878906 151.519531 237.480469 152.425781 C 235.585938 156.730469 231.269531 156.421875 228.980469 153.871094 C 227.855469 152.625 227.613281 151.695312 227.605469 148.851562 " fill-opacity="1" fill-rule="nonzero"/><path fill="#d6af75" d="M 237.996094 104.75 C 237.917969 106.972656 237.160156 108.761719 236.515625 110.972656 C 236.222656 111.972656 234.421875 115.964844 235.539062 116.003906 C 235.925781 116.019531 237.054688 115.625 237.761719 116.265625 C 238.773438 117.183594 239.566406 118.679688 240.035156 119.933594 C 241.125 122.816406 241.480469 125.46875 241.90625 128.449219 C 242.328125 131.410156 244.84375 132.691406 247.609375 132.957031 C 248.785156 133.070312 251.773438 133.308594 252.082031 131.78125 C 252.269531 130.828125 251.347656 129.382812 250.980469 128.527344 C 249.625 125.398438 247.71875 121.640625 247.8125 118.152344 C 247.863281 116.167969 248.496094 114.285156 248.410156 112.296875 C 248.359375 111.101562 248.078125 109.753906 247.5 108.703125 C 247.226562 108.203125 246.960938 107.703125 246.667969 107.222656 C 246.472656 106.898438 246.269531 106.585938 246.066406 106.265625 C 245.390625 105.179688 244.554688 103.972656 244.433594 102.675781 C 244.304688 101.3125 244.828125 100.035156 245.300781 98.796875 C 245.601562 97.996094 245.890625 97.203125 246.273438 96.441406 C 246.59375 95.792969 246.394531 94.746094 246.34375 94.03125 C 246.222656 92.363281 245.914062 90.6875 245.253906 89.140625 C 244.457031 87.273438 241.878906 83.40625 241.878906 83.40625 C 241.90625 83.449219 241.257812 84.289062 241.214844 84.355469 C 240.660156 85.191406 239.988281 85.910156 239.53125 86.804688 C 238.300781 89.234375 237.53125 91.988281 237.402344 94.710938 C 237.25 97.746094 237.847656 100.835938 237.988281 103.863281 C 238.003906 104.167969 238.007812 104.460938 237.996094 104.75 " fill-opacity="1" fill-rule="nonzero"/><path fill="#ffc7ad" d="M 243.625 97.707031 C 241.523438 97.566406 240.992188 100.167969 242.4375 102.171875 C 242.859375 102.757812 243.605469 103.277344 244.15625 103.742188 C 247.917969 106.933594 248.859375 103.476562 247.664062 102.390625 C 244.886719 99.867188 246.265625 97.878906 243.625 97.707031 " fill-opacity="1" fill-rule="nonzero"/><path fill="#f3a984" d="M 244.191406 102.097656 C 243.992188 101.808594 241.835938 99.773438 243.761719 99.160156 C 244.296875 98.988281 244.726562 99.519531 244.6875 100.035156 C 244.664062 100.300781 244.523438 100.542969 244.503906 100.808594 C 244.488281 100.96875 245.386719 102.207031 245.121094 102.699219 C 244.882812 103.132812 244.304688 102.261719 244.191406 102.097656 " fill-opacity="1" fill-rule="nonzero"/><path fill="#ffc7ad" d="M 230.808594 178.191406 C 230.710938 179.691406 231.148438 178.332031 232.097656 179.640625 C 233.046875 180.941406 237.433594 178.410156 237.445312 177.421875 C 237.472656 174.792969 238.527344 156.347656 238.601562 149.1875 C 238.613281 148.289062 238.492188 147.207031 237.371094 146.644531 C 236.488281 146.199219 235.007812 141.367188 234.074219 141.570312 C 230.859375 142.265625 227.839844 143.5 227.648438 146.175781 C 227.175781 152.863281 229.300781 163.375 230.308594 167.949219 C 230.859375 170.472656 230.96875 175.695312 230.808594 178.191406 " fill-opacity="1" fill-rule="nonzero"/><path fill="#ffc7ad" d="M 226.949219 189.957031 C 226.855469 190.210938 226.761719 190.484375 226.816406 190.75 C 226.875 191.019531 227.128906 191.269531 227.421875 191.238281 C 227.722656 191.203125 227.894531 190.914062 228.015625 190.65625 C 228.207031 190.253906 228.398438 189.851562 228.589844 189.449219 C 228.761719 189.085938 228.898438 188.6875 229.109375 188.351562 C 229.101562 188.367188 229.050781 188.664062 229.03125 188.726562 C 228.976562 188.910156 228.925781 189.097656 228.875 189.28125 C 228.769531 189.648438 228.660156 190.019531 228.558594 190.390625 C 228.347656 191.128906 228.136719 191.871094 227.925781 192.609375 C 227.84375 192.90625 227.757812 193.21875 227.839844 193.515625 C 227.921875 193.816406 228.234375 194.082031 228.558594 194.023438 C 228.90625 193.957031 229.070312 193.597656 229.171875 193.285156 C 229.601562 192 230.03125 190.71875 230.460938 189.4375 C 230.101562 191.117188 229.742188 192.792969 229.378906 194.46875 C 229.285156 194.925781 229.296875 195.550781 229.78125 195.664062 C 230.144531 195.75 230.472656 195.453125 230.675781 195.164062 C 231.957031 193.347656 231.585938 190.871094 232.753906 188.988281 C 232.539062 190.335938 232.324219 191.683594 232.109375 193.03125 C 232.050781 193.398438 231.992188 193.78125 232.089844 194.140625 C 232.183594 194.503906 232.472656 194.847656 232.871094 194.914062 C 233.246094 194.972656 233.625 194.769531 233.855469 194.492188 C 234.085938 194.214844 234.199219 193.875 234.308594 193.535156 C 234.792969 192.058594 235.277344 190.582031 235.761719 189.101562 C 236.003906 188.351562 236.246094 187.601562 236.492188 186.855469 C 236.613281 186.484375 236.761719 186.109375 236.859375 185.730469 C 236.878906 185.664062 236.890625 185.449219 236.945312 185.402344 C 237.175781 185.210938 237.296875 185.628906 237.375 185.769531 C 237.554688 186.078125 237.765625 186.375 237.976562 186.664062 C 238.425781 187.292969 239.902344 189.640625 240.828125 188.605469 C 241.035156 188.375 240.996094 188.035156 240.929688 187.738281 C 240.691406 186.746094 240.238281 185.808594 239.789062 184.878906 C 238.988281 183.21875 237.839844 181.492188 237.585938 179.707031 C 237.304688 177.734375 237.53125 175.578125 237.507812 173.589844 C 237.5 172.804688 237.464844 171.949219 236.917969 171.34375 C 236.34375 170.703125 235.304688 170.527344 234.4375 170.765625 C 233.574219 171.007812 232.867188 171.589844 232.3125 172.25 C 230.207031 174.761719 231.355469 177.34375 230.4375 180.082031 C 229.726562 182.195312 228.949219 184.289062 228.207031 186.394531 C 227.785156 187.582031 227.367188 188.769531 226.949219 189.957031 " fill-opacity="1" fill-rule="nonzero"/><path fill="#f3a984" d="M 297.65625 220.890625 C 297.292969 222.691406 296.746094 224.492188 296.902344 226.316406 C 297.058594 228.140625 298.136719 230.039062 299.949219 230.503906 C 301.722656 230.957031 303.542969 229.933594 305.378906 229.890625 C 307.53125 229.84375 309.421875 231.125 311.3125 232.117188 C 313.550781 233.289062 316.921875 235.101562 319.34375 233.542969 C 320.933594 232.523438 321.796875 230.238281 320.484375 228.601562 C 319.976562 227.96875 319.25 227.5625 318.527344 227.203125 C 316.292969 226.113281 313.902344 225.382812 311.621094 224.398438 C 310.175781 223.773438 308.863281 223.023438 307.5625 222.148438 C 306.40625 221.371094 306.144531 219.609375 306.128906 218.300781 C 306.117188 216.972656 305.441406 215.796875 305.597656 214.480469 C 305.671875 213.839844 305.730469 212.351562 305.4375 211.78125 C 305.046875 211.015625 305.039062 211.3125 304.179688 211.320312 C 303.570312 211.328125 302.976562 211.492188 302.40625 211.695312 C 302.160156 211.785156 301.941406 211.890625 301.679688 211.90625 C 301.402344 211.921875 301.148438 211.914062 300.871094 211.988281 C 299.484375 212.339844 297.878906 216.882812 297.925781 217.699219 C 297.984375 218.714844 297.859375 219.894531 297.65625 220.890625 " fill-opacity="1" fill-rule="nonzero"/><path fill="#222229" d="M 293.128906 198.894531 C 294.003906 201.898438 295.371094 206.46875 296.28125 209.464844 C 296.742188 210.96875 297.144531 212.492188 297.433594 214.039062 C 297.554688 214.699219 297.851562 217.296875 297.933594 217.835938 C 297.953125 217.988281 298.894531 218.195312 299.203125 218.269531 C 300.644531 218.613281 302.152344 218.6875 303.621094 218.484375 C 304.316406 218.390625 305.148438 218.28125 305.789062 217.980469 C 306.339844 217.71875 306.199219 216.992188 306.25 216.421875 C 307.390625 203.921875 308.234375 192.453125 306.398438 180.039062 C 306.285156 179.246094 306.15625 178.339844 305.890625 177.472656 C 305.5 176.210938 304.859375 175 303.9375 174.125 C 301.902344 172.1875 298.214844 173.222656 296.167969 175.144531 C 293.378906 177.753906 292.820312 181.484375 292.171875 185.019531 C 291.292969 189.804688 291.753906 194.1875 293.128906 198.894531 " fill-opacity="1" fill-rule="nonzero"/><path fill="#f3a984" d="M 275.707031 87.851562 C 276.738281 90.914062 282.710938 92.40625 284.75 89.921875 C 286.003906 88.398438 286.179688 86.195312 285.644531 84.285156 C 285.109375 82.375 278.242188 71.855469 274.640625 66.507812 C 271.964844 62.535156 264.722656 61.867188 266.988281 65.949219 C 269.765625 70.953125 273.949219 82.601562 275.707031 87.851562 " fill-opacity="1" fill-rule="nonzero"/><path fill="#f3a984" d="M 276.925781 70.921875 C 276.6875 69.457031 275.828125 68.171875 274.964844 66.957031 C 273.964844 65.542969 272.804688 64.191406 271.898438 62.71875 C 271.105469 61.429688 270.902344 59.925781 270.464844 58.507812 C 269.945312 56.835938 269.417969 55.167969 268.910156 53.492188 C 268.738281 52.945312 268.527344 52.382812 268.175781 51.921875 C 267.777344 51.40625 267.527344 51.601562 267.035156 51.355469 C 266.347656 51.007812 266.304688 49.960938 265.949219 49.367188 C 265.585938 48.75 265.082031 47.925781 264.476562 47.511719 C 264.109375 47.261719 263.71875 47.4375 263.355469 47.109375 C 262.777344 46.597656 262.769531 45.492188 261.90625 45.296875 C 261.191406 45.132812 260.511719 45.816406 260.394531 46.542969 C 260.371094 46.695312 260.367188 46.847656 260.375 47.003906 L 260.28125 46.855469 C 259.910156 46.339844 259.183594 46.015625 258.621094 46.3125 C 257.792969 46.746094 257.960938 47.957031 258.257812 48.839844 C 258.933594 50.8125 259.667969 52.765625 260.46875 54.695312 C 260.652344 55.152344 261.703125 56.75 260.867188 56.964844 C 260.363281 57.097656 259.671875 56.40625 259.257812 56.191406 C 258.660156 55.886719 258.0625 55.574219 257.46875 55.269531 C 256.910156 54.980469 256.328125 54.683594 255.699219 54.679688 C 255.074219 54.671875 254.394531 55.054688 254.285156 55.671875 C 254.191406 56.203125 254.550781 56.726562 255 57.035156 C 255.445312 57.339844 255.984375 57.492188 256.480469 57.710938 C 259.164062 58.90625 260.4375 62.039062 262.894531 63.652344 C 264.203125 64.515625 265.808594 64.914062 266.988281 65.949219 C 268.097656 66.925781 268.691406 68.347656 269.210938 69.726562 C 269.730469 71.109375 270.238281 72.542969 271.246094 73.625 C 272.25 74.710938 273.902344 75.351562 275.246094 74.722656 C 276.59375 74.097656 277.160156 72.390625 276.925781 70.921875 " fill-opacity="1" fill-rule="nonzero"/><path fill="#e6f1fe" d="M 340.539062 44.808594 C 340.296875 43.277344 338.722656 40.601562 336.269531 39.882812 C 334.640625 39.402344 331.324219 41.429688 328.929688 44.761719 C 323.90625 51.777344 320.296875 61.179688 318.542969 67.910156 C 318.414062 68.394531 318.234375 68.917969 318.210938 69.421875 C 318.066406 72.421875 319.828125 75.082031 322.902344 75.539062 C 326.835938 76.125 328.242188 73.433594 330.152344 70.480469 C 332.722656 66.503906 341.199219 48.882812 340.539062 44.808594 " fill-opacity="1" fill-rule="nonzero"/><path fill="#ffc7ad" d="M 279.734375 86.683594 C 279.445312 86.328125 279.660156 86.136719 280.015625 85.976562 C 280.300781 85.84375 280.597656 85.746094 280.878906 85.609375 C 280.910156 85.59375 281.601562 85.226562 281.480469 85.136719 C 281.332031 85.027344 281.101562 85.039062 280.925781 85.03125 C 280.671875 85.019531 280.421875 85.046875 280.171875 85.042969 C 279.949219 85.039062 279.738281 85.082031 279.519531 85.105469 C 279.28125 85.128906 279.105469 85.152344 278.878906 85.210938 C 278.707031 85.25 278.488281 85.238281 278.3125 85.222656 C 277.957031 85.191406 277.566406 85.058594 277.511719 84.65625 C 277.4375 84.09375 278.148438 84.027344 278.523438 83.875 C 278.734375 83.785156 279.542969 83.773438 279.59375 83.488281 C 279.640625 83.226562 278.679688 83.035156 278.5 82.996094 C 277.804688 82.855469 277.007812 82.859375 276.378906 82.484375 C 275.988281 82.246094 275.484375 81.734375 276.164062 81.488281 C 276.609375 81.328125 277.058594 81.449219 277.515625 81.476562 C 278.097656 81.507812 278.679688 81.523438 279.265625 81.535156 C 279.40625 81.539062 280.25 81.636719 280.285156 81.511719 C 280.3125 81.421875 280.066406 81.261719 280.019531 81.226562 C 279.625 80.929688 279.226562 80.652344 278.792969 80.421875 C 278.445312 80.238281 278.074219 80.109375 277.730469 79.925781 C 277.359375 79.730469 276.394531 79.242188 276.703125 78.679688 C 277 78.144531 278.128906 78.503906 278.550781 78.65625 C 279.429688 78.976562 280.28125 79.214844 281.214844 79.34375 C 282.414062 79.511719 283.640625 79.484375 284.734375 78.953125 C 285.171875 78.738281 285.667969 78.300781 285.742188 77.804688 C 284.875 77.453125 283.992188 77.511719 282.992188 77.5 C 282.175781 77.492188 281.363281 77.402344 280.792969 76.761719 C 280.523438 76.453125 280.042969 76 280.230469 75.542969 C 280.402344 75.117188 280.898438 75 281.320312 75.074219 C 281.734375 75.144531 282.113281 75.359375 282.535156 75.390625 C 282.9375 75.417969 283.320312 75.386719 283.71875 75.320312 C 284.429688 75.199219 285.15625 74.980469 285.871094 74.933594 C 286.59375 74.878906 287.316406 75.027344 287.988281 75.289062 C 288.234375 75.382812 288.460938 75.5 288.703125 75.601562 C 289.265625 75.84375 289.859375 76.023438 290.460938 76.179688 C 292.144531 76.625 294.144531 76.152344 295.902344 76.300781 C 297.488281 76.4375 297.246094 78.015625 297.015625 79.289062 C 296.808594 80.390625 296.363281 81.03125 295.449219 81.628906 C 294.636719 82.164062 293.707031 82.339844 292.839844 82.71875 C 292.234375 82.980469 291.636719 83.339844 291.070312 83.664062 C 290.863281 83.78125 290.65625 83.898438 290.457031 84.019531 C 289.773438 84.433594 289.070312 84.8125 288.363281 85.183594 C 287.457031 85.660156 286.5 86.050781 285.519531 86.351562 C 284.578125 86.640625 283.625 86.730469 282.667969 86.941406 C 282.414062 87 282.164062 87.066406 281.90625 87.121094 C 281.195312 87.289062 280.246094 87.308594 279.734375 86.683594 " fill-opacity="1" fill-rule="nonzero"/><path fill="#e6f1fe" d="M 293.476562 83.003906 C 299.460938 81.738281 332.796875 79.160156 328.5625 69.578125 C 327.917969 68.117188 322.601562 66.359375 320.808594 66.246094 C 319.226562 66.144531 293.578125 74.546875 291.644531 75.90625 C 290.46875 76.730469 292.273438 83.257812 293.476562 83.003906 " fill-opacity="1" fill-rule="nonzero"/><path fill="#275ebe" d="M 320.371094 56.347656 L 314.492188 52.964844 L 316.035156 49.714844 L 321.914062 53.101562 L 320.371094 56.347656 " fill-opacity="1" fill-rule="nonzero"/></svg>