<svg xmlns="http://www.w3.org/2000/svg" xmlns:xlink="http://www.w3.org/1999/xlink" width="260" zoomAndPan="magnify" viewBox="0 0 194.87999 172.499995" height="230" preserveAspectRatio="xMidYMid meet" version="1.0"><defs><clipPath id="a5a7f384a0"><path d="M 0.222656 0 L 194.539062 0 L 194.539062 172 L 0.222656 172 Z M 0.222656 0 " clip-rule="nonzero"/></clipPath><clipPath id="e71690d358"><path d="M 153.667969 79.449219 L 194 79.449219 L 194 93.785156 L 153.667969 93.785156 Z M 153.667969 79.449219 " clip-rule="nonzero"/></clipPath><clipPath id="6f4e63f52e"><path d="M 153.667969 94 L 194 94 L 194 112.898438 L 153.667969 112.898438 Z M 153.667969 94 " clip-rule="nonzero"/></clipPath><clipPath id="76384a0555"><path d="M 153.667969 113.429688 L 194 113.429688 L 194 147.769531 L 153.667969 147.769531 Z M 153.667969 113.429688 " clip-rule="nonzero"/></clipPath><clipPath id="a0f95e37ca"><path d="M 153.136719 75.199219 L 194.453125 75.199219 L 194.453125 79.449219 L 153.136719 79.449219 Z M 153.136719 75.199219 " clip-rule="nonzero"/></clipPath><clipPath id="8ed9d7b0d9"><path d="M 124.507812 119 L 128 119 L 128 147.769531 L 124.507812 147.769531 Z M 124.507812 119 " clip-rule="nonzero"/></clipPath><clipPath id="cc8626523c"><path d="M 38 119 L 41.796875 119 L 41.796875 147.769531 L 38 147.769531 Z M 38 119 " clip-rule="nonzero"/></clipPath><clipPath id="448d263def"><path d="M 0.441406 143.691406 L 9.984375 143.691406 L 9.984375 147.769531 L 0.441406 147.769531 Z M 0.441406 143.691406 " clip-rule="nonzero"/></clipPath><clipPath id="85d79a73b7"><path d="M 0.441406 146 L 9.984375 146 L 9.984375 147.769531 L 0.441406 147.769531 Z M 0.441406 146 " clip-rule="nonzero"/></clipPath><clipPath id="879dfad14a"><path d="M 32 24.390625 L 50 24.390625 L 50 38 L 32 38 Z M 32 24.390625 " clip-rule="nonzero"/></clipPath><clipPath id="e0ef31a699"><path d="M 30.660156 145.285156 L 48 145.285156 L 48 147.769531 L 30.660156 147.769531 Z M 30.660156 145.285156 " clip-rule="nonzero"/></clipPath><clipPath id="dbb514129b"><path d="M 51.339844 92.191406 L 54.519531 92.191406 L 54.519531 147.769531 L 51.339844 147.769531 Z M 51.339844 92.191406 " clip-rule="nonzero"/></clipPath><clipPath id="14eed2263a"><path d="M 147.304688 92.191406 L 150.484375 92.191406 L 150.484375 147.769531 L 147.304688 147.769531 Z M 147.304688 92.191406 " clip-rule="nonzero"/></clipPath></defs><g clip-path="url(#a5a7f384a0)"><path fill="#ffffff" d="M 0.222656 0 L 194.65625 0 L 194.65625 172 L 0.222656 172 Z M 0.222656 0 " fill-opacity="1" fill-rule="nonzero"/><path fill="#ffffff" d="M 0.222656 0 L 194.65625 0 L 194.65625 172 L 0.222656 172 Z M 0.222656 0 " fill-opacity="1" fill-rule="nonzero"/></g><g clip-path="url(#e71690d358)"><path fill="#d8e9fa" d="M 193.976562 79.84375 L 193.976562 93.457031 L 153.6875 93.457031 L 153.6875 79.84375 L 193.976562 79.84375 " fill-opacity="1" fill-rule="nonzero"/></g><g clip-path="url(#6f4e63f52e)"><path fill="#d8e9fa" d="M 193.976562 94.308594 L 193.976562 112.585938 L 153.6875 112.585938 L 153.6875 94.308594 L 193.976562 94.308594 " fill-opacity="1" fill-rule="nonzero"/></g><g clip-path="url(#76384a0555)"><path fill="#d8e9fa" d="M 153.6875 113.4375 L 193.976562 113.4375 L 193.976562 147.765625 L 153.6875 147.765625 L 153.6875 113.4375 " fill-opacity="1" fill-rule="nonzero"/></g><path fill="#b8d9f8" d="M 179.226562 118.792969 L 168.441406 118.792969 C 167.875 118.792969 167.414062 118.332031 167.414062 117.765625 L 167.414062 117.582031 C 167.414062 117.011719 167.875 116.550781 168.441406 116.550781 L 179.226562 116.550781 C 179.792969 116.550781 180.253906 117.011719 180.253906 117.582031 L 180.253906 117.765625 C 180.253906 118.332031 179.792969 118.792969 179.226562 118.792969 " fill-opacity="1" fill-rule="nonzero"/><path fill="#b8d9f8" d="M 179.226562 100.035156 L 168.441406 100.035156 C 167.875 100.035156 167.414062 99.574219 167.414062 99.007812 L 167.414062 98.820312 C 167.414062 98.253906 167.875 97.792969 168.441406 97.792969 L 179.226562 97.792969 C 179.792969 97.792969 180.253906 98.253906 180.253906 98.820312 L 180.253906 99.007812 C 180.253906 99.574219 179.792969 100.035156 179.226562 100.035156 " fill-opacity="1" fill-rule="nonzero"/><path fill="#b8d9f8" d="M 179.226562 85.8125 L 168.441406 85.8125 C 167.875 85.8125 167.414062 85.351562 167.414062 84.785156 L 167.414062 84.601562 C 167.414062 84.035156 167.875 83.574219 168.441406 83.574219 L 179.226562 83.574219 C 179.792969 83.574219 180.253906 84.035156 180.253906 84.601562 L 180.253906 84.785156 C 180.253906 85.351562 179.792969 85.8125 179.226562 85.8125 " fill-opacity="1" fill-rule="nonzero"/><g clip-path="url(#a0f95e37ca)"><path fill="#b8d9f8" d="M 192.796875 79.109375 L 154.867188 79.109375 C 153.953125 79.109375 153.210938 78.367188 153.210938 77.449219 L 153.210938 77.152344 C 153.210938 76.234375 153.953125 75.492188 154.867188 75.492188 L 192.796875 75.492188 C 193.714844 75.492188 194.457031 76.234375 194.457031 77.152344 L 194.457031 77.449219 C 194.457031 78.367188 193.714844 79.109375 192.796875 79.109375 " fill-opacity="1" fill-rule="nonzero"/></g><path fill="#d8e9fa" d="M 164.71875 70.542969 C 164.71875 72.917969 162.792969 74.847656 160.421875 74.847656 C 158.050781 74.847656 156.125 72.917969 156.125 70.542969 C 156.125 68.167969 158.050781 66.242188 160.421875 66.242188 C 162.792969 66.242188 164.71875 68.167969 164.71875 70.542969 " fill-opacity="1" fill-rule="nonzero"/><path fill="#d8e9fa" d="M 174.433594 70.542969 C 174.433594 72.917969 172.507812 74.847656 170.136719 74.847656 C 167.765625 74.847656 165.839844 72.917969 165.839844 70.542969 C 165.839844 68.167969 167.765625 66.242188 170.136719 66.242188 C 172.507812 66.242188 174.433594 68.167969 174.433594 70.542969 " fill-opacity="1" fill-rule="nonzero"/><path fill="#ffffff" d="M 170.136719 67.535156 C 168.480469 67.535156 167.136719 68.886719 167.136719 70.542969 C 167.136719 72.203125 168.480469 73.550781 170.136719 73.550781 C 171.792969 73.550781 173.140625 72.203125 173.140625 70.542969 C 173.140625 68.886719 171.792969 67.535156 170.136719 67.535156 Z M 170.136719 74.105469 C 168.175781 74.105469 166.582031 72.507812 166.582031 70.542969 C 166.582031 68.578125 168.175781 66.980469 170.136719 66.980469 C 172.097656 66.980469 173.695312 68.578125 173.695312 70.542969 C 173.695312 72.507812 172.097656 74.105469 170.136719 74.105469 " fill-opacity="1" fill-rule="nonzero"/><path fill="#ffffff" d="M 160.421875 67.535156 C 158.765625 67.535156 157.417969 68.886719 157.417969 70.542969 C 157.417969 72.203125 158.765625 73.550781 160.421875 73.550781 C 162.078125 73.550781 163.425781 72.203125 163.425781 70.542969 C 163.425781 68.886719 162.078125 67.535156 160.421875 67.535156 Z M 160.421875 74.105469 C 158.460938 74.105469 156.863281 72.507812 156.863281 70.542969 C 156.863281 68.578125 158.460938 66.980469 160.421875 66.980469 C 162.382812 66.980469 163.980469 68.578125 163.980469 70.542969 C 163.980469 72.507812 162.382812 74.105469 160.421875 74.105469 " fill-opacity="1" fill-rule="nonzero"/><path fill="#d8e9fa" d="M 188.480469 74.773438 L 182.992188 74.773438 C 182.496094 74.773438 182.089844 74.371094 182.089844 73.867188 L 182.089844 61.78125 C 182.089844 61.28125 182.496094 60.875 182.992188 60.875 L 188.480469 60.875 C 188.984375 60.875 189.386719 61.28125 189.386719 61.78125 L 189.386719 73.867188 C 189.386719 74.371094 188.984375 74.773438 188.480469 74.773438 " fill-opacity="1" fill-rule="nonzero"/><path fill="#b8d9f8" d="M 138.140625 120.238281 L 35.070312 120.238281 L 35.070312 118.210938 L 138.140625 118.210938 L 138.140625 120.238281 " fill-opacity="1" fill-rule="nonzero"/><g clip-path="url(#8ed9d7b0d9)"><path fill="#b8d9f8" d="M 127.859375 147.757812 L 124.582031 147.757812 L 124.582031 119.226562 L 127.859375 119.226562 L 127.859375 147.757812 " fill-opacity="1" fill-rule="nonzero"/></g><g clip-path="url(#cc8626523c)"><path fill="#b8d9f8" d="M 41.359375 147.757812 L 38.082031 147.757812 L 38.082031 119.226562 L 41.359375 119.226562 L 41.359375 147.757812 " fill-opacity="1" fill-rule="nonzero"/></g><path fill="#d8e9fa" d="M 137.738281 117.675781 L 32.574219 117.675781 C 31.183594 117.675781 30.054688 116.542969 30.054688 115.152344 L 30.054688 114.703125 C 30.054688 113.308594 31.183594 112.179688 32.574219 112.179688 L 137.738281 112.179688 C 139.128906 112.179688 140.253906 113.308594 140.253906 114.703125 L 140.253906 115.152344 C 140.253906 116.542969 139.128906 117.675781 137.738281 117.675781 " fill-opacity="1" fill-rule="nonzero"/><path fill="#b8d9f8" d="M 134.058594 111.5 L 122.941406 111.5 C 120.6875 111.5 118.863281 109.671875 118.863281 107.417969 L 118.863281 106.6875 C 118.863281 104.429688 120.6875 102.605469 122.941406 102.605469 L 134.058594 102.605469 C 136.3125 102.605469 138.140625 104.429688 138.140625 106.6875 L 138.140625 107.417969 C 138.140625 109.671875 136.3125 111.5 134.058594 111.5 " fill-opacity="1" fill-rule="nonzero"/><path fill="#c0f2ff" d="M 153.6875 93.457031 L 153.6875 94.308594 L 152.007812 94.308594 C 151.933594 94.308594 151.875 94.25 151.875 94.171875 L 151.875 93.589844 C 151.875 93.519531 151.933594 93.457031 152.007812 93.457031 L 153.6875 93.457031 " fill-opacity="1" fill-rule="nonzero"/><path fill="#ffb39c" d="M 131.621094 62.269531 L 134.945312 68.46875 C 134.945312 68.46875 141.507812 80.777344 143.941406 85.21875 L 148.898438 84.753906 C 148.898438 84.753906 153.027344 87.347656 153.027344 87.71875 L 143.234375 87.71875 C 143.234375 87.71875 135.347656 79.234375 130.113281 71.339844 C 124.878906 63.441406 124.878906 63.441406 124.878906 63.441406 L 131.621094 62.269531 " fill-opacity="1" fill-rule="nonzero"/><path fill="#ffb39c" d="M 118.703125 62.269531 L 122.03125 68.46875 C 122.03125 68.46875 128.589844 80.777344 131.023438 85.21875 L 135.980469 84.753906 C 135.980469 84.753906 140.109375 87.347656 140.109375 87.71875 L 130.3125 87.71875 C 130.3125 87.71875 122.429688 79.234375 117.195312 71.339844 C 111.957031 63.441406 111.957031 63.441406 111.957031 63.441406 L 118.703125 62.269531 " fill-opacity="1" fill-rule="nonzero"/><path fill="#ffb39c" d="M 49.390625 83.832031 C 49.390625 83.832031 41.792969 82.5 40.128906 79.722656 C 38.464844 76.949219 38.578125 76.890625 38.578125 76.890625 C 38.578125 76.890625 37.101562 75.410156 38.117188 79.757812 C 39.136719 84.109375 40.613281 84.476562 40.980469 85.402344 C 41.351562 86.328125 41.539062 87.71875 41.539062 87.71875 L 49.390625 87.71875 L 49.390625 83.832031 " fill-opacity="1" fill-rule="nonzero"/><path fill="#fce265" d="M 127.558594 68.285156 L 124.691406 64.582031 C 124.691406 64.582031 124.96875 71.617188 122.195312 74.761719 C 119.425781 77.910156 117.761719 79.851562 117.855469 83.367188 C 117.855469 83.367188 111.015625 76.429688 105.476562 76.519531 C 105.476562 76.519531 107.324219 69.304688 107.046875 66.25 C 106.769531 63.195312 105.289062 60.789062 109.355469 56.90625 C 113.421875 53.019531 117.484375 50.796875 117.484375 50.796875 C 117.484375 50.796875 117.5625 50.808594 117.703125 50.828125 C 118.164062 50.894531 119.28125 51.0625 120.59375 51.292969 C 122.996094 51.707031 126.050781 52.335938 126.910156 52.925781 C 128.386719 53.945312 133.285156 64.121094 133.285156 64.121094 C 133.285156 64.121094 129.683594 67.082031 127.558594 68.285156 " fill-opacity="1" fill-rule="nonzero"/><path fill="#cca2db" d="M 103.355469 77.632812 C 103.355469 77.632812 84.714844 77.507812 80.15625 77.632812 C 75.601562 77.753906 54.097656 82.847656 47.445312 83.402344 C 47.570312 84.949219 47.847656 86.410156 48.375 87.71875 L 109.722656 87.71875 L 103.355469 77.632812 " fill-opacity="1" fill-rule="nonzero"/><path fill="#ffb39c" d="M 120.59375 51.292969 C 119.957031 53.09375 117.492188 59.144531 113.359375 58.039062 C 109.472656 57 115.261719 52.550781 117.703125 50.828125 C 118.164062 50.894531 119.28125 51.0625 120.59375 51.292969 " fill-opacity="1" fill-rule="nonzero"/><path fill="#ffb39c" d="M 79.847656 62.511719 C 79.847656 62.511719 66.113281 70.226562 63.835938 71.085938 C 61.554688 71.953125 55.886719 71.828125 54.164062 71.890625 C 54.164062 71.890625 51.820312 68.992188 51.203125 69.300781 C 50.589844 69.605469 51.761719 73.199219 52.929688 74.703125 C 54.101562 76.207031 56.292969 74.9375 57.21875 76.046875 C 58.140625 77.160156 57.714844 78.035156 59.132812 78.714844 C 60.550781 79.394531 61.496094 78.347656 61.558594 77.113281 C 61.621094 75.878906 63.402344 75.34375 64.203125 75.097656 C 65.003906 74.851562 76.769531 74.101562 81.820312 71.453125 L 79.847656 62.511719 " fill-opacity="1" fill-rule="nonzero"/><path fill="#cca2db" d="M 117.855469 83.367188 C 117.855469 83.367188 118.503906 86.789062 112.035156 87.71875 C 112.035156 87.71875 111.664062 87.71875 106.859375 87.71875 C 102.054688 87.71875 96.929688 82.441406 88.519531 70.320312 C 88.519531 70.320312 86.625 70.601562 86.855469 69.488281 C 86.855469 69.488281 82.984375 71.511719 79.945312 72.628906 C 79.648438 72.742188 79.3125 72.605469 79.175781 72.316406 C 78.371094 70.648438 75.886719 65.320312 76.277344 64.074219 C 76.738281 62.59375 77.800781 62.640625 77.800781 62.640625 C 77.800781 62.640625 78.863281 60.976562 79.695312 61.023438 C 80.527344 61.066406 80.386719 60.929688 81.40625 60.238281 C 82.421875 59.542969 82.746094 60.238281 82.746094 60.238281 C 82.746094 60.238281 85.5625 58.753906 86.441406 58.617188 C 87.316406 58.476562 108.984375 71.988281 117.855469 83.367188 " fill-opacity="1" fill-rule="nonzero"/><path fill="#ffc9c2" d="M 46.25 52.925781 L 50.128906 57.550781 L 62.878906 71.453125 L 59.832031 72.820312 C 59.832031 72.820312 47.355469 65.234375 44.953125 62.269531 C 42.550781 59.3125 40.613281 56.71875 40.613281 56.71875 L 46.25 52.925781 " fill-opacity="1" fill-rule="nonzero"/><path fill="#903443" d="M 119.796875 46.660156 C 119.796875 46.660156 120.199219 49.785156 121.808594 50.375 C 123.417969 50.96875 124.671875 50.277344 125.746094 49.964844 C 126.816406 49.652344 128.335938 50.996094 128.335938 50.996094 C 128.382812 47.859375 125.050781 46.660156 125.050781 46.660156 C 125.921875 46.714844 126.414062 46.203125 127.128906 46.164062 C 127.824219 46.125 128.894531 46.628906 128.960938 46.65625 C 124.894531 42.640625 121.140625 45.085938 121.140625 45.085938 L 119.796875 46.660156 " fill-opacity="1" fill-rule="nonzero"/><path fill="#7b0b0b" d="M 120.523438 49.054688 C 119.964844 47.96875 119.796875 46.660156 119.796875 46.660156 L 120.605469 45.710938 L 122.367188 44.570312 C 122.367188 44.570312 123.058594 47.554688 120.523438 49.054688 " fill-opacity="1" fill-rule="nonzero"/><path fill="#903443" d="M 119.058594 49.578125 C 119.058594 49.578125 122.285156 48.023438 122.644531 42.652344 C 123 37.277344 119.902344 37.699219 119.902344 37.699219 C 119.902344 37.699219 119.664062 33.3125 111.855469 36.730469 C 104.046875 40.144531 109.761719 46.660156 109.761719 46.660156 L 119.058594 49.578125 " fill-opacity="1" fill-rule="nonzero"/><path fill="#ffb39c" d="M 118.585938 46.164062 L 119.347656 51.695312 C 119.347656 51.695312 118.800781 54.019531 115.351562 56.203125 C 115.351562 56.203125 115.160156 52.929688 114.855469 50.09375 L 118.585938 46.164062 " fill-opacity="1" fill-rule="nonzero"/><path fill="#f2a088" d="M 115.109375 52.777344 C 115.039062 51.914062 114.953125 50.980469 114.855469 50.09375 L 117.496094 47.308594 L 118.097656 47.152344 C 118.097656 47.152344 117.96875 51.226562 115.109375 52.777344 " fill-opacity="1" fill-rule="nonzero"/><path fill="#ffb39c" d="M 118.585938 46.164062 C 118.585938 46.164062 116.296875 51.511719 113.136719 51.695312 C 110.90625 51.820312 109.78125 47.925781 109.539062 44.972656 C 109.519531 44.726562 109.503906 44.484375 109.5 44.253906 C 109.46875 43.332031 109.535156 42.566406 109.6875 42.128906 C 110.34375 40.273438 111.792969 38.269531 115.609375 38.492188 C 119.417969 38.707031 118.585938 44.78125 118.585938 44.78125 C 118.585938 44.78125 119.457031 43.289062 120.074219 44.273438 C 120.691406 45.253906 119.238281 47.148438 118.585938 46.164062 " fill-opacity="1" fill-rule="nonzero"/><path fill="#f2a088" d="M 119.140625 45.136719 C 119.019531 45.507812 119.039062 45.851562 119.191406 45.898438 C 119.339844 45.949219 119.558594 45.6875 119.679688 45.316406 C 119.804688 44.941406 119.78125 44.601562 119.632812 44.550781 C 119.484375 44.503906 119.261719 44.765625 119.140625 45.136719 " fill-opacity="1" fill-rule="nonzero"/><path fill="#903443" d="M 118.585938 44.78125 C 118.585938 44.78125 118.410156 45.816406 117.726562 46.621094 C 117.726562 46.621094 118.234375 45.28125 117.609375 44.265625 C 116.980469 43.25 114.328125 42.292969 114.179688 40.535156 C 114.179688 40.535156 111.675781 43.273438 109.5 43.425781 C 109.5 43.425781 109.277344 43.160156 109.492188 41.546875 C 109.707031 39.9375 111.886719 37.519531 115.996094 38.085938 C 120.113281 38.652344 118.585938 44.78125 118.585938 44.78125 " fill-opacity="1" fill-rule="nonzero"/><path fill="#7b0b0b" d="M 115.847656 38.832031 C 115.753906 38.925781 115.675781 39.042969 115.625 39.171875 C 115.609375 39.203125 115.601562 39.238281 115.589844 39.269531 C 115.578125 39.300781 115.566406 39.335938 115.5625 39.367188 L 115.539062 39.46875 L 115.527344 39.574219 C 115.503906 39.851562 115.5625 40.132812 115.667969 40.390625 C 115.714844 40.523438 115.785156 40.640625 115.851562 40.761719 C 115.882812 40.824219 115.925781 40.878906 115.964844 40.9375 C 116.003906 40.992188 116.039062 41.054688 116.082031 41.105469 C 116.167969 41.214844 116.253906 41.324219 116.34375 41.425781 L 116.605469 41.730469 C 116.957031 42.136719 117.316406 42.539062 117.597656 42.992188 C 117.734375 43.21875 117.847656 43.457031 117.917969 43.714844 C 118 43.96875 118.046875 44.238281 118.097656 44.503906 C 118.085938 44.230469 118.058594 43.960938 118.003906 43.695312 C 117.949219 43.425781 117.851562 43.164062 117.71875 42.921875 C 117.449219 42.4375 117.09375 42.023438 116.742188 41.613281 L 116.472656 41.308594 C 116.382812 41.207031 116.304688 41.105469 116.214844 41.003906 C 116.171875 40.953125 116.136719 40.894531 116.097656 40.84375 C 116.058594 40.789062 116.015625 40.738281 115.984375 40.683594 C 115.917969 40.566406 115.84375 40.457031 115.796875 40.335938 C 115.6875 40.097656 115.613281 39.839844 115.617188 39.578125 C 115.609375 39.316406 115.683594 39.046875 115.847656 38.832031 " fill-opacity="1" fill-rule="nonzero"/><path fill="#7b0b0b" d="M 118.710938 37.519531 C 118.5625 37.3125 118.371094 37.136719 118.167969 36.988281 C 118.113281 36.953125 118.0625 36.914062 118.007812 36.875 L 117.761719 36.734375 C 117.734375 36.71875 117.703125 36.703125 117.675781 36.691406 L 117.5 36.609375 C 117.027344 36.410156 116.515625 36.316406 116.003906 36.292969 L 115.621094 36.285156 L 115.238281 36.316406 L 115.046875 36.328125 L 114.855469 36.359375 L 114.476562 36.425781 L 114.386719 36.441406 L 114.292969 36.464844 L 114.109375 36.515625 L 113.738281 36.613281 C 113.492188 36.6875 113.253906 36.777344 113.011719 36.859375 C 112.890625 36.898438 112.777344 36.957031 112.65625 37.003906 L 112.308594 37.15625 C 112.25 37.179688 112.191406 37.203125 112.132812 37.230469 L 111.960938 37.3125 L 111.617188 37.480469 C 111.503906 37.535156 111.394531 37.601562 111.285156 37.667969 L 110.953125 37.855469 C 110.84375 37.921875 110.738281 37.996094 110.628906 38.066406 C 110.523438 38.136719 110.417969 38.203125 110.316406 38.285156 L 110.011719 38.515625 C 109.914062 38.597656 109.824219 38.683594 109.726562 38.769531 C 109.628906 38.851562 109.542969 38.949219 109.453125 39.039062 C 109.363281 39.128906 109.28125 39.226562 109.203125 39.324219 C 109.035156 39.523438 108.898438 39.738281 108.773438 39.960938 C 108.660156 40.1875 108.558594 40.429688 108.53125 40.683594 C 108.550781 40.554688 108.597656 40.4375 108.644531 40.320312 C 108.671875 40.261719 108.695312 40.207031 108.726562 40.148438 L 108.816406 39.984375 C 108.949219 39.773438 109.09375 39.566406 109.265625 39.382812 C 109.351562 39.289062 109.433594 39.195312 109.527344 39.109375 C 109.621094 39.027344 109.703125 38.933594 109.804688 38.859375 C 109.902344 38.777344 109.996094 38.695312 110.09375 38.617188 L 110.398438 38.398438 C 110.496094 38.320312 110.609375 38.257812 110.714844 38.191406 C 110.820312 38.125 110.925781 38.050781 111.03125 37.992188 L 111.363281 37.808594 C 111.472656 37.746094 111.582031 37.6875 111.695312 37.632812 L 112.035156 37.46875 L 112.203125 37.386719 C 112.261719 37.363281 112.320312 37.339844 112.378906 37.3125 L 112.726562 37.167969 C 112.84375 37.121094 112.957031 37.066406 113.074219 37.027344 C 114.011719 36.664062 115 36.425781 116 36.433594 C 116.5 36.441406 117 36.515625 117.46875 36.691406 C 117.933594 36.867188 118.378906 37.132812 118.710938 37.519531 " fill-opacity="1" fill-rule="nonzero"/><path fill="#7b0b0b" d="M 119.902344 38.832031 C 120.171875 39.113281 120.402344 39.4375 120.59375 39.777344 C 120.785156 40.117188 120.945312 40.476562 121.074219 40.84375 C 121.324219 41.582031 121.441406 42.359375 121.4375 43.136719 C 121.4375 43.914062 121.316406 44.691406 121.125 45.449219 C 120.929688 46.207031 120.664062 46.949219 120.351562 47.667969 C 120.441406 47.496094 120.53125 47.320312 120.617188 47.144531 L 120.863281 46.605469 C 120.933594 46.421875 121.007812 46.238281 121.078125 46.050781 L 121.167969 45.769531 C 121.203125 45.675781 121.234375 45.582031 121.257812 45.484375 C 121.476562 44.726562 121.613281 43.933594 121.613281 43.136719 C 121.613281 42.738281 121.585938 42.339844 121.519531 41.949219 C 121.449219 41.554688 121.347656 41.167969 121.203125 40.792969 C 121.0625 40.421875 120.882812 40.066406 120.667969 39.734375 C 120.558594 39.566406 120.441406 39.40625 120.316406 39.253906 C 120.1875 39.101562 120.054688 38.957031 119.902344 38.832031 " fill-opacity="1" fill-rule="nonzero"/><path fill="#7b0b0b" d="M 127.859375 50.144531 C 127.714844 49.875 127.519531 49.632812 127.296875 49.417969 C 127.074219 49.207031 126.8125 49.027344 126.515625 48.917969 C 126.21875 48.804688 125.890625 48.78125 125.578125 48.828125 C 125.417969 48.855469 125.269531 48.90625 125.128906 48.953125 L 124.695312 49.097656 C 124.40625 49.195312 124.117188 49.289062 123.828125 49.363281 C 123.539062 49.4375 123.242188 49.492188 122.949219 49.5 C 122.652344 49.503906 122.355469 49.457031 122.078125 49.347656 C 121.800781 49.238281 121.542969 49.070312 121.300781 48.882812 C 121.519531 49.097656 121.765625 49.289062 122.042969 49.425781 C 122.113281 49.457031 122.183594 49.488281 122.257812 49.515625 L 122.484375 49.582031 L 122.710938 49.621094 C 122.792969 49.628906 122.867188 49.632812 122.945312 49.636719 C 123.257812 49.644531 123.570312 49.59375 123.867188 49.527344 C 124.167969 49.457031 124.460938 49.363281 124.75 49.265625 L 125.179688 49.121094 C 125.328125 49.070312 125.464844 49.023438 125.609375 48.996094 C 125.890625 48.941406 126.191406 48.960938 126.46875 49.050781 C 126.75 49.140625 127.007812 49.292969 127.238281 49.484375 C 127.472656 49.671875 127.679688 49.898438 127.859375 50.144531 " fill-opacity="1" fill-rule="nonzero"/><path fill="#7b0b0b" d="M 113.136719 40.203125 C 112.828125 40.484375 112.515625 40.753906 112.191406 41.007812 C 111.867188 41.261719 111.535156 41.507812 111.1875 41.726562 C 110.84375 41.945312 110.484375 42.140625 110.109375 42.3125 C 109.734375 42.472656 109.34375 42.597656 108.933594 42.683594 C 109.351562 42.671875 109.765625 42.582031 110.164062 42.441406 C 110.554688 42.292969 110.929688 42.101562 111.285156 41.878906 C 111.636719 41.648438 111.96875 41.394531 112.28125 41.117188 C 112.589844 40.835938 112.882812 40.535156 113.136719 40.203125 " fill-opacity="1" fill-rule="nonzero"/><path fill="#7b0b0b" d="M 123.105469 46.164062 C 124.296875 46.28125 125.050781 46.660156 125.050781 46.660156 C 125.921875 46.714844 126.414062 46.203125 127.128906 46.164062 C 127.824219 46.125 128.894531 46.628906 128.960938 46.65625 C 128.199219 45.890625 126.0625 45.753906 125.671875 45.816406 C 125.296875 45.875 123.105469 46.164062 123.105469 46.164062 " fill-opacity="1" fill-rule="nonzero"/><path fill="#666666" d="M 113.53125 45.402344 C 113.238281 45.457031 112.984375 45.027344 113.0625 44.769531 C 113.152344 44.480469 113.601562 44.449219 113.765625 44.667969 C 113.960938 44.925781 113.859375 45.34375 113.53125 45.402344 " fill-opacity="1" fill-rule="nonzero"/><path fill="#666666" d="M 110.945312 45.914062 C 110.554688 45.992188 110.375 45.3125 110.59375 45.070312 C 110.714844 44.941406 110.933594 44.925781 111.070312 45.035156 C 111.300781 45.226562 111.292969 45.847656 110.945312 45.914062 " fill-opacity="1" fill-rule="nonzero"/><path fill="#903443" d="M 112.667969 43.863281 C 112.726562 43.914062 113.59375 43.5625 113.703125 43.558594 C 114.226562 43.53125 114.617188 43.765625 115.136719 43.867188 C 115.078125 43.273438 114.164062 43.019531 113.289062 43.15625 C 112.960938 43.203125 112.160156 43.4375 112.667969 43.863281 " fill-opacity="1" fill-rule="nonzero"/><path fill="#903443" d="M 111.0625 44.296875 C 111.0625 44.296875 109.664062 44.238281 109.527344 44.863281 C 109.507812 44.617188 109.441406 44.597656 109.433594 44.367188 C 109.980469 43.890625 111.28125 43.628906 111.0625 44.296875 " fill-opacity="1" fill-rule="nonzero"/><path fill="#eb9076" d="M 48.683594 57.871094 C 48.679688 57.847656 48.652344 57.832031 48.628906 57.835938 L 44.996094 58.570312 C 44.972656 58.574219 44.957031 58.601562 44.960938 58.625 C 44.96875 58.644531 44.984375 58.664062 45.007812 58.664062 C 45.015625 58.660156 48.648438 57.929688 48.648438 57.929688 C 48.671875 57.925781 48.6875 57.898438 48.683594 57.871094 " fill-opacity="1" fill-rule="nonzero"/><path fill="#eb9076" d="M 62.316406 74.492188 C 61.789062 74.460938 61.464844 74.328125 61.351562 74.089844 C 61.195312 73.75 61.515625 73.304688 61.519531 73.300781 C 61.535156 73.28125 61.527344 73.25 61.507812 73.234375 C 61.488281 73.21875 61.460938 73.222656 61.445312 73.246094 C 61.429688 73.265625 61.085938 73.738281 61.269531 74.128906 C 61.398438 74.398438 61.75 74.554688 62.308594 74.582031 C 62.335938 74.582031 62.359375 74.5625 62.359375 74.539062 C 62.359375 74.515625 62.339844 74.492188 62.316406 74.492188 " fill-opacity="1" fill-rule="nonzero"/><path fill="#eb9076" d="M 46.738281 86.257812 C 46.230469 86.121094 45.941406 85.921875 45.878906 85.667969 C 45.792969 85.304688 46.195312 84.933594 46.203125 84.925781 C 46.21875 84.910156 46.222656 84.882812 46.207031 84.863281 C 46.1875 84.84375 46.160156 84.84375 46.140625 84.859375 C 46.121094 84.875 45.691406 85.269531 45.789062 85.6875 C 45.859375 85.980469 46.171875 86.199219 46.71875 86.347656 C 46.742188 86.351562 46.765625 86.335938 46.773438 86.3125 C 46.777344 86.289062 46.765625 86.261719 46.738281 86.257812 " fill-opacity="1" fill-rule="nonzero"/><path fill="#eb9076" d="M 52.9375 71.285156 C 52.945312 71.304688 52.964844 71.3125 52.980469 71.3125 C 53.023438 71.300781 53.035156 71.273438 53.023438 71.25 L 52.484375 69.992188 C 52.472656 69.96875 52.449219 69.960938 52.425781 69.96875 C 52.398438 69.976562 52.390625 70.007812 52.398438 70.03125 L 52.9375 71.285156 " fill-opacity="1" fill-rule="nonzero"/><path fill="#eb9076" d="M 131.773438 67.421875 C 131.761719 67.398438 131.734375 67.390625 131.710938 67.402344 L 129.371094 68.636719 C 129.347656 68.648438 129.339844 68.675781 129.351562 68.699219 C 129.359375 68.714844 129.375 68.722656 129.390625 68.722656 C 129.414062 68.71875 131.753906 67.484375 131.753906 67.484375 C 131.777344 67.472656 131.785156 67.445312 131.773438 67.421875 " fill-opacity="1" fill-rule="nonzero"/><path fill="#eb9076" d="M 115.089844 52.570312 C 115.066406 52.570312 115.046875 52.589844 115.046875 52.617188 L 115.226562 54.980469 C 115.230469 55.003906 115.25 55.019531 115.273438 55.019531 C 115.300781 55.019531 115.320312 54.996094 115.320312 54.96875 L 115.140625 52.609375 C 115.140625 52.585938 115.117188 52.566406 115.089844 52.570312 " fill-opacity="1" fill-rule="nonzero"/><path fill="#eb9076" d="M 62.871094 71.40625 C 61.726562 71.621094 58.234375 71.765625 58.199219 71.765625 C 58.175781 71.769531 58.15625 71.789062 58.15625 71.8125 C 58.15625 71.839844 58.179688 71.859375 58.203125 71.859375 C 58.242188 71.855469 61.738281 71.714844 62.886719 71.5 C 62.914062 71.492188 62.929688 71.46875 62.925781 71.445312 C 62.921875 71.417969 62.894531 71.402344 62.871094 71.40625 " fill-opacity="1" fill-rule="nonzero"/><path fill="#fc9b47" d="M 122.910156 56.664062 C 122.878906 56.660156 122.859375 56.636719 122.863281 56.609375 C 123.234375 53.613281 125.273438 52.742188 125.292969 52.734375 C 125.316406 52.722656 125.34375 52.734375 125.351562 52.757812 C 125.363281 52.78125 125.351562 52.808594 125.328125 52.820312 C 125.308594 52.828125 123.316406 53.679688 122.957031 56.625 C 122.949219 56.644531 122.933594 56.664062 122.910156 56.664062 " fill-opacity="1" fill-rule="nonzero"/><path fill="#fc9b47" d="M 124.378906 64.113281 C 124.363281 64.113281 124.347656 64.105469 124.339844 64.09375 L 122.222656 60.945312 C 122.210938 60.925781 122.214844 60.894531 122.238281 60.882812 C 122.257812 60.867188 122.285156 60.875 122.300781 60.894531 L 124.417969 64.039062 C 124.433594 64.0625 124.425781 64.089844 124.40625 64.105469 C 124.398438 64.109375 124.386719 64.113281 124.378906 64.113281 " fill-opacity="1" fill-rule="nonzero"/><path fill="#fc9b47" d="M 118.074219 67.449219 C 118.003906 67.449219 117.9375 67.449219 117.871094 67.445312 C 115.445312 67.304688 108.007812 65.515625 107.929688 65.5 C 107.90625 65.492188 107.890625 65.46875 107.894531 65.445312 C 107.902344 65.417969 107.925781 65.402344 107.953125 65.410156 C 108.027344 65.425781 115.457031 67.214844 117.875 67.351562 C 118.933594 67.410156 119.886719 66.988281 120.5625 66.164062 C 121.460938 65.070312 121.714844 63.429688 121.257812 61.671875 C 121.25 61.648438 121.265625 61.621094 121.292969 61.617188 C 121.316406 61.609375 121.339844 61.625 121.347656 61.648438 C 121.8125 63.4375 121.554688 65.105469 120.636719 66.222656 C 119.984375 67.019531 119.082031 67.449219 118.074219 67.449219 " fill-opacity="1" fill-rule="nonzero"/><path fill="#fc9b47" d="M 119.996094 75.492188 C 119.988281 75.492188 119.972656 75.488281 119.964844 75.476562 C 119.949219 75.460938 119.949219 75.429688 119.964844 75.410156 C 123.0625 72.542969 124.054688 65.566406 124.066406 65.492188 C 124.070312 65.46875 124.089844 65.449219 124.117188 65.453125 C 124.140625 65.457031 124.160156 65.480469 124.15625 65.507812 C 124.144531 65.578125 123.148438 72.589844 120.03125 75.480469 C 120.019531 75.488281 120.011719 75.492188 119.996094 75.492188 " fill-opacity="1" fill-rule="nonzero"/><path fill="#fc9b47" d="M 115.199219 74.144531 C 111.929688 74.144531 108.570312 73.222656 108.519531 73.210938 C 108.496094 73.203125 108.480469 73.179688 108.488281 73.152344 C 108.496094 73.128906 108.519531 73.113281 108.542969 73.121094 C 108.621094 73.144531 116.152344 75.207031 119.605469 73.125 C 119.625 73.113281 119.65625 73.121094 119.667969 73.144531 C 119.683594 73.164062 119.675781 73.191406 119.652344 73.207031 C 118.484375 73.910156 116.855469 74.144531 115.199219 74.144531 " fill-opacity="1" fill-rule="nonzero"/><path fill="#fc9b47" d="M 117.320312 79.378906 C 117.308594 79.378906 117.300781 79.375 117.289062 79.371094 C 114.003906 76.71875 108.800781 73.703125 108.75 73.675781 C 108.726562 73.664062 108.71875 73.632812 108.734375 73.613281 C 108.746094 73.589844 108.773438 73.582031 108.796875 73.59375 C 108.847656 73.625 114.058594 76.640625 117.347656 79.296875 C 117.367188 79.3125 117.371094 79.34375 117.355469 79.363281 C 117.347656 79.375 117.332031 79.378906 117.320312 79.378906 " fill-opacity="1" fill-rule="nonzero"/><path fill="#aa79b8" d="M 88.394531 65.992188 C 87.472656 67.039062 87.105469 69.332031 87.089844 69.429688 C 87.089844 69.453125 87.105469 69.476562 87.128906 69.480469 C 87.160156 69.480469 87.179688 69.464844 87.183594 69.441406 C 87.1875 69.417969 87.5625 67.082031 88.464844 66.054688 C 88.480469 66.035156 88.480469 66.007812 88.460938 65.988281 C 88.441406 65.972656 88.410156 65.972656 88.394531 65.992188 " fill-opacity="1" fill-rule="nonzero"/><path fill="#aa79b8" d="M 82.808594 60.878906 C 82.8125 60.851562 82.792969 60.828125 82.769531 60.828125 C 82.742188 60.828125 82.71875 60.84375 82.71875 60.867188 C 82.710938 60.929688 82.179688 66.949219 83.460938 70.492188 C 83.464844 70.507812 83.484375 70.519531 83.503906 70.519531 C 83.542969 70.507812 83.554688 70.480469 83.546875 70.457031 C 82.269531 66.941406 82.804688 60.9375 82.808594 60.878906 " fill-opacity="1" fill-rule="nonzero"/><path fill="#aa79b8" d="M 78.171875 62.875 C 78.171875 62.851562 78.152344 62.828125 78.128906 62.828125 C 78.105469 62.828125 78.078125 62.84375 78.078125 62.867188 C 78.074219 62.902344 77.773438 66.371094 78.71875 68.148438 C 78.726562 68.160156 78.742188 68.171875 78.761719 68.171875 C 78.804688 68.152344 78.8125 68.125 78.800781 68.101562 C 77.867188 66.351562 78.167969 62.910156 78.171875 62.875 " fill-opacity="1" fill-rule="nonzero"/><path fill="#aa79b8" d="M 80.390625 61.457031 C 80.394531 61.429688 80.375 61.40625 80.347656 61.40625 C 80.324219 61.402344 80.300781 61.421875 80.300781 61.449219 C 80.292969 61.515625 79.691406 68.335938 80.609375 71.167969 C 80.617188 71.183594 80.632812 71.199219 80.652344 71.199219 C 80.691406 71.1875 80.707031 71.164062 80.695312 71.136719 C 79.785156 68.328125 80.382812 61.523438 80.390625 61.457031 " fill-opacity="1" fill-rule="nonzero"/><path fill="#aa79b8" d="M 106.039062 87.617188 C 100.796875 87.300781 93.25 76.792969 93.175781 76.683594 C 93.160156 76.664062 93.132812 76.660156 93.109375 76.671875 C 93.089844 76.6875 93.085938 76.714844 93.101562 76.738281 C 93.175781 76.84375 100.746094 87.390625 106.03125 87.710938 C 106.058594 87.710938 106.082031 87.691406 106.082031 87.667969 C 106.085938 87.640625 106.0625 87.621094 106.039062 87.617188 " fill-opacity="1" fill-rule="nonzero"/><path fill="#aa79b8" d="M 116.308594 84.363281 C 109.96875 86.214844 103.273438 82.402344 98.777344 78.878906 C 93.894531 75.054688 90.472656 70.734375 90.4375 70.691406 C 90.421875 70.671875 90.390625 70.667969 90.375 70.683594 C 90.351562 70.699219 90.347656 70.730469 90.363281 70.75 C 90.398438 70.792969 93.828125 75.121094 98.71875 78.949219 C 101.589844 81.199219 104.394531 82.839844 107.0625 83.828125 C 109.066406 84.570312 110.992188 84.945312 112.824219 84.945312 C 114.039062 84.945312 115.210938 84.78125 116.335938 84.449219 C 116.359375 84.445312 116.375 84.417969 116.367188 84.394531 C 116.359375 84.371094 116.332031 84.355469 116.308594 84.363281 " fill-opacity="1" fill-rule="nonzero"/><path fill="#aa79b8" d="M 77.027344 81.832031 C 77.003906 81.835938 76.984375 81.859375 76.988281 81.886719 C 77.113281 82.621094 78.484375 86.773438 78.542969 86.949219 C 78.546875 86.96875 78.566406 86.980469 78.585938 86.980469 C 78.625 86.972656 78.636719 86.945312 78.628906 86.921875 C 78.613281 86.878906 77.199219 82.597656 77.082031 81.867188 C 77.078125 81.84375 77.050781 81.828125 77.027344 81.832031 " fill-opacity="1" fill-rule="nonzero"/><path fill="#aa79b8" d="M 74.910156 84.371094 C 74.890625 84.355469 74.859375 84.355469 74.84375 84.375 C 74.828125 84.394531 74.828125 84.421875 74.847656 84.441406 L 77.777344 86.96875 C 77.789062 86.980469 77.800781 86.980469 77.808594 86.980469 C 77.824219 86.980469 77.835938 86.976562 77.84375 86.964844 C 77.863281 86.945312 77.859375 86.917969 77.839844 86.898438 L 74.910156 84.371094 " fill-opacity="1" fill-rule="nonzero"/><path fill="#eb9076" d="M 149.839844 87.691406 C 149.820312 87.691406 149.800781 87.675781 149.796875 87.652344 C 149.792969 87.628906 149.808594 87.605469 149.832031 87.597656 C 150.058594 87.554688 150.269531 87.207031 150.246094 87.007812 C 150.234375 86.898438 150.15625 86.851562 150.019531 86.859375 C 149.445312 86.890625 148.449219 86.660156 147.878906 86.359375 C 147.316406 86.0625 145.585938 86.359375 145.570312 86.363281 C 145.542969 86.367188 145.519531 86.351562 145.515625 86.328125 C 145.511719 86.300781 145.527344 86.277344 145.550781 86.273438 C 145.625 86.261719 147.332031 85.964844 147.925781 86.277344 C 148.480469 86.570312 149.457031 86.796875 150.015625 86.765625 C 150.199219 86.753906 150.316406 86.839844 150.335938 86.996094 C 150.367188 87.238281 150.128906 87.636719 149.851562 87.691406 C 149.847656 87.691406 149.847656 87.691406 149.839844 87.691406 " fill-opacity="1" fill-rule="nonzero"/><path fill="#eb9076" d="M 112.480469 48.375 C 112.523438 48.378906 112.546875 48.363281 112.554688 48.335938 C 112.570312 48.308594 112.550781 48.269531 112.519531 48.261719 C 111.851562 48.011719 111.714844 47.804688 111.714844 47.671875 C 111.71875 47.449219 112.121094 47.261719 112.273438 47.210938 C 112.304688 47.195312 112.324219 47.164062 112.308594 47.132812 C 112.300781 47.097656 112.265625 47.082031 112.234375 47.09375 C 112.207031 47.105469 111.597656 47.316406 111.59375 47.671875 C 111.589844 47.921875 111.882812 48.152344 112.480469 48.375 " fill-opacity="1" fill-rule="nonzero"/><path fill="#eb9076" d="M 114.894531 48.757812 C 114.867188 48.734375 114.828125 48.742188 114.808594 48.769531 C 113.921875 49.960938 112.238281 49.886719 111.558594 49.800781 C 111.527344 49.796875 111.507812 49.792969 111.5 49.792969 C 111.46875 49.792969 111.441406 49.820312 111.441406 49.855469 C 111.441406 49.886719 111.464844 49.914062 111.496094 49.917969 C 111.507812 49.917969 111.519531 49.917969 111.542969 49.921875 C 111.789062 49.953125 112.027344 49.96875 112.257812 49.96875 C 113.417969 49.96875 114.363281 49.570312 114.90625 48.839844 C 114.925781 48.816406 114.921875 48.777344 114.894531 48.757812 " fill-opacity="1" fill-rule="nonzero"/><path fill="#ffc9c2" d="M 31.945312 140.355469 L 32.871094 143.289062 L 36.914062 145.859375 L 40.574219 142.972656 C 40.574219 142.972656 37.191406 142.621094 36.914062 141.742188 C 36.636719 140.863281 31.945312 140.355469 31.945312 140.355469 " fill-opacity="1" fill-rule="nonzero"/><path fill="#ffc9c2" d="M 3.433594 140.164062 C 3.433594 140.164062 3.796875 142.855469 3.796875 143.140625 C 3.796875 143.425781 3.203125 144.226562 3.203125 144.226562 L 8.90625 144.6875 C 8.90625 144.6875 8.1875 143.765625 8.015625 143.539062 C 7.847656 143.3125 8.425781 138.859375 8.425781 138.859375 L 3.433594 140.164062 " fill-opacity="1" fill-rule="nonzero"/><g clip-path="url(#448d263def)"><path fill="#59aad0" d="M 9.324219 147.757812 L 0.871094 147.757812 C 0.886719 147.25 0.945312 146.84375 1.019531 146.515625 C 1.230469 145.628906 1.621094 145.324219 2.03125 145.117188 C 2.03125 145.117188 2.039062 145.109375 2.0625 145.101562 C 2.089844 145.085938 2.121094 145.070312 2.152344 145.054688 C 2.449219 144.914062 2.738281 144.796875 2.964844 144.523438 C 2.980469 144.503906 2.996094 144.488281 3.007812 144.46875 C 3.082031 144.378906 3.148438 144.296875 3.203125 144.226562 C 3.824219 143.964844 4.773438 143.652344 5.65625 143.707031 C 6.753906 143.777344 8.226562 144.382812 8.90625 144.6875 C 9.105469 145.335938 9.265625 145.984375 9.386719 146.515625 C 9.472656 146.902344 9.539062 147.230469 9.582031 147.445312 C 9.613281 147.605469 9.488281 147.757812 9.324219 147.757812 " fill-opacity="1" fill-rule="nonzero"/></g><g clip-path="url(#85d79a73b7)"><path fill="#6376a1" d="M 9.800781 146.648438 L 9.800781 147.378906 C 9.800781 147.597656 9.636719 147.769531 9.433594 147.769531 L 0.765625 147.769531 C 0.585938 147.769531 0.441406 147.613281 0.441406 147.425781 L 0.441406 146.605469 C 0.441406 146.414062 0.589844 146.257812 0.765625 146.257812 L 9.433594 146.257812 C 9.636719 146.257812 9.800781 146.433594 9.800781 146.648438 " fill-opacity="1" fill-rule="nonzero"/></g><path fill="#59aad0" d="M 35.070312 37.90625 L 40.148438 42.285156 C 40.148438 42.285156 45.394531 49.960938 47.976562 53.246094 C 48.097656 53.402344 48.082031 53.617188 47.945312 53.757812 C 47.050781 54.652344 43.878906 57.765625 41.929688 59.03125 C 41.761719 59.140625 41.539062 59.101562 41.414062 58.941406 L 37.730469 54.128906 L 35.070312 37.90625 " fill-opacity="1" fill-rule="nonzero"/><path fill="#59aad0" d="M 29.710938 75.78125 C 29.710938 75.78125 33.773438 98.914062 35.070312 106.5 C 36.363281 114.085938 38.394531 134.074219 40.613281 142.402344 C 40.613281 142.402344 35.808594 143.898438 31.925781 143.058594 C 31.925781 143.058594 23.636719 121.109375 23.464844 107.042969 L 16.589844 85.035156 L 26.378906 74.902344 L 29.710938 75.78125 " fill-opacity="1" fill-rule="nonzero"/><path fill="#59aad0" d="M 28.417969 76.648438 C 28.417969 76.648438 27.199219 82.070312 22.632812 85.894531 C 22.632812 85.894531 18.253906 108.164062 15.851562 113.71875 C 13.449219 119.265625 9.753906 142.402344 9.753906 142.402344 C 9.753906 142.402344 5.6875 143.878906 1.4375 142.402344 C 1.4375 142.402344 1.152344 122.378906 5.957031 105.722656 C 5.957031 105.722656 5.871094 80.636719 9.382812 71.453125 C 12.894531 62.269531 28.417969 76.648438 28.417969 76.648438 " fill-opacity="1" fill-rule="nonzero"/><path fill="#59aad0" d="M 39.257812 53.820312 C 38.640625 62.085938 31.882812 71.828125 31.390625 80.890625 C 31.390625 80.890625 20.777344 83.605469 13.261719 80.023438 L 14.125 74.222656 L 11.046875 78.664062 C 9.140625 77.53125 7.636719 76.039062 6.488281 74.222656 C 6.488281 74.222656 13.007812 61.152344 14.253906 58.839844 C 16.558594 54.5625 26.445312 38.894531 26.445312 38.894531 L 31.414062 38.324219 L 35.070312 37.90625 C 35.070312 37.90625 35.957031 39.320312 36.921875 41.59375 C 38.199219 44.605469 39.605469 49.113281 39.257812 53.820312 " fill-opacity="1" fill-rule="nonzero"/><path fill="#ffc9c2" d="M 36.742188 49.738281 C 32.457031 44.492188 31.558594 39.34375 31.414062 38.324219 L 35.070312 37.90625 C 35.070312 37.90625 35.957031 39.320312 36.921875 41.59375 C 37.121094 45.050781 36.742188 49.738281 36.742188 49.738281 " fill-opacity="1" fill-rule="nonzero"/><path fill="#ffc9c2" d="M 28.507812 53.664062 L 30.355469 60.050781 C 30.355469 60.050781 37.761719 69.253906 43.574219 71.453125 C 43.574219 71.453125 45.648438 71.015625 46.617188 71.0625 C 46.617188 71.0625 48.558594 70.042969 49.066406 69.535156 C 49.574219 69.027344 49.945312 71.246094 48.558594 71.894531 C 47.171875 72.542969 48.050781 73.882812 49.160156 74.484375 C 50.265625 75.085938 52.667969 74.300781 54.609375 74.71875 C 56.550781 75.132812 52.160156 75.871094 52.160156 75.871094 C 52.160156 75.871094 49.203125 78.257812 47.632812 78.523438 C 46.0625 78.789062 43.015625 74.578125 43.015625 74.578125 C 43.015625 74.578125 30.585938 70.875 24.335938 63.660156 C 24.335938 63.660156 20.925781 58.105469 20.378906 55.425781 C 19.832031 52.746094 28.507812 53.664062 28.507812 53.664062 " fill-opacity="1" fill-rule="nonzero"/><path fill="#59aad0" d="M 26.445312 38.894531 L 24.449219 39.179688 C 22.496094 39.457031 20.867188 40.816406 20.257812 42.695312 C 19.039062 46.464844 17.777344 53.085938 21.023438 59.21875 L 29.710938 55.425781 L 26.445312 38.894531 " fill-opacity="1" fill-rule="nonzero"/><g clip-path="url(#879dfad14a)"><path fill="#6b364d" d="M 49.253906 30.652344 C 48.230469 32.402344 46.339844 32.980469 46.339844 32.980469 L 33.773438 37.375 C 33.773438 37.375 32.496094 32.773438 32.902344 31.4375 C 33.171875 30.566406 34.128906 29.042969 34.765625 28.082031 L 35.351562 27.222656 C 35.351562 27.222656 34.660156 25.03125 37.753906 24.925781 C 40.847656 24.824219 43.78125 24.363281 47.117188 25.648438 C 50.457031 26.933594 50.28125 28.902344 49.253906 30.652344 " fill-opacity="1" fill-rule="nonzero"/></g><path fill="#472434" d="M 46.417969 30.4375 C 46.417969 30.4375 45.347656 32.675781 45.46875 33.285156 L 46.339844 32.980469 C 48.363281 31.132812 46.417969 30.4375 46.417969 30.4375 " fill-opacity="1" fill-rule="nonzero"/><path fill="#ffc9c2" d="M 36.046875 32.808594 L 33.359375 38.207031 C 33.359375 38.207031 33.117188 40.777344 35.902344 44.203125 C 35.902344 44.203125 37.222656 40.917969 38.511719 38.117188 L 36.046875 32.808594 " fill-opacity="1" fill-rule="nonzero"/><path fill="#ffc9c2" d="M 46.550781 31.746094 C 46.550781 32.003906 46.5 32.351562 46.398438 32.757812 C 46.3125 33.105469 46.1875 33.5 46.03125 33.917969 C 44.917969 36.953125 42.167969 41.332031 39.722656 40.351562 C 36.546875 39.074219 36.046875 32.808594 36.046875 32.808594 C 35.039062 33.585938 34.203125 31.148438 35.171875 30.355469 C 36.140625 29.566406 36.519531 31.390625 36.519531 31.390625 C 36.519531 31.390625 37.753906 24.882812 41.734375 25.976562 C 45.714844 27.070312 46.515625 29.617188 46.550781 31.746094 " fill-opacity="1" fill-rule="nonzero"/><path fill="#6b364d" d="M 42.082031 33.300781 C 41.976562 33.492188 41.753906 33.578125 41.582031 33.484375 C 41.410156 33.394531 41.355469 33.164062 41.457031 32.96875 C 41.558594 32.773438 41.785156 32.691406 41.957031 32.78125 C 42.128906 32.875 42.183594 33.105469 42.082031 33.300781 " fill-opacity="1" fill-rule="nonzero"/><path fill="#6b364d" d="M 44.777344 34.453125 C 44.675781 34.644531 44.453125 34.726562 44.28125 34.636719 C 44.105469 34.546875 44.050781 34.3125 44.152344 34.117188 C 44.257812 33.925781 44.480469 33.84375 44.652344 33.933594 C 44.824219 34.023438 44.878906 34.257812 44.777344 34.453125 " fill-opacity="1" fill-rule="nonzero"/><path fill="#6b364d" d="M 40.898438 30.910156 C 41.199219 31.066406 41.507812 31.089844 41.828125 31.195312 C 42.199219 31.3125 42.546875 31.488281 42.855469 31.714844 C 42.992188 31.816406 43.171875 31.929688 43.3125 31.839844 C 43.402344 31.785156 43.433594 31.671875 43.417969 31.570312 C 43.34375 31.039062 42.726562 30.777344 42.265625 30.695312 C 41.8125 30.695312 41.285156 30.585938 40.898438 30.910156 " fill-opacity="1" fill-rule="nonzero"/><path fill="#ffb2a8" d="M 35.832031 31.5625 C 35.828125 31.984375 35.6875 32.328125 35.519531 32.328125 C 35.347656 32.328125 35.214844 31.984375 35.214844 31.558594 C 35.21875 31.136719 35.359375 30.792969 35.527344 30.796875 C 35.699219 30.796875 35.832031 31.140625 35.832031 31.5625 " fill-opacity="1" fill-rule="nonzero"/><path fill="#6b364d" d="M 36.519531 31.394531 C 36.519531 31.394531 37.957031 30.699219 39.796875 30.429688 C 39.796875 30.429688 40.257812 28.585938 41.578125 28.433594 C 42.898438 28.285156 46.417969 30.4375 46.417969 30.4375 C 46.417969 30.4375 47.230469 27.875 43.246094 26.152344 C 39.269531 24.433594 37.714844 27.050781 37.714844 27.050781 C 37.714844 27.050781 36.503906 29.761719 36.519531 31.394531 " fill-opacity="1" fill-rule="nonzero"/><path fill="#6b364d" d="M 41.871094 28.433594 C 41.871094 28.433594 40.796875 29.347656 40.359375 31.476562 C 40.359375 31.476562 41.441406 29.746094 43.75 29.027344 C 43.75 29.027344 43.109375 28.117188 41.871094 28.433594 " fill-opacity="1" fill-rule="nonzero"/><path fill="#6b364d" d="M 36.046875 32.808594 C 36.046875 32.808594 37.480469 34.84375 37.964844 35.292969 C 37.964844 35.292969 37.371094 38.105469 38.175781 38.859375 C 38.976562 39.609375 39.453125 38.898438 39.964844 38.910156 C 40.476562 38.921875 42.300781 39.53125 42.410156 39.910156 C 42.519531 40.289062 41.386719 42.71875 40.851562 42.902344 C 40.3125 43.085938 37.054688 42.679688 34.476562 38.582031 C 34.007812 37.84375 36.046875 32.808594 36.046875 32.808594 " fill-opacity="1" fill-rule="nonzero"/><path fill="#6b364d" d="M 37.683594 40.1875 C 37.683594 40.1875 38.648438 38.339844 39.394531 37.980469 C 40.140625 37.625 42.894531 38.960938 42.894531 38.960938 L 42.121094 39.875 C 42.121094 39.875 43.613281 39.441406 43.777344 38.136719 C 43.8125 37.851562 41.621094 36.425781 39.851562 36.625 C 38.082031 36.820312 36.742188 38.839844 36.742188 38.839844 L 37.683594 40.1875 " fill-opacity="1" fill-rule="nonzero"/><path fill="#472434" d="M 45.824219 28.613281 C 45.179688 28.199219 43.75 29.027344 43.75 29.027344 C 45.085938 29.621094 46.417969 30.4375 46.417969 30.4375 C 46.417969 30.4375 46.460938 29.03125 45.824219 28.613281 " fill-opacity="1" fill-rule="nonzero"/><path fill="#472434" d="M 46.789062 30.226562 C 47.152344 30 47.5 29.746094 47.808594 29.453125 C 47.964844 29.304688 48.109375 29.152344 48.234375 28.980469 C 48.296875 28.894531 48.347656 28.800781 48.394531 28.710938 C 48.441406 28.617188 48.476562 28.519531 48.5 28.421875 C 48.515625 28.320312 48.523438 28.21875 48.511719 28.121094 C 48.492188 28.023438 48.464844 27.925781 48.414062 27.84375 C 48.3125 27.679688 48.128906 27.574219 47.9375 27.507812 C 47.742188 27.4375 47.535156 27.402344 47.324219 27.382812 C 47.117188 27.367188 46.90625 27.363281 46.695312 27.375 C 46.269531 27.394531 45.847656 27.46875 45.433594 27.5625 C 45.019531 27.660156 44.613281 27.792969 44.21875 27.945312 C 43.820312 28.105469 43.4375 28.289062 43.070312 28.507812 C 42.703125 28.722656 42.351562 28.976562 42.03125 29.257812 C 42.636719 28.648438 43.378906 28.175781 44.171875 27.839844 C 44.96875 27.5 45.816406 27.277344 46.6875 27.226562 C 46.902344 27.214844 47.121094 27.214844 47.339844 27.238281 C 47.554688 27.257812 47.773438 27.292969 47.984375 27.371094 C 48.035156 27.394531 48.089844 27.410156 48.140625 27.441406 C 48.191406 27.464844 48.242188 27.492188 48.285156 27.527344 C 48.382812 27.585938 48.464844 27.675781 48.527344 27.777344 C 48.589844 27.882812 48.617188 27.992188 48.636719 28.105469 C 48.648438 28.222656 48.636719 28.335938 48.613281 28.449219 C 48.554688 28.667969 48.445312 28.863281 48.3125 29.035156 C 48.179688 29.210938 48.023438 29.363281 47.859375 29.507812 C 47.695312 29.648438 47.523438 29.777344 47.34375 29.898438 C 47.164062 30.019531 46.980469 30.128906 46.789062 30.226562 " fill-opacity="1" fill-rule="nonzero"/><path fill="#472434" d="M 47.734375 26.515625 C 47.390625 26.441406 47.042969 26.386719 46.695312 26.347656 C 46.347656 26.308594 45.996094 26.28125 45.644531 26.269531 C 44.945312 26.246094 44.246094 26.28125 43.558594 26.398438 C 43.210938 26.453125 42.875 26.539062 42.542969 26.640625 C 42.207031 26.738281 41.882812 26.871094 41.566406 27.019531 C 40.9375 27.320312 40.363281 27.730469 39.863281 28.226562 L 40.039062 28.03125 L 40.128906 27.933594 L 40.222656 27.84375 C 40.289062 27.78125 40.351562 27.71875 40.417969 27.660156 L 40.625 27.492188 C 40.902344 27.273438 41.199219 27.074219 41.515625 26.914062 C 42.144531 26.582031 42.832031 26.371094 43.535156 26.25 C 43.882812 26.195312 44.234375 26.15625 44.589844 26.140625 C 44.945312 26.125 45.296875 26.128906 45.652344 26.152344 C 46.355469 26.199219 47.058594 26.3125 47.734375 26.515625 " fill-opacity="1" fill-rule="nonzero"/><path fill="#472434" d="M 36.21875 28.664062 C 36.21875 28.664062 35.347656 28.429688 34.765625 28.082031 L 35.351562 27.222656 C 35.351562 27.222656 35.542969 28.042969 36.21875 28.664062 " fill-opacity="1" fill-rule="nonzero"/><path fill="#472434" d="M 34.578125 29.527344 C 34.46875 29.738281 34.367188 29.957031 34.28125 30.175781 C 34.1875 30.394531 34.109375 30.617188 34.035156 30.839844 C 33.964844 31.066406 33.898438 31.292969 33.84375 31.523438 C 33.789062 31.753906 33.742188 31.984375 33.707031 32.21875 C 33.675781 32.449219 33.652344 32.683594 33.640625 32.917969 C 33.632812 33.15625 33.632812 33.390625 33.652344 33.625 C 33.65625 33.746094 33.675781 33.859375 33.6875 33.980469 C 33.703125 34.09375 33.71875 34.214844 33.742188 34.328125 C 33.78125 34.5625 33.847656 34.789062 33.914062 35.019531 C 33.722656 34.585938 33.585938 34.117188 33.535156 33.636719 C 33.476562 33.15625 33.492188 32.671875 33.5625 32.195312 C 33.628906 31.71875 33.753906 31.253906 33.925781 30.804688 C 34.09375 30.355469 34.308594 29.921875 34.578125 29.527344 " fill-opacity="1" fill-rule="nonzero"/><path fill="#472434" d="M 36.125 34.296875 C 36.074219 34.472656 36.019531 34.644531 35.96875 34.820312 C 35.914062 34.992188 35.863281 35.164062 35.816406 35.339844 C 35.714844 35.6875 35.617188 36.035156 35.535156 36.390625 C 35.445312 36.738281 35.371094 37.09375 35.3125 37.453125 C 35.28125 37.628906 35.261719 37.808594 35.242188 37.988281 L 35.226562 38.261719 L 35.234375 38.53125 C 35.175781 38.171875 35.210938 37.804688 35.253906 37.441406 C 35.304688 37.082031 35.378906 36.726562 35.460938 36.371094 C 35.550781 36.019531 35.648438 35.667969 35.757812 35.324219 C 35.871094 34.976562 35.988281 34.632812 36.125 34.296875 " fill-opacity="1" fill-rule="nonzero"/><path fill="#472434" d="M 36.742188 39.816406 C 37.070312 39.253906 37.4375 38.714844 37.847656 38.207031 C 38.054688 37.953125 38.273438 37.710938 38.511719 37.488281 C 38.636719 37.378906 38.765625 37.273438 38.902344 37.183594 C 39.039062 37.097656 39.191406 37.019531 39.359375 36.988281 C 39.402344 36.976562 39.445312 36.980469 39.488281 36.976562 C 39.53125 36.976562 39.570312 36.984375 39.609375 36.988281 C 39.695312 36.992188 39.773438 37.007812 39.855469 37.023438 C 39.9375 37.035156 40.015625 37.054688 40.097656 37.074219 L 40.214844 37.101562 L 40.332031 37.136719 C 40.648438 37.222656 40.957031 37.328125 41.257812 37.441406 C 41.871094 37.671875 42.46875 37.929688 43.054688 38.210938 C 42.753906 38.085938 42.453125 37.960938 42.152344 37.839844 C 41.851562 37.722656 41.546875 37.605469 41.242188 37.5 C 40.933594 37.390625 40.628906 37.285156 40.316406 37.203125 L 40.199219 37.167969 L 40.082031 37.140625 C 40 37.125 39.925781 37.105469 39.84375 37.09375 C 39.765625 37.078125 39.6875 37.066406 39.605469 37.058594 C 39.566406 37.058594 39.527344 37.054688 39.488281 37.050781 C 39.449219 37.054688 39.410156 37.050781 39.371094 37.0625 C 39.21875 37.089844 39.074219 37.160156 38.941406 37.246094 C 38.804688 37.332031 38.679688 37.429688 38.5625 37.539062 C 38.320312 37.753906 38.101562 37.996094 37.890625 38.242188 C 37.683594 38.492188 37.484375 38.75 37.296875 39.011719 C 37.101562 39.273438 36.917969 39.542969 36.742188 39.816406 " fill-opacity="1" fill-rule="nonzero"/><path fill="#472434" d="M 36.574219 35.644531 C 36.445312 36.019531 36.339844 36.40625 36.257812 36.796875 C 36.175781 37.1875 36.113281 37.582031 36.089844 37.976562 C 36.070312 38.375 36.074219 38.773438 36.144531 39.164062 C 36.210938 39.554688 36.351562 39.933594 36.578125 40.253906 C 36.691406 40.417969 36.828125 40.554688 36.980469 40.683594 C 37.136719 40.796875 37.300781 40.910156 37.480469 40.992188 C 37.835938 41.167969 38.226562 41.261719 38.621094 41.246094 C 39.015625 41.226562 39.398438 41.089844 39.730469 40.875 C 40.066406 40.664062 40.359375 40.382812 40.597656 40.066406 C 40.488281 40.230469 40.355469 40.382812 40.214844 40.523438 C 40.074219 40.664062 39.917969 40.796875 39.753906 40.90625 C 39.417969 41.128906 39.027344 41.28125 38.625 41.300781 C 38.21875 41.332031 37.8125 41.230469 37.449219 41.054688 C 37.269531 40.96875 37.097656 40.859375 36.933594 40.738281 C 36.777344 40.609375 36.632812 40.464844 36.515625 40.300781 C 36.285156 39.960938 36.144531 39.574219 36.078125 39.175781 C 36.007812 38.777344 36.003906 38.375 36.03125 37.972656 C 36.101562 37.171875 36.289062 36.386719 36.574219 35.644531 " fill-opacity="1" fill-rule="nonzero"/><path fill="#472434" d="M 41.691406 40.429688 C 41.613281 40.710938 41.488281 40.972656 41.335938 41.21875 C 41.179688 41.464844 40.988281 41.6875 40.757812 41.867188 C 40.644531 41.957031 40.519531 42.035156 40.386719 42.097656 C 40.253906 42.160156 40.117188 42.210938 39.972656 42.234375 C 39.6875 42.292969 39.390625 42.269531 39.113281 42.199219 C 39.253906 42.214844 39.394531 42.234375 39.539062 42.226562 C 39.679688 42.226562 39.824219 42.210938 39.960938 42.179688 C 40.234375 42.113281 40.492188 41.988281 40.714844 41.808594 C 40.9375 41.636719 41.125 41.421875 41.285156 41.1875 C 41.367188 41.070312 41.441406 40.949219 41.507812 40.820312 C 41.578125 40.695312 41.640625 40.566406 41.691406 40.429688 " fill-opacity="1" fill-rule="nonzero"/><path fill="#eb9076" d="M 42.925781 36.976562 C 42.667969 36.976562 42.335938 36.917969 42 36.679688 C 41.960938 36.648438 41.949219 36.59375 41.976562 36.550781 C 42.007812 36.507812 42.066406 36.5 42.109375 36.527344 C 42.609375 36.886719 43.117188 36.792969 43.28125 36.75 L 43.402344 33.511719 C 43.40625 33.464844 43.449219 33.417969 43.5 33.421875 C 43.550781 33.425781 43.589844 33.46875 43.585938 33.519531 L 43.464844 36.820312 C 43.464844 36.859375 43.441406 36.890625 43.40625 36.902344 C 43.390625 36.910156 43.199219 36.976562 42.925781 36.976562 " fill-opacity="1" fill-rule="nonzero"/><path fill="#eb9076" d="M 42.257812 39.261719 C 41.058594 39.261719 39.859375 38.347656 39.804688 38.308594 C 39.765625 38.277344 39.757812 38.222656 39.789062 38.179688 C 39.820312 38.140625 39.875 38.132812 39.917969 38.164062 C 39.929688 38.171875 41.230469 39.15625 42.410156 39.070312 C 42.464844 39.066406 42.507812 39.105469 42.511719 39.152344 C 42.511719 39.207031 42.476562 39.25 42.421875 39.253906 C 42.367188 39.257812 42.3125 39.261719 42.257812 39.261719 " fill-opacity="1" fill-rule="nonzero"/><path fill="#6b364d" d="M 46.253906 32.78125 C 46.292969 32.984375 46.238281 33.21875 45.988281 33.074219 C 45.609375 32.851562 45.234375 32.632812 44.859375 32.414062 C 44.808594 32.382812 44.75 32.347656 44.714844 32.296875 C 44.660156 32.210938 44.679688 32.078125 44.761719 32.015625 C 44.898438 31.910156 45.28125 32.003906 45.425781 32.058594 C 45.679688 32.15625 46.039062 32.375 46.191406 32.609375 C 46.222656 32.65625 46.242188 32.71875 46.253906 32.78125 " fill-opacity="1" fill-rule="nonzero"/><path fill="#59aad0" d="M 47.292969 145.796875 C 47.292969 145.796875 43.203125 143.546875 40.574219 142.972656 C 40.574219 142.972656 37.6875 144.433594 36.960938 145.226562 C 36.960938 145.226562 34.804688 143.703125 32.871094 143.289062 C 32.871094 143.289062 31.574219 144.816406 31.128906 146.71875 L 41.746094 146.71875 L 47.292969 145.796875 " fill-opacity="1" fill-rule="nonzero"/><g clip-path="url(#e0ef31a699)"><path fill="#6376a1" d="M 47.214844 145.417969 L 41.519531 146.269531 C 41.503906 146.273438 41.484375 146.273438 41.46875 146.273438 L 31.15625 146.273438 C 30.964844 146.273438 30.8125 146.429688 30.8125 146.617188 L 30.8125 147.421875 C 30.8125 147.613281 30.964844 147.765625 31.15625 147.765625 L 41.46875 147.765625 C 41.484375 147.765625 41.503906 147.765625 41.519531 147.761719 L 47.464844 146.867188 C 47.660156 146.839844 47.789062 146.65625 47.753906 146.460938 L 47.601562 145.691406 C 47.566406 145.507812 47.394531 145.390625 47.214844 145.417969 " fill-opacity="1" fill-rule="nonzero"/></g><path fill="#eb9076" d="M 29.722656 59.847656 L 26.78125 59.046875 C 26.761719 59.042969 26.734375 59.054688 26.726562 59.082031 C 26.722656 59.105469 26.734375 59.132812 26.761719 59.136719 L 29.695312 59.9375 C 29.730469 59.9375 29.75 59.925781 29.753906 59.90625 C 29.761719 59.878906 29.746094 59.855469 29.722656 59.847656 " fill-opacity="1" fill-rule="nonzero"/><path fill="#eb9076" d="M 51.742188 75.769531 L 48.945312 75.957031 C 48.917969 75.957031 48.898438 75.980469 48.898438 76.003906 C 48.902344 76.03125 48.921875 76.046875 48.949219 76.046875 C 48.949219 76.046875 51.75 75.863281 51.75 75.863281 C 51.773438 75.863281 51.792969 75.839844 51.792969 75.8125 C 51.792969 75.789062 51.769531 75.769531 51.742188 75.769531 " fill-opacity="1" fill-rule="nonzero"/><path fill="#eb9076" d="M 50.125 77.019531 L 47.792969 77.019531 C 47.765625 77.019531 47.746094 77.039062 47.746094 77.066406 C 47.746094 77.09375 47.765625 77.113281 47.792969 77.113281 L 50.125 77.113281 C 50.152344 77.113281 50.171875 77.09375 50.171875 77.066406 C 50.171875 77.039062 50.152344 77.019531 50.125 77.019531 " fill-opacity="1" fill-rule="nonzero"/><path fill="#eb9076" d="M 48.761719 77.875 L 46.960938 77.875 C 46.933594 77.875 46.914062 77.898438 46.914062 77.921875 C 46.914062 77.949219 46.933594 77.96875 46.960938 77.96875 L 48.761719 77.96875 C 48.789062 77.96875 48.808594 77.949219 48.808594 77.921875 C 48.808594 77.898438 48.789062 77.875 48.761719 77.875 " fill-opacity="1" fill-rule="nonzero"/><path fill="#eb9076" d="M 55.039062 74.8125 C 54.484375 74.507812 52.359375 74.582031 50.953125 74.628906 C 50.503906 74.644531 50.148438 74.65625 49.953125 74.652344 C 49.511719 74.640625 48.78125 74.34375 48.296875 73.8125 C 48.007812 73.496094 47.871094 73.15625 47.894531 72.824219 C 47.929688 72.300781 48.171875 72.183594 48.476562 72.039062 C 48.746094 71.910156 49.050781 71.761719 49.273438 71.308594 C 49.851562 70.140625 49.347656 69.480469 49.328125 69.453125 C 49.3125 69.433594 49.28125 69.429688 49.261719 69.445312 C 49.242188 69.460938 49.238281 69.492188 49.253906 69.511719 C 49.261719 69.519531 49.742188 70.15625 49.191406 71.269531 C 48.980469 71.691406 48.691406 71.832031 48.4375 71.953125 C 48.128906 72.101562 47.839844 72.238281 47.800781 72.816406 C 47.773438 73.175781 47.925781 73.542969 48.230469 73.875 C 48.667969 74.359375 49.410156 74.730469 49.953125 74.742188 C 50.148438 74.75 50.503906 74.738281 50.957031 74.722656 C 52.269531 74.679688 54.460938 74.601562 54.992188 74.894531 C 55.03125 74.914062 55.070312 74.941406 55.066406 74.96875 C 55.023438 75.230469 53.257812 75.632812 52.152344 75.828125 C 52.128906 75.832031 52.113281 75.855469 52.117188 75.878906 C 52.121094 75.902344 52.140625 75.921875 52.160156 75.921875 C 52.65625 75.832031 55.089844 75.386719 55.15625 74.988281 C 55.167969 74.917969 55.128906 74.859375 55.039062 74.8125 " fill-opacity="1" fill-rule="nonzero"/><path fill="#3c749d" d="M 38.085938 44.773438 C 38.0625 44.78125 38.046875 44.808594 38.058594 44.832031 C 38.078125 44.894531 40.285156 51.230469 38.707031 57.023438 C 38.699219 57.046875 38.714844 57.074219 38.738281 57.078125 C 38.769531 57.082031 38.789062 57.066406 38.796875 57.046875 C 40.378906 51.226562 38.167969 44.863281 38.144531 44.800781 C 38.132812 44.777344 38.109375 44.765625 38.085938 44.773438 " fill-opacity="1" fill-rule="nonzero"/><path fill="#3c749d" d="M 27.292969 43.421875 C 27.296875 43.441406 27.316406 43.457031 27.339844 43.457031 C 27.371094 43.453125 27.386719 43.429688 27.382812 43.402344 C 26.769531 40.308594 25.144531 39.558594 25.128906 39.550781 C 25.101562 39.539062 25.078125 39.550781 25.066406 39.574219 C 25.054688 39.597656 25.066406 39.625 25.089844 39.636719 C 25.105469 39.640625 26.691406 40.378906 27.292969 43.421875 " fill-opacity="1" fill-rule="nonzero"/><path fill="#3c749d" d="M 21.023438 59.261719 C 21.042969 59.257812 29.726562 55.46875 29.726562 55.46875 C 29.75 55.457031 29.757812 55.4375 29.753906 55.417969 L 28.285156 47.976562 C 28.28125 47.953125 28.253906 47.933594 28.234375 47.941406 C 28.207031 47.945312 28.191406 47.96875 28.195312 47.996094 L 29.65625 55.398438 L 21.042969 59.160156 C 20.8125 58.800781 18.792969 55.453125 19.042969 49.339844 C 19.042969 49.316406 19.023438 49.292969 18.996094 49.292969 C 18.972656 49.292969 18.949219 49.308594 18.949219 49.335938 C 18.6875 55.816406 20.964844 59.210938 20.984375 59.246094 C 20.996094 59.257812 21.007812 59.261719 21.023438 59.261719 " fill-opacity="1" fill-rule="nonzero"/><path fill="#3c749d" d="M 31.378906 80.847656 C 20.132812 83.40625 13.785156 80.246094 13.316406 79.996094 L 14.171875 74.226562 C 14.175781 74.207031 14.160156 74.1875 14.140625 74.179688 C 14.121094 74.171875 14.101562 74.179688 14.085938 74.195312 L 11.03125 78.605469 C 8.707031 77.566406 6.546875 74.230469 6.527344 74.195312 C 6.511719 74.175781 6.484375 74.167969 6.460938 74.183594 C 6.441406 74.195312 6.433594 74.226562 6.449219 74.246094 C 6.46875 74.28125 8.667969 77.671875 11.027344 78.707031 C 11.050781 78.714844 11.070312 78.707031 11.085938 78.6875 L 14.050781 74.410156 L 13.21875 80.015625 C 13.214844 80.035156 13.222656 80.054688 13.242188 80.0625 C 13.257812 80.074219 14.867188 80.960938 17.894531 81.507812 C 19.191406 81.742188 20.882812 81.9375 22.929688 81.9375 C 25.292969 81.9375 28.132812 81.679688 31.402344 80.9375 C 31.425781 80.929688 31.441406 80.90625 31.4375 80.882812 C 31.429688 80.855469 31.40625 80.839844 31.378906 80.847656 " fill-opacity="1" fill-rule="nonzero"/><path fill="#3c749d" d="M 25.636719 82.675781 C 25.652344 82.65625 25.648438 82.625 25.628906 82.609375 C 25.609375 82.59375 25.578125 82.597656 25.5625 82.617188 C 25.542969 82.640625 23.671875 85.035156 22.605469 85.859375 C 22.597656 85.867188 22.589844 85.875 22.589844 85.886719 L 19.648438 99.710938 C 19.640625 99.734375 19.660156 99.757812 19.683594 99.761719 C 19.714844 99.765625 19.734375 99.75 19.738281 99.726562 L 22.675781 85.921875 C 23.75 85.082031 25.617188 82.699219 25.636719 82.675781 " fill-opacity="1" fill-rule="nonzero"/><path fill="#3c749d" d="M 8.898438 73.949219 C 8.929688 73.953125 8.949219 73.9375 8.953125 73.917969 C 10.25 68.808594 17.558594 57.972656 17.632812 57.863281 C 17.648438 57.839844 17.640625 57.8125 17.621094 57.796875 C 17.597656 57.78125 17.570312 57.789062 17.554688 57.808594 C 17.480469 57.917969 10.164062 68.769531 8.863281 73.894531 C 8.859375 73.917969 8.871094 73.945312 8.898438 73.949219 " fill-opacity="1" fill-rule="nonzero"/><path fill="#3c749d" d="M 31.976562 72.644531 C 31.964844 72.65625 31.941406 72.6875 31.90625 72.734375 C 30.71875 74.351562 29.039062 75.542969 27.839844 76.257812 C 24.464844 78.269531 20.117188 79.441406 14.921875 79.734375 C 14.898438 79.734375 14.875 79.757812 14.878906 79.785156 C 14.878906 79.808594 14.902344 79.828125 14.925781 79.828125 C 20.136719 79.53125 24.496094 78.355469 27.890625 76.335938 C 29.09375 75.617188 30.785156 74.417969 31.980469 72.789062 C 32.011719 72.746094 32.03125 72.71875 32.042969 72.710938 C 32.058594 72.691406 32.058594 72.660156 32.039062 72.644531 C 32.019531 72.625 31.992188 72.625 31.976562 72.644531 " fill-opacity="1" fill-rule="nonzero"/><path fill="#3c749d" d="M 46.527344 54.144531 C 46.515625 54.121094 46.488281 54.113281 46.464844 54.125 C 42.453125 56.078125 39.8125 55.148438 39.785156 55.140625 C 39.761719 55.132812 39.734375 55.144531 39.726562 55.167969 C 39.714844 55.191406 39.730469 55.21875 39.753906 55.226562 C 39.765625 55.230469 40.417969 55.460938 41.554688 55.460938 C 42.738281 55.460938 44.441406 55.214844 46.503906 54.207031 C 46.527344 54.195312 46.539062 54.167969 46.527344 54.144531 " fill-opacity="1" fill-rule="nonzero"/><path fill="#3c749d" d="M 6.535156 106.667969 C 6.53125 106.644531 6.507812 106.625 6.480469 106.628906 C 6.457031 106.632812 6.4375 106.65625 6.441406 106.679688 C 6.460938 106.863281 6.960938 111.140625 7.515625 112.15625 C 7.523438 112.171875 7.539062 112.179688 7.554688 112.179688 C 7.597656 112.160156 7.605469 112.132812 7.59375 112.113281 C 7.050781 111.113281 6.539062 106.714844 6.535156 106.667969 " fill-opacity="1" fill-rule="nonzero"/><path fill="#3c749d" d="M 24.371094 107.570312 C 24.355469 107.550781 24.328125 107.546875 24.308594 107.5625 C 24.289062 107.578125 24.28125 107.605469 24.300781 107.628906 C 24.320312 107.65625 26.554688 110.523438 29.6875 112.175781 C 29.726562 112.179688 29.742188 112.171875 29.75 112.15625 C 29.761719 112.132812 29.753906 112.105469 29.730469 112.09375 C 26.613281 110.449219 24.394531 107.601562 24.371094 107.570312 " fill-opacity="1" fill-rule="nonzero"/><path fill="#3c749d" d="M 27.066406 106.339844 C 27.058594 106.316406 27.035156 106.300781 27.011719 106.304688 L 24.082031 107.046875 C 24.054688 107.054688 24.039062 107.078125 24.046875 107.101562 C 24.054688 107.125 24.070312 107.136719 24.09375 107.136719 C 24.101562 107.136719 27.035156 106.394531 27.035156 106.394531 C 27.058594 106.390625 27.074219 106.363281 27.066406 106.339844 " fill-opacity="1" fill-rule="nonzero"/><path fill="#3c749d" d="M 13.257812 116.714844 C 13.234375 116.710938 13.210938 116.726562 13.207031 116.75 L 8.863281 141.179688 C 8.859375 141.203125 8.875 141.230469 8.902344 141.234375 C 8.929688 141.234375 8.949219 141.21875 8.953125 141.195312 L 13.296875 116.769531 C 13.300781 116.742188 13.285156 116.71875 13.257812 116.714844 " fill-opacity="1" fill-rule="nonzero"/><path fill="#3c749d" d="M 22.0625 86.089844 C 22.078125 86.089844 22.097656 86.074219 22.105469 86.054688 C 22.109375 86.027344 22.097656 86 22.070312 85.996094 C 22.035156 85.988281 18.429688 85.074219 15.730469 85.160156 C 15.703125 85.164062 15.683594 85.183594 15.683594 85.210938 C 15.6875 85.234375 15.707031 85.25 15.730469 85.253906 C 18.421875 85.164062 22.011719 86.078125 22.046875 86.085938 C 22.050781 86.085938 22.058594 86.089844 22.0625 86.089844 " fill-opacity="1" fill-rule="nonzero"/><path fill="#3c749d" d="M 25.894531 85.613281 C 25.890625 85.589844 25.867188 85.574219 25.839844 85.578125 L 23.160156 85.996094 C 23.136719 86 23.121094 86.023438 23.125 86.046875 C 23.125 86.070312 23.144531 86.089844 23.167969 86.089844 C 23.175781 86.085938 25.855469 85.667969 25.855469 85.667969 C 25.878906 85.664062 25.898438 85.640625 25.894531 85.613281 " fill-opacity="1" fill-rule="nonzero"/><path fill="#da4a6b" d="M 164.132812 90.214844 C 164.132812 90.90625 163.851562 91.53125 163.402344 91.980469 C 162.953125 92.433594 162.328125 92.710938 161.636719 92.710938 L 41.007812 92.710938 C 39.628906 92.710938 38.511719 91.59375 38.511719 90.214844 C 38.511719 89.523438 38.792969 88.898438 39.242188 88.449219 C 39.691406 87.996094 40.316406 87.714844 41.007812 87.714844 L 161.636719 87.714844 C 163.015625 87.714844 164.132812 88.835938 164.132812 90.214844 " fill-opacity="1" fill-rule="nonzero"/><g clip-path="url(#dbb514129b)"><path fill="#3c7197" d="M 54.285156 92.710938 L 54.285156 147.765625 L 51.746094 147.765625 L 51.746094 92.710938 L 54.285156 92.710938 " fill-opacity="1" fill-rule="nonzero"/></g><g clip-path="url(#14eed2263a)"><path fill="#3c7197" d="M 150.015625 92.710938 L 150.015625 147.765625 L 147.472656 147.765625 L 147.472656 92.710938 L 150.015625 92.710938 " fill-opacity="1" fill-rule="nonzero"/></g><path fill="#3c7197" d="M 159.21875 92.710938 L 159.21875 94.65625 L 42.644531 94.65625 L 42.644531 92.710938 L 159.21875 92.710938 " fill-opacity="1" fill-rule="nonzero"/><path fill="#a83953" d="M 164.132812 90.214844 C 164.132812 90.90625 163.851562 91.53125 163.402344 91.980469 C 162.953125 92.433594 162.328125 92.710938 161.636719 92.710938 L 41.007812 92.710938 C 39.628906 92.710938 38.511719 91.59375 38.511719 90.214844 L 164.132812 90.214844 " fill-opacity="1" fill-rule="nonzero"/><path fill="#77838c" d="M 54.285156 94.65625 L 54.285156 95.941406 L 51.746094 95.941406 L 51.746094 94.65625 L 54.285156 94.65625 " fill-opacity="1" fill-rule="nonzero"/><path fill="#77838c" d="M 150.015625 94.65625 L 150.015625 95.941406 L 147.472656 95.941406 L 147.472656 94.65625 L 150.015625 94.65625 " fill-opacity="1" fill-rule="nonzero"/></svg>