<svg xmlns="http://www.w3.org/2000/svg" xmlns:xlink="http://www.w3.org/1999/xlink" width="260" zoomAndPan="magnify" viewBox="0 0 194.87999 172.499995" height="230" preserveAspectRatio="xMidYMid meet" version="1.0"><defs><clipPath id="75d7a21af4"><path d="M 0.222656 0 L 194.539062 0 L 194.539062 172 L 0.222656 172 Z M 0.222656 0 " clip-rule="nonzero"/></clipPath></defs><g clip-path="url(#75d7a21af4)"><path fill="#ffffff" d="M 0.222656 0 L 194.65625 0 L 194.65625 172 L 0.222656 172 Z M 0.222656 0 " fill-opacity="1" fill-rule="nonzero"/><path fill="#ffffff" d="M 0.222656 0 L 194.65625 0 L 194.65625 172 L 0.222656 172 Z M 0.222656 0 " fill-opacity="1" fill-rule="nonzero"/></g><path fill="#7fa53b" d="M 118.234375 97.804688 C 125.222656 85.511719 120.75 69.785156 108.246094 62.695312 C 95.753906 55.589844 79.960938 59.808594 72.976562 72.101562 C 65.988281 84.398438 70.460938 100.121094 82.964844 107.214844 C 95.453125 114.316406 111.246094 110.097656 118.234375 97.804688 Z M 85.304688 106.539062 C 73.625 99.914062 69.429688 85.242188 75.941406 73.785156 C 82.453125 62.324219 97.191406 58.417969 108.871094 65.046875 C 120.550781 71.6875 124.746094 86.34375 118.234375 97.804688 C 111.722656 109.265625 96.984375 113.179688 85.304688 106.539062 Z M 85.304688 106.539062 " fill-opacity="1" fill-rule="evenodd"/><path fill="#001d58" d="M 71.25 71.117188 C 63.03125 85.578125 68.097656 103.957031 82.558594 112.171875 C 97.019531 120.386719 115.394531 115.324219 123.613281 100.863281 C 131.828125 86.402344 126.761719 68.011719 112.300781 59.808594 C 97.839844 51.59375 79.453125 56.65625 71.25 71.117188 Z M 109.21875 60.992188 C 122.671875 68.625 127.480469 85.554688 119.960938 98.789062 C 112.453125 112.023438 95.441406 116.5625 81.988281 108.917969 C 68.535156 101.28125 63.726562 84.351562 71.25 71.117188 C 78.757812 57.886719 95.753906 53.34375 109.21875 60.992188 Z M 109.21875 60.992188 " fill-opacity="1" fill-rule="evenodd"/><path fill="#7fa53b" d="M 101.050781 81.164062 C 103.367188 85.371094 107.515625 85.023438 110.738281 86.84375 C 112.511719 87.839844 112.695312 89.289062 112.8125 92.902344 C 112.882812 95.300781 112.972656 97.898438 114.179688 99.484375 C 112.441406 92.867188 114.910156 89.472656 113.101562 86.878906 C 110.921875 83.75 106.625 83.851562 103.855469 81.800781 C 99.40625 78.5 103.03125 75.789062 103.472656 71.523438 C 103.949219 66.957031 99.914062 64.628906 95.882812 65.824219 C 94.097656 66.34375 92.960938 67.769531 92.453125 70.203125 C 92.070312 72.058594 92.359375 74.6875 93.726562 78.394531 C 92.789062 74.246094 92.222656 66.980469 97.816406 66.691406 C 99.996094 66.578125 102.152344 67.875 102.152344 70.285156 C 102.164062 73.367188 99.277344 77.445312 101.050781 81.164062 Z M 101.050781 81.164062 " fill-opacity="1" fill-rule="evenodd"/><path fill="#001d58" d="M 98.976562 96.355469 L 100.53125 89.890625 L 98.292969 90.632812 L 99.21875 84.445312 L 95.417969 94.988281 L 97.863281 94.164062 L 96.070312 99.625 L 97.644531 99.089844 L 97.078125 104.699219 L 100.957031 95.695312 Z M 98.976562 96.355469 " fill-opacity="1" fill-rule="evenodd"/><path fill="#7fa53b" d="M 107.957031 92.972656 C 105.710938 97.652344 105.058594 102.761719 104.980469 106.726562 C 105.164062 106.667969 105.339844 106.609375 105.523438 106.539062 C 105.789062 104.027344 106.359375 101.023438 107.46875 97.917969 C 107.667969 98.753906 108.433594 100.167969 109.730469 101.328125 C 107.492188 97.109375 107.957031 92.972656 107.957031 92.972656 Z M 107.957031 92.972656 " fill-opacity="1" fill-rule="evenodd"/><path fill="#7fa53b" d="M 90.667969 106.945312 C 91.0625 102.914062 90.460938 97.839844 88.144531 93.515625 C 88.144531 93.515625 88.269531 98.488281 85.5 102.136719 C 87.550781 100.097656 88.511719 98.488281 88.511719 98.488281 C 88.511719 98.488281 89.925781 101.917969 89.902344 106.714844 C 90.160156 106.796875 90.414062 106.878906 90.667969 106.945312 Z M 90.667969 106.945312 " fill-opacity="1" fill-rule="evenodd"/><path stroke-linecap="butt" transform="matrix(0.179542, 0, 0, 0.179542, 67.312806, 55.873532)" fill-opacity="1" fill="#7fa53b" fill-rule="evenodd" stroke-linejoin="miter" d="M 76.386149 252.255626 C 106.279887 217.662436 82.325734 194.883147 101.493407 169.710618 C 116.005142 150.608216 144.093071 156.02564 148.292119 139.185936 C 137.00038 153.958751 114.09055 147.453491 99.75287 158.288339 C 90.201668 165.511571 86.328971 176.54223 85.74154 191.837206 C 84.914784 212.440823 87.873699 237.874432 76.386149 252.255626 Z M 76.386149 252.255626 " stroke="#f36d21" stroke-width="0.198" stroke-opacity="1" stroke-miterlimit="10"/></svg>