<svg xmlns="http://www.w3.org/2000/svg" xmlns:xlink="http://www.w3.org/1999/xlink" width="260" zoomAndPan="magnify" viewBox="0 0 194.87999 172.499995" height="230" preserveAspectRatio="xMidYMid meet" version="1.0"><defs><clipPath id="f036daceee"><path d="M 0.222656 0 L 194.539062 0 L 194.539062 172 L 0.222656 172 Z M 0.222656 0 " clip-rule="nonzero"/></clipPath><clipPath id="c0db91c2a0"><path d="M 168 25.605469 L 182 25.605469 L 182 44 L 168 44 Z M 168 25.605469 " clip-rule="nonzero"/></clipPath><clipPath id="0a121520d8"><path d="M 0.222656 139 L 194.539062 139 L 194.539062 146.753906 L 0.222656 146.753906 Z M 0.222656 139 " clip-rule="nonzero"/></clipPath></defs><g clip-path="url(#f036daceee)"><path fill="#ffffff" d="M 0.222656 0 L 194.65625 0 L 194.65625 172 L 0.222656 172 Z M 0.222656 0 " fill-opacity="1" fill-rule="nonzero"/><path fill="#ffffff" d="M 0.222656 0 L 194.65625 0 L 194.65625 172 L 0.222656 172 Z M 0.222656 0 " fill-opacity="1" fill-rule="nonzero"/></g><path fill="#e9ead2" d="M 144.1875 45.996094 C 146.570312 42.238281 158.203125 42.179688 161.085938 43.355469 L 157.351562 55.28125 C 157.351562 55.28125 141.804688 49.75 144.1875 45.996094 " fill-opacity="1" fill-rule="nonzero"/><path fill="#5c3d43" d="M 142.765625 32.890625 C 145.015625 31.734375 149.730469 33.089844 149.730469 33.089844 C 149.730469 33.089844 150.300781 32.980469 150.589844 33.09375 C 150.878906 33.207031 153.402344 35.480469 152.707031 43.09375 L 143.550781 40.152344 C 142.339844 38.824219 142.273438 36.660156 142.273438 36.660156 C 140.863281 36.023438 140.519531 34.050781 142.765625 32.890625 " fill-opacity="1" fill-rule="nonzero"/><path fill="#4a3035" d="M 145.164062 34.230469 C 149.253906 32.75 150.140625 34.726562 150.0625 33.4375 C 150.054688 33.308594 150.007812 33.183594 149.941406 33.0625 C 150.132812 33.039062 150.414062 33.023438 150.589844 33.09375 C 150.878906 33.207031 153.402344 35.480469 152.707031 43.09375 L 143.550781 40.152344 C 142.339844 38.824219 142.273438 36.660156 142.273438 36.660156 C 142.007812 36.542969 141.785156 36.375 141.605469 36.179688 C 142.292969 36.222656 144.4375 34.492188 145.164062 34.230469 " fill-opacity="1" fill-rule="nonzero"/><path fill="#594c44" d="M 141.132812 77.160156 C 140.089844 94.007812 152.199219 138.3125 152.199219 138.3125 L 152.855469 138.3125 L 155.933594 76.453125 L 141.132812 77.160156 " fill-opacity="1" fill-rule="nonzero"/><path fill="#75655c" d="M 145.316406 76.960938 L 146.027344 89.441406 L 149.199219 91.5 C 149.199219 91.5 153.75 138.636719 153.039062 138.3125 L 153.695312 138.3125 C 159.726562 118.070312 162.746094 97.464844 164.320312 76.472656 L 145.316406 76.960938 " fill-opacity="1" fill-rule="nonzero"/><path fill="#594c44" d="M 164.320312 76.472656 C 163.035156 93.59375 160.789062 110.460938 156.734375 127.082031 C 156.066406 122.777344 154.46875 119.742188 152.605469 119.742188 C 152.335938 119.742188 152.074219 119.8125 151.820312 119.933594 C 150.675781 106.820312 149.199219 91.5 149.199219 91.5 L 146.027344 89.441406 L 145.316406 76.960938 L 164.320312 76.472656 " fill-opacity="1" fill-rule="nonzero"/><path fill="#e9ead2" d="M 153.125 139.5 L 147.207031 139.5 C 147.207031 139.5 150.542969 136.507812 151.535156 136.222656 C 152.527344 135.9375 153.125 139.5 153.125 139.5 " fill-opacity="1" fill-rule="nonzero"/><path fill="#e9ead2" d="M 156.828125 139.5 L 152.0625 139.5 C 152.0625 139.5 153.292969 136.507812 153.953125 136.222656 C 154.613281 135.9375 156.828125 139.5 156.828125 139.5 " fill-opacity="1" fill-rule="nonzero"/><path fill="#e9ead2" d="M 143.957031 46.859375 C 147.332031 46.089844 145.730469 61.6875 145.917969 63.894531 C 146.105469 66.101562 139.613281 72.085938 137.859375 71.429688 C 136.105469 70.773438 137.886719 59.445312 138.695312 55.25 C 139.296875 52.140625 140.820312 47.574219 143.957031 46.859375 " fill-opacity="1" fill-rule="nonzero"/><path fill="#d5cbb1" d="M 141.132812 70.847656 C 139.363281 70.214844 140.867188 59.289062 141.578125 55.242188 C 141.964844 53.023438 142.839844 50.039062 144.53125 48.355469 C 144.644531 48.320312 144.757812 48.277344 144.875 48.25 C 148.230469 47.507812 147.011719 62.554688 147.25 64.683594 C 147.402344 66.027344 144.921875 68.832031 142.628906 70.550781 C 142.007812 70.847656 141.480469 70.972656 141.132812 70.847656 " fill-opacity="1" fill-rule="nonzero"/><path fill="#e9ead2" d="M 142.144531 74.007812 L 142.222656 72.269531 C 140.582031 57.996094 141.566406 48.699219 142.421875 47.707031 C 143.28125 46.710938 146.625 43.847656 146.625 43.847656 C 146.925781 47.277344 148.609375 55.910156 149.773438 61.652344 C 151.816406 55.867188 154.769531 47.132812 155.277344 43.699219 C 155.277344 43.699219 160.1875 42.945312 161.632812 43.9375 C 163.078125 44.929688 167.078125 58.167969 164.316406 72.4375 L 164.449219 74.175781 C 164.449219 74.175781 167.789062 87.253906 162.527344 118.28125 L 153.320312 118.527344 L 150.5 84.652344 L 148.398438 118.527344 L 142.183594 118.28125 C 139.0625 87.253906 142.144531 74.007812 142.144531 74.007812 " fill-opacity="1" fill-rule="nonzero"/><path fill="#d5cbb1" d="M 142.144531 74.007812 L 142.222656 72.269531 C 141.570312 66.605469 141.332031 61.722656 141.335938 57.835938 C 142.234375 64.925781 143.304688 65.535156 148.039062 66.121094 C 152.773438 66.703125 158.53125 60.449219 159.4375 51.054688 C 159.699219 48.355469 159.625 45.769531 159.285156 43.433594 C 160.246094 43.46875 161.140625 43.601562 161.632812 43.9375 C 163.078125 44.929688 167.078125 58.167969 164.316406 72.4375 L 164.449219 74.175781 C 164.449219 74.175781 167.789062 87.253906 162.527344 118.28125 L 159.722656 118.355469 C 160.183594 115.007812 160.441406 111.363281 160.441406 107.546875 C 160.441406 91.140625 155.855469 76.347656 150.046875 76.347656 C 146.132812 76.347656 142.597656 83.878906 140.789062 92.835938 C 140.789062 79.847656 142.144531 74.007812 142.144531 74.007812 " fill-opacity="1" fill-rule="nonzero"/><path fill="#dfdfb8" d="M 143.605469 47.164062 C 143.5625 46.96875 143.558594 46.765625 143.574219 46.558594 C 143.769531 46.378906 143.976562 46.1875 144.1875 45.996094 C 144.539062 45.441406 145.097656 44.96875 145.796875 44.566406 C 146.285156 44.136719 146.625 43.847656 146.625 43.847656 C 146.632812 43.933594 146.644531 44.042969 146.652344 44.136719 C 150.507812 42.464844 157.183594 42.410156 160.1875 43.089844 C 161.308594 43.039062 162.261719 44.296875 163.003906 46.078125 C 161.214844 47.363281 158.585938 48.511719 155.546875 49.207031 C 149.519531 50.585938 144.175781 49.671875 143.605469 47.164062 " fill-opacity="1" fill-rule="nonzero"/><path fill="#a63684" d="M 155.675781 44.832031 C 153.320312 40.457031 146.683594 43.117188 146.125 45.320312 L 149.800781 63.824219 L 155.675781 44.832031 " fill-opacity="1" fill-rule="nonzero"/><path fill="#7f2a65" d="M 155.675781 44.832031 L 154.035156 50.140625 C 152.980469 50.316406 151.847656 50.417969 150.667969 50.417969 C 149.402344 50.417969 148.195312 50.300781 147.074219 50.101562 L 146.125 45.320312 C 146.683594 43.117188 153.320312 40.457031 155.675781 44.832031 " fill-opacity="1" fill-rule="nonzero"/><path fill="#7f2a65" d="M 146.710938 44.371094 L 150.097656 61.4375 L 155.382812 44.355469 C 155.484375 44.503906 155.585938 44.660156 155.675781 44.832031 L 149.800781 63.824219 L 146.125 45.320312 C 146.207031 45.007812 146.414062 44.683594 146.710938 44.371094 " fill-opacity="1" fill-rule="nonzero"/><path fill="#d2634c" d="M 155.1875 44.089844 C 153.199219 41.113281 151.117188 39.03125 151.117188 39.03125 L 146.472656 39.734375 L 147.332031 46.636719 C 147.332031 46.636719 149.007812 48.160156 151.09375 48.007812 C 152.984375 47.875 154.839844 45.308594 155.1875 44.089844 " fill-opacity="1" fill-rule="nonzero"/><path fill="#ebb171" d="M 152.671875 45.964844 C 152.957031 44.34375 150.554688 36.191406 149.886719 35.382812 C 149.214844 34.578125 145.765625 33.875 144.710938 34.347656 C 143.65625 34.820312 142.957031 36.09375 142.746094 36.941406 C 142.539062 37.789062 145.109375 47.074219 146.257812 48.113281 C 147.40625 49.15625 152.390625 47.582031 152.671875 45.964844 " fill-opacity="1" fill-rule="nonzero"/><path fill="#4a3035" d="M 149.1875 33.875 C 147.648438 33.417969 150.195312 41.191406 150.195312 41.191406 L 152.003906 40.59375 C 152.003906 40.59375 152.28125 34.792969 149.1875 33.875 " fill-opacity="1" fill-rule="nonzero"/><path fill="#ebb171" d="M 151.714844 42.300781 C 153.464844 41.074219 153.832031 38.742188 153.125 38.015625 C 152.417969 37.292969 151.109375 38.023438 150.96875 39.332031 C 150.761719 41.230469 151.714844 42.300781 151.714844 42.300781 " fill-opacity="1" fill-rule="nonzero"/><path fill="#d2634c" d="M 151.734375 41.289062 C 152.90625 40.628906 153.28125 39.195312 152.886719 38.695312 C 152.488281 38.199219 151.625 38.574219 151.453125 39.382812 C 151.203125 40.558594 151.734375 41.289062 151.734375 41.289062 " fill-opacity="1" fill-rule="nonzero"/><path fill="#ebb171" d="M 151.71875 41.359375 C 152.453125 40.949219 152.6875 40.050781 152.4375 39.738281 C 152.191406 39.429688 151.652344 39.664062 151.542969 40.167969 C 151.390625 40.902344 151.71875 41.359375 151.71875 41.359375 " fill-opacity="1" fill-rule="nonzero"/><path fill="#e78f57" d="M 152.78125 49.289062 C 152.132812 47.496094 154.667969 45.199219 153.285156 42.867188 C 152.902344 42.21875 149.621094 43.355469 149.488281 44.585938 C 149.230469 47.046875 148.203125 47.519531 147.621094 48.375 C 147.035156 49.226562 148.308594 50.527344 148.472656 50.597656 C 149.535156 51.046875 152.78125 49.289062 152.78125 49.289062 " fill-opacity="1" fill-rule="nonzero"/><path fill="#e78f57" d="M 147.601562 49.5625 L 149.78125 54.164062 L 154.183594 50.902344 L 152.542969 48.957031 L 147.601562 49.5625 " fill-opacity="1" fill-rule="nonzero"/><path fill="#e9ead2" d="M 157.28125 48.742188 C 156.636719 53.136719 156.726562 58.714844 156.410156 60.03125 C 155.910156 62.132812 158.03125 68.601562 160.023438 68.414062 C 162.015625 68.230469 164.011719 59.523438 164.660156 56.488281 C 165.117188 54.335938 164.761719 47.691406 162.03125 46.414062 C 160.914062 45.890625 159.15625 47.503906 157.28125 48.742188 " fill-opacity="1" fill-rule="nonzero"/><path fill="#e0d9c0" d="M 157.246094 62.492188 C 159.238281 62.308594 163.816406 51.863281 161.679688 43.808594 C 164.191406 46.296875 165.847656 54.601562 165.335938 56.988281 C 164.691406 60.023438 162.015625 68.230469 160.023438 68.414062 C 158.53125 68.554688 156.964844 64.960938 156.484375 62.265625 C 156.738281 62.433594 156.992188 62.515625 157.246094 62.492188 " fill-opacity="1" fill-rule="nonzero"/><path fill="#a63684" d="M 148.183594 52.234375 L 147.765625 50.902344 C 147.679688 50.632812 147.765625 50.386719 147.976562 50.3125 L 152.667969 48.636719 C 152.960938 48.527344 153.363281 48.796875 153.484375 49.179688 L 153.902344 50.507812 C 153.988281 50.78125 153.902344 51.023438 153.691406 51.101562 L 149 52.777344 C 148.703125 52.882812 148.304688 52.617188 148.183594 52.234375 " fill-opacity="1" fill-rule="nonzero"/><path fill="#e9ead2" d="M 154.382812 49.042969 C 154.382812 49.042969 160.054688 60.351562 160.683594 61.492188 C 161.308594 62.628906 161.878906 67.867188 159.472656 68.933594 C 157.0625 69.996094 154.265625 68.210938 153.019531 66.460938 C 151.773438 64.714844 147.417969 51.585938 147.417969 51.585938 L 154.382812 49.042969 " fill-opacity="1" fill-rule="nonzero"/><path fill="#e0d9c0" d="M 155.445312 65.113281 C 157.851562 64.046875 154.179688 53.105469 152.484375 49.734375 L 154.382812 49.042969 C 154.382812 49.042969 160.054688 60.351562 160.683594 61.492188 C 161.308594 62.628906 161.878906 67.867188 159.472656 68.933594 C 157.0625 69.996094 154.265625 68.210938 153.019531 66.460938 C 152.90625 66.296875 152.757812 66.03125 152.59375 65.683594 C 153.558594 65.988281 154.476562 65.539062 155.445312 65.113281 " fill-opacity="1" fill-rule="nonzero"/><path fill="#e78f57" d="M 158.105469 61.132812 C 158.164062 60.9375 159.328125 60.839844 159.445312 61.132812 C 159.566406 61.425781 159.082031 63.984375 158.480469 64.863281 C 157.402344 65.886719 156.351562 66.671875 155.402344 66.511719 C 156.386719 63.824219 157.417969 63.4375 158.105469 61.132812 " fill-opacity="1" fill-rule="nonzero"/><path fill="#e78f57" d="M 158.546875 70.152344 C 161.148438 69.058594 161.90625 67.789062 162.226562 67.050781 C 162.757812 65.820312 161.417969 62.414062 160.390625 62.902344 C 159.363281 63.390625 158.960938 65.714844 155.515625 65.945312 C 153.992188 66.046875 151.617188 66.242188 154.960938 69.839844 C 155.800781 70.746094 158.546875 70.152344 158.546875 70.152344 " fill-opacity="1" fill-rule="nonzero"/><path fill="#a63684" d="M 153.9375 65.4375 L 155.195312 65.359375 C 155.453125 65.34375 155.683594 65.492188 155.757812 65.71875 L 157.414062 70.78125 C 157.515625 71.101562 157.269531 71.429688 156.90625 71.453125 L 155.652344 71.53125 C 155.394531 71.550781 155.164062 71.402344 155.089844 71.175781 L 153.433594 66.109375 C 153.332031 65.792969 153.578125 65.460938 153.9375 65.4375 " fill-opacity="1" fill-rule="nonzero"/><path fill="#e9ead2" d="M 141.65625 65.300781 C 143.523438 64.90625 154.4375 64.734375 154.4375 64.734375 L 156.5 72.300781 C 156.5 72.300781 145.183594 72.941406 144.027344 73.050781 C 142.871094 73.160156 137.65625 72.765625 137.515625 70.445312 C 137.375 68.125 139.789062 65.699219 141.65625 65.300781 " fill-opacity="1" fill-rule="nonzero"/><path fill="#e0d9c0" d="M 144.429688 69.703125 C 145.304688 69.617188 152.179688 68.402344 155.386719 68.21875 L 156.5 72.300781 C 156.5 72.300781 145.183594 72.941406 144.027344 73.050781 C 142.871094 73.160156 137.535156 72.769531 137.398438 70.449219 C 137.332031 69.375 143.488281 69.792969 144.429688 69.703125 " fill-opacity="1" fill-rule="nonzero"/><path fill="#d2d3b0" d="M 151.113281 73.808594 L 150.242188 88.785156 L 149.777344 74.355469 L 151.113281 73.808594 " fill-opacity="1" fill-rule="nonzero"/><path fill="#dfdfb8" d="M 162.972656 75.550781 L 156.472656 76.246094 L 156.96875 79.976562 C 156.96875 79.976562 162.578125 79.183594 162.925781 78.933594 C 163.269531 78.683594 162.972656 75.550781 162.972656 75.550781 " fill-opacity="1" fill-rule="nonzero"/><path fill="#534143" d="M 146.929688 40.328125 C 146.777344 39.78125 146.902344 39.246094 147.214844 39.132812 C 147.527344 39.023438 147.90625 39.378906 148.058594 39.929688 C 148.210938 40.480469 148.085938 41.015625 147.773438 41.125 C 147.460938 41.234375 147.085938 40.878906 146.929688 40.328125 " fill-opacity="1" fill-rule="nonzero"/><path fill="#5c3d43" d="M 146.285156 37.03125 L 148.425781 37.015625 C 148.605469 37.015625 148.753906 37.164062 148.757812 37.347656 L 148.773438 38.046875 C 148.777344 38.230469 148.632812 38.382812 148.453125 38.382812 L 146.3125 38.398438 C 146.128906 38.402344 145.984375 38.253906 145.976562 38.066406 L 145.964844 37.371094 C 145.960938 37.183594 146.105469 37.03125 146.285156 37.03125 " fill-opacity="1" fill-rule="nonzero"/><path fill="#534143" d="M 144.164062 41.035156 C 144.050781 40.476562 144.214844 39.953125 144.535156 39.863281 C 144.851562 39.777344 145.203125 40.164062 145.316406 40.722656 C 145.429688 41.285156 145.265625 41.808594 144.945312 41.894531 C 144.628906 41.980469 144.277344 41.597656 144.164062 41.035156 " fill-opacity="1" fill-rule="nonzero"/><path fill="#5c3d43" d="M 142.445312 38.628906 L 143.972656 37.652344 C 144.097656 37.570312 144.269531 37.621094 144.351562 37.761719 L 144.65625 38.300781 C 144.738281 38.445312 144.699219 38.628906 144.574219 38.710938 L 143.046875 39.6875 C 142.917969 39.769531 142.75 39.71875 142.667969 39.578125 L 142.359375 39.039062 C 142.28125 38.894531 142.316406 38.710938 142.445312 38.628906 " fill-opacity="1" fill-rule="nonzero"/><path fill="#d2634c" d="M 146.039062 40.878906 C 146 42.324219 146.132812 43.171875 146.707031 43.230469 C 147.0625 43.269531 147.460938 43.019531 147.757812 42.777344 L 147.773438 42.796875 C 147.773438 42.796875 146.9375 43.734375 146.328125 43.710938 C 145.726562 43.691406 145.765625 42.652344 146.039062 40.878906 " fill-opacity="1" fill-rule="nonzero"/><path fill="#d2634c" d="M 149.195312 42.839844 L 149.609375 43.1875 C 149.585938 43.242188 149.007812 44.589844 147.160156 45.257812 L 147.105469 45.007812 C 148.800781 44.398438 149.191406 42.855469 149.195312 42.839844 " fill-opacity="1" fill-rule="nonzero"/><path fill="#d2634c" d="M 148.507812 45.738281 C 148.621094 45.851562 148.925781 45.71875 149.191406 45.445312 C 149.457031 45.175781 149.582031 44.863281 149.46875 44.75 C 149.359375 44.640625 149.050781 44.773438 148.785156 45.046875 C 148.523438 45.316406 148.398438 45.628906 148.507812 45.738281 " fill-opacity="1" fill-rule="nonzero"/><path fill="#e78f57" d="M 148.984375 41.296875 C 148.984375 41.113281 149.9375 40.554688 150.175781 40.738281 C 150.414062 40.925781 151.15625 43.183594 151.023438 44.136719 C 150.53125 45.40625 149.957031 46.476562 149.039062 46.738281 C 150.128906 43.824219 148.984375 41.484375 148.984375 41.296875 " fill-opacity="1" fill-rule="nonzero"/><path fill="#e78f57" d="M 161.109375 60.5625 C 161.214844 60.40625 162.3125 60.472656 162.410156 60.761719 C 162.503906 61.046875 161.875 63.335938 161.234375 64.058594 C 160.125 64.839844 159.054688 65.40625 158.144531 65.117188 C 160.664062 63.300781 161.007812 60.714844 161.109375 60.5625 " fill-opacity="1" fill-rule="nonzero"/><path fill="#e78f57" d="M 161.535156 61.96875 C 161.636719 61.8125 162.738281 61.878906 162.832031 62.167969 C 162.925781 62.453125 162.296875 64.742188 161.65625 65.464844 C 160.546875 66.246094 159.476562 66.816406 158.566406 66.523438 C 161.085938 64.707031 161.429688 62.121094 161.535156 61.96875 " fill-opacity="1" fill-rule="nonzero"/><path fill="#e78f57" d="M 161.691406 63.332031 C 161.773438 63.164062 162.871094 63.085938 163.003906 63.359375 C 163.136719 63.628906 162.8125 65.984375 162.273438 66.78125 C 161.277344 67.703125 160.289062 68.410156 159.351562 68.242188 C 161.609375 66.105469 161.609375 63.5 161.691406 63.332031 " fill-opacity="1" fill-rule="nonzero"/><path fill="#e78f57" d="M 150.574219 40.714844 C 150.574219 40.527344 151.527344 39.972656 151.765625 40.15625 C 152.003906 40.34375 152.742188 42.597656 152.613281 43.554688 C 152.121094 44.824219 151.542969 45.890625 150.628906 46.15625 C 151.71875 43.242188 150.574219 40.898438 150.574219 40.714844 " fill-opacity="1" fill-rule="nonzero"/><path fill="#e78f57" d="M 151.660156 41.570312 C 151.652344 41.382812 152.578125 40.875 152.824219 41.070312 C 153.070312 41.265625 153.921875 43.53125 153.835938 44.46875 C 153.40625 45.707031 152.878906 46.738281 151.976562 46.957031 C 152.925781 44.121094 151.671875 41.753906 151.660156 41.570312 " fill-opacity="1" fill-rule="nonzero"/><path fill="#ebb171" d="M 160.109375 55.871094 C 159.082031 56.945312 158.355469 59.34375 161.136719 62.375 L 163.71875 55.527344 C 162.941406 55.039062 161.332031 54.597656 160.109375 55.871094 " fill-opacity="1" fill-rule="nonzero"/><path fill="#e0d9c0" d="M 173.765625 44.84375 C 167.410156 48.3125 160.230469 59.488281 160.609375 63.449219 C 161.246094 70.210938 166.9375 68.175781 167.578125 67.460938 C 168.21875 66.742188 173.765625 44.84375 173.765625 44.84375 " fill-opacity="1" fill-rule="nonzero"/><path fill="#942951" d="M 166.910156 71.785156 C 165.191406 94.859375 176.835938 138.929688 176.835938 138.929688 L 177.421875 138.929688 C 177.421875 138.929688 180.585938 78.378906 180.550781 74.714844 C 180.515625 71.054688 166.910156 71.785156 166.910156 71.785156 " fill-opacity="1" fill-rule="nonzero"/><path fill="#7b2549" d="M 177.992188 127.964844 C 178.898438 110.335938 180.578125 77.386719 180.550781 74.714844 C 180.515625 71.054688 166.910156 71.785156 166.910156 71.785156 C 165.933594 84.902344 169.273438 104.796875 172.339844 119.53125 C 174.386719 120.929688 176.503906 124.015625 177.992188 127.964844 " fill-opacity="1" fill-rule="nonzero"/><path fill="#942951" d="M 171.035156 71.785156 C 170.960938 94.859375 185.746094 138.929688 185.746094 138.929688 L 186.332031 138.929688 C 186.332031 138.929688 185.179688 78.378906 184.882812 74.714844 C 184.589844 71.050781 171.035156 71.785156 171.035156 71.785156 " fill-opacity="1" fill-rule="nonzero"/><path fill="#7b2549" d="M 186.058594 124.910156 C 185.699219 106.789062 185.089844 77.238281 184.882812 74.714844 C 184.585938 71.054688 171.035156 71.785156 171.035156 71.785156 C 170.992188 84.957031 175.789062 104.964844 179.914062 119.714844 C 181.964844 120.199219 184.195312 122.101562 186.058594 124.910156 " fill-opacity="1" fill-rule="nonzero"/><path fill="#e9ead2" d="M 164.28125 111.066406 C 175.691406 116.785156 189.203125 117.722656 189.203125 117.722656 C 188.472656 98.347656 187.902344 80.277344 184.835938 70.765625 C 184.835938 70.765625 186.648438 52.582031 185.472656 49.148438 C 184.144531 45.269531 180.027344 43.214844 178.335938 43.214844 C 176.640625 43.214844 170.921875 44.347656 167.132812 52.894531 C 165.726562 56.066406 165.902344 62.398438 165.605469 72.925781 C 165.101562 90.757812 164.28125 111.066406 164.28125 111.066406 " fill-opacity="1" fill-rule="nonzero"/><path fill="#d5cbb1" d="M 178.335938 43.214844 C 177.160156 43.214844 174.050781 43.761719 170.988281 46.949219 C 172.679688 47.570312 175.597656 47.71875 178.839844 47.226562 C 180.605469 46.960938 182.21875 46.542969 183.558594 46.042969 C 181.800781 44.183594 179.496094 43.214844 178.335938 43.214844 " fill-opacity="1" fill-rule="nonzero"/><path fill="#d5cbb1" d="M 170.9375 57.628906 L 170.179688 56.6875 C 166.355469 66.335938 169.007812 113.140625 169.007812 113.140625 L 169.550781 113.347656 C 169.550781 113.347656 167.132812 68.195312 170.9375 57.628906 " fill-opacity="1" fill-rule="nonzero"/><path fill="#d5cbb1" d="M 183.007812 83.898438 L 176.421875 83.382812 L 176.421875 87.34375 L 183.007812 87.859375 L 183.007812 83.898438 " fill-opacity="1" fill-rule="nonzero"/><path fill="#d5cbb1" d="M 189.203125 117.722656 C 188.472656 98.347656 187.902344 80.277344 184.835938 70.765625 C 184.835938 70.765625 186.648438 52.582031 185.472656 49.148438 C 184.632812 46.699219 182.683594 44.980469 180.933594 44.042969 C 181.011719 46.65625 179.988281 49.058594 178.089844 52.679688 C 174.679688 59.167969 171.640625 64.636719 168.621094 63.417969 C 166.820312 62.691406 166.019531 60.066406 166.242188 56.628906 C 165.867188 59.640625 165.820312 63.832031 165.695312 69.417969 C 166.8125 68.144531 168.058594 67.398438 169.40625 67.289062 C 176.210938 66.734375 183.035156 82.425781 184.648438 102.335938 C 185.074219 107.601562 185.089844 112.625 184.761719 117.191406 C 187.484375 117.601562 189.203125 117.722656 189.203125 117.722656 " fill-opacity="1" fill-rule="nonzero"/><path fill="#a93761" d="M 169.664062 64.867188 C 169.15625 55.292969 172.496094 46.476562 174.199219 44.839844 L 176.820312 44.042969 L 180.148438 44.28125 C 175.027344 50.636719 170.988281 57.328125 169.664062 64.867188 " fill-opacity="1" fill-rule="nonzero"/><path fill="#8e254c" d="M 176.820312 44.042969 L 174.199219 44.839844 C 173.699219 45.320312 173.058594 46.425781 172.414062 47.984375 C 173.863281 48.121094 175.550781 48.113281 177.363281 47.941406 C 178.246094 46.707031 179.175781 45.488281 180.148438 44.28125 L 176.820312 44.042969 " fill-opacity="1" fill-rule="nonzero"/><path fill="#8e254c" d="M 174.78125 45.246094 L 177.40625 44.445312 C 177.40625 44.445312 180.054688 44.398438 180.148438 44.28125 L 176.820312 44.042969 L 174.199219 44.839844 C 172.496094 46.476562 169.15625 55.292969 169.664062 64.867188 C 169.808594 64.027344 169.996094 63.203125 170.207031 62.382812 C 170.40625 53.980469 173.253906 46.714844 174.78125 45.246094 " fill-opacity="1" fill-rule="nonzero"/><path fill="#efdeb5" d="M 177.996094 139.5 L 171.136719 139.5 C 171.136719 139.5 175.886719 136.976562 176.988281 136.898438 C 178.09375 136.820312 177.996094 139.5 177.996094 139.5 " fill-opacity="1" fill-rule="nonzero"/><path fill="#efdeb5" d="M 182.480469 139.5 L 187.742188 139.5 C 187.742188 139.5 186.6875 136.976562 186.011719 136.898438 C 185.332031 136.820312 182.480469 139.5 182.480469 139.5 " fill-opacity="1" fill-rule="nonzero"/><g clip-path="url(#c0db91c2a0)"><path fill="#8b3225" d="M 181.933594 35.035156 C 181.960938 34.488281 181.984375 33.925781 181.839844 33.429688 C 181.699219 32.933594 181.351562 32.507812 180.878906 32.464844 C 180.882812 31.472656 180.882812 30.484375 180.886719 29.492188 C 180.890625 28.789062 180.71875 27.886719 180.089844 27.929688 C 179.980469 27.9375 179.863281 27.976562 179.757812 27.949219 C 179.550781 27.894531 179.496094 27.617188 179.414062 27.394531 C 179.132812 26.621094 178.117188 26.417969 177.453125 27.003906 C 176.679688 26.125 175.574219 25.601562 174.386719 25.679688 C 173.203125 25.757812 171.957031 26.472656 171.195312 27.617188 C 171.078125 27.792969 170.96875 27.976562 170.820312 28.109375 C 170.558594 28.335938 170.226562 28.363281 169.921875 28.476562 C 168.925781 28.851562 168.324219 30.246094 168.484375 31.339844 C 168.644531 32.429688 169.386719 33.226562 170.226562 33.722656 C 170.53125 33.902344 170.9375 34.042969 171.257812 33.78125 L 175.414062 43.089844 C 177.769531 42.648438 180.359375 41.195312 181.355469 38.648438 C 181.8125 37.484375 181.875 36.242188 181.933594 35.035156 " fill-opacity="1" fill-rule="nonzero"/></g><path fill="#712820" d="M 181.839844 33.429688 C 181.699219 32.933594 181.351562 32.507812 180.878906 32.464844 C 180.882812 31.472656 180.882812 30.484375 180.886719 29.492188 C 180.890625 28.789062 180.71875 27.886719 180.089844 27.929688 C 179.980469 27.9375 179.863281 27.976562 179.757812 27.949219 C 179.550781 27.894531 179.496094 27.617188 179.414062 27.394531 C 179.335938 27.183594 179.199219 27.015625 179.03125 26.894531 C 178.664062 28.414062 175.328125 28.703125 174.777344 29.144531 C 174.003906 29.761719 175.351562 32.835938 174.910156 33.160156 C 173.949219 33.863281 172.953125 34.582031 171.785156 34.957031 L 175.414062 43.089844 C 177.769531 42.648438 180.359375 41.195312 181.355469 38.648438 C 181.8125 37.484375 181.875 36.242188 181.933594 35.035156 C 181.960938 34.488281 181.984375 33.925781 181.839844 33.429688 " fill-opacity="1" fill-rule="nonzero"/><path fill="#d2634c" d="M 174.582031 47.398438 L 174.1875 40.535156 L 178.453125 37.3125 L 180.148438 44.28125 C 178.980469 45.957031 176.851562 46.742188 174.582031 47.398438 " fill-opacity="1" fill-rule="nonzero"/><path fill="#ebb171" d="M 171.351562 44.671875 C 170.570312 42.132812 170.117188 32.710938 170.507812 32.042969 C 171.273438 30.738281 176.207031 29.792969 177.128906 30.425781 C 178.054688 31.058594 178.179688 40.277344 177.9375 41.320312 C 177.691406 42.367188 173.269531 44.574219 171.351562 44.671875 " fill-opacity="1" fill-rule="nonzero"/><path fill="#712820" d="M 175.824219 29.125 C 175.675781 28.878906 175.324219 28.929688 175.15625 29.148438 C 174.996094 29.363281 174.964844 29.667969 174.949219 29.953125 C 174.78125 32.773438 175.035156 35.359375 175.640625 37.628906 C 176.8125 37.601562 178.019531 37.9375 179.011719 38.570312 C 179.5625 33.664062 179.566406 28.59375 175.824219 29.125 " fill-opacity="1" fill-rule="nonzero"/><path fill="#ebb171" d="M 179.289062 37.277344 C 179.667969 36.105469 179.417969 34.972656 178.730469 34.75 C 178.046875 34.523438 177.183594 35.292969 176.804688 36.460938 C 176.425781 37.632812 176.675781 38.765625 177.359375 38.988281 C 178.046875 39.214844 178.910156 38.445312 179.289062 37.277344 " fill-opacity="1" fill-rule="nonzero"/><path fill="#d2634c" d="M 178.878906 37.1875 C 179.109375 36.472656 178.957031 35.78125 178.539062 35.644531 C 178.121094 35.507812 177.589844 35.976562 177.359375 36.691406 C 177.128906 37.40625 177.28125 38.097656 177.703125 38.234375 C 178.121094 38.371094 178.648438 37.902344 178.878906 37.1875 " fill-opacity="1" fill-rule="nonzero"/><path fill="#ebb171" d="M 178.207031 37.992188 C 178.335938 37.59375 178.210938 37.199219 177.925781 37.109375 C 177.640625 37.015625 177.300781 37.265625 177.171875 37.664062 C 177.042969 38.0625 177.171875 38.457031 177.457031 38.546875 C 177.742188 38.636719 178.082031 38.386719 178.207031 37.992188 " fill-opacity="1" fill-rule="nonzero"/><path fill="#d5cbb1" d="M 171.667969 54.816406 C 167.789062 56.375 161.667969 59.917969 161.003906 60.816406 C 159.800781 62.453125 160.113281 69.476562 165.472656 68.554688 C 167.210938 68.257812 174.910156 60.636719 174.910156 60.636719 L 171.667969 54.816406 " fill-opacity="1" fill-rule="nonzero"/><path fill="#e9ead2" d="M 160.769531 60.996094 C 161.125 57.257812 163.011719 54.253906 163.011719 54.253906 C 163.011719 54.253906 175.542969 58.363281 177.050781 59.382812 C 178.5625 60.398438 178.949219 67.398438 178.121094 68.117188 C 177.292969 68.835938 160.769531 60.996094 160.769531 60.996094 " fill-opacity="1" fill-rule="nonzero"/><path fill="#e0d9c0" d="M 177.382812 59.726562 C 177.5 61.488281 177.371094 63.097656 177 63.421875 C 176.351562 63.984375 166.046875 59.285156 161.632812 57.230469 C 161.25 58.304688 160.902344 59.601562 160.769531 60.996094 C 160.769531 60.996094 177.292969 68.835938 178.121094 68.117188 C 178.882812 67.457031 178.613281 61.460938 177.382812 59.726562 " fill-opacity="1" fill-rule="nonzero"/><path fill="#e9ead2" d="M 175.675781 59.921875 C 177.570312 54.953125 181.421875 44.90625 183.699219 46.191406 C 185.972656 47.472656 186.480469 52.679688 185.226562 56.988281 C 183.96875 61.296875 179.734375 67.703125 178.070312 67.644531 C 176.40625 67.585938 175.675781 59.921875 175.675781 59.921875 " fill-opacity="1" fill-rule="nonzero"/><path fill="#e0d9c0" d="M 183.941406 46.363281 C 184.09375 48.226562 183.890625 50.351562 183.324219 52.292969 C 182.070312 56.585938 177.789062 63.4375 176.113281 63.421875 C 176.476562 65.632812 177.085938 68.085938 178 68.117188 C 179.664062 68.175781 183.96875 61.296875 185.226562 56.988281 C 186.433594 52.84375 186.003906 47.875 183.941406 46.363281 " fill-opacity="1" fill-rule="nonzero"/><path fill="#ebb171" d="M 177.992188 55.664062 C 177.523438 54.863281 174.972656 53.46875 171.910156 55.144531 C 171.910156 55.144531 171.78125 56.984375 172.277344 57.734375 C 172.777344 58.488281 176.292969 59.691406 176.292969 59.691406 C 176.292969 59.691406 178.457031 56.460938 177.992188 55.664062 " fill-opacity="1" fill-rule="nonzero"/><path fill="#e78f57" d="M 177.992188 55.664062 C 177.875 55.46875 177.636719 55.238281 177.300781 55.027344 C 177.277344 56.121094 175.445312 57.007812 173.1875 57.007812 C 172.773438 57.007812 172.371094 56.976562 171.996094 56.921875 C 172.050781 57.234375 172.140625 57.527344 172.277344 57.734375 C 172.777344 58.488281 176.292969 59.691406 176.292969 59.691406 C 176.292969 59.691406 178.457031 56.460938 177.992188 55.664062 " fill-opacity="1" fill-rule="nonzero"/><path fill="#e9ead2" d="M 183.128906 83.417969 L 176.769531 82.949219 L 176.769531 85.460938 C 176.769531 86.078125 177.273438 86.589844 177.921875 86.636719 L 181.78125 86.921875 C 182.507812 86.976562 183.128906 86.433594 183.128906 85.742188 L 183.128906 83.417969 " fill-opacity="1" fill-rule="nonzero"/><path fill="#d5cbb1" d="M 170.398438 66.824219 C 176.839844 74.554688 177.519531 78.90625 177.519531 78.90625 C 177.519531 78.90625 177.277344 73.675781 174.59375 70.445312 C 171.914062 67.21875 170.398438 66.824219 170.398438 66.824219 " fill-opacity="1" fill-rule="nonzero"/><path fill="#d5cbb1" d="M 185.726562 71.015625 C 185.917969 70.355469 185.164062 69.554688 184.039062 69.222656 C 182.914062 68.894531 181.847656 69.164062 181.652344 69.824219 C 181.460938 70.484375 182.21875 71.289062 183.339844 71.617188 C 184.464844 71.949219 185.535156 71.679688 185.726562 71.015625 " fill-opacity="1" fill-rule="nonzero"/><path fill="#a93761" d="M 174.132812 47.28125 C 174.058594 46.484375 174.144531 45.402344 174.195312 44.878906 C 174.214844 44.6875 174.328125 44.519531 174.5 44.433594 C 175.582031 43.898438 179.535156 41.953125 179.789062 42.113281 C 180.082031 42.296875 180.375 44.277344 180.375 44.277344 C 179.03125 46.140625 177.113281 47.277344 174.589844 47.636719 C 174.363281 47.671875 174.152344 47.507812 174.132812 47.28125 " fill-opacity="1" fill-rule="nonzero"/><path fill="#534143" d="M 173.496094 36.417969 C 173.363281 35.851562 173.515625 35.316406 173.835938 35.21875 C 174.15625 35.117188 174.523438 35.496094 174.65625 36.058594 C 174.789062 36.625 174.636719 37.160156 174.316406 37.261719 C 173.996094 37.359375 173.628906 36.980469 173.496094 36.417969 " fill-opacity="1" fill-rule="nonzero"/><path fill="#8b3225" d="M 172.910156 33.066406 L 175.082031 33.140625 C 175.265625 33.148438 175.410156 33.304688 175.40625 33.492188 L 175.390625 34.199219 C 175.386719 34.386719 175.234375 34.535156 175.050781 34.53125 L 172.878906 34.457031 C 172.695312 34.449219 172.550781 34.292969 172.554688 34.105469 L 172.570312 33.394531 C 172.574219 33.207031 172.726562 33.0625 172.910156 33.066406 " fill-opacity="1" fill-rule="nonzero"/><path fill="#534143" d="M 170.660156 37.015625 C 170.566406 36.445312 170.757812 35.917969 171.085938 35.84375 C 171.410156 35.769531 171.75 36.175781 171.84375 36.75 C 171.933594 37.324219 171.742188 37.847656 171.417969 37.921875 C 171.089844 37.996094 170.75 37.589844 170.660156 37.015625 " fill-opacity="1" fill-rule="nonzero"/><path fill="#8b3225" d="M 169.246094 34.882812 L 170.839844 33.960938 C 170.972656 33.882812 171.140625 33.941406 171.21875 34.089844 L 171.503906 34.652344 C 171.578125 34.800781 171.53125 34.984375 171.398438 35.0625 L 169.804688 35.980469 C 169.671875 36.058594 169.5 36 169.425781 35.851562 L 169.140625 35.289062 C 169.0625 35.140625 169.113281 34.957031 169.246094 34.882812 " fill-opacity="1" fill-rule="nonzero"/><path fill="#d2634c" d="M 172.628906 36.753906 C 172.386719 37.992188 172.351562 38.78125 172.738281 39.070312 C 172.980469 39.25 173.292969 39.195312 173.535156 39.109375 L 173.542969 39.132812 C 173.542969 39.132812 172.824219 39.601562 172.410156 39.332031 C 171.996094 39.070312 172.179688 38.183594 172.628906 36.753906 " fill-opacity="1" fill-rule="nonzero"/><path fill="#3d2b33" d="M 172.136719 40.328125 L 174.753906 39.347656 C 174.753906 39.347656 175.304688 41.390625 173.925781 41.945312 C 172.542969 42.5 172.136719 40.328125 172.136719 40.328125 " fill-opacity="1" fill-rule="nonzero"/><path fill="#ffffff" d="M 174.746094 40.253906 C 174.738281 39.828125 174.648438 39.492188 174.648438 39.492188 L 172.25 40.390625 C 172.25 40.390625 172.316406 40.734375 172.484375 41.101562 L 174.746094 40.253906 " fill-opacity="1" fill-rule="nonzero"/><path fill="#762b3c" d="M 107.882812 58.019531 C 107.148438 56.050781 105.921875 55.976562 105.921875 55.976562 C 105.921875 55.976562 106.238281 54.453125 104.710938 54.074219 C 103.171875 53.695312 102.128906 54.808594 102.128906 54.808594 C 102.128906 54.808594 100.4375 53.65625 98.519531 54.164062 C 96.601562 54.675781 97.484375 56.222656 97.484375 56.222656 C 97.484375 56.222656 94.910156 56.894531 94.40625 58.6875 C 93.910156 60.453125 96.421875 63.203125 96.421875 63.203125 C 96.421875 63.203125 95.871094 65 97.585938 68.355469 L 105.730469 62.15625 C 105.730469 62.15625 108.601562 59.953125 107.882812 58.019531 " fill-opacity="1" fill-rule="nonzero"/><path fill="#5a222f" d="M 102.71875 59.554688 C 100.414062 58.230469 99.023438 56.0625 98.988281 54.074219 C 98.832031 54.097656 98.679688 54.125 98.519531 54.164062 C 96.601562 54.675781 97.484375 56.222656 97.484375 56.222656 C 97.484375 56.222656 94.910156 56.894531 94.40625 58.6875 C 93.910156 60.453125 96.421875 63.203125 96.421875 63.203125 C 96.421875 63.203125 95.871094 65 97.585938 68.355469 L 105.730469 62.15625 C 105.730469 62.15625 106.5625 61.511719 107.21875 60.621094 C 105.808594 60.746094 104.210938 60.40625 102.71875 59.554688 " fill-opacity="1" fill-rule="nonzero"/><path fill="#6096bd" d="M 113.402344 85.296875 C 109.914062 85.007812 108.144531 79.664062 105.359375 74.890625 C 105.324219 74.828125 105.285156 74.765625 105.25 74.703125 L 100.5 86.292969 C 101.066406 89.136719 107.023438 94.328125 113.332031 94.328125 C 115.429688 94.328125 117.65625 85.652344 113.402344 85.296875 " fill-opacity="1" fill-rule="nonzero"/><path fill="#497d9f" d="M 114.34375 89.261719 C 108.90625 89.261719 104.328125 83.449219 104.1875 76.550781 L 100.5 86.292969 C 101.066406 89.136719 107.023438 94.328125 113.332031 94.328125 C 114.695312 94.328125 116.105469 90.679688 115.769531 88.015625 C 115.347656 88.769531 114.839844 89.261719 114.34375 89.261719 " fill-opacity="1" fill-rule="nonzero"/><path fill="#ddcaae" d="M 113.507812 85.847656 C 109.734375 83.449219 108.667969 89.582031 108.667969 89.582031 L 109.734375 90.222656 L 108.882812 90.328125 C 108.722656 91.714844 108.617188 94.117188 109.203125 94.488281 C 109.785156 94.863281 113.242188 95.449219 114.785156 93.742188 L 113.507812 85.847656 " fill-opacity="1" fill-rule="nonzero"/><path fill="#f7976b" d="M 111.800781 94.113281 C 109.390625 94.023438 108.261719 86.6875 111.515625 85.839844 C 114.773438 84.992188 123.308594 84.21875 125.898438 85.996094 C 127.75 87.269531 125.738281 90.152344 124.109375 91.003906 C 122.484375 91.851562 113.710938 94.183594 111.800781 94.113281 " fill-opacity="1" fill-rule="nonzero"/><path fill="#ea744b" d="M 110.132812 86.90625 C 108.730469 89.175781 109.839844 94.042969 111.800781 94.113281 C 113.710938 94.183594 122.480469 91.851562 124.109375 91.003906 C 125.007812 90.535156 125.09375 88.804688 124.957031 87.703125 C 123.359375 88.222656 113.933594 83.4375 110.132812 86.90625 " fill-opacity="1" fill-rule="nonzero"/><path fill="#483337" d="M 103.304688 97.316406 L 89.28125 97.316406 L 89.917969 99.554688 L 102.929688 99.554688 C 103.558594 99.554688 103.984375 98.910156 103.734375 98.328125 L 103.304688 97.316406 " fill-opacity="1" fill-rule="nonzero"/><path fill="#fde4bc" d="M 103.355469 96.300781 L 90.933594 96.300781 C 90.398438 96.300781 90.011719 96.816406 90.160156 97.335938 L 90.335938 97.957031 C 90.433594 98.304688 90.75 98.542969 91.109375 98.542969 L 103.621094 98.542969 C 104.199219 98.542969 104.589844 97.949219 104.363281 97.414062 L 104.097656 96.792969 C 103.96875 96.496094 103.679688 96.300781 103.355469 96.300781 " fill-opacity="1" fill-rule="nonzero"/><path fill="#483337" d="M 112.578125 130.71875 L 113.332031 130.355469 L 87.25 111.039062 L 86.496094 111.402344 L 112.578125 130.71875 " fill-opacity="1" fill-rule="nonzero"/><path fill="#483337" d="M 100.664062 136.808594 C 92.421875 136.738281 85.519531 129.308594 85.246094 120.210938 C 84.976562 111.113281 91.4375 103.796875 99.679688 103.867188 C 107.925781 103.9375 114.828125 111.371094 115.101562 120.46875 C 115.371094 129.566406 108.910156 136.882812 100.664062 136.808594 Z M 118.175781 120.429688 C 117.992188 110.4375 110.066406 102.300781 100.472656 102.25 C 90.882812 102.199219 83.257812 110.257812 83.445312 120.25 C 83.628906 130.242188 91.554688 138.378906 101.148438 138.429688 C 110.738281 138.480469 118.363281 130.421875 118.175781 120.429688 " fill-opacity="1" fill-rule="nonzero"/><path fill="#483337" d="M 114.890625 116.949219 L 114.824219 116.398438 L 85.398438 123.070312 L 85.46875 123.621094 L 114.890625 116.949219 " fill-opacity="1" fill-rule="nonzero"/><path fill="#483337" d="M 109.925781 106.878906 L 110.796875 106.996094 L 89.507812 132.25 L 88.640625 132.128906 L 109.925781 106.878906 " fill-opacity="1" fill-rule="nonzero"/><path fill="#483337" d="M 97.570312 103.910156 L 96.664062 103.910156 L 101.183594 137.371094 L 102.089844 137.371094 L 97.570312 103.910156 " fill-opacity="1" fill-rule="nonzero"/><path fill="#874c5e" d="M 101.324219 120.070312 C 101.152344 118.597656 100.007812 117.523438 98.769531 117.671875 C 97.53125 117.820312 96.671875 119.136719 96.84375 120.609375 C 97.015625 122.082031 98.160156 123.15625 99.398438 123.007812 C 100.636719 122.859375 101.5 121.542969 101.324219 120.070312 " fill-opacity="1" fill-rule="nonzero"/><path fill="#874c5e" d="M 100.65625 137.785156 C 91.925781 137.710938 84.613281 129.839844 84.324219 120.203125 C 84.039062 110.566406 90.882812 102.816406 99.613281 102.890625 C 108.347656 102.96875 115.660156 110.839844 115.945312 120.476562 C 116.234375 130.109375 109.390625 137.863281 100.65625 137.785156 Z M 119.203125 120.433594 C 119.007812 109.851562 110.613281 101.230469 100.453125 101.179688 C 90.292969 101.125 82.21875 109.660156 82.414062 120.246094 C 82.613281 130.828125 91.007812 139.449219 101.167969 139.5 C 111.324219 139.554688 119.402344 131.019531 119.203125 120.433594 " fill-opacity="1" fill-rule="nonzero"/><path fill="#744153" d="M 119.140625 119.191406 C 118.160156 120.492188 117.0625 121.675781 115.878906 122.714844 C 115.136719 131.285156 108.699219 137.855469 100.65625 137.785156 C 91.925781 137.710938 84.613281 129.839844 84.324219 120.203125 C 84.128906 113.628906 87.253906 107.929688 92.039062 105 C 92.273438 104.277344 92.535156 103.566406 92.832031 102.875 C 86.550781 105.867188 82.269531 112.507812 82.414062 120.246094 C 82.613281 130.828125 91.007812 139.449219 101.167969 139.5 C 111.324219 139.554688 119.402344 131.019531 119.203125 120.433594 C 119.195312 120.015625 119.171875 119.601562 119.140625 119.191406 " fill-opacity="1" fill-rule="nonzero"/><path fill="#483337" d="M 77.8125 74.175781 L 71.375 74.175781 C 69.984375 74.175781 70.371094 76.625 71.765625 76.625 L 78.203125 76.625 L 77.8125 74.175781 " fill-opacity="1" fill-rule="nonzero"/><path fill="#483337" d="M 66.609375 74.175781 L 57.871094 74.175781 C 56.480469 74.175781 56.871094 76.625 58.261719 76.625 L 67 76.625 L 66.609375 74.175781 " fill-opacity="1" fill-rule="nonzero"/><path fill="#483337" d="M 87.476562 102.230469 L 78.410156 74.175781 L 76.867188 74.175781 L 85.921875 102.179688 L 87.476562 102.230469 " fill-opacity="1" fill-rule="nonzero"/><path fill="#483337" d="M 76.101562 102.230469 L 67.035156 74.175781 L 65.488281 74.175781 L 74.546875 102.179688 L 76.101562 102.230469 " fill-opacity="1" fill-rule="nonzero"/><path fill="#483337" d="M 103.058594 110.570312 L 78.933594 110.570312 L 78.933594 114.0625 L 103.058594 114.0625 L 103.058594 110.570312 " fill-opacity="1" fill-rule="nonzero"/><path fill="#ce9e5b" d="M 82.839844 78.710938 L 69.347656 78.710938 C 68.804688 78.710938 68.46875 79.222656 68.648438 79.789062 L 78.546875 111.582031 C 78.6875 112.035156 79.109375 112.367188 79.542969 112.367188 L 93.035156 112.367188 C 93.578125 112.367188 93.914062 111.855469 93.734375 111.289062 L 83.835938 79.496094 C 83.695312 79.042969 83.273438 78.710938 82.839844 78.710938 " fill-opacity="1" fill-rule="nonzero"/><path fill="#e8ba75" d="M 84.613281 78.710938 L 71.117188 78.710938 C 70.574219 78.710938 70.242188 79.222656 70.417969 79.789062 L 80.320312 111.582031 C 80.460938 112.035156 80.882812 112.367188 81.316406 112.367188 L 94.808594 112.367188 C 95.351562 112.367188 95.683594 111.855469 95.507812 111.289062 L 85.609375 79.496094 C 85.46875 79.042969 85.046875 78.710938 84.613281 78.710938 " fill-opacity="1" fill-rule="nonzero"/><path fill="#483337" d="M 93.367188 115.664062 L 95.988281 115.664062 L 95.988281 120.59375 C 95.988281 120.699219 95.90625 120.78125 95.804688 120.78125 L 93.699219 120.78125 C 93.515625 120.78125 93.367188 120.632812 93.367188 120.449219 L 93.367188 115.664062 " fill-opacity="1" fill-rule="nonzero"/><path fill="#483337" d="M 93.988281 118.152344 L 99.894531 118.152344 L 99.894531 120.570312 L 93.988281 120.570312 L 93.988281 118.152344 " fill-opacity="1" fill-rule="nonzero"/><path fill="#483337" d="M 88.816406 115.664062 L 85.707031 115.664062 L 85.707031 120.578125 C 85.707031 120.691406 85.800781 120.78125 85.910156 120.78125 L 88.457031 120.78125 C 88.65625 120.78125 88.816406 120.621094 88.816406 120.421875 L 88.816406 115.664062 " fill-opacity="1" fill-rule="nonzero"/><path fill="#483337" d="M 88.082031 118.152344 L 81.074219 118.152344 L 81.074219 120.570312 L 88.082031 120.570312 L 88.082031 118.152344 " fill-opacity="1" fill-rule="nonzero"/><path fill="#483337" d="M 96.898438 112.746094 L 82.632812 112.746094 C 82.425781 112.746094 82.261719 112.914062 82.261719 113.121094 L 82.261719 116.78125 C 82.261719 116.988281 82.425781 117.15625 82.632812 117.15625 L 96.898438 117.15625 C 97.101562 117.15625 97.269531 116.988281 97.269531 116.78125 L 97.269531 113.121094 C 97.269531 112.914062 97.101562 112.746094 96.898438 112.746094 " fill-opacity="1" fill-rule="nonzero"/><path fill="#ce9e5b" d="M 108.511719 111.65625 L 92.453125 111.65625 L 102.449219 132.25 L 118.507812 132.25 L 108.511719 111.65625 " fill-opacity="1" fill-rule="nonzero"/><path fill="#f3d092" d="M 109.289062 109.296875 L 93.230469 109.296875 L 103.230469 129.890625 L 119.285156 129.890625 L 109.289062 109.296875 " fill-opacity="1" fill-rule="nonzero"/><path fill="#ce9e5b" d="M 104.625 108.933594 L 80.128906 108.933594 C 79.429688 108.933594 78.859375 109.503906 78.859375 110.203125 L 78.859375 111.09375 C 78.859375 111.796875 79.429688 112.367188 80.128906 112.367188 L 104.625 112.367188 C 105.328125 112.367188 105.894531 111.796875 105.894531 111.09375 L 105.894531 110.203125 C 105.894531 109.503906 105.328125 108.933594 104.625 108.933594 " fill-opacity="1" fill-rule="nonzero"/><path fill="#f3d092" d="M 108.871094 108.933594 L 96.902344 108.933594 C 96.558594 108.933594 96.28125 109.503906 96.28125 110.203125 L 96.28125 111.09375 C 96.28125 111.796875 96.558594 112.367188 96.902344 112.367188 L 108.871094 112.367188 C 109.214844 112.367188 109.492188 111.796875 109.492188 111.09375 L 109.492188 110.203125 C 109.492188 109.503906 109.214844 108.933594 108.871094 108.933594 " fill-opacity="1" fill-rule="nonzero"/><path fill="#f3d092" d="M 82.4375 78.761719 L 71.039062 78.761719 C 70.542969 78.761719 70.242188 79.230469 70.402344 79.746094 L 73.132812 88.515625 C 75.6875 88.507812 81.578125 84.445312 82.4375 78.761719 " fill-opacity="1" fill-rule="nonzero"/><path fill="#e8ba75" d="M 95.296875 109.296875 L 107.234375 129.890625 L 113.082031 129.890625 L 105.425781 109.296875 L 95.296875 109.296875 " fill-opacity="1" fill-rule="nonzero"/><path fill="#f3d092" d="M 125.101562 128.597656 L 108.867188 128.597656 L 108.867188 132.226562 L 125.101562 132.226562 C 125.199219 132.226562 125.277344 132.144531 125.277344 132.046875 L 125.277344 128.777344 C 125.277344 128.679688 125.199219 128.597656 125.101562 128.597656 " fill-opacity="1" fill-rule="nonzero"/><path fill="#ce9e5b" d="M 108.222656 128.597656 L 102.023438 128.597656 L 102.765625 132.226562 L 108.222656 132.226562 C 108.910156 132.226562 109.46875 131.667969 109.46875 130.980469 L 109.46875 129.847656 C 109.46875 129.15625 108.910156 128.597656 108.222656 128.597656 " fill-opacity="1" fill-rule="nonzero"/><path fill="#483337" d="M 107.339844 136.199219 C 107.339844 134.785156 106.316406 133.636719 105.054688 133.636719 C 103.792969 133.636719 102.765625 134.785156 102.765625 136.199219 C 102.765625 137.609375 103.792969 138.757812 105.054688 138.757812 C 106.316406 138.757812 107.339844 137.609375 107.339844 136.199219 " fill-opacity="1" fill-rule="nonzero"/><path fill="#874c5e" d="M 106.28125 136.199219 C 106.28125 135.210938 105.5625 134.410156 104.683594 134.410156 C 103.800781 134.410156 103.085938 135.210938 103.085938 136.199219 C 103.085938 137.1875 103.800781 137.984375 104.683594 137.984375 C 105.5625 137.984375 106.28125 137.1875 106.28125 136.199219 " fill-opacity="1" fill-rule="nonzero"/><path fill="#483337" d="M 119.835938 136.199219 C 119.835938 134.785156 118.8125 133.636719 117.550781 133.636719 C 116.289062 133.636719 115.261719 134.785156 115.261719 136.199219 C 115.261719 137.613281 116.289062 138.757812 117.550781 138.757812 C 118.8125 138.757812 119.835938 137.613281 119.835938 136.199219 " fill-opacity="1" fill-rule="nonzero"/><path fill="#483337" d="M 118.773438 136.199219 C 118.773438 135.210938 118.058594 134.410156 117.175781 134.410156 C 116.292969 134.410156 115.582031 135.210938 115.582031 136.199219 C 115.582031 137.1875 116.292969 137.988281 117.175781 137.988281 C 118.058594 137.988281 118.773438 137.1875 118.773438 136.199219 " fill-opacity="1" fill-rule="nonzero"/><path fill="#6096bd" d="M 83.554688 107.199219 C 81.429688 105.992188 80.703125 103.023438 80.578125 100.300781 C 80.03125 88.492188 86.582031 75.523438 92.027344 72.144531 C 98.726562 67.984375 104.644531 72.914062 105.460938 74.988281 C 107.128906 79.21875 95.464844 90.703125 98.941406 98.667969 C 99.800781 100.644531 83.554688 107.199219 83.554688 107.199219 " fill-opacity="1" fill-rule="nonzero"/><path fill="#427596" d="M 88.375 92.410156 C 88.375 88.691406 90.75 88.089844 93.675781 86.328125 C 95.625 80.683594 95.417969 71.386719 98.59375 70.609375 C 96.625 70.347656 94.375 70.683594 92.027344 72.144531 C 86.582031 75.523438 80.03125 88.492188 80.578125 100.300781 C 80.703125 103.023438 81.429688 105.992188 83.554688 107.199219 C 83.554688 107.199219 88.191406 105.328125 92.378906 103.285156 C 90.644531 99.796875 88.375 97.5625 88.375 92.410156 " fill-opacity="1" fill-rule="nonzero"/><path fill="#543d41" d="M 114.6875 127.582031 C 106.839844 117.382812 103.660156 109.222656 103.660156 109.222656 L 93.128906 108.882812 C 90.695312 108.882812 85.96875 100.820312 86.910156 100.011719 C 91.941406 95.679688 106.214844 99.832031 109.394531 101.859375 C 111.050781 102.917969 114.6875 127.582031 114.6875 127.582031 " fill-opacity="1" fill-rule="nonzero"/><path fill="#453135" d="M 106.335938 101.742188 C 105.519531 101.671875 96.992188 98.5625 97.28125 98.332031 C 93.1875 97.839844 89.140625 98.089844 86.910156 100.011719 C 85.96875 100.820312 90.695312 108.882812 93.128906 108.882812 L 103.660156 109.222656 C 103.660156 109.222656 106.839844 117.382812 114.6875 127.582031 C 114.6875 127.582031 114.675781 127.539062 114.664062 127.460938 C 112.742188 124.347656 106.75 104.8125 106.335938 101.742188 " fill-opacity="1" fill-rule="nonzero"/><path fill="#543d41" d="M 109.933594 127.582031 C 102.003906 117.316406 97.777344 108.625 97.777344 108.625 L 87.496094 108.425781 C 85.066406 108.425781 82.894531 106.296875 82.484375 103.652344 C 82.316406 102.566406 81.761719 101.679688 82.699219 100.867188 C 87.695312 96.507812 100.113281 99.636719 103.304688 101.675781 C 104.972656 102.742188 109.933594 127.582031 109.933594 127.582031 " fill-opacity="1" fill-rule="nonzero"/><path fill="#453135" d="M 104.117188 116.03125 C 102.378906 111.53125 101.109375 107.34375 100.410156 104.042969 C 99.75 104.015625 95.03125 102.972656 95.195312 101.691406 C 95.300781 100.871094 97.859375 100.222656 99.914062 100.082031 C 93.386719 97.410156 85.460938 98.453125 82.695312 100.867188 C 81.761719 101.679688 81.5625 102.75 81.730469 103.835938 C 82.140625 106.480469 84.746094 109.089844 87.179688 109.089844 L 97.628906 109.089844 C 97.628906 109.089844 101.835938 116.984375 109.566406 127.101562 C 107.503906 123.902344 106.242188 121.535156 104.117188 116.03125 " fill-opacity="1" fill-rule="nonzero"/><path fill="#fde5af" d="M 113.476562 128.265625 L 118.023438 130.496094 C 118.023438 130.496094 115.773438 127.328125 114.523438 126.550781 C 113.269531 125.773438 113.476562 128.265625 113.476562 128.265625 " fill-opacity="1" fill-rule="nonzero"/><path fill="#fde5af" d="M 108.378906 128.359375 L 112.699219 130.585938 C 112.699219 130.585938 110.988281 127.535156 109.835938 126.765625 C 108.679688 125.996094 108.378906 128.359375 108.378906 128.359375 " fill-opacity="1" fill-rule="nonzero"/><path fill="#483337" d="M 94.5 130.71875 L 95.253906 130.355469 L 69.171875 111.039062 L 68.417969 111.402344 L 94.5 130.71875 " fill-opacity="1" fill-rule="nonzero"/><path fill="#483337" d="M 82.585938 136.808594 C 74.34375 136.738281 67.441406 129.308594 67.167969 120.210938 C 66.898438 111.113281 73.359375 103.796875 81.601562 103.867188 C 89.84375 103.9375 96.75 111.371094 97.019531 120.46875 C 97.292969 129.566406 90.832031 136.882812 82.585938 136.808594 Z M 100.097656 120.429688 C 99.910156 110.4375 91.984375 102.300781 82.394531 102.25 C 72.804688 102.199219 65.179688 110.257812 65.367188 120.25 C 65.550781 130.242188 73.476562 138.378906 83.066406 138.429688 C 92.660156 138.480469 100.285156 130.421875 100.097656 120.429688 " fill-opacity="1" fill-rule="nonzero"/><path fill="#483337" d="M 96.8125 116.949219 L 96.746094 116.398438 L 67.320312 123.070312 L 67.390625 123.621094 L 96.8125 116.949219 " fill-opacity="1" fill-rule="nonzero"/><path fill="#483337" d="M 91.847656 106.878906 L 92.71875 106.996094 L 71.429688 132.25 L 70.5625 132.128906 L 91.847656 106.878906 " fill-opacity="1" fill-rule="nonzero"/><path fill="#483337" d="M 79.492188 103.910156 L 78.585938 103.910156 L 83.101562 137.371094 L 84.011719 137.371094 L 79.492188 103.910156 " fill-opacity="1" fill-rule="nonzero"/><path fill="#874c5e" d="M 83.246094 120.070312 C 83.074219 118.597656 81.929688 117.523438 80.691406 117.671875 C 79.453125 117.820312 78.589844 119.136719 78.765625 120.609375 C 78.9375 122.082031 80.082031 123.15625 81.320312 123.007812 C 82.554688 122.859375 83.417969 121.542969 83.246094 120.070312 " fill-opacity="1" fill-rule="nonzero"/><path fill="#874c5e" d="M 82.578125 137.785156 C 73.847656 137.710938 66.535156 129.839844 66.246094 120.203125 C 65.957031 110.566406 72.804688 102.816406 81.535156 102.890625 C 90.265625 102.96875 97.578125 110.839844 97.867188 120.476562 C 98.15625 130.109375 91.308594 137.863281 82.578125 137.785156 Z M 101.125 120.433594 C 100.929688 109.851562 92.535156 101.230469 82.375 101.179688 C 72.214844 101.125 64.140625 109.660156 64.335938 120.246094 C 64.535156 130.828125 72.929688 139.449219 83.085938 139.5 C 93.246094 139.554688 101.324219 131.019531 101.125 120.433594 " fill-opacity="1" fill-rule="nonzero"/><path fill="#744153" d="M 101.0625 119.191406 C 100.082031 120.492188 98.984375 121.675781 97.800781 122.714844 C 97.058594 131.285156 90.621094 137.855469 82.578125 137.785156 C 73.847656 137.710938 66.535156 129.839844 66.246094 120.203125 C 66.050781 113.628906 69.179688 107.929688 73.957031 105 C 74.191406 104.277344 74.457031 103.566406 74.753906 102.875 C 68.472656 105.867188 64.191406 112.507812 64.335938 120.246094 C 64.535156 130.828125 72.929688 139.449219 83.085938 139.5 C 93.246094 139.554688 101.324219 131.019531 101.125 120.433594 C 101.117188 120.015625 101.09375 119.601562 101.0625 119.191406 " fill-opacity="1" fill-rule="nonzero"/><path fill="#483337" d="M 86.34375 97.316406 L 73.789062 97.316406 L 74.335938 99.554688 L 86.023438 99.554688 C 86.566406 99.554688 86.929688 98.910156 86.71875 98.328125 L 86.34375 97.316406 " fill-opacity="1" fill-rule="nonzero"/><path fill="#f3d092" d="M 86.390625 96.300781 L 75.210938 96.300781 C 74.75 96.300781 74.417969 96.816406 74.542969 97.335938 L 74.695312 97.957031 C 74.78125 98.304688 75.050781 98.542969 75.363281 98.542969 L 86.621094 98.542969 C 87.117188 98.542969 87.453125 97.949219 87.253906 97.414062 L 87.027344 96.792969 C 86.917969 96.496094 86.667969 96.300781 86.390625 96.300781 " fill-opacity="1" fill-rule="nonzero"/><path fill="#497d9f" d="M 97.5625 77.027344 C 96.464844 74.292969 94.71875 72.492188 93.660156 73.007812 C 92.605469 73.523438 92.636719 76.15625 93.734375 78.890625 C 94.835938 81.625 96.582031 83.421875 97.640625 82.910156 C 98.695312 82.394531 98.664062 79.761719 97.5625 77.027344 " fill-opacity="1" fill-rule="nonzero"/><path fill="#6096bd" d="M 101.34375 84.152344 C 97.886719 83.679688 97.652344 76.132812 94.671875 72.921875 C 91.359375 69.351562 87.75 76.488281 88.890625 81.371094 C 89.574219 84.304688 94.089844 93.222656 100.394531 93.523438 C 102.492188 93.625 105.558594 84.722656 101.34375 84.152344 " fill-opacity="1" fill-rule="nonzero"/><path fill="#497d9f" d="M 90.78125 78.515625 C 90.335938 76.597656 90.746094 74.261719 91.609375 72.34375 C 89.230469 73.640625 87.289062 78.425781 88.089844 81.855469 C 88.773438 84.792969 94.089844 93.222656 100.394531 93.523438 C 101.273438 93.566406 102.324219 92.019531 102.9375 90.167969 C 96.699219 89.738281 91.464844 81.429688 90.78125 78.515625 " fill-opacity="1" fill-rule="nonzero"/><path fill="#ddcaae" d="M 101.171875 84.730469 C 97.398438 82.328125 95.378906 88.464844 95.378906 88.464844 L 96.441406 89.101562 L 95.589844 89.210938 C 95.429688 90.597656 96.28125 92.996094 96.867188 93.367188 C 97.449219 93.742188 100.90625 94.328125 102.449219 92.621094 L 101.171875 84.730469 " fill-opacity="1" fill-rule="nonzero"/><path fill="#fde4bc" d="M 100.515625 89.320312 C 101.074219 89.035156 101.460938 88.507812 101.675781 87.84375 L 101.171875 84.730469 C 98.566406 83.074219 96.796875 85.480469 95.949219 87.132812 C 97.21875 89.050781 99.140625 90.015625 100.515625 89.320312 " fill-opacity="1" fill-rule="nonzero"/><path fill="#497d9f" d="M 105.324219 74.703125 C 104.132812 72.507812 98.4375 68.160156 92.027344 72.144531 C 91.230469 72.636719 90.410156 73.34375 89.589844 74.214844 C 91.023438 75.378906 93.300781 76.378906 95.96875 76.875 C 100.613281 77.742188 104.707031 76.765625 105.324219 74.703125 " fill-opacity="1" fill-rule="nonzero"/><path fill="#de5c3e" d="M 95.464844 70.863281 C 96.980469 68.621094 98.195312 64.953125 98.195312 64.953125 L 102.820312 66.863281 L 101.992188 72.292969 C 101.789062 73.886719 100.898438 74.960938 99.542969 75.675781 C 97.855469 74.679688 96.492188 73.085938 95.464844 70.863281 " fill-opacity="1" fill-rule="nonzero"/><path fill="#ddcaae" d="M 100.078125 73.757812 C 98.511719 72.871094 97.210938 71.511719 96.183594 69.664062 C 95.953125 70.085938 95.714844 70.492188 95.464844 70.863281 C 96.492188 73.085938 98.035156 75.339844 99.71875 76.339844 C 101.078125 75.621094 101.789062 73.886719 101.992188 72.292969 L 102.027344 72.082031 C 101.578125 72.789062 100.917969 73.335938 100.078125 73.757812 " fill-opacity="1" fill-rule="nonzero"/><path fill="#f7976b" d="M 105.046875 72.027344 C 102.847656 72.175781 99.246094 71.144531 98.742188 70.125 C 98.234375 69.101562 97.523438 61.777344 97.894531 60.417969 C 98.265625 59.058594 103.792969 57.277344 105.5625 58.480469 C 107.335938 59.6875 105.046875 72.027344 105.046875 72.027344 " fill-opacity="1" fill-rule="nonzero"/><path fill="#5a222f" d="M 97.167969 67.484375 L 98.125 66.3125 L 100.25 65.921875 C 100.25 65.921875 102.484375 58.453125 100.074219 58.027344 C 97.664062 57.601562 96.601562 60.730469 96.601562 60.835938 C 96.601562 60.941406 97.167969 67.484375 97.167969 67.484375 " fill-opacity="1" fill-rule="nonzero"/><path fill="#f7976b" d="M 99.714844 64.648438 C 99.542969 63.621094 98.859375 62.882812 98.191406 63 C 97.523438 63.113281 97.125 64.035156 97.300781 65.058594 C 97.472656 66.082031 98.15625 66.820312 98.820312 66.707031 C 99.488281 66.59375 99.886719 65.671875 99.714844 64.648438 " fill-opacity="1" fill-rule="nonzero"/><path fill="#f7976b" d="M 118.699219 90.824219 C 118.476562 89.949219 117.179688 89.523438 115.800781 89.875 C 114.421875 90.226562 113.484375 91.21875 113.707031 92.09375 C 113.925781 92.96875 115.222656 93.394531 116.601562 93.042969 C 117.980469 92.695312 118.917969 91.699219 118.699219 90.824219 " fill-opacity="1" fill-rule="nonzero"/><path fill="#f7976b" d="M 118.84375 89.03125 C 118.433594 87.554688 117.128906 86.621094 113.625 85.660156 L 115.71875 90.925781 C 115.71875 90.925781 119.253906 90.511719 118.84375 89.03125 " fill-opacity="1" fill-rule="nonzero"/><path fill="#f7976b" d="M 128.351562 89.175781 C 128.082031 87.910156 127.222656 87.019531 126.433594 87.191406 C 125.640625 87.359375 125.214844 88.523438 125.484375 89.789062 C 125.753906 91.054688 126.613281 91.945312 127.40625 91.773438 C 128.195312 91.605469 128.621094 90.441406 128.351562 89.175781 " fill-opacity="1" fill-rule="nonzero"/><path fill="#6d8d84" d="M 142.648438 107.945312 L 127.546875 107.945312 L 127.546875 109.226562 L 142.648438 109.226562 L 142.648438 107.945312 " fill-opacity="1" fill-rule="nonzero"/><path fill="#ea744b" d="M 128.039062 90.957031 C 127.328125 90.445312 127.546875 87.953125 127.3125 87.46875 C 127.28125 87.40625 127.214844 87.320312 127.121094 87.21875 C 125.304688 85.273438 122.03125 86.425781 121.714844 89.070312 L 121.675781 89.386719 C 122.515625 89.40625 122.253906 91.648438 124.019531 92.246094 C 125.789062 92.84375 128.746094 91.46875 128.039062 90.957031 " fill-opacity="1" fill-rule="nonzero"/><path fill="#453135" d="M 126.679688 88.355469 L 121.628906 88.355469 C 120.804688 88.355469 120.136719 89.023438 120.136719 89.847656 C 120.136719 90.675781 120.804688 91.34375 121.628906 91.34375 L 126.679688 91.34375 C 127.5 91.34375 128.167969 90.675781 128.167969 89.847656 C 128.167969 89.023438 127.5 88.355469 126.679688 88.355469 " fill-opacity="1" fill-rule="nonzero"/><path fill="#6d8d84" d="M 129.175781 139.234375 C 128.824219 139.234375 128.539062 138.949219 128.539062 138.59375 L 128.539062 89.957031 C 128.539062 89.601562 128.824219 89.316406 129.175781 89.316406 C 129.53125 89.316406 129.816406 89.601562 129.816406 89.957031 L 129.816406 138.59375 C 129.816406 138.949219 129.53125 139.234375 129.175781 139.234375 " fill-opacity="1" fill-rule="nonzero"/><path fill="#7e9e93" d="M 121.308594 139.234375 C 120.953125 139.234375 120.667969 138.949219 120.667969 138.59375 L 120.667969 89.957031 C 120.667969 89.601562 120.953125 89.316406 121.308594 89.316406 C 121.660156 89.316406 121.945312 89.601562 121.945312 89.957031 L 121.945312 138.59375 C 121.945312 138.949219 121.660156 139.234375 121.308594 139.234375 " fill-opacity="1" fill-rule="nonzero"/><path fill="#453135" d="M 117.105469 88.355469 L 112.054688 88.355469 C 111.234375 88.355469 110.566406 89.023438 110.566406 89.847656 C 110.566406 90.675781 111.234375 91.34375 112.054688 91.34375 L 117.105469 91.34375 C 117.929688 91.34375 118.597656 90.675781 118.597656 89.847656 C 118.597656 89.023438 117.929688 88.355469 117.105469 88.355469 " fill-opacity="1" fill-rule="nonzero"/><path fill="#f7976b" d="M 123.039062 92.023438 C 123.792969 92.429688 124.613281 92.371094 124.871094 91.886719 C 125.132812 91.40625 124.621094 91.007812 123.871094 90.597656 C 123.117188 90.191406 122.414062 89.925781 122.152344 90.410156 C 121.890625 90.890625 122.289062 91.613281 123.039062 92.023438 " fill-opacity="1" fill-rule="nonzero"/><path fill="#f7976b" d="M 124 92.023438 C 124.75 92.429688 125.570312 92.371094 125.832031 91.886719 C 126.09375 91.40625 125.578125 91.007812 124.828125 90.597656 C 124.078125 90.1875 123.371094 89.925781 123.113281 90.40625 C 122.851562 90.890625 123.246094 91.613281 124 92.023438 " fill-opacity="1" fill-rule="nonzero"/><path fill="#f7976b" d="M 125.523438 91.703125 C 126.273438 92.109375 127.09375 92.050781 127.355469 91.566406 C 127.617188 91.085938 127.105469 90.6875 126.351562 90.277344 C 125.601562 89.871094 124.894531 89.605469 124.636719 90.089844 C 124.375 90.570312 124.769531 91.292969 125.523438 91.703125 " fill-opacity="1" fill-rule="nonzero"/><path fill="#f7976b" d="M 124.625 91.34375 C 125.476562 91.28125 126.128906 90.730469 126.085938 90.117188 C 126.039062 89.503906 125.390625 89.4375 124.539062 89.5 C 123.6875 89.566406 122.953125 89.738281 123 90.351562 C 123.042969 90.964844 123.773438 91.410156 124.625 91.34375 " fill-opacity="1" fill-rule="nonzero"/><path fill="#f7976b" d="M 126.121094 86.074219 C 124.996094 85.441406 123.839844 85.363281 123.539062 85.898438 C 123.242188 86.4375 124.027344 87.011719 125.152344 87.644531 C 126.28125 88.277344 127.320312 88.722656 127.617188 88.1875 C 127.917969 87.652344 127.246094 86.703125 126.121094 86.074219 " fill-opacity="1" fill-rule="nonzero"/><path fill="#f7976b" d="M 126.640625 88.695312 C 126.757812 87.40625 126.355469 86.316406 125.746094 86.261719 C 125.136719 86.203125 124.933594 87.160156 124.816406 88.449219 C 124.699219 89.738281 124.714844 90.875 125.324219 90.929688 C 125.933594 90.984375 126.523438 89.984375 126.640625 88.695312 " fill-opacity="1" fill-rule="nonzero"/><path fill="#7e9e93" d="M 136.265625 90.523438 L 117.761719 90.523438 C 117.410156 90.523438 117.125 90.238281 117.125 89.882812 C 117.125 89.53125 117.410156 89.246094 117.761719 89.246094 L 136.265625 89.246094 C 136.617188 89.246094 136.90625 89.53125 136.90625 89.882812 C 136.90625 90.238281 136.617188 90.523438 136.265625 90.523438 " fill-opacity="1" fill-rule="nonzero"/><path fill="#7e9e93" d="M 132.757812 107.945312 L 121.273438 107.945312 L 121.273438 109.226562 L 132.757812 109.226562 L 132.757812 107.945312 " fill-opacity="1" fill-rule="nonzero"/><path fill="#6e5c66" d="M 122.34375 135.554688 L 120.355469 135.554688 C 120.246094 135.554688 120.15625 135.644531 120.15625 135.757812 L 120.15625 139.5 L 122.546875 139.5 L 122.546875 135.757812 C 122.546875 135.644531 122.457031 135.554688 122.34375 135.554688 " fill-opacity="1" fill-rule="nonzero"/><path fill="#6d8d84" d="M 130.164062 135.554688 L 128.175781 135.554688 C 128.0625 135.554688 127.972656 135.644531 127.972656 135.757812 L 127.972656 139.5 L 130.363281 139.5 L 130.363281 135.757812 C 130.363281 135.644531 130.273438 135.554688 130.164062 135.554688 " fill-opacity="1" fill-rule="nonzero"/><path fill="#93b4a7" d="M 134.386719 139.234375 C 134.035156 139.234375 133.75 138.949219 133.75 138.597656 C 133.75 138.226562 133.578125 101.496094 128.074219 90.347656 C 127.917969 90.03125 128.046875 89.644531 128.363281 89.488281 C 128.679688 89.332031 129.058594 89.460938 129.214844 89.777344 C 134.855469 101.195312 135.019531 137.070312 135.023438 138.59375 C 135.027344 138.945312 134.742188 139.234375 134.390625 139.234375 C 134.386719 139.234375 134.386719 139.234375 134.386719 139.234375 " fill-opacity="1" fill-rule="nonzero"/><path fill="#93b4a7" d="M 143.960938 139.234375 C 143.949219 139.234375 143.941406 139.234375 143.929688 139.234375 C 143.578125 139.21875 143.304688 138.921875 143.320312 138.566406 C 143.335938 138.199219 144.796875 101.671875 135.492188 90.472656 C 135.265625 90.199219 135.304688 89.796875 135.574219 89.570312 C 135.84375 89.34375 136.246094 89.382812 136.472656 89.652344 C 146.089844 101.230469 144.660156 137.101562 144.597656 138.621094 C 144.582031 138.964844 144.300781 139.234375 143.960938 139.234375 " fill-opacity="1" fill-rule="nonzero"/><path fill="#93b4a7" d="M 136.054688 90.523438 L 129 90.523438 C 128.644531 90.523438 128.363281 90.238281 128.363281 89.882812 C 128.363281 89.53125 128.644531 89.246094 129 89.246094 L 136.054688 89.246094 C 136.40625 89.246094 136.691406 89.53125 136.691406 89.882812 C 136.691406 90.238281 136.40625 90.523438 136.054688 90.523438 " fill-opacity="1" fill-rule="nonzero"/><path fill="#93b4a7" d="M 129.121094 90.523438 L 125.757812 90.523438 C 125.589844 90.523438 125.453125 90.238281 125.453125 89.882812 C 125.453125 89.53125 125.589844 89.246094 125.757812 89.246094 L 129.121094 89.246094 C 129.289062 89.246094 129.425781 89.53125 129.425781 89.882812 C 129.425781 90.238281 129.289062 90.523438 129.121094 90.523438 " fill-opacity="1" fill-rule="nonzero"/><path fill="#93b4a7" d="M 139.101562 95.003906 L 130.984375 95.003906 C 130.632812 95.003906 130.347656 95.292969 130.347656 95.644531 C 130.347656 95.996094 130.632812 96.285156 130.984375 96.285156 L 139.101562 96.285156 C 139.453125 96.285156 139.742188 95.996094 139.742188 95.644531 C 139.742188 95.292969 139.453125 95.003906 139.101562 95.003906 " fill-opacity="1" fill-rule="nonzero"/><path fill="#bcd8ca" d="M 137.066406 95.003906 L 134.617188 95.003906 C 134.265625 95.003906 133.980469 95.292969 133.980469 95.644531 C 133.980469 95.996094 134.265625 96.285156 134.617188 96.285156 L 137.066406 96.285156 C 137.417969 96.285156 137.703125 95.996094 137.703125 95.644531 C 137.703125 95.292969 137.417969 95.003906 137.066406 95.003906 " fill-opacity="1" fill-rule="nonzero"/><path fill="#bcd8ca" d="M 134.832031 89.246094 L 133.554688 89.246094 C 133.511719 89.246094 133.472656 89.28125 133.472656 89.324219 L 133.472656 90.445312 C 133.472656 90.488281 133.511719 90.523438 133.554688 90.523438 L 134.832031 90.523438 C 134.875 90.523438 134.910156 90.488281 134.910156 90.445312 L 134.910156 89.324219 C 134.910156 89.28125 134.875 89.246094 134.832031 89.246094 " fill-opacity="1" fill-rule="nonzero"/><path fill="#6e5c66" d="M 135.371094 135.554688 L 133.382812 135.554688 C 133.273438 135.554688 133.183594 135.644531 133.183594 135.757812 L 133.183594 139.5 L 135.574219 139.5 L 135.574219 135.757812 C 135.574219 135.644531 135.484375 135.554688 135.371094 135.554688 " fill-opacity="1" fill-rule="nonzero"/><path fill="#6e5c66" d="M 144.839844 135.554688 L 142.847656 135.554688 C 142.738281 135.554688 142.648438 135.644531 142.648438 135.757812 L 142.648438 139.5 L 145.039062 139.5 L 145.039062 135.757812 C 145.039062 135.644531 144.949219 135.554688 144.839844 135.554688 " fill-opacity="1" fill-rule="nonzero"/><path fill="#ce3b3f" d="M 99.261719 64.722656 C 99.152344 64.082031 98.726562 63.621094 98.308594 63.695312 C 97.894531 63.765625 97.644531 64.339844 97.75 64.980469 C 97.859375 65.621094 98.285156 66.082031 98.703125 66.011719 C 99.121094 65.941406 99.371094 65.363281 99.261719 64.722656 " fill-opacity="1" fill-rule="nonzero"/><path fill="#f7976b" d="M 99.101562 65.277344 C 99.027344 64.839844 98.738281 64.527344 98.453125 64.574219 C 98.171875 64.625 98 65.015625 98.074219 65.453125 C 98.148438 65.890625 98.4375 66.203125 98.722656 66.15625 C 99.007812 66.105469 99.175781 65.710938 99.101562 65.277344 " fill-opacity="1" fill-rule="nonzero"/><path fill="#f7976b" d="M 100.113281 92.925781 C 97.710938 92.722656 96.933594 85.339844 100.226562 84.648438 C 103.515625 83.957031 110.582031 84.292969 112.511719 85.449219 C 114.4375 86.605469 114.222656 89.636719 112.558594 90.40625 C 110.890625 91.179688 102.019531 93.089844 100.113281 92.925781 " fill-opacity="1" fill-rule="nonzero"/><path fill="#ea744b" d="M 107.792969 89.582031 C 103.078125 89.582031 99.257812 88.078125 99.257812 86.222656 C 99.257812 85.648438 99.625 85.113281 100.265625 84.640625 C 100.253906 84.640625 100.238281 84.644531 100.226562 84.648438 C 96.933594 85.339844 97.710938 92.722656 100.113281 92.925781 C 102.019531 93.089844 110.890625 91.179688 112.558594 90.40625 C 113.242188 90.09375 113.675781 89.390625 113.824219 88.597656 C 112.28125 89.207031 110.148438 89.582031 107.792969 89.582031 " fill-opacity="1" fill-rule="nonzero"/><path fill="#427596" d="M 87.507812 86.808594 L 87.828125 90.167969 C 91.390625 95.554688 96.066406 93.316406 96.066406 93.316406 C 94.953125 93.210938 91.070312 93.742188 87.507812 86.808594 " fill-opacity="1" fill-rule="nonzero"/><path fill="#427596" d="M 83.75 87.308594 L 84.355469 90.414062 C 88.308594 96.058594 92.675781 95.058594 92.675781 95.058594 C 91.578125 94.71875 87.835938 94.351562 83.75 87.308594 " fill-opacity="1" fill-rule="nonzero"/><path fill="#f7976b" d="M 116.714844 91.648438 C 116.097656 91.03125 116.714844 88.601562 116.5625 88.085938 C 116.40625 87.570312 114.296875 85.140625 111.824219 85.140625 L 110.691406 89.066406 C 111.515625 89.222656 110.898438 91.390625 112.546875 92.269531 C 114.191406 93.148438 117.332031 92.269531 116.714844 91.648438 " fill-opacity="1" fill-rule="nonzero"/><path fill="#de5c3e" d="M 103.167969 68.558594 C 102.703125 68.558594 101.9375 68.496094 101.492188 68.121094 C 101.277344 67.941406 101.160156 67.710938 101.140625 67.433594 C 101.132812 67.355469 101.195312 67.28125 101.277344 67.277344 C 101.359375 67.269531 101.425781 67.332031 101.433594 67.414062 C 101.449219 67.609375 101.527344 67.765625 101.679688 67.894531 C 102.242188 68.371094 103.515625 68.25 103.527344 68.25 C 103.609375 68.242188 103.679688 68.300781 103.6875 68.382812 C 103.695312 68.464844 103.636719 68.535156 103.558594 68.542969 C 103.539062 68.546875 103.386719 68.558594 103.167969 68.558594 " fill-opacity="1" fill-rule="nonzero"/><path fill="#de5c3e" d="M 104.175781 63.597656 L 103.085938 67.089844 C 103.085938 67.089844 104.390625 67.144531 104.707031 66.847656 C 105.027344 66.554688 104.335938 64.421875 104.175781 63.597656 " fill-opacity="1" fill-rule="nonzero"/><path fill="#f7976b" d="M 103.832031 63.355469 L 102.742188 66.847656 C 102.742188 66.847656 104.042969 66.902344 104.363281 66.609375 C 104.679688 66.316406 103.992188 64.183594 103.832031 63.355469 " fill-opacity="1" fill-rule="nonzero"/><path fill="#762b3c" d="M 103.316406 61.65625 L 101.203125 62.097656 C 101.140625 62.109375 101.097656 62.171875 101.113281 62.238281 L 101.335938 63.3125 C 101.347656 63.375 101.410156 63.414062 101.476562 63.402344 L 103.585938 62.960938 C 103.652344 62.949219 103.691406 62.886719 103.679688 62.820312 L 103.457031 61.746094 C 103.441406 61.683594 103.378906 61.644531 103.316406 61.65625 " fill-opacity="1" fill-rule="nonzero"/><path fill="#762b3c" d="M 107.109375 62.371094 L 105.167969 61.433594 C 105.109375 61.40625 105.039062 61.429688 105.011719 61.488281 L 104.535156 62.476562 C 104.507812 62.535156 104.535156 62.605469 104.589844 62.636719 L 106.535156 63.570312 C 106.59375 63.597656 106.664062 63.574219 106.695312 63.515625 L 107.167969 62.527344 C 107.195312 62.46875 107.171875 62.398438 107.109375 62.371094 " fill-opacity="1" fill-rule="nonzero"/><path fill="#553733" d="M 102.792969 64.582031 C 102.808594 64.5 102.820312 64.414062 102.820312 64.324219 C 102.820312 63.808594 102.554688 63.390625 102.222656 63.390625 C 101.890625 63.390625 101.625 63.808594 101.625 64.324219 C 101.625 64.378906 101.628906 64.433594 101.636719 64.484375 L 102.792969 64.582031 " fill-opacity="1" fill-rule="nonzero"/><path fill="#553733" d="M 105.8125 64.851562 C 105.824219 64.765625 105.835938 64.683594 105.835938 64.589844 C 105.835938 64.074219 105.613281 63.65625 105.335938 63.65625 C 105.0625 63.65625 104.839844 64.074219 104.839844 64.589844 C 104.839844 64.648438 104.84375 64.699219 104.851562 64.753906 L 105.8125 64.851562 " fill-opacity="1" fill-rule="nonzero"/><path fill="#de5c3e" d="M 102.992188 69.328125 C 103.007812 69.226562 102.78125 69.113281 102.492188 69.074219 C 102.199219 69.035156 101.953125 69.085938 101.9375 69.1875 C 101.925781 69.292969 102.152344 69.40625 102.441406 69.445312 C 102.734375 69.480469 102.980469 69.429688 102.992188 69.328125 " fill-opacity="1" fill-rule="nonzero"/><path fill="#f7976b" d="M 49.8125 80.703125 C 49.8125 79.113281 49.019531 77.824219 48.039062 77.824219 C 47.058594 77.824219 46.265625 79.113281 46.265625 80.703125 C 46.265625 82.296875 47.058594 83.585938 48.039062 83.585938 C 49.019531 83.585938 49.8125 82.296875 49.8125 80.703125 " fill-opacity="1" fill-rule="nonzero"/><path fill="#f7976b" d="M 38.894531 82.003906 C 38.644531 81.019531 37.1875 80.542969 35.640625 80.933594 C 34.09375 81.328125 33.039062 82.445312 33.289062 83.425781 C 33.535156 84.410156 34.992188 84.886719 36.539062 84.496094 C 38.089844 84.101562 39.140625 82.984375 38.894531 82.003906 " fill-opacity="1" fill-rule="nonzero"/><path fill="#83bfb3" d="M 22.292969 56.070312 C 24.804688 53.933594 27.195312 58.335938 27.617188 59.953125 C 28.042969 61.574219 28.972656 68.875 31.347656 74.320312 L 24.164062 74.484375 C 20.113281 66.769531 19.78125 58.203125 22.292969 56.070312 " fill-opacity="1" fill-rule="nonzero"/><path fill="#71b0a5" d="M 27.621094 68.960938 C 26.535156 64.871094 26.609375 61.25 27.730469 60.445312 C 27.6875 60.25 27.652344 60.082031 27.617188 59.953125 C 27.195312 58.335938 24.804688 53.933594 22.292969 56.070312 C 19.78125 58.203125 20.113281 66.769531 24.164062 74.484375 L 29.828125 74.355469 C 29 73.035156 28.203125 71.136719 27.621094 68.960938 " fill-opacity="1" fill-rule="nonzero"/><path fill="#682f2b" d="M 31.09375 35.074219 C 31.054688 34.714844 31.011719 34.34375 30.804688 34.03125 C 30.425781 33.460938 29.585938 33.277344 28.882812 33.429688 C 28.183594 33.578125 27.589844 33.992188 27.019531 34.394531 C 25.921875 33.914062 24.671875 33.613281 23.507812 33.902344 C 22.34375 34.191406 21.347656 35.207031 21.46875 36.316406 C 20.5625 36.238281 19.652344 36.207031 18.742188 36.21875 C 18.476562 36.222656 18.1875 36.238281 17.996094 36.410156 C 17.863281 36.53125 17.804688 36.707031 17.757812 36.875 C 17.414062 38.023438 17.074219 39.269531 17.546875 40.390625 C 17.863281 41.136719 18.511719 41.730469 19.207031 42.21875 C 19.359375 42.324219 19.53125 42.46875 19.492188 42.636719 C 19.472656 42.730469 19.394531 42.800781 19.324219 42.867188 C 18.566406 43.632812 18.828125 44.898438 19.46875 45.761719 C 20.105469 46.628906 21.042969 47.28125 21.691406 48.140625 L 29.339844 45.792969 C 30.554688 44.328125 31.128906 42.476562 31.308594 40.628906 C 31.488281 38.785156 31.289062 36.921875 31.09375 35.074219 " fill-opacity="1" fill-rule="nonzero"/><path fill="#552624" d="M 24.167969 38.199219 C 23.453125 36.761719 23.089844 35.320312 23.050781 34.058594 C 22.097656 34.46875 21.363281 35.355469 21.46875 36.316406 C 20.5625 36.238281 19.652344 36.203125 18.742188 36.21875 C 18.476562 36.222656 18.1875 36.238281 17.996094 36.410156 C 17.863281 36.53125 17.808594 36.707031 17.757812 36.875 C 17.414062 38.023438 17.074219 39.269531 17.546875 40.390625 C 17.863281 41.136719 18.511719 41.730469 19.207031 42.21875 C 19.359375 42.324219 19.53125 42.464844 19.492188 42.636719 C 19.472656 42.730469 19.394531 42.796875 19.324219 42.867188 C 18.566406 43.632812 18.828125 44.898438 19.46875 45.761719 C 20.105469 46.628906 21.042969 47.28125 21.691406 48.140625 L 29.339844 45.792969 C 30.035156 44.953125 30.519531 43.980469 30.839844 42.960938 C 28.773438 43.621094 25.835938 41.550781 24.167969 38.199219 " fill-opacity="1" fill-rule="nonzero"/><path fill="#f7976b" d="M 49.378906 82.152344 C 48.582031 81.578125 48.828125 78.777344 48.5625 78.230469 C 48.300781 77.6875 45.523438 75.382812 42.78125 75.832031 L 42.238281 80.386719 C 43.179688 80.410156 42.886719 82.925781 44.871094 83.597656 C 46.855469 84.269531 50.175781 82.726562 49.378906 82.152344 " fill-opacity="1" fill-rule="nonzero"/><path fill="#ddefea" d="M 43.890625 74.96875 L 41.558594 74.96875 L 40.363281 80.785156 L 42.695312 80.785156 L 43.890625 74.96875 " fill-opacity="1" fill-rule="nonzero"/><path fill="#71b0a5" d="M 42.085938 74.585938 C 41.703125 76.460938 41.285156 80.125 41.285156 80.125 C 41.285156 80.125 30.21875 81.234375 27.753906 79.371094 C 25.292969 77.507812 26.726562 73.652344 29.238281 72.648438 C 32.339844 71.414062 42.085938 74.585938 42.085938 74.585938 " fill-opacity="1" fill-rule="nonzero"/><path fill="#83bfb3" d="M 32.6875 75.351562 C 34.113281 76.429688 38.40625 76.511719 41.777344 76.390625 C 41.878906 75.730469 41.984375 75.09375 42.085938 74.585938 C 42.085938 74.585938 34.414062 72.21875 30.347656 72.140625 C 30.234375 73.25 31.671875 74.582031 32.6875 75.351562 " fill-opacity="1" fill-rule="nonzero"/><path fill="#577472" d="M 27.550781 59.554688 C 26.597656 56.082031 21.984375 51.25 17.507812 51.660156 L 27.957031 82.28125 C 26.054688 70.714844 28.5 63.023438 27.550781 59.554688 " fill-opacity="1" fill-rule="nonzero"/><path fill="#dadab4" d="M 29.300781 137.53125 L 27.507812 136.410156 L 27.707031 133.863281 L 25.898438 133.980469 C 25.898438 133.980469 25.898438 136.253906 25.464844 136.835938 C 25.027344 137.417969 24.667969 139.414062 24.667969 139.414062 L 33.433594 139.414062 C 33.109375 139.011719 29.300781 137.53125 29.300781 137.53125 " fill-opacity="1" fill-rule="nonzero"/><path fill="#b1b083" d="M 25.613281 136.519531 C 25.867188 136.621094 26.132812 136.679688 26.40625 136.679688 C 26.796875 136.679688 27.167969 136.570312 27.511719 136.371094 L 27.707031 133.863281 L 25.898438 133.980469 C 25.898438 133.980469 25.898438 135.6875 25.613281 136.519531 " fill-opacity="1" fill-rule="nonzero"/><path fill="#75aaa3" d="M 24.699219 135.074219 L 29.023438 134.769531 C 29.023438 134.769531 30.195312 101.949219 29.246094 95.28125 C 28.296875 88.613281 26.667969 78.539062 26.667969 78.539062 L 15.03125 76.53125 L 14.113281 82.453125 C 14.113281 82.453125 18.390625 98.546875 19.476562 104.128906 C 20.5625 109.707031 24.699219 135.074219 24.699219 135.074219 " fill-opacity="1" fill-rule="nonzero"/><path fill="#60827f" d="M 24.699219 135.074219 L 26.261719 134.964844 C 26.289062 125.035156 28.464844 105.90625 27.574219 100.089844 C 26.632812 93.949219 24.273438 79.628906 23.796875 76.820312 L 15.03125 76.53125 L 14.113281 82.453125 C 14.113281 82.453125 18.390625 98.546875 19.476562 104.128906 C 20.5625 109.707031 24.699219 135.074219 24.699219 135.074219 " fill-opacity="1" fill-rule="nonzero"/><path fill="#dadab4" d="M 12.742188 132.21875 L 11.367188 134.921875 L 12.179688 137.628906 C 12.179688 137.628906 15.84375 138.699219 15.894531 139.414062 L 10.960938 139.414062 L 8.109375 135.433594 C 8.109375 135.433594 9.179688 134.515625 9.789062 134.207031 C 10.398438 133.902344 11.316406 130.890625 11.316406 130.890625 L 12.742188 132.21875 " fill-opacity="1" fill-rule="nonzero"/><path fill="#b1b083" d="M 12.742188 132.21875 L 11.316406 130.890625 C 11.316406 130.890625 10.761719 132.714844 10.226562 133.667969 C 10.585938 134.171875 11.003906 134.542969 11.453125 134.75 L 12.742188 132.21875 " fill-opacity="1" fill-rule="nonzero"/><path fill="#75aaa3" d="M 24.183594 76.742188 C 25.503906 82.664062 26.53125 104.09375 26.023438 107.566406 C 25.515625 111.035156 13.808594 134.921875 13.808594 134.921875 L 8.925781 131.453125 C 8.925781 131.453125 16.679688 108.347656 16.78125 106.816406 C 16.882812 105.285156 13.808594 84.292969 13.707031 82.863281 C 13.605469 81.433594 14.421875 75.613281 14.421875 75.613281 L 24.183594 76.742188 " fill-opacity="1" fill-rule="nonzero"/><path fill="#60827f" d="M 18.015625 93.828125 C 23.257812 91.355469 28.113281 87.796875 28.113281 87.796875 L 27.496094 83.625 L 17.167969 87.410156 L 18.015625 93.828125 " fill-opacity="1" fill-rule="nonzero"/><path fill="#60827f" d="M 8.925781 131.453125 L 11.847656 133.53125 C 14 128.058594 20.949219 108.730469 21.097656 107.4375 C 21.273438 105.886719 18.359375 87.523438 18.328125 86.078125 C 18.292969 84.632812 19.390625 78.746094 19.390625 78.746094 L 26.011719 79.421875 C 25.902344 78.347656 25.769531 77.433594 25.617188 76.738281 L 14.421875 75.613281 C 14.421875 75.613281 12.441406 82.347656 12.542969 83.777344 C 12.644531 85.207031 16.882812 105.285156 16.78125 106.816406 C 16.679688 108.347656 8.925781 131.453125 8.925781 131.453125 " fill-opacity="1" fill-rule="nonzero"/><path fill="#de5c3e" d="M 22.644531 44.078125 C 22.644531 44.078125 21.675781 48.542969 19.746094 51.628906 L 24.734375 55.996094 C 25.289062 53.929688 26.847656 48.078125 26.847656 48.078125 L 22.644531 44.078125 " fill-opacity="1" fill-rule="nonzero"/><path fill="#c3dbd4" d="M 20.378906 49.253906 C 20.378906 49.253906 18.519531 50.917969 18.566406 51.582031 L 25.207031 58.828125 L 25.378906 55.375 L 20.378906 49.253906 " fill-opacity="1" fill-rule="nonzero"/><path fill="#f7976b" d="M 29.394531 53.171875 C 25.796875 52.816406 22.730469 50.246094 22.5 49.15625 C 22.269531 48.070312 22.867188 40.804688 23.816406 39.625 C 24.765625 38.449219 29.238281 37.78125 30.042969 39.503906 C 32.867188 45.546875 29.394531 53.171875 29.394531 53.171875 " fill-opacity="1" fill-rule="nonzero"/><path fill="#682f2b" d="M 24.894531 45.0625 C 24.6875 44.402344 23.625 39.34375 23.46875 39.535156 C 22.519531 40.714844 21.785156 48.210938 22.015625 49.296875 C 22.246094 50.386719 26.214844 53.769531 29.8125 54.128906 C 29.8125 54.128906 30.386719 50.992188 30.90625 48.550781 C 27.785156 48.1875 25.207031 46.050781 24.894531 45.0625 " fill-opacity="1" fill-rule="nonzero"/><path fill="#552624" d="M 24.785156 40.140625 C 24.078125 39.617188 24.144531 37.035156 22.027344 38.753906 C 19.914062 40.46875 22.433594 47.609375 22.433594 47.609375 C 22.726562 44.910156 24.0625 44.839844 24.0625 44.839844 C 24.0625 44.839844 25.832031 43.242188 24.828125 42.429688 C 24.828125 42.429688 25.492188 40.664062 24.785156 40.140625 " fill-opacity="1" fill-rule="nonzero"/><path fill="#f7976b" d="M 24.132812 43.730469 C 23.722656 42.703125 22.855469 42.019531 22.195312 42.199219 C 21.539062 42.378906 21.335938 43.355469 21.746094 44.382812 C 22.15625 45.40625 23.019531 46.09375 23.679688 45.914062 C 24.339844 45.734375 24.542969 44.757812 24.132812 43.730469 " fill-opacity="1" fill-rule="nonzero"/><path fill="#83bfb3" d="M 20.015625 51.902344 C 18.464844 50.789062 16.28125 51.464844 15.652344 53.273438 C 13.496094 59.441406 11.96875 63.171875 11.707031 67.277344 C 11.402344 72.074219 10.992188 90.757812 10.992188 90.757812 C 10.992188 90.757812 17.101562 92.492188 29.71875 85.753906 C 29.71875 85.753906 27.480469 75.136719 27.378906 71.460938 C 27.277344 67.789062 26.667969 58.703125 23.816406 55.335938 C 22.648438 53.949219 21.253906 52.789062 20.015625 51.902344 " fill-opacity="1" fill-rule="nonzero"/><path fill="#63a095" d="M 22.71875 73.339844 C 24.503906 63.113281 22.332031 55.945312 18.476562 55.945312 C 17.445312 55.945312 14.703125 57.9375 13.636719 59.003906 C 12.578125 62.113281 11.875 64.617188 11.707031 67.277344 C 11.402344 72.074219 10.992188 90.757812 10.992188 90.757812 C 10.992188 90.757812 12.332031 91.136719 15.050781 90.847656 C 17.386719 87.484375 21.636719 79.511719 22.71875 73.339844 " fill-opacity="1" fill-rule="nonzero"/><path fill="#f7976b" d="M 39.058594 79.988281 C 38.597656 78.328125 37.132812 77.285156 33.199219 76.203125 L 35.550781 82.117188 C 35.550781 82.117188 39.519531 81.652344 39.058594 79.988281 " fill-opacity="1" fill-rule="nonzero"/><path fill="#6d8d84" d="M 68.507812 102.480469 L 50.789062 102.480469 L 50.789062 103.980469 L 68.507812 103.980469 L 68.507812 102.480469 " fill-opacity="1" fill-rule="nonzero"/><path fill="#453135" d="M 49.769531 79.496094 L 43.84375 79.496094 C 42.878906 79.496094 42.097656 80.28125 42.097656 81.246094 C 42.097656 82.214844 42.878906 83 43.84375 83 L 49.769531 83 C 50.734375 83 51.519531 82.214844 51.519531 81.246094 C 51.519531 80.28125 50.734375 79.496094 49.769531 79.496094 " fill-opacity="1" fill-rule="nonzero"/><path fill="#f7976b" d="M 48.078125 78.132812 C 48.230469 78.484375 48.808594 81.882812 48.152344 82.308594 C 47.5 82.734375 45.6875 83.660156 45.03125 83.003906 C 44.378906 82.347656 44.839844 81.382812 45.996094 81.035156 C 45.996094 81.035156 43.605469 78.328125 44.609375 76.976562 C 45.609375 75.621094 47.511719 76.859375 48.078125 78.132812 " fill-opacity="1" fill-rule="nonzero"/><path fill="#f7976b" d="M 48.625 81.472656 C 48.269531 80.730469 47.546875 80.339844 47.007812 80.601562 C 46.472656 80.859375 46.324219 81.671875 46.679688 82.410156 C 47.039062 83.152344 47.761719 83.542969 48.296875 83.28125 C 48.835938 83.023438 48.980469 82.210938 48.625 81.472656 " fill-opacity="1" fill-rule="nonzero"/><path fill="#f7976b" d="M 47.277344 82.050781 C 46.921875 81.3125 46.195312 80.921875 45.660156 81.179688 C 45.121094 81.441406 44.976562 82.25 45.332031 82.992188 C 45.6875 83.730469 46.414062 84.121094 46.949219 83.863281 C 47.484375 83.601562 47.632812 82.792969 47.277344 82.050781 " fill-opacity="1" fill-rule="nonzero"/><path fill="#f7976b" d="M 45.195312 81.703125 C 44.839844 80.964844 44.113281 80.574219 43.578125 80.832031 C 43.042969 81.09375 42.894531 81.902344 43.25 82.644531 C 43.609375 83.386719 44.332031 83.773438 44.867188 83.515625 C 45.40625 83.253906 45.550781 82.445312 45.195312 81.703125 " fill-opacity="1" fill-rule="nonzero"/><path fill="#6d8d84" d="M 52.703125 139.1875 C 52.289062 139.1875 51.953125 138.851562 51.953125 138.4375 L 51.953125 81.371094 C 51.953125 80.957031 52.289062 80.621094 52.703125 80.621094 C 53.117188 80.621094 53.453125 80.957031 53.453125 81.371094 L 53.453125 138.4375 C 53.453125 138.851562 53.117188 139.1875 52.703125 139.1875 " fill-opacity="1" fill-rule="nonzero"/><path fill="#7e9e93" d="M 43.46875 139.1875 C 43.058594 139.1875 42.722656 138.851562 42.722656 138.4375 L 42.722656 81.371094 C 42.722656 80.957031 43.058594 80.621094 43.46875 80.621094 C 43.882812 80.621094 44.21875 80.957031 44.21875 81.371094 L 44.21875 138.4375 C 44.21875 138.851562 43.882812 139.1875 43.46875 139.1875 " fill-opacity="1" fill-rule="nonzero"/><path fill="#453135" d="M 38.542969 79.496094 L 32.617188 79.496094 C 31.652344 79.496094 30.867188 80.28125 30.867188 81.246094 C 30.867188 82.214844 31.652344 83 32.617188 83 L 38.542969 83 C 39.507812 83 40.289062 82.214844 40.289062 81.246094 C 40.289062 80.28125 39.507812 79.496094 38.542969 79.496094 " fill-opacity="1" fill-rule="nonzero"/><path fill="#7e9e93" d="M 61.019531 82.039062 L 39.3125 82.039062 C 38.898438 82.039062 38.5625 81.703125 38.5625 81.289062 C 38.5625 80.875 38.898438 80.539062 39.3125 80.539062 L 61.019531 80.539062 C 61.433594 80.539062 61.769531 80.875 61.769531 81.289062 C 61.769531 81.703125 61.433594 82.039062 61.019531 82.039062 " fill-opacity="1" fill-rule="nonzero"/><path fill="#7e9e93" d="M 56.902344 102.480469 L 43.429688 102.480469 L 43.429688 103.980469 L 56.902344 103.980469 L 56.902344 102.480469 " fill-opacity="1" fill-rule="nonzero"/><path fill="#6e5c66" d="M 44.6875 134.871094 L 42.355469 134.871094 C 42.226562 134.871094 42.117188 134.976562 42.117188 135.109375 L 42.117188 139.5 L 44.925781 139.5 L 44.925781 135.109375 C 44.925781 134.976562 44.820312 134.871094 44.6875 134.871094 " fill-opacity="1" fill-rule="nonzero"/><path fill="#6d8d84" d="M 53.859375 134.871094 L 51.527344 134.871094 C 51.394531 134.871094 51.289062 134.976562 51.289062 135.109375 L 51.289062 139.5 L 54.097656 139.5 L 54.097656 135.109375 C 54.097656 134.976562 53.992188 134.871094 53.859375 134.871094 " fill-opacity="1" fill-rule="nonzero"/><path fill="#93b4a7" d="M 58.816406 139.1875 C 58.402344 139.1875 58.070312 138.855469 58.066406 138.441406 C 58.066406 138.007812 57.867188 94.910156 51.410156 81.832031 C 51.226562 81.460938 51.375 81.007812 51.746094 80.824219 C 52.117188 80.640625 52.566406 80.792969 52.75 81.164062 C 59.363281 94.558594 59.558594 136.648438 59.566406 138.4375 C 59.566406 138.851562 59.234375 139.1875 58.820312 139.1875 C 58.820312 139.1875 58.816406 139.1875 58.816406 139.1875 " fill-opacity="1" fill-rule="nonzero"/><path fill="#93b4a7" d="M 70.046875 139.1875 C 70.035156 139.1875 70.023438 139.1875 70.011719 139.1875 C 69.601562 139.171875 69.28125 138.820312 69.296875 138.40625 C 69.316406 137.972656 71.027344 95.117188 60.113281 81.976562 C 59.847656 81.660156 59.890625 81.1875 60.210938 80.921875 C 60.527344 80.65625 61 80.699219 61.265625 81.015625 C 72.546875 94.597656 70.871094 136.683594 70.792969 138.46875 C 70.777344 138.875 70.445312 139.1875 70.046875 139.1875 " fill-opacity="1" fill-rule="nonzero"/><path fill="#93b4a7" d="M 60.769531 82.039062 L 52.496094 82.039062 C 52.082031 82.039062 51.746094 81.703125 51.746094 81.289062 C 51.746094 80.875 52.082031 80.539062 52.496094 80.539062 L 60.769531 80.539062 C 61.183594 80.539062 61.519531 80.875 61.519531 81.289062 C 61.519531 81.703125 61.183594 82.039062 60.769531 82.039062 " fill-opacity="1" fill-rule="nonzero"/><path fill="#93b4a7" d="M 52.636719 82.039062 L 48.691406 82.039062 C 48.496094 82.039062 48.335938 81.703125 48.335938 81.289062 C 48.335938 80.875 48.496094 80.539062 48.691406 80.539062 L 52.636719 80.539062 C 52.835938 80.539062 52.996094 80.875 52.996094 81.289062 C 52.996094 81.703125 52.835938 82.039062 52.636719 82.039062 " fill-opacity="1" fill-rule="nonzero"/><path fill="#93b4a7" d="M 64.347656 87.296875 L 54.824219 87.296875 C 54.410156 87.296875 54.074219 87.632812 54.074219 88.046875 C 54.074219 88.460938 54.410156 88.796875 54.824219 88.796875 L 64.347656 88.796875 C 64.761719 88.796875 65.097656 88.460938 65.097656 88.046875 C 65.097656 87.632812 64.761719 87.296875 64.347656 87.296875 " fill-opacity="1" fill-rule="nonzero"/><path fill="#bcd8ca" d="M 61.957031 87.296875 L 59.085938 87.296875 C 58.671875 87.296875 58.339844 87.632812 58.339844 88.046875 C 58.339844 88.460938 58.671875 88.796875 59.085938 88.796875 L 61.957031 88.796875 C 62.371094 88.796875 62.707031 88.460938 62.707031 88.046875 C 62.707031 87.632812 62.371094 87.296875 61.957031 87.296875 " fill-opacity="1" fill-rule="nonzero"/><path fill="#bcd8ca" d="M 59.335938 80.539062 L 57.839844 80.539062 C 57.789062 80.539062 57.746094 80.578125 57.746094 80.632812 L 57.746094 81.945312 C 57.746094 81.996094 57.789062 82.039062 57.839844 82.039062 L 59.335938 82.039062 C 59.390625 82.039062 59.429688 81.996094 59.429688 81.945312 L 59.429688 80.632812 C 59.429688 80.578125 59.390625 80.539062 59.335938 80.539062 " fill-opacity="1" fill-rule="nonzero"/><path fill="#6e5c66" d="M 59.972656 134.871094 L 57.640625 134.871094 C 57.507812 134.871094 57.402344 134.976562 57.402344 135.109375 L 57.402344 139.5 L 60.210938 139.5 L 60.210938 135.109375 C 60.210938 134.976562 60.105469 134.871094 59.972656 134.871094 " fill-opacity="1" fill-rule="nonzero"/><path fill="#6e5c66" d="M 71.078125 134.871094 L 68.742188 134.871094 C 68.613281 134.871094 68.507812 134.976562 68.507812 135.109375 L 68.507812 139.5 L 71.3125 139.5 L 71.3125 135.109375 C 71.3125 134.976562 71.207031 134.871094 71.078125 134.871094 " fill-opacity="1" fill-rule="nonzero"/><path fill="#63a095" d="M 22.988281 56.730469 C 24.171875 57.914062 25.1875 59.140625 26.015625 60.34375 C 26.019531 60.34375 26.019531 60.34375 26.023438 60.34375 C 25.503906 58.300781 24.789062 56.484375 23.816406 55.335938 C 22.648438 53.949219 21.253906 52.789062 20.015625 51.902344 C 18.882812 51.089844 17.414062 51.234375 16.460938 52.074219 C 18.492188 52.953125 20.8125 54.5625 22.988281 56.730469 " fill-opacity="1" fill-rule="nonzero"/><path fill="#ce3b3f" d="M 23.734375 43.839844 C 23.460938 43.152344 22.882812 42.695312 22.445312 42.816406 C 22.003906 42.933594 21.867188 43.589844 22.140625 44.273438 C 22.414062 44.957031 22.992188 45.417969 23.433594 45.296875 C 23.875 45.175781 24.007812 44.523438 23.734375 43.839844 " fill-opacity="1" fill-rule="nonzero"/><path fill="#f7976b" d="M 23.730469 44.535156 C 23.570312 44.140625 23.210938 43.878906 22.925781 43.957031 C 22.644531 44.035156 22.542969 44.417969 22.703125 44.816406 C 22.867188 45.214844 23.226562 45.472656 23.507812 45.394531 C 23.792969 45.316406 23.894531 44.933594 23.730469 44.535156 " fill-opacity="1" fill-rule="nonzero"/><path fill="#f7976b" d="M 36.667969 82.929688 C 35.976562 82.230469 36.667969 79.507812 36.496094 78.925781 C 36.320312 78.347656 33.953125 75.621094 31.175781 75.621094 L 29.90625 80.027344 C 30.832031 80.203125 30.136719 82.636719 31.984375 83.625 C 33.835938 84.609375 37.363281 83.625 36.667969 82.929688 " fill-opacity="1" fill-rule="nonzero"/><path fill="#ea744b" d="M 31.992188 83.285156 C 30.757812 80.71875 31.65625 77.714844 33.988281 76.488281 C 33.164062 75.992188 32.199219 75.621094 31.175781 75.621094 L 29.90625 80.027344 C 30.832031 80.203125 30.136719 82.636719 31.984375 83.625 C 32.066406 83.664062 32.152344 83.699219 32.234375 83.734375 C 32.148438 83.589844 32.066406 83.441406 31.992188 83.285156 " fill-opacity="1" fill-rule="nonzero"/><path fill="#ddefea" d="M 31.585938 75.019531 L 28.804688 75.019531 L 27.378906 80.835938 L 30.160156 80.835938 L 31.585938 75.019531 " fill-opacity="1" fill-rule="nonzero"/><path fill="#71b0a5" d="M 30.703125 74.542969 C 29.890625 76.515625 28.703125 81.464844 28.703125 81.464844 C 28.703125 81.464844 15.8125 82.078125 13.367188 79.96875 C 10.925781 77.859375 13.34375 73.828125 16.421875 72.890625 C 20.222656 71.734375 30.703125 74.542969 30.703125 74.542969 " fill-opacity="1" fill-rule="nonzero"/><path fill="#83bfb3" d="M 30.703125 74.542969 C 30.703125 74.542969 23.101562 72.507812 18.496094 72.617188 C 18.109375 73.820312 17.597656 74.785156 18.632812 75.679688 C 20.070312 76.921875 25.8125 77.492188 29.734375 77.523438 C 30.058594 76.390625 30.40625 75.265625 30.703125 74.542969 " fill-opacity="1" fill-rule="nonzero"/><path fill="#83bfb3" d="M 18.863281 54.722656 C 15.539062 53.496094 13.980469 58.53125 13.910156 60.234375 C 13.84375 61.933594 11.199219 72.210938 12.417969 78.539062 L 21.375 73.097656 C 23.953125 64.316406 22.1875 55.945312 18.863281 54.722656 " fill-opacity="1" fill-rule="nonzero"/><path fill="#71b0a5" d="M 15.242188 61.859375 C 15.242188 59.613281 15.429688 57.484375 15.765625 55.578125 C 14.550781 56.921875 13.953125 59.195312 13.910156 60.234375 C 13.84375 61.933594 11.199219 72.210938 12.417969 78.539062 L 18.238281 75.003906 C 16.457031 72.539062 15.242188 67.578125 15.242188 61.859375 " fill-opacity="1" fill-rule="nonzero"/><path fill="#49312a" d="M 30.179688 43.339844 C 30.15625 43.472656 30.140625 43.617188 30.140625 43.769531 C 30.140625 44.328125 30.3125 44.78125 30.523438 44.78125 C 30.734375 44.78125 30.902344 44.328125 30.902344 43.769531 C 30.902344 43.617188 30.890625 43.472656 30.867188 43.339844 L 30.179688 43.339844 " fill-opacity="1" fill-rule="nonzero"/><path fill="#682f2b" d="M 27.628906 40.878906 L 26.277344 41.238281 C 25.980469 41.320312 25.804688 41.625 25.882812 41.925781 C 25.960938 42.222656 26.269531 42.398438 26.566406 42.320312 L 27.917969 41.960938 C 28.214844 41.878906 28.390625 41.574219 28.3125 41.273438 C 28.234375 40.976562 27.925781 40.796875 27.628906 40.878906 " fill-opacity="1" fill-rule="nonzero"/><path fill="#682f2b" d="M 31.730469 41.421875 L 30.429688 40.898438 C 30.144531 40.785156 29.820312 40.925781 29.707031 41.210938 C 29.589844 41.496094 29.730469 41.824219 30.015625 41.9375 L 31.3125 42.460938 C 31.601562 42.574219 31.925781 42.4375 32.039062 42.148438 C 32.15625 41.863281 32.015625 41.535156 31.730469 41.421875 " fill-opacity="1" fill-rule="nonzero"/><path fill="#40251d" d="M 28.492188 49.820312 C 28.480469 49.820312 28.46875 49.820312 28.457031 49.816406 C 26.957031 49.546875 25.945312 48.707031 26.046875 47.824219 C 26.0625 47.707031 26.167969 47.621094 26.285156 47.636719 C 26.402344 47.648438 26.484375 47.757812 26.472656 47.875 C 26.40625 48.425781 27.160156 49.148438 28.53125 49.398438 C 28.648438 49.417969 28.722656 49.53125 28.703125 49.648438 C 28.683594 49.75 28.59375 49.820312 28.492188 49.820312 " fill-opacity="1" fill-rule="nonzero"/><path fill="#40251d" d="M 26.917969 49.542969 C 26.589844 49.332031 26.261719 49.253906 26.1875 49.371094 C 26.113281 49.488281 26.3125 49.753906 26.640625 49.96875 C 26.96875 50.179688 27.292969 50.257812 27.367188 50.140625 C 27.445312 50.023438 27.242188 49.753906 26.917969 49.542969 " fill-opacity="1" fill-rule="nonzero"/><path fill="#de5c3e" d="M 29.714844 42.789062 C 30.175781 44.175781 31.417969 47.980469 31.0625 48.445312 C 30.707031 48.90625 28.867188 47.980469 28.867188 47.980469 L 29.21875 43.003906 L 29.714844 42.789062 " fill-opacity="1" fill-rule="nonzero"/><path fill="#f7976b" d="M 29.253906 42.292969 C 29.714844 43.679688 30.957031 47.484375 30.601562 47.945312 C 30.246094 48.40625 28.40625 47.484375 28.40625 47.484375 L 28.757812 42.507812 L 29.253906 42.292969 " fill-opacity="1" fill-rule="nonzero"/><path fill="#49312a" d="M 27.171875 43.046875 C 27.140625 43.179688 27.121094 43.324219 27.121094 43.476562 C 27.121094 44.035156 27.367188 44.488281 27.667969 44.488281 C 27.972656 44.488281 28.21875 44.035156 28.21875 43.476562 C 28.21875 43.324219 28.199219 43.179688 28.164062 43.046875 L 27.171875 43.046875 " fill-opacity="1" fill-rule="nonzero"/><g clip-path="url(#0a121520d8)"><path fill="#f14892" d="M 194.574219 139.144531 L 0.300781 139.144531 C 0.300781 139.144531 49.023438 146.753906 103.296875 146.753906 C 157.566406 146.753906 194.574219 139.144531 194.574219 139.144531 " fill-opacity="1" fill-rule="nonzero"/></g></svg>