<svg xmlns="http://www.w3.org/2000/svg" xmlns:xlink="http://www.w3.org/1999/xlink" width="260" zoomAndPan="magnify" viewBox="0 0 194.87999 172.499995" height="230" preserveAspectRatio="xMidYMid meet" version="1.0"><defs><clipPath id="d1983b5721"><path d="M 0.222656 0 L 194.539062 0 L 194.539062 172 L 0.222656 172 Z M 0.222656 0 " clip-rule="nonzero"/></clipPath><clipPath id="8ac393d57a"><path d="M 69 22.203125 L 80 22.203125 L 80 27 L 69 27 Z M 69 22.203125 " clip-rule="nonzero"/></clipPath><clipPath id="ae4300bc40"><path d="M 101 22.203125 L 115 22.203125 L 115 27 L 101 27 Z M 101 22.203125 " clip-rule="nonzero"/></clipPath><clipPath id="b173b67275"><path d="M 101 22.203125 L 112 22.203125 L 112 27 L 101 27 Z M 101 22.203125 " clip-rule="nonzero"/></clipPath><clipPath id="7a707083e0"><path d="M 75 22.203125 L 80 22.203125 L 80 27 L 75 27 Z M 75 22.203125 " clip-rule="nonzero"/></clipPath><clipPath id="ece84bba1f"><path d="M 0.222656 142 L 194.539062 142 L 194.539062 150.082031 L 0.222656 150.082031 Z M 0.222656 142 " clip-rule="nonzero"/></clipPath></defs><g clip-path="url(#d1983b5721)"><path fill="#ffffff" d="M 0.222656 0 L 194.65625 0 L 194.65625 172 L 0.222656 172 Z M 0.222656 0 " fill-opacity="1" fill-rule="nonzero"/><path fill="#ffffff" d="M 0.222656 0 L 194.65625 0 L 194.65625 172 L 0.222656 172 Z M 0.222656 0 " fill-opacity="1" fill-rule="nonzero"/></g><path fill="#f7976b" d="M 38.769531 57.480469 C 38.945312 57.449219 39.007812 57 38.910156 56.480469 C 38.8125 55.957031 38.589844 55.5625 38.414062 55.597656 C 38.238281 55.632812 38.171875 56.078125 38.273438 56.601562 C 38.371094 57.121094 38.59375 57.515625 38.769531 57.480469 " fill-opacity="1" fill-rule="nonzero"/><path fill="#f7976b" d="M 39.1875 58.109375 C 39.210938 57.347656 38.910156 56.65625 38.519531 56.566406 C 38.128906 56.476562 37.792969 57.019531 37.769531 57.78125 C 37.75 58.542969 37.574219 59.515625 37.96875 59.605469 C 38.359375 59.699219 39.167969 58.871094 39.1875 58.109375 " fill-opacity="1" fill-rule="nonzero"/><path fill="#ad243d" d="M 27.648438 36.550781 C 24.535156 32.746094 19.066406 35.988281 19.066406 35.988281 C 12.519531 37.984375 14.363281 45.65625 14.363281 45.65625 C 14.042969 47.589844 12.898438 57.691406 21.609375 64.550781 L 28.667969 57.816406 C 30.890625 52.015625 30.765625 40.355469 27.648438 36.550781 " fill-opacity="1" fill-rule="nonzero"/><path fill="#8c1c33" d="M 26.089844 42.992188 C 21.792969 42.992188 18.3125 40.054688 18.3125 36.429688 C 18.3125 36.371094 18.320312 36.316406 18.324219 36.257812 C 12.667969 38.589844 14.363281 45.65625 14.363281 45.65625 C 14.042969 47.589844 12.898438 57.691406 21.609375 64.550781 L 28.667969 57.816406 C 30.175781 53.886719 30.601562 47.265625 29.75 42.21875 C 28.660156 42.710938 27.414062 42.992188 26.089844 42.992188 " fill-opacity="1" fill-rule="nonzero"/><path fill="#7fb5ab" d="M 36.320312 67.3125 C 34.894531 62.367188 29.546875 51.425781 28.386719 51.953125 C 27.226562 52.484375 28.902344 60.234375 29.757812 62.765625 C 30.613281 65.296875 30.339844 67.628906 31.390625 68.566406 C 32.441406 69.507812 36.761719 68.839844 36.320312 67.3125 " fill-opacity="1" fill-rule="nonzero"/><path fill="#4d5c65" d="M 35.597656 80.765625 C 35.121094 75.351562 31.144531 68.167969 31.144531 68.167969 L 23.769531 68.042969 C 23.769531 68.042969 17.667969 78.144531 17.160156 81.636719 C 14.597656 99.222656 22.117188 123.546875 28.347656 140.511719 L 28.984375 140.261719 C 28.984375 140.261719 38.140625 109.828125 35.597656 80.765625 " fill-opacity="1" fill-rule="nonzero"/><path fill="#52636a" d="M 31.144531 68.167969 L 23.769531 68.042969 C 23.769531 68.042969 17.667969 78.144531 17.160156 81.636719 C 16.726562 84.605469 16.589844 87.769531 16.675781 91.050781 C 20.484375 102.40625 27.351562 110.011719 33.183594 108.667969 C 33.882812 108.507812 34.539062 108.21875 35.148438 107.824219 C 36.03125 99.34375 36.402344 89.984375 35.597656 80.765625 C 35.121094 75.351562 31.144531 68.167969 31.144531 68.167969 " fill-opacity="1" fill-rule="nonzero"/><path fill="#3d4950" d="M 28.773438 82.542969 L 24.832031 82.65625 L 28.121094 84.242188 C 28.121094 84.242188 27.140625 125.453125 28.765625 140.816406 L 29.3125 84.410156 L 33.425781 80.621094 L 28.773438 82.542969 " fill-opacity="1" fill-rule="nonzero"/><path fill="#3d4950" d="M 21.074219 93.265625 C 20.347656 74.242188 33.234375 75.015625 34.289062 75.261719 C 32.964844 71.457031 31.144531 68.167969 31.144531 68.167969 L 23.769531 68.042969 C 23.769531 68.042969 17.667969 78.144531 17.160156 81.636719 C 14.597656 99.222656 22.117188 123.546875 28.347656 140.511719 L 28.984375 140.261719 C 28.984375 140.261719 29.101562 139.867188 29.304688 139.136719 C 25.535156 128.375 21.597656 107.027344 21.074219 93.265625 " fill-opacity="1" fill-rule="nonzero"/><path fill="#7fb5ab" d="M 19.574219 74.902344 C 26.695312 76.398438 34.070312 73.28125 34.070312 73.28125 L 30.253906 62.183594 C 30.253906 62.183594 31.527344 61.933594 31.65625 61.433594 C 31.78125 60.933594 28.601562 51.953125 28.601562 51.953125 L 23.390625 50.457031 L 18.175781 52.578125 C 18.175781 52.578125 19.703125 59.6875 20.71875 63.679688 C 21.738281 67.667969 19.574219 74.902344 19.574219 74.902344 " fill-opacity="1" fill-rule="nonzero"/><path fill="#69a298" d="M 30.253906 62.183594 C 30.253906 62.183594 31.527344 61.933594 31.65625 61.433594 C 31.660156 61.414062 31.65625 61.375 31.652344 61.332031 C 28.914062 61.730469 23.730469 62.464844 23.089844 62.398438 C 22.292969 62.320312 20.996094 57.554688 18.414062 52.480469 L 18.175781 52.578125 C 18.175781 52.578125 19.703125 59.6875 20.71875 63.679688 C 21.738281 67.667969 19.574219 74.902344 19.574219 74.902344 C 22.152344 75.445312 24.757812 75.382812 27.039062 75.082031 C 27.289062 72.722656 28.140625 71.039062 29.464844 70.726562 C 30.777344 70.421875 32.265625 71.527344 33.519531 73.496094 C 33.875 73.363281 34.070312 73.28125 34.070312 73.28125 L 30.253906 62.183594 " fill-opacity="1" fill-rule="nonzero"/><path fill="#5c9288" d="M 22.695312 62.054688 C 21.878906 60.882812 20.644531 57.390625 18.445312 53.074219 L 18.210938 53.171875 C 18.210938 53.171875 19.703125 59.6875 20.71875 63.679688 C 21.167969 65.441406 20.996094 67.839844 20.667969 69.96875 C 20.964844 70.199219 23.277344 66.488281 22.695312 62.054688 " fill-opacity="1" fill-rule="nonzero"/><path fill="#7fb5ab" d="M 16.691406 70.039062 C 16.144531 64.929688 16.949219 52.496094 18.175781 52.578125 C 19.40625 52.660156 20.761719 60.476562 20.929688 63.136719 C 21.101562 65.796875 22.203125 67.878906 21.609375 69.125 C 21.015625 70.371094 16.863281 71.617188 16.691406 70.039062 " fill-opacity="1" fill-rule="nonzero"/><path fill="#69a298" d="M 20.929688 63.136719 C 20.839844 61.726562 20.417969 58.871094 19.859375 56.480469 C 19.941406 57.019531 20.015625 57.574219 20.074219 58.144531 C 20.582031 62.847656 20.101562 66.753906 19 66.871094 C 18.179688 66.960938 17.246094 64.914062 16.613281 61.914062 C 16.472656 64.953125 16.480469 68.050781 16.691406 70.039062 C 16.863281 71.617188 21.015625 70.371094 21.609375 69.125 C 22.203125 67.878906 21.101562 65.796875 20.929688 63.136719 " fill-opacity="1" fill-rule="nonzero"/><path fill="#52636a" d="M 34.78125 63.324219 L 33.632812 63.589844 C 33.632812 63.589844 30.988281 66.5625 32.839844 69.351562 L 33.894531 69.203125 L 33.523438 70.519531 C 33.523438 70.519531 35.59375 71.59375 36.8125 69.261719 C 38.03125 66.929688 36.78125 63.667969 36.78125 63.667969 L 34.78125 63.324219 " fill-opacity="1" fill-rule="nonzero"/><path fill="#f7976b" d="M 33.753906 68.972656 C 36.878906 69.570312 38.25 66.332031 38.136719 58.082031 C 38.113281 56.347656 31.222656 68.484375 33.753906 68.972656 " fill-opacity="1" fill-rule="nonzero"/><path fill="#ea744b" d="M 38.136719 58.460938 C 38.136719 58.332031 38.136719 58.214844 38.136719 58.082031 C 38.113281 56.347656 31.222656 68.484375 33.753906 68.972656 C 34.855469 69.183594 35.734375 68.90625 36.410156 68.109375 C 36.382812 66.898438 37.472656 61.203125 38.136719 58.460938 " fill-opacity="1" fill-rule="nonzero"/><path fill="#d5bbad" d="M 27.140625 55.410156 L 38.839844 54.992188 L 39.128906 55.445312 L 24.753906 70.796875 L 24.527344 70.523438 L 27.140625 55.410156 " fill-opacity="1" fill-rule="nonzero"/><path fill="#efdbd0" d="M 27.457031 55.820312 L 39.15625 55.40625 L 33.730469 69.457031 L 24.746094 70.789062 L 27.457031 55.820312 " fill-opacity="1" fill-rule="nonzero"/><path fill="#f8ece1" d="M 31.28125 60.175781 C 32.804688 61.648438 34.390625 62.871094 35.917969 63.796875 L 39.15625 55.40625 L 27.617188 55.816406 C 28.578125 57.261719 29.8125 58.753906 31.28125 60.175781 " fill-opacity="1" fill-rule="nonzero"/><path fill="#52636a" d="M 22.320312 66.394531 L 21.335938 65.636719 C 21.335938 65.636719 16.898438 65.308594 15.554688 68.46875 L 16.375 69.226562 L 14.929688 69.722656 C 14.929688 69.722656 15.289062 72.027344 18.214844 71.597656 C 21.140625 71.171875 23.308594 68.207031 23.308594 68.207031 L 22.320312 66.394531 " fill-opacity="1" fill-rule="nonzero"/><path fill="#f7976b" d="M 17.710938 70.953125 C 16.082031 70.847656 17.285156 67.128906 19.152344 66.546875 C 21.015625 65.964844 34.917969 65.214844 35.597656 65.550781 C 36.273438 65.882812 18.980469 71.039062 17.710938 70.953125 " fill-opacity="1" fill-rule="nonzero"/><path fill="#ea744b" d="M 31.652344 66.972656 C 26.21875 68.289062 21.582031 68.414062 21.300781 67.246094 C 21.226562 66.929688 21.488281 66.550781 22.007812 66.136719 C 20.628906 66.273438 19.578125 66.414062 19.152344 66.546875 C 17.285156 67.128906 16.082031 70.847656 17.710938 70.953125 C 18.664062 71.015625 28.601562 68.140625 33.246094 66.550781 C 32.730469 66.699219 32.199219 66.839844 31.652344 66.972656 " fill-opacity="1" fill-rule="nonzero"/><path fill="#69a298" d="M 28.390625 52.652344 C 28.390625 52.363281 28.296875 52.085938 28.140625 51.820312 L 23.390625 50.457031 L 18.175781 52.578125 C 17.796875 52.550781 17.460938 53.710938 17.191406 55.476562 C 18.300781 55.773438 19.597656 55.945312 20.984375 55.945312 C 25.074219 55.945312 28.390625 54.472656 28.390625 52.652344 " fill-opacity="1" fill-rule="nonzero"/><path fill="#52636a" d="M 20.59375 51.519531 C 21.925781 54.949219 23.261719 55.570312 23.261719 55.570312 L 24.152344 53.511719 L 26.441406 54.636719 L 25.613281 51.019531 L 22.691406 50.144531 L 20.59375 51.519531 " fill-opacity="1" fill-rule="nonzero"/><path fill="#de5c3e" d="M 21.292969 51.265625 C 20.71875 47.589844 20.972656 45.34375 20.972656 45.34375 L 23.769531 45.65625 L 24.851562 51.019531 L 24.152344 52.578125 L 21.292969 51.265625 " fill-opacity="1" fill-rule="nonzero"/><path fill="#f7976b" d="M 25.839844 50.578125 C 22.324219 49.582031 20.804688 47.839844 20.378906 46.675781 C 19.957031 45.507812 18.175781 38.234375 23.21875 38.066406 C 28.265625 37.902344 28.042969 43.714844 28.007812 45.46875 C 27.96875 47.714844 25.839844 50.578125 25.839844 50.578125 " fill-opacity="1" fill-rule="nonzero"/><path fill="#f7976b" d="M 19.835938 46.046875 C 19.121094 43.941406 17.546875 42.804688 17.210938 44.175781 C 16.871094 45.546875 18.097656 46.792969 19.199219 46.960938 C 20.304688 47.125 20.089844 46.792969 19.835938 46.046875 " fill-opacity="1" fill-rule="nonzero"/><path fill="#eee7d2" d="M 29.484375 143.1875 L 21.511719 143.1875 C 21.511719 143.1875 22.476562 141.957031 23.964844 141.871094 C 25.453125 141.785156 26.855469 139.324219 28.433594 139.234375 C 30.011719 139.148438 29.484375 143.1875 29.484375 143.1875 " fill-opacity="1" fill-rule="nonzero"/><path fill="#eee7d2" d="M 28.40625 143.1875 L 34.480469 143.1875 C 34.480469 143.1875 33.910156 141.847656 32.785156 141.753906 C 31.664062 141.65625 30.921875 138.980469 29.734375 138.886719 C 28.542969 138.789062 28.40625 143.1875 28.40625 143.1875 " fill-opacity="1" fill-rule="nonzero"/><path fill="#ce3b3f" d="M 19.425781 45.796875 C 18.949219 44.386719 17.894531 43.625 17.667969 44.542969 C 17.441406 45.460938 18.261719 46.296875 19 46.40625 C 19.738281 46.519531 19.59375 46.296875 19.425781 45.796875 " fill-opacity="1" fill-rule="nonzero"/><path fill="#f7976b" d="M 19.617188 46.316406 C 19.332031 45.476562 18.703125 45.019531 18.566406 45.570312 C 18.433594 46.117188 18.921875 46.613281 19.363281 46.679688 C 19.804688 46.746094 19.71875 46.613281 19.617188 46.316406 " fill-opacity="1" fill-rule="nonzero"/><path fill="#452f2b" d="M 23.589844 46.824219 L 26.21875 46.4375 C 26.21875 46.4375 26.0625 48.296875 25.125 48.347656 C 24.191406 48.398438 23.589844 46.824219 23.589844 46.824219 " fill-opacity="1" fill-rule="nonzero"/><path fill="#fffaec" d="M 25.5625 47.164062 C 25.652344 46.867188 25.675781 46.589844 25.675781 46.589844 L 23.882812 46.855469 C 23.882812 46.855469 23.980469 47.113281 24.15625 47.371094 L 25.5625 47.164062 " fill-opacity="1" fill-rule="nonzero"/><path fill="#de5c3e" d="M 24.5625 43.769531 L 24.566406 44.105469 C 24.84375 44.261719 25.214844 44.511719 25.238281 44.699219 C 25.265625 44.941406 24.984375 45.078125 24.582031 45.113281 L 24.582031 45.246094 C 25.132812 45.265625 25.558594 45.085938 25.523438 44.714844 C 25.484375 44.339844 24.5625 43.769531 24.5625 43.769531 " fill-opacity="1" fill-rule="nonzero"/><path fill="#452f2b" d="M 22.957031 43.691406 C 22.925781 43.308594 22.617188 43.015625 22.269531 43.046875 C 21.921875 43.074219 21.664062 43.410156 21.699219 43.796875 C 21.730469 44.183594 22.035156 44.472656 22.386719 44.445312 C 22.734375 44.417969 22.988281 44.078125 22.957031 43.691406 " fill-opacity="1" fill-rule="nonzero"/><path fill="#452f2b" d="M 26.984375 43.089844 C 26.949219 42.703125 26.644531 42.414062 26.296875 42.441406 C 25.949219 42.472656 25.691406 42.808594 25.722656 43.195312 C 25.753906 43.582031 26.0625 43.871094 26.410156 43.839844 C 26.757812 43.8125 27.015625 43.476562 26.984375 43.089844 " fill-opacity="1" fill-rule="nonzero"/><path fill="#452f2b" d="M 22.351562 43.433594 C 22.679688 43.40625 22.980469 43.484375 23.21875 43.628906 C 23.09375 43.171875 22.695312 42.851562 22.25 42.890625 C 21.769531 42.929688 21.414062 43.367188 21.414062 43.890625 C 21.625 43.644531 21.960938 43.46875 22.351562 43.433594 " fill-opacity="1" fill-rule="nonzero"/><path fill="#452f2b" d="M 26.359375 42.707031 C 26.6875 42.679688 26.988281 42.757812 27.226562 42.902344 C 27.101562 42.441406 26.703125 42.121094 26.257812 42.160156 C 25.777344 42.199219 25.421875 42.640625 25.421875 43.164062 C 25.632812 42.914062 25.96875 42.738281 26.359375 42.707031 " fill-opacity="1" fill-rule="nonzero"/><path fill="#ad243d" d="M 20.519531 43.503906 C 21.015625 42.488281 22.617188 42.296875 22.617188 42.296875 L 22.277344 41.246094 C 21.136719 41.398438 20.636719 42.242188 20.519531 43.503906 " fill-opacity="1" fill-rule="nonzero"/><path fill="#ad243d" d="M 27.578125 41.726562 C 26.792969 40.941406 25.335938 41.371094 25.335938 41.371094 L 25.261719 40.238281 C 26.304688 39.949219 27.035156 40.5625 27.578125 41.726562 " fill-opacity="1" fill-rule="nonzero"/><path fill="#f7976b" d="M 32.234375 65.578125 C 33.804688 65.074219 35.585938 63.554688 36.117188 63.847656 C 36.652344 64.140625 36.332031 65.390625 35.824219 65.738281 C 35.320312 66.085938 32.765625 66.726562 32.765625 66.726562 L 32.234375 65.578125 " fill-opacity="1" fill-rule="nonzero"/><path fill="#f7976b" d="M 33.589844 65.277344 C 34.496094 64.105469 35.398438 62.328125 35.738281 62.238281 C 36.074219 62.148438 35.152344 64.421875 35.152344 64.421875 L 33.589844 65.277344 " fill-opacity="1" fill-rule="nonzero"/><path fill="#ea744b" d="M 38.179688 59.304688 C 38.296875 59.195312 38.292969 58.964844 38.167969 58.789062 C 38.039062 58.613281 37.839844 58.558594 37.71875 58.664062 C 37.597656 58.773438 37.601562 59.003906 37.730469 59.179688 C 37.855469 59.355469 38.058594 59.414062 38.179688 59.304688 " fill-opacity="1" fill-rule="nonzero"/><path fill="#ea744b" d="M 38.109375 58.925781 C 38.230469 58.816406 38.195312 58.546875 38.027344 58.324219 C 37.859375 58.101562 37.625 58.007812 37.503906 58.117188 C 37.386719 58.226562 37.421875 58.492188 37.589844 58.714844 C 37.757812 58.941406 37.988281 59.03125 38.109375 58.925781 " fill-opacity="1" fill-rule="nonzero"/><path fill="#f7976b" d="M 38.5 58.484375 C 38.433594 58.339844 38.195312 58.304688 37.96875 58.410156 C 37.742188 58.519531 37.613281 58.722656 37.679688 58.871094 C 37.75 59.015625 37.988281 59.050781 38.214844 58.941406 C 38.441406 58.835938 38.570312 58.632812 38.5 58.484375 " fill-opacity="1" fill-rule="nonzero"/><path fill="#f7976b" d="M 36.8125 57.003906 C 36.773438 57.164062 37.191406 57.402344 37.746094 57.535156 C 38.300781 57.671875 38.78125 57.65625 38.816406 57.496094 C 38.855469 57.339844 38.398438 57.222656 37.847656 57.085938 C 37.292969 56.953125 36.847656 56.847656 36.8125 57.003906 " fill-opacity="1" fill-rule="nonzero"/><path fill="#f7976b" d="M 38.691406 57.9375 C 38.652344 57.777344 38.34375 57.71875 38 57.804688 C 37.660156 57.886719 37.410156 58.085938 37.449219 58.242188 C 37.488281 58.398438 37.796875 58.460938 38.140625 58.375 C 38.484375 58.289062 38.730469 58.09375 38.691406 57.9375 " fill-opacity="1" fill-rule="nonzero"/><path fill="#ea744b" d="M 104.441406 70.007812 C 104.199219 69.609375 103.777344 69.429688 103.496094 69.601562 C 103.210938 69.773438 103.179688 70.234375 103.421875 70.632812 C 103.660156 71.027344 104.085938 71.207031 104.367188 71.035156 C 104.648438 70.863281 104.683594 70.402344 104.441406 70.007812 " fill-opacity="1" fill-rule="nonzero"/><path fill="#eb2a6b" d="M 54.136719 73.339844 L 52.179688 73.339844 L 52.179688 75.5625 L 54.398438 75.5625 L 54.398438 73.601562 C 54.398438 73.457031 54.28125 73.339844 54.136719 73.339844 " fill-opacity="1" fill-rule="nonzero"/><path fill="#eb2a6b" d="M 57.25 75.8125 L 55.289062 75.8125 L 55.289062 78.035156 L 57.511719 78.035156 L 57.511719 76.074219 C 57.511719 75.929688 57.394531 75.8125 57.25 75.8125 " fill-opacity="1" fill-rule="nonzero"/><path fill="#eb2a6b" d="M 59.375 77.257812 L 57.417969 77.257812 L 57.417969 79.480469 L 59.636719 79.480469 L 59.636719 77.519531 C 59.636719 77.375 59.519531 77.257812 59.375 77.257812 " fill-opacity="1" fill-rule="nonzero"/><path fill="#694957" d="M 61.402344 80.179688 L 51.167969 72.3125 C 50.5625 71.851562 49.695312 72.28125 49.695312 73.039062 L 49.695312 81.082031 C 49.695312 81.589844 50.105469 82 50.609375 82 L 60.84375 82 C 61.351562 82 61.761719 81.589844 61.761719 81.082031 L 61.761719 80.90625 C 61.761719 80.621094 61.628906 80.351562 61.402344 80.179688 " fill-opacity="1" fill-rule="nonzero"/><path fill="#c9be9e" d="M 109.726562 24.433594 L 70.96875 24.433594 L 70.96875 25.519531 L 109.726562 25.519531 L 109.726562 24.433594 " fill-opacity="1" fill-rule="nonzero"/><path fill="#eee7d2" d="M 99.550781 24.433594 L 82.660156 24.433594 L 82.660156 25.519531 L 99.550781 25.519531 L 99.550781 24.433594 " fill-opacity="1" fill-rule="nonzero"/><path fill="#eee7d2" d="M 73.171875 24.433594 L 71.042969 24.433594 L 71.042969 142.824219 L 77.269531 142.824219 L 73.171875 24.433594 " fill-opacity="1" fill-rule="nonzero"/><path fill="#4f3340" d="M 74.800781 24.433594 L 72.675781 24.433594 L 72.675781 142.824219 L 78.902344 142.824219 L 74.800781 24.433594 " fill-opacity="1" fill-rule="nonzero"/><path fill="#4f3340" d="M 72.675781 102.011719 L 77.550781 103.792969 L 76.019531 59.636719 L 72.675781 58.414062 L 72.675781 102.011719 " fill-opacity="1" fill-rule="nonzero"/><path fill="#4f3340" d="M 79.101562 24.433594 L 89.164062 60.957031 L 88.5 62.09375 L 75.941406 24.433594 L 79.101562 24.433594 " fill-opacity="1" fill-rule="nonzero"/><path fill="#3b2730" d="M 80.601562 29.882812 L 79.101562 24.433594 L 75.941406 24.433594 L 79.347656 34.644531 C 79.699219 32.867188 80.125 31.257812 80.601562 29.882812 " fill-opacity="1" fill-rule="nonzero"/><path fill="#3b2730" d="M 85.101562 46.21875 C 84.816406 47.28125 84.5 48.246094 84.164062 49.097656 L 88.5 62.097656 L 89.164062 60.957031 L 85.101562 46.21875 " fill-opacity="1" fill-rule="nonzero"/><path fill="#8e233d" d="M 104.941406 36.988281 C 104.636719 33.03125 99.398438 32.878906 96.136719 35.3125 L 96.589844 36.605469 C 99.703125 37.367188 99.324219 43.300781 103.121094 46.269531 C 106.914062 49.238281 109.800781 45.890625 109.800781 45.890625 C 107.144531 45.050781 105.246094 40.945312 104.941406 36.988281 " fill-opacity="1" fill-rule="nonzero"/><path fill="#ac2f4c" d="M 104.941406 36.988281 C 104.914062 36.625 104.84375 36.296875 104.738281 35.996094 C 103.300781 37.132812 102.660156 39.75 103.296875 42.53125 C 103.835938 44.882812 105.144531 46.734375 106.617188 47.484375 C 108.550781 47.335938 109.800781 45.890625 109.800781 45.890625 C 107.144531 45.054688 105.246094 40.945312 104.941406 36.988281 " fill-opacity="1" fill-rule="nonzero"/><path fill="#ac2f4c" d="M 97.273438 36.988281 C 96.589844 31.585938 89.683594 30.367188 87.554688 31.738281 C 85.167969 33.277344 83.078125 37.214844 85.886719 40.410156 L 91.960938 45.660156 C 91.960938 45.660156 97.863281 41.640625 97.273438 36.988281 " fill-opacity="1" fill-rule="nonzero"/><path fill="#8e233d" d="M 97.273438 36.988281 C 96.949219 34.433594 95.238281 32.816406 93.296875 31.964844 C 93.605469 32.429688 93.78125 32.945312 93.78125 33.488281 C 93.78125 35.546875 91.300781 37.214844 88.238281 37.214844 C 86.839844 37.214844 85.566406 36.863281 84.59375 36.289062 C 84.402344 37.644531 84.726562 39.089844 85.886719 40.410156 L 91.960938 45.660156 C 91.960938 45.660156 97.863281 41.636719 97.273438 36.988281 " fill-opacity="1" fill-rule="nonzero"/><path fill="#f7976b" d="M 80.441406 59.765625 C 82.242188 55.554688 86.242188 49.6875 87.707031 48.550781 C 89.175781 47.417969 90.597656 49.242188 90.21875 50.933594 C 89.84375 52.628906 83.121094 61.773438 81.855469 62.367188 C 80.589844 62.957031 79.738281 61.410156 80.441406 59.765625 " fill-opacity="1" fill-rule="nonzero"/><path fill="#ea744b" d="M 89.3125 48.402344 C 89.320312 48.617188 87.878906 48.53125 87.746094 48.703125 C 85.847656 51.175781 82.152344 59.890625 80.886719 60.484375 C 80.644531 60.597656 80.417969 60.628906 80.214844 60.601562 C 80.050781 61.882812 80.808594 62.855469 81.855469 62.367188 C 83.121094 61.773438 89.84375 52.628906 90.21875 50.933594 C 90.449219 49.90625 90.015625 48.839844 89.3125 48.402344 " fill-opacity="1" fill-rule="nonzero"/><path fill="#f7976b" d="M 82.457031 60.90625 C 79.324219 56.03125 72.390625 48.902344 71.53125 49.148438 C 70.671875 49.394531 77.78125 60.675781 79.621094 61.640625 C 81.460938 62.601562 83.265625 62.164062 82.457031 60.90625 " fill-opacity="1" fill-rule="nonzero"/><path fill="#ea744b" d="M 82.695312 60.878906 C 82.472656 60.527344 82.152344 60.128906 81.890625 59.757812 C 81.296875 60.023438 80.25 60.132812 79.351562 59.769531 C 78.207031 59.304688 74.871094 55.214844 72.539062 51.910156 C 74.414062 55.515625 78.1875 61.429688 79.472656 62.105469 C 81.3125 63.070312 83.507812 62.136719 82.695312 60.878906 " fill-opacity="1" fill-rule="nonzero"/><path fill="#e64938" d="M 84.898438 139.09375 C 84.371094 139.09375 83.894531 138.726562 83.785156 138.1875 L 72.671875 84.628906 C 72.445312 83.542969 71.476562 82.753906 70.371094 82.753906 L 39.347656 82.753906 C 38.71875 82.753906 38.207031 82.242188 38.207031 81.613281 C 38.207031 80.980469 38.71875 80.472656 39.347656 80.472656 L 70.371094 80.472656 C 72.550781 80.472656 74.457031 82.023438 74.898438 84.164062 L 86.015625 137.722656 C 86.140625 138.339844 85.746094 138.941406 85.128906 139.070312 C 85.050781 139.085938 84.976562 139.09375 84.898438 139.09375 " fill-opacity="1" fill-rule="nonzero"/><path fill="#342329" d="M 125.003906 135.960938 C 125.046875 133.234375 122.851562 131.003906 120.132812 131.003906 L 60.039062 131.003906 C 57.261719 130.882812 54.949219 133.101562 54.949219 135.882812 C 54.949219 138.582031 57.132812 140.769531 59.824219 140.769531 L 120.132812 140.769531 C 122.792969 140.769531 124.960938 138.628906 125.003906 135.960938 " fill-opacity="1" fill-rule="nonzero"/><path fill="#c9be9e" d="M 49.636719 94.394531 L 58.0625 82.691406 L 48.054688 82.183594 L 48.054688 94.257812 L 49.636719 94.394531 " fill-opacity="1" fill-rule="nonzero"/><path fill="#c9be9e" d="M 57.820312 124.03125 L 49.066406 110.257812 L 48.6875 126.617188 L 57.71875 126.617188 L 57.820312 124.03125 " fill-opacity="1" fill-rule="nonzero"/><path fill="#d7ceae" d="M 50.316406 82.03125 L 45.980469 81.15625 L 45.980469 127 L 50.316406 128.367188 L 50.316406 82.03125 " fill-opacity="1" fill-rule="nonzero"/><path fill="#d7ceae" d="M 50.316406 93.460938 L 50.316406 82.03125 L 45.980469 81.15625 L 45.980469 92.160156 L 50.316406 93.460938 " fill-opacity="1" fill-rule="nonzero"/><path fill="#faf4e5" d="M 46.3125 81.15625 L 35.601562 81.15625 L 33.394531 127 L 46.3125 127 L 46.3125 81.15625 " fill-opacity="1" fill-rule="nonzero"/><path fill="#eee7d2" d="M 46.3125 96.835938 L 46.3125 81.15625 L 35.601562 81.15625 L 34.757812 98.707031 L 46.3125 96.835938 " fill-opacity="1" fill-rule="nonzero"/><path fill="#eee7d2" d="M 33.726562 120.09375 L 33.394531 127 L 46.3125 127 L 46.3125 118.058594 L 33.726562 120.09375 " fill-opacity="1" fill-rule="nonzero"/><path fill="#342329" d="M 67.210938 128.976562 L 31.640625 128.976562 L 31.640625 137.308594 L 67.210938 137.308594 L 67.210938 128.976562 " fill-opacity="1" fill-rule="nonzero"/><path fill="#5f414f" d="M 57.871094 128.976562 L 53.886719 128.976562 L 53.886719 137.308594 L 57.871094 137.308594 L 57.871094 128.976562 " fill-opacity="1" fill-rule="nonzero"/><path fill="#5f414f" d="M 67.914062 128.976562 L 63.925781 128.976562 L 63.925781 137.308594 L 67.914062 137.308594 L 67.914062 128.976562 " fill-opacity="1" fill-rule="nonzero"/><path fill="#4f3340" d="M 50.375 128.976562 L 46.390625 128.976562 L 46.390625 137.308594 L 50.375 137.308594 L 50.375 128.976562 " fill-opacity="1" fill-rule="nonzero"/><path fill="#4f3340" d="M 42.515625 128.976562 L 38.53125 128.976562 L 38.53125 137.308594 L 42.515625 137.308594 L 42.515625 128.976562 " fill-opacity="1" fill-rule="nonzero"/><path fill="#4f3340" d="M 35 128.976562 L 31.015625 128.976562 L 31.015625 137.308594 L 35 137.308594 L 35 128.976562 " fill-opacity="1" fill-rule="nonzero"/><path fill="#785468" d="M 99.027344 135.363281 L 52.179688 133.296875 L 52.179688 132.246094 L 28.074219 132.246094 L 28.074219 132.273438 C 25.351562 132.460938 23.175781 134.738281 23.175781 137.539062 C 23.175781 140.457031 25.535156 142.824219 28.449219 142.824219 L 98.863281 142.824219 C 100.921875 142.824219 102.589844 141.152344 102.589844 139.089844 C 102.589844 137.09375 101.019531 135.449219 99.027344 135.363281 " fill-opacity="1" fill-rule="nonzero"/><path fill="#5f414f" d="M 38.09375 137.539062 C 38.09375 134.738281 40.269531 132.460938 42.992188 132.273438 L 42.992188 132.246094 L 35.132812 132.246094 L 35.132812 132.273438 C 32.410156 132.460938 30.238281 134.738281 30.238281 137.539062 C 30.238281 140.457031 32.597656 142.824219 35.507812 142.824219 L 43.367188 142.824219 C 40.457031 142.824219 38.09375 140.457031 38.09375 137.539062 " fill-opacity="1" fill-rule="nonzero"/><path fill="#4f3340" d="M 125.988281 135.746094 L 121.417969 135.746094 L 121.417969 140.464844 L 125.988281 140.464844 C 126.144531 140.464844 126.273438 140.335938 126.273438 140.175781 L 126.273438 136.035156 C 126.273438 135.875 126.144531 135.746094 125.988281 135.746094 " fill-opacity="1" fill-rule="nonzero"/><path fill="#4f3340" d="M 123.542969 137.625 C 123.585938 134.675781 121.214844 132.261719 118.273438 132.261719 L 53.277344 132.261719 C 50.277344 132.128906 47.773438 134.53125 47.773438 137.539062 C 47.773438 140.457031 50.136719 142.824219 53.046875 142.824219 L 118.273438 142.824219 C 121.152344 142.824219 123.496094 140.507812 123.542969 137.625 " fill-opacity="1" fill-rule="nonzero"/><path fill="#eee7d2" d="M 50.261719 126.007812 L 29.933594 126.007812 C 28.488281 126.007812 27.3125 127.183594 27.3125 128.632812 C 27.3125 130.082031 28.488281 131.257812 29.933594 131.257812 L 50.261719 131.257812 C 50.921875 131.257812 51.457031 130.722656 51.457031 130.058594 L 51.457031 127.207031 C 51.457031 126.542969 50.921875 126.007812 50.261719 126.007812 " fill-opacity="1" fill-rule="nonzero"/><path fill="#d7ceae" d="M 41.835938 128.632812 C 41.835938 127.183594 43.007812 126.007812 44.453125 126.007812 L 35.230469 126.007812 C 33.78125 126.007812 32.609375 127.183594 32.609375 128.632812 C 32.609375 130.082031 33.78125 131.257812 35.230469 131.257812 L 44.453125 131.257812 C 43.007812 131.257812 41.835938 130.082031 41.835938 128.632812 " fill-opacity="1" fill-rule="nonzero"/><path fill="#d7ceae" d="M 67.363281 126.007812 L 50.507812 126.007812 C 49.0625 126.007812 47.886719 127.183594 47.886719 128.632812 C 47.886719 130.082031 49.0625 131.257812 50.507812 131.257812 L 67.363281 131.257812 C 68.789062 131.257812 69.953125 130.113281 69.980469 128.683594 C 70.007812 127.214844 68.828125 126.007812 67.363281 126.007812 " fill-opacity="1" fill-rule="nonzero"/><path fill="#4f3340" d="M 59.984375 83.382812 L 32.164062 83.382812 C 32.066406 83.382812 31.984375 83.460938 31.984375 83.5625 L 31.984375 85.480469 C 31.984375 85.582031 32.066406 85.664062 32.164062 85.664062 L 59.984375 85.664062 C 60.085938 85.664062 60.167969 85.582031 60.167969 85.480469 L 60.167969 83.5625 C 60.167969 83.460938 60.085938 83.382812 59.984375 83.382812 " fill-opacity="1" fill-rule="nonzero"/><path fill="#eee7d2" d="M 48.953125 71.226562 L 29.25 71.226562 L 29.25 84.808594 L 48.953125 84.808594 L 48.953125 71.226562 " fill-opacity="1" fill-rule="nonzero"/><path fill="#faf4e5" d="M 48.953125 73.308594 L 48.953125 71.226562 L 29.25 71.226562 L 29.25 80.898438 L 48.953125 73.308594 " fill-opacity="1" fill-rule="nonzero"/><path fill="#c9be9e" d="M 64.097656 82.867188 L 48.953125 71.226562 L 48.953125 84.808594 L 64.097656 84.808594 L 64.097656 82.867188 " fill-opacity="1" fill-rule="nonzero"/><path fill="#d3a464" d="M 86.113281 69.628906 C 84.179688 81.839844 91.085938 101.925781 92.792969 103.183594 C 94.503906 104.4375 116.597656 110.03125 116.597656 110.03125 L 116.367188 109.230469 L 98.261719 97.820312 C 98.261719 97.820312 99.628906 81.15625 99.171875 74.421875 C 98.714844 67.6875 94.730469 63.808594 94.730469 63.808594 L 86.113281 69.628906 " fill-opacity="1" fill-rule="nonzero"/><path fill="#f3d092" d="M 96.058594 100.746094 C 94.386719 99.519531 86.988281 80.28125 88.503906 68.011719 L 86.113281 69.628906 C 84.179688 81.839844 91.085938 101.925781 92.796875 103.183594 C 94.203125 104.21875 109.488281 108.207031 114.792969 109.570312 C 108.84375 107.011719 97.347656 101.695312 96.058594 100.746094 " fill-opacity="1" fill-rule="nonzero"/><path fill="#deb374" d="M 87.023438 69.855469 C 87.402344 74.648438 88.542969 79.214844 88.542969 79.214844 L 90.898438 75.105469 L 90.898438 69.25 L 87.023438 69.855469 " fill-opacity="1" fill-rule="nonzero"/><path fill="#deb374" d="M 117.886719 107.492188 C 119.769531 109.914062 119.296875 115.355469 119.296875 115.355469 C 119.296875 115.355469 117.578125 111.15625 115.933594 110.183594 C 114.292969 109.207031 117.886719 107.492188 117.886719 107.492188 " fill-opacity="1" fill-rule="nonzero"/><path fill="#f3d092" d="M 75.960938 130.289062 C 72.949219 129.726562 69.707031 125.339844 69.707031 125.339844 C 69.707031 125.339844 73.769531 127.339844 75.644531 126.980469 C 77.515625 126.617188 75.960938 130.289062 75.960938 130.289062 " fill-opacity="1" fill-rule="nonzero"/><path fill="#f3d092" d="M 97.882812 63.542969 L 88.238281 64.152344 C 88.238281 64.152344 88.125 70.882812 88.011719 74.308594 C 87.898438 77.730469 79.472656 112.085938 75.257812 127.835938 L 75.828125 128.0625 C 75.828125 128.0625 99.894531 83.78125 100.917969 77.160156 C 101.941406 70.542969 97.882812 63.542969 97.882812 63.542969 " fill-opacity="1" fill-rule="nonzero"/><path fill="#deb374" d="M 97.882812 63.542969 L 88.238281 64.152344 C 88.238281 64.152344 88.226562 64.890625 88.207031 66 L 94.617188 65.59375 C 94.617188 65.59375 96.628906 72.671875 95.605469 79.292969 C 94.722656 84.988281 79.511719 118.503906 75.277344 127.753906 C 75.273438 127.78125 75.265625 127.808594 75.257812 127.835938 L 75.828125 128.0625 C 75.828125 128.0625 99.894531 83.78125 100.917969 77.160156 C 101.941406 70.542969 97.882812 63.542969 97.882812 63.542969 " fill-opacity="1" fill-rule="nonzero"/><path fill="#4f3340" d="M 102.929688 24.433594 L 95.757812 61.066406 L 96.554688 62.210938 L 106.234375 24.433594 L 102.929688 24.433594 " fill-opacity="1" fill-rule="nonzero"/><path fill="#3b2730" d="M 101.878906 29.796875 L 104.859375 29.796875 L 106.234375 24.433594 L 102.929688 24.433594 L 101.878906 29.796875 " fill-opacity="1" fill-rule="nonzero"/><path fill="#deb374" d="M 100.480469 70.238281 C 99.550781 66.425781 97.882812 63.542969 97.882812 63.542969 L 88.238281 64.152344 C 88.238281 64.152344 88.207031 65.996094 88.164062 68.246094 L 86.113281 69.628906 C 85.992188 70.390625 85.914062 71.1875 85.859375 72 C 87.613281 72.421875 89.636719 72.625 91.78125 72.535156 C 95.269531 72.390625 98.371094 71.511719 100.480469 70.238281 " fill-opacity="1" fill-rule="nonzero"/><path fill="#6877c4" d="M 96.515625 57.378906 C 96.417969 54.570312 96.878906 50.652344 97.027344 48.695312 C 97.082031 47.96875 96.675781 47.289062 96.007812 47 L 91.65625 45.089844 C 91.65625 45.089844 89.300781 47.222656 87.9375 48.476562 C 86.570312 49.730469 84.253906 55.820312 84.710938 56.847656 C 85.164062 57.875 86.988281 57.875 86.988281 57.875 C 89.765625 60.628906 87.023438 65.140625 85.621094 70.425781 C 93.023438 72.140625 100.460938 69.171875 100.460938 69.171875 C 99.703125 65.59375 96.632812 60.796875 96.515625 57.378906 " fill-opacity="1" fill-rule="nonzero"/><path fill="#5264ab" d="M 86.855469 70.667969 C 87.914062 70.203125 89.820312 69.894531 91.996094 69.894531 C 93.648438 69.894531 95.140625 70.074219 96.230469 70.359375 C 98.785156 69.839844 100.460938 69.171875 100.460938 69.171875 C 99.703125 65.59375 96.632812 60.796875 96.515625 57.378906 C 96.417969 54.570312 96.878906 50.652344 97.027344 48.695312 C 97.082031 47.96875 96.675781 47.289062 96.007812 47 L 95.589844 46.816406 C 95.398438 47.449219 95.167969 48.097656 94.894531 48.746094 C 92.636719 54.101562 88.371094 57.8125 85.367188 57.03125 C 85.117188 56.96875 84.894531 56.867188 84.679688 56.746094 C 84.6875 56.78125 84.695312 56.816406 84.710938 56.847656 C 85.164062 57.875 86.988281 57.875 86.988281 57.875 C 89.765625 60.628906 87.023438 65.140625 85.621094 70.425781 C 86.03125 70.523438 86.445312 70.601562 86.855469 70.667969 " fill-opacity="1" fill-rule="nonzero"/><path fill="#eee7d2" d="M 91.65625 45.089844 C 91.65625 45.089844 90.457031 46.175781 89.273438 47.253906 C 89.257812 48.179688 89.3125 49.273438 89.507812 50.492188 C 91.753906 49.5625 93.679688 48.285156 95.3125 46.695312 L 91.65625 45.089844 " fill-opacity="1" fill-rule="nonzero"/><path fill="#342329" d="M 97.84375 137.765625 C 97.84375 139.464844 99.21875 140.84375 100.917969 140.84375 C 102.617188 140.84375 103.992188 139.464844 103.992188 137.765625 C 103.992188 136.0625 102.617188 134.683594 100.917969 134.683594 C 99.21875 134.683594 97.84375 136.0625 97.84375 137.765625 " fill-opacity="1" fill-rule="nonzero"/><path fill="#e64938" d="M 99.988281 137.765625 C 99.988281 138.824219 100.847656 139.683594 101.90625 139.683594 C 102.964844 139.683594 103.820312 138.824219 103.820312 137.765625 C 103.820312 136.703125 102.964844 135.84375 101.90625 135.84375 C 100.847656 135.84375 99.988281 136.703125 99.988281 137.765625 " fill-opacity="1" fill-rule="nonzero"/><path fill="#e64938" d="M 101.980469 139.09375 C 101.449219 139.09375 100.976562 138.726562 100.867188 138.1875 L 89.734375 84.550781 C 89.519531 83.507812 88.59375 82.753906 87.53125 82.753906 L 56.429688 82.753906 C 55.800781 82.753906 55.289062 82.242188 55.289062 81.613281 C 55.289062 80.980469 55.800781 80.472656 56.429688 80.472656 L 87.53125 80.472656 C 89.667969 80.472656 91.53125 81.992188 91.964844 84.085938 L 103.09375 137.722656 C 103.222656 138.339844 102.828125 138.941406 102.210938 139.070312 C 102.132812 139.085938 102.054688 139.09375 101.980469 139.09375 " fill-opacity="1" fill-rule="nonzero"/><path fill="#de5c3e" d="M 89.757812 49.3125 C 90.0625 45.585938 90.0625 40.792969 90.0625 40.792969 L 92.792969 39.574219 L 93.628906 45.890625 C 93.289062 47.75 91.933594 48.839844 89.757812 49.3125 " fill-opacity="1" fill-rule="nonzero"/><path fill="#f7976b" d="M 87.269531 47.71875 C 84.261719 43.796875 84.296875 35.730469 85.59375 34.65625 C 86.890625 33.582031 92.191406 36.089844 92.464844 39.117188 C 93.160156 46.789062 87.269531 47.71875 87.269531 47.71875 " fill-opacity="1" fill-rule="nonzero"/><path fill="#de5c3e" d="M 96.609375 51.605469 C 96.679688 49.351562 96.214844 47.507812 95.570312 47.488281 C 94.925781 47.46875 94.347656 49.277344 94.277344 51.53125 C 94.207031 53.78125 94.671875 55.625 95.316406 55.644531 C 95.960938 55.664062 96.539062 53.855469 96.609375 51.605469 " fill-opacity="1" fill-rule="nonzero"/><path fill="#ac2f4c" d="M 93.402344 42.847656 C 92.492188 39.726562 84.140625 35.085938 87.707031 33.5625 C 91.277344 32.042969 94.238281 32.953125 94.691406 36.378906 C 95.148438 39.800781 93.402344 42.847656 93.402344 42.847656 " fill-opacity="1" fill-rule="nonzero"/><path fill="#f7976b" d="M 93.875 40.789062 C 94.203125 39.742188 93.933594 38.730469 93.269531 38.523438 C 92.609375 38.316406 91.8125 38.992188 91.484375 40.035156 C 91.160156 41.078125 91.429688 42.089844 92.089844 42.300781 C 92.75 42.507812 93.550781 41.828125 93.875 40.789062 " fill-opacity="1" fill-rule="nonzero"/><path fill="#4f3340" d="M 96.605469 57.46875 C 94.574219 57.769531 88.96875 58.59375 86.519531 58.921875 C 86.089844 58.976562 85.761719 59.324219 85.722656 59.753906 L 84.953125 68.21875 C 84.90625 68.722656 85.277344 69.179688 85.78125 69.222656 C 89.332031 69.523438 97.0625 68.464844 99.933594 68.042969 C 100.507812 67.960938 100.855469 67.371094 100.667969 66.824219 L 97.609375 58.078125 C 97.464844 57.660156 97.042969 57.40625 96.605469 57.46875 " fill-opacity="1" fill-rule="nonzero"/><path fill="#3b2730" d="M 100.667969 66.824219 L 97.609375 58.078125 C 97.464844 57.660156 97.042969 57.40625 96.605469 57.46875 C 94.574219 57.769531 88.96875 58.59375 86.519531 58.921875 C 86.089844 58.976562 85.761719 59.324219 85.722656 59.753906 L 85.539062 61.78125 C 86.464844 60.300781 87.824219 59.355469 89.347656 59.355469 C 92.132812 59.355469 94.390625 62.488281 94.390625 66.347656 C 94.390625 67.214844 94.269531 68.039062 94.0625 68.804688 C 96.449219 68.539062 98.664062 68.230469 99.933594 68.042969 C 100.507812 67.960938 100.855469 67.371094 100.667969 66.824219 " fill-opacity="1" fill-rule="nonzero"/><g clip-path="url(#8ac393d57a)"><path fill="#eee7d2" d="M 79.683594 22.609375 L 69.464844 22.609375 C 69.308594 22.609375 69.183594 22.734375 69.183594 22.890625 L 69.183594 26.054688 C 69.183594 26.210938 69.308594 26.335938 69.464844 26.335938 L 79.683594 26.335938 C 79.839844 26.335938 79.964844 26.210938 79.964844 26.054688 L 79.964844 22.890625 C 79.964844 22.734375 79.839844 22.609375 79.683594 22.609375 " fill-opacity="1" fill-rule="nonzero"/></g><path fill="#694957" d="M 31.253906 72.671875 C 30.859375 72.671875 30.539062 72.992188 30.539062 73.386719 L 30.539062 82.191406 C 30.539062 82.585938 30.859375 82.90625 31.253906 82.90625 L 46.722656 82.90625 C 47.113281 82.90625 47.433594 82.585938 47.433594 82.191406 L 47.433594 73.386719 C 47.433594 72.992188 47.113281 72.671875 46.722656 72.671875 Z M 46.722656 83.363281 L 31.253906 83.363281 C 30.609375 83.363281 30.085938 82.835938 30.085938 82.191406 L 30.085938 73.386719 C 30.085938 72.742188 30.609375 72.214844 31.253906 72.214844 L 46.722656 72.214844 C 47.363281 72.214844 47.886719 72.742188 47.886719 73.386719 L 47.886719 82.191406 C 47.886719 82.835938 47.363281 83.363281 46.722656 83.363281 " fill-opacity="1" fill-rule="nonzero"/><path fill="#694957" d="M 49.519531 128.574219 C 49.519531 129.332031 50.132812 129.945312 50.886719 129.945312 C 51.640625 129.945312 52.253906 129.332031 52.253906 128.574219 C 52.253906 127.820312 51.640625 127.207031 50.886719 127.207031 C 50.132812 127.207031 49.519531 127.820312 49.519531 128.574219 " fill-opacity="1" fill-rule="nonzero"/><path fill="#694957" d="M 66.203125 128.574219 C 66.203125 129.332031 66.816406 129.945312 67.570312 129.945312 C 68.324219 129.945312 68.9375 129.332031 68.9375 128.574219 C 68.9375 127.820312 68.324219 127.207031 67.570312 127.207031 C 66.816406 127.207031 66.203125 127.820312 66.203125 128.574219 " fill-opacity="1" fill-rule="nonzero"/><path fill="#c9be9e" d="M 49.605469 128.574219 C 49.605469 129.160156 50.078125 129.632812 50.660156 129.632812 C 51.242188 129.632812 51.714844 129.160156 51.714844 128.574219 C 51.714844 127.992188 51.242188 127.519531 50.660156 127.519531 C 50.078125 127.519531 49.605469 127.992188 49.605469 128.574219 " fill-opacity="1" fill-rule="nonzero"/><path fill="#c9be9e" d="M 66.347656 128.574219 C 66.347656 129.160156 66.816406 129.632812 67.398438 129.632812 C 67.980469 129.632812 68.453125 129.160156 68.453125 128.574219 C 68.453125 127.992188 67.980469 127.519531 67.398438 127.519531 C 66.816406 127.519531 66.347656 127.992188 66.347656 128.574219 " fill-opacity="1" fill-rule="nonzero"/><path fill="#eee7d2" d="M 111.773438 24.433594 L 109.648438 24.433594 L 109.648438 142.824219 L 115.875 142.824219 L 111.773438 24.433594 " fill-opacity="1" fill-rule="nonzero"/><path fill="#4f3340" d="M 113.523438 24.433594 L 111.394531 24.433594 L 111.394531 142.824219 L 117.621094 142.824219 L 113.523438 24.433594 " fill-opacity="1" fill-rule="nonzero"/><g clip-path="url(#ae4300bc40)"><path fill="#c9be9e" d="M 114.507812 22.199219 L 102.058594 22.199219 C 101.867188 22.199219 101.714844 22.355469 101.714844 22.542969 L 101.714844 26.398438 C 101.714844 26.589844 101.867188 26.742188 102.058594 26.742188 L 114.507812 26.742188 C 114.695312 26.742188 114.851562 26.589844 114.851562 26.398438 L 114.851562 22.542969 C 114.851562 22.355469 114.695312 22.199219 114.507812 22.199219 " fill-opacity="1" fill-rule="nonzero"/></g><g clip-path="url(#b173b67275)"><path fill="#eee7d2" d="M 109.6875 25.027344 L 109.6875 23.914062 C 109.6875 22.96875 110.453125 22.199219 111.398438 22.199219 L 103.425781 22.199219 C 102.480469 22.199219 101.714844 22.96875 101.714844 23.914062 L 101.714844 25.027344 C 101.714844 25.976562 102.480469 26.742188 103.425781 26.742188 L 111.398438 26.742188 C 110.453125 26.742188 109.6875 25.976562 109.6875 25.027344 " fill-opacity="1" fill-rule="nonzero"/></g><path fill="#4f3340" d="M 113.746094 24.40625 C 113.746094 23.726562 113.199219 23.179688 112.523438 23.179688 C 111.847656 23.179688 111.300781 23.726562 111.300781 24.40625 C 111.300781 25.082031 111.847656 25.632812 112.523438 25.632812 C 113.199219 25.632812 113.746094 25.082031 113.746094 24.40625 " fill-opacity="1" fill-rule="nonzero"/><path fill="#c9be9e" d="M 113.101562 24.40625 C 113.101562 23.917969 112.707031 23.519531 112.21875 23.519531 C 111.734375 23.519531 111.339844 23.917969 111.339844 24.40625 C 111.339844 24.894531 111.734375 25.289062 112.21875 25.289062 C 112.707031 25.289062 113.101562 24.894531 113.101562 24.40625 " fill-opacity="1" fill-rule="nonzero"/><path fill="#ce3b3f" d="M 93.425781 40.644531 C 93.628906 39.996094 93.460938 39.363281 93.050781 39.234375 C 92.636719 39.105469 92.136719 39.527344 91.933594 40.179688 C 91.730469 40.828125 91.902344 41.460938 92.3125 41.589844 C 92.722656 41.71875 93.222656 41.296875 93.425781 40.644531 " fill-opacity="1" fill-rule="nonzero"/><path fill="#f7976b" d="M 92.851562 41.277344 C 92.980469 40.855469 92.871094 40.445312 92.605469 40.363281 C 92.339844 40.277344 92.015625 40.554688 91.886719 40.972656 C 91.753906 41.394531 91.863281 41.800781 92.128906 41.886719 C 92.394531 41.96875 92.71875 41.695312 92.851562 41.277344 " fill-opacity="1" fill-rule="nonzero"/><path fill="#f7976b" d="M 104.5625 57.453125 C 100.015625 56.464844 96.589844 52.738281 95.527344 51.214844 C 94.464844 49.695312 94.539062 46.800781 96.210938 47.257812 C 97.882812 47.714844 106.6875 54.867188 107.21875 56.160156 C 107.75 57.453125 106.308594 57.835938 104.5625 57.453125 " fill-opacity="1" fill-rule="nonzero"/><path fill="#ea744b" d="M 107.21875 56.160156 C 106.960938 55.53125 104.730469 53.503906 102.320312 51.539062 C 102.414062 51.75 102.496094 51.96875 102.644531 52.128906 C 103.472656 53.019531 105.28125 54.820312 107.3125 56.492188 C 107.292969 56.386719 107.269531 56.28125 107.21875 56.160156 " fill-opacity="1" fill-rule="nonzero"/><path fill="#ea744b" d="M 96.835938 49.265625 C 96.394531 48.675781 96.128906 47.925781 96.050781 47.234375 C 94.542969 47.007812 94.5 49.746094 95.527344 51.214844 C 96.589844 52.738281 100.015625 56.464844 104.5625 57.453125 C 106.132812 57.796875 105.726562 58.078125 105.585938 57.074219 C 100.304688 55.582031 98.066406 50.914062 96.835938 49.265625 " fill-opacity="1" fill-rule="nonzero"/><path fill="#f7976b" d="M 104.5625 55.617188 C 103.042969 60.804688 102.390625 69.964844 103.148438 70.386719 C 103.90625 70.808594 107.957031 58.710938 107.445312 56.867188 C 106.929688 55.023438 104.957031 54.277344 104.5625 55.617188 " fill-opacity="1" fill-rule="nonzero"/><path fill="#ea744b" d="M 107.445312 56.867188 C 107.125 55.726562 106.253906 55.011719 105.535156 54.941406 C 105.550781 54.972656 105.566406 55 105.582031 55.03125 C 106.304688 56.804688 104.53125 69.703125 103.730469 69.371094 C 103.722656 69.371094 102.980469 70.292969 103.148438 70.386719 C 103.90625 70.808594 107.957031 58.710938 107.445312 56.867188 " fill-opacity="1" fill-rule="nonzero"/><g clip-path="url(#7a707083e0)"><path fill="#c9be9e" d="M 79.964844 24.929688 L 79.964844 24.015625 C 79.964844 23.238281 79.335938 22.609375 78.558594 22.609375 L 76.851562 22.609375 C 76.074219 22.609375 75.445312 23.238281 75.445312 24.015625 L 75.445312 24.929688 C 75.445312 25.707031 76.074219 26.335938 76.851562 26.335938 L 78.558594 26.335938 C 79.335938 26.335938 79.964844 25.707031 79.964844 24.929688 " fill-opacity="1" fill-rule="nonzero"/></g><path fill="#694957" d="M 50.679688 92.113281 C 50.679688 91.808594 50.515625 91.5625 50.316406 91.5625 C 50.117188 91.5625 49.957031 91.808594 49.957031 92.113281 C 49.957031 92.417969 50.117188 92.664062 50.316406 92.664062 C 50.515625 92.664062 50.679688 92.417969 50.679688 92.113281 " fill-opacity="1" fill-rule="nonzero"/><path fill="#694957" d="M 47.605469 92.113281 C 47.605469 91.808594 47.441406 91.5625 47.242188 91.5625 C 47.042969 91.5625 46.882812 91.808594 46.882812 92.113281 C 46.882812 92.417969 47.042969 92.664062 47.242188 92.664062 C 47.441406 92.664062 47.605469 92.417969 47.605469 92.113281 " fill-opacity="1" fill-rule="nonzero"/><path fill="#694957" d="M 47.605469 124.601562 C 47.605469 124.296875 47.441406 124.050781 47.242188 124.050781 C 47.042969 124.050781 46.882812 124.296875 46.882812 124.601562 C 46.882812 124.90625 47.042969 125.152344 47.242188 125.152344 C 47.441406 125.152344 47.605469 124.90625 47.605469 124.601562 " fill-opacity="1" fill-rule="nonzero"/><path fill="#694957" d="M 56.867188 124.601562 C 56.867188 124.296875 56.703125 124.050781 56.503906 124.050781 C 56.304688 124.050781 56.144531 124.296875 56.144531 124.601562 C 56.144531 124.90625 56.304688 125.152344 56.503906 125.152344 C 56.703125 125.152344 56.867188 124.90625 56.867188 124.601562 " fill-opacity="1" fill-rule="nonzero"/><path fill="#ecb83f" d="M 103.109375 138.066406 C 103.121094 137.953125 103.121094 137.839844 103.09375 137.722656 L 91.964844 84.085938 C 91.53125 81.992188 89.667969 80.472656 87.53125 80.472656 L 56.441406 80.472656 C 56.4375 80.507812 56.429688 80.546875 56.429688 80.585938 C 56.429688 81.214844 56.9375 81.726562 57.566406 81.726562 L 88.671875 81.726562 C 89.730469 81.726562 90.660156 82.480469 90.875 83.523438 L 102.003906 137.160156 C 102.117188 137.695312 102.585938 138.0625 103.109375 138.066406 " fill-opacity="1" fill-rule="nonzero"/><path fill="#4f3340" d="M 111.394531 104.429688 L 116.410156 107.929688 L 114.339844 48.050781 L 111.394531 45.996094 L 111.394531 104.429688 " fill-opacity="1" fill-rule="nonzero"/><path fill="#3b2730" d="M 100.667969 66.824219 L 97.609375 58.078125 C 97.511719 57.800781 97.289062 57.59375 97.023438 57.507812 L 99.90625 65.757812 C 100.097656 66.304688 99.746094 66.894531 99.171875 66.976562 C 96.300781 67.402344 88.574219 68.460938 85.023438 68.15625 C 85 68.15625 84.980469 68.148438 84.960938 68.144531 L 84.953125 68.21875 C 84.90625 68.722656 85.277344 69.179688 85.78125 69.222656 C 89.332031 69.523438 97.0625 68.464844 99.933594 68.042969 C 100.507812 67.960938 100.855469 67.371094 100.667969 66.824219 " fill-opacity="1" fill-rule="nonzero"/><path fill="#de5c3e" d="M 86.632812 42.574219 C 86.625 42.347656 86.785156 42.089844 86.964844 41.847656 C 86.925781 41.730469 86.902344 41.65625 86.902344 41.65625 C 86.625 41.984375 86.292969 42.375 86.289062 42.703125 C 86.289062 43.050781 87.019531 43.148438 87.238281 43.203125 C 87.289062 43.21875 87.296875 43.132812 87.277344 43 C 87 42.933594 86.640625 42.8125 86.632812 42.574219 " fill-opacity="1" fill-rule="nonzero"/><path fill="#422f2a" d="M 86.84375 44.328125 C 88.15625 43.710938 89.234375 43.359375 89.234375 43.359375 C 89.234375 43.359375 89.980469 44.585938 88.855469 45.183594 C 87.726562 45.78125 86.84375 44.328125 86.84375 44.328125 " fill-opacity="1" fill-rule="nonzero"/><path fill="#fef5e0" d="M 87.507812 44.679688 C 87.308594 44.484375 87.191406 44.292969 87.191406 44.292969 C 88.226562 43.800781 89.078125 43.523438 89.078125 43.523438 C 89.078125 43.523438 89.195312 43.71875 89.246094 43.972656 C 89.058594 44.039062 88.355469 44.285156 87.507812 44.679688 " fill-opacity="1" fill-rule="nonzero"/><path fill="#422f2a" d="M 88.148438 40.023438 C 88.125 39.5625 88.386719 39.214844 88.730469 39.25 C 89.074219 39.28125 89.371094 39.683594 89.394531 40.144531 C 89.417969 40.605469 89.160156 40.953125 88.816406 40.917969 C 88.472656 40.882812 88.171875 40.484375 88.148438 40.023438 " fill-opacity="1" fill-rule="nonzero"/><path fill="#422f2a" d="M 85.328125 40.574219 C 85.304688 40.113281 85.496094 39.753906 85.757812 39.773438 C 86.015625 39.792969 86.25 40.183594 86.273438 40.640625 C 86.300781 41.101562 86.105469 41.460938 85.847656 41.441406 C 85.585938 41.421875 85.355469 41.035156 85.328125 40.574219 " fill-opacity="1" fill-rule="nonzero"/><path fill="#ac2f4c" d="M 89.921875 39.445312 C 88.785156 38.011719 87.425781 38.378906 87.425781 38.378906 L 87.292969 37.3125 C 87.292969 37.3125 88.0625 37.136719 88.875 37.753906 C 89.691406 38.367188 89.921875 39.445312 89.921875 39.445312 " fill-opacity="1" fill-rule="nonzero"/><path fill="#ac2f4c" d="M 84.410156 39.90625 C 84.863281 38.445312 85.851562 38.707031 85.851562 38.707031 L 85.707031 37.671875 C 85.707031 37.671875 85.15625 37.554688 84.746094 38.203125 C 84.335938 38.851562 84.410156 39.90625 84.410156 39.90625 " fill-opacity="1" fill-rule="nonzero"/><path fill="#f7976b" d="M 102.722656 68.226562 C 101.894531 69.199219 101.152344 70.917969 101.65625 71.503906 C 102.164062 72.089844 103.597656 72.277344 103.8125 72.039062 C 104.023438 71.796875 104.316406 70.972656 104.265625 70.863281 C 104.210938 70.757812 103.8125 70.464844 103.8125 70.464844 C 103.8125 70.464844 104.304688 68.890625 104.238281 68.359375 C 104.15625 67.71875 103.332031 67.503906 102.722656 68.226562 " fill-opacity="1" fill-rule="nonzero"/><path fill="#ea744b" d="M 71.867188 50.734375 C 70.789062 50.148438 69.574219 48.878906 69.878906 48.203125 C 70.179688 47.523438 71.484375 46.894531 71.757812 47.035156 C 72.03125 47.175781 72.554688 47.804688 72.535156 47.917969 C 72.515625 48.027344 72.226562 48.414062 72.226562 48.414062 C 72.226562 48.414062 73.164062 49.636719 73.261719 50.125 C 73.378906 50.710938 72.660156 51.167969 71.867188 50.734375 " fill-opacity="1" fill-rule="nonzero"/><path fill="#f7976b" d="M 72.554688 48.507812 C 72.285156 48.898438 71.835938 49.179688 71.550781 49.132812 C 71.265625 49.085938 71.253906 48.730469 71.523438 48.339844 C 71.792969 47.949219 72.242188 47.667969 72.527344 47.714844 C 72.8125 47.761719 72.824219 48.113281 72.554688 48.507812 " fill-opacity="1" fill-rule="nonzero"/><path fill="#f7976b" d="M 70.332031 48.917969 C 70.015625 48.6875 69.835938 48.296875 69.925781 48.046875 C 70.015625 47.792969 70.339844 47.773438 70.65625 48.003906 C 70.972656 48.234375 71.152344 48.625 71.0625 48.878906 C 70.972656 49.128906 70.648438 49.148438 70.332031 48.917969 " fill-opacity="1" fill-rule="nonzero"/><path fill="#f7976b" d="M 70.890625 48.386719 C 70.574219 48.15625 70.394531 47.765625 70.484375 47.511719 C 70.574219 47.261719 70.898438 47.242188 71.214844 47.472656 C 71.53125 47.703125 71.710938 48.09375 71.621094 48.34375 C 71.53125 48.597656 71.207031 48.617188 70.890625 48.386719 " fill-opacity="1" fill-rule="nonzero"/><path fill="#f7976b" d="M 71.660156 47.851562 C 71.347656 47.621094 71.164062 47.230469 71.253906 46.980469 C 71.34375 46.726562 71.671875 46.707031 71.984375 46.9375 C 72.300781 47.167969 72.484375 47.558594 72.394531 47.8125 C 72.304688 48.0625 71.976562 48.082031 71.660156 47.851562 " fill-opacity="1" fill-rule="nonzero"/><path fill="#f7976b" d="M 72.355469 49.28125 C 72.164062 48.820312 72.152344 48.222656 72.332031 47.953125 C 72.507812 47.679688 72.808594 47.832031 73 48.292969 C 73.1875 48.757812 73.425781 50.0625 73.246094 50.335938 C 73.066406 50.609375 72.542969 49.742188 72.355469 49.28125 " fill-opacity="1" fill-rule="nonzero"/><path fill="#84435e" d="M 173.699219 112.324219 L 178.9375 112.324219 L 175.597656 118.820312 L 170.359375 118.820312 L 173.699219 112.324219 " fill-opacity="1" fill-rule="nonzero"/><path fill="#565348" d="M 110.375 74.164062 L 111.890625 76.433594 L 109.347656 75.519531 L 110.375 74.164062 " fill-opacity="1" fill-rule="nonzero"/><path fill="#83bfb3" d="M 147.898438 95.5 C 154.203125 91.699219 154.863281 83.582031 158.644531 78.714844 L 160.171875 97.257812 C 159.148438 100.675781 153.523438 104.652344 150.777344 104.015625 C 148.027344 103.375 144.84375 97.339844 147.898438 95.5 " fill-opacity="1" fill-rule="nonzero"/><path fill="#71b0a5" d="M 147.855469 98.515625 C 150.453125 100.179688 157.371094 90.464844 159.234375 86.730469 L 160.171875 97.257812 C 159.148438 100.675781 153.523438 104.652344 150.777344 104.015625 C 148.613281 103.511719 146.167969 99.644531 146.726562 97.140625 C 146.996094 97.734375 147.371094 98.203125 147.855469 98.515625 " fill-opacity="1" fill-rule="nonzero"/><path fill="#4d545c" d="M 150.347656 93.632812 C 150.347656 93.632812 154.445312 93.914062 156.320312 97.5 L 155.671875 98.089844 L 156.753906 98.265625 C 156.753906 98.265625 157.464844 101.917969 154.710938 104.027344 C 154.710938 104.027344 151.789062 104.613281 151.089844 104.203125 L 147.671875 96.269531 C 149.023438 94.515625 150.347656 93.632812 150.347656 93.632812 " fill-opacity="1" fill-rule="nonzero"/><path fill="#e78f57" d="M 134.636719 100.441406 C 134.125 100.933594 133.851562 101.902344 134.058594 102.84375 C 134.265625 103.789062 135.144531 104.140625 135.480469 104.136719 C 135.8125 104.132812 136.714844 103.511719 136.09375 102.753906 C 135.46875 101.996094 136.011719 101.519531 136.011719 101.519531 L 134.636719 100.441406 " fill-opacity="1" fill-rule="nonzero"/><path fill="#e78f57" d="M 134.382812 100.242188 C 135.222656 98.644531 138.945312 98.722656 140.5625 99.210938 C 142.175781 99.695312 141.636719 103.742188 140.832031 104.394531 C 140.027344 105.050781 138.878906 105.28125 138.046875 104.601562 C 137.210938 103.921875 136.363281 104.851562 135.980469 104.703125 C 135.023438 104.335938 133.851562 101.25 134.382812 100.242188 " fill-opacity="1" fill-rule="nonzero"/><path fill="#e78f57" d="M 134.871094 102.691406 C 134.5625 103.332031 134.644531 104.332031 135.171875 105.132812 C 135.699219 105.9375 136.648438 105.945312 136.964844 105.824219 C 137.277344 105.699219 137.90625 104.796875 137.054688 104.320312 C 136.203125 103.839844 136.542969 103.199219 136.542969 103.199219 L 134.871094 102.691406 " fill-opacity="1" fill-rule="nonzero"/><path fill="#ebb171" d="M 151.902344 104.101562 C 148.507812 104.878906 140.464844 104.699219 140.019531 104.457031 C 139.574219 104.214844 138.785156 100.730469 138.933594 100.378906 C 139.085938 100.023438 148.140625 94.988281 149.132812 94.667969 C 150.125 94.347656 153.339844 96.925781 153.984375 98.460938 C 154.632812 99.996094 153.320312 103.78125 151.902344 104.101562 " fill-opacity="1" fill-rule="nonzero"/><path fill="#e78f57" d="M 138.601562 99.777344 C 144.324219 98.507812 151.679688 99.136719 151.621094 95.816406 C 152.652344 96.621094 153.65625 97.675781 153.984375 98.460938 C 154.632812 99.996094 153.320312 103.78125 151.902344 104.101562 C 148.507812 104.878906 140.464844 104.695312 140.019531 104.457031 C 139.972656 104.429688 138.929688 104.316406 138.867188 104.210938 C 139.507812 104.132812 137.949219 99.921875 138.601562 99.777344 " fill-opacity="1" fill-rule="nonzero"/><path fill="#ebb171" d="M 137.105469 103.144531 C 136.636719 102.128906 135.945312 100.375 136.375 99.742188 C 136.808594 99.109375 139.269531 98.078125 140.234375 98.378906 C 141.195312 98.675781 142.792969 99.976562 141.730469 100.976562 C 140.667969 101.976562 139 101.242188 138.535156 100.976562 C 138.070312 100.710938 139.167969 102.078125 138.769531 102.609375 C 138.371094 103.144531 137.347656 103.65625 137.105469 103.144531 " fill-opacity="1" fill-rule="nonzero"/><path fill="#5f3b48" d="M 169.128906 125.851562 L 168.960938 137.648438 L 167.84375 137.648438 L 167.671875 125.851562 L 169.128906 125.851562 " fill-opacity="1" fill-rule="nonzero"/><path fill="#8f4869" d="M 170.945312 139.046875 L 165.855469 139.046875 L 167.445312 135.296875 L 169.355469 135.296875 L 170.945312 139.046875 " fill-opacity="1" fill-rule="nonzero"/><path fill="#8f4869" d="M 165.855469 122.25 L 170.945312 122.25 L 169.976562 127.449219 L 166.824219 127.449219 L 165.855469 122.25 " fill-opacity="1" fill-rule="nonzero"/><path fill="#8f4869" d="M 160.574219 140.496094 C 161.765625 139.183594 164.078125 138.148438 168.398438 138.148438 C 172.71875 138.148438 175.035156 139.183594 176.222656 140.496094 L 160.574219 140.496094 " fill-opacity="1" fill-rule="nonzero"/><path fill="#84435e" d="M 176.222656 121.203125 C 175.035156 122.515625 172.71875 123.550781 168.398438 123.550781 C 164.078125 123.550781 161.765625 122.515625 160.574219 121.203125 L 176.222656 121.203125 " fill-opacity="1" fill-rule="nonzero"/><path fill="#5f3b48" d="M 166.828125 141.519531 C 166.828125 140.84375 167.375 140.296875 168.050781 140.296875 C 168.726562 140.296875 169.273438 140.84375 169.273438 141.519531 C 169.273438 142.199219 168.726562 142.746094 168.050781 142.746094 C 167.375 142.746094 166.828125 142.199219 166.828125 141.519531 " fill-opacity="1" fill-rule="nonzero"/><path fill="#5f3b48" d="M 175.183594 141.519531 C 175.183594 140.84375 175.730469 140.296875 176.40625 140.296875 C 177.082031 140.296875 177.628906 140.84375 177.628906 141.519531 C 177.628906 142.199219 177.082031 142.746094 176.40625 142.746094 C 175.730469 142.746094 175.183594 142.199219 175.183594 141.519531 " fill-opacity="1" fill-rule="nonzero"/><path fill="#5f3b48" d="M 158.773438 141.519531 C 158.773438 140.84375 159.320312 140.296875 159.996094 140.296875 C 160.671875 140.296875 161.21875 140.84375 161.21875 141.519531 C 161.21875 142.199219 160.671875 142.746094 159.996094 142.746094 C 159.320312 142.746094 158.773438 142.199219 158.773438 141.519531 " fill-opacity="1" fill-rule="nonzero"/><path fill="#d22b62" d="M 157.875 119.902344 C 157.875 118.769531 159.582031 117.851562 168.398438 117.851562 C 177.21875 117.851562 178.925781 118.769531 178.925781 119.902344 C 178.925781 121.035156 177.21875 121.953125 168.398438 121.953125 C 159.582031 121.953125 157.875 121.035156 157.875 119.902344 " fill-opacity="1" fill-rule="nonzero"/><path fill="#e33f76" d="M 178.925781 119.902344 C 178.925781 120.011719 178.910156 120.117188 178.875 120.21875 C 178.175781 120.417969 177.40625 120.597656 176.589844 120.746094 C 173.1875 121.363281 170.308594 121.195312 170.160156 120.367188 C 170.03125 119.667969 171.886719 118.726562 174.507812 118.078125 C 178.074219 118.417969 178.925781 119.105469 178.925781 119.902344 " fill-opacity="1" fill-rule="nonzero"/><path fill="#d22b62" d="M 182.214844 83.460938 C 186.679688 83.460938 189.851562 86.578125 189.308594 90.421875 L 186.894531 107.394531 C 186.351562 111.238281 182.289062 114.351562 177.828125 114.351562 C 173.363281 114.351562 170.191406 111.238281 170.738281 107.394531 L 173.148438 90.421875 C 173.695312 86.578125 177.753906 83.460938 182.214844 83.460938 " fill-opacity="1" fill-rule="nonzero"/><path fill="#d22b62" d="M 180.519531 83.460938 C 184.980469 83.460938 188.15625 86.578125 187.609375 90.421875 L 185.199219 107.394531 C 184.652344 111.238281 180.59375 114.355469 176.128906 114.355469 C 171.667969 114.355469 168.492188 111.238281 169.039062 107.394531 L 171.453125 90.421875 C 171.996094 86.578125 176.058594 83.460938 180.519531 83.460938 " fill-opacity="1" fill-rule="nonzero"/><path fill="#e33f76" d="M 180.519531 83.460938 C 184.980469 83.460938 188.15625 86.578125 187.609375 90.421875 L 186.289062 99.726562 C 186.066406 99.757812 185.84375 99.777344 185.621094 99.777344 C 181.863281 99.378906 181.863281 87.78125 180.519531 83.460938 " fill-opacity="1" fill-rule="nonzero"/><path fill="#f2ebcb" d="M 111.351562 73.679688 L 138.117188 73.679688 C 138.910156 73.679688 139.699219 74.296875 139.882812 75.054688 L 145.164062 96.804688 C 145.347656 97.558594 144.855469 98.175781 144.0625 98.175781 L 117.300781 98.175781 C 116.507812 98.175781 115.714844 97.558594 115.53125 96.804688 L 110.25 75.054688 C 110.066406 74.296875 110.558594 73.679688 111.351562 73.679688 " fill-opacity="1" fill-rule="nonzero"/><path fill="#565348" d="M 111.351562 73.679688 L 138.117188 73.679688 C 138.910156 73.679688 139.699219 74.296875 139.882812 75.054688 L 144.042969 92.179688 L 141.53125 94.527344 L 114.410156 92.179688 L 110.074219 75.1875 C 109.886719 74.429688 110.558594 73.679688 111.351562 73.679688 " fill-opacity="1" fill-rule="nonzero"/><path fill="#f2ebcb" d="M 144.949219 97.808594 L 143.789062 99.242188 L 142.601562 96.851562 L 144.949219 97.808594 " fill-opacity="1" fill-rule="nonzero"/><path fill="#d0c59d" d="M 110.300781 75.066406 L 137.015625 75.066406 C 137.804688 75.066406 138.597656 75.679688 138.78125 76.4375 L 144.050781 98.1875 C 144.234375 98.941406 143.742188 99.558594 142.949219 99.558594 L 116.238281 99.558594 C 115.445312 99.558594 114.65625 98.941406 114.472656 98.1875 L 109.203125 76.4375 C 109.019531 75.679688 109.511719 75.066406 110.300781 75.066406 " fill-opacity="1" fill-rule="nonzero"/><path fill="#dcd4ad" d="M 141.847656 99.558594 L 124.871094 99.558594 L 114.527344 75.0625 L 130.238281 75.0625 L 141.847656 99.558594 " fill-opacity="1" fill-rule="nonzero"/><path fill="#d0c59d" d="M 124.324219 103.457031 L 133.636719 103.457031 L 133.636719 105.183594 L 124.324219 105.183594 L 124.324219 103.457031 " fill-opacity="1" fill-rule="nonzero"/><path fill="#d0c59d" d="M 130.460938 99.558594 L 127.109375 99.558594 L 126.179688 94.722656 L 129.28125 94.722656 L 130.460938 99.558594 " fill-opacity="1" fill-rule="nonzero"/><path fill="#d0c59d" d="M 123.992188 94.660156 L 129.378906 94.660156 L 128.25 105.222656 L 122.066406 105.222656 L 123.992188 94.660156 " fill-opacity="1" fill-rule="nonzero"/><path fill="#dcd4ad" d="M 123.160156 94.660156 L 128.550781 94.660156 L 127.417969 105.222656 L 121.234375 105.222656 L 123.160156 94.660156 " fill-opacity="1" fill-rule="nonzero"/><path fill="#4d545c" d="M 161.167969 119.453125 L 151.417969 120.03125 C 151.417969 120.03125 143.914062 141.148438 143.410156 141.246094 C 142.902344 141.34375 144.15625 113.132812 145.207031 111.65625 C 146.257812 110.175781 160.117188 107.359375 162.164062 107.554688 C 163.121094 107.648438 166.976562 109.488281 168.496094 112.28125 C 169.835938 114.746094 165.519531 119.453125 161.167969 119.453125 " fill-opacity="1" fill-rule="nonzero"/><path fill="#3f444a" d="M 152.933594 110.574219 C 155.941406 110.050781 158.300781 109.277344 155.253906 108.5625 C 158.417969 107.914062 161.3125 107.472656 162.164062 107.554688 C 163.121094 107.648438 166.976562 109.488281 168.496094 112.28125 C 169.835938 114.746094 165.519531 119.453125 161.167969 119.453125 L 151.417969 120.03125 C 151.417969 120.03125 143.914062 141.148438 143.410156 141.246094 C 143.007812 141.324219 143.707031 123.699219 144.539062 115.589844 C 147.613281 115.304688 149.875 111.105469 152.933594 110.574219 " fill-opacity="1" fill-rule="nonzero"/><path fill="#4d545c" d="M 168.25 119.453125 L 159.566406 119.96875 C 159.566406 119.96875 154.992188 141.148438 154.484375 141.246094 C 153.980469 141.34375 151.238281 113.132812 152.289062 111.65625 C 153.34375 110.175781 167.199219 107.359375 169.246094 107.554688 C 170.203125 107.648438 174.058594 109.488281 175.578125 112.28125 C 176.917969 114.746094 172.601562 119.453125 168.25 119.453125 " fill-opacity="1" fill-rule="nonzero"/><path fill="#3f444a" d="M 158.253906 117.105469 C 164.644531 117.105469 169.824219 115.136719 169.824219 112.707031 C 169.824219 110.8125 166.675781 109.195312 162.253906 108.578125 C 165.453125 107.921875 168.390625 107.472656 169.246094 107.554688 C 170.203125 107.648438 174.058594 109.488281 175.578125 112.28125 C 176.917969 114.746094 172.601562 119.453125 168.25 119.453125 L 159.566406 119.96875 C 159.566406 119.96875 154.992188 141.148438 154.484375 141.246094 C 154.097656 141.320312 152.40625 124.855469 152.101562 116.429688 C 153.882812 116.855469 155.992188 117.105469 158.253906 117.105469 " fill-opacity="1" fill-rule="nonzero"/><path fill="#83bfb3" d="M 175.863281 114.386719 C 179.785156 107.875 182.585938 86.714844 173.605469 79.0625 C 165.625 72.265625 158.078125 76.585938 156.59375 82.679688 C 156.007812 85.082031 160.382812 96.867188 157.855469 108.0625 C 169.613281 106.789062 175.863281 114.386719 175.863281 114.386719 " fill-opacity="1" fill-rule="nonzero"/><path fill="#69a298" d="M 172.15625 93.480469 C 172.15625 85.902344 170.628906 79.554688 166.828125 75.777344 C 168.988281 76.089844 171.300781 77.101562 173.605469 79.0625 C 182.585938 86.714844 180.320312 107.855469 175.863281 114.386719 C 175.863281 114.386719 173.425781 111.421875 168.730469 109.507812 C 171.445312 105.613281 172.15625 99.710938 172.15625 93.480469 " fill-opacity="1" fill-rule="nonzero"/><path fill="#69a298" d="M 173.605469 79.0625 C 174.019531 79.417969 174.402344 79.808594 174.765625 80.21875 C 172.597656 80.980469 169.652344 81.449219 166.398438 81.449219 C 162.960938 81.449219 159.859375 80.921875 157.660156 80.082031 C 160.363281 75.539062 166.824219 73.289062 173.605469 79.0625 " fill-opacity="1" fill-rule="nonzero"/><path fill="#69a298" d="M 160.226562 94.085938 C 165.671875 89.210938 165.148438 80.433594 169 78.464844 C 172.132812 76.867188 177.273438 82.035156 173.054688 92.324219 C 171.757812 95.484375 165.191406 103.425781 162.628906 103.027344 C 160.066406 102.632812 157.683594 96.359375 160.226562 94.085938 " fill-opacity="1" fill-rule="nonzero"/><path fill="#83bfb3" d="M 159.316406 94.796875 C 166.578125 89.53125 164.738281 83.320312 169.09375 81.28125 C 172.632812 79.625 178.816406 82.523438 173.648438 93.179688 C 172.0625 96.453125 164.414062 104.675781 161.601562 104.265625 C 158.789062 103.851562 156.265625 97.007812 159.316406 94.796875 " fill-opacity="1" fill-rule="nonzero"/><path fill="#71b0a5" d="M 158.339844 99.039062 C 160.902344 100.65625 165.929688 97.269531 169.5625 91.476562 C 172.824219 86.28125 173.859375 80.917969 172.1875 78.699219 C 175.285156 79.648438 178.078125 84.863281 173.96875 93.335938 C 172.382812 96.609375 164.414062 104.675781 161.601562 104.265625 C 159.863281 104.011719 158.242188 101.304688 157.96875 98.75 C 158.085938 98.855469 158.207031 98.957031 158.339844 99.039062 " fill-opacity="1" fill-rule="nonzero"/><path fill="#4d545c" d="M 160.8125 93.445312 C 160.8125 93.445312 164.871094 94.078125 166.433594 97.8125 L 165.734375 98.34375 L 166.800781 98.609375 C 166.800781 98.609375 167.199219 102.308594 164.273438 104.175781 C 164.273438 104.175781 161.3125 104.507812 160.648438 104.042969 L 157.921875 95.84375 C 159.417969 94.210938 160.8125 93.445312 160.8125 93.445312 " fill-opacity="1" fill-rule="nonzero"/><path fill="#f2ebcb" d="M 142.691406 104.277344 C 142.691406 103.273438 144.539062 101.445312 146.117188 101.445312 C 147.695312 101.445312 148.976562 102.257812 148.976562 103.257812 C 148.976562 104.261719 147.695312 105.074219 146.117188 105.074219 C 144.539062 105.074219 142.691406 105.277344 142.691406 104.277344 " fill-opacity="1" fill-rule="nonzero"/><path fill="#ebb171" d="M 162.527344 104.101562 C 159.132812 104.878906 148.84375 104.738281 148.394531 104.496094 C 147.949219 104.253906 147.800781 99.757812 147.949219 99.40625 C 148.097656 99.054688 158.566406 94.9375 159.558594 94.617188 C 160.550781 94.296875 163.964844 96.925781 164.609375 98.460938 C 165.253906 99.996094 163.941406 103.78125 162.527344 104.101562 " fill-opacity="1" fill-rule="nonzero"/><path fill="#ebb171" d="M 144.25 98.921875 C 143.640625 99.289062 143.15625 100.171875 143.148438 101.136719 C 143.140625 102.101562 143.917969 102.640625 144.246094 102.714844 C 144.574219 102.785156 145.585938 102.378906 145.152344 101.503906 C 144.710938 100.625 145.347656 100.28125 145.347656 100.28125 L 144.25 98.921875 " fill-opacity="1" fill-rule="nonzero"/><path fill="#ebb171" d="M 144.042969 98.671875 C 145.21875 97.304688 148.832031 98.214844 150.296875 99.046875 C 151.761719 99.882812 150.332031 103.707031 149.402344 104.164062 C 148.472656 104.621094 147.304688 104.589844 146.640625 103.742188 C 145.980469 102.894531 144.949219 103.609375 144.609375 103.378906 C 143.757812 102.808594 143.300781 99.535156 144.042969 98.671875 " fill-opacity="1" fill-rule="nonzero"/><path fill="#ebb171" d="M 143.976562 101.171875 C 143.53125 101.726562 143.386719 102.714844 143.722656 103.617188 C 144.058594 104.515625 144.980469 104.738281 145.316406 104.6875 C 145.648438 104.636719 146.460938 103.902344 145.738281 103.242188 C 145.015625 102.585938 145.492188 102.039062 145.492188 102.039062 L 143.976562 101.171875 " fill-opacity="1" fill-rule="nonzero"/><path fill="#e78f57" d="M 152.617188 103.304688 C 157.898438 101.625 161.554688 98.085938 161.203125 95.15625 C 162.546875 95.957031 164.183594 97.445312 164.609375 98.460938 C 165.253906 99.996094 163.941406 103.78125 162.527344 104.101562 C 159.132812 104.878906 148.84375 104.738281 148.394531 104.496094 C 148.332031 104.460938 148.277344 104.339844 148.222656 104.160156 C 149.617188 104.066406 151.105469 103.789062 152.617188 103.304688 " fill-opacity="1" fill-rule="nonzero"/><path fill="#faf1e0" d="M 139.109375 142.746094 L 144.3125 142.746094 C 144.3125 142.746094 144.457031 140.96875 143.578125 140.554688 C 142.699219 140.140625 139.109375 142.746094 139.109375 142.746094 " fill-opacity="1" fill-rule="nonzero"/><path fill="#faf1e0" d="M 150.035156 142.746094 L 155.234375 142.746094 C 155.234375 142.746094 155.382812 140.96875 154.503906 140.554688 C 153.625 140.140625 150.035156 142.746094 150.035156 142.746094 " fill-opacity="1" fill-rule="nonzero"/><path fill="#e9ddae" d="M 114.582031 105.355469 L 141.816406 105.355469 L 141.816406 142.746094 L 116.777344 142.746094 L 114.582031 105.355469 " fill-opacity="1" fill-rule="nonzero"/><path fill="#dcd4ad" d="M 113.519531 105.355469 L 140.75 105.355469 L 140.75 142.746094 L 115.714844 142.746094 L 113.519531 105.355469 " fill-opacity="1" fill-rule="nonzero"/><path fill="#e9ddae" d="M 113.585938 104.554688 L 159.96875 104.554688 L 159.96875 105.855469 L 113.585938 105.855469 L 113.585938 104.554688 " fill-opacity="1" fill-rule="nonzero"/><path fill="#e9ddae" d="M 149.496094 142.746094 L 149.496094 105.054688 L 150.792969 105.054688 L 150.792969 142.746094 L 149.496094 142.746094 " fill-opacity="1" fill-rule="nonzero"/><path fill="#d0c59d" d="M 112.433594 104.554688 L 139.933594 104.554688 L 139.933594 105.855469 L 112.433594 105.855469 L 112.433594 104.554688 " fill-opacity="1" fill-rule="nonzero"/><path fill="#963245" d="M 157.6875 61.757812 C 157.367188 61.367188 157.390625 60.765625 157.738281 60.429688 C 158.082031 60.097656 158.710938 60.078125 159.121094 60.390625 C 159.050781 59.546875 158.996094 58.632812 159.445312 57.917969 C 159.785156 57.378906 160.382812 57.027344 161.019531 56.875 C 162.175781 56.589844 163.441406 56.914062 164.492188 57.515625 C 165.535156 58.113281 166.390625 58.964844 167.1875 59.828125 C 167.511719 60.183594 167.847656 60.570312 167.90625 61.035156 C 168.238281 60.820312 168.71875 61.023438 168.921875 61.351562 C 169.125 61.679688 169.128906 62.082031 169.121094 62.460938 C 169.109375 63.460938 169.054688 64.539062 168.363281 65.265625 C 168.3125 65.320312 168.253906 65.375 168.238281 65.445312 C 168.21875 65.519531 168.25 65.597656 168.277344 65.671875 C 168.5625 66.480469 168.304688 67.5 167.5 67.875 C 168.164062 69.382812 167.738281 71.195312 166.496094 72.265625 L 159.199219 68.027344 C 158.617188 67.734375 158.089844 67.339844 157.648438 66.871094 C 156.964844 66.140625 156.496094 65.207031 156.457031 64.246094 C 156.417969 63.277344 156.855469 62.296875 157.6875 61.757812 " fill-opacity="1" fill-rule="nonzero"/><path fill="#80293a" d="M 159.160156 66.636719 C 162.835938 66.636719 165.816406 63.972656 165.816406 60.6875 C 165.816406 59.65625 165.527344 58.6875 165.007812 57.84375 C 165.824219 58.40625 166.527344 59.113281 167.1875 59.828125 C 167.511719 60.183594 167.847656 60.570312 167.90625 61.035156 C 168.238281 60.820312 168.71875 61.023438 168.921875 61.351562 C 169.125 61.679688 169.128906 62.082031 169.121094 62.460938 C 169.109375 63.460938 169.054688 64.539062 168.363281 65.265625 C 168.3125 65.320312 168.253906 65.375 168.238281 65.445312 C 168.21875 65.519531 168.25 65.597656 168.277344 65.671875 C 168.5625 66.480469 168.304688 67.5 167.5 67.875 C 168.164062 69.382812 167.738281 71.195312 166.496094 72.265625 L 159.199219 68.027344 C 158.617188 67.734375 158.089844 67.339844 157.648438 66.871094 C 157.503906 66.71875 157.375 66.554688 157.25 66.386719 C 157.855469 66.546875 158.496094 66.636719 159.160156 66.636719 " fill-opacity="1" fill-rule="nonzero"/><path fill="#d2634c" d="M 168.152344 76.214844 L 166 67.832031 L 161.167969 70.867188 L 161.628906 76.441406 L 162.941406 77.617188 L 168.152344 76.214844 " fill-opacity="1" fill-rule="nonzero"/><path fill="#ebb171" d="M 164.957031 61.703125 C 165.605469 62.351562 166.121094 73.230469 165.621094 73.984375 C 165.136719 74.710938 160.96875 75.699219 159.664062 75.457031 C 159.425781 74.519531 157.621094 64.847656 158.640625 63.535156 C 159.660156 62.222656 164.425781 61.167969 164.957031 61.703125 " fill-opacity="1" fill-rule="nonzero"/><path fill="#963245" d="M 162.640625 60.515625 L 165.507812 58.886719 C 167.132812 63.152344 165.917969 67.632812 165.710938 68.847656 C 165.203125 68.851562 164.695312 68.851562 164.1875 68.851562 C 164.132812 68.851562 164.074219 68.851562 164.027344 68.828125 C 163.96875 68.796875 163.929688 68.738281 163.898438 68.683594 C 163.265625 67.636719 162.703125 66.546875 162.214844 65.421875 C 161.859375 64.597656 161.539062 63.738281 161.53125 62.839844 C 161.523438 61.941406 161.886719 60.996094 162.640625 60.515625 " fill-opacity="1" fill-rule="nonzero"/><path fill="#80293a" d="M 167.085938 71.621094 L 165.988281 69.832031 L 165.160156 67.5 L 166.789062 66.46875 L 167.085938 71.621094 " fill-opacity="1" fill-rule="nonzero"/><path fill="#52636a" d="M 161.355469 79.507812 L 163.140625 77.484375 L 161.480469 76.058594 L 161.324219 76.535156 L 161.355469 79.507812 " fill-opacity="1" fill-rule="nonzero"/><path fill="#52636a" d="M 162.773438 77.460938 L 164.773438 80.25 L 168.527344 76.160156 L 168.164062 75.484375 L 162.773438 77.460938 " fill-opacity="1" fill-rule="nonzero"/><path fill="#963245" d="M 159.417969 74.398438 C 158.984375 72.804688 159.359375 71.105469 160.5 70.765625 C 161.617188 70.429688 163.238281 71.566406 163.640625 73.117188 C 164.039062 74.652344 163.027344 75.0625 161.933594 75.429688 C 160.824219 75.804688 159.84375 75.976562 159.417969 74.398438 " fill-opacity="1" fill-rule="nonzero"/><path fill="#ebb171" d="M 159.960938 73.949219 C 159.6875 72.949219 159.925781 71.882812 160.636719 71.667969 C 161.339844 71.457031 162.359375 72.171875 162.609375 73.144531 C 162.859375 74.109375 162.226562 74.367188 161.539062 74.597656 C 160.84375 74.832031 160.226562 74.941406 159.960938 73.949219 " fill-opacity="1" fill-rule="nonzero"/><path fill="#534143" d="M 161.257812 71.296875 C 161.324219 71.507812 161.0625 71.773438 160.675781 71.886719 C 160.292969 72 159.929688 71.917969 159.863281 71.707031 C 159.800781 71.492188 160.230469 71.722656 160.617188 71.609375 C 161 71.496094 161.195312 71.082031 161.257812 71.296875 " fill-opacity="1" fill-rule="nonzero"/><path fill="#534143" d="M 160.984375 67.941406 C 160.863281 67.476562 160.960938 67.039062 161.203125 66.964844 C 161.445312 66.894531 161.738281 67.214844 161.859375 67.679688 C 161.976562 68.148438 161.882812 68.585938 161.640625 68.660156 C 161.398438 68.730469 161.105469 68.410156 160.984375 67.941406 " fill-opacity="1" fill-rule="nonzero"/><path fill="#963245" d="M 160.523438 65.039062 L 162.09375 65.503906 C 162.222656 65.542969 162.300781 65.6875 162.261719 65.824219 L 162.121094 66.347656 C 162.082031 66.484375 161.945312 66.566406 161.8125 66.527344 L 160.242188 66.058594 C 160.109375 66.019531 160.035156 65.875 160.070312 65.738281 L 160.214844 65.214844 C 160.25 65.078125 160.390625 64.996094 160.523438 65.039062 " fill-opacity="1" fill-rule="nonzero"/><path fill="#534143" d="M 158.585938 68.609375 C 158.5 68.175781 158.585938 67.78125 158.785156 67.730469 C 158.984375 67.675781 159.21875 67.988281 159.304688 68.421875 C 159.394531 68.859375 159.304688 69.253906 159.105469 69.304688 C 158.90625 69.359375 158.675781 69.046875 158.585938 68.609375 " fill-opacity="1" fill-rule="nonzero"/><path fill="#963245" d="M 157.199219 66.851562 L 158.429688 65.867188 C 158.53125 65.785156 158.683594 65.816406 158.769531 65.933594 L 159.085938 66.378906 C 159.167969 66.496094 159.152344 66.660156 159.050781 66.742188 L 157.820312 67.722656 C 157.714844 67.804688 157.5625 67.777344 157.480469 67.660156 L 157.164062 67.214844 C 157.078125 67.09375 157.09375 66.933594 157.199219 66.851562 " fill-opacity="1" fill-rule="nonzero"/><path fill="#fcecdd" d="M 162.308594 67.410156 L 160.242188 67.972656 L 160.613281 69.40625 L 162.679688 68.847656 L 162.308594 67.410156 " fill-opacity="1" fill-rule="nonzero"/><path fill="#fcecdd" d="M 159.375 68.324219 L 157.453125 68.902344 L 157.8125 70.335938 L 159.734375 69.757812 L 159.375 68.324219 " fill-opacity="1" fill-rule="nonzero"/><path fill="#d2634c" d="M 160.121094 68.496094 C 159.730469 69.714844 159.613281 70.472656 160.011719 70.683594 C 160.253906 70.816406 160.601562 70.714844 160.875 70.589844 L 160.882812 70.613281 C 160.882812 70.613281 160.046875 71.171875 159.621094 70.984375 C 159.195312 70.800781 159.480469 69.929688 160.121094 68.496094 " fill-opacity="1" fill-rule="nonzero"/><path fill="#ebb171" d="M 159.191406 68.5625 L 157.722656 69.003906 L 157.992188 70.097656 L 159.460938 69.65625 L 159.191406 68.5625 " fill-opacity="1" fill-rule="nonzero"/><path fill="#ebb171" d="M 162.136719 67.695312 L 160.484375 68.164062 L 160.769531 69.257812 L 162.421875 68.785156 L 162.136719 67.695312 " fill-opacity="1" fill-rule="nonzero"/><path fill="#fcecdd" d="M 160.3125 68.136719 L 159.269531 68.441406 L 159.394531 68.761719 L 160.441406 68.453125 L 160.3125 68.136719 " fill-opacity="1" fill-rule="nonzero"/><path fill="#fcecdd" d="M 166.390625 66.253906 L 162.1875 67.507812 L 162.316406 67.828125 L 166.519531 66.574219 L 166.390625 66.253906 " fill-opacity="1" fill-rule="nonzero"/><path fill="#534143" d="M 160.609375 68.128906 C 160.753906 68.464844 160.984375 68.675781 161.183594 68.613281 C 161.378906 68.554688 161.480469 68.253906 161.445312 67.890625 L 160.609375 68.128906 " fill-opacity="1" fill-rule="nonzero"/><path fill="#534143" d="M 158.042969 68.90625 C 158.15625 69.207031 158.332031 69.398438 158.492188 69.355469 C 158.65625 69.316406 158.742188 69.039062 158.722656 68.703125 L 158.042969 68.90625 " fill-opacity="1" fill-rule="nonzero"/><path fill="#534143" d="M 161.144531 72.121094 C 161.128906 72.070312 160.976562 72.070312 160.8125 72.125 C 160.644531 72.179688 160.523438 72.265625 160.542969 72.320312 C 160.5625 72.371094 160.707031 72.371094 160.875 72.316406 C 161.042969 72.261719 161.160156 72.175781 161.144531 72.121094 " fill-opacity="1" fill-rule="nonzero"/><path fill="#ebb171" d="M 164.433594 67.5 C 164.613281 66.542969 165.226562 65.855469 165.804688 65.964844 C 166.382812 66.074219 166.703125 66.9375 166.523438 67.894531 C 166.34375 68.851562 165.730469 69.539062 165.152344 69.429688 C 164.574219 69.320312 164.253906 68.457031 164.433594 67.5 " fill-opacity="1" fill-rule="nonzero"/><path fill="#d2634c" d="M 164.871094 67.621094 C 165.089844 67 165.558594 66.597656 165.917969 66.726562 C 166.277344 66.855469 166.394531 67.460938 166.171875 68.082031 C 165.953125 68.703125 165.484375 69.105469 165.125 68.976562 C 164.765625 68.847656 164.652344 68.242188 164.871094 67.621094 " fill-opacity="1" fill-rule="nonzero"/><path fill="#ebb171" d="M 164.933594 68.398438 C 165.082031 67.976562 165.40625 67.703125 165.648438 67.789062 C 165.894531 67.875 165.972656 68.292969 165.824219 68.714844 C 165.671875 69.136719 165.355469 69.410156 165.109375 69.324219 C 164.863281 69.238281 164.785156 68.824219 164.933594 68.398438 " fill-opacity="1" fill-rule="nonzero"/><g clip-path="url(#ece84bba1f)"><path fill="#f14892" d="M 194.632812 142.472656 L 0.246094 142.472656 C 0.246094 142.472656 48.996094 150.082031 103.300781 150.082031 C 157.605469 150.082031 194.632812 142.472656 194.632812 142.472656 " fill-opacity="1" fill-rule="nonzero"/></g></svg>