<svg xmlns="http://www.w3.org/2000/svg" xmlns:xlink="http://www.w3.org/1999/xlink" width="260" zoomAndPan="magnify" viewBox="0 0 194.87999 172.499995" height="230" preserveAspectRatio="xMidYMid meet" version="1.0"><defs><clipPath id="5bde215e58"><path d="M 0.222656 0 L 194.539062 0 L 194.539062 172 L 0.222656 172 Z M 0.222656 0 " clip-rule="nonzero"/></clipPath><clipPath id="23de75915b"><path d="M 22.386719 0 L 172 0 L 172 172 L 22.386719 172 Z M 22.386719 0 " clip-rule="nonzero"/></clipPath><clipPath id="ca233c3a7c"><path d="M 22.386719 0 L 160 0 L 160 172 L 22.386719 172 Z M 22.386719 0 " clip-rule="nonzero"/></clipPath><clipPath id="6faa698559"><path d="M 50 59 L 161 59 L 161 172 L 50 172 Z M 50 59 " clip-rule="nonzero"/></clipPath></defs><g clip-path="url(#5bde215e58)"><path fill="#ffffff" d="M 0.222656 0 L 194.65625 0 L 194.65625 172 L 0.222656 172 Z M 0.222656 0 " fill-opacity="1" fill-rule="nonzero"/><path fill="#ffffff" d="M 0.222656 0 L 194.65625 0 L 194.65625 172 L 0.222656 172 Z M 0.222656 0 " fill-opacity="1" fill-rule="nonzero"/></g><g clip-path="url(#23de75915b)"><path fill="#f7ead7" d="M 169.34375 89.3125 L 166.671875 85.726562 C 166.671875 85.726562 157.179688 71.308594 153.320312 67.257812 C 151.542969 65.398438 147.546875 61.828125 143.210938 58.332031 C 142.882812 56.3125 142.191406 53.523438 141.628906 51.414062 C 144.386719 50.144531 147.105469 48.152344 148.371094 46.03125 C 148.449219 45.902344 148.53125 45.75 148.617188 45.582031 C 149.484375 45.644531 150.582031 45.621094 151.871094 45.402344 C 155.324219 44.808594 158.167969 42.949219 158.933594 40.003906 C 159.414062 38.164062 159.585938 36.054688 157.378906 34.40625 C 156.699219 33.898438 155.667969 33.753906 154.566406 33.796875 L 158.8125 23.984375 C 158.8125 23.984375 159.804688 11.535156 152.019531 7.410156 C 144.234375 3.285156 137.632812 1.621094 137.632812 1.621094 L 132.972656 0.835938 C 132.972656 0.835938 124.078125 0.0117188 118.398438 4.875 C 115.621094 7.253906 113.59375 11.6875 113.59375 11.6875 C 113.59375 11.6875 112.269531 17.503906 111.679688 22.023438 C 111.222656 21.847656 110.773438 21.761719 110.347656 21.792969 C 107.601562 22.015625 106.625 23.890625 106.050781 25.707031 C 105.132812 28.609375 106.550781 31.695312 109.15625 34.027344 C 110.085938 34.855469 110.957031 35.4375 111.699219 35.84375 C 112.015625 38.683594 113.410156 42.429688 115.078125 44.917969 C 110.042969 43.476562 105.769531 42.28125 105.769531 42.28125 C 105.769531 42.28125 94.691406 40.699219 83.15625 41.820312 C 72.863281 40.183594 64.554688 45.925781 64.554688 45.925781 L 61.648438 50.707031 C 61.648438 50.707031 59.078125 50.316406 55.761719 52.722656 C 52.558594 55.046875 52.558594 60.851562 52.558594 60.851562 L 53.773438 69.324219 C 51.433594 70.335938 51.035156 72.328125 50.988281 74.164062 C 50.910156 77.203125 53.128906 79.777344 56.28125 81.300781 C 57.402344 81.839844 58.398438 82.15625 59.226562 82.34375 C 60.65625 85.808594 64.3125 90.269531 67.066406 91.503906 C 67.644531 91.765625 68.667969 91.976562 69.964844 92.140625 L 69.964844 96.40625 L 54.519531 101.410156 C 38.132812 108.203125 27.640625 132.890625 27.640625 132.890625 C 27.640625 132.890625 22.382812 147.375 23 155.789062 C 23.617188 164.203125 34.90625 167.40625 39.835938 169.046875 C 44.769531 170.6875 62.433594 171.835938 65.628906 171.214844 C 68.824219 170.597656 73.316406 169.070312 73.316406 169.070312 C 73.316406 169.070312 79.769531 171.011719 82.648438 171.386719 C 85.527344 171.761719 91.910156 172.011719 91.910156 172.011719 C 91.910156 172.011719 93.128906 170.710938 94.386719 168.183594 L 112.785156 167.40625 L 133.585938 167.40625 L 136.320312 134.410156 C 136.820312 136.449219 137.378906 138.515625 137.75 139.257812 C 138.574219 140.902344 141.949219 144.496094 141.949219 144.5 C 141.949219 144.5 140.300781 149.738281 139.847656 151.535156 C 139.398438 153.332031 138.050781 160.367188 138.351562 161.261719 C 138.648438 162.160156 140.898438 162.609375 140.898438 162.609375 C 140.898438 162.609375 142.398438 162.460938 143.445312 160.214844 C 144.496094 157.96875 145.695312 153.929688 145.695312 153.929688 C 145.695312 153.929688 145.695312 161.261719 145.695312 163.359375 C 145.695312 165.453125 145.996094 168.75 146.746094 169.796875 C 147.492188 170.84375 152.890625 169.796875 152.890625 169.796875 L 159.941406 163.058594 C 159.941406 163.058594 161.136719 155.617188 160.835938 153.949219 C 160.535156 152.28125 159.941406 147.492188 159.941406 147.492188 L 157.988281 142.851562 C 159.835938 138.542969 160.867188 133.136719 158.8125 126.980469 C 158.019531 124.605469 155.875 121.308594 153.542969 118.15625 C 158.445312 114.015625 165.226562 108.222656 166.480469 106.820312 C 168.480469 104.582031 170.800781 99.988281 171.320312 98.300781 C 172.683594 93.902344 169.34375 89.3125 169.34375 89.3125 Z M 51.671875 147.917969 L 53.058594 143.730469 L 55.507812 137.636719 L 56.316406 143.785156 L 56.378906 148.117188 Z M 141.710938 106.664062 C 140.242188 105.980469 138.476562 105.160156 136.585938 104.289062 L 136.058594 91.5625 L 147.28125 101.914062 Z M 141.710938 106.664062 " fill-opacity="1" fill-rule="nonzero"/></g><path fill="#677f63" d="M 166.671875 85.726562 L 151.78125 98.074219 L 147.277344 101.914062 L 136.058594 91.5625 C 136.058594 91.5625 139.46875 87.019531 140.800781 83.519531 C 142.988281 77.765625 144.253906 70.574219 144.253906 70.574219 C 144.253906 70.574219 143.582031 60.722656 143.230469 58.476562 C 143.226562 58.429688 143.214844 58.378906 143.207031 58.332031 C 147.546875 61.828125 151.542969 65.398438 153.320312 67.257812 C 157.179688 71.308594 166.671875 85.726562 166.671875 85.726562 Z M 126.398438 77.160156 C 124.9375 70.675781 128.375 62.207031 128.375 62.207031 L 133.695312 52.378906 C 127.792969 51.386719 118.664062 48.484375 116.695312 46.816406 C 116.144531 46.351562 115.597656 45.695312 115.078125 44.917969 C 110.042969 43.476562 105.769531 42.28125 105.769531 42.28125 C 105.769531 42.28125 94.691406 40.699219 83.15625 41.820312 C 84.007812 41.957031 84.867188 42.136719 85.738281 42.378906 C 92.9375 44.382812 98.371094 49.609375 101.597656 53.585938 C 103.035156 57.933594 103.328125 63.03125 103.328125 63.03125 L 101.507812 68.183594 C 101.945312 68.160156 102.359375 68.203125 102.722656 68.339844 C 105.300781 69.308594 105.722656 71.382812 105.769531 73.289062 C 105.847656 76.328125 103.632812 78.902344 100.476562 80.421875 C 99.296875 80.992188 98.25 81.316406 97.398438 81.5 C 97.363281 81.683594 97.324219 81.851562 97.289062 81.996094 L 101.324219 88.625 L 106.597656 93.652344 C 106.597656 93.652344 106.910156 94.132812 107.335938 94.808594 C 110.648438 95.1875 118.535156 96.289062 124.085938 98.664062 C 127.425781 100.09375 132.308594 102.316406 136.585938 104.289062 L 136.058594 91.5625 C 136.058594 91.5625 128.375 85.945312 126.398438 77.160156 Z M 126.398438 77.160156 " fill-opacity="1" fill-rule="nonzero"/><path fill="#e3694c" d="M 136.1875 133.847656 C 136.230469 134.035156 136.277344 134.222656 136.324219 134.410156 L 133.585938 167.40625 L 112.785156 167.40625 C 112.785156 167.40625 112.578125 138.0625 112.578125 137.445312 C 112.578125 136.832031 111.632812 119.226562 111.632812 119.226562 L 125.46875 124.503906 C 125.46875 124.503906 125.132812 125.398438 125.453125 127.078125 C 125.773438 128.757812 130.335938 131.714844 130.335938 131.714844 C 130.335938 131.714844 134.914062 134.386719 136.1875 133.847656 Z M 67.246094 77.882812 C 65.417969 77.242188 62.992188 78.773438 62.992188 78.773438 C 62.992188 78.773438 61.429688 80.917969 61.675781 82.007812 C 61.960938 83.273438 63.023438 84.972656 64.898438 85.125 C 66.773438 85.277344 67.742188 85.023438 67.742188 85.023438 C 67.742188 85.023438 67.777344 84.996094 67.84375 84.945312 C 68.273438 84.613281 69.957031 83.222656 69.964844 81.570312 C 69.96875 79.425781 68.433594 78.296875 67.246094 77.882812 Z M 92.128906 77.882812 C 90.296875 77.242188 87.875 78.773438 87.875 78.773438 C 87.875 78.773438 86.308594 80.917969 86.554688 82.007812 C 86.558594 82.023438 86.5625 82.035156 86.566406 82.050781 C 88.105469 82.984375 89.472656 83.96875 89.472656 83.96875 L 88.785156 84.878906 C 89.085938 85.007812 89.417969 85.097656 89.777344 85.125 C 91.652344 85.277344 92.621094 85.023438 92.621094 85.023438 C 92.621094 85.023438 94.835938 83.46875 94.84375 81.570312 C 94.851562 79.425781 93.3125 78.296875 92.128906 77.882812 Z M 116.378906 40.085938 C 118.136719 40.75 119.140625 40.769531 119.140625 40.769531 C 119.140625 40.769531 121.699219 39.890625 122.230469 38.070312 C 122.832031 36.007812 121.667969 34.5 120.644531 33.773438 C 119.0625 32.652344 116.308594 33.453125 116.308594 33.453125 C 116.308594 33.453125 114.210938 35.082031 114.144531 36.199219 C 114.070312 37.496094 114.621094 39.421875 116.378906 40.085938 Z M 144.554688 40.648438 C 142.972656 39.527344 140.21875 40.332031 140.21875 40.332031 C 140.21875 40.332031 138.121094 41.960938 138.054688 43.074219 C 137.980469 44.371094 138.527344 46.296875 140.289062 46.960938 C 142.046875 47.625 143.046875 47.648438 143.046875 47.648438 C 143.046875 47.648438 145.609375 46.765625 146.140625 44.945312 C 146.742188 42.886719 145.578125 41.378906 144.554688 40.648438 Z M 144.554688 40.648438 " fill-opacity="1" fill-rule="nonzero"/><g clip-path="url(#ca233c3a7c)"><path fill="#06023d" d="M 157.988281 142.851562 L 141.949219 144.496094 C 141.949219 144.496094 138.574219 140.898438 137.75 139.257812 C 137.378906 138.515625 136.820312 136.449219 136.324219 134.410156 C 136.277344 134.222656 136.230469 134.035156 136.1875 133.847656 C 137.460938 133.3125 142.742188 128.757812 142.742188 128.757812 L 148.347656 122.519531 C 148.347656 122.519531 150.609375 120.632812 153.542969 118.15625 C 155.875 121.304688 158.019531 124.601562 158.8125 126.980469 C 160.867188 133.136719 159.835938 138.542969 157.988281 142.851562 Z M 123.851562 118.605469 C 123.371094 119.484375 123.289062 120.84375 123.289062 120.84375 L 124.8125 122.203125 L 130.894531 119.242188 L 125.46875 124.503906 L 111.632812 119.226562 C 111.632812 119.226562 112.578125 136.832031 112.578125 137.445312 C 112.578125 138.0625 112.785156 167.40625 112.785156 167.40625 L 94.386719 168.183594 C 94.691406 167.570312 95 166.890625 95.289062 166.136719 C 96.792969 162.261719 98.839844 159.011719 98.089844 156.695312 C 97.339844 154.382812 93.1875 152.296875 93.1875 152.296875 C 93.1875 152.296875 91.648438 149.417969 89.902344 148.605469 C 88.15625 147.796875 81.519531 149.421875 81.519531 149.421875 L 76.011719 151.632812 L 73.316406 169.070312 C 73.316406 169.070312 68.824219 170.597656 65.628906 171.214844 C 62.433594 171.835938 44.769531 170.6875 39.839844 169.046875 C 34.90625 167.40625 23.617188 164.203125 23 155.789062 C 22.382812 147.375 27.640625 132.890625 27.640625 132.890625 C 27.640625 132.890625 38.132812 108.203125 54.519531 101.410156 L 69.964844 96.40625 L 69.96875 96.40625 C 69.96875 96.40625 72.511719 96.816406 75.179688 97.433594 C 77.851562 98.046875 82.625 97.433594 82.625 97.433594 L 87.074219 94.882812 L 87.992188 104.625 L 90.445312 106.527344 C 90.445312 106.527344 101.378906 109.167969 102.570312 107.820312 C 103.761719 106.472656 103.53125 104.085938 103.53125 104.085938 L 102.523438 97.335938 C 102.523438 97.335938 105.203125 100.714844 107.363281 101.117188 C 109.523438 101.523438 109.972656 99.757812 109.570312 98.679688 C 109.304688 97.976562 108.128906 96.058594 107.335938 94.808594 C 110.648438 95.1875 118.539062 96.289062 124.085938 98.664062 C 127.425781 100.09375 132.308594 102.316406 136.589844 104.289062 C 138.476562 105.160156 140.246094 105.980469 141.710938 106.664062 L 135.144531 112.265625 C 135.144531 112.265625 129.9375 114.285156 128.976562 114.847656 C 128.015625 115.40625 124.332031 117.726562 123.851562 118.605469 Z M 56.378906 148.117188 L 56.316406 143.78125 L 55.507812 137.636719 L 53.058594 143.730469 L 51.671875 147.917969 Z M 136.058594 91.5625 C 136.058594 91.5625 139.46875 87.019531 140.800781 83.519531 C 142.988281 77.765625 144.253906 70.574219 144.253906 70.574219 C 144.253906 70.574219 143.582031 60.722656 143.230469 58.476562 C 143.226562 58.429688 143.214844 58.378906 143.207031 58.332031 C 142.882812 56.3125 142.191406 53.523438 141.628906 51.414062 C 140.402344 51.984375 139.164062 52.40625 138.042969 52.636719 C 137.15625 52.820312 135.589844 52.699219 133.695312 52.378906 L 128.375 62.207031 C 128.375 62.207031 124.9375 70.675781 126.394531 77.160156 C 128.375 85.945312 136.058594 91.5625 136.058594 91.5625 Z M 70.953125 74.464844 C 70.953125 74.464844 70.378906 74.140625 69.785156 74.226562 C 69.023438 74.335938 68.546875 74.996094 68.546875 74.996094 C 68.546875 74.996094 67.929688 75.933594 68.457031 76.96875 C 68.71875 77.480469 69.507812 77.769531 70.167969 77.71875 C 70.828125 77.667969 71.503906 76.875 71.503906 76.875 C 71.503906 76.875 71.828125 76.15625 71.621094 75.527344 C 71.417969 74.894531 70.953125 74.464844 70.953125 74.464844 Z M 85.121094 73.761719 C 84.546875 73.933594 84.164062 74.472656 84.164062 74.472656 C 84.164062 74.472656 83.925781 75.058594 84.007812 75.71875 C 84.089844 76.378906 84.6875 76.890625 84.6875 76.890625 C 84.6875 76.890625 85.632812 77.324219 86.253906 77.089844 C 86.875 76.855469 87.46875 76.261719 87.488281 75.6875 C 87.527344 74.527344 86.570312 73.941406 86.570312 73.941406 C 86.570312 73.941406 85.855469 73.542969 85.121094 73.761719 Z M 66.417969 71.871094 C 67.4375 71.40625 69.765625 70.953125 69.765625 70.953125 L 73.109375 71.074219 L 72.886719 69.542969 L 69.929688 69.226562 C 69.929688 69.226562 67.675781 69.230469 65.800781 70.324219 C 63.925781 71.417969 63.378906 72.203125 63.378906 72.203125 L 64.144531 73.183594 C 64.144531 73.183594 65.394531 72.335938 66.417969 71.871094 Z M 89.316406 71.242188 C 90.339844 71.707031 91.589844 72.554688 91.589844 72.554688 L 92.351562 71.578125 C 92.351562 71.578125 91.808594 70.789062 89.933594 69.695312 C 88.058594 68.601562 85.800781 68.597656 85.800781 68.597656 L 82.847656 68.914062 L 82.625 70.445312 L 85.964844 70.324219 C 85.964844 70.324219 88.292969 70.777344 89.316406 71.242188 Z M 122.695312 31.363281 C 122.695312 31.363281 121.839844 32.089844 122.058594 33.230469 C 122.167969 33.796875 122.847656 34.289062 123.496094 34.425781 C 124.144531 34.558594 125.011719 33.984375 125.011719 33.984375 C 125.011719 33.984375 125.523438 33.382812 125.5 32.71875 C 125.480469 32.058594 125.152344 31.515625 125.152344 31.515625 C 125.152344 31.515625 124.6875 31.042969 124.09375 30.960938 C 123.335938 30.859375 122.695312 31.363281 122.695312 31.363281 Z M 140.703125 37.261719 C 141.0625 36.15625 140.304688 35.328125 140.304688 35.328125 C 140.304688 35.328125 139.730469 34.746094 138.960938 34.757812 C 138.363281 34.761719 137.84375 35.175781 137.84375 35.175781 C 137.84375 35.175781 137.453125 35.671875 137.347656 36.328125 C 137.246094 36.984375 137.679688 37.640625 137.679688 37.640625 C 137.679688 37.640625 138.46875 38.320312 139.128906 38.265625 C 139.789062 38.214844 140.523438 37.804688 140.703125 37.261719 Z M 128.375 27.316406 L 125.621094 26.199219 C 125.621094 26.199219 123.453125 25.578125 121.347656 26.113281 C 119.242188 26.644531 118.5 27.25 118.5 27.25 L 118.964844 28.402344 C 118.964844 28.402344 120.402344 27.929688 121.511719 27.765625 C 122.625 27.601562 124.984375 27.8125 124.984375 27.8125 L 128.164062 28.851562 Z M 145.511719 35.382812 L 146.515625 34.652344 C 146.515625 34.652344 146.210938 33.746094 144.710938 32.175781 C 143.214844 30.605469 141.046875 29.980469 141.046875 29.980469 L 138.121094 29.464844 L 137.480469 30.878906 L 140.726562 31.683594 C 140.726562 31.683594 142.835938 32.761719 143.691406 33.492188 C 144.542969 34.21875 145.511719 35.382812 145.511719 35.382812 Z M 115.769531 25.1875 L 125.503906 13.40625 L 129.675781 18.527344 L 136.058594 24.035156 L 150.832031 34.445312 C 151.863281 34.160156 153.261719 33.847656 154.566406 33.796875 L 158.8125 23.984375 C 158.8125 23.984375 159.804688 11.535156 152.019531 7.410156 C 144.234375 3.285156 137.632812 1.621094 137.632812 1.621094 L 132.972656 0.835938 C 132.972656 0.835938 124.078125 0.0117188 118.398438 4.875 C 115.621094 7.253906 113.59375 11.6875 113.59375 11.6875 C 113.59375 11.6875 112.265625 17.503906 111.679688 22.023438 C 113.171875 22.59375 114.742188 24.082031 115.769531 25.1875 Z M 115.769531 25.1875 " fill-opacity="1" fill-rule="nonzero"/></g><g clip-path="url(#6faa698559)"><path fill="#eda68b" d="M 159.945312 163.058594 L 152.890625 169.796875 C 152.890625 169.796875 147.496094 170.84375 146.746094 169.796875 C 145.996094 168.75 145.695312 165.453125 145.695312 163.359375 C 145.695312 161.261719 145.695312 153.929688 145.695312 153.929688 C 145.695312 153.929688 144.496094 157.96875 143.449219 160.214844 C 142.398438 162.460938 140.898438 162.609375 140.898438 162.609375 C 140.898438 162.609375 138.652344 162.160156 138.351562 161.261719 C 138.050781 160.367188 139.402344 153.328125 139.851562 151.535156 C 140.300781 149.738281 141.949219 144.5 141.949219 144.5 L 157.988281 142.851562 L 159.945312 147.492188 C 159.945312 147.492188 160.535156 152.28125 160.835938 153.949219 C 161.136719 155.617188 159.945312 163.058594 159.945312 163.058594 Z M 105.769531 73.289062 C 105.847656 76.328125 103.632812 78.902344 100.476562 80.421875 C 99.296875 80.992188 98.25 81.316406 97.398438 81.5 C 97.363281 81.683594 97.324219 81.851562 97.289062 81.996094 C 96.378906 85.453125 92.484375 89.476562 89.195312 91.199219 C 88.679688 91.46875 87.863281 91.695312 86.839844 91.882812 L 86.917969 92.875 L 87.074219 94.882812 L 82.625 97.433594 C 82.625 97.433594 77.851562 98.050781 75.179688 97.433594 C 72.511719 96.816406 69.96875 96.40625 69.96875 96.40625 L 69.964844 96.410156 L 69.964844 92.140625 C 68.667969 91.976562 67.644531 91.765625 67.066406 91.503906 C 64.3125 90.269531 60.65625 85.808594 59.226562 82.34375 C 58.398438 82.15625 57.402344 81.839844 56.28125 81.300781 C 53.128906 79.777344 50.910156 77.203125 50.988281 74.164062 C 51.035156 72.328125 51.433594 70.335938 53.773438 69.328125 C 53.859375 69.289062 53.941406 69.25 54.035156 69.214844 C 55.46875 68.675781 57.660156 69.578125 59.324219 70.488281 C 61.265625 66.980469 63.363281 62.433594 62.96875 59.691406 L 77.917969 63.566406 C 77.917969 63.566406 90.84375 66.738281 93.488281 66.035156 L 96.089844 70.402344 C 97.375 69.585938 99.679688 68.289062 101.507812 68.183594 C 101.945312 68.160156 102.359375 68.203125 102.722656 68.339844 C 105.300781 69.308594 105.722656 71.382812 105.769531 73.289062 Z M 82.625 70.445312 L 85.964844 70.324219 C 85.964844 70.324219 88.292969 70.777344 89.316406 71.242188 C 90.339844 71.707031 91.589844 72.554688 91.589844 72.554688 L 92.355469 71.578125 C 92.355469 71.578125 91.808594 70.789062 89.933594 69.695312 C 88.058594 68.601562 85.800781 68.597656 85.800781 68.597656 L 82.847656 68.914062 Z M 86.570312 73.941406 C 86.570312 73.941406 85.855469 73.542969 85.121094 73.761719 C 84.546875 73.933594 84.164062 74.472656 84.164062 74.472656 C 84.164062 74.472656 83.925781 75.058594 84.007812 75.71875 C 84.089844 76.378906 84.6875 76.890625 84.6875 76.890625 C 84.6875 76.890625 85.632812 77.324219 86.253906 77.089844 C 86.875 76.855469 87.46875 76.261719 87.488281 75.6875 C 87.527344 74.527344 86.570312 73.941406 86.570312 73.941406 Z M 63.378906 72.203125 L 64.144531 73.183594 C 64.144531 73.183594 65.394531 72.335938 66.417969 71.871094 C 67.4375 71.40625 69.765625 70.953125 69.765625 70.953125 L 73.109375 71.074219 L 72.886719 69.542969 L 69.929688 69.226562 C 69.929688 69.226562 67.675781 69.230469 65.800781 70.324219 C 63.925781 71.417969 63.378906 72.203125 63.378906 72.203125 Z M 71.621094 75.527344 C 71.417969 74.894531 70.953125 74.464844 70.953125 74.464844 C 70.953125 74.464844 70.378906 74.140625 69.785156 74.226562 C 69.027344 74.335938 68.546875 74.996094 68.546875 74.996094 C 68.546875 74.996094 67.929688 75.933594 68.457031 76.96875 C 68.71875 77.480469 69.507812 77.769531 70.167969 77.71875 C 70.828125 77.667969 71.503906 76.875 71.503906 76.875 C 71.503906 76.875 71.828125 76.160156 71.621094 75.527344 Z M 94.84375 81.570312 C 94.851562 79.425781 93.3125 78.296875 92.128906 77.882812 C 90.296875 77.242188 87.875 78.773438 87.875 78.773438 C 87.875 78.773438 86.308594 80.917969 86.554688 82.007812 C 86.558594 82.019531 86.5625 82.035156 86.566406 82.050781 C 85.425781 81.355469 84.191406 80.6875 83.34375 80.460938 C 81.34375 79.929688 77.945312 79.796875 77.945312 79.796875 C 77.945312 79.796875 74.863281 80.574219 73.109375 81.449219 C 71.523438 82.238281 68.4375 84.503906 67.839844 84.945312 C 68.273438 84.613281 69.957031 83.222656 69.964844 81.570312 C 69.96875 79.425781 68.433594 78.296875 67.246094 77.882812 C 65.417969 77.238281 62.992188 78.773438 62.992188 78.773438 C 62.992188 78.773438 61.429688 80.917969 61.675781 82.007812 C 61.960938 83.273438 63.023438 84.972656 64.898438 85.125 C 66.773438 85.277344 67.738281 85.019531 67.738281 85.019531 L 70.886719 88.625 L 74.949219 85.171875 L 77.917969 83.96875 L 84.675781 86.582031 L 86.53125 87.878906 L 88.785156 84.878906 C 89.085938 85.007812 89.417969 85.09375 89.777344 85.125 C 91.652344 85.277344 92.621094 85.019531 92.621094 85.019531 C 92.621094 85.019531 94.835938 83.464844 94.84375 81.570312 Z M 93.1875 152.296875 C 93.1875 152.296875 91.648438 149.417969 89.902344 148.605469 C 88.15625 147.796875 81.519531 149.421875 81.519531 149.421875 L 76.011719 151.632812 L 73.316406 169.070312 C 73.316406 169.070312 79.769531 171.011719 82.648438 171.386719 C 85.527344 171.761719 91.910156 172.011719 91.910156 172.011719 C 91.910156 172.011719 93.128906 170.710938 94.386719 168.183594 C 94.691406 167.570312 95 166.890625 95.289062 166.136719 C 96.792969 162.261719 98.839844 159.011719 98.089844 156.699219 C 97.339844 154.382812 93.1875 152.296875 93.1875 152.296875 Z M 93.1875 152.296875 " fill-opacity="1" fill-rule="nonzero"/></g></svg>