<svg xmlns="http://www.w3.org/2000/svg" xmlns:xlink="http://www.w3.org/1999/xlink" width="260" zoomAndPan="magnify" viewBox="0 0 194.87999 172.499995" height="230" preserveAspectRatio="xMidYMid meet" version="1.0"><defs><clipPath id="17a6e9f650"><path d="M 0.222656 0 L 194.539062 0 L 194.539062 172 L 0.222656 172 Z M 0.222656 0 " clip-rule="nonzero"/></clipPath><clipPath id="979844d84b"><path d="M 6.148438 169.820312 L 32.75 169.820312 L 32.75 171.984375 L 6.148438 171.984375 Z M 6.148438 169.820312 " clip-rule="nonzero"/></clipPath><clipPath id="6b56048be8"><path d="M 161.886719 169.820312 L 188.371094 169.820312 L 188.371094 171.984375 L 161.886719 171.984375 Z M 161.886719 169.820312 " clip-rule="nonzero"/></clipPath><clipPath id="311b59a819"><path d="M 3.191406 83.523438 L 191.644531 83.523438 L 191.644531 92.84375 L 3.191406 92.84375 Z M 3.191406 83.523438 " clip-rule="nonzero"/></clipPath><clipPath id="409046751c"><path d="M 3.191406 90.914062 L 191.644531 90.914062 L 191.644531 92.84375 L 3.191406 92.84375 Z M 3.191406 90.914062 " clip-rule="nonzero"/></clipPath></defs><g clip-path="url(#17a6e9f650)"><path fill="#ffffff" d="M 0.222656 0 L 194.65625 0 L 194.65625 172 L 0.222656 172 Z M 0.222656 0 " fill-opacity="1" fill-rule="nonzero"/><path fill="#ffffff" d="M 0.222656 0 L 194.65625 0 L 194.65625 172 L 0.222656 172 Z M 0.222656 0 " fill-opacity="1" fill-rule="nonzero"/></g><path fill="#fcf6f2" d="M 182.648438 87.640625 C 181.742188 78.878906 180.117188 70.070312 178.800781 61.425781 C 176.949219 49.28125 175.539062 36.535156 168.75 26.292969 C 161.175781 14.863281 147.859375 8.320312 134.414062 5.625 C 121.242188 2.988281 107.628906 3.558594 94.273438 5.03125 C 84.128906 6.144531 73.945312 7.800781 64.453125 11.542969 C 54.957031 15.289062 46.121094 21.277344 40.367188 29.710938 C 33.757812 39.398438 31.71875 51.375 27.796875 62.429688 C 24.46875 71.816406 19.6875 80.683594 13.695312 88.636719 C 12.359375 90.40625 10.167969 92.25 9.207031 94.226562 C 8.277344 96.136719 8.132812 98.84375 7.761719 100.933594 C 6.769531 106.53125 6.324219 112.28125 7.175781 117.929688 C 8.324219 125.554688 12.085938 133.058594 18.515625 137.3125 C 23.859375 140.847656 30.445312 141.847656 36.8125 142.511719 C 51.691406 144.0625 66.753906 144.265625 81.417969 147.21875 C 100.960938 151.15625 120.34375 159.976562 140.015625 156.710938 C 158.347656 153.667969 174.15625 139.523438 180.089844 121.90625 C 183.804688 110.882812 183.855469 99.300781 182.648438 87.640625 " fill-opacity="1" fill-rule="nonzero"/><path fill="#a9b881" d="M 108.707031 37.589844 C 108.582031 37.632812 108.453125 37.667969 108.316406 37.695312 C 108.042969 37.757812 107.742188 37.785156 107.421875 37.777344 C 104.46875 37.71875 103.332031 34.707031 103.113281 32.238281 C 103.011719 31.105469 103.007812 29.859375 103.566406 28.832031 C 103.726562 28.542969 103.925781 28.277344 104.152344 28.042969 C 104.589844 27.441406 105.203125 26.992188 105.917969 26.875 C 105.929688 26.875 105.9375 26.871094 105.949219 26.871094 C 106.082031 26.847656 106.207031 26.832031 106.339844 26.820312 C 107.992188 26.660156 109.441406 27.1875 110.363281 28.695312 C 110.964844 29.683594 111.199219 30.949219 111.296875 32.078125 C 111.488281 34.238281 110.8125 36.871094 108.707031 37.589844 " fill-opacity="1" fill-rule="nonzero"/><path fill="#a9b881" d="M 105.761719 41.617188 C 105.753906 41.757812 105.734375 41.902344 105.703125 42.039062 C 105.507812 43.019531 104.917969 43.929688 103.992188 44.507812 C 102.792969 45.253906 101.089844 45.117188 99.789062 44.753906 C 97.417969 44.089844 94.269531 41.980469 94.625 39.339844 C 94.640625 39.210938 94.667969 39.074219 94.707031 38.945312 C 94.78125 38.648438 94.90625 38.34375 95.082031 38.035156 C 96.015625 36.386719 97.785156 35.753906 99.59375 36.066406 C 100.207031 36.175781 100.808594 36.425781 101.40625 36.671875 C 101.640625 36.746094 101.871094 36.835938 102.113281 36.933594 C 103.246094 37.414062 104.238281 38.070312 105.003906 39.050781 C 105.597656 39.820312 105.835938 40.738281 105.761719 41.617188 " fill-opacity="1" fill-rule="nonzero"/><path fill="#a9b881" d="M 124.484375 48.332031 C 123.421875 50.324219 121.085938 51.746094 118.9375 51.382812 C 118.808594 51.359375 118.675781 51.332031 118.550781 51.296875 C 117.972656 51.136719 117.417969 50.835938 116.914062 50.375 C 116.027344 49.570312 115.710938 48.488281 115.746094 47.355469 C 115.679688 46.90625 115.710938 46.449219 115.871094 46.027344 C 115.945312 45.832031 116.023438 45.632812 116.105469 45.433594 C 116.390625 44.558594 116.8125 43.734375 117.265625 43.078125 C 117.4375 42.832031 117.625 42.617188 117.832031 42.421875 C 118.851562 41.21875 120.214844 40.46875 122.027344 40.980469 C 122.515625 41.117188 122.941406 41.316406 123.3125 41.566406 C 123.425781 41.640625 123.53125 41.71875 123.636719 41.8125 C 125.464844 43.308594 125.644531 46.160156 124.484375 48.332031 " fill-opacity="1" fill-rule="nonzero"/><path fill="#a9b881" d="M 120.839844 66.035156 C 120.8125 66.167969 120.777344 66.292969 120.734375 66.421875 C 120.546875 66.992188 120.222656 67.519531 119.789062 67.925781 C 118.894531 68.761719 117.675781 69.09375 116.476562 68.984375 C 115.496094 68.902344 114.636719 68.761719 113.777344 68.242188 C 112.394531 67.402344 111.738281 65.796875 111.867188 64.265625 C 111.875 64.132812 111.894531 64.003906 111.917969 63.871094 C 112.082031 62.910156 112.5625 62.007812 113.371094 61.382812 C 114.414062 60.574219 115.785156 60.398438 117.03125 60.800781 C 117.675781 61.007812 118.230469 61.339844 118.746094 61.738281 C 118.953125 61.839844 119.160156 61.964844 119.367188 62.125 C 119.824219 62.480469 120.160156 62.839844 120.460938 63.347656 C 120.9375 64.148438 121.046875 65.128906 120.839844 66.035156 " fill-opacity="1" fill-rule="nonzero"/><path fill="#a9b881" d="M 136.589844 61.570312 C 136.578125 61.703125 136.554688 61.835938 136.523438 61.964844 C 136.449219 62.3125 136.3125 62.648438 136.109375 62.964844 C 134.890625 64.855469 132.695312 65.222656 130.648438 64.742188 C 128.34375 64.195312 126.898438 61.8125 127.625 59.632812 C 127.667969 59.503906 127.71875 59.378906 127.777344 59.253906 C 127.835938 59.117188 127.90625 58.988281 127.984375 58.855469 C 128.71875 57.636719 130.121094 56.851562 131.542969 56.90625 C 131.976562 56.921875 132.433594 57.011719 132.867188 57.164062 C 133.355469 57.253906 133.796875 57.378906 134.296875 57.625 C 134.691406 57.820312 135.089844 58.121094 135.398438 58.425781 C 136.214844 59.238281 136.695312 60.429688 136.589844 61.570312 " fill-opacity="1" fill-rule="nonzero"/><path fill="#a9b881" d="M 139.210938 25.601562 C 139.125 25.8125 139.039062 26.050781 138.917969 26.253906 C 138.761719 26.519531 138.53125 26.789062 138.332031 27.023438 C 138.300781 27.0625 138.269531 27.097656 138.230469 27.132812 C 138.003906 27.355469 137.753906 27.566406 137.476562 27.714844 C 137.328125 27.785156 137.179688 27.851562 137.023438 27.910156 C 136.875 27.980469 136.722656 28.046875 136.570312 28.097656 C 136.550781 28.101562 136.535156 28.105469 136.519531 28.109375 C 136.21875 28.148438 135.917969 28.1875 135.617188 28.230469 C 135.269531 28.238281 135.066406 28.242188 134.617188 28.109375 C 134.507812 28.078125 134.402344 28.046875 134.296875 28 C 134.171875 27.960938 134.054688 27.910156 133.933594 27.851562 C 133.582031 27.691406 133.25 27.46875 132.984375 27.1875 C 132.554688 26.734375 132.167969 26.175781 132.019531 25.566406 C 131.871094 24.953125 131.851562 24.316406 131.984375 23.707031 C 132.003906 23.585938 132.03125 23.457031 132.066406 23.332031 C 132.175781 22.894531 132.375 22.507812 132.679688 22.179688 C 132.917969 21.8125 133.234375 21.519531 133.628906 21.304688 C 134.058594 21 134.472656 20.792969 134.984375 20.621094 C 135.558594 20.433594 136.359375 20.460938 136.9375 20.625 C 137.242188 20.710938 137.539062 20.839844 137.808594 21.003906 C 138.050781 21.148438 138.199219 21.25 138.3125 21.34375 C 138.414062 21.4375 138.492188 21.523438 138.582031 21.636719 C 138.640625 21.714844 138.707031 21.808594 138.796875 21.917969 C 139.09375 22.300781 139.304688 22.605469 139.421875 23.121094 C 139.488281 23.390625 139.539062 23.824219 139.550781 24.101562 C 139.574219 24.738281 139.4375 25.074219 139.210938 25.601562 " fill-opacity="1" fill-rule="nonzero"/><path fill="#a9b881" d="M 128.554688 27.460938 L 128.472656 27.535156 C 128.386719 27.601562 128.296875 27.664062 128.207031 27.722656 C 127.109375 28.441406 125.652344 28.519531 124.402344 28.097656 C 123.050781 27.636719 121.925781 26.65625 121.046875 25.53125 C 119.390625 23.390625 118.441406 18.679688 120.539062 16.902344 C 120.636719 16.816406 120.746094 16.734375 120.863281 16.664062 C 121.515625 16.261719 122.40625 16.09375 123.578125 16.277344 C 125.410156 16.5625 126.90625 17.898438 128.035156 19.367188 C 128.957031 20.570312 129.734375 21.941406 129.929688 23.441406 C 129.9375 23.503906 129.945312 23.570312 129.949219 23.632812 C 130.082031 25.042969 129.632812 26.550781 128.554688 27.460938 " fill-opacity="1" fill-rule="nonzero"/><path fill="#a9b881" d="M 161.804688 33.734375 C 161.8125 33.867188 161.8125 34.003906 161.804688 34.140625 C 161.796875 34.382812 161.765625 34.617188 161.707031 34.835938 C 161.703125 34.84375 161.703125 34.851562 161.699219 34.859375 C 161.417969 35.917969 160.496094 36.914062 159.402344 37.15625 C 159.394531 37.15625 159.382812 37.164062 159.375 37.164062 C 159.199219 37.203125 159.03125 37.226562 158.859375 37.242188 C 158.523438 37.308594 158.179688 37.359375 157.835938 37.328125 C 157.46875 37.296875 157.035156 37.261719 156.667969 37.128906 C 156.316406 37.007812 155.925781 36.871094 155.621094 36.644531 C 155.234375 36.441406 154.925781 36.15625 154.695312 35.796875 C 154.492188 35.59375 154.351562 35.347656 154.273438 35.070312 C 154.125 34.8125 154.046875 34.539062 154.046875 34.238281 C 154.027344 34.171875 154.015625 34.101562 154.007812 34.035156 C 153.984375 33.898438 153.984375 33.769531 154 33.632812 C 154.007812 33.539062 154.023438 33.453125 154.046875 33.363281 C 154.066406 32.929688 154.199219 32.519531 154.441406 32.144531 C 154.613281 31.917969 154.78125 31.699219 154.953125 31.476562 C 155.367188 31.0625 155.875 30.835938 156.40625 30.628906 C 156.652344 30.53125 156.886719 30.515625 157.15625 30.480469 C 157.386719 30.449219 157.636719 30.398438 157.878906 30.410156 C 158.734375 30.464844 159.277344 30.636719 160.046875 30.996094 C 160.332031 31.132812 160.585938 31.335938 160.800781 31.582031 C 160.820312 31.597656 160.839844 31.617188 160.859375 31.636719 C 161.03125 31.855469 161.203125 32.078125 161.375 32.300781 C 161.632812 32.707031 161.773438 33.21875 161.804688 33.734375 " fill-opacity="1" fill-rule="nonzero"/><path fill="#a9b881" d="M 159.273438 49.398438 C 158.992188 50.363281 158.335938 51.179688 157.453125 51.636719 C 157.335938 51.699219 157.210938 51.753906 157.082031 51.796875 C 156.980469 51.84375 156.875 51.878906 156.769531 51.90625 C 156.128906 52.078125 155.492188 52.078125 154.855469 51.90625 C 154.246094 51.734375 153.722656 51.425781 153.269531 50.984375 C 153.027344 50.675781 152.738281 50.378906 152.5625 50.027344 C 152.417969 49.746094 152.269531 49.382812 152.164062 49.082031 C 152.152344 49.046875 152.140625 49.007812 152.128906 48.964844 C 152.109375 48.890625 152.097656 48.804688 152.085938 48.714844 L 152.0625 48.671875 C 152.007812 48.5 151.980469 48.320312 151.984375 48.136719 C 151.949219 47.960938 151.929688 47.78125 151.917969 47.601562 C 151.957031 47.28125 152 46.964844 152.042969 46.648438 C 152.109375 46.390625 152.308594 45.953125 152.429688 45.714844 C 152.585938 45.425781 152.804688 45.164062 153.042969 44.933594 C 153.308594 44.671875 153.472656 44.539062 153.644531 44.433594 C 153.753906 44.375 153.863281 44.328125 154.007812 44.265625 C 154.078125 44.238281 154.152344 44.207031 154.238281 44.171875 C 154.738281 43.960938 155.058594 43.855469 155.667969 43.855469 C 156.421875 43.859375 156.53125 43.941406 157.09375 44.183594 C 157.578125 44.386719 157.890625 44.554688 158.292969 44.964844 C 158.820312 45.503906 158.988281 45.902344 159.242188 46.601562 C 159.28125 46.714844 159.3125 46.824219 159.332031 46.9375 C 159.46875 47.804688 159.535156 48.527344 159.273438 49.398438 " fill-opacity="1" fill-rule="nonzero"/><path fill="#a9b881" d="M 171.351562 48.367188 C 171.367188 48.730469 171.289062 49.117188 171.15625 49.488281 C 171.082031 49.824219 170.957031 50.15625 170.785156 50.460938 C 169.210938 53.183594 163.605469 54.964844 161.640625 52.015625 C 161.570312 51.921875 161.511719 51.820312 161.453125 51.714844 C 161.324219 51.472656 161.214844 51.195312 161.128906 50.894531 C 160.117188 47.21875 164.832031 44.570312 167.960938 44.972656 C 168.90625 45.097656 169.648438 45.316406 170.359375 45.96875 C 170.675781 46.257812 170.914062 46.628906 171.070312 47.019531 C 171.125 47.148438 171.167969 47.285156 171.203125 47.417969 C 171.289062 47.730469 171.335938 48.050781 171.351562 48.367188 " fill-opacity="1" fill-rule="nonzero"/><path fill="#a9b881" d="M 163.054688 67.972656 C 161.25 69.074219 159.175781 69.910156 157.046875 69.347656 C 155.90625 69.050781 154.988281 68.113281 154.675781 66.976562 C 154.605469 66.742188 154.570312 66.511719 154.5625 66.285156 C 154.550781 66.144531 154.554688 66 154.566406 65.859375 C 154.636719 65.0625 155.011719 64.347656 155.550781 63.675781 C 156.515625 62.46875 158.09375 61.949219 159.578125 61.820312 C 159.816406 61.800781 160.0625 61.789062 160.308594 61.796875 C 161.785156 61.324219 163.425781 62.011719 164.273438 63.328125 C 164.425781 63.558594 164.539062 63.804688 164.613281 64.0625 C 164.652344 64.195312 164.679688 64.324219 164.703125 64.457031 C 164.917969 65.804688 164.226562 67.257812 163.054688 67.972656 " fill-opacity="1" fill-rule="nonzero"/><path fill="#a9b881" d="M 160.785156 28.050781 C 159.789062 28.621094 158.609375 29.023438 157.449219 28.957031 C 156.566406 28.902344 155.769531 28.59375 155.167969 28.03125 C 155.070312 27.949219 154.976562 27.851562 154.890625 27.75 C 154.671875 27.492188 154.488281 27.199219 154.347656 26.867188 C 153.820312 25.625 154.078125 24.125 155.046875 23.15625 C 156.101562 22.113281 157.453125 21.320312 158.902344 20.988281 C 159.3125 20.898438 159.710938 20.875 160.09375 20.910156 C 160.960938 20.902344 161.773438 21.332031 162.398438 21.902344 C 162.644531 22.132812 162.828125 22.386719 162.96875 22.667969 C 163.027344 22.78125 163.078125 22.90625 163.125 23.03125 C 163.273438 23.4375 163.34375 23.867188 163.390625 24.304688 C 163.585938 26.03125 162.121094 27.28125 160.785156 28.050781 " fill-opacity="1" fill-rule="nonzero"/><path fill="#7a9136" d="M 135.003906 120.136719 C 134.976562 120.390625 134.574219 120.394531 134.605469 120.136719 C 135.511719 112.382812 134.617188 104.59375 133.003906 96.992188 C 131.605469 90.421875 129.804688 83.910156 127.90625 77.46875 C 126.992188 74.382812 125.976562 71.320312 124.675781 68.375 C 124.652344 68.367188 124.636719 68.359375 124.617188 68.34375 C 124.519531 68.242188 124.378906 68.183594 124.261719 68.105469 C 123.757812 67.75 123.160156 67.492188 122.605469 67.230469 C 122.027344 66.953125 121.445312 66.703125 120.851562 66.464844 C 120.8125 66.449219 120.773438 66.433594 120.734375 66.421875 C 119.59375 65.972656 118.421875 65.597656 117.234375 65.308594 C 115.460938 64.875 113.628906 64.695312 111.867188 64.265625 C 111.875 64.132812 111.894531 64.003906 111.917969 63.871094 C 113.816406 64.339844 115.789062 64.523438 117.6875 65.011719 C 118.761719 65.292969 119.8125 65.632812 120.839844 66.035156 C 122.046875 66.503906 123.222656 67.054688 124.359375 67.675781 C 123.066406 64.871094 121.480469 62.222656 119.828125 59.617188 C 119.160156 58.566406 117.59375 56.144531 117.59375 56.089844 C 115.429688 52.640625 113.339844 49.160156 111.542969 45.5 C 111.414062 45.398438 111.285156 45.300781 111.140625 45.21875 C 109.433594 43.96875 107.613281 42.902344 105.703125 42.039062 C 102.226562 40.449219 98.464844 39.527344 94.625 39.339844 C 94.640625 39.210938 94.667969 39.074219 94.707031 38.945312 C 98.53125 39.140625 102.285156 40.054688 105.761719 41.617188 C 107.664062 42.476562 109.492188 43.53125 111.195312 44.769531 C 110.929688 44.222656 110.671875 43.675781 110.425781 43.117188 C 109.640625 41.339844 108.929688 39.53125 108.316406 37.695312 C 107.136719 34.183594 106.308594 30.570312 105.949219 26.871094 C 106.082031 26.847656 106.207031 26.832031 106.339844 26.820312 C 106.535156 28.816406 106.867188 30.796875 107.324219 32.753906 C 107.707031 34.386719 108.167969 36 108.707031 37.589844 C 109.726562 40.632812 111.003906 43.59375 112.445312 46.441406 C 114.019531 49.5625 115.847656 52.519531 117.703125 55.460938 C 117.9375 54.074219 118.210938 52.671875 118.550781 51.296875 C 119.433594 47.71875 120.800781 44.273438 123.3125 41.566406 C 123.425781 41.640625 123.53125 41.71875 123.636719 41.8125 C 121.15625 44.476562 119.8125 47.859375 118.9375 51.382812 C 118.5625 52.902344 118.269531 54.441406 118.019531 55.964844 C 119.433594 58.195312 120.851562 60.421875 122.191406 62.699219 C 123.226562 64.460938 124.132812 66.273438 124.941406 68.121094 C 124.945312 68.128906 124.949219 68.132812 124.953125 68.140625 C 126.6875 72.089844 127.988281 76.199219 129.160156 80.390625 C 132.75 93.277344 136.585938 106.628906 135.003906 120.136719 " fill-opacity="1" fill-rule="nonzero"/><path fill="#7a9136" d="M 164.613281 64.0625 C 164.652344 64.195312 164.679688 64.324219 164.703125 64.457031 C 161.238281 64.578125 157.734375 64.976562 154.5625 66.285156 C 153.292969 66.808594 152.078125 67.484375 150.941406 68.34375 C 150.902344 68.371094 150.863281 68.378906 150.828125 68.375 C 148.851562 73.527344 147.667969 79.015625 147.039062 84.476562 C 145.730469 95.753906 146.234375 107.230469 146.441406 118.554688 C 146.445312 118.816406 146.046875 118.8125 146.042969 118.554688 C 145.917969 111.777344 145.78125 104.992188 145.863281 98.210938 C 146.003906 87.203125 146.925781 75.925781 151.46875 65.757812 C 153.039062 62.246094 155.03125 58.90625 157.464844 55.925781 C 157.457031 55.90625 157.449219 55.886719 157.449219 55.863281 C 157.421875 54.515625 157.316406 53.144531 157.082031 51.796875 C 156.933594 50.957031 156.730469 50.125 156.460938 49.324219 C 155.867188 47.550781 154.703125 45.980469 153.644531 44.433594 C 153.753906 44.375 153.863281 44.328125 154.007812 44.265625 C 155.082031 45.832031 156.242188 47.417969 156.84375 49.214844 C 157.105469 50 157.308594 50.8125 157.453125 51.636719 C 157.683594 52.90625 157.796875 54.199219 157.835938 55.472656 C 158.332031 54.886719 158.839844 54.304688 159.371094 53.75 C 160.027344 53.066406 160.71875 52.375 161.453125 51.714844 C 164.167969 49.257812 167.425781 47.160156 171.070312 47.019531 C 171.125 47.148438 171.167969 47.285156 171.203125 47.417969 C 167.632812 47.503906 164.371094 49.523438 161.640625 52.015625 C 160.183594 53.34375 158.882812 54.800781 157.757812 56.183594 C 154.894531 59.683594 152.707031 63.613281 151.054688 67.777344 C 152.160156 66.980469 153.339844 66.355469 154.566406 65.859375 C 157.71875 64.589844 161.1875 64.1875 164.613281 64.0625 " fill-opacity="1" fill-rule="nonzero"/><path fill="#7a9136" d="M 161.804688 33.734375 C 161.8125 33.867188 161.8125 34.003906 161.804688 34.140625 C 159.21875 33.652344 156.582031 33.625 154.007812 34.035156 C 151.695312 34.398438 149.441406 35.121094 147.320312 36.179688 C 143.308594 41.558594 140.484375 47.816406 139.175781 54.441406 C 143.980469 73.910156 143.839844 94.402344 141.675781 114.292969 C 141.648438 114.546875 141.246094 114.546875 141.277344 114.292969 C 142.039062 107.269531 142.5625 100.222656 142.703125 93.160156 C 142.890625 83.589844 142.335938 73.914062 140.78125 64.433594 C 140.730469 64.4375 140.675781 64.425781 140.628906 64.378906 C 139.460938 63.226562 138.035156 62.503906 136.523438 61.964844 C 135.730469 61.683594 134.90625 61.449219 134.09375 61.234375 C 131.945312 60.671875 129.789062 60.140625 127.625 59.632812 C 127.667969 59.503906 127.71875 59.378906 127.777344 59.253906 C 130.132812 59.804688 132.488281 60.371094 134.816406 61.015625 C 135.414062 61.179688 136.007812 61.363281 136.589844 61.570312 C 138.089844 62.101562 139.507812 62.8125 140.691406 63.902344 C 140.167969 60.804688 139.542969 57.726562 138.796875 54.679688 C 138.761719 54.632812 138.742188 54.578125 138.757812 54.507812 C 138.835938 54.097656 138.441406 53.269531 138.332031 52.851562 C 138.191406 52.300781 138.042969 51.75 137.890625 51.203125 C 137.582031 50.105469 137.261719 49.011719 136.929688 47.921875 C 136.242188 45.707031 135.488281 43.515625 134.660156 41.351562 C 133.304688 37.796875 131.753906 34.316406 130.003906 30.9375 C 129.441406 29.851562 128.839844 28.777344 128.207031 27.722656 C 126.921875 25.5625 125.511719 23.460938 124.070312 21.414062 C 122.96875 19.851562 121.808594 18.328125 120.539062 16.902344 C 120.636719 16.816406 120.746094 16.734375 120.863281 16.664062 C 121.933594 17.871094 122.925781 19.144531 123.871094 20.449219 C 125.515625 22.730469 127.125 25.039062 128.554688 27.460938 C 128.867188 27.980469 129.167969 28.507812 129.453125 29.039062 C 130 30.046875 130.53125 31.0625 131.046875 32.089844 C 131.292969 32.585938 131.539062 33.082031 131.773438 33.582031 C 131.925781 33.890625 132.460938 34.640625 132.433594 34.976562 C 132.644531 32.597656 133.09375 30.132812 133.933594 27.851562 C 134.855469 25.347656 136.25 23.054688 138.3125 21.34375 C 138.414062 21.4375 138.492188 21.523438 138.582031 21.636719 C 136.5625 23.304688 135.199219 25.542969 134.296875 28 C 133.386719 30.46875 132.945312 33.152344 132.765625 35.699219 C 132.765625 35.707031 132.765625 35.714844 132.765625 35.714844 C 133.652344 37.695312 134.484375 39.695312 135.246094 41.722656 C 136.710938 45.613281 137.933594 49.5625 138.953125 53.550781 C 140.304688 47.296875 143.003906 41.394531 146.765625 36.261719 C 146.703125 36.175781 146.695312 36.046875 146.816406 35.980469 C 146.902344 35.941406 146.984375 35.902344 147.066406 35.859375 C 149.324219 32.847656 151.953125 30.121094 154.890625 27.75 C 155.265625 27.445312 155.644531 27.148438 156.03125 26.855469 C 156.046875 26.832031 156.0625 26.8125 156.09375 26.796875 C 156.199219 26.714844 156.316406 26.644531 156.421875 26.5625 C 156.621094 26.417969 156.816406 26.269531 157.015625 26.128906 C 157.046875 26.105469 157.078125 26.097656 157.109375 26.09375 C 158.984375 24.816406 160.933594 23.667969 162.96875 22.667969 C 163.027344 22.78125 163.078125 22.90625 163.125 23.03125 C 160.851562 24.15625 158.679688 25.457031 156.609375 26.921875 C 156.121094 27.28125 155.636719 27.652344 155.167969 28.03125 C 152.445312 30.226562 149.988281 32.730469 147.855469 35.476562 C 149.820312 34.574219 151.890625 33.957031 154 33.632812 C 156.574219 33.230469 159.214844 33.257812 161.804688 33.734375 " fill-opacity="1" fill-rule="nonzero"/><path fill="#ffc799" d="M 153.839844 124.550781 C 153.792969 131.847656 152.878906 137.414062 139.609375 137.414062 C 126.34375 137.414062 125.429688 131.847656 125.378906 124.550781 C 125.378906 123.730469 125.378906 122.890625 125.378906 122.03125 C 125.378906 121.144531 125.453125 120.273438 125.585938 119.425781 C 125.96875 117.015625 126.867188 114.792969 128.15625 112.902344 L 151.066406 112.902344 C 152.355469 114.792969 153.253906 117.015625 153.636719 119.425781 C 153.769531 120.273438 153.839844 121.144531 153.839844 122.03125 C 153.839844 122.890625 153.84375 123.730469 153.839844 124.550781 " fill-opacity="1" fill-rule="nonzero"/><path fill="#ffffff" d="M 153.839844 124.550781 L 125.378906 124.550781 C 125.378906 123.730469 125.378906 122.890625 125.378906 122.03125 C 125.378906 121.144531 125.453125 120.273438 125.585938 119.425781 L 153.636719 119.425781 C 153.769531 120.273438 153.839844 121.144531 153.839844 122.03125 C 153.839844 122.890625 153.84375 123.730469 153.839844 124.550781 " fill-opacity="1" fill-rule="nonzero"/><path fill="#ffc799" d="M 152.0625 119.425781 L 152.0625 124.550781 L 151.664062 124.550781 L 151.664062 119.425781 L 152.0625 119.425781 " fill-opacity="1" fill-rule="nonzero"/><path fill="#ffc799" d="M 147.234375 119.425781 L 147.234375 124.550781 L 146.832031 124.550781 L 146.832031 119.425781 L 147.234375 119.425781 " fill-opacity="1" fill-rule="nonzero"/><path fill="#ffc799" d="M 142.402344 119.425781 L 142.402344 124.550781 L 142.003906 124.550781 L 142.003906 119.425781 L 142.402344 119.425781 " fill-opacity="1" fill-rule="nonzero"/><path fill="#ffc799" d="M 137.566406 119.425781 L 137.566406 124.550781 L 137.167969 124.550781 L 137.167969 119.425781 L 137.566406 119.425781 " fill-opacity="1" fill-rule="nonzero"/><path fill="#ffc799" d="M 132.734375 119.425781 L 132.734375 124.550781 L 132.335938 124.550781 L 132.335938 119.425781 L 132.734375 119.425781 " fill-opacity="1" fill-rule="nonzero"/><path fill="#ffc799" d="M 127.90625 119.425781 L 127.90625 124.550781 L 127.503906 124.550781 L 127.503906 119.425781 L 127.90625 119.425781 " fill-opacity="1" fill-rule="nonzero"/><path fill="#ff9d87" d="M 94.65625 134.140625 L 95.867188 150.4375 L 95.746094 161.832031 L 94.371094 163.488281 L 91.878906 161.691406 C 91.878906 161.691406 88.019531 139.539062 88.570312 134.996094 C 89.117188 130.453125 90.070312 127.25 90.347656 127 C 90.625 126.753906 94.65625 134.140625 94.65625 134.140625 " fill-opacity="1" fill-rule="nonzero"/><path fill="#e66b3e" d="M 97.605469 169.582031 C 97.484375 169.878906 96.085938 170.390625 93.828125 170.390625 C 91.574219 170.390625 90.609375 169.878906 90.640625 169.167969 C 90.644531 169.121094 90.652344 169.0625 90.65625 168.984375 C 90.660156 168.941406 90.664062 168.894531 90.667969 168.84375 C 90.683594 168.75 90.691406 168.632812 90.710938 168.503906 C 90.710938 168.488281 90.714844 168.46875 90.714844 168.453125 C 90.925781 166.757812 91.503906 162.886719 91.628906 162.339844 C 91.785156 161.691406 91.628906 161.351562 93.058594 160.90625 C 94.480469 160.453125 95.746094 161.828125 95.746094 161.828125 C 95.746094 161.828125 97.066406 166.214844 97.496094 168.410156 C 97.496094 168.414062 97.496094 168.414062 97.496094 168.417969 C 97.53125 168.558594 97.546875 168.699219 97.570312 168.816406 C 97.574219 168.84375 97.582031 168.871094 97.582031 168.898438 C 97.636719 169.242188 97.644531 169.484375 97.605469 169.582031 " fill-opacity="1" fill-rule="nonzero"/><path fill="#ff9d87" d="M 72.25 162.960938 C 72.167969 162.730469 72.109375 162.441406 72.054688 162.125 C 71.832031 160.753906 72.246094 153.613281 72.246094 153.613281 L 67.058594 153.613281 L 67.726562 160.351562 C 67.636719 160.507812 67.535156 160.660156 67.421875 160.808594 C 66.84375 161.558594 66.019531 162.207031 65.289062 162.714844 C 65.183594 162.792969 65.078125 162.863281 64.976562 162.933594 C 64.921875 162.96875 64.871094 163.003906 64.824219 163.035156 C 64.488281 163.261719 64.148438 163.476562 63.800781 163.679688 C 63.6875 163.746094 63.578125 163.8125 63.464844 163.867188 C 63.15625 164.042969 62.835938 164.207031 62.515625 164.355469 C 61.628906 164.769531 58.636719 166.023438 58.328125 166.773438 C 58.085938 167.359375 58.488281 168.003906 59.117188 168.039062 C 59.601562 168.0625 60.132812 168.089844 60.488281 168.105469 C 64.296875 168.25 72.621094 167.734375 72.621094 167.734375 C 73.328125 166.496094 72.679688 164.1875 72.25 162.960938 " fill-opacity="1" fill-rule="nonzero"/><path fill="#e66b3e" d="M 73.042969 166.84375 C 73.039062 166.910156 73.03125 166.976562 73.027344 167.035156 C 73.023438 167.140625 73.007812 167.226562 73 167.320312 C 72.996094 167.363281 72.992188 167.402344 72.988281 167.445312 C 72.941406 167.808594 72.882812 168.066406 72.816406 168.128906 C 72.609375 168.332031 58.394531 168.363281 58.253906 168.296875 C 58.207031 168.273438 58.152344 168.070312 58.125 167.785156 C 58.113281 167.710938 58.109375 167.628906 58.109375 167.539062 C 58.105469 167.492188 58.105469 167.441406 58.105469 167.386719 C 58.105469 167.28125 58.109375 167.171875 58.125 167.058594 C 58.160156 166.6875 58.257812 166.304688 58.460938 166.042969 C 58.996094 165.371094 61.347656 164.664062 62.648438 164.105469 C 62.875 164.019531 63.105469 163.882812 63.367188 163.707031 C 63.46875 163.644531 63.574219 163.574219 63.683594 163.5 C 63.792969 163.421875 63.898438 163.34375 64.007812 163.253906 C 64.117188 163.179688 64.21875 163.09375 64.328125 163.007812 C 64.476562 162.890625 64.628906 162.773438 64.773438 162.648438 C 64.875 162.570312 64.972656 162.488281 65.070312 162.398438 C 65.113281 162.363281 65.15625 162.324219 65.203125 162.289062 C 65.304688 162.199219 65.40625 162.113281 65.503906 162.03125 C 66.082031 161.539062 66.589844 161.097656 66.902344 160.894531 C 67.050781 160.792969 67.234375 160.777344 67.417969 160.808594 C 68.25 160.953125 69.273438 162.128906 69.273438 162.128906 C 69.273438 162.128906 71.234375 161.816406 72.058594 162.125 C 72.234375 162.183594 72.355469 162.285156 72.398438 162.417969 C 72.609375 163.167969 72.953125 163.679688 73.046875 164.792969 C 73.09375 165.355469 73.089844 166.164062 73.042969 166.84375 " fill-opacity="1" fill-rule="nonzero"/><path fill="#464752" d="M 97.054688 140.105469 C 96.664062 131.386719 93.976562 88.609375 93.976562 88.609375 C 93.976562 88.609375 92.71875 81.179688 89.058594 79.648438 C 85.648438 78.222656 81.699219 79.445312 78.480469 80.824219 C 76.695312 81.585938 74.632812 82.492188 73.21875 83.867188 C 71.722656 85.320312 72.449219 86.855469 73.140625 88.550781 C 74.085938 90.875 75.027344 93.203125 75.976562 95.527344 C 76.535156 96.890625 77.15625 98.089844 78.453125 98.636719 C 79.964844 113.210938 83.570312 127.445312 85.46875 141.972656 C 86 145.996094 86.453125 150.027344 87.28125 154 C 87.304688 154.132812 87.332031 154.265625 87.367188 154.398438 C 87.476562 154.929688 87.597656 155.460938 87.726562 155.988281 C 87.746094 156.074219 87.828125 156.128906 87.917969 156.132812 C 90.109375 156.234375 93.945312 156.234375 96.125 155.945312 C 97.65625 155.746094 97.886719 154.886719 97.890625 153.476562 L 97.890625 153.066406 C 97.871094 148.738281 97.246094 144.425781 97.054688 140.105469 " fill-opacity="1" fill-rule="nonzero"/><path fill="#464752" d="M 80.261719 85.539062 C 80.195312 84.78125 80.023438 83.832031 79.289062 83.425781 C 78.277344 82.863281 76.757812 83.679688 75.765625 83.921875 C 73.972656 84.359375 72.152344 84.6875 70.316406 84.890625 C 68.589844 85.082031 66.847656 85.171875 65.105469 85.152344 C 64.007812 85.140625 62.414062 85.277344 61.238281 84.839844 C 61.253906 84.460938 61.265625 84.085938 61.277344 83.707031 C 61.285156 83.449219 60.886719 83.449219 60.878906 83.707031 C 60.871094 84.023438 60.859375 84.339844 60.847656 84.65625 C 60.597656 84.515625 60.375 84.34375 60.191406 84.121094 C 60.03125 83.921875 59.753906 84.207031 59.910156 84.40625 C 60.171875 84.722656 60.488281 84.941406 60.832031 85.089844 C 60.527344 94.164062 63.203125 131.242188 63.871094 140.785156 C 64.1875 145.273438 64.4375 149.765625 64.683594 154.261719 C 64.691406 154.410156 64.699219 154.554688 64.707031 154.699219 C 64.746094 155.484375 64.789062 156.265625 64.832031 157.050781 C 64.835938 157.15625 64.914062 157.234375 65.015625 157.242188 C 65.035156 157.277344 65.066406 157.308594 65.117188 157.324219 C 67.640625 158.152344 70.707031 158.914062 73.382812 158.574219 C 74.050781 158.492188 75.335938 158.097656 75.648438 157.402344 C 75.75 157.167969 75.761719 156.816406 75.753906 156.484375 C 75.753906 156.34375 75.75 156.199219 75.746094 156.074219 C 75.742188 156.003906 75.742188 155.9375 75.742188 155.878906 C 75.742188 155.855469 75.738281 155.835938 75.738281 155.816406 C 76.210938 152.804688 76.648438 149.792969 76.503906 146.738281 C 76.359375 143.605469 76.054688 140.554688 76.234375 137.417969 C 76.585938 131.332031 77.011719 125.234375 77.675781 119.171875 C 77.710938 118.8125 77.75 118.457031 77.789062 118.097656 C 78.335938 113.292969 78.660156 108.523438 79.121094 103.742188 C 79.261719 102.25 79.417969 100.761719 79.59375 99.269531 C 79.964844 96.203125 80.234375 93.121094 80.308594 90.035156 C 80.34375 88.546875 80.390625 87.023438 80.261719 85.539062 " fill-opacity="1" fill-rule="nonzero"/><path fill="#242630" d="M 78.78125 102.503906 C 78.316406 100.839844 77.886719 99.171875 77.390625 97.519531 C 77.140625 96.675781 76.835938 95.894531 75.972656 95.550781 C 75.855469 95.503906 75.714844 95.621094 75.722656 95.742188 C 75.996094 101.277344 76.152344 106.828125 76.566406 112.355469 C 76.738281 114.667969 77.078125 116.9375 77.675781 119.171875 C 77.710938 118.8125 77.75 118.457031 77.789062 118.097656 C 78.335938 113.292969 78.660156 108.523438 79.121094 103.742188 C 79.007812 103.324219 78.898438 102.914062 78.78125 102.503906 " fill-opacity="1" fill-rule="nonzero"/><path fill="#e6684b" d="M 41.554688 47.957031 L 46.394531 29.355469 L 53.683594 38.324219 L 48.585938 49.847656 L 41.554688 47.957031 " fill-opacity="1" fill-rule="nonzero"/><path fill="#464752" d="M 94.007812 75.867188 C 93.933594 76.484375 93.757812 77.09375 93.4375 77.683594 C 93.304688 77.925781 92.929688 77.707031 93.0625 77.460938 C 93.339844 76.953125 93.5 76.417969 93.582031 75.867188 C 91.066406 75.855469 88.550781 76.773438 86.109375 77.253906 C 83.769531 77.707031 81.40625 78.058594 79.039062 78.296875 C 74.476562 78.761719 68.566406 78.824219 63.992188 78.476562 C 63.460938 78.4375 61.851562 78.496094 61.398438 78.136719 C 60.859375 77.710938 60.746094 76.710938 60.566406 76.113281 C 59.898438 73.925781 59.269531 71.726562 58.6875 69.515625 C 57.140625 63.65625 55.9375 57.695312 55.257812 51.675781 C 53.769531 46.449219 50.734375 38.640625 49.835938 33.257812 C 49.570312 31.679688 49.421875 30.082031 49.457031 28.484375 C 49.480469 27.359375 49.28125 25.820312 50.460938 25.277344 C 52.328125 24.414062 54.4375 23.902344 56.542969 23.59375 C 56.675781 23.574219 56.8125 23.554688 56.949219 23.53125 C 57.496094 23.457031 58.046875 23.394531 58.585938 23.339844 C 59.226562 23.171875 59.480469 22.40625 60.203125 22.25 C 61.1875 22.039062 63.140625 22.050781 64.144531 21.984375 C 65.628906 21.878906 67.113281 21.710938 68.585938 21.632812 C 68.71875 21.621094 68.851562 21.617188 68.988281 21.613281 C 71.492188 21.488281 73.929688 21.652344 76.207031 22.820312 C 78.371094 23.941406 80.050781 25.792969 81.277344 27.871094 C 82.609375 30.125 83.222656 32.683594 83.886719 35.21875 C 85.152344 40.019531 87.183594 47.632812 88.273438 52.460938 C 89.074219 56.027344 89.722656 59.71875 90.882812 63.191406 C 91.78125 65.878906 92.617188 68.585938 93.378906 71.316406 C 93.753906 72.664062 94.125 74.082031 94.050781 75.460938 C 94.222656 75.539062 94.207031 75.832031 94.007812 75.867188 " fill-opacity="1" fill-rule="nonzero"/><path fill="#464752" d="M 55.144531 47.019531 C 54.820312 47.289062 54.367188 47.574219 53.945312 47.578125 C 53.765625 47.585938 53.59375 47.535156 53.433594 47.417969 C 52.730469 46.894531 51.800781 46.726562 50.945312 46.445312 C 50.691406 46.363281 50.441406 46.269531 50.210938 46.152344 C 49.203125 45.65625 48.203125 45.003906 47.203125 44.566406 C 45.5 43.820312 43.65625 43.328125 41.796875 43.257812 C 41.683594 43.253906 41.59375 43.171875 41.59375 43.058594 C 41.582031 42.035156 41.949219 40.96875 42.25 40.003906 C 42.585938 38.910156 42.925781 37.839844 43.207031 36.734375 C 43.617188 35.144531 44.179688 33.601562 44.757812 32.070312 C 44.753906 32.066406 44.75 32.0625 44.75 32.0625 C 45.128906 30.585938 45.839844 29.167969 46.824219 28.003906 C 47.28125 27.464844 47.800781 26.976562 48.367188 26.550781 C 48.808594 26.21875 49.546875 25.566406 50.105469 25.503906 C 50.105469 25.503906 51.691406 25.347656 51.804688 25.355469 C 51.503906 25.453125 53.503906 31.234375 54.230469 33.226562 C 54.78125 34.738281 55.746094 36.449219 55.410156 38.101562 C 55.167969 39.324219 54.976562 42.070312 54.523438 43.984375 C 55.238281 44.921875 56.125 46.214844 55.144531 47.019531 " fill-opacity="1" fill-rule="nonzero"/><path fill="#242630" d="M 89.183594 69.910156 C 88.105469 66.566406 87.042969 63.246094 86.269531 59.816406 C 84.675781 52.742188 83.449219 45.578125 82.074219 38.460938 C 82.027344 38.210938 81.644531 38.332031 81.691406 38.582031 C 83.042969 45.578125 84.261719 52.613281 85.804688 59.566406 C 86.542969 62.878906 87.519531 66.097656 88.574219 69.324219 C 89.675781 72.703125 90.695312 76.128906 90.789062 79.710938 C 90.796875 79.96875 91.195312 79.953125 91.1875 79.695312 C 91.097656 76.332031 90.207031 73.097656 89.183594 69.910156 " fill-opacity="1" fill-rule="nonzero"/><path fill="#242630" d="M 68.988281 21.613281 C 68.867188 24.230469 68.585938 26.84375 68.132812 29.425781 C 67.808594 31.28125 67.398438 33.117188 66.902344 34.929688 C 66.660156 35.828125 66.539062 36.746094 66.128906 37.585938 C 65.949219 37.945312 65.707031 38.34375 65.296875 38.441406 C 64.132812 38.714844 63.320312 37.363281 62.777344 36.566406 C 61.746094 35.058594 60.847656 33.460938 60.019531 31.832031 C 58.6875 29.203125 57.335938 26.460938 56.542969 23.59375 C 56.363281 22.933594 56.210938 22.269531 56.09375 21.601562 C 56.050781 21.347656 56.4375 21.242188 56.480469 21.496094 C 56.601562 22.183594 56.757812 22.863281 56.949219 23.53125 C 57.628906 25.941406 58.710938 28.234375 59.796875 30.480469 C 60.460938 31.855469 61.164062 33.207031 61.945312 34.519531 C 62.320312 35.144531 62.710938 35.765625 63.121094 36.367188 C 63.671875 37.175781 64.855469 39.070312 65.828125 37.167969 C 66.175781 36.488281 66.316406 35.5625 66.519531 34.820312 C 66.714844 34.101562 66.898438 33.367188 67.070312 32.636719 C 67.441406 31.046875 67.746094 29.445312 67.988281 27.835938 C 68.296875 25.78125 68.492188 23.707031 68.585938 21.632812 C 68.71875 21.621094 68.851562 21.617188 68.988281 21.613281 " fill-opacity="1" fill-rule="nonzero"/><path fill="#ffffff" d="M 60.011719 26.15625 C 60.011719 26.15625 63.472656 35.945312 64.734375 35.945312 C 65.660156 35.945312 66.425781 24.25 66.425781 24.25 L 62.8125 25.359375 L 60.011719 26.15625 " fill-opacity="1" fill-rule="nonzero"/><path fill="#ff9d87" d="M 187.253906 82.839844 C 187.230469 82.707031 187.1875 82.574219 187.128906 82.453125 C 186.921875 81.957031 186.519531 81.523438 186.089844 81.324219 C 184.71875 80.699219 182.996094 80.550781 181.515625 80.375 C 179.527344 80.136719 177.71875 79.445312 176.019531 78.386719 C 174.933594 77.707031 173.722656 76.148438 172.296875 76.429688 C 171.589844 76.570312 171.050781 77.035156 170.589844 77.558594 C 169.839844 78.40625 169.179688 79.34375 168.484375 80.230469 C 168.347656 80.402344 168.539062 80.640625 168.691406 80.570312 C 168.699219 80.800781 168.75 81.042969 168.765625 81.234375 C 168.804688 81.953125 168.714844 82.859375 169.027344 83.535156 C 169.570312 84.695312 171.046875 84.648438 172.125 84.652344 C 174.171875 84.660156 176.214844 84.660156 178.253906 84.664062 C 180.191406 84.667969 182.160156 84.777344 184.085938 84.621094 C 184.875 84.558594 186.882812 84.527344 187.207031 83.640625 C 187.304688 83.382812 187.3125 83.105469 187.253906 82.839844 " fill-opacity="1" fill-rule="nonzero"/><path fill="#ff9d87" d="M 173.183594 81.289062 L 170.910156 83.996094 C 170.910156 83.996094 170.1875 84.011719 168.960938 84.039062 C 168.660156 84.046875 168.320312 84.050781 167.957031 84.058594 C 165.324219 84.105469 161.261719 84.15625 157.066406 84.144531 L 157.894531 78.152344 L 162.078125 78.53125 L 168.804688 79.265625 L 170.292969 79.425781 L 171.601562 79.570312 L 173.183594 81.289062 " fill-opacity="1" fill-rule="nonzero"/><path fill="#944426" d="M 163.347656 79.210938 C 163.339844 79.339844 163.339844 79.472656 163.332031 79.605469 C 163.222656 82.136719 162.964844 84.6875 162.964844 84.6875 L 69.136719 86.039062 L 72.058594 77.492188 L 72.191406 77.101562 L 75.261719 68.136719 C 75.261719 68.136719 78.515625 66.527344 82.863281 65.335938 C 83.007812 65.296875 83.152344 65.257812 83.300781 65.21875 C 85.996094 64.511719 89.066406 63.992188 92.027344 64.109375 C 92.429688 64.125 92.820312 64.152344 93.199219 64.195312 C 93.316406 64.199219 93.425781 64.210938 93.539062 64.226562 C 100.558594 65.007812 104.492188 69.070312 109.597656 69.847656 C 115.050781 70.6875 123.035156 72.707031 126.230469 72.363281 C 126.367188 72.347656 126.5 72.332031 126.640625 72.316406 C 126.769531 72.300781 126.898438 72.285156 127.035156 72.269531 C 127.363281 72.230469 127.703125 72.183594 128.054688 72.136719 C 128.1875 72.121094 128.316406 72.105469 128.453125 72.089844 C 131.386719 71.714844 135.0625 71.347656 139.140625 72.40625 C 144.332031 73.75 147.925781 73.007812 152.449219 73.511719 C 156.972656 74.011719 162.03125 73.929688 162.964844 74.703125 C 163.378906 75.050781 163.425781 77.074219 163.347656 79.210938 " fill-opacity="1" fill-rule="nonzero"/><path fill="#6e270d" d="M 163.347656 79.210938 C 163.339844 79.339844 163.339844 79.472656 163.332031 79.605469 C 157.839844 79.578125 152.351562 79.550781 146.859375 79.519531 C 140.394531 79.488281 133.925781 79.484375 127.457031 79.421875 C 127.070312 79.417969 126.695312 79.414062 126.3125 79.40625 C 125.96875 79.398438 125.558594 79.324219 125.226562 79.417969 C 125.160156 79.4375 125.097656 79.460938 125.023438 79.46875 C 124.941406 79.480469 124.835938 79.472656 124.855469 79.367188 C 124.351562 79.296875 123.804688 79.320312 123.292969 79.289062 C 122.765625 79.257812 122.234375 79.21875 121.707031 79.164062 C 120.632812 79.066406 119.5625 78.921875 118.503906 78.722656 C 115.21875 78.101562 112.070312 77.292969 108.699219 77.425781 C 105.480469 77.546875 102.289062 78.039062 99.070312 78.164062 C 95.960938 78.277344 92.847656 78.222656 89.742188 78.128906 C 83.847656 77.941406 77.949219 77.707031 72.058594 77.492188 C 71.335938 77.464844 70.617188 77.441406 69.894531 77.414062 C 69.636719 77.402344 69.644531 77.003906 69.902344 77.011719 C 70.664062 77.039062 71.429688 77.070312 72.191406 77.101562 C 78.820312 77.347656 85.449219 77.644531 92.082031 77.792969 C 95.191406 77.859375 98.304688 77.851562 101.40625 77.640625 C 104.601562 77.421875 107.796875 76.863281 111.007812 77.027344 C 114.09375 77.183594 117.046875 78.152344 120.089844 78.582031 C 121.746094 78.816406 123.410156 78.925781 125.082031 78.976562 C 126.300781 76.960938 126.84375 74.652344 126.640625 72.316406 C 126.769531 72.300781 126.898438 72.285156 127.035156 72.269531 C 127.238281 74.621094 126.726562 76.945312 125.539062 78.988281 C 126.964844 79.027344 128.390625 79.03125 129.8125 79.039062 C 140.992188 79.09375 152.167969 79.148438 163.347656 79.210938 " fill-opacity="1" fill-rule="nonzero"/><path fill="#e6684b" d="M 13.742188 76.457031 C 12.359375 76.679688 10.949219 77.1875 10.171875 78.417969 C 10.066406 78.585938 10.242188 78.742188 10.390625 78.710938 C 10.660156 79.835938 12.375 79.121094 13.113281 78.921875 C 13.976562 78.691406 15.75 78.382812 15.847656 77.214844 C 15.949219 76.023438 14.480469 76.335938 13.742188 76.457031 " fill-opacity="1" fill-rule="nonzero"/><path fill="#464752" d="M 14.371094 75.1875 C 14.304688 75.40625 14.238281 75.621094 14.175781 75.839844 C 13.644531 77.585938 12.859375 79.636719 14.332031 81.203125 C 15.390625 82.328125 16.558594 83.855469 18.09375 84.214844 C 20.019531 84.664062 22.46875 83.707031 24.441406 83.929688 C 28.96875 84.441406 33.464844 84.148438 37.984375 83.945312 C 39.074219 83.898438 40.246094 83.847656 41.222656 83.367188 C 42.152344 82.914062 42.0625 82.332031 42.050781 81.46875 C 42.035156 80.425781 42.21875 79.195312 41.71875 78.214844 C 41.214844 77.214844 40.042969 76.246094 39.117188 75.554688 C 37.082031 74.035156 34.449219 73.488281 32.082031 72.515625 C 29.417969 71.417969 26.941406 69.695312 24.027344 69.136719 C 23.015625 68.941406 21.945312 68.894531 20.953125 69.191406 C 19.792969 69.535156 19.066406 70.324219 18.203125 71.035156 C 17.367188 71.726562 16.316406 72.257812 15.578125 73.035156 C 15.15625 73.472656 14.8125 73.957031 14.597656 74.5 C 14.523438 74.6875 14.464844 74.882812 14.40625 75.074219 C 14.394531 75.109375 14.382812 75.148438 14.371094 75.1875 " fill-opacity="1" fill-rule="nonzero"/><path fill="#ff9d87" d="M 10.582031 79.738281 C 8.785156 81.867188 9.25 85.925781 13.308594 85.460938 C 17.371094 84.996094 37.867188 77.140625 37.867188 77.140625 L 31.609375 67.816406 C 31.609375 67.816406 12.378906 77.609375 10.582031 79.738281 " fill-opacity="1" fill-rule="nonzero"/><path fill="#ff9d87" d="M 11.5 79.308594 C 11.023438 78.519531 10.371094 77.816406 9.414062 77.652344 C 8.074219 77.425781 7.21875 78.707031 6.082031 79.175781 C 5.210938 79.535156 5.234375 79.910156 5.054688 80.9375 C 4.867188 81.980469 5.875 83.261719 6.519531 84.046875 C 7.796875 85.613281 9.390625 86.730469 10.726562 84.546875 C 11.0625 83.992188 11.207031 83.355469 11.394531 82.738281 C 11.585938 82.097656 11.949219 81.445312 12.035156 80.78125 C 12.117188 80.183594 11.933594 79.617188 11.5 79.308594 " fill-opacity="1" fill-rule="nonzero"/><path fill="#e6684b" d="M 11.828125 79.625 C 11.738281 79.386719 11.351562 79.488281 11.441406 79.730469 C 11.765625 80.621094 11.996094 81.570312 11.757812 82.503906 C 11.71875 82.671875 11.648438 82.832031 11.574219 82.988281 C 11.570312 82.980469 11.570312 82.96875 11.566406 82.957031 C 10.871094 81.378906 10.035156 79.882812 9.046875 78.46875 C 8.898438 78.257812 8.554688 78.457031 8.699219 78.671875 C 9.6875 80.085938 10.527344 81.578125 11.21875 83.160156 C 11.265625 83.261719 11.351562 83.277344 11.429688 83.25 C 11.078125 83.824219 10.554688 84.328125 10.101562 84.789062 C 9.921875 84.972656 10.203125 85.253906 10.386719 85.070312 C 11.035156 84.410156 11.96875 83.539062 12.203125 82.613281 C 12.441406 81.65625 12.15625 80.523438 11.828125 79.625 " fill-opacity="1" fill-rule="nonzero"/><path fill="#e6684b" d="M 10.25 83.746094 C 9.523438 82.382812 8.742188 81.058594 7.898438 79.765625 C 7.757812 79.550781 7.414062 79.75 7.554688 79.964844 C 8.394531 81.257812 9.179688 82.585938 9.90625 83.949219 C 10.027344 84.175781 10.371094 83.972656 10.25 83.746094 " fill-opacity="1" fill-rule="nonzero"/><path fill="#e6684b" d="M 8.5 84.289062 C 7.789062 83.046875 7.078125 81.804688 6.367188 80.5625 C 6.242188 80.339844 5.894531 80.542969 6.023438 80.765625 C 6.734375 82.007812 7.445312 83.25 8.15625 84.492188 C 8.28125 84.714844 8.628906 84.511719 8.5 84.289062 " fill-opacity="1" fill-rule="nonzero"/><path fill="#944426" d="M 14.460938 57.6875 C 13.929688 57.480469 13.363281 57.324219 12.78125 57.351562 C 12.527344 57.363281 12.289062 57.460938 12.039062 57.476562 C 11.304688 57.527344 11.269531 57.25 10.9375 56.84375 C 10.734375 56.589844 10.46875 56.46875 10.222656 56.5 C 10.550781 56.027344 10.921875 55.585938 11.265625 55.171875 C 11.429688 54.976562 11.148438 54.691406 10.984375 54.890625 C 10.449219 55.527344 9.890625 56.207031 9.472656 56.949219 C 8.515625 57.304688 7.882812 58.480469 7.878906 59.574219 C 7.878906 59.835938 7.984375 60.125 7.902344 60.394531 C 7.828125 60.636719 7.589844 60.863281 7.476562 61.097656 C 7.289062 61.476562 7.175781 61.875 7.179688 62.300781 C 7.191406 63.199219 8.453125 64.085938 8.136719 64.855469 C 7.59375 66.1875 7.785156 67.765625 8.554688 68.980469 C 8.882812 69.492188 9.195312 69.914062 9.832031 69.84375 C 10.214844 69.800781 10.570312 69.640625 10.882812 69.421875 C 11.507812 69.582031 12.15625 69.59375 12.789062 69.355469 C 13.945312 68.925781 14.40625 67.820312 15.332031 67.121094 C 15.761719 66.796875 15.757812 67.054688 16.234375 66.898438 C 16.699219 66.742188 17.113281 66.1875 17.375 65.804688 C 18.003906 64.894531 18.476562 63.648438 18.523438 62.542969 C 18.613281 60.238281 16.410156 58.460938 14.460938 57.6875 " fill-opacity="1" fill-rule="nonzero"/><path fill="#944426" d="M 24.058594 50.902344 C 23.445312 50.511719 22.78125 50.195312 22.085938 49.972656 C 19.488281 49.132812 16.375 49.632812 13.964844 50.84375 C 12.25 51.707031 10.429688 53.242188 9.722656 55.109375 C 8.996094 57.027344 9.121094 58.894531 9.949219 60.703125 C 10.054688 60.9375 10.695312 60.925781 10.585938 60.691406 C 10.550781 60.617188 10.519531 60.539062 10.484375 60.460938 C 11.96875 58.835938 15.019531 61.015625 16.351562 61.925781 C 17.886719 62.976562 19.363281 64.15625 21.113281 64.847656 C 22.621094 65.445312 24.476562 65.730469 25.839844 64.652344 C 27.09375 63.660156 27.546875 62.070312 27.664062 60.542969 C 27.910156 57.335938 27.546875 53.65625 24.878906 51.492188 C 24.617188 51.277344 24.34375 51.082031 24.058594 50.902344 " fill-opacity="1" fill-rule="nonzero"/><path fill="#ff9d87" d="M 27.363281 65.804688 C 27.472656 65.585938 27.554688 65.300781 27.613281 64.976562 C 28.101562 62.070312 26.402344 55.496094 21.738281 53.171875 C 16.546875 50.585938 14.03125 52.859375 12.097656 53.988281 C 10.265625 55.054688 9.363281 58.984375 10.0625 60.683594 C 10.101562 60.777344 10.144531 60.871094 10.199219 60.949219 C 11.058594 62.328125 13.882812 66.929688 15.902344 69.699219 C 15.976562 69.804688 16.050781 69.902344 16.121094 70 C 16.234375 70.152344 16.34375 70.296875 16.449219 70.433594 C 18.46875 73.046875 19.074219 72.5 20.429688 71.710938 C 21.78125 70.921875 26.277344 68.003906 27.363281 65.804688 " fill-opacity="1" fill-rule="nonzero"/><path fill="#ff9d87" d="M 22.476562 69.164062 C 22.675781 69.164062 28.863281 71.1875 28.9375 71.1875 C 29.011719 71.1875 32.882812 62.898438 32.882812 62.898438 L 25.046875 62.171875 L 22.476562 69.164062 " fill-opacity="1" fill-rule="nonzero"/><path fill="#e6684b" d="M 24.148438 66.582031 C 23.4375 66.875 23.179688 67.671875 23.230469 68.390625 C 23.238281 68.5 23.257812 68.621094 23.34375 68.691406 C 23.429688 68.761719 23.59375 68.734375 23.609375 68.625 C 23.53125 69.195312 23.699219 69.878906 24.351562 69.445312 C 24.992188 69.019531 25.386719 68.242188 25.351562 67.476562 C 25.316406 66.773438 24.882812 66.28125 24.148438 66.582031 " fill-opacity="1" fill-rule="nonzero"/><path fill="#464752" d="M 28.328125 69.78125 C 27.933594 68.738281 26.460938 68.195312 25.46875 68.007812 C 24.363281 67.792969 23.175781 67.925781 22.199219 68.511719 C 21.496094 68.933594 20.964844 69.585938 20.261719 70.019531 C 19.632812 70.40625 18.9375 70.667969 18.28125 71 C 17.1875 71.554688 16.210938 72.304688 15.863281 73.53125 C 15.789062 73.777344 16.175781 73.882812 16.246094 73.636719 C 16.390625 73.132812 16.644531 72.734375 16.960938 72.398438 C 17.941406 74.589844 21.4375 74.621094 23.421875 74.335938 C 24.703125 74.148438 25.953125 73.675781 26.949219 72.832031 C 27.753906 72.152344 28.765625 70.921875 28.328125 69.78125 " fill-opacity="1" fill-rule="nonzero"/><path fill="#ff9d87" d="M 48.714844 49.558594 C 48.140625 52.847656 43.246094 63.480469 43.246094 63.480469 L 39.285156 63.167969 C 39.285156 63.167969 40.898438 48.859375 41.550781 47.960938 C 42.34375 46.878906 44.761719 45.820312 46.039062 46.015625 C 47.070312 46.171875 48.714844 47.726562 48.714844 49.558594 " fill-opacity="1" fill-rule="nonzero"/><path fill="#de8b5b" d="M 76.359375 67.734375 C 76.109375 67.058594 75.457031 66.6875 74.816406 66.4375 C 72.65625 65.601562 69.980469 65.785156 67.710938 65.867188 C 66.6875 65.902344 65.589844 66.0625 64.484375 66.164062 C 61.628906 65.476562 58.8125 64.613281 56.007812 63.730469 C 50.386719 61.964844 44.269531 61.34375 38.394531 61.3125 C 37.027344 61.304688 35.652344 61.335938 34.289062 61.445312 C 33.199219 61.53125 32.078125 61.6875 31.136719 62.289062 C 29.699219 63.210938 28.976562 64.753906 28.296875 66.285156 C 27.964844 66.820312 27.671875 67.371094 27.429688 67.925781 C 26.332031 70.425781 26.65625 72.828125 28.394531 74.925781 C 29.390625 76.128906 30.585938 77.175781 31.707031 78.257812 C 32.914062 79.417969 34.082031 80.636719 35.355469 81.730469 C 37.394531 83.476562 39.925781 84.226562 42.542969 83.648438 C 51.34375 85.859375 60.761719 85.808594 69.765625 85.269531 C 71.425781 85.171875 72.585938 84.589844 73.242188 83.007812 C 74.078125 80.984375 74.535156 78.726562 75.011719 76.597656 C 75.507812 74.359375 75.90625 72.101562 76.269531 69.839844 C 76.375 69.183594 76.605469 68.386719 76.359375 67.734375 " fill-opacity="1" fill-rule="nonzero"/><path fill="#ba5e29" d="M 63.453125 84.128906 C 61.226562 83.363281 58.964844 82.703125 56.671875 82.164062 C 55.558594 81.902344 54.4375 81.667969 53.308594 81.460938 C 52.21875 81.261719 51.015625 81.214844 49.964844 80.84375 C 49.019531 80.507812 48.015625 79.695312 47.371094 78.929688 C 46.988281 78.476562 46.777344 77.746094 46.097656 77.683594 C 45.300781 77.609375 44.304688 78.335938 43.628906 78.652344 C 42.53125 79.164062 41.429688 79.675781 40.328125 80.1875 C 40.140625 80.277344 40.238281 80.515625 40.40625 80.546875 C 39.664062 81.574219 41.488281 82.785156 42.234375 83.316406 C 43.292969 84.070312 44.355469 85.003906 45.558594 85.511719 C 46.609375 85.953125 47.777344 85.957031 48.894531 86.039062 C 53.636719 86.375 59.320312 87.460938 63.5 84.496094 C 63.644531 84.394531 63.621094 84.1875 63.453125 84.128906 " fill-opacity="1" fill-rule="nonzero"/><path fill="#464752" d="M 40.863281 79.390625 C 37.9375 79.046875 35.140625 80.25 32.566406 81.554688 C 32.640625 81.230469 32.738281 80.90625 32.855469 80.585938 C 32.941406 80.34375 32.554688 80.242188 32.46875 80.480469 C 32.355469 80.796875 32.183594 81.289062 32.0625 81.8125 C 31.878906 81.910156 31.691406 82.003906 31.507812 82.097656 C 31.28125 82.21875 31.484375 82.5625 31.710938 82.445312 C 31.796875 82.398438 31.882812 82.355469 31.96875 82.3125 C 31.871094 83.007812 31.921875 83.6875 32.386719 84.023438 C 33.402344 84.765625 35.3125 84.621094 36.484375 84.65625 C 38.398438 84.714844 40.3125 84.691406 42.226562 84.585938 C 43.207031 84.53125 44.484375 84.578125 44.890625 83.46875 C 45.753906 81.105469 42.6875 79.605469 40.863281 79.390625 " fill-opacity="1" fill-rule="nonzero"/><path fill="#ff9d87" d="M 15.722656 67.019531 C 15.425781 66.363281 14.296875 64.472656 13.367188 64.582031 C 13.269531 64.539062 13.097656 64.558594 13.101562 64.695312 C 13.113281 65.683594 13.117188 67.769531 13.292969 68.714844 C 13.488281 69.769531 14.933594 69.425781 15.769531 68.847656 C 16.828125 68.113281 16.265625 68.21875 15.722656 67.019531 " fill-opacity="1" fill-rule="nonzero"/><path fill="#e6684b" d="M 17.78125 68.175781 C 17.867188 67.957031 17.546875 67.78125 17.453125 68 C 17.164062 68.703125 16.5625 69.261719 15.902344 69.699219 C 15.976562 69.804688 16.050781 69.902344 16.121094 70 C 16.824219 69.527344 17.46875 68.921875 17.78125 68.175781 " fill-opacity="1" fill-rule="nonzero"/><path fill="#944426" d="M 21.5625 61.714844 C 20.394531 61.558594 19.78125 60.328125 19.050781 59.527344 C 17.824219 58.1875 16.144531 56.617188 14.222656 57.40625 C 12.558594 58.085938 11.136719 59.25 10.0625 60.683594 C 9.363281 58.984375 9.933594 54.703125 11.761719 53.636719 C 12.625 53.132812 15.335938 52.082031 15.484375 52.054688 C 15.828125 51.992188 16.171875 51.910156 16.519531 51.820312 C 17.378906 51.726562 20.882812 52.429688 21.960938 52.863281 C 27.914062 55.261719 27.730469 62.421875 27.730469 62.421875 C 27.730469 62.421875 23.148438 61.933594 21.5625 61.714844 " fill-opacity="1" fill-rule="nonzero"/><path fill="#301c15" d="M 14.816406 63.496094 C 14.214844 63.398438 13.105469 63.859375 13.613281 64.625 C 13.644531 64.671875 13.683594 64.714844 13.734375 64.730469 C 13.835938 64.757812 13.929688 64.664062 14 64.585938 C 14.199219 64.367188 14.4375 64.179688 14.699219 64.039062 C 14.796875 63.988281 14.898438 63.941406 14.964844 63.855469 C 15.035156 63.769531 15.050781 63.628906 14.96875 63.554688 C 14.929688 63.523438 14.875 63.507812 14.816406 63.496094 " fill-opacity="1" fill-rule="nonzero"/><path fill="#ff9d87" d="M 21.382812 58.289062 C 20.15625 57.789062 19.492188 58.753906 19.160156 59.765625 C 19.03125 59.722656 18.867188 59.800781 18.894531 59.972656 C 19.097656 61.246094 19.40625 63.054688 20.738281 63.675781 C 22.066406 64.296875 22.734375 62.648438 22.890625 61.617188 C 23.085938 60.324219 22.730469 58.832031 21.382812 58.289062 " fill-opacity="1" fill-rule="nonzero"/><path fill="#944426" d="M 15.238281 61.859375 C 15.222656 61.847656 15.210938 61.839844 15.195312 61.828125 C 14.714844 61.542969 14.132812 61.4375 13.585938 61.539062 C 13.015625 61.644531 11.753906 62.25 12.179688 63.019531 C 12.285156 63.210938 12.5 63.335938 12.71875 63.335938 C 13.007812 63.335938 13.25 63.136719 13.484375 62.964844 C 13.914062 62.644531 14.398438 62.375 14.929688 62.296875 C 15.03125 62.28125 15.132812 62.273438 15.21875 62.222656 C 15.304688 62.175781 15.371094 62.070312 15.339844 61.976562 C 15.324219 61.925781 15.28125 61.886719 15.238281 61.859375 " fill-opacity="1" fill-rule="nonzero"/><path fill="#944426" d="M 18.101562 46.542969 C 17.570312 46.09375 16.949219 45.859375 16.3125 45.800781 C 16.074219 45.492188 15.816406 45.222656 15.371094 45.074219 C 14.648438 44.835938 13.738281 44.820312 13.011719 45.023438 C 11.519531 45.441406 11.328125 46.691406 11.667969 48.003906 C 11.066406 48.820312 10.988281 50.195312 11.640625 50.941406 C 12.164062 51.542969 13.003906 51.773438 13.773438 51.585938 C 14.402344 51.433594 14.980469 51.0625 15.582031 50.828125 C 16.296875 50.550781 17.027344 50.347656 17.769531 50.152344 C 18.507812 49.964844 19.320312 49.671875 19.445312 48.8125 C 19.582031 47.890625 18.730469 47.078125 18.101562 46.542969 " fill-opacity="1" fill-rule="nonzero"/><path fill="#6e270d" d="M 17.808594 49.859375 C 17.140625 49.882812 16.484375 49.96875 15.84375 50.109375 C 16.785156 49.046875 16.828125 47.566406 16.5625 46.15625 C 16.515625 45.90625 16.128906 46.011719 16.175781 46.265625 C 16.273438 46.777344 16.328125 47.308594 16.304688 47.828125 C 16.113281 47.625 15.890625 47.441406 15.703125 47.25 C 15.351562 46.886719 15.023438 46.5 14.710938 46.105469 C 14.550781 45.902344 14.269531 46.1875 14.425781 46.386719 C 14.710938 46.746094 15.003906 47.09375 15.320312 47.425781 C 15.605469 47.726562 16.023438 48.011719 16.226562 48.375 C 16.230469 48.378906 16.238281 48.382812 16.242188 48.390625 C 16.113281 49.085938 15.796875 49.722656 15.171875 50.199219 C 15.132812 50.226562 15.113281 50.261719 15.101562 50.296875 C 14.425781 50.496094 13.765625 50.757812 13.128906 51.085938 C 12.898438 51.203125 13.101562 51.550781 13.328125 51.433594 C 14.734375 50.707031 16.226562 50.316406 17.808594 50.257812 C 18.066406 50.25 18.066406 49.851562 17.808594 49.859375 " fill-opacity="1" fill-rule="nonzero"/><path fill="#6e270d" d="M 9.914062 60.085938 C 9.644531 59.261719 9.566406 58.421875 9.695312 57.5625 C 9.734375 57.308594 9.351562 57.203125 9.3125 57.457031 C 9.167969 58.386719 9.234375 59.292969 9.53125 60.191406 C 9.613281 60.433594 9.996094 60.328125 9.914062 60.085938 " fill-opacity="1" fill-rule="nonzero"/><path fill="#6e270d" d="M 17.914062 50.90625 C 17.832031 50.664062 17.449219 50.769531 17.527344 51.015625 C 17.847656 51.992188 18.175781 52.984375 18.222656 54.019531 C 18.273438 55.164062 17.882812 56.167969 17.433594 57.199219 C 17.332031 57.433594 17.675781 57.636719 17.777344 57.398438 C 18.199219 56.433594 18.601562 55.457031 18.628906 54.386719 C 18.65625 53.191406 18.28125 52.03125 17.914062 50.90625 " fill-opacity="1" fill-rule="nonzero"/><path fill="#6e270d" d="M 19.546875 52.679688 C 19.507812 52.425781 19.125 52.535156 19.164062 52.785156 C 19.421875 54.449219 19.078125 56.0625 18.179688 57.484375 C 18.042969 57.699219 18.390625 57.902344 18.527344 57.683594 C 19.484375 56.167969 19.824219 54.453125 19.546875 52.679688 " fill-opacity="1" fill-rule="nonzero"/><path fill="#6e270d" d="M 23.484375 51.738281 C 23.332031 51.53125 22.984375 51.730469 23.136719 51.9375 C 25.085938 54.597656 24.730469 58.1875 23.183594 60.964844 C 23.058594 61.191406 23.402344 61.390625 23.527344 61.167969 C 25.140625 58.269531 25.511719 54.507812 23.484375 51.738281 " fill-opacity="1" fill-rule="nonzero"/><path fill="#9698b0" d="M 26.421875 95.082031 L 12.4375 95.082031 C 12.035156 95.082031 11.710938 94.753906 11.710938 94.351562 L 11.710938 92.816406 L 27.148438 92.816406 L 27.148438 94.351562 C 27.148438 94.753906 26.824219 95.082031 26.421875 95.082031 " fill-opacity="1" fill-rule="nonzero"/><path fill="#9698b0" d="M 19.429688 171.65625 C 18.4375 171.65625 17.632812 170.851562 17.632812 169.859375 L 17.632812 134.683594 C 17.632812 133.6875 18.4375 132.886719 19.429688 132.886719 C 20.421875 132.886719 21.226562 133.6875 21.226562 134.683594 L 21.226562 169.859375 C 21.226562 170.851562 20.421875 171.65625 19.429688 171.65625 " fill-opacity="1" fill-rule="nonzero"/><path fill="#9698b0" d="M 20.425781 170.921875 L 18.429688 170.921875 L 18.429688 93.949219 L 20.425781 93.949219 L 20.425781 170.921875 " fill-opacity="1" fill-rule="nonzero"/><g clip-path="url(#979844d84b)"><path fill="#464752" d="M 7.769531 169.859375 L 31.089844 169.859375 C 31.945312 169.859375 32.636719 170.554688 32.636719 171.410156 L 32.636719 171.984375 L 6.21875 171.984375 L 6.21875 171.410156 C 6.21875 170.554688 6.914062 169.859375 7.769531 169.859375 " fill-opacity="1" fill-rule="nonzero"/></g><path fill="#9698b0" d="M 182.136719 95.082031 L 168.152344 95.082031 C 167.75 95.082031 167.425781 94.753906 167.425781 94.351562 L 167.425781 92.816406 L 182.863281 92.816406 L 182.863281 94.351562 C 182.863281 94.753906 182.539062 95.082031 182.136719 95.082031 " fill-opacity="1" fill-rule="nonzero"/><path fill="#9698b0" d="M 175.144531 171.65625 C 174.152344 171.65625 173.347656 170.851562 173.347656 169.859375 L 173.347656 134.683594 C 173.347656 133.6875 174.152344 132.886719 175.144531 132.886719 C 176.136719 132.886719 176.941406 133.6875 176.941406 134.683594 L 176.941406 169.859375 C 176.941406 170.851562 176.136719 171.65625 175.144531 171.65625 " fill-opacity="1" fill-rule="nonzero"/><path fill="#9698b0" d="M 176.140625 170.921875 L 174.144531 170.921875 L 174.144531 93.949219 L 176.140625 93.949219 L 176.140625 170.921875 " fill-opacity="1" fill-rule="nonzero"/><g clip-path="url(#6b56048be8)"><path fill="#464752" d="M 163.484375 169.859375 L 186.804688 169.859375 C 187.660156 169.859375 188.351562 170.554688 188.351562 171.410156 L 188.351562 171.984375 L 161.933594 171.984375 L 161.933594 171.410156 C 161.933594 170.554688 162.628906 169.859375 163.484375 169.859375 " fill-opacity="1" fill-rule="nonzero"/></g><g clip-path="url(#311b59a819)"><path fill="#e6d6cc" d="M 191.648438 84.929688 L 191.648438 91.519531 C 191.648438 92.234375 191.0625 92.816406 190.347656 92.816406 L 4.488281 92.816406 C 3.777344 92.816406 3.191406 92.234375 3.191406 91.519531 L 3.191406 84.929688 C 3.191406 84.214844 3.777344 83.632812 4.488281 83.632812 L 190.347656 83.632812 C 191.0625 83.632812 191.648438 84.214844 191.648438 84.929688 " fill-opacity="1" fill-rule="nonzero"/></g><path fill="#c9ae9d" d="M 52.902344 83.632812 L 52.902344 92.816406 L 52.503906 92.816406 L 52.503906 83.632812 L 52.902344 83.632812 " fill-opacity="1" fill-rule="nonzero"/><path fill="#c9ae9d" d="M 97.621094 83.632812 L 97.621094 92.816406 L 97.21875 92.816406 L 97.21875 83.632812 L 97.621094 83.632812 " fill-opacity="1" fill-rule="nonzero"/><path fill="#c9ae9d" d="M 142.335938 83.632812 L 142.335938 92.816406 L 141.9375 92.816406 L 141.9375 83.632812 L 142.335938 83.632812 " fill-opacity="1" fill-rule="nonzero"/><g clip-path="url(#409046751c)"><path fill="#301c15" d="M 191.648438 90.976562 L 191.648438 91.519531 C 191.648438 92.234375 191.0625 92.816406 190.347656 92.816406 L 4.488281 92.816406 C 3.777344 92.816406 3.191406 92.234375 3.191406 91.519531 L 3.191406 90.976562 L 191.648438 90.976562 " fill-opacity="1" fill-rule="nonzero"/></g><path fill="#9698b0" d="M 175.144531 104.796875 L 19.429688 104.796875 L 19.429688 102.800781 L 175.144531 102.800781 L 175.144531 104.796875 " fill-opacity="1" fill-rule="nonzero"/><path fill="#464752" d="M 20.550781 105.78125 L 18.308594 105.78125 C 18.121094 105.78125 17.96875 105.628906 17.96875 105.4375 L 17.96875 102.492188 C 17.96875 102.304688 18.121094 102.152344 18.308594 102.152344 L 20.550781 102.152344 C 20.738281 102.152344 20.890625 102.304688 20.890625 102.492188 L 20.890625 105.4375 C 20.890625 105.628906 20.738281 105.78125 20.550781 105.78125 " fill-opacity="1" fill-rule="nonzero"/><path fill="#464752" d="M 176.265625 105.78125 L 174.023438 105.78125 C 173.835938 105.78125 173.683594 105.628906 173.683594 105.4375 L 173.683594 102.492188 C 173.683594 102.304688 173.835938 102.152344 174.023438 102.152344 L 176.265625 102.152344 C 176.453125 102.152344 176.605469 102.304688 176.605469 102.492188 L 176.605469 105.4375 C 176.605469 105.628906 176.453125 105.78125 176.265625 105.78125 " fill-opacity="1" fill-rule="nonzero"/><path fill="#de8b5b" d="M 41.601562 74.128906 C 40.722656 72.976562 39.660156 71.972656 38.464844 71.152344 C 37.078125 70.199219 35.5 69.496094 33.851562 69.136719 C 31.828125 68.699219 29.933594 69.320312 27.929688 69.355469 C 29.179688 68.664062 30.417969 67.9375 31.621094 67.136719 C 31.832031 66.996094 31.632812 66.648438 31.417969 66.792969 C 29.054688 68.363281 32.402344 65.390625 29.875 66.679688 C 27.5625 67.859375 19.070312 73.125 17.03125 74.753906 C 16.945312 74.824219 16.964844 74.964844 17.03125 75.035156 C 18.40625 76.46875 19.8125 77.863281 21.265625 79.21875 C 22.578125 80.441406 23.261719 82.117188 24.871094 82.953125 C 26.4375 83.769531 40.707031 79.691406 41.785156 79.328125 C 42.84375 78.972656 44.625 78.066406 44.582031 76.65625 C 44.542969 75.335938 42.371094 75.136719 41.601562 74.128906 " fill-opacity="1" fill-rule="nonzero"/><path fill="#ba5e29" d="M 38.003906 64.128906 C 35.84375 64.347656 33.761719 64.898438 31.804688 65.761719 C 32.894531 65.023438 34.042969 64.378906 35.238281 63.816406 C 35.46875 63.703125 35.265625 63.359375 35.035156 63.46875 C 33.972656 63.972656 32.941406 64.535156 31.953125 65.175781 C 31.511719 65.464844 31.078125 65.769531 30.652344 66.085938 C 30.527344 66.175781 30.203125 66.476562 29.898438 66.730469 C 29.679688 66.851562 29.464844 66.976562 29.25 67.105469 C 29.15625 67.101562 29.089844 67.160156 29.058594 67.234375 C 28.792969 67.402344 28.527344 67.570312 28.265625 67.753906 C 28.058594 67.898438 28.257812 68.246094 28.46875 68.097656 C 28.761719 67.890625 29.0625 67.699219 29.363281 67.507812 C 29.457031 67.5 29.515625 67.457031 29.65625 67.386719 C 29.882812 67.273438 30.101562 67.121094 30.316406 66.949219 C 32.683594 65.636719 35.28125 64.804688 38.003906 64.527344 C 38.253906 64.503906 38.257812 64.101562 38.003906 64.128906 " fill-opacity="1" fill-rule="nonzero"/><path fill="#ba5e29" d="M 50.78125 73.5625 C 49.421875 74.726562 48.003906 75.808594 46.527344 76.8125 C 46.316406 76.957031 46.515625 77.300781 46.726562 77.15625 C 48.234375 76.132812 49.679688 75.03125 51.0625 73.84375 C 51.257812 73.679688 50.976562 73.394531 50.78125 73.5625 " fill-opacity="1" fill-rule="nonzero"/><path fill="#e6684b" d="M 171.269531 81.351562 C 170.496094 81.546875 169.71875 81.578125 168.929688 81.445312 C 168.679688 81.402344 168.570312 81.785156 168.824219 81.828125 C 169.679688 81.976562 170.53125 81.949219 171.375 81.738281 C 171.625 81.675781 171.519531 81.289062 171.269531 81.351562 " fill-opacity="1" fill-rule="nonzero"/><path fill="#e6684b" d="M 187.253906 82.839844 C 186.3125 82.984375 185.351562 82.933594 184.292969 82.546875 C 184.054688 82.457031 184.15625 82.074219 184.398438 82.160156 C 185.375 82.519531 186.261719 82.570312 187.128906 82.453125 C 187.1875 82.574219 187.230469 82.707031 187.253906 82.839844 " fill-opacity="1" fill-rule="nonzero"/><path fill="#6e270d" d="M 129.152344 77.746094 C 129.1875 78 128.804688 78.105469 128.769531 77.851562 C 128.496094 75.953125 128.164062 74.054688 128.054688 72.136719 C 128.1875 72.121094 128.316406 72.105469 128.453125 72.089844 C 128.554688 73.984375 128.882812 75.867188 129.152344 77.746094 " fill-opacity="1" fill-rule="nonzero"/><path fill="#6e270d" d="M 93.539062 64.226562 C 93.183594 65.777344 91.980469 67.15625 90.210938 67.707031 C 89.261719 68.003906 88.257812 68.070312 87.269531 68.066406 C 86.128906 68.0625 84.882812 68.082031 83.757812 67.914062 C 83.226562 67.835938 83.066406 67.632812 82.984375 67.113281 C 82.898438 66.539062 82.875 65.9375 82.863281 65.335938 C 83.007812 65.296875 83.152344 65.257812 83.300781 65.21875 C 83.3125 65.492188 83.320312 65.761719 83.332031 66.035156 C 83.34375 66.277344 83.261719 66.753906 83.371094 66.980469 C 83.691406 67.644531 84.347656 67.546875 84.902344 67.578125 C 86.414062 67.652344 87.984375 67.804688 89.476562 67.484375 C 91.078125 67.140625 92.585938 66.207031 93.101562 64.574219 C 93.144531 64.445312 93.175781 64.320312 93.199219 64.195312 C 93.316406 64.199219 93.425781 64.210938 93.539062 64.226562 " fill-opacity="1" fill-rule="nonzero"/><path fill="#301c15" d="M 63.925781 16.851562 C 63.511719 13.921875 63.734375 10.945312 63.425781 8.003906 C 63.207031 5.921875 63.101562 3.558594 61.265625 2.21875 C 58.253906 0.0234375 53.339844 0.933594 50.691406 3.425781 C 49.480469 3.539062 48.296875 3.828125 47.171875 4.320312 C 46.085938 4.792969 44.789062 5.570312 44.839844 6.933594 C 44.847656 7.125 44.914062 7.285156 44.945312 7.472656 C 45.066406 8.195312 45 8.601562 44.738281 9.253906 C 44.523438 9.78125 44.378906 10.34375 44.476562 10.914062 C 44.675781 12.101562 45.644531 12.460938 46.695312 12.519531 C 46.214844 13.636719 46.433594 14.625 47.554688 15.382812 C 48.476562 16.003906 49.554688 16.097656 50.539062 15.769531 C 50.917969 16.113281 51.425781 16.160156 51.910156 16.335938 C 52.871094 16.679688 53.210938 17.277344 53.992188 17.820312 C 55.164062 18.636719 56.847656 18.441406 58.183594 18.746094 C 59.714844 19.097656 60.980469 18.945312 62.433594 18.316406 C 63.082031 18.035156 63.683594 17.660156 63.847656 17.050781 C 63.902344 17.003906 63.9375 16.9375 63.925781 16.851562 " fill-opacity="1" fill-rule="nonzero"/><path fill="#ff9d87" d="M 65.800781 25.476562 C 65.332031 26.066406 64.671875 26.511719 63.925781 26.683594 C 62.25 27.078125 60.492188 27.488281 59.800781 25.734375 L 58.550781 22.570312 L 58.164062 21.589844 L 62.535156 13.644531 C 62.535156 13.644531 66.292969 22.359375 66.296875 22.367188 C 66.765625 23.445312 66.488281 24.613281 65.800781 25.476562 " fill-opacity="1" fill-rule="nonzero"/><path fill="#e6684b" d="M 63.46875 19.398438 C 63.257812 17.105469 61.554688 18.839844 60.742188 19.761719 C 59.957031 20.65625 59.292969 21.644531 58.550781 22.570312 L 59.800781 25.734375 C 60.183594 25.539062 60.535156 25.308594 60.828125 25.089844 C 62.550781 23.796875 63.664062 21.574219 63.46875 19.398438 " fill-opacity="1" fill-rule="nonzero"/><path fill="#ff9d87" d="M 61.492188 6.324219 C 60.292969 4.714844 58.570312 3.421875 56.585938 2.976562 C 54.710938 2.554688 53.277344 2.996094 52.132812 4.296875 C 51.367188 4.523438 50.617188 4.796875 49.890625 5.148438 C 49.183594 5.5 48.132812 5.882812 47.847656 6.6875 C 47.550781 7.523438 47.839844 8.753906 47.953125 9.621094 C 48.101562 10.789062 48.335938 11.949219 48.65625 13.085938 C 48.691406 13.203125 48.726562 13.324219 48.761719 13.441406 C 48.851562 13.742188 48.949219 14.039062 49.050781 14.339844 C 49.625 16.015625 50.386719 17.628906 51.320312 19.132812 C 52.316406 20.746094 53.421875 22.570312 55.496094 23.605469 C 56.789062 24.25 57.824219 24.507812 59.347656 23.925781 C 61.167969 23.226562 62.453125 20.847656 63.074219 18.714844 C 64.222656 14.761719 64.019531 9.71875 61.492188 6.324219 " fill-opacity="1" fill-rule="nonzero"/><path fill="#301c15" d="M 52.199219 16.609375 C 52.042969 16.449219 51.914062 16.265625 51.8125 16.066406 C 51.746094 15.929688 51.691406 15.78125 51.703125 15.628906 C 51.777344 14.804688 52.847656 15.828125 53.011719 16.128906 C 53.085938 16.261719 53.144531 16.410156 53.136719 16.5625 C 53.132812 16.714844 53.046875 16.875 52.90625 16.929688 C 52.71875 17.003906 52.511719 16.890625 52.355469 16.757812 C 52.300781 16.710938 52.246094 16.660156 52.199219 16.609375 " fill-opacity="1" fill-rule="nonzero"/><path fill="#301c15" d="M 57.640625 15.046875 C 57.480469 14.878906 57.347656 14.691406 57.246094 14.488281 C 57.175781 14.34375 57.117188 14.191406 57.132812 14.035156 C 57.207031 13.1875 58.308594 14.238281 58.480469 14.550781 C 58.554688 14.6875 58.613281 14.839844 58.609375 15 C 58.601562 15.15625 58.515625 15.316406 58.367188 15.375 C 58.175781 15.453125 57.960938 15.335938 57.804688 15.199219 C 57.746094 15.152344 57.691406 15.101562 57.640625 15.046875 " fill-opacity="1" fill-rule="nonzero"/><path fill="#e6684b" d="M 58.871094 19 C 58.21875 19.863281 57.335938 20.398438 56.246094 20.175781 C 55.976562 20.121094 55.863281 20.527344 56.132812 20.585938 C 56.742188 20.710938 57.246094 20.71875 57.8125 20.4375 C 58.390625 20.152344 58.851562 19.726562 59.238281 19.214844 C 59.402344 18.996094 59.035156 18.785156 58.871094 19 " fill-opacity="1" fill-rule="nonzero"/><path fill="#301c15" d="M 63.734375 11.226562 C 63.527344 9.78125 63.375 8.121094 62.613281 6.839844 C 61.9375 5.703125 60.6875 4.84375 59.601562 4.128906 C 58.378906 3.328125 56.984375 2.652344 55.523438 2.453125 C 54.136719 2.265625 52.75 2.945312 51.5 3.472656 C 50.3125 3.976562 49.152344 4.617188 48.253906 5.558594 C 46.367188 7.535156 46.8125 10.375 47.464844 12.855469 C 47.191406 13.433594 47.058594 14.078125 47.4375 14.484375 C 48.171875 15.269531 49.453125 14.015625 49.824219 13.472656 C 50.386719 12.636719 50.722656 11.671875 51.789062 11.371094 C 52.382812 11.207031 52.867188 11.128906 53.371094 10.722656 C 53.9375 10.265625 54.285156 9.660156 54.496094 8.996094 C 55.328125 8.664062 56.113281 8.492188 56.570312 8.765625 C 57.203125 9.140625 57.980469 9.0625 58.644531 9.371094 C 59.414062 9.734375 60.101562 10.214844 60.738281 10.777344 C 61.074219 11.628906 61.445312 12.46875 61.957031 13.1875 C 62.410156 13.824219 62.863281 14.355469 63.152344 15.097656 C 63.351562 15.617188 64.046875 17.132812 64.046875 17.132812 C 64.046875 17.132812 63.972656 12.921875 63.734375 11.226562 " fill-opacity="1" fill-rule="nonzero"/><path fill="#ff9d87" d="M 62.519531 11.78125 C 62.441406 10.789062 61.925781 8.625 60.523438 8.769531 C 59.550781 8.871094 59.402344 9.957031 59.449219 10.886719 C 59.375 10.929688 59.324219 11.007812 59.359375 11.113281 C 59.414062 11.261719 59.464844 11.410156 59.515625 11.558594 C 59.527344 11.65625 59.542969 11.75 59.554688 11.832031 C 59.570312 11.90625 59.609375 11.949219 59.65625 11.96875 C 59.898438 12.675781 60.136719 13.386719 60.421875 14.070312 C 60.605469 14.5 60.910156 15.183594 61.4375 15.292969 C 62.808594 15.582031 62.574219 12.46875 62.519531 11.78125 " fill-opacity="1" fill-rule="nonzero"/><path fill="#e6684b" d="M 57.464844 18.289062 C 57.15625 18.503906 56.824219 18.628906 56.457031 18.71875 C 55.957031 18.839844 55.445312 18.949219 55.21875 18.347656 C 54.945312 17.617188 54.914062 16.707031 54.859375 15.9375 C 54.835938 15.667969 54.414062 15.667969 54.433594 15.9375 C 54.480469 16.578125 54.558594 17.214844 54.679688 17.84375 C 54.753906 18.242188 54.800781 18.734375 55.128906 19.015625 C 55.777344 19.574219 57.085938 19.070312 57.679688 18.65625 C 57.902344 18.5 57.691406 18.132812 57.464844 18.289062 " fill-opacity="1" fill-rule="nonzero"/><path fill="#301c15" d="M 57.808594 11.683594 C 57.421875 11.65625 57.019531 11.691406 56.730469 11.753906 C 56.308594 11.84375 55.886719 12.066406 55.628906 12.421875 C 55.40625 12.730469 55.378906 13.328125 55.84375 13.445312 C 56.082031 13.503906 56.316406 13.371094 56.53125 13.257812 C 57.058594 12.972656 57.632812 12.773438 58.226562 12.667969 C 58.367188 12.644531 58.515625 12.625 58.640625 12.558594 C 58.769531 12.492188 58.875 12.363281 58.875 12.21875 C 58.871094 12.085938 58.78125 11.972656 58.667969 11.902344 C 58.441406 11.773438 58.132812 11.703125 57.808594 11.683594 " fill-opacity="1" fill-rule="nonzero"/><path fill="#301c15" d="M 49.550781 15.203125 C 49.515625 15.332031 49.53125 15.476562 49.621094 15.574219 C 49.71875 15.679688 49.886719 15.695312 50.023438 15.65625 C 50.160156 15.613281 50.28125 15.527344 50.398438 15.445312 C 50.894531 15.105469 51.445312 14.851562 52.023438 14.683594 C 52.257812 14.617188 52.519531 14.550781 52.648438 14.34375 C 52.898438 13.9375 52.464844 13.527344 52.089844 13.460938 C 51.660156 13.382812 51.199219 13.519531 50.835938 13.746094 C 50.582031 13.902344 50.269531 14.15625 50.011719 14.445312 C 49.796875 14.6875 49.617188 14.953125 49.550781 15.203125 " fill-opacity="1" fill-rule="nonzero"/><path fill="#54382e" d="M 55.8125 3.703125 C 55.363281 4.316406 54.542969 5.082031 54.382812 5.847656 C 54.316406 6.175781 54.4375 6.457031 54.460938 6.773438 C 54.507812 7.375 54.339844 7.945312 54.324219 8.535156 C 54.320312 8.808594 54.742188 8.808594 54.75 8.535156 C 54.761719 8.113281 54.890625 7.726562 54.914062 7.308594 C 54.929688 6.992188 54.839844 6.722656 54.828125 6.410156 C 54.785156 5.449219 55.636719 4.660156 56.179688 3.917969 C 56.34375 3.699219 55.972656 3.488281 55.8125 3.703125 " fill-opacity="1" fill-rule="nonzero"/><path fill="#54382e" d="M 53.871094 4.839844 C 53.453125 5.21875 53.132812 5.660156 52.992188 6.214844 C 52.742188 7.207031 53.265625 8.246094 52.484375 9.113281 C 51.945312 9.714844 51.109375 9.804688 50.558594 10.382812 C 50.160156 10.800781 49.898438 11.375 49.765625 11.925781 C 49.703125 12.191406 50.113281 12.304688 50.175781 12.039062 C 50.429688 10.976562 51.105469 10.5 52.007812 9.996094 C 52.390625 9.785156 52.761719 9.503906 53.007812 9.136719 C 53.890625 7.84375 52.851562 6.335938 54.171875 5.140625 C 54.371094 4.957031 54.070312 4.660156 53.871094 4.839844 " fill-opacity="1" fill-rule="nonzero"/><path fill="#54382e" d="M 50.28125 9.109375 C 50.027344 9.503906 49.570312 9.660156 49.253906 9.988281 C 49.023438 10.226562 48.855469 10.515625 48.722656 10.8125 C 48.402344 11.519531 48.128906 12.320312 48.246094 13.09375 C 48.285156 13.363281 48.691406 13.25 48.652344 12.984375 C 48.542969 12.222656 48.953125 11.035156 49.433594 10.445312 C 49.789062 10.003906 50.335938 9.808594 50.648438 9.324219 C 50.800781 9.097656 50.433594 8.882812 50.28125 9.109375 " fill-opacity="1" fill-rule="nonzero"/><path fill="#ff9d87" d="M 60.664062 63.570312 C 58.707031 62.792969 56.574219 62.355469 54.507812 61.957031 C 53.117188 61.6875 49.714844 60.929688 48.320312 61.417969 C 47.289062 61.78125 47.207031 62.488281 49.234375 63.207031 C 49.671875 63.359375 50.53125 63.632812 50.941406 63.828125 C 50.9375 64.085938 51.046875 64.363281 51.3125 64.582031 C 52.792969 65.820312 55.359375 65.957031 57.167969 66.300781 C 58.769531 66.605469 60.765625 67.203125 61.941406 65.636719 C 62.730469 64.582031 61.835938 64.058594 60.933594 63.679688 C 60.84375 63.644531 60.753906 63.609375 60.664062 63.570312 " fill-opacity="1" fill-rule="nonzero"/><path fill="#ff9d87" d="M 79.078125 52.789062 C 78.238281 51.808594 76.996094 49.121094 75.683594 49.390625 C 72.039062 50.136719 58.054688 63.964844 58.054688 63.964844 L 61.464844 66.003906 C 61.464844 66.003906 74.660156 59.570312 79.050781 55.976562 C 80.246094 54.59375 79.753906 53.582031 79.078125 52.789062 " fill-opacity="1" fill-rule="nonzero"/><path fill="#ff9d87" d="M 73.660156 53.183594 L 75.671875 33.050781 L 85.6875 35.589844 C 85.6875 35.589844 82.230469 53.421875 78.667969 56.28125 C 77.453125 57.257812 70.402344 57.777344 70.402344 57.777344 L 73.660156 53.183594 " fill-opacity="1" fill-rule="nonzero"/><path fill="#464752" d="M 86.082031 28.007812 C 84.898438 25.007812 82.40625 23.753906 79.53125 22.785156 C 76.859375 21.886719 73.964844 21.59375 71.15625 21.566406 C 70.804688 21.5625 70.453125 21.5625 70.101562 21.574219 C 70.101562 21.574219 74.191406 31.882812 74.195312 32.285156 C 74.195312 32.484375 74.222656 33.757812 74.34375 33.882812 C 74.429688 33.972656 74.597656 34.050781 74.8125 34.125 C 74.800781 34.238281 74.792969 34.351562 74.785156 34.472656 C 74.738281 35.472656 74.546875 36.4375 74.417969 37.425781 C 74.324219 38.164062 74.328125 38.914062 74.175781 39.644531 C 74.101562 39.996094 73.875 40.589844 74.09375 40.9375 C 74.464844 41.527344 75.71875 41.429688 76.3125 41.457031 C 78.101562 41.535156 79.882812 41.5625 81.671875 41.714844 C 82.488281 41.785156 83.371094 41.6875 84.175781 41.859375 C 84.730469 41.980469 85.3125 42.375 85.882812 42.097656 C 86.851562 41.628906 86.84375 39.5625 86.960938 38.691406 C 87.425781 35.128906 87.417969 31.394531 86.082031 28.007812 " fill-opacity="1" fill-rule="nonzero"/><path fill="#e6684b" d="M 54.984375 64.226562 C 53.8125 63.804688 52.480469 63.304688 51.214844 63.480469 C 50.964844 63.515625 51.070312 63.902344 51.324219 63.867188 C 52.484375 63.703125 53.800781 64.222656 54.878906 64.613281 C 55.121094 64.703125 55.222656 64.316406 54.984375 64.226562 " fill-opacity="1" fill-rule="nonzero"/><path fill="#e6684b" d="M 54.738281 62.765625 C 52.679688 61.929688 50.511719 61.625 48.304688 61.867188 C 48.050781 61.894531 48.046875 62.292969 48.304688 62.265625 C 50.476562 62.03125 52.609375 62.328125 54.632812 63.152344 C 54.871094 63.25 54.972656 62.863281 54.738281 62.765625 " fill-opacity="1" fill-rule="nonzero"/><path fill="#ffffff" d="M 53.710938 40.816406 C 53.914062 40.664062 59.734375 39.394531 59.875 39.566406 C 60.011719 39.742188 60.679688 43.09375 60.664062 43.308594 C 60.652344 43.527344 54.660156 44.859375 54.5625 44.679688 C 54.464844 44.5 53.507812 40.972656 53.710938 40.816406 " fill-opacity="1" fill-rule="nonzero"/><path fill="#242630" d="M 97.890625 153.066406 L 97.890625 153.476562 C 94.4375 154.175781 90.902344 154.488281 87.367188 154.398438 C 87.332031 154.265625 87.304688 154.132812 87.28125 154 C 90.847656 154.09375 94.40625 153.78125 97.890625 153.066406 " fill-opacity="1" fill-rule="nonzero"/><path fill="#242630" d="M 75.753906 156.484375 C 72.113281 157.25 68.214844 156.351562 64.707031 154.699219 C 64.699219 154.554688 64.691406 154.410156 64.683594 154.261719 C 68.1875 155.945312 72.105469 156.867188 75.746094 156.074219 C 75.75 156.199219 75.753906 156.34375 75.753906 156.484375 " fill-opacity="1" fill-rule="nonzero"/><path fill="#ffffff" d="M 65.085938 164.929688 C 64.933594 164.210938 64.519531 163.695312 64.007812 163.253906 C 64.117188 163.179688 64.21875 163.09375 64.328125 163.007812 C 64.871094 163.484375 65.304688 164.046875 65.46875 164.824219 C 65.519531 165.074219 65.136719 165.179688 65.085938 164.929688 " fill-opacity="1" fill-rule="nonzero"/><path fill="#ffffff" d="M 66.332031 164.015625 C 66.175781 163.265625 65.738281 162.738281 65.203125 162.289062 C 65.304688 162.199219 65.40625 162.113281 65.503906 162.03125 C 66.082031 162.523438 66.546875 163.097656 66.71875 163.90625 C 66.769531 164.15625 66.382812 164.265625 66.332031 164.015625 " fill-opacity="1" fill-rule="nonzero"/><path fill="#ffffff" d="M 95.269531 165.074219 C 94.378906 164.792969 93.484375 164.800781 92.597656 165.101562 C 92.355469 165.183594 92.519531 165.550781 92.761719 165.46875 C 93.535156 165.203125 94.339844 165.199219 95.121094 165.445312 C 95.363281 165.523438 95.515625 165.152344 95.269531 165.074219 " fill-opacity="1" fill-rule="nonzero"/><path fill="#ffffff" d="M 95.175781 163.449219 C 94.289062 163.164062 93.390625 163.171875 92.507812 163.472656 C 92.265625 163.558594 92.425781 163.921875 92.667969 163.839844 C 93.445312 163.574219 94.246094 163.570312 95.027344 163.816406 C 95.273438 163.894531 95.421875 163.527344 95.175781 163.449219 " fill-opacity="1" fill-rule="nonzero"/><path fill="#464752" d="M 112.738281 170.058594 C 112.730469 170.058594 112.726562 170.058594 112.71875 170.058594 C 112.609375 170.046875 112.527344 169.953125 112.539062 169.839844 L 115.332031 138.574219 C 115.34375 138.464844 115.441406 138.390625 115.550781 138.394531 C 115.660156 138.40625 115.742188 138.5 115.730469 138.613281 L 112.9375 169.878906 C 112.925781 169.980469 112.839844 170.058594 112.738281 170.058594 " fill-opacity="1" fill-rule="nonzero"/><path fill="#464752" d="M 157.734375 170.058594 C 157.628906 170.058594 157.542969 169.980469 157.535156 169.878906 L 154.738281 138.613281 C 154.730469 138.503906 154.8125 138.40625 154.921875 138.394531 C 155.03125 138.390625 155.128906 138.46875 155.136719 138.578125 L 155.734375 145.222656 L 157.933594 169.839844 C 157.941406 169.953125 157.863281 170.050781 157.75 170.058594 C 157.746094 170.058594 157.738281 170.058594 157.734375 170.058594 " fill-opacity="1" fill-rule="nonzero"/><path fill="#464752" d="M 155.535156 145.441406 L 114.941406 145.441406 C 114.828125 145.441406 114.742188 145.351562 114.742188 145.242188 C 114.742188 145.128906 114.828125 145.039062 114.941406 145.039062 L 155.535156 145.039062 C 155.644531 145.039062 155.734375 145.128906 155.734375 145.242188 C 155.734375 145.351562 155.644531 145.441406 155.535156 145.441406 " fill-opacity="1" fill-rule="nonzero"/><path fill="#de8b5b" d="M 159.535156 137.527344 C 159.535156 138.007812 159.34375 138.441406 159.027344 138.75 C 158.714844 139.0625 158.28125 139.257812 157.804688 139.257812 L 112.667969 139.257812 C 112.578125 139.257812 112.484375 139.25 112.398438 139.234375 C 112.242188 139.214844 112.09375 139.164062 111.957031 139.101562 C 111.355469 138.835938 110.9375 138.234375 110.9375 137.527344 C 110.9375 137.050781 111.128906 136.617188 111.441406 136.308594 C 111.757812 135.996094 112.1875 135.800781 112.667969 135.800781 L 157.804688 135.800781 C 158.757812 135.800781 159.535156 136.574219 159.535156 137.527344 " fill-opacity="1" fill-rule="nonzero"/><path fill="#ba5e29" d="M 118.757812 135.800781 C 118.121094 136.398438 117.5625 137.09375 116.90625 137.65625 C 116.246094 138.210938 115.507812 138.042969 114.691406 138.199219 C 113.996094 138.335938 113.011719 138.660156 112.398438 139.234375 C 112.242188 139.214844 112.09375 139.164062 111.957031 139.101562 C 112.746094 138.214844 114.253906 137.804688 115.304688 137.722656 C 116.5625 137.617188 117.339844 136.660156 118.1875 135.800781 L 118.757812 135.800781 " fill-opacity="1" fill-rule="nonzero"/><path fill="#ba5e29" d="M 123.070312 135.800781 C 122.167969 136.886719 121.1875 137.921875 120.125 138.851562 C 119.964844 138.992188 119.804688 139.125 119.640625 139.257812 L 119.003906 139.257812 C 119.027344 139.242188 119.050781 139.226562 119.066406 139.210938 C 120.210938 138.308594 121.25 137.28125 122.210938 136.191406 C 122.324219 136.0625 122.4375 135.929688 122.550781 135.800781 L 123.070312 135.800781 " fill-opacity="1" fill-rule="nonzero"/><path fill="#ba5e29" d="M 134.183594 139.257812 L 133.617188 139.257812 C 132.832031 138.554688 131.949219 138.007812 130.972656 137.714844 C 129.269531 137.195312 127.453125 137.371094 125.808594 138.007812 C 125.042969 138.304688 124.167969 138.71875 123.398438 139.257812 L 122.761719 139.257812 C 123.503906 138.65625 124.386719 138.191406 125.207031 137.832031 C 126.851562 137.105469 128.671875 136.800781 130.449219 137.167969 C 131.878906 137.464844 133.125 138.234375 134.183594 139.257812 " fill-opacity="1" fill-rule="nonzero"/><path fill="#ba5e29" d="M 137.589844 145.429688 C 137.566406 145.367188 137.542969 145.304688 137.515625 145.242188 L 137.941406 145.242188 C 137.953125 145.269531 137.960938 145.292969 137.972656 145.320312 C 138.070312 145.558594 137.683594 145.664062 137.589844 145.429688 " fill-opacity="1" fill-rule="nonzero"/><path fill="#ba5e29" d="M 144.101562 135.800781 C 143.070312 136.894531 141.800781 137.816406 140.351562 138.046875 C 139.367188 138.203125 138.660156 137.703125 137.816406 137.304688 C 136.707031 136.785156 135.449219 137.300781 134.410156 136.636719 C 134.050781 136.410156 133.71875 136.125 133.421875 135.800781 L 134.023438 135.800781 C 134.207031 135.988281 134.40625 136.160156 134.613281 136.292969 C 135.179688 136.664062 135.742188 136.582031 136.375 136.589844 C 136.976562 136.597656 137.472656 136.703125 138.011719 136.960938 C 138.460938 137.175781 138.875 137.472656 139.359375 137.601562 C 140.125 137.808594 140.84375 137.550781 141.523438 137.207031 C 142.238281 136.847656 142.917969 136.371094 143.539062 135.800781 L 144.101562 135.800781 " fill-opacity="1" fill-rule="nonzero"/><path fill="#ba5e29" d="M 145.757812 135.800781 C 145.726562 135.828125 145.695312 135.851562 145.664062 135.878906 C 144.707031 136.710938 143.90625 137.675781 143.171875 138.707031 C 143.039062 138.890625 142.910156 139.074219 142.78125 139.257812 L 142.300781 139.257812 C 142.46875 139.007812 142.648438 138.753906 142.824219 138.507812 C 143.519531 137.53125 144.265625 136.605469 145.15625 135.800781 L 145.757812 135.800781 " fill-opacity="1" fill-rule="nonzero"/><path fill="#ba5e29" d="M 154.792969 139.257812 L 154.308594 139.257812 C 154.253906 139.128906 154.203125 139.003906 154.148438 138.875 C 153.464844 137.285156 152.429688 136.054688 150.539062 136.777344 C 149.351562 137.230469 148.234375 137.910156 147.316406 138.78125 C 147.164062 138.925781 147.007812 139.085938 146.851562 139.257812 L 146.234375 139.257812 C 147.34375 137.988281 149.0625 136.957031 150.140625 136.511719 C 151.617188 135.894531 152.886719 136.019531 153.839844 137.414062 C 154.222656 137.972656 154.53125 138.601562 154.792969 139.257812 " fill-opacity="1" fill-rule="nonzero"/><path fill="#242630" d="M 53.203125 45.144531 C 52.941406 43.742188 52.710938 42.441406 52.121094 41.140625 C 51.546875 39.863281 51.097656 38.542969 50.539062 37.261719 C 50.011719 36.046875 49.929688 34.691406 49.347656 33.503906 C 49.257812 33.3125 48.988281 33.421875 48.976562 33.605469 C 48.882812 35.011719 49.261719 36.332031 49.632812 37.675781 C 50.039062 39.140625 50.3125 40.640625 50.539062 42.144531 C 50.753906 43.585938 50.882812 44.996094 50.945312 46.445312 C 51.800781 46.726562 52.730469 46.894531 53.433594 47.417969 C 53.59375 47.535156 53.765625 47.585938 53.945312 47.578125 C 53.714844 46.765625 53.355469 45.957031 53.203125 45.144531 " fill-opacity="1" fill-rule="nonzero"/><path fill="#242630" d="M 48.738281 32.917969 C 48.179688 31.984375 47.5 31.140625 46.875 30.253906 C 46.730469 30.046875 46.382812 30.246094 46.53125 30.457031 C 47.15625 31.339844 47.835938 32.1875 48.394531 33.117188 C 48.527344 33.339844 48.871094 33.136719 48.738281 32.917969 " fill-opacity="1" fill-rule="nonzero"/><path fill="#242630" d="M 79.769531 28.351562 C 78.304688 30.230469 76.882812 32.128906 75.832031 34.277344 C 76.339844 31.75 77.128906 29.273438 78.105469 26.878906 C 78.203125 26.640625 77.816406 26.539062 77.722656 26.773438 C 75.960938 31.085938 74.816406 35.664062 74.785156 40.339844 C 74.785156 40.59375 75.183594 40.59375 75.183594 40.339844 C 75.199219 38.351562 75.417969 36.382812 75.796875 34.449219 C 75.835938 34.609375 76.066406 34.699219 76.15625 34.515625 C 77.195312 32.382812 78.597656 30.496094 80.050781 28.632812 C 80.207031 28.433594 79.925781 28.148438 79.769531 28.351562 " fill-opacity="1" fill-rule="nonzero"/><path fill="#242630" d="M 85.425781 41.957031 C 85.132812 41.953125 84.847656 41.902344 84.566406 41.828125 C 84.320312 41.757812 84.210938 42.144531 84.460938 42.210938 C 84.777344 42.296875 85.097656 42.351562 85.425781 42.355469 C 85.679688 42.359375 85.679688 41.960938 85.425781 41.957031 " fill-opacity="1" fill-rule="nonzero"/></svg>