<svg xmlns="http://www.w3.org/2000/svg" xmlns:xlink="http://www.w3.org/1999/xlink" width="260" zoomAndPan="magnify" viewBox="0 0 194.87999 172.499995" height="230" preserveAspectRatio="xMidYMid meet" version="1.0"><defs><clipPath id="09f3c54778"><path d="M 0.222656 0 L 194.539062 0 L 194.539062 172 L 0.222656 172 Z M 0.222656 0 " clip-rule="nonzero"/></clipPath><clipPath id="24cffca37f"><path d="M 12.546875 15.800781 L 186.476562 15.800781 L 186.476562 156.394531 L 12.546875 156.394531 Z M 12.546875 15.800781 " clip-rule="nonzero"/></clipPath><clipPath id="5f00cea22c"><path d="M 187 132 L 194.539062 132 L 194.539062 148 L 187 148 Z M 187 132 " clip-rule="nonzero"/></clipPath><clipPath id="c53a1a8021"><path d="M 0.222656 139 L 193 139 L 193 149 L 0.222656 149 Z M 0.222656 139 " clip-rule="nonzero"/></clipPath><clipPath id="348c1f7ec3"><path d="M 0.222656 147 L 193 147 L 193 149 L 0.222656 149 Z M 0.222656 147 " clip-rule="nonzero"/></clipPath></defs><g clip-path="url(#09f3c54778)"><path fill="#ffffff" d="M 0.222656 0 L 194.65625 0 L 194.65625 172 L 0.222656 172 Z M 0.222656 0 " fill-opacity="1" fill-rule="nonzero"/><path fill="#ffffff" d="M 0.222656 0 L 194.65625 0 L 194.65625 172 L 0.222656 172 Z M 0.222656 0 " fill-opacity="1" fill-rule="nonzero"/></g><g clip-path="url(#24cffca37f)"><path fill="#fcf6f2" d="M 185.949219 118.742188 C 185.492188 115.195312 184.875 111.707031 184.519531 108.511719 C 183.003906 94.820312 179.539062 80.886719 170.945312 69.828125 C 168.191406 66.28125 164.871094 63.234375 161.363281 60.453125 C 158.160156 57.917969 154.226562 56.355469 151.539062 53.175781 C 149.554688 50.828125 148.246094 47.984375 146.542969 45.4375 C 143.339844 40.65625 139.21875 36.613281 135.070312 32.667969 C 130.933594 28.730469 126.859375 24.59375 122.089844 21.421875 C 115.191406 16.832031 103.660156 15.257812 95.570312 15.960938 C 80.589844 17.257812 66.253906 24.914062 56.867188 36.683594 C 51.753906 43.09375 48.476562 50.640625 44.75 57.878906 C 42.886719 61.5 40.894531 65.066406 38.484375 68.351562 C 35.832031 71.972656 32.589844 75.042969 29.367188 78.140625 C 26.386719 81 23.492188 83.941406 21.15625 87.371094 C 19.035156 90.488281 17.351562 93.898438 16.074219 97.449219 C 13.445312 104.777344 12.53125 112.644531 12.636719 120.398438 C 12.6875 124.3125 13.007812 128.214844 13.523438 132.089844 C 13.558594 132.347656 13.964844 132.351562 13.929688 132.089844 C 13.894531 131.832031 13.863281 131.570312 13.832031 131.3125 L 14.234375 132.324219 C 13.65625 134.929688 13.738281 137.660156 14.296875 140.304688 C 15.082031 144.011719 16.730469 147.878906 19.386719 150.628906 C 22.304688 153.648438 26.464844 154.511719 30.472656 155.054688 C 35.191406 155.695312 39.96875 155.699219 44.71875 155.460938 C 49.484375 155.222656 54.238281 154.746094 59 154.421875 C 63.820312 154.09375 68.644531 153.988281 73.476562 154.054688 C 83.003906 154.183594 92.507812 154.929688 102.011719 155.550781 C 120.671875 156.773438 139.613281 157.390625 157.777344 152.148438 C 165.230469 149.996094 173.128906 147.457031 179.121094 142.3125 C 186.398438 136.066406 187.113281 127.761719 185.949219 118.742188 " fill-opacity="1" fill-rule="nonzero"/></g><path fill="#7a9136" d="M 58.910156 89.21875 C 57.410156 86.304688 55.761719 83.222656 53.316406 80.988281 C 51.097656 78.964844 48.148438 77.902344 45.144531 78.195312 C 41.957031 78.503906 39.117188 80.339844 37.386719 83.015625 C 37.242188 83.238281 37.59375 83.441406 37.738281 83.222656 C 39.417969 80.621094 42.203125 78.84375 45.308594 78.589844 C 48.527344 78.324219 51.53125 79.648438 53.730469 81.96875 C 55.882812 84.238281 57.410156 87.136719 58.808594 89.914062 C 60.28125 92.839844 61.53125 95.878906 62.546875 99 C 63.679688 102.484375 64.503906 106.0625 65.039062 109.691406 C 65.078125 109.949219 65.46875 109.835938 65.429688 109.582031 C 64.386719 102.488281 62.191406 95.589844 58.910156 89.21875 " fill-opacity="1" fill-rule="nonzero"/><path fill="#a9b881" d="M 48.957031 78.921875 C 48.910156 78.828125 48.855469 78.738281 48.796875 78.652344 C 48.824219 78.625 48.839844 78.582031 48.839844 78.523438 C 48.839844 78.5 48.839844 78.472656 48.835938 78.449219 C 48.757812 76.328125 48.40625 74.128906 46.632812 72.738281 C 44.972656 71.441406 42.75 71.070312 40.691406 71.175781 C 38.777344 71.273438 36.722656 72.050781 35.855469 73.898438 C 35.628906 74.382812 35.566406 74.882812 35.460938 75.40625 C 35.316406 76.101562 35.03125 76.59375 34.535156 77.09375 C 34.417969 77.214844 34.296875 77.332031 34.183594 77.449219 C 34.066406 77.570312 33.949219 77.695312 33.835938 77.816406 C 33.238281 78.445312 32.691406 79.09375 32.238281 79.867188 C 32.160156 80.007812 32.078125 80.152344 32 80.296875 C 31.921875 80.445312 31.847656 80.589844 31.78125 80.742188 C 30.851562 82.679688 30.457031 84.847656 30.488281 86.996094 C 30.511719 88.480469 30.574219 90.492188 31.363281 91.925781 C 31.449219 92.089844 31.546875 92.246094 31.65625 92.386719 C 31.753906 92.527344 31.867188 92.65625 31.988281 92.773438 C 33.347656 94.128906 35.613281 93.546875 36.980469 92.523438 C 37.269531 92.304688 37.535156 92.066406 37.777344 91.8125 C 37.878906 91.710938 37.976562 91.605469 38.070312 91.5 C 39.300781 90.113281 40.125 88.375 41.480469 87.089844 C 42.039062 86.5625 42.664062 86.105469 43.402344 85.859375 C 44.160156 85.601562 44.96875 85.636719 45.753906 85.511719 C 46.761719 85.359375 47.605469 84.953125 48.230469 84.132812 C 49.230469 82.824219 49.800781 80.472656 48.957031 78.921875 " fill-opacity="1" fill-rule="nonzero"/><path fill="#7a9136" d="M 48.996094 78.933594 C 48.984375 78.929688 48.972656 78.925781 48.957031 78.921875 C 43.207031 76.75 38.636719 79.65625 35.503906 84.113281 C 35.519531 84.132812 35.527344 84.152344 35.535156 84.179688 C 36.070312 86.730469 36.917969 89.183594 38.070312 91.5 C 37.976562 91.605469 37.878906 91.710938 37.777344 91.8125 C 36.617188 89.515625 35.753906 87.082031 35.203125 84.550781 C 33.609375 86.941406 32.414062 89.71875 31.65625 92.386719 C 31.546875 92.246094 31.449219 92.089844 31.363281 91.925781 C 32.519531 88.0625 34.570312 84.027344 37.394531 81.253906 C 35.558594 80.648438 33.699219 80.449219 31.78125 80.742188 C 31.847656 80.589844 31.921875 80.445312 32 80.296875 C 33.960938 80.027344 35.867188 80.285156 37.734375 80.9375 C 38.40625 80.308594 39.125 79.757812 39.882812 79.296875 C 37.90625 78.601562 35.886719 78.105469 33.835938 77.816406 C 33.949219 77.695312 34.066406 77.570312 34.183594 77.449219 C 36.253906 77.761719 38.296875 78.285156 40.289062 79.007812 C 40.308594 79.015625 40.320312 79.023438 40.332031 79.035156 C 42.78125 77.691406 45.628906 77.300781 48.835938 78.449219 C 48.925781 78.472656 49.015625 78.507812 49.105469 78.542969 C 49.34375 78.632812 49.238281 79.027344 48.996094 78.933594 " fill-opacity="1" fill-rule="nonzero"/><path fill="#7a9136" d="M 66.25 90.980469 C 65.480469 85.257812 64.59375 79.480469 62.734375 73.996094 C 59.816406 65.390625 53.632812 56.71875 44.152344 54.964844 C 39.300781 54.066406 34.082031 55.117188 30.328125 58.425781 C 30.132812 58.597656 30.40625 58.902344 30.601562 58.726562 C 34.007812 55.730469 38.644531 54.644531 43.089844 55.210938 C 47.722656 55.800781 51.878906 58.269531 55.085938 61.609375 C 62.234375 69.058594 64.226562 79.625 65.632812 89.484375 C 66.550781 95.929688 67.152344 102.414062 67.453125 108.914062 C 67.464844 109.175781 67.871094 109.199219 67.859375 108.9375 C 67.582031 102.929688 67.050781 96.9375 66.25 90.980469 " fill-opacity="1" fill-rule="nonzero"/><path fill="#a9b881" d="M 60.34375 57.019531 C 60.371094 54.507812 58.945312 52.222656 56.816406 50.941406 C 55.742188 50.300781 54.546875 49.949219 53.296875 49.894531 C 52.695312 49.867188 52.183594 49.738281 51.71875 49.316406 C 51.445312 49.074219 51.234375 48.765625 50.957031 48.519531 C 50.460938 48.082031 49.875 47.75 49.265625 47.488281 C 47.332031 46.671875 45.074219 46.421875 42.886719 46.472656 C 42.734375 46.476562 42.574219 46.480469 42.417969 46.488281 C 41.578125 46.527344 40.746094 46.605469 39.953125 46.710938 C 33.875 47.527344 28.007812 51.007812 24.921875 56.40625 C 24.1875 57.6875 23.648438 59.246094 23.734375 60.703125 C 23.746094 60.898438 23.769531 61.089844 23.804688 61.277344 C 23.957031 62.144531 24.363281 62.957031 25.113281 63.628906 C 26.691406 65.042969 28.847656 65.242188 30.855469 64.898438 C 31.039062 64.871094 31.214844 64.835938 31.390625 64.800781 C 31.695312 64.734375 31.992188 64.660156 32.285156 64.570312 C 33.105469 64.324219 33.90625 64.015625 34.703125 63.710938 C 34.734375 63.703125 34.761719 63.691406 34.792969 63.675781 C 34.964844 63.609375 35.144531 63.535156 35.328125 63.464844 C 36.226562 63.097656 37.179688 62.699219 38.128906 62.671875 C 39.210938 62.644531 40.066406 63.277344 41.007812 63.730469 C 41.828125 64.125 42.8125 64.332031 43.648438 64.769531 C 44.644531 65.296875 44.953125 66.085938 45.550781 66.96875 C 46.871094 68.90625 48.820312 70.140625 51.164062 70.382812 C 53.128906 70.585938 54.824219 70.027344 55.851562 68.261719 C 56.625 66.933594 56.917969 65.371094 56.933594 63.820312 C 56.9375 63.601562 56.9375 63.378906 56.921875 63.164062 C 56.925781 63.136719 56.925781 63.105469 56.925781 63.078125 C 59.011719 61.792969 60.316406 59.480469 60.34375 57.019531 " fill-opacity="1" fill-rule="nonzero"/><path fill="#7a9136" d="M 56.933594 63.820312 C 56.890625 63.804688 56.851562 63.773438 56.820312 63.730469 C 54.765625 60.515625 51.007812 58.210938 47.527344 56.851562 C 45.578125 56.089844 43.609375 56.121094 41.59375 55.734375 C 40.160156 55.457031 38.777344 55.070312 37.34375 54.9375 C 37.136719 57.886719 36.449219 60.765625 35.328125 63.464844 C 35.144531 63.535156 34.964844 63.609375 34.792969 63.675781 C 35.992188 60.914062 36.722656 57.953125 36.9375 54.902344 C 36.683594 54.890625 36.425781 54.882812 36.164062 54.890625 C 35.699219 54.898438 35.242188 54.9375 34.792969 54.988281 C 34.34375 58.484375 33.1875 61.816406 31.390625 64.800781 C 31.214844 64.835938 31.039062 64.871094 30.855469 64.898438 C 32.710938 61.914062 33.914062 58.566406 34.375 55.050781 C 30.15625 55.679688 26.6875 58.164062 23.804688 61.277344 C 23.769531 61.089844 23.746094 60.898438 23.734375 60.703125 C 24.140625 60.273438 24.566406 59.855469 25.003906 59.449219 C 27.152344 57.464844 29.691406 55.886719 32.507812 55.0625 C 33.917969 54.652344 35.386719 54.441406 36.855469 54.484375 C 38.378906 54.53125 39.820312 54.945312 41.304688 55.261719 C 42.789062 55.574219 44.320312 55.566406 45.796875 55.886719 C 45.324219 52.652344 44.21875 49.285156 42.417969 46.488281 C 42.574219 46.480469 42.734375 46.476562 42.886719 46.472656 C 44.664062 49.304688 45.753906 52.683594 46.21875 55.9375 C 46.222656 55.953125 46.21875 55.96875 46.214844 55.988281 C 46.316406 56.015625 46.417969 56.039062 46.511719 56.066406 C 47.921875 56.492188 49.28125 57.128906 50.5625 57.839844 C 52.953125 59.164062 55.34375 60.890625 56.921875 63.164062 C 57.015625 63.285156 57.097656 63.414062 57.179688 63.539062 C 57.292969 63.71875 57.09375 63.867188 56.933594 63.820312 " fill-opacity="1" fill-rule="nonzero"/><path fill="#7a9136" d="M 94.425781 54.5625 C 92.75 53.1875 90.769531 51.949219 88.539062 51.886719 C 83.953125 51.761719 80.449219 56.21875 78.417969 59.8125 C 75.875 64.320312 74.386719 69.476562 73.179688 74.476562 C 71.902344 79.789062 71.101562 85.210938 70.632812 90.652344 C 70.085938 96.984375 69.996094 103.351562 70.125 109.703125 C 70.128906 109.964844 70.535156 109.964844 70.53125 109.703125 C 70.324219 99.578125 70.679688 89.382812 72.546875 79.40625 C 73.441406 74.621094 74.664062 69.871094 76.367188 65.308594 C 77.980469 60.980469 80.300781 56.269531 84.277344 53.65625 C 86.761719 52.027344 89.503906 51.921875 92.082031 53.410156 C 94.324219 54.695312 97.164062 56.914062 97.289062 59.71875 C 97.300781 59.980469 97.707031 59.980469 97.695312 59.71875 C 97.597656 57.519531 96.046875 55.886719 94.425781 54.5625 " fill-opacity="1" fill-rule="nonzero"/><path fill="#a9b881" d="M 104.277344 65.394531 C 104.25 64.1875 103.996094 62.996094 103.546875 61.875 C 103.277344 61.207031 102.894531 60.574219 102.703125 59.878906 C 102.453125 58.960938 102.582031 58.027344 102.75 57.105469 C 103.003906 55.757812 103.351562 54.359375 102.832031 53.023438 C 102.339844 51.761719 101.351562 50.609375 100.441406 49.628906 C 97.457031 46.433594 91.371094 42.339844 87.890625 47.261719 C 87.234375 48.191406 87.390625 49.441406 87.648438 50.492188 C 87.777344 51.023438 88.023438 51.410156 88.25 51.886719 C 88.253906 51.898438 88.261719 51.910156 88.265625 51.921875 C 88.28125 51.953125 88.296875 51.980469 88.3125 52.007812 C 88.398438 52.164062 88.464844 52.234375 88.421875 52.359375 C 88.414062 52.375 88.40625 52.398438 88.394531 52.417969 C 88.363281 52.476562 88.316406 52.535156 88.246094 52.621094 C 88.039062 52.863281 87.703125 53.042969 87.464844 53.253906 C 85.585938 54.882812 84.351562 57.226562 85.1875 59.734375 C 85.53125 60.769531 86.195312 61.683594 87.066406 62.335938 C 88.1875 63.179688 89.652344 63.269531 90.765625 64.113281 C 91.550781 64.707031 92.210938 65.484375 92.808594 66.308594 C 92.894531 66.417969 92.972656 66.53125 93.050781 66.644531 C 93.382812 67.105469 93.691406 67.578125 94 68.027344 C 94.886719 69.320312 95.722656 70.648438 96.632812 71.921875 C 97.253906 72.792969 97.972656 73.726562 99.058594 74.082031 C 99.953125 74.375 101.632812 74.695312 102.410156 74.003906 C 102.550781 73.878906 102.683594 73.742188 102.804688 73.585938 C 104.238281 71.785156 104.257812 68.273438 104.28125 65.96875 C 104.285156 65.910156 104.285156 65.847656 104.285156 65.789062 C 104.285156 65.65625 104.285156 65.527344 104.277344 65.394531 " fill-opacity="1" fill-rule="nonzero"/><path fill="#7a9136" d="M 104.285156 65.789062 C 104.285156 65.847656 104.285156 65.910156 104.28125 65.96875 C 104.164062 65.863281 104.050781 65.757812 103.933594 65.652344 C 102.800781 64.625 101.546875 63.757812 100 63.589844 C 99.980469 64.007812 99.964844 64.433594 99.960938 64.851562 C 99.957031 65.714844 99.964844 66.589844 100.371094 67.371094 C 100.6875 67.984375 101.167969 68.503906 101.511719 69.101562 C 102.304688 70.484375 102.730469 72.019531 102.804688 73.585938 C 102.683594 73.742188 102.550781 73.878906 102.410156 74.003906 C 102.394531 72.097656 101.824219 70.226562 100.726562 68.617188 C 100.121094 67.730469 99.671875 67.019531 99.582031 65.925781 C 99.472656 64.570312 99.652344 63.214844 99.664062 61.863281 C 99.6875 59.3125 98.828125 57.148438 97.015625 55.53125 C 97.015625 56.113281 96.980469 56.691406 96.925781 57.261719 C 96.902344 57.492188 96.875 57.71875 96.839844 57.941406 C 96.390625 61.136719 95.070312 64.15625 93.050781 66.644531 C 92.972656 66.53125 92.894531 66.417969 92.808594 66.308594 C 94.863281 63.746094 96.160156 60.621094 96.515625 57.339844 C 96.539062 57.136719 96.558594 56.933594 96.566406 56.726562 C 96.609375 56.21875 96.621094 55.710938 96.613281 55.195312 C 96.425781 55.050781 96.234375 54.90625 96.03125 54.773438 C 94.9375 54.042969 93.621094 53.445312 92.253906 53.035156 L 92.25 53.035156 C 91.449219 52.796875 90.636719 52.621094 89.832031 52.519531 L 89.820312 52.519531 C 89.335938 52.453125 88.859375 52.421875 88.394531 52.417969 C 88.304688 52.414062 88.214844 52.414062 88.125 52.414062 C 88.070312 52.414062 88.03125 52.398438 87.996094 52.371094 C 87.871094 52.269531 87.917969 52.011719 88.125 52.007812 L 88.3125 52.007812 C 88.917969 52.011719 89.546875 52.054688 90.183594 52.144531 L 90.195312 52.144531 C 94.582031 52.761719 99.34375 55.433594 99.972656 60.015625 C 100.121094 61.074219 100.070312 62.128906 100.019531 63.183594 C 101.410156 63.332031 102.589844 63.984375 103.664062 64.875 C 103.867188 65.039062 104.070312 65.214844 104.277344 65.394531 C 104.285156 65.527344 104.285156 65.65625 104.285156 65.789062 " fill-opacity="1" fill-rule="nonzero"/><path fill="#7a9136" d="M 87.464844 76.671875 C 85.160156 77.347656 83.28125 79.570312 81.984375 81.488281 C 78.574219 86.542969 77.835938 92.839844 77.011719 98.730469 C 76.5 102.390625 76.105469 106.066406 76.179688 109.761719 C 76.1875 110.023438 76.59375 110.023438 76.585938 109.761719 C 76.515625 106.167969 76.882812 102.59375 77.375 99.039062 C 77.839844 95.6875 78.285156 92.300781 79.15625 89.027344 C 79.964844 85.988281 81.199219 83.011719 83.183594 80.546875 C 84.121094 79.378906 85.246094 78.230469 86.566406 77.503906 C 87.378906 77.054688 88.382812 76.734375 89.3125 77.019531 C 90.328125 77.335938 91.074219 78.246094 90.929688 79.332031 C 90.898438 79.589844 91.304688 79.589844 91.335938 79.332031 C 91.617188 77.195312 89.242188 76.152344 87.464844 76.671875 " fill-opacity="1" fill-rule="nonzero"/><path fill="#a9b881" d="M 99.609375 83.550781 C 99.355469 82.894531 98.921875 82.324219 98.554688 81.726562 C 98.449219 81.558594 98.355469 81.394531 98.269531 81.222656 C 98.136719 80.976562 98.03125 80.726562 97.960938 80.460938 C 97.875 80.152344 97.820312 79.847656 97.792969 79.542969 C 97.773438 79.398438 97.761719 79.261719 97.757812 79.117188 C 97.675781 77.554688 97.949219 76.042969 96.617188 74.742188 C 94.832031 73.003906 92.984375 71.828125 90.40625 72.222656 C 88.382812 72.535156 87.320312 75.027344 87.234375 76.839844 C 87.230469 76.863281 87.230469 76.882812 87.230469 76.902344 C 87.230469 76.953125 87.242188 76.988281 87.265625 77.019531 C 87.136719 77.109375 87.007812 77.199219 86.886719 77.296875 C 86.328125 77.730469 85.832031 78.246094 85.421875 78.84375 C 84.523438 80.140625 83.804688 82.164062 84.78125 83.609375 C 85.230469 84.277344 85.964844 84.625 86.714844 84.828125 C 87.910156 85.144531 90.070312 84.996094 90.59375 86.410156 C 90.765625 86.875 90.699219 87.417969 90.800781 87.902344 C 90.894531 88.347656 91.058594 88.777344 91.269531 89.179688 C 91.761719 90.117188 92.523438 90.882812 93.359375 91.515625 C 93.566406 91.671875 93.816406 91.867188 94.089844 92.066406 C 94.195312 92.148438 94.304688 92.226562 94.417969 92.308594 C 95.417969 93.011719 96.644531 93.671875 97.558594 93.113281 C 97.71875 93.019531 97.867188 92.882812 98.003906 92.703125 C 98.011719 92.691406 98.023438 92.679688 98.027344 92.667969 C 99.289062 91.011719 100.0625 88.605469 100.109375 86.546875 C 100.136719 85.53125 99.984375 84.496094 99.609375 83.550781 " fill-opacity="1" fill-rule="nonzero"/><path fill="#7a9136" d="M 98.035156 90.164062 C 98.125 91.003906 98.121094 91.839844 98.027344 92.667969 C 98.023438 92.679688 98.011719 92.691406 98.003906 92.703125 C 97.867188 92.882812 97.71875 93.019531 97.558594 93.113281 C 97.71875 92.097656 97.738281 91.058594 97.613281 90.023438 C 97.492188 89.035156 97.1875 88.144531 96.832031 87.273438 C 96.1875 89.03125 95.382812 90.714844 94.417969 92.308594 C 94.304688 92.226562 94.195312 92.148438 94.089844 92.066406 C 95.085938 90.425781 95.910156 88.6875 96.554688 86.859375 C 96.566406 86.820312 96.589844 86.792969 96.621094 86.769531 C 96.277344 85.976562 95.90625 85.191406 95.597656 84.355469 C 94.824219 82.269531 95.710938 79.765625 94.019531 78.046875 C 92.183594 76.1875 89.257812 76.800781 87.011719 77.304688 C 86.964844 77.316406 86.925781 77.3125 86.886719 77.296875 C 86.734375 77.226562 86.699219 76.960938 86.90625 76.914062 C 87.011719 76.890625 87.125 76.867188 87.234375 76.839844 C 89.390625 76.363281 91.847656 75.953125 93.773438 77.3125 C 94.371094 77.734375 94.851562 78.320312 95.15625 78.984375 C 96.035156 78.953125 96.90625 79 97.757812 79.117188 C 97.761719 79.261719 97.773438 79.398438 97.792969 79.542969 C 96.976562 79.421875 96.152344 79.371094 95.316406 79.390625 C 95.324219 79.402344 95.332031 79.421875 95.335938 79.4375 C 95.476562 79.878906 95.53125 80.339844 95.550781 80.800781 C 96.359375 80.890625 97.34375 80.988281 98.269531 81.222656 C 98.355469 81.394531 98.449219 81.558594 98.554688 81.726562 C 97.554688 81.421875 96.4375 81.3125 95.5625 81.210938 C 95.578125 81.90625 95.558594 82.609375 95.703125 83.296875 C 95.976562 84.59375 96.71875 85.730469 97.222656 86.949219 C 97.648438 87.976562 97.921875 89.058594 98.035156 90.164062 " fill-opacity="1" fill-rule="nonzero"/><path fill="#e6d6cc" d="M 53.066406 106.644531 C 52.59375 105.679688 51.90625 103.515625 53.789062 103.742188 C 54.613281 103.839844 55.632812 104.628906 56.226562 105.152344 C 57.035156 105.859375 57.660156 106.714844 58.097656 107.671875 C 57.863281 108.144531 57.636719 108.625 57.40625 109.109375 C 57.34375 109.246094 57.277344 109.386719 57.21875 109.523438 C 56.96875 110.058594 56.730469 110.601562 56.496094 111.140625 C 55.09375 109.816406 53.875 108.300781 53.066406 106.644531 Z M 82.101562 105.796875 C 82.792969 105.097656 83.617188 104.328125 84.585938 104.050781 C 86.402344 103.53125 86.9375 105.417969 86.40625 106.761719 C 85.761719 108.394531 84.453125 109.890625 83.246094 111.136719 C 83.074219 111.3125 82.894531 111.476562 82.726562 111.644531 C 82.441406 110.71875 82.144531 109.792969 81.804688 108.886719 C 81.757812 108.761719 81.707031 108.632812 81.660156 108.503906 C 81.570312 108.273438 81.476562 108.050781 81.382812 107.820312 C 81.289062 107.59375 81.179688 107.394531 81.066406 107.207031 L 80.929688 107.207031 C 81.285156 106.707031 81.671875 106.234375 82.101562 105.796875 Z M 84.71875 118.855469 C 84.695312 118.746094 84.664062 118.640625 84.636719 118.527344 C 84.265625 116.972656 83.855469 115.425781 83.398438 113.886719 C 83.363281 113.753906 83.328125 113.625 83.28125 113.492188 C 83.242188 113.335938 83.191406 113.1875 83.148438 113.03125 C 83.050781 112.71875 82.957031 112.402344 82.859375 112.085938 C 83.535156 111.453125 84.167969 110.769531 84.753906 110.046875 C 85.839844 108.710938 87.683594 106.570312 86.867188 104.699219 C 86.042969 102.8125 83.957031 103.683594 82.765625 104.648438 C 81.859375 105.378906 81.082031 106.242188 80.4375 107.207031 L 58.324219 107.207031 C 57.777344 106.132812 56.996094 105.191406 56.019531 104.464844 C 55.046875 103.738281 52.457031 102.214844 52.167969 104.332031 C 51.875 106.457031 53.675781 108.546875 54.960938 110.035156 C 55.402344 110.542969 55.867188 111.027344 56.351562 111.492188 C 56.121094 112.039062 55.902344 112.589844 55.695312 113.140625 C 55.640625 113.28125 55.59375 113.425781 55.542969 113.5625 C 54.992188 115.085938 54.542969 116.644531 54.261719 118.207031 C 54.234375 118.339844 54.210938 118.476562 54.191406 118.609375 C 53.824219 120.84375 53.804688 123.101562 54.308594 125.347656 C 54.878906 127.871094 56.332031 130.425781 58.921875 131.269531 C 60.527344 131.792969 62.246094 131.582031 63.894531 131.4375 C 65.890625 131.265625 67.859375 131.347656 69.855469 131.535156 C 73.453125 131.863281 77.261719 132.441406 80.753906 131.203125 C 83.726562 130.152344 85.324219 127.605469 85.472656 124.507812 C 85.566406 122.628906 85.160156 120.765625 84.738281 118.945312 C 84.730469 118.914062 84.726562 118.882812 84.71875 118.855469 " fill-opacity="1" fill-rule="nonzero"/><path fill="#c9ae9d" d="M 83.398438 113.886719 C 82.203125 113.984375 81.015625 114.144531 79.839844 114.394531 C 78.351562 114.710938 76.898438 115.207031 75.378906 115.398438 C 73.890625 115.585938 72.390625 115.472656 70.90625 115.304688 C 65.804688 114.726562 60.667969 113.207031 55.542969 113.5625 C 55.59375 113.425781 55.640625 113.28125 55.695312 113.140625 C 60.640625 112.851562 65.597656 114.246094 70.519531 114.855469 C 72.230469 115.0625 73.980469 115.210938 75.699219 114.949219 C 77.253906 114.703125 78.75 114.183594 80.296875 113.886719 C 81.285156 113.699219 82.28125 113.578125 83.28125 113.492188 C 83.328125 113.625 83.363281 113.753906 83.398438 113.886719 " fill-opacity="1" fill-rule="nonzero"/><path fill="#c9ae9d" d="M 81.804688 108.886719 C 80.199219 109.652344 78.511719 110.34375 76.820312 110.601562 C 74.324219 110.988281 71.867188 110.136719 69.414062 109.816406 C 66.550781 109.453125 63.625 109.371094 60.738281 109.429688 C 59.652344 109.453125 58.382812 109.640625 57.21875 109.523438 C 57.277344 109.386719 57.34375 109.246094 57.40625 109.109375 C 57.847656 109.132812 58.300781 109.113281 58.738281 109.097656 C 59.9375 109.042969 61.140625 109.007812 62.339844 109.011719 C 64.714844 109.019531 67.113281 109.113281 69.46875 109.414062 C 71.988281 109.738281 74.523438 110.648438 77.074219 110.148438 C 78.644531 109.835938 80.175781 109.207031 81.660156 108.503906 C 81.707031 108.632812 81.757812 108.761719 81.804688 108.886719 " fill-opacity="1" fill-rule="nonzero"/><path fill="#c9ae9d" d="M 84.738281 118.945312 C 82.925781 118.78125 81.109375 118.628906 79.292969 118.527344 C 77.621094 118.441406 75.96875 118.480469 74.3125 118.742188 C 73.050781 118.9375 71.800781 119.214844 70.53125 119.378906 C 67.703125 119.757812 64.847656 119.617188 62.0625 119.007812 C 60.5 118.664062 58.980469 118.355469 57.367188 118.371094 C 56.304688 118.382812 55.246094 118.480469 54.191406 118.609375 C 54.210938 118.476562 54.234375 118.339844 54.261719 118.207031 C 56.527344 117.949219 58.769531 117.863281 61.046875 118.359375 C 64.082031 119.015625 67.042969 119.394531 70.148438 119.023438 C 73.183594 118.664062 76.011719 117.957031 79.097656 118.113281 C 80.945312 118.203125 82.789062 118.363281 84.636719 118.527344 C 84.664062 118.640625 84.695312 118.746094 84.71875 118.855469 C 84.726562 118.882812 84.730469 118.914062 84.738281 118.945312 " fill-opacity="1" fill-rule="nonzero"/><g clip-path="url(#5f00cea22c)"><path fill="#464752" d="M 189.683594 132.390625 C 189.75 132.074219 191.820312 132.140625 192.042969 132.171875 C 194.640625 132.527344 194.261719 136.175781 194.265625 138.027344 C 194.273438 140.449219 194.136719 142.894531 193.804688 145.296875 C 193.738281 145.769531 193.6875 146.273438 193.527344 146.722656 C 193.054688 148.039062 191.378906 147.933594 190.253906 147.839844 C 188.410156 147.683594 188.511719 145.226562 188.292969 143.832031 C 188.175781 143.121094 188.078125 142.410156 187.996094 141.695312 C 187.96875 141.472656 187.808594 140.910156 187.917969 140.699219 C 187.988281 140.558594 189.683594 132.390625 189.683594 132.390625 " fill-opacity="1" fill-rule="nonzero"/></g><path fill="#ff9d87" d="M 189.816406 133.246094 C 191.207031 133.003906 192.535156 133.976562 192.691406 135.378906 C 192.703125 135.492188 192.714844 135.605469 192.722656 135.722656 C 192.847656 137.441406 192.320312 138.660156 192.214844 138.625 C 192.109375 138.589844 190.265625 138.792969 190.207031 138.722656 C 190.152344 138.652344 189.816406 133.246094 189.816406 133.246094 " fill-opacity="1" fill-rule="nonzero"/><path fill="#ba5e29" d="M 170.261719 128.429688 C 170.261719 128.429688 175.335938 127.828125 179.820312 130.234375 C 181.785156 131.289062 190.390625 131.125 190.578125 131.613281 C 191.859375 134.910156 190.328125 139.855469 190.328125 139.855469 C 190.328125 139.855469 179.351562 141.710938 175.976562 142.410156 C 172.597656 143.109375 172.554688 130.90625 172.554688 130.90625 L 170.261719 128.429688 " fill-opacity="1" fill-rule="nonzero"/><path fill="#de8b5b" d="M 176.636719 128.824219 C 176.292969 127.15625 176.875 125.777344 176.53125 124.105469 C 176.179688 122.398438 174.992188 120.367188 175.117188 118.628906 C 175.234375 116.960938 175.449219 115.3125 175.203125 113.648438 C 175.039062 112.519531 174.671875 111.46875 174.269531 110.417969 C 174.503906 106.695312 173.851562 102.980469 172.308594 99.464844 C 172.40625 98.496094 172.457031 97.523438 172.289062 96.558594 C 172.179688 95.9375 172.019531 95.125 171.558594 94.605469 C 171.171875 94.164062 170.675781 94.105469 170.074219 93.945312 C 168.027344 93.398438 166.265625 93.085938 164.089844 93.335938 C 163.007812 93.460938 161.945312 93.675781 160.894531 93.914062 C 160.027344 94.109375 159.050781 94.265625 158.265625 94.648438 C 158.039062 94.761719 157.753906 94.964844 157.539062 95.195312 C 155.769531 95.769531 154.300781 96.246094 153.34375 97.761719 C 153.015625 98.28125 152.90625 98.742188 152.941406 99.183594 C 152.597656 98.652344 152.234375 98.117188 151.867188 97.570312 C 151.714844 97.339844 151.292969 97.546875 151.445312 97.773438 C 152.753906 99.730469 154.015625 101.503906 154.601562 103.722656 C 154.914062 104.914062 155.089844 106.128906 155.207031 107.34375 C 155.199219 107.371094 155.199219 107.402344 155.207031 107.433594 C 155.210938 107.453125 155.21875 107.476562 155.222656 107.496094 C 155.308594 108.433594 155.363281 109.371094 155.414062 110.308594 C 155.425781 110.570312 155.914062 110.570312 155.898438 110.308594 C 155.898438 110.257812 155.894531 110.203125 155.890625 110.152344 C 157.96875 117.875 161.152344 125.359375 163.179688 133.09375 C 162.972656 133.074219 162.777344 133.289062 162.972656 133.429688 C 163.085938 133.515625 163.210938 133.589844 163.332031 133.667969 C 163.351562 133.75 163.371094 133.828125 163.390625 133.90625 C 163.4375 134.085938 163.675781 134.082031 163.796875 133.980469 C 165.890625 135.269531 168.433594 135.976562 171.058594 135.945312 C 173.539062 135.914062 176.796875 135.28125 177.179688 132.859375 C 177.386719 131.539062 176.902344 130.117188 176.636719 128.824219 " fill-opacity="1" fill-rule="nonzero"/><path fill="#ba5e29" d="M 174.183594 127.554688 C 173.828125 125.78125 174 124.230469 174.050781 122.464844 C 174.097656 120.925781 173.734375 119.410156 173.492188 117.902344 C 172.511719 111.757812 172.550781 105.363281 169.910156 99.605469 C 169.800781 99.367188 169.453125 99.574219 169.558594 99.8125 C 172.179688 105.527344 172.128906 111.910156 173.101562 118.011719 C 173.355469 119.605469 173.71875 121.1875 173.628906 122.8125 C 173.542969 124.34375 173.429688 125.75 173.714844 127.277344 C 174.378906 130.785156 174.964844 134.164062 174.878906 137.75 C 174.875 138.015625 175.28125 138.015625 175.285156 137.75 C 175.371094 134.269531 174.875 130.953125 174.183594 127.554688 " fill-opacity="1" fill-rule="nonzero"/><path fill="#de8b5b" d="M 161.171875 100.808594 C 161.132812 99.929688 159.5625 99.480469 159.515625 98.597656 C 159.480469 97.867188 159.578125 97.007812 159.316406 96.304688 C 158.945312 95.296875 157.804688 95.289062 156.84375 95.589844 C 154.785156 96.234375 152.800781 97.207031 150.808594 98.011719 C 148.816406 98.820312 146.414062 99.46875 144.691406 100.691406 C 144.503906 100.824219 144.242188 101.183594 144.242188 101.183594 C 144.242188 101.183594 140.953125 114.582031 139.578125 121.476562 C 139.230469 123.210938 138.90625 124.957031 138.613281 126.699219 C 138.542969 127.121094 138.300781 127.8125 138.546875 128.230469 C 138.816406 128.691406 139.59375 128.890625 140.066406 129.09375 C 143.390625 130.519531 146.9375 131.464844 150.582031 131.941406 C 150.695312 131.957031 150.773438 131.925781 150.839844 131.851562 C 151.9375 130.519531 153.050781 129.167969 153.671875 127.59375 C 154.246094 126.136719 154.386719 124.628906 154.949219 123.183594 C 155.015625 123.007812 155.09375 122.828125 155.179688 122.652344 C 155.238281 122.527344 155.300781 122.402344 155.371094 122.273438 C 155.484375 122.0625 155.601562 121.855469 155.71875 121.644531 C 156.429688 120.363281 157.117188 119.125 157.535156 117.707031 C 157.597656 117.488281 157.703125 117.222656 157.839844 116.90625 C 158.871094 114.550781 161.699219 109.796875 162.03125 108.144531 C 162.761719 104.53125 161.332031 104.476562 161.171875 100.808594 " fill-opacity="1" fill-rule="nonzero"/><path fill="#ff9d87" d="M 176.574219 64.917969 L 181.925781 72.457031 L 175.757812 74.785156 L 168.246094 68.433594 L 176.574219 64.917969 " fill-opacity="1" fill-rule="nonzero"/><path fill="#ff9d87" d="M 121.21875 88.441406 L 123.867188 76.464844 L 131.777344 78.03125 L 127.917969 90.132812 L 121.21875 88.441406 " fill-opacity="1" fill-rule="nonzero"/><path fill="#e6684b" d="M 129.058594 91.960938 C 128.824219 91.355469 128.503906 90.738281 128.296875 90.257812 C 127.910156 89.363281 127.457031 88.472656 126.859375 87.695312 C 126.003906 86.582031 124.765625 85.847656 123.328125 86.207031 C 121.109375 86.761719 120.722656 89.386719 121.480469 91.25 C 121.929688 92.351562 122.644531 93.304688 123.484375 94.144531 C 124.386719 95.066406 125.445312 95.867188 126.476562 96.613281 C 126.464844 96.636719 126.453125 96.660156 126.445312 96.6875 C 126.359375 96.933594 126.699219 97.046875 126.832031 96.867188 C 126.945312 96.949219 127.054688 97.027344 127.171875 97.109375 C 127.398438 97.273438 127.621094 96.886719 127.390625 96.726562 C 127.265625 96.636719 127.140625 96.546875 127.019531 96.457031 C 127.398438 95.542969 127.941406 94.730469 128.695312 94.066406 C 129.066406 93.738281 129.351562 93.589844 129.328125 93.070312 C 129.316406 92.734375 129.207031 92.347656 129.058594 91.960938 " fill-opacity="1" fill-rule="nonzero"/><path fill="#e6d6cc" d="M 176.972656 63.742188 C 176.878906 63.636719 176.78125 63.535156 176.691406 63.441406 C 176.660156 63.40625 176.628906 63.371094 176.59375 63.332031 C 175.679688 62.269531 174.769531 61.207031 173.851562 60.144531 C 171.070312 56.898438 167.816406 53.828125 164.296875 51.378906 C 161.953125 49.746094 159.253906 48.367188 156.351562 48.417969 C 156.351562 48.417969 156.605469 49.132812 156.765625 48.929688 C 156.835938 48.847656 156.714844 51.84375 157.113281 52.996094 C 157.886719 55.21875 158.742188 57.417969 159.6875 59.582031 C 160.691406 61.890625 161.800781 64.160156 162.996094 66.382812 C 163.554688 67.414062 164.128906 68.429688 164.722656 69.4375 C 165.097656 70.066406 165.464844 71.054688 166.277344 71.210938 C 167.039062 71.355469 167.929688 70.722656 168.5625 70.390625 C 169.707031 69.800781 170.828125 69.171875 171.933594 68.503906 C 172.929688 67.902344 173.910156 67.269531 174.871094 66.609375 C 175.375 66.261719 175.875 65.910156 176.371094 65.546875 C 176.628906 65.355469 177.089844 65.101562 177.257812 64.816406 C 177.488281 64.414062 177.253906 64.058594 176.972656 63.742188 " fill-opacity="1" fill-rule="nonzero"/><path fill="#c9ae9d" d="M 176.972656 63.742188 C 173.582031 66.316406 169.832031 68.390625 165.828125 69.894531 C 165.578125 69.988281 165.476562 69.59375 165.71875 69.503906 C 169.660156 68.019531 173.355469 65.976562 176.691406 63.441406 C 176.78125 63.535156 176.878906 63.636719 176.972656 63.742188 " fill-opacity="1" fill-rule="nonzero"/><path fill="#e6d6cc" d="M 174.625 98.546875 C 174.421875 96.5 172.773438 85.1875 172.089844 83.257812 C 171.863281 82.601562 171.605469 81.953125 171.335938 81.316406 C 170.828125 79.097656 170.269531 76.894531 169.601562 74.71875 C 168.332031 70.566406 166.558594 66.679688 164.53125 62.847656 C 163.519531 60.953125 162.496094 59.0625 161.566406 57.125 C 160.882812 55.675781 160.335938 54.171875 159.757812 52.683594 C 159.308594 51.523438 158.878906 49.714844 157.882812 48.894531 C 157.246094 48.378906 156.359375 48.324219 155.546875 48.410156 C 153.550781 48.640625 151.574219 48.910156 149.605469 49.292969 C 148.578125 49.492188 147.527344 49.6875 146.480469 49.914062 C 146.351562 49.945312 146.214844 49.972656 146.085938 50 C 143.425781 50.601562 140.804688 51.429688 138.660156 53.105469 C 138.601562 53.035156 138.507812 52.992188 138.402344 53.042969 C 137.496094 53.503906 136.605469 54 135.738281 54.53125 C 135.621094 54.601562 135.503906 54.675781 135.382812 54.746094 C 133.742188 55.769531 132.175781 56.914062 130.699219 58.183594 C 129.691406 59.046875 128.195312 60.089844 127.640625 61.332031 C 127.125 62.484375 127.800781 64.007812 128.230469 65.09375 C 129.421875 68.0625 131.042969 70.855469 132.285156 73.808594 C 132.957031 75.410156 138.976562 95.011719 140.644531 97.851562 C 140.652344 97.867188 140.664062 97.875 140.671875 97.882812 C 140.898438 98.4375 140.710938 98.582031 140.933594 99.136719 C 141.285156 99.992188 141.632812 100.847656 141.988281 101.699219 C 142.253906 102.347656 142.03125 104.273438 142.582031 104.75 C 143.566406 105.605469 146.117188 104.664062 147.195312 104.410156 C 149.171875 103.941406 153.355469 104.648438 155.277344 104.003906 C 159.113281 102.714844 162.816406 103.457031 166.710938 102.375 C 168.722656 101.8125 169.964844 100.941406 171.964844 100.339844 C 172.386719 100.210938 172.925781 100.125 173.410156 99.972656 C 173.542969 99.933594 173.671875 99.882812 173.796875 99.832031 C 174.320312 99.597656 174.691406 99.230469 174.625 98.546875 " fill-opacity="1" fill-rule="nonzero"/><path fill="#c9ae9d" d="M 173.796875 99.832031 C 173.671875 99.882812 173.542969 99.933594 173.410156 99.972656 C 173.242188 98.84375 173.050781 97.71875 172.8125 96.609375 C 172.292969 94.226562 171.511719 91.921875 170.941406 89.554688 C 170.367188 87.171875 170.363281 84.75 169.910156 82.359375 C 169.4375 79.886719 168.492188 77.535156 167.558594 75.203125 C 167.460938 74.957031 167.855469 74.851562 167.953125 75.09375 C 168.910156 77.480469 169.871094 79.894531 170.332031 82.433594 C 170.78125 84.894531 170.8125 87.367188 171.421875 89.804688 C 172.050781 92.304688 172.867188 94.75 173.363281 97.28125 C 173.53125 98.128906 173.671875 98.976562 173.796875 99.832031 " fill-opacity="1" fill-rule="nonzero"/><path fill="#c9ae9d" d="M 162.582031 66.0625 C 160.277344 61.1875 159.421875 55.773438 160.082031 50.417969 C 160.113281 50.160156 159.707031 50.160156 159.671875 50.417969 C 159.003906 55.84375 159.898438 61.328125 162.230469 66.269531 C 162.339844 66.503906 162.691406 66.300781 162.582031 66.0625 " fill-opacity="1" fill-rule="nonzero"/><path fill="#ff9d87" d="M 162.394531 72.996094 C 162.394531 72.996094 161.773438 73.664062 160.746094 74.761719 C 160.714844 74.800781 160.675781 74.835938 160.644531 74.871094 C 160.570312 74.945312 160.507812 75.011719 160.460938 75.066406 C 160.441406 75.089844 160.414062 75.117188 160.382812 75.144531 C 160.375 75.15625 160.371094 75.160156 160.367188 75.167969 C 160.359375 75.175781 160.351562 75.183594 160.339844 75.195312 C 160.335938 75.199219 160.335938 75.199219 160.335938 75.199219 C 158.503906 77.15625 155.652344 80.164062 152.664062 83.226562 L 148.871094 78.355469 L 152.125 75.566406 L 157.359375 71.234375 L 158.613281 70.195312 L 159.648438 69.339844 L 162.027344 69.410156 L 162.394531 72.996094 " fill-opacity="1" fill-rule="nonzero"/><path fill="#ff9d87" d="M 166.148438 67.558594 C 163.273438 64.671875 161.5 61.015625 158.890625 57.917969 C 158.316406 57.238281 157.382812 56.242188 156.378906 56.292969 C 156.285156 56.296875 156.1875 56.308594 156.09375 56.332031 C 156.050781 56.339844 156.007812 56.359375 155.960938 56.375 C 155.863281 56.40625 155.773438 56.453125 155.699219 56.5 C 155.546875 56.601562 155.441406 56.734375 155.371094 56.898438 C 155.3125 57.039062 155.28125 57.195312 155.28125 57.371094 C 155.273438 57.464844 155.28125 57.558594 155.289062 57.652344 C 155.296875 57.707031 155.300781 57.753906 155.304688 57.808594 C 155.308594 57.824219 155.308594 57.84375 155.3125 57.867188 C 155.460938 58.925781 156.304688 60.023438 156.75 60.988281 C 157.273438 62.101562 157.75 63.238281 158.125 64.414062 C 158.660156 66.109375 159.21875 68.398438 158.613281 70.195312 C 158.433594 70.734375 158.144531 71.230469 157.71875 71.648438 C 157.644531 71.722656 157.570312 71.796875 157.484375 71.867188 C 157.292969 72.027344 157.53125 72.339844 157.726562 72.179688 C 157.8125 72.105469 157.894531 72.027344 157.972656 71.949219 C 157.992188 71.929688 158.011719 71.910156 158.03125 71.890625 C 158.027344 71.933594 158.035156 71.984375 158.046875 72.039062 C 158.234375 72.980469 160.335938 75.199219 160.335938 75.199219 C 160.335938 75.199219 160.335938 75.199219 160.339844 75.195312 C 160.347656 75.1875 160.355469 75.179688 160.367188 75.167969 C 160.371094 75.160156 160.375 75.15625 160.382812 75.144531 C 160.402344 75.125 160.429688 75.097656 160.460938 75.066406 C 160.507812 75.011719 160.570312 74.945312 160.644531 74.871094 C 160.675781 74.839844 160.714844 74.804688 160.75 74.765625 C 161.367188 74.144531 162.570312 73.023438 163.484375 72.714844 C 164.789062 72.273438 166.429688 71.734375 167.007812 70.332031 C 167.519531 69.101562 166.988281 68.402344 166.148438 67.558594 " fill-opacity="1" fill-rule="nonzero"/><path fill="#464752" d="M 157.984375 82.667969 C 157.691406 79.019531 156.539062 76.65625 154.683594 73.515625 C 154.613281 73.394531 154.464844 73.390625 154.367188 73.472656 C 146.5 80.222656 138.636719 86.976562 130.769531 93.726562 C 123.023438 100.375 115.277344 107.007812 107.832031 113.996094 C 103.910156 117.675781 100.042969 121.414062 96.175781 125.15625 C 95.957031 124.957031 95.738281 124.753906 95.511719 124.558594 C 95.324219 124.382812 95.03125 124.671875 95.230469 124.84375 C 95.449219 125.042969 95.667969 125.238281 95.882812 125.433594 C 95.761719 125.558594 95.636719 125.679688 95.507812 125.800781 C 95.316406 125.980469 95.605469 126.269531 95.796875 126.085938 L 96.1875 125.707031 C 97.183594 126.605469 98.171875 127.496094 99.167969 128.386719 C 100.296875 129.402344 101.472656 130.410156 102.878906 131.035156 C 105.605469 132.25 108.582031 131.597656 111.203125 130.425781 C 114.175781 129.097656 116.8125 132.515625 116.8125 132.515625 C 116.8125 132.515625 120.695312 128.105469 123.609375 125.039062 C 124.550781 124.050781 125.390625 123.203125 125.96875 122.6875 C 127.785156 121.070312 130.046875 117.101562 131.910156 114.0625 C 132.585938 112.953125 133.210938 111.96875 133.742188 111.269531 C 135.871094 108.453125 138.472656 106.28125 141.089844 103.949219 C 145.761719 99.785156 148.9375 94.179688 153.832031 90.261719 C 155.09375 89.253906 156.71875 88.53125 157.449219 87.015625 C 158.097656 85.675781 158.101562 84.113281 157.984375 82.667969 " fill-opacity="1" fill-rule="nonzero"/><path fill="#ff9d87" d="M 184.933594 136.71875 L 182.621094 139.480469 C 182.621094 139.480469 181.882812 139.496094 180.636719 139.523438 C 180.324219 139.53125 179.980469 139.535156 179.609375 139.542969 C 176.929688 139.589844 172.785156 139.644531 168.515625 139.632812 L 169.355469 133.515625 L 173.621094 133.902344 L 180.476562 134.652344 L 181.988281 134.816406 L 183.324219 134.960938 L 184.933594 136.71875 " fill-opacity="1" fill-rule="nonzero"/><path fill="#ff9d87" d="M 190.386719 123.519531 C 190.285156 123.421875 190.167969 123.335938 190.035156 123.277344 C 189.75 123.132812 189.488281 123.125 189.246094 123.21875 C 189.105469 123.273438 188.972656 123.363281 188.84375 123.484375 C 188.773438 123.546875 188.710938 123.613281 188.652344 123.6875 C 188.617188 123.730469 188.585938 123.765625 188.550781 123.804688 C 188.539062 123.824219 188.527344 123.835938 188.515625 123.851562 C 187.859375 124.699219 187.660156 126.066406 187.285156 127.0625 C 186.847656 128.214844 186.367188 129.347656 185.785156 130.429688 C 184.945312 131.996094 183.703125 134 181.988281 134.816406 C 181.523438 135.042969 181.011719 135.179688 180.472656 135.1875 C 180.316406 135.195312 180.164062 135.1875 180.003906 135.171875 C 179.753906 135.144531 179.699219 135.53125 179.953125 135.5625 C 180.09375 135.574219 180.230469 135.582031 180.371094 135.578125 C 179.746094 136.136719 179.609375 139.542969 179.609375 139.542969 C 179.695312 139.539062 179.773438 139.539062 179.851562 139.539062 C 180.035156 139.535156 180.3125 139.535156 180.640625 139.550781 C 181.550781 139.578125 182.84375 139.691406 183.582031 140.066406 C 184.808594 140.699219 186.335938 141.503906 187.738281 140.941406 C 188.980469 140.449219 189.109375 139.578125 189.132812 138.390625 C 189.191406 134.3125 190.574219 130.484375 190.972656 126.453125 C 191.058594 125.570312 191.117188 124.203125 190.386719 123.519531 " fill-opacity="1" fill-rule="nonzero"/><path fill="#ffe1d4" d="M 190.386719 123.519531 C 190.285156 123.421875 190.167969 123.335938 190.035156 123.277344 C 189.75 123.132812 189.488281 123.125 189.246094 123.21875 C 189.105469 123.273438 188.972656 123.363281 188.84375 123.484375 C 188.773438 123.546875 188.710938 123.613281 188.652344 123.6875 C 188.617188 123.730469 188.585938 123.765625 188.550781 123.804688 C 188.539062 123.824219 188.527344 123.835938 188.515625 123.851562 C 187.859375 124.699219 187.660156 126.066406 187.285156 127.0625 C 186.847656 128.214844 186.367188 129.347656 185.785156 130.429688 C 184.964844 131.957031 183.769531 133.894531 182.125 134.742188 C 182.078125 134.769531 182.035156 134.796875 181.988281 134.816406 L 181.726562 134.785156 L 180.476562 134.652344 C 180.472656 134.828125 180.472656 135.007812 180.472656 135.1875 C 180.460938 136.632812 180.511719 138.078125 180.636719 139.523438 C 180.636719 139.53125 180.636719 139.542969 180.640625 139.550781 C 181.019531 139.5625 181.46875 139.585938 181.914062 139.644531 C 182.046875 139.660156 182.183594 139.679688 182.320312 139.703125 C 182.796875 139.78125 183.242188 139.894531 183.582031 140.066406 C 184.808594 140.699219 186.335938 141.503906 187.738281 140.941406 C 188.980469 140.449219 189.109375 139.578125 189.132812 138.390625 C 189.191406 134.3125 190.574219 130.484375 190.972656 126.453125 C 191.058594 125.570312 191.117188 124.203125 190.386719 123.519531 " fill-opacity="1" fill-rule="nonzero"/><path fill="#ffffff" d="M 182.320312 139.703125 C 182.183594 139.679688 182.046875 139.660156 181.914062 139.644531 C 181.882812 138.960938 181.859375 138.277344 181.832031 137.59375 C 181.792969 136.660156 181.738281 135.722656 181.726562 134.785156 L 181.988281 134.816406 C 182.035156 134.796875 182.078125 134.769531 182.125 134.742188 C 182.136719 135.808594 182.210938 136.878906 182.25 137.9375 C 182.273438 138.527344 182.300781 139.113281 182.320312 139.703125 " fill-opacity="1" fill-rule="nonzero"/><path fill="#464752" d="M 170.046875 132.515625 C 167.324219 132.472656 153.789062 129.769531 148.214844 129.128906 C 142.574219 128.480469 120.347656 124.097656 114.679688 124.140625 C 109.023438 124.175781 101.550781 123.648438 96.566406 125.777344 C 96.597656 125.714844 96.625 125.652344 96.652344 125.589844 C 96.757812 125.355469 96.410156 125.144531 96.296875 125.382812 C 96.203125 125.597656 96.101562 125.820312 96.003906 126.035156 C 95.957031 126.054688 95.910156 126.074219 95.867188 126.101562 C 95.722656 126.167969 95.746094 126.324219 95.832031 126.414062 C 94.773438 128.753906 93.742188 131.121094 93.003906 133.582031 C 92.929688 133.816406 92.859375 134.054688 92.800781 134.289062 C 92.714844 134.578125 92.640625 134.871094 92.566406 135.164062 C 92.191406 136.71875 91.894531 138.363281 91.910156 139.964844 C 91.917969 141.207031 92.585938 141.492188 93.730469 141.671875 C 97.359375 142.246094 101.015625 141.410156 104.632812 141.125 C 108.398438 140.832031 112.183594 140.90625 115.957031 141.140625 C 123.574219 141.597656 131.144531 142.574219 138.78125 142.78125 C 146.371094 142.988281 153.972656 142.691406 161.519531 141.902344 C 163.503906 141.691406 165.492188 141.449219 167.46875 141.167969 C 169.566406 140.875 173.421875 140.894531 175.476562 140.367188 C 176.746094 140.039062 176.507812 139.488281 176.84375 138.554688 C 176.898438 138.402344 176.96875 138.234375 177.066406 138.058594 C 177.125 137.957031 177.175781 137.855469 177.230469 137.75 C 178.058594 136.066406 178.492188 133.882812 178.492188 133.882812 C 178.492188 133.882812 172.75 132.566406 170.046875 132.515625 " fill-opacity="1" fill-rule="nonzero"/><path fill="#ffffff" d="M 177.230469 137.75 C 177.175781 137.855469 177.125 137.957031 177.066406 138.058594 C 176.96875 138.234375 176.898438 138.402344 176.84375 138.554688 C 170.914062 138.421875 165.03125 137.5 159.109375 137.023438 C 151.695312 136.429688 144.421875 137.339844 137.027344 137.660156 C 133.589844 137.8125 130.167969 137.734375 126.757812 137.28125 C 123.023438 136.785156 119.320312 136.03125 115.546875 135.949219 C 112.019531 135.878906 108.59375 136.078125 105.101562 135.480469 C 101.058594 134.792969 97.1875 134.191406 93.074219 134.386719 C 92.953125 134.390625 92.863281 134.355469 92.800781 134.289062 C 92.597656 134.09375 92.664062 133.652344 93.003906 133.582031 C 93.027344 133.578125 93.050781 133.574219 93.074219 133.574219 C 96.855469 133.394531 100.460938 133.816406 104.171875 134.488281 C 108.007812 135.1875 111.679688 135.054688 115.546875 135.132812 C 118.882812 135.207031 122.167969 135.800781 125.46875 136.28125 C 129.3125 136.839844 133.144531 137.015625 137.027344 136.84375 C 144.421875 136.527344 151.695312 135.609375 159.109375 136.207031 C 165.15625 136.695312 171.171875 137.648438 177.230469 137.75 " fill-opacity="1" fill-rule="nonzero"/><path fill="#944426" d="M 27.128906 112.601562 C 26.367188 112.480469 25.617188 112.746094 24.851562 112.734375 C 24.179688 112.722656 23.558594 112.910156 22.964844 113.230469 C 21.320312 114.121094 20.289062 116.09375 20.835938 117.742188 C 20.105469 118.246094 19.5625 119.292969 19.261719 119.953125 C 18.574219 121.4375 19.070312 122.371094 19.804688 123.589844 C 19.40625 125.410156 19.40625 127.253906 20.894531 128.660156 C 22.625 130.292969 24.511719 130.433594 26.550781 129.261719 C 27.457031 128.738281 27.550781 128.476562 27.363281 127.449219 C 27.128906 126.164062 26.59375 125.070312 26.050781 123.902344 C 25.417969 122.539062 25.464844 120.902344 25.59375 119.421875 C 25.738281 117.714844 26.355469 115.925781 28.078125 115.25 C 28.132812 115.226562 28.164062 115.191406 28.1875 115.152344 C 28.234375 115.128906 28.273438 115.089844 28.296875 115.03125 C 28.742188 113.714844 28.605469 112.835938 27.128906 112.601562 " fill-opacity="1" fill-rule="nonzero"/><path fill="#ff9d87" d="M 39.355469 128.996094 C 39.179688 129.179688 38.9375 129.355469 38.644531 129.523438 C 36.027344 130.996094 29.140625 131.632812 25.300781 127.957031 C 21.03125 123.867188 22.347656 120.664062 22.761719 118.414062 C 23.152344 116.292969 26.605469 114.066406 28.476562 114.152344 C 28.582031 114.15625 28.6875 114.167969 28.78125 114.1875 C 30.398438 114.542969 35.785156 115.664062 39.136719 116.644531 C 39.261719 116.683594 39.382812 116.71875 39.5 116.753906 C 39.6875 116.8125 39.859375 116.863281 40.03125 116.917969 C 43.230469 117.953125 42.914062 118.722656 42.625 120.300781 C 42.335938 121.871094 41.089844 127.195312 39.355469 128.996094 " fill-opacity="1" fill-rule="nonzero"/><path fill="#ff9d87" d="M 38.496094 116.074219 C 38.761719 115.070312 38.535156 113.941406 37.457031 114.117188 C 36.488281 114.277344 34.324219 115.351562 33.371094 115.683594 C 33.242188 115.730469 33.28125 115.902344 33.355469 115.976562 C 33.574219 116.910156 35.769531 117.339844 36.503906 117.398438 C 37.84375 117.507812 38.15625 117.34375 38.496094 116.074219 " fill-opacity="1" fill-rule="nonzero"/><path fill="#ff9d87" d="M 51.367188 125.136719 L 47.910156 132.28125 L 36.511719 128.9375 L 41.683594 122.539062 L 42.089844 122.648438 L 44.3125 123.242188 L 51.367188 125.136719 " fill-opacity="1" fill-rule="nonzero"/><path fill="#e66b3e" d="M 97.933594 123.628906 C 96.824219 123.023438 95.050781 123.382812 93.847656 123.351562 C 92.167969 123.308594 90.652344 122.675781 88.949219 122.863281 C 87.421875 123.03125 85.910156 123.351562 84.371094 123.390625 C 82.867188 123.425781 81.382812 122.933594 79.910156 122.628906 C 74.980469 121.609375 69.929688 120.578125 64.875 120.734375 C 61.386719 120.867188 58.65625 120.722656 55.171875 121.046875 C 52.511719 121.296875 48.902344 122.09375 46.441406 123.230469 C 44.355469 124.195312 41.589844 129.148438 41.167969 131.234375 C 40.949219 132.304688 41.925781 131.148438 42.117188 132.242188 C 42.289062 133.246094 43.96875 135.191406 44.660156 135.847656 C 46.367188 137.480469 47.328125 138.691406 49.542969 139.585938 C 52.03125 140.597656 55.847656 140.246094 58.53125 140.085938 C 59.960938 142.316406 63.539062 142.464844 65.90625 142.777344 C 69.742188 143.285156 73.507812 143.035156 77.347656 142.714844 C 79.402344 142.542969 81.457031 142.371094 83.511719 142.199219 C 85.347656 142.046875 87.234375 142 89.050781 141.691406 C 90.335938 141.476562 91.867188 140.847656 92.882812 139.949219 C 92.957031 140.070312 93.144531 140.117188 93.222656 139.957031 C 94.671875 136.96875 96.125 133.957031 97.089844 130.769531 C 97.542969 129.265625 97.789062 127.757812 98.070312 126.214844 C 98.21875 125.402344 98.921875 124.167969 97.933594 123.628906 " fill-opacity="1" fill-rule="nonzero"/><path fill="#c95022" d="M 92.730469 126.652344 C 92.738281 126.390625 92.332031 126.390625 92.320312 126.652344 C 92.28125 127.878906 91.941406 128.957031 91.375 129.882812 C 91.128906 130.214844 90.878906 130.542969 90.628906 130.871094 C 89.953125 131.621094 89.109375 132.25 88.136719 132.75 C 86.539062 133.578125 85.179688 134.792969 83.859375 136.039062 C 83.839844 136.015625 83.824219 135.992188 83.804688 135.972656 C 83.625 135.777344 83.335938 136.066406 83.515625 136.261719 C 83.53125 136.277344 83.546875 136.296875 83.5625 136.316406 C 83.105469 136.753906 82.648438 137.191406 82.1875 137.613281 C 81.996094 137.789062 82.28125 138.078125 82.476562 137.898438 C 82.933594 137.480469 83.386719 137.058594 83.839844 136.636719 C 84.171875 137.039062 84.453125 137.464844 84.699219 137.933594 C 84.761719 138.050781 84.929688 138.066406 85.019531 137.976562 C 86.253906 136.71875 87.445312 135.414062 88.585938 134.070312 C 89.675781 132.78125 90.953125 131.460938 91.816406 130.003906 C 92.394531 129.023438 92.691406 127.785156 92.730469 126.652344 " fill-opacity="1" fill-rule="nonzero"/><path fill="#ff9d87" d="M 78.316406 133.648438 C 78.316406 133.648438 84.144531 134.289062 90.875 135.664062 C 97.601562 137.039062 103.332031 137.601562 103.332031 137.601562 L 104.4375 139.078125 L 102.757812 139.84375 C 102.757812 139.84375 77.125 141.320312 77.125 141.167969 C 77.125 141.011719 75.796875 138.363281 76.195312 137.957031 C 76.59375 137.550781 78.316406 133.648438 78.316406 133.648438 " fill-opacity="1" fill-rule="nonzero"/><path fill="#301c15" d="M 33.453125 117.164062 C 33.230469 117.097656 33.019531 116.996094 32.828125 116.867188 C 32.699219 116.78125 32.570312 116.671875 32.503906 116.527344 C 32.152344 115.742188 33.640625 116.121094 33.945312 116.3125 C 34.082031 116.394531 34.210938 116.5 34.28125 116.644531 C 34.355469 116.785156 34.359375 116.96875 34.257812 117.09375 C 34.128906 117.257812 33.878906 117.261719 33.675781 117.21875 C 33.601562 117.203125 33.527344 117.1875 33.453125 117.164062 " fill-opacity="1" fill-rule="nonzero"/><path fill="#e6684b" d="M 38.324219 118.976562 C 38.144531 119.136719 37.863281 118.886719 38.042969 118.722656 C 38.613281 118.203125 38.941406 117.433594 39.136719 116.644531 C 39.261719 116.683594 39.382812 116.71875 39.5 116.753906 C 39.289062 117.59375 38.933594 118.421875 38.324219 118.976562 " fill-opacity="1" fill-rule="nonzero"/><path fill="#944426" d="M 31.519531 115.34375 C 31.496094 115.316406 31.46875 115.292969 31.4375 115.273438 C 31.238281 115.136719 30.96875 115.214844 30.765625 115.339844 C 29.902344 115.890625 29.800781 117.230469 30.082031 118.121094 C 30.132812 118.28125 30.214844 118.453125 30.375 118.5 C 30.503906 118.535156 30.640625 118.476562 30.734375 118.382812 C 30.828125 118.289062 30.882812 118.164062 30.933594 118.042969 C 31.222656 117.394531 31.492188 116.726562 31.613281 116.027344 C 31.65625 115.792969 31.660156 115.515625 31.519531 115.34375 " fill-opacity="1" fill-rule="nonzero"/><path fill="#944426" d="M 36.394531 128.222656 C 34.859375 127.46875 34.1875 126.289062 33.433594 124.839844 C 32.878906 123.773438 31.488281 123.609375 30.46875 123.183594 C 28.761719 122.46875 26.675781 121.394531 26.769531 119.277344 C 26.847656 117.445312 27.472656 115.679688 28.476562 114.152344 C 26.605469 114.066406 22.699219 116.09375 22.308594 118.214844 C 22.121094 119.21875 22.050781 122.1875 22.074219 122.339844 C 22.132812 122.6875 22.171875 123.046875 22.203125 123.414062 C 22.410156 124.269531 24.226562 127.457031 25.082031 128.277344 C 28.921875 131.953125 35.933594 131.046875 38.554688 129.574219 C 38.550781 129.5625 37.039062 128.542969 36.394531 128.222656 " fill-opacity="1" fill-rule="nonzero"/><path fill="#ff9d87" d="M 35.535156 124.496094 C 35.398438 123.796875 34.742188 123.421875 34.140625 123.164062 C 33.65625 122.957031 33.144531 122.8125 32.621094 122.730469 C 32.230469 122.671875 31.816406 122.6875 31.417969 122.652344 C 31.417969 122.554688 31.351562 122.457031 31.226562 122.464844 C 31.09375 122.476562 30.960938 122.5 30.820312 122.53125 C 30.726562 122.496094 30.632812 122.457031 30.542969 122.40625 C 30.359375 122.296875 30.207031 122.550781 30.324219 122.695312 C 29.308594 123.121094 28.390625 124.085938 28.847656 125.203125 C 29.398438 126.542969 31.382812 127 32.660156 126.886719 C 33.832031 126.785156 35.835938 126.023438 35.535156 124.496094 " fill-opacity="1" fill-rule="nonzero"/><path fill="#464752" d="M 23.910156 151.265625 L 9.664062 151.265625 C 9.253906 151.265625 8.921875 150.933594 8.921875 150.523438 L 8.921875 148.957031 L 24.652344 148.957031 L 24.652344 150.523438 C 24.652344 150.933594 24.320312 151.265625 23.910156 151.265625 " fill-opacity="1" fill-rule="nonzero"/><path fill="#464752" d="M 182.597656 151.265625 L 168.347656 151.265625 C 167.941406 151.265625 167.609375 150.933594 167.609375 150.523438 L 167.609375 148.957031 L 183.339844 148.957031 L 183.339844 150.523438 C 183.339844 150.933594 183.007812 151.265625 182.597656 151.265625 " fill-opacity="1" fill-rule="nonzero"/><g clip-path="url(#c53a1a8021)"><path fill="#5462b3" d="M 192.292969 140.910156 L 192.292969 147.632812 C 192.292969 148.363281 191.699219 148.957031 190.96875 148.957031 L 1.5625 148.957031 C 0.832031 148.957031 0.238281 148.363281 0.238281 147.632812 L 0.238281 140.910156 C 0.238281 140.183594 0.832031 139.585938 1.5625 139.585938 L 190.96875 139.585938 C 191.699219 139.585938 192.292969 140.183594 192.292969 140.910156 " fill-opacity="1" fill-rule="nonzero"/></g><path fill="#2f3b80" d="M 50.898438 139.585938 L 50.898438 148.957031 L 50.492188 148.957031 L 50.492188 139.585938 L 50.898438 139.585938 " fill-opacity="1" fill-rule="nonzero"/><path fill="#2f3b80" d="M 96.46875 139.585938 L 96.46875 148.957031 L 96.0625 148.957031 L 96.0625 139.585938 L 96.46875 139.585938 " fill-opacity="1" fill-rule="nonzero"/><path fill="#2f3b80" d="M 142.042969 139.585938 L 142.042969 148.957031 L 141.632812 148.957031 L 141.632812 139.585938 L 142.042969 139.585938 " fill-opacity="1" fill-rule="nonzero"/><g clip-path="url(#348c1f7ec3)"><path fill="#301c15" d="M 192.292969 147.082031 L 192.292969 147.632812 C 192.292969 148.363281 191.699219 148.957031 190.96875 148.957031 L 1.5625 148.957031 C 0.832031 148.957031 0.238281 148.363281 0.238281 147.632812 L 0.238281 147.082031 L 192.292969 147.082031 " fill-opacity="1" fill-rule="nonzero"/></g><path fill="#ffe1d4" d="M 46.527344 139.585938 C 46.527344 139.585938 47.371094 135.714844 43.980469 131.980469 C 41.609375 129.371094 38.144531 129.78125 34.984375 130.191406 C 33.390625 130.398438 31.753906 130.628906 30.148438 130.390625 C 28.417969 130.136719 27.257812 129.28125 26.003906 128.132812 C 23.433594 125.789062 19.652344 124.921875 16.296875 125.769531 C 12.609375 126.703125 9.914062 130.261719 7.917969 133.289062 C 6.996094 134.695312 6.160156 136.160156 5.410156 137.664062 C 5.339844 137.804688 4.632812 139.585938 4.511719 139.585938 C 4.515625 139.585938 46.527344 139.585938 46.527344 139.585938 " fill-opacity="1" fill-rule="nonzero"/><path fill="#e8b49c" d="M 26.128906 129.121094 C 22.488281 130.296875 19.292969 132.496094 16.90625 135.492188 C 16.742188 135.691406 17.03125 135.984375 17.191406 135.777344 C 19.539062 132.835938 22.660156 130.667969 26.238281 129.515625 C 26.488281 129.433594 26.378906 129.039062 26.128906 129.121094 " fill-opacity="1" fill-rule="nonzero"/><path fill="#e8b49c" d="M 26.710938 129.523438 C 25.871094 130.417969 25.050781 131.332031 24.253906 132.261719 C 24.082031 132.457031 24.371094 132.746094 24.542969 132.546875 C 25.339844 131.617188 26.160156 130.707031 27 129.8125 C 27.175781 129.621094 26.890625 129.332031 26.710938 129.523438 " fill-opacity="1" fill-rule="nonzero"/><path fill="#e8b49c" d="M 42.980469 136.6875 C 42.617188 135.140625 42.140625 133.617188 40.875 132.570312 C 39.664062 131.578125 38.042969 130.703125 36.507812 130.359375 C 36.253906 130.300781 36.144531 130.695312 36.402344 130.75 C 37.800781 131.066406 39.199219 131.839844 40.355469 132.683594 C 41.730469 133.691406 42.21875 135.207031 42.585938 136.792969 C 42.648438 137.050781 43.039062 136.941406 42.980469 136.6875 " fill-opacity="1" fill-rule="nonzero"/><path fill="#ff9d87" d="M 67.53125 132.28125 L 64.375 139.585938 L 78.054688 139.585938 L 80.003906 136.941406 C 80.003906 136.941406 78.625 133.902344 78.316406 133.648438 C 78.003906 133.390625 67.53125 132.28125 67.53125 132.28125 " fill-opacity="1" fill-rule="nonzero"/><path fill="#ff9d87" d="M 114.679688 139.585938 L 102.933594 139.585938 L 103.390625 137.597656 C 103.390625 137.597656 109.378906 136.898438 110.660156 137.222656 C 111.941406 137.550781 114.679688 139.585938 114.679688 139.585938 " fill-opacity="1" fill-rule="nonzero"/><path fill="#e6684b" d="M 113.035156 139.585938 L 112.304688 139.585938 C 112.097656 139.460938 111.878906 139.351562 111.636719 139.269531 C 110.941406 139.03125 110.214844 138.875 109.507812 138.679688 C 109.253906 138.613281 109.363281 138.21875 109.617188 138.285156 C 110.457031 138.515625 111.394531 138.675781 112.191406 139.035156 C 112.496094 139.175781 112.773438 139.371094 113.035156 139.585938 " fill-opacity="1" fill-rule="nonzero"/><path fill="#c95022" d="M 67.167969 131.269531 C 65.261719 130.683594 63.332031 130.191406 61.382812 129.777344 C 61.386719 129.714844 61.363281 129.648438 61.296875 129.601562 C 59.105469 128.078125 56.699219 126.976562 54.113281 126.3125 C 53.859375 126.246094 53.753906 126.640625 54.007812 126.707031 C 56.355469 127.308594 58.554688 128.285156 60.574219 129.613281 C 59.378906 129.375 58.171875 129.167969 56.960938 128.996094 C 56.703125 128.960938 56.59375 129.351562 56.851562 129.390625 C 60.3125 129.878906 63.71875 130.636719 67.058594 131.664062 C 67.308594 131.742188 67.417969 131.347656 67.167969 131.269531 " fill-opacity="1" fill-rule="nonzero"/><path fill="#6e270d" d="M 27.476562 114.285156 C 26.3125 113.980469 25.035156 114.371094 24.335938 115.382812 C 24.042969 115.804688 23.855469 116.15625 23.449219 116.511719 C 23.140625 116.777344 22.8125 117.011719 22.550781 117.328125 C 22.0625 117.914062 21.832031 118.558594 21.871094 119.316406 C 21.882812 119.578125 22.292969 119.578125 22.277344 119.316406 C 22.234375 118.429688 22.667969 117.71875 23.304688 117.144531 C 23.664062 116.820312 24.066406 116.621094 24.335938 116.222656 C 24.675781 115.730469 24.824219 115.292969 25.375 114.953125 C 25.988281 114.574219 26.679688 114.5 27.367188 114.679688 C 27.621094 114.746094 27.730469 114.355469 27.476562 114.285156 " fill-opacity="1" fill-rule="nonzero"/><path fill="#6e270d" d="M 23.457031 117.8125 C 23.058594 118.195312 22.582031 118.652344 22.492188 119.222656 C 22.382812 119.898438 22.601562 120.660156 22.859375 121.273438 C 22.957031 121.511719 23.351562 121.40625 23.25 121.164062 C 23.042969 120.675781 22.855469 120.101562 22.878906 119.5625 C 22.90625 118.925781 23.300781 118.527344 23.746094 118.101562 C 23.9375 117.921875 23.648438 117.632812 23.457031 117.8125 " fill-opacity="1" fill-rule="nonzero"/><path fill="#e6684b" d="M 156.625 58.191406 C 156.320312 57.652344 155.929688 57.09375 155.699219 56.5 C 155.773438 56.453125 155.863281 56.40625 155.960938 56.375 C 156.007812 56.359375 156.050781 56.339844 156.09375 56.332031 C 156.09375 56.339844 156.097656 56.347656 156.105469 56.359375 C 156.324219 56.929688 156.671875 57.453125 156.972656 57.984375 C 157.105469 58.210938 156.753906 58.417969 156.625 58.191406 " fill-opacity="1" fill-rule="nonzero"/><path fill="#e6684b" d="M 160.503906 70.652344 C 160.140625 70.914062 159.828125 71.226562 159.558594 71.585938 C 159.402344 71.796875 159.757812 72 159.910156 71.792969 C 160.136719 71.492188 160.40625 71.222656 160.707031 71.003906 C 160.917969 70.847656 160.714844 70.496094 160.503906 70.652344 " fill-opacity="1" fill-rule="nonzero"/><path fill="#ffffff" d="M 166.148438 67.558594 C 163.273438 64.671875 161.5 61.015625 158.890625 57.917969 C 158.316406 57.238281 157.382812 56.242188 156.378906 56.292969 C 156.285156 56.296875 156.1875 56.308594 156.09375 56.332031 C 156.050781 56.339844 156.007812 56.359375 155.960938 56.375 C 155.863281 56.40625 155.773438 56.453125 155.699219 56.5 C 155.546875 56.601562 155.441406 56.734375 155.371094 56.898438 C 155.3125 57.039062 155.28125 57.195312 155.28125 57.371094 C 155.273438 57.464844 155.28125 57.558594 155.289062 57.652344 C 155.296875 57.707031 155.300781 57.753906 155.304688 57.808594 C 155.308594 57.824219 155.308594 57.84375 155.3125 57.867188 C 155.460938 58.925781 156.304688 60.023438 156.75 60.988281 C 157.273438 62.101562 157.75 63.238281 158.125 64.414062 C 158.660156 66.109375 159.21875 68.398438 158.613281 70.195312 L 158.496094 70.292969 L 158.179688 70.558594 L 157.359375 71.234375 C 157.476562 71.375 157.597656 71.511719 157.71875 71.648438 C 157.800781 71.746094 157.886719 71.84375 157.972656 71.949219 C 157.996094 71.976562 158.023438 72.003906 158.046875 72.039062 C 158.894531 73.011719 159.769531 73.972656 160.746094 74.761719 C 160.746094 74.765625 160.746094 74.765625 160.75 74.765625 C 161 74.519531 161.339844 74.1875 161.71875 73.863281 C 161.816406 73.777344 161.921875 73.691406 162.027344 73.605469 C 162.515625 73.21875 163.039062 72.863281 163.484375 72.714844 C 164.789062 72.273438 166.429688 71.734375 167.007812 70.332031 C 167.519531 69.101562 166.988281 68.402344 166.148438 67.558594 " fill-opacity="1" fill-rule="nonzero"/><path fill="#ffffff" d="M 162.027344 73.605469 C 161.921875 73.691406 161.816406 73.777344 161.71875 73.863281 C 161.328125 73.5 160.933594 73.144531 160.546875 72.78125 L 158.179688 70.558594 L 158.496094 70.292969 C 159.375 71.121094 160.25 71.949219 161.128906 72.769531 C 161.425781 73.050781 161.726562 73.328125 162.027344 73.605469 " fill-opacity="1" fill-rule="nonzero"/><path fill="#242630" d="M 130.71875 114.101562 C 125.695312 114.304688 126.445312 116.972656 122.714844 119.027344 C 120.246094 120.386719 116.015625 121.304688 113.425781 121.773438 C 111.457031 120.976562 109.492188 120.167969 107.542969 119.332031 C 107.304688 119.230469 107.097656 119.582031 107.335938 119.683594 C 109.109375 120.441406 110.890625 121.179688 112.675781 121.90625 C 112.496094 121.933594 112.332031 121.960938 112.183594 121.988281 C 109.007812 121.636719 105.820312 121.535156 102.625 121.683594 C 102.363281 121.695312 102.363281 122.101562 102.625 122.089844 C 105.898438 121.941406 109.171875 122.050781 112.425781 122.421875 L 123.609375 125.039062 C 124.550781 124.050781 125.390625 123.203125 125.96875 122.6875 C 127.785156 121.070312 130.046875 117.101562 131.910156 114.0625 C 131.550781 114.070312 131.152344 114.082031 130.71875 114.101562 " fill-opacity="1" fill-rule="nonzero"/><path fill="#242630" d="M 152.144531 79.996094 C 152.132812 79.734375 151.722656 79.734375 151.734375 79.996094 C 151.910156 84.039062 152.042969 88.164062 150.59375 92.011719 C 150.5 92.257812 150.894531 92.363281 150.984375 92.121094 C 152.449219 88.238281 152.320312 84.074219 152.144531 79.996094 " fill-opacity="1" fill-rule="nonzero"/><path fill="#242630" d="M 149.777344 87.429688 C 149.804688 89.808594 149.46875 92.136719 148.765625 94.40625 C 148.691406 94.660156 149.082031 94.765625 149.160156 94.515625 C 149.871094 92.210938 150.210938 89.84375 150.183594 87.429688 C 150.179688 87.167969 149.773438 87.167969 149.777344 87.429688 " fill-opacity="1" fill-rule="nonzero"/><path fill="#242630" d="M 136.820312 94.972656 C 136.804688 94.710938 136.398438 94.707031 136.414062 94.972656 C 136.605469 98.535156 136.433594 102.09375 135.882812 105.617188 C 135.839844 105.875 136.234375 105.984375 136.273438 105.726562 C 136.828125 102.164062 137.015625 98.570312 136.820312 94.972656 " fill-opacity="1" fill-rule="nonzero"/><path fill="#fad9c0" d="M 139.757812 33.722656 C 138.8125 31.800781 136.792969 31.335938 134.914062 31.53125 C 134.164062 30.636719 132.777344 30.316406 131.625 30.457031 C 130.015625 30.65625 128.679688 31.664062 127.917969 33.101562 C 127.078125 33.125 126.238281 33.382812 125.472656 33.707031 C 124.835938 33.976562 124.210938 34.332031 123.84375 34.964844 C 123.671875 35.269531 123.566406 35.585938 123.566406 35.941406 C 123.5625 36.527344 123.703125 36.878906 123.351562 37.386719 C 122.398438 38.765625 121.703125 40.210938 122.328125 41.953125 C 122.855469 43.421875 123.859375 43.894531 125.09375 43.800781 C 125.460938 44.476562 126.03125 45.054688 126.632812 45.238281 C 127.507812 45.507812 128.320312 44.886719 128.9375 44.128906 C 129.328125 44.753906 129.769531 45.320312 130.484375 45.574219 C 131.480469 45.925781 132.550781 45.582031 133.472656 45.171875 C 134.3125 44.804688 135.121094 44.332031 136.046875 44.234375 C 136.710938 44.167969 137.382812 44.296875 138.042969 44.175781 C 138.960938 44.007812 139.535156 43.359375 139.808594 42.441406 C 140.242188 40.984375 139.949219 39.304688 140.078125 37.800781 C 140.199219 36.441406 140.382812 34.992188 139.757812 33.722656 " fill-opacity="1" fill-rule="nonzero"/><path fill="#ff9d87" d="M 144.246094 51.660156 L 143.019531 56.328125 L 139.722656 55.480469 L 137.976562 54.824219 L 136.554688 51.886719 L 136.113281 50.976562 L 139.714844 43.058594 L 144.246094 51.660156 " fill-opacity="1" fill-rule="nonzero"/><path fill="#e6684b" d="M 141.023438 48.496094 C 140.660156 46.316406 139.152344 48.097656 138.445312 49.042969 C 137.757812 49.953125 137.199219 50.949219 136.554688 51.886719 L 137.976562 54.824219 C 138.328125 54.609375 138.648438 54.363281 138.910156 54.132812 C 140.464844 52.773438 141.367188 50.5625 141.023438 48.496094 " fill-opacity="1" fill-rule="nonzero"/><path fill="#ff9d87" d="M 138.195312 36.125 C 136.929688 34.671875 135.1875 33.5625 133.261719 33.28125 C 131.4375 33.011719 130.097656 33.539062 129.101562 34.863281 C 128.382812 35.136719 127.6875 35.453125 127.019531 35.84375 C 126.367188 36.230469 125.390625 36.675781 125.175781 37.464844 C 124.953125 38.285156 125.316406 39.441406 125.488281 40.261719 C 125.714844 41.371094 126.023438 42.460938 126.414062 43.527344 C 126.453125 43.640625 126.496094 43.75 126.539062 43.859375 C 126.632812 44.105469 126.726562 44.34375 126.832031 44.578125 C 126.847656 44.617188 126.867188 44.65625 126.878906 44.699219 C 127.039062 45.070312 127.210938 45.4375 127.386719 45.800781 C 127.960938 46.960938 128.628906 48.074219 129.394531 49.121094 C 130.464844 50.59375 131.507812 52.148438 133.414062 53.050781 C 134.664062 53.644531 136.085938 53.695312 137.058594 53.195312 C 138.71875 52.339844 140.15625 49.960938 140.597656 47.871094 C 141.414062 44.003906 140.851562 39.191406 138.195312 36.125 " fill-opacity="1" fill-rule="nonzero"/><path fill="#fad9c0" d="M 140.539062 40.246094 C 140.308594 39.042969 140.007812 37.875 139.308594 36.851562 C 137.972656 34.90625 135.589844 33.546875 133.316406 33.050781 C 132.007812 32.769531 130.828125 33.046875 129.710938 33.5625 C 129.585938 33.53125 129.460938 33.5 129.335938 33.464844 C 129.207031 33.570312 129.085938 33.683594 128.964844 33.792969 C 129.027344 33.808594 129.085938 33.824219 129.148438 33.839844 C 128.910156 33.964844 128.675781 34.101562 128.4375 34.242188 C 128.40625 34.269531 128.375 34.296875 128.34375 34.320312 C 128.296875 34.351562 128.253906 34.371094 128.207031 34.386719 C 127.542969 34.796875 126.886719 35.242188 126.234375 35.644531 C 125.359375 36.179688 124.746094 36.546875 124.683594 37.625 C 124.589844 39.238281 124.785156 40.90625 125.03125 42.496094 C 125.039062 42.546875 125.066406 42.582031 125.097656 42.609375 C 125.113281 42.703125 125.183594 42.785156 125.300781 42.777344 C 126.492188 42.695312 127.621094 42.542969 128.527344 41.695312 C 128.886719 41.355469 129.207031 40.964844 129.496094 40.546875 C 130.453125 40.960938 131.609375 39.859375 132.203125 39.007812 C 133.003906 39.472656 133.816406 39.003906 134.472656 38.371094 C 134.730469 38.667969 135.058594 38.921875 135.410156 39.160156 C 136.503906 39.902344 137.058594 40.507812 137.613281 41.726562 C 138.03125 42.652344 138.625 43.449219 139.289062 44.210938 C 139.496094 44.449219 139.699219 44.699219 139.960938 44.878906 C 140.316406 45.125 141.140625 45.769531 141.140625 45.769531 C 141.140625 45.769531 140.855469 41.886719 140.539062 40.246094 " fill-opacity="1" fill-rule="nonzero"/><path fill="#301c15" d="M 129.949219 46.4375 C 129.792969 46.292969 129.652344 46.128906 129.542969 45.945312 C 129.46875 45.820312 129.402344 45.679688 129.40625 45.53125 C 129.417969 44.738281 130.515625 45.640625 130.695312 45.914062 C 130.773438 46.039062 130.839844 46.179688 130.84375 46.324219 C 130.851562 46.472656 130.78125 46.628906 130.648438 46.691406 C 130.476562 46.777344 130.269531 46.683594 130.113281 46.570312 C 130.058594 46.527344 130.003906 46.484375 129.949219 46.4375 " fill-opacity="1" fill-rule="nonzero"/><path fill="#301c15" d="M 134.734375 44.222656 C 134.570312 44.078125 134.429688 43.90625 134.316406 43.71875 C 134.238281 43.589844 134.171875 43.445312 134.175781 43.292969 C 134.1875 42.476562 135.316406 43.40625 135.5 43.6875 C 135.582031 43.816406 135.652344 43.957031 135.65625 44.109375 C 135.660156 44.261719 135.589844 44.421875 135.453125 44.488281 C 135.273438 44.574219 135.0625 44.476562 134.902344 44.359375 C 134.84375 44.316406 134.789062 44.273438 134.734375 44.222656 " fill-opacity="1" fill-rule="nonzero"/><path fill="#ff9d87" d="M 139.566406 41.273438 C 139.421875 40.332031 138.769531 38.300781 137.441406 38.539062 C 136.519531 38.707031 136.457031 39.753906 136.570312 40.644531 C 136.5 40.6875 136.457031 40.765625 136.5 40.867188 C 136.5625 41.003906 136.621094 41.140625 136.679688 41.277344 C 136.699219 41.375 136.71875 41.460938 136.738281 41.539062 C 136.753906 41.609375 136.796875 41.648438 136.84375 41.664062 C 137.125 42.320312 137.40625 42.984375 137.730469 43.617188 C 137.933594 44.019531 138.273438 44.648438 138.785156 44.71875 C 140.117188 44.890625 139.671875 41.929688 139.566406 41.273438 " fill-opacity="1" fill-rule="nonzero"/><path fill="#e6684b" d="M 136.375 48.394531 C 136.03125 49.535156 134.925781 50.121094 133.777344 49.839844 C 133.523438 49.78125 133.445312 50.179688 133.699219 50.242188 C 135.074219 50.574219 136.367188 49.820312 136.777344 48.472656 C 136.851562 48.222656 136.453125 48.144531 136.375 48.394531 " fill-opacity="1" fill-rule="nonzero"/><path fill="#fad9c0" d="M 134.683594 40.464844 C 134.3125 40.472656 133.941406 40.621094 133.617188 40.78125 C 133.1875 40.988281 132.785156 41.269531 132.503906 41.652344 C 132.386719 41.816406 132.289062 42 132.269531 42.199219 C 132.25 42.398438 132.316406 42.617188 132.476562 42.742188 C 132.625 42.855469 132.828125 42.875 133.011719 42.832031 C 133.195312 42.789062 133.363281 42.695312 133.527344 42.601562 C 134.011719 42.328125 134.496094 42.054688 134.976562 41.777344 C 135.261719 41.617188 135.578125 41.394531 135.574219 41.074219 C 135.570312 40.683594 135.136719 40.496094 134.804688 40.46875 C 134.765625 40.464844 134.722656 40.464844 134.683594 40.464844 " fill-opacity="1" fill-rule="nonzero"/><path fill="#fad9c0" d="M 129.417969 43.449219 C 129.234375 43.371094 129.023438 43.367188 128.828125 43.390625 C 128.351562 43.449219 127.917969 43.671875 127.527344 43.941406 C 127.273438 44.121094 127.015625 44.324219 126.832031 44.578125 C 126.847656 44.617188 126.867188 44.65625 126.878906 44.699219 C 127.039062 45.070312 127.210938 45.4375 127.386719 45.800781 C 127.511719 45.753906 127.628906 45.6875 127.738281 45.621094 C 128.214844 45.328125 128.6875 45.039062 129.160156 44.746094 C 129.320312 44.648438 129.484375 44.550781 129.609375 44.410156 C 129.738281 44.265625 129.820312 44.078125 129.789062 43.894531 C 129.757812 43.691406 129.605469 43.527344 129.417969 43.449219 " fill-opacity="1" fill-rule="nonzero"/><path fill="#e6684b" d="M 134.695312 48.269531 C 134.375 48.335938 134.011719 48.472656 133.6875 48.460938 C 133.132812 48.441406 132.878906 48.09375 132.707031 47.628906 C 132.457031 46.9375 132.273438 46.222656 132.113281 45.507812 C 132.058594 45.253906 131.675781 45.390625 131.730469 45.644531 C 131.921875 46.511719 132.089844 47.6875 132.636719 48.417969 C 133.160156 49.117188 133.992188 48.824219 134.726562 48.675781 C 134.976562 48.625 134.949219 48.21875 134.695312 48.269531 " fill-opacity="1" fill-rule="nonzero"/><path fill="#ebb992" d="M 138.183594 33.476562 C 137.992188 33.300781 137.726562 33.609375 137.917969 33.785156 C 138.816406 34.617188 138.242188 36.082031 136.972656 35.976562 C 136.839844 35.960938 136.722656 36.046875 136.730469 36.191406 C 136.792969 37.257812 136.027344 38.054688 134.945312 37.976562 C 134.6875 37.960938 134.605469 38.359375 134.867188 38.378906 C 136.128906 38.46875 137.101562 37.613281 137.136719 36.378906 C 138.644531 36.324219 139.367188 34.570312 138.183594 33.476562 " fill-opacity="1" fill-rule="nonzero"/><path fill="#ebb992" d="M 125.703125 42.738281 C 124.019531 42.457031 124.234375 40.511719 124.980469 39.453125 C 125.128906 39.238281 124.824219 38.972656 124.671875 39.1875 C 123.753906 40.492188 123.621094 42.804688 125.625 43.136719 C 125.882812 43.179688 125.960938 42.78125 125.703125 42.738281 " fill-opacity="1" fill-rule="nonzero"/><path fill="#ebb992" d="M 126.507812 39.75 C 125.9375 39.234375 125.8125 38.472656 126.175781 37.796875 C 126.296875 37.566406 125.933594 37.386719 125.808594 37.621094 C 125.363281 38.457031 125.539062 39.421875 126.242188 40.058594 C 126.4375 40.234375 126.703125 39.925781 126.507812 39.75 " fill-opacity="1" fill-rule="nonzero"/><path fill="#ffffff" d="M 137.976562 54.824219 C 137.976562 54.824219 139.328125 54.902344 141.140625 54.289062 C 142.957031 53.679688 144.246094 51.660156 144.246094 51.660156 C 144.246094 51.660156 145.464844 59.453125 144.652344 60.300781 C 143.839844 61.148438 137.976562 54.824219 137.976562 54.824219 " fill-opacity="1" fill-rule="nonzero"/><path fill="#e6d6cc" d="M 137.457031 76.300781 C 137.222656 74.660156 136.917969 73.027344 136.585938 71.402344 C 135.996094 68.5625 135.230469 65.707031 133.832031 63.140625 C 133.15625 61.898438 132.273438 60.441406 131.140625 59.554688 C 130.871094 59.351562 130.488281 59.105469 130.136719 59.179688 C 129.671875 59.285156 129.097656 59.800781 128.632812 60.234375 C 128.574219 60.203125 128.496094 60.210938 128.433594 60.28125 C 126.292969 62.785156 125.496094 66.398438 124.546875 69.472656 C 123.582031 72.59375 122.714844 75.753906 121.945312 78.929688 C 121.917969 79.058594 121.886719 79.183594 121.855469 79.308594 C 121.75 79.753906 121.644531 80.203125 121.542969 80.648438 C 121.507812 80.800781 121.640625 80.9375 121.792969 80.898438 C 123.761719 80.414062 129.726562 82.28125 131.230469 82.230469 C 131.480469 82.222656 131.734375 82.222656 131.980469 82.230469 C 132.632812 82.25 133.277344 82.328125 133.933594 82.472656 C 134.261719 82.542969 134.609375 82.648438 134.964844 82.730469 C 135.359375 82.816406 135.757812 82.871094 136.140625 82.816406 C 137.21875 82.648438 137.574219 81.496094 137.695312 80.558594 C 137.878906 79.15625 137.65625 77.691406 137.457031 76.300781 " fill-opacity="1" fill-rule="nonzero"/><path fill="#ff9d87" d="M 132.03125 97.144531 C 132.070312 96.992188 132.105469 96.835938 132.136719 96.695312 C 132.269531 96.097656 131.894531 95.433594 131.644531 94.917969 C 130.757812 93.050781 128.273438 92.402344 127.175781 94.496094 C 126.726562 94.996094 126.25 95.484375 125.984375 96.121094 C 125.652344 96.925781 126.308594 97.84375 126.816406 98.4375 C 127.320312 99.03125 128.191406 99.335938 128.949219 99.375 C 129.96875 99.425781 130.683594 98.808594 131.445312 98.210938 C 131.761719 97.960938 131.925781 97.546875 132.03125 97.144531 " fill-opacity="1" fill-rule="nonzero"/><path fill="#e6684b" d="M 131.765625 97.410156 C 131.3125 96.195312 130.664062 95.097656 129.816406 94.121094 C 129.644531 93.921875 129.359375 94.210938 129.53125 94.40625 C 130.332031 95.332031 130.945312 96.367188 131.371094 97.519531 C 131.464844 97.761719 131.855469 97.65625 131.765625 97.410156 " fill-opacity="1" fill-rule="nonzero"/><path fill="#e6684b" d="M 130.628906 98.53125 C 130.035156 97.328125 129.339844 96.191406 128.542969 95.117188 C 128.386719 94.910156 128.03125 95.113281 128.191406 95.320312 C 128.988281 96.398438 129.683594 97.535156 130.277344 98.734375 C 130.394531 98.96875 130.742188 98.765625 130.628906 98.53125 " fill-opacity="1" fill-rule="nonzero"/><path fill="#e6684b" d="M 129.308594 98.753906 C 128.664062 98.027344 128.105469 97.238281 127.632812 96.386719 C 127.507812 96.15625 127.15625 96.363281 127.285156 96.59375 C 127.773438 97.472656 128.351562 98.289062 129.023438 99.042969 C 129.195312 99.238281 129.484375 98.949219 129.308594 98.753906 " fill-opacity="1" fill-rule="nonzero"/><path fill="#ff9d87" d="M 128.296875 90.257812 C 127.910156 89.363281 127.457031 88.472656 126.859375 87.695312 C 126.003906 86.582031 124.765625 85.847656 123.328125 86.207031 C 121.109375 86.761719 120.722656 89.386719 121.480469 91.25 C 121.929688 92.351562 122.644531 93.304688 123.484375 94.144531 C 124.214844 93.289062 125.28125 92.691406 126.386719 92.378906 C 127.257812 92.132812 128.15625 92.027344 129.058594 91.960938 C 128.824219 91.355469 128.503906 90.738281 128.296875 90.257812 " fill-opacity="1" fill-rule="nonzero"/><path fill="#e6684b" d="M 127.367188 88.539062 C 127.113281 87.347656 125.953125 86.871094 124.917969 86.523438 C 124.667969 86.4375 124.5625 86.832031 124.808594 86.914062 C 125.710938 87.21875 126.75 87.605469 126.976562 88.644531 C 127.03125 88.902344 127.425781 88.792969 127.367188 88.539062 " fill-opacity="1" fill-rule="nonzero"/><path fill="#ff9d87" d="M 168.3125 71.695312 C 168.3125 71.695312 173.746094 71.261719 176.714844 70.851562 C 179.6875 70.445312 181.761719 71.859375 182.292969 73.007812 C 182.824219 74.15625 182.785156 76.324219 179.746094 77.09375 C 176.707031 77.859375 166.710938 75.1875 166.710938 75.1875 L 168.3125 71.695312 " fill-opacity="1" fill-rule="nonzero"/><path fill="#e6684b" d="M 177.421875 70.9375 C 175.945312 70.808594 174.492188 70.902344 173.042969 71.210938 C 172.789062 71.265625 172.898438 71.660156 173.152344 71.605469 C 174.566406 71.300781 175.984375 71.21875 177.421875 71.347656 C 177.679688 71.367188 177.679688 70.960938 177.421875 70.9375 " fill-opacity="1" fill-rule="nonzero"/><path fill="#ff9d87" d="M 163.703125 68.53125 C 162.632812 68.023438 161.542969 67.484375 160.339844 67.792969 C 160.296875 67.804688 160.253906 67.835938 160.222656 67.871094 C 160.035156 67.964844 159.925781 68.136719 159.921875 68.351562 C 159.605469 68.285156 159.253906 68.335938 159.050781 68.601562 C 158.898438 68.796875 158.875 69.078125 158.894531 69.355469 C 158.546875 69.726562 158.363281 70.203125 158.507812 70.773438 C 158.75 71.734375 159.582031 72.328125 160.402344 72.78125 C 161.59375 73.4375 162.800781 74.074219 163.976562 74.753906 C 164.609375 75.121094 166.25 75.28125 166.988281 75.160156 C 169.125 74.804688 168.917969 74.828125 169.519531 73.492188 C 170.042969 72.328125 165.085938 69.1875 163.703125 68.53125 " fill-opacity="1" fill-rule="nonzero"/><path fill="#e6684b" d="M 163.710938 69.523438 C 162.714844 68.945312 161.652344 68.503906 160.539062 68.203125 C 160.285156 68.132812 160.1875 68.527344 160.441406 68.597656 C 161.519531 68.890625 162.546875 69.316406 163.515625 69.878906 C 163.742188 70.011719 163.9375 69.652344 163.710938 69.523438 " fill-opacity="1" fill-rule="nonzero"/><path fill="#e6684b" d="M 162.734375 70.648438 C 161.769531 69.804688 160.527344 69.523438 159.3125 69.226562 C 159.058594 69.164062 158.960938 69.558594 159.214844 69.621094 C 160.355469 69.898438 161.542969 70.152344 162.453125 70.941406 C 162.652344 71.113281 162.933594 70.820312 162.734375 70.648438 " fill-opacity="1" fill-rule="nonzero"/><path fill="#e6684b" d="M 162.851562 72.078125 C 161.753906 71.464844 160.617188 70.644531 159.359375 70.410156 C 159.105469 70.359375 159.003906 70.757812 159.261719 70.804688 C 160.476562 71.035156 161.589844 71.84375 162.65625 72.4375 C 162.882812 72.566406 163.082031 72.207031 162.851562 72.078125 " fill-opacity="1" fill-rule="nonzero"/><path fill="#ba5e29" d="M 157.839844 116.769531 L 157.839844 116.90625 C 157.703125 117.222656 157.597656 117.488281 157.535156 117.707031 C 157.117188 119.125 156.429688 120.363281 155.71875 121.644531 C 155.640625 120.367188 155.441406 118.738281 154.992188 116.769531 C 153.839844 111.675781 154.179688 108.621094 155.277344 109.707031 C 156.375 110.792969 157.839844 116.769531 157.839844 116.769531 " fill-opacity="1" fill-rule="nonzero"/><path fill="#ba5e29" d="M 155.179688 122.652344 C 155.09375 122.828125 155.015625 123.007812 154.949219 123.183594 C 154.257812 121.355469 153.222656 119.601562 152.308594 117.957031 C 152.179688 117.730469 152.53125 117.523438 152.660156 117.75 C 153.519531 119.296875 154.484375 120.941406 155.179688 122.652344 " fill-opacity="1" fill-rule="nonzero"/><path fill="#ffffff" d="M 134.371094 72.285156 C 134.582031 72.089844 141.046875 70.054688 141.222656 70.238281 C 141.398438 70.417969 142.496094 74.152344 142.5 74.398438 C 142.507812 74.648438 135.855469 76.769531 135.730469 76.578125 C 135.601562 76.382812 134.160156 72.480469 134.371094 72.285156 " fill-opacity="1" fill-rule="nonzero"/><path fill="#c9ae9d" d="M 134.964844 82.730469 C 134.609375 82.648438 134.261719 82.542969 133.933594 82.472656 C 133.277344 82.328125 132.632812 82.25 131.980469 82.230469 C 131.917969 81.804688 131.851562 81.375 131.789062 80.949219 C 130.128906 80.222656 128.011719 80.101562 126.367188 79.839844 C 125.058594 79.632812 123.746094 79.480469 122.429688 79.367188 C 122.234375 79.351562 122.042969 79.335938 121.855469 79.308594 C 121.886719 79.183594 121.917969 79.058594 121.945312 78.929688 C 122.660156 79.023438 123.398438 79.039062 124.101562 79.117188 C 125.28125 79.253906 126.457031 79.4375 127.628906 79.640625 C 128.949219 79.867188 130.425781 80.007812 131.71875 80.496094 C 131.578125 79.566406 131.417969 78.640625 131.234375 77.722656 C 130.953125 76.320312 130.59375 74.9375 130.128906 73.585938 C 129.722656 72.414062 129.28125 71.304688 129.441406 70.042969 C 129.464844 69.832031 129.777344 69.75 129.839844 69.992188 C 130.429688 72.375 131.808594 74.421875 132.828125 76.625 C 133.742188 78.589844 134.449219 80.628906 134.964844 82.730469 " fill-opacity="1" fill-rule="nonzero"/><path fill="#c9ae9d" d="M 129.035156 69.75 C 128.40625 68.390625 127.78125 67.027344 127.15625 65.667969 C 127.046875 65.429688 126.695312 65.636719 126.804688 65.875 C 127.429688 67.234375 128.054688 68.597656 128.683594 69.957031 C 128.792969 70.195312 129.144531 69.988281 129.035156 69.75 " fill-opacity="1" fill-rule="nonzero"/><path fill="#c9ae9d" d="M 147.105469 60.335938 C 147.019531 61.195312 146.800781 62.316406 146.035156 62.839844 C 145.207031 63.398438 143.925781 62.984375 143.105469 62.648438 C 141.964844 62.183594 140.972656 61.421875 140.085938 60.578125 C 138.289062 58.875 136.746094 56.839844 135.382812 54.746094 C 135.503906 54.675781 135.621094 54.601562 135.738281 54.53125 C 136.882812 56.273438 138.148438 57.9375 139.558594 59.460938 C 140.367188 60.332031 141.242188 61.152344 142.261719 61.769531 C 143.375 62.4375 145.292969 63.296875 146.234375 61.996094 C 147.007812 60.925781 146.757812 59.003906 146.726562 57.753906 C 146.691406 56.429688 146.621094 55.105469 146.511719 53.785156 C 146.40625 52.519531 146.265625 51.257812 146.085938 50 C 146.214844 49.972656 146.351562 49.945312 146.480469 49.914062 C 146.738281 51.722656 146.921875 53.546875 147.03125 55.371094 C 147.128906 57.003906 147.273438 58.703125 147.105469 60.335938 " fill-opacity="1" fill-rule="nonzero"/><path fill="#e6684b" d="M 44.3125 123.242188 C 42.910156 124.28125 41.304688 125.40625 41.136719 125.257812 C 40.832031 124.988281 42.089844 122.648438 42.089844 122.648438 L 44.3125 123.242188 " fill-opacity="1" fill-rule="nonzero"/></svg>