<svg xmlns="http://www.w3.org/2000/svg" xmlns:xlink="http://www.w3.org/1999/xlink" width="260" zoomAndPan="magnify" viewBox="0 0 194.87999 172.499995" height="230" preserveAspectRatio="xMidYMid meet" version="1.0"><defs><clipPath id="031eb8a270"><path d="M 0.222656 0 L 194.539062 0 L 194.539062 172 L 0.222656 172 Z M 0.222656 0 " clip-rule="nonzero"/></clipPath><clipPath id="d6a58d6f63"><path d="M 136.066406 158.414062 L 142.683594 158.414062 L 142.683594 166.519531 L 136.066406 166.519531 Z M 136.066406 158.414062 " clip-rule="nonzero"/></clipPath><clipPath id="4c81bf7e01"><path d="M 93 5.734375 L 112 5.734375 L 112 23 L 93 23 Z M 93 5.734375 " clip-rule="nonzero"/></clipPath><clipPath id="5bc1effcb4"><path d="M 0.222656 92 L 75 92 L 75 102 L 0.222656 102 Z M 0.222656 92 " clip-rule="nonzero"/></clipPath><clipPath id="55f4acedb1"><path d="M 117 92 L 194.539062 92 L 194.539062 102 L 117 102 Z M 117 92 " clip-rule="nonzero"/></clipPath><clipPath id="b128470d53"><path d="M 11 102 L 18 102 L 18 166.519531 L 11 166.519531 Z M 11 102 " clip-rule="nonzero"/></clipPath><clipPath id="d522f95863"><path d="M 176 102 L 182 102 L 182 166.519531 L 176 166.519531 Z M 176 102 " clip-rule="nonzero"/></clipPath></defs><g clip-path="url(#031eb8a270)"><path fill="#ffffff" d="M 0.222656 0 L 194.65625 0 L 194.65625 889.921875 L 0.222656 889.921875 Z M 0.222656 0 " fill-opacity="1" fill-rule="nonzero"/><path fill="#ffffff" d="M 0.222656 0 L 194.65625 0 L 194.65625 172 L 0.222656 172 Z M 0.222656 0 " fill-opacity="1" fill-rule="nonzero"/><path fill="#ffffff" d="M 0.222656 0 L 194.65625 0 L 194.65625 172 L 0.222656 172 Z M 0.222656 0 " fill-opacity="1" fill-rule="nonzero"/></g><path fill="#fcf7f7" d="M 178.097656 111.574219 C 176.539062 101.929688 174.65625 92.191406 170.941406 83.183594 C 167.863281 75.714844 163.511719 68.867188 159.253906 62.039062 C 154.9375 55.121094 150.339844 48.222656 144.296875 42.683594 C 129.761719 29.359375 109.746094 32.832031 91.933594 34.734375 C 81.273438 35.875 70.253906 36.300781 60.492188 40.746094 C 43.480469 48.492188 33.992188 66.515625 25.730469 83.308594 C 21.757812 91.382812 17.761719 99.523438 15.421875 108.214844 C 11.839844 121.511719 12.316406 135.871094 16.777344 148.898438 C 17.859375 152.058594 19.25 155.253906 21.765625 157.445312 C 25.875 161.019531 31.871094 160.757812 37.308594 160.949219 C 61.335938 161.78125 85.46875 161.183594 109.5 160.921875 C 118.949219 160.820312 128.402344 160.699219 137.851562 160.511719 C 151.148438 160.25 167.273438 159.890625 175.371094 147.371094 C 181.179688 138.386719 180.472656 126.71875 178.894531 116.605469 C 178.632812 114.933594 178.371094 113.257812 178.097656 111.574219 " fill-opacity="1" fill-rule="nonzero"/><path fill="#789592" d="M 154.863281 141.972656 C 154.714844 140.121094 153.199219 138.425781 151.347656 138.152344 C 148.460938 137.722656 145.679688 139.242188 147.136719 143.691406 C 147.628906 145.191406 148.636719 145.34375 149.675781 145.703125 C 150.714844 146.066406 151.898438 146.027344 152.882812 145.535156 C 153.519531 145.21875 154.066406 144.71875 154.414062 144.097656 C 154.699219 143.585938 154.851562 143.007812 154.875 142.421875 C 154.878906 142.273438 154.878906 142.121094 154.863281 141.972656 " fill-opacity="1" fill-rule="nonzero"/><path fill="#789592" d="M 150.34375 138.113281 C 150.34375 138.113281 165.253906 137.453125 166.5625 138.113281 C 167.867188 138.777344 168.71875 139.976562 168.589844 142.03125 C 168.457031 144.082031 169.699219 145.066406 166.234375 145.066406 C 162.769531 145.066406 152.4375 145.066406 152.4375 145.066406 L 150.34375 138.113281 " fill-opacity="1" fill-rule="nonzero"/><path fill="#547672" d="M 149.660156 144.917969 C 149.292969 144.917969 148.882812 144.753906 148.507812 144.4375 C 147.503906 143.601562 147.167969 141.390625 147.648438 140.347656 C 147.945312 139.699219 148.644531 139.089844 149.386719 138.824219 C 149.878906 138.648438 150.335938 138.652344 150.699219 138.832031 C 151.613281 139.28125 152.105469 140.847656 152.015625 143.023438 C 151.972656 144.070312 152.65625 144.390625 152.683594 144.402344 C 152.785156 144.445312 152.828125 144.5625 152.785156 144.660156 C 152.742188 144.761719 152.628906 144.808594 152.53125 144.761719 C 152.492188 144.746094 151.566406 144.335938 151.621094 143.007812 C 151.703125 141.023438 151.285156 139.558594 150.523438 139.183594 C 150.1875 139.015625 149.789062 139.097656 149.519531 139.195312 C 148.878906 139.421875 148.257812 139.964844 148.003906 140.515625 C 147.589844 141.40625 147.914062 143.429688 148.761719 144.136719 C 149.1875 144.492188 149.667969 144.617188 149.980469 144.449219 C 150.359375 144.246094 150.519531 143.648438 150.429688 142.765625 C 150.335938 141.824219 150.140625 141.257812 149.859375 141.078125 C 149.667969 140.957031 149.425781 141.003906 149.070312 141.128906 C 148.960938 141.167969 148.894531 141.230469 148.859375 141.328125 C 148.734375 141.664062 149.027344 142.296875 149.140625 142.492188 C 149.195312 142.585938 149.164062 142.707031 149.070312 142.761719 C 148.976562 142.816406 148.859375 142.785156 148.804688 142.6875 C 148.75 142.597656 148.28125 141.761719 148.492188 141.191406 C 148.566406 140.984375 148.722656 140.835938 148.941406 140.757812 C 149.316406 140.628906 149.710938 140.515625 150.070312 140.746094 C 150.46875 141 150.707031 141.628906 150.820312 142.726562 C 150.957031 144.074219 150.539062 144.597656 150.164062 144.796875 C 150.011719 144.878906 149.839844 144.917969 149.660156 144.917969 " fill-opacity="1" fill-rule="nonzero"/><path fill="#f2e4e4" d="M 159.59375 142.535156 C 159.445312 140.679688 157.925781 138.988281 156.074219 138.714844 C 153.1875 138.285156 150.9375 140.082031 151.863281 144.25 C 152.105469 145.324219 153.367188 145.90625 154.40625 146.265625 C 155.441406 146.625 156.628906 146.589844 157.613281 146.097656 C 158.246094 145.78125 158.792969 145.277344 159.140625 144.660156 C 159.429688 144.148438 159.578125 143.566406 159.601562 142.980469 C 159.609375 142.832031 159.605469 142.683594 159.59375 142.535156 " fill-opacity="1" fill-rule="nonzero"/><path fill="#f2e4e4" d="M 155.070312 138.675781 C 155.070312 138.675781 169.980469 138.011719 171.289062 138.675781 C 172.59375 139.339844 173.445312 140.535156 173.316406 142.589844 C 173.183594 144.644531 174.425781 145.625 170.960938 145.625 C 167.496094 145.625 157.164062 145.625 157.164062 145.625 L 155.070312 138.675781 " fill-opacity="1" fill-rule="nonzero"/><path fill="#e0c8c8" d="M 154.277344 145.386719 C 153.914062 145.386719 153.542969 145.253906 153.238281 145 C 152.234375 144.164062 151.894531 141.953125 152.375 140.910156 C 152.671875 140.261719 153.371094 139.652344 154.113281 139.386719 C 154.609375 139.210938 155.0625 139.214844 155.425781 139.390625 C 156.132812 139.738281 156.308594 140.976562 156.484375 142.171875 C 156.558594 142.683594 156.628906 143.167969 156.734375 143.519531 C 157.058594 144.597656 157.464844 144.996094 157.46875 145 C 157.546875 145.074219 157.550781 145.199219 157.476562 145.277344 C 157.402344 145.355469 157.28125 145.359375 157.203125 145.289062 C 157.183594 145.269531 156.71875 144.828125 156.359375 143.632812 C 156.242188 143.253906 156.171875 142.753906 156.09375 142.226562 C 155.949219 141.234375 155.773438 140 155.253906 139.746094 C 154.917969 139.578125 154.519531 139.660156 154.246094 139.757812 C 153.605469 139.984375 152.984375 140.527344 152.730469 141.074219 C 152.320312 141.96875 152.640625 143.992188 153.488281 144.699219 C 153.871094 145.015625 154.378906 145.085938 154.78125 144.871094 C 155.316406 144.585938 155.566406 143.886719 155.472656 142.953125 C 155.367188 141.925781 155.066406 141.238281 154.667969 141.113281 C 154.464844 141.050781 154.242188 141.144531 154.050781 141.367188 C 153.660156 141.828125 154.148438 143.054688 154.371094 143.488281 C 154.417969 143.582031 154.382812 143.703125 154.285156 143.753906 C 154.1875 143.800781 154.070312 143.761719 154.019531 143.667969 C 153.925781 143.484375 153.121094 141.851562 153.75 141.109375 C 154.042969 140.769531 154.429688 140.628906 154.785156 140.738281 C 155.113281 140.839844 155.695312 141.261719 155.863281 142.914062 C 155.972656 144.015625 155.644531 144.855469 154.964844 145.21875 C 154.75 145.332031 154.515625 145.386719 154.277344 145.386719 " fill-opacity="1" fill-rule="nonzero"/><path fill="#d75e4f" d="M 86.441406 140.386719 C 86.40625 139.972656 86.449219 139.542969 86.460938 139.128906 C 86.484375 138.328125 86.71875 137.824219 87.085938 137.128906 C 87.398438 136.539062 87.457031 136.050781 87.441406 135.386719 C 87.421875 134.503906 86.914062 134.277344 86.554688 133.511719 C 86.28125 132.929688 86.285156 132.121094 86.5 131.523438 C 86.605469 131.230469 86.730469 131.09375 86.777344 130.773438 C 86.863281 130.175781 86.773438 129.46875 86.570312 128.902344 C 85.816406 126.785156 82.589844 127.554688 80.894531 127.585938 C 75.511719 127.683594 70.132812 127.792969 64.75 127.902344 C 62.066406 127.957031 59.351562 127.890625 56.675781 128.070312 C 55.191406 128.167969 52.832031 128.578125 52.714844 130.46875 C 52.671875 131.140625 52.640625 132.121094 52.855469 132.761719 C 52.921875 132.960938 53.039062 133.066406 53.136719 133.253906 C 53.554688 134.042969 53.246094 134.960938 53.203125 135.796875 C 53.144531 136.976562 53.335938 138.164062 53.761719 139.265625 C 53.917969 139.664062 54.105469 140.070312 54.082031 140.5 C 54.003906 142 51.632812 142.921875 52.804688 144.554688 C 53.632812 145.707031 55.785156 145.722656 57.035156 145.699219 C 57.074219 145.699219 57.101562 145.6875 57.128906 145.671875 C 57.15625 145.6875 57.1875 145.699219 57.230469 145.699219 C 58.972656 145.65625 60.707031 145.894531 62.453125 145.894531 C 64.585938 145.894531 66.710938 145.917969 68.839844 145.988281 C 69.960938 146.023438 71.082031 145.902344 72.199219 146.039062 C 73.085938 146.144531 74 146.257812 74.894531 146.304688 C 76.828125 146.410156 78.785156 146.207031 80.726562 146.292969 C 82.390625 146.367188 84.363281 146.816406 85.945312 146.058594 C 86.339844 145.871094 86.90625 145.539062 87.085938 145.109375 C 87.371094 144.4375 87.015625 143.445312 86.953125 142.753906 C 86.878906 141.941406 86.511719 141.199219 86.441406 140.386719 " fill-opacity="1" fill-rule="nonzero"/><path fill="#c04939" d="M 53.847656 133.15625 C 53.808594 133.15625 53.769531 133.144531 53.734375 133.121094 C 53.644531 133.058594 53.625 132.9375 53.6875 132.847656 C 53.738281 132.773438 55.023438 131.011719 59.4375 131.011719 C 61.105469 131.011719 62.074219 131.046875 62.929688 131.078125 C 64.289062 131.128906 65.269531 131.164062 68.207031 131.011719 C 70.902344 130.875 72.523438 130.589844 73.949219 130.339844 C 75.03125 130.148438 76.054688 129.96875 77.375 129.882812 C 80.402344 129.6875 85.558594 130.515625 85.609375 130.523438 C 85.714844 130.539062 85.789062 130.640625 85.773438 130.75 C 85.753906 130.855469 85.65625 130.933594 85.546875 130.910156 C 85.496094 130.902344 80.382812 130.082031 77.398438 130.273438 C 76.101562 130.359375 75.089844 130.535156 74.015625 130.726562 C 72.578125 130.976562 70.949219 131.265625 68.226562 131.40625 C 65.273438 131.558594 64.285156 131.523438 62.914062 131.472656 C 62.0625 131.441406 61.097656 131.40625 59.4375 131.40625 C 55.25 131.40625 54.019531 133.058594 54.007812 133.074219 C 53.96875 133.128906 53.90625 133.15625 53.847656 133.15625 " fill-opacity="1" fill-rule="nonzero"/><path fill="#c04939" d="M 81.738281 136.8125 C 80.1875 136.8125 76.894531 136.785156 73.894531 136.597656 C 70.894531 136.40625 69.25 136.371094 67.167969 136.328125 C 66.402344 136.3125 65.585938 136.292969 64.632812 136.269531 C 63.308594 136.230469 61.738281 136.332031 60.222656 136.433594 C 57.644531 136.601562 55.207031 136.761719 54.0625 136.25 C 53.917969 136.1875 53.539062 136.019531 53.597656 135.722656 C 53.667969 135.367188 54.246094 135.007812 60.277344 134.894531 C 61.246094 134.875 62.550781 134.691406 64.0625 134.480469 C 66.570312 134.125 69.683594 133.6875 72.738281 133.8125 C 75.414062 133.921875 78.796875 134.121094 81.261719 134.265625 C 83.078125 134.375 84.644531 134.460938 84.800781 134.453125 C 84.902344 134.425781 85 134.488281 85.027344 134.59375 C 85.058594 134.699219 84.984375 134.808594 84.878906 134.835938 C 84.78125 134.863281 84.304688 134.839844 81.238281 134.660156 C 78.773438 134.511719 75.398438 134.3125 72.722656 134.207031 C 69.707031 134.082031 66.609375 134.519531 64.117188 134.867188 C 62.59375 135.082031 61.277344 135.265625 60.285156 135.285156 C 55.546875 135.375 54.304688 135.621094 54.023438 135.785156 C 54.058594 135.8125 54.121094 135.847656 54.222656 135.894531 C 55.277344 136.363281 57.667969 136.207031 60.195312 136.042969 C 61.722656 135.941406 63.304688 135.839844 64.640625 135.875 C 65.597656 135.902344 66.414062 135.917969 67.175781 135.933594 C 69.261719 135.980469 70.910156 136.011719 73.917969 136.203125 C 77.984375 136.460938 82.589844 136.417969 82.632812 136.417969 C 82.632812 136.417969 82.636719 136.417969 82.636719 136.417969 C 82.742188 136.417969 82.832031 136.503906 82.832031 136.609375 C 82.832031 136.71875 82.746094 136.808594 82.636719 136.808594 C 82.625 136.808594 82.292969 136.8125 81.738281 136.8125 " fill-opacity="1" fill-rule="nonzero"/><path fill="#c04939" d="M 60.75 142.027344 C 56.617188 142.027344 54.886719 140.804688 54.808594 140.75 C 54.722656 140.6875 54.703125 140.5625 54.765625 140.476562 C 54.828125 140.386719 54.953125 140.367188 55.039062 140.433594 C 55.058594 140.445312 56.953125 141.765625 61.433594 141.621094 C 63.589844 141.554688 65.03125 141.355469 66.191406 141.195312 C 67.519531 141.015625 68.566406 140.871094 69.980469 141.015625 L 70.347656 141.050781 C 72.820312 141.304688 74.960938 141.519531 76.34375 141.425781 C 76.449219 141.421875 76.546875 141.5 76.554688 141.609375 C 76.5625 141.71875 76.480469 141.8125 76.371094 141.820312 C 74.953125 141.914062 72.800781 141.695312 70.304688 141.445312 L 69.941406 141.40625 C 68.574219 141.269531 67.597656 141.402344 66.242188 141.585938 C 65.074219 141.746094 63.621094 141.945312 61.445312 142.015625 C 61.207031 142.023438 60.972656 142.027344 60.75 142.027344 " fill-opacity="1" fill-rule="nonzero"/><path fill="#c04939" d="M 78.65625 143.578125 C 78.203125 143.578125 77.730469 143.566406 77.230469 143.539062 C 73.285156 143.332031 70.9375 143.492188 70.054688 143.554688 C 69.894531 143.566406 69.78125 143.574219 69.71875 143.574219 C 69.609375 143.558594 69.519531 143.492188 69.515625 143.386719 C 69.511719 143.277344 69.597656 143.1875 69.707031 143.183594 C 69.769531 143.183594 69.875 143.175781 70.027344 143.164062 C 70.917969 143.101562 73.28125 142.9375 77.25 143.144531 C 81.136719 143.347656 83.464844 142.664062 84.226562 142.4375 C 84.417969 142.378906 84.488281 142.359375 84.546875 142.359375 C 84.65625 142.359375 84.746094 142.449219 84.746094 142.554688 C 84.746094 142.660156 84.660156 142.746094 84.558594 142.753906 C 84.519531 142.757812 84.449219 142.78125 84.339844 142.8125 C 83.65625 143.015625 81.757812 143.578125 78.65625 143.578125 " fill-opacity="1" fill-rule="nonzero"/><path fill="#6f8bb3" d="M 80.339844 122.191406 C 80.339844 122.191406 81.613281 120.667969 81.027344 120.273438 C 80.4375 119.878906 80.496094 118.703125 80.761719 117.914062 C 81.027344 117.128906 79.847656 116.835938 75.582031 117.277344 C 71.316406 117.71875 68.128906 118.164062 65.085938 117.964844 C 62.046875 117.769531 58.859375 117.425781 58.171875 117.621094 C 57.484375 117.816406 57.925781 119.339844 57.925781 119.878906 C 57.925781 120.421875 57.191406 121.601562 58.269531 122.191406 C 59.347656 122.777344 80.339844 122.191406 80.339844 122.191406 " fill-opacity="1" fill-rule="nonzero"/><path fill="#f7ddba" d="M 82.792969 127.542969 C 82.792969 127.542969 82.007812 125.824219 82.398438 124.546875 C 82.792969 123.269531 82.832031 122.03125 81.253906 121.699219 C 78.441406 121.109375 77.886719 121.648438 73.867188 121.796875 C 69.84375 121.945312 60.574219 121.503906 58.859375 121.648438 C 57.140625 121.796875 56.699219 121.355469 56.652344 122.878906 C 56.601562 124.398438 56.671875 125.078125 56.652344 125.824219 C 56.589844 127.984375 57.042969 128.144531 60.722656 128.488281 C 64.402344 128.832031 82.792969 127.542969 82.792969 127.542969 " fill-opacity="1" fill-rule="nonzero"/><path fill="#3b5d8d" d="M 74.03125 120.617188 C 73.984375 120.617188 73.941406 120.617188 73.894531 120.617188 C 72.460938 120.601562 71.105469 120.390625 69.667969 120.171875 C 68.355469 119.96875 66.996094 119.761719 65.417969 119.667969 C 62.144531 119.476562 59.148438 119.949219 59.117188 119.957031 C 59.011719 119.972656 58.910156 119.898438 58.894531 119.792969 C 58.875 119.6875 58.949219 119.585938 59.054688 119.566406 C 59.085938 119.5625 62.121094 119.078125 65.441406 119.273438 C 67.039062 119.371094 68.40625 119.578125 69.726562 119.78125 C 71.148438 120 72.492188 120.207031 73.902344 120.226562 C 76.5625 120.257812 79.988281 119.292969 80.023438 119.28125 C 80.128906 119.253906 80.238281 119.3125 80.265625 119.417969 C 80.296875 119.523438 80.234375 119.632812 80.132812 119.660156 C 80.097656 119.671875 76.71875 120.617188 74.03125 120.617188 " fill-opacity="1" fill-rule="nonzero"/><path fill="#edc590" d="M 59.957031 126.199219 C 58.398438 126.199219 57.941406 126.144531 57.761719 125.878906 C 57.621094 125.671875 57.722656 125.425781 57.824219 125.164062 C 57.953125 124.847656 57.84375 124.667969 57.734375 124.480469 C 57.617188 124.285156 57.425781 123.964844 57.902344 123.664062 C 58.289062 123.425781 60.320312 123.449219 64.867188 123.570312 C 67.101562 123.628906 69.417969 123.6875 71.117188 123.664062 C 75.351562 123.597656 81.488281 123.664062 81.550781 123.664062 C 81.660156 123.664062 81.746094 123.753906 81.746094 123.863281 C 81.746094 123.96875 81.65625 124.054688 81.550781 124.054688 C 81.546875 124.054688 81.546875 124.054688 81.546875 124.054688 C 81.484375 124.054688 75.355469 123.992188 71.121094 124.054688 C 69.410156 124.082031 67.097656 124.023438 64.859375 123.964844 C 61.859375 123.882812 58.460938 123.796875 58.113281 123.996094 C 57.960938 124.09375 57.960938 124.09375 58.070312 124.277344 C 58.195312 124.492188 58.386719 124.8125 58.191406 125.308594 C 58.148438 125.414062 58.070312 125.613281 58.085938 125.660156 C 58.195312 125.820312 59.449219 125.8125 61.53125 125.796875 L 61.996094 125.792969 C 63.929688 125.777344 66.417969 125.597656 68.820312 125.425781 C 71.742188 125.214844 74.496094 125.011719 76.195312 125.105469 C 79.253906 125.265625 81.34375 125.042969 81.363281 125.039062 C 81.472656 125.027344 81.570312 125.105469 81.582031 125.214844 C 81.59375 125.320312 81.515625 125.417969 81.40625 125.429688 C 81.386719 125.433594 79.261719 125.660156 76.175781 125.496094 C 74.503906 125.410156 71.757812 125.605469 68.851562 125.816406 C 66.4375 125.992188 63.945312 126.167969 62 126.183594 L 61.535156 126.1875 C 60.910156 126.191406 60.390625 126.199219 59.957031 126.199219 " fill-opacity="1" fill-rule="nonzero"/><path fill="#ff9f8f" d="M 105.195312 158.46875 L 106.96875 162.300781 L 109.574219 158.382812 L 110.511719 151.226562 L 104.917969 149.976562 L 105.195312 158.46875 " fill-opacity="1" fill-rule="nonzero"/><path fill="#cbd4e6" d="M 103.597656 76.375 C 103.597656 76.375 102.621094 89.539062 103.171875 104.460938 C 103.34375 109.117188 103.394531 113.777344 103.441406 118.4375 C 103.496094 123.835938 103.519531 129.234375 103.558594 134.636719 C 103.589844 139.105469 103.609375 143.574219 103.71875 148.042969 C 103.742188 149.113281 103.773438 150.1875 103.828125 151.257812 C 103.847656 151.730469 103.753906 153.390625 104.21875 153.589844 C 104.386719 153.664062 104.574219 153.65625 104.757812 153.652344 C 108.285156 153.546875 111.988281 153.929688 112.5625 153.234375 C 113.136719 152.535156 114.84375 147.386719 114.90625 142.625 C 115.015625 134.699219 116.769531 130.402344 117.21875 123.121094 C 117.667969 115.84375 124.28125 92.054688 124.28125 92.054688 L 116.671875 72.089844 L 107.566406 72.269531 L 103.597656 76.375 " fill-opacity="1" fill-rule="nonzero"/><path fill="#f2e4e4" d="M 109.574219 158.382812 C 109.574219 158.382812 107.835938 159.246094 107.21875 159.183594 C 106.605469 159.121094 105.925781 158.320312 105.175781 158.261719 C 104.429688 158.203125 104.019531 158.949219 103.929688 159.097656 C 103.835938 159.25 99.605469 162.328125 98.828125 162.710938 C 98.050781 163.09375 97.34375 163.453125 97.207031 164.019531 C 97.070312 164.585938 97.261719 165.515625 97.554688 165.511719 C 97.851562 165.503906 109.835938 165.078125 110.152344 164.949219 C 110.46875 164.820312 110.339844 164.15625 110.339844 164.15625 C 110.339844 164.15625 110.417969 163.09375 110.3125 161.710938 C 110.210938 160.328125 109.574219 158.382812 109.574219 158.382812 " fill-opacity="1" fill-rule="nonzero"/><path fill="#ffffff" d="M 111.34375 151.996094 C 111.339844 151.996094 111.332031 151.996094 111.324219 151.992188 C 111.214844 151.980469 111.136719 151.882812 111.148438 151.777344 C 111.160156 151.691406 112.101562 143.351562 112.253906 141.152344 C 112.398438 138.996094 112.996094 128.882812 113.050781 124.964844 C 113.105469 121.132812 115.171875 106.335938 115.191406 106.1875 C 115.207031 106.078125 115.308594 106.003906 115.414062 106.019531 C 115.523438 106.035156 115.597656 106.132812 115.582031 106.242188 C 115.558594 106.390625 113.5 121.160156 113.445312 124.972656 C 113.390625 128.894531 112.792969 139.019531 112.644531 141.179688 C 112.492188 143.386719 111.550781 151.738281 111.539062 151.820312 C 111.527344 151.921875 111.445312 151.996094 111.34375 151.996094 " fill-opacity="1" fill-rule="nonzero"/><path fill="#ffffff" d="M 98.035156 165.023438 C 97.929688 165.023438 97.84375 164.941406 97.839844 164.835938 C 97.832031 164.726562 97.917969 164.636719 98.023438 164.632812 L 109.664062 164.074219 C 109.765625 164.0625 109.863281 164.152344 109.871094 164.261719 C 109.875 164.367188 109.789062 164.460938 109.683594 164.464844 L 98.042969 165.023438 C 98.039062 165.023438 98.039062 165.023438 98.035156 165.023438 " fill-opacity="1" fill-rule="nonzero"/><path fill="#ffffff" d="M 103.964844 161.136719 C 103.902344 161.136719 103.84375 161.109375 103.804688 161.054688 L 103.101562 160.085938 C 103.039062 160 103.058594 159.875 103.148438 159.8125 C 103.234375 159.746094 103.355469 159.769531 103.421875 159.855469 L 104.121094 160.824219 C 104.1875 160.914062 104.167969 161.035156 104.078125 161.101562 C 104.042969 161.125 104.003906 161.136719 103.964844 161.136719 " fill-opacity="1" fill-rule="nonzero"/><path fill="#ffffff" d="M 102.152344 162.328125 C 102.089844 162.328125 102.027344 162.296875 101.988281 162.238281 L 101.355469 161.292969 C 101.296875 161.203125 101.320312 161.082031 101.410156 161.023438 C 101.5 160.960938 101.621094 160.984375 101.683594 161.074219 L 102.3125 162.019531 C 102.375 162.109375 102.347656 162.234375 102.257812 162.292969 C 102.226562 162.316406 102.1875 162.328125 102.152344 162.328125 " fill-opacity="1" fill-rule="nonzero"/><path fill="#ff9f8f" d="M 136.082031 159.386719 L 138.261719 163.003906 L 140.425781 158.824219 L 140.160156 151.660156 L 134.460938 151.03125 L 136.082031 159.386719 " fill-opacity="1" fill-rule="nonzero"/><path fill="#cbd4e6" d="M 118.101562 75.855469 C 118.101562 75.855469 127.984375 128.542969 129.136719 134.367188 C 130.292969 140.195312 133.921875 153.78125 133.921875 153.78125 L 142.007812 153.179688 C 142.007812 153.179688 142.167969 141.425781 141.699219 137.503906 C 140.886719 130.734375 142.464844 127.695312 141.308594 120.523438 C 140.152344 113.351562 137.933594 76.925781 137.933594 76.925781 L 118.101562 75.855469 " fill-opacity="1" fill-rule="nonzero"/><g clip-path="url(#d6a58d6f63)"><path fill="#f2e4e4" d="M 136.082031 159.386719 C 136.082031 159.386719 136.578125 158.558594 138.191406 158.4375 C 139.804688 158.320312 140.648438 158.707031 140.710938 159.042969 C 140.769531 159.378906 142.234375 163.210938 142.3125 163.597656 C 142.390625 163.988281 142.789062 165.386719 142.46875 165.707031 C 142.148438 166.023438 140.710938 166.527344 139.382812 166.527344 C 138.054688 166.527344 136.605469 166.242188 136.3125 165.574219 C 136.015625 164.90625 136.082031 159.386719 136.082031 159.386719 " fill-opacity="1" fill-rule="nonzero"/></g><path fill="#ffffff" d="M 139.238281 165.855469 C 137.804688 165.855469 136.832031 165.300781 136.789062 165.277344 C 136.695312 165.222656 136.660156 165.101562 136.714844 165.007812 C 136.769531 164.914062 136.890625 164.878906 136.984375 164.9375 C 136.992188 164.941406 138.09375 165.5625 139.621094 165.449219 C 141.164062 165.335938 142.105469 164.773438 142.113281 164.765625 C 142.207031 164.714844 142.324219 164.742188 142.382812 164.835938 C 142.4375 164.925781 142.410156 165.046875 142.316406 165.105469 C 142.277344 165.128906 141.292969 165.71875 139.652344 165.84375 C 139.511719 165.851562 139.371094 165.855469 139.238281 165.855469 " fill-opacity="1" fill-rule="nonzero"/><path fill="#ffffff" d="M 137.539062 160.777344 C 137.4375 160.777344 137.351562 160.699219 137.34375 160.59375 C 137.335938 160.484375 137.414062 160.390625 137.523438 160.382812 L 139.601562 160.230469 C 139.710938 160.222656 139.804688 160.300781 139.8125 160.410156 C 139.820312 160.519531 139.738281 160.613281 139.632812 160.621094 L 137.554688 160.777344 C 137.546875 160.777344 137.542969 160.777344 137.539062 160.777344 " fill-opacity="1" fill-rule="nonzero"/><path fill="#ffffff" d="M 137.8125 162.160156 C 137.710938 162.160156 137.625 162.082031 137.617188 161.980469 C 137.609375 161.871094 137.691406 161.777344 137.800781 161.765625 L 139.878906 161.613281 C 139.988281 161.605469 140.078125 161.6875 140.085938 161.792969 C 140.097656 161.902344 140.015625 161.996094 139.90625 162.003906 L 137.828125 162.160156 C 137.824219 162.160156 137.820312 162.160156 137.8125 162.160156 " fill-opacity="1" fill-rule="nonzero"/><path fill="#789592" d="M 138.335938 77.625 C 138.335938 76.582031 137.460938 73.304688 137.296875 70.871094 C 137.128906 68.433594 135.292969 59.152344 134.125 55.125 C 132.953125 51.097656 132.960938 49.785156 133.074219 44.007812 C 133.1875 38.230469 131.09375 30.027344 130.714844 29.035156 C 130.339844 28.046875 122.550781 25.691406 113.238281 28.429688 C 109.9375 29.398438 106.734375 30.742188 103.773438 32.507812 C 102.167969 33.460938 97.097656 36.109375 97.15625 38.222656 C 97.1875 39.476562 97.199219 40.738281 97.257812 41.992188 C 97.296875 42.78125 97.097656 44.726562 97.539062 45.347656 C 97.800781 46.363281 100.152344 46.15625 100.4375 47.140625 C 100.976562 48.980469 101.5 50.839844 102.140625 52.648438 C 102.660156 54.109375 105.492188 69.378906 105.203125 71.222656 C 104.949219 72.832031 105.175781 80.128906 105.148438 81.703125 C 107.382812 81.964844 114.707031 79.457031 119.03125 79.855469 C 123.546875 80.273438 129.257812 79.613281 131.484375 79.996094 C 133.714844 80.378906 138.335938 79.472656 138.335938 77.625 " fill-opacity="1" fill-rule="nonzero"/><path fill="#547672" d="M 131.726562 70.746094 C 131.703125 70.746094 131.675781 70.742188 131.652344 70.730469 C 131.574219 70.699219 123.710938 67.414062 117.613281 61.886719 C 111.53125 56.375 106.523438 49.035156 106.53125 48.542969 C 106.53125 48.433594 106.617188 48.347656 106.726562 48.347656 C 106.828125 48.347656 106.910156 48.425781 106.921875 48.523438 C 107.082031 49.09375 111.855469 56.140625 117.875 61.59375 C 123.921875 67.074219 131.722656 70.335938 131.800781 70.371094 C 131.902344 70.410156 131.949219 70.523438 131.910156 70.625 C 131.875 70.699219 131.804688 70.746094 131.726562 70.746094 " fill-opacity="1" fill-rule="nonzero"/><path fill="#ff9f8f" d="M 140.34375 41.3125 L 145.582031 53.304688 C 146.207031 55.089844 145.644531 57.132812 144.09375 58.230469 C 143.390625 58.726562 141.707031 59.523438 140.679688 59.140625 C 138.96875 58.5 132.25 46.160156 132.25 46.160156 L 140.34375 41.3125 " fill-opacity="1" fill-rule="nonzero"/><path fill="#ff9f8f" d="M 93.359375 44.0625 L 85.957031 54.847656 C 85.003906 56.480469 85.171875 58.59375 86.488281 59.964844 C 87.085938 60.585938 88.589844 61.6875 89.667969 61.503906 C 91.472656 61.199219 100.390625 50.355469 100.390625 50.355469 L 93.359375 44.0625 " fill-opacity="1" fill-rule="nonzero"/><g clip-path="url(#4c81bf7e01)"><path fill="#804943" d="M 111.402344 10.417969 C 111.074219 9.609375 110.675781 9.039062 110.027344 8.449219 C 109.425781 7.902344 108.742188 7.472656 107.910156 7.378906 C 107.152344 7.296875 106.71875 7.140625 106.066406 6.753906 C 105.59375 6.472656 105.078125 6.203125 104.5625 6.023438 C 103.765625 5.738281 103.148438 5.789062 102.4375 6.207031 C 101.734375 6.621094 101.160156 6.550781 100.417969 6.585938 C 100.089844 6.601562 99.761719 6.632812 99.472656 6.789062 C 98.488281 7.320312 98.210938 8.402344 97.410156 9.082031 C 97.199219 9.257812 97.015625 9.453125 96.847656 9.660156 C 96.5 9.828125 96.15625 10 95.8125 10.199219 C 95.101562 10.609375 94.472656 11.230469 94.203125 12.019531 C 94.070312 12.398438 94.03125 12.800781 94.089844 13.199219 C 94.199219 13.929688 94.640625 14.339844 94.324219 15.109375 C 94.199219 15.417969 94.03125 15.707031 93.914062 16.015625 C 93.792969 16.324219 93.722656 16.667969 93.804688 16.992188 C 93.894531 17.355469 94.128906 17.398438 94.355469 17.621094 C 94.542969 17.800781 94.417969 18.238281 94.566406 18.527344 C 94.789062 18.957031 95.199219 18.976562 95.617188 19.125 C 96.113281 19.304688 96.636719 19.554688 96.894531 20.039062 C 97.199219 20.613281 97.113281 21.300781 97.511719 21.839844 C 97.867188 22.324219 98.457031 22.460938 99.03125 22.390625 C 100.183594 22.253906 100.683594 21.28125 101.175781 20.386719 C 101.503906 19.78125 101.773438 19.140625 102.125 18.546875 C 102.632812 17.699219 103.324219 17.117188 104.078125 16.496094 C 105.09375 15.65625 105.980469 14.597656 106.386719 13.324219 C 106.445312 13.144531 106.5 12.957031 106.550781 12.765625 C 106.640625 12.746094 106.730469 12.730469 106.824219 12.710938 C 107.816406 12.496094 108.765625 12.339844 109.632812 11.773438 C 110.003906 11.527344 110.703125 11.027344 110.988281 10.476562 C 111.078125 10.742188 111.25 11.355469 111.285156 11.332031 C 111.085938 11.480469 111.28125 11.824219 111.484375 11.667969 C 111.835938 11.398438 111.53125 10.738281 111.402344 10.417969 " fill-opacity="1" fill-rule="nonzero"/></g><path fill="#ffffff" d="M 90.195312 48.003906 C 90.195312 48.003906 88.917969 49.183594 88.917969 49.425781 C 88.917969 49.675781 96.941406 56.011719 97.320312 55.960938 C 97.699219 55.914062 98.484375 54.144531 98.484375 54.144531 L 90.195312 48.003906 " fill-opacity="1" fill-rule="nonzero"/><path fill="#ff9f8f" d="M 97.429688 15.417969 C 97.464844 17.242188 100.257812 23.804688 102.015625 26.128906 C 104.632812 29.585938 107.605469 30.589844 109.273438 29.921875 C 111.578125 29.003906 113.179688 26.332031 114.242188 22.566406 C 114.355469 22.152344 113.320312 12.863281 111.1875 10.683594 C 109.058594 8.5 104.011719 7.203125 101.039062 8.945312 C 98.066406 10.683594 97.394531 13.589844 97.429688 15.417969 " fill-opacity="1" fill-rule="nonzero"/><path fill="#ffffff" d="M 108.808594 30.664062 C 108.808594 30.664062 106.875 32.003906 106.332031 33.421875 C 106.074219 34.101562 105.59375 37.148438 105.839844 37.171875 C 106.085938 37.195312 108.613281 35.574219 109.015625 35.574219 C 109.417969 35.574219 115.058594 41.125 115.058594 41.125 L 118.273438 33.609375 C 118.273438 33.609375 122.121094 34.273438 122.34375 34.324219 C 122.5625 34.371094 121.4375 30.367188 120.726562 29.484375 C 120.015625 28.601562 116.210938 27.765625 116.210938 27.765625 L 108.808594 30.664062 " fill-opacity="1" fill-rule="nonzero"/><path fill="#ff9f8f" d="M 107.285156 28.601562 C 107.285156 28.601562 108 29.835938 108.765625 31.441406 C 108.867188 31.65625 108.972656 31.882812 109.082031 32.113281 C 110.011719 34.070312 112.863281 34.839844 114.671875 33.65625 C 115.410156 33.171875 116.078125 32.601562 116.457031 31.972656 C 117.675781 29.941406 118.058594 29.273438 116.171875 25.636719 C 114.289062 22 113.75 20.378906 113.75 20.378906 L 107.285156 28.601562 " fill-opacity="1" fill-rule="nonzero"/><path fill="#f57e6c" d="M 108.664062 30.3125 C 108.570312 30.3125 108.488281 30.246094 108.46875 30.152344 C 108.449219 30.046875 108.519531 29.945312 108.625 29.921875 C 108.644531 29.917969 110.378906 29.574219 111.503906 28.363281 C 112.097656 27.722656 113.089844 24.324219 113.417969 23.070312 C 113.445312 22.964844 113.554688 22.902344 113.660156 22.929688 C 113.765625 22.957031 113.828125 23.066406 113.800781 23.167969 C 113.75 23.359375 112.574219 27.789062 111.792969 28.628906 C 110.574219 29.941406 108.773438 30.292969 108.699219 30.308594 C 108.6875 30.3125 108.671875 30.3125 108.664062 30.3125 " fill-opacity="1" fill-rule="nonzero"/><path fill="#2e2833" d="M 102.523438 22.84375 C 102.492188 22.546875 102.289062 22.238281 102.039062 22.105469 C 101.644531 21.902344 101.554688 22.363281 101.664062 22.636719 C 101.75 22.851562 101.863281 23.058594 102.039062 23.203125 C 102.109375 23.257812 102.195312 23.304688 102.285156 23.292969 C 102.371094 23.28125 102.441406 23.214844 102.476562 23.136719 C 102.519531 23.042969 102.53125 22.941406 102.523438 22.84375 " fill-opacity="1" fill-rule="nonzero"/><path fill="#2e2833" d="M 108.003906 20.042969 C 107.972656 19.75 107.796875 19.449219 107.550781 19.320312 C 107.164062 19.121094 107.050781 19.566406 107.160156 19.839844 C 107.246094 20.046875 107.355469 20.253906 107.527344 20.394531 C 107.597656 20.449219 107.683594 20.496094 107.769531 20.484375 C 107.855469 20.472656 107.925781 20.40625 107.957031 20.332031 C 108 20.238281 108.015625 20.140625 108.003906 20.042969 " fill-opacity="1" fill-rule="nonzero"/><path fill="#804943" d="M 114.355469 21.878906 C 114.355469 21.878906 112.933594 12.101562 111.96875 10.859375 C 110.957031 9.5625 109.773438 8.648438 108.183594 8.140625 C 107.40625 7.890625 106.488281 7.617188 105.679688 7.488281 C 105.171875 7.40625 104.371094 7.25 103.878906 7.457031 C 103.785156 7.496094 103.746094 7.578125 103.75 7.65625 C 103.320312 7.765625 102.886719 7.859375 102.453125 7.984375 C 101.867188 8.160156 101.28125 8.390625 100.730469 8.664062 C 99.964844 9.046875 99.621094 9.902344 98.945312 10.363281 C 98.878906 10.40625 98.855469 10.46875 98.855469 10.527344 C 98.015625 10.964844 97.539062 11.894531 97.335938 12.851562 C 97.175781 13.613281 97.261719 14.359375 97.140625 15.109375 C 97.027344 15.832031 96.933594 16.230469 97.097656 16.980469 C 97.207031 17.484375 97.285156 17.996094 97.375 18.5 C 98.582031 18.210938 97.699219 19.714844 98.804688 19.125 C 99.890625 18.410156 103.398438 16.1875 104.371094 15.332031 C 105.414062 14.414062 106.808594 13.316406 108.246094 14.125 C 109.03125 14.570312 109.453125 15.199219 109.933594 15.929688 C 110.039062 16.089844 110.296875 16.03125 110.300781 15.832031 C 110.304688 15.578125 110.3125 15.308594 110.410156 15.070312 C 110.671875 14.441406 111.757812 14.554688 112.1875 14.890625 C 112.613281 15.214844 112.839844 15.722656 112.941406 16.238281 C 113.097656 17.027344 112.976562 18.070312 112.566406 18.871094 C 113.175781 19.992188 114.355469 21.878906 114.355469 21.878906 " fill-opacity="1" fill-rule="nonzero"/><path fill="#789592" d="M 106.367188 49.917969 C 104.546875 51.972656 98.867188 55.3125 98.867188 55.3125 L 89.585938 48.082031 C 89.585938 48.082031 90.191406 47.15625 90.976562 46.152344 C 92.230469 44.535156 96.121094 38.074219 97.828125 36.433594 C 100.390625 33.964844 103 33.421875 103 33.421875 C 103 33.421875 106.582031 49.671875 106.367188 49.917969 " fill-opacity="1" fill-rule="nonzero"/><path fill="#804943" d="M 102.675781 20.332031 C 102.660156 20.289062 102.632812 20.242188 102.589844 20.207031 C 102.382812 20.015625 101.996094 20.148438 101.765625 20.207031 C 101.394531 20.300781 101.042969 20.472656 100.742188 20.710938 C 100.417969 20.964844 99.859375 21.570312 99.921875 22.007812 C 99.933594 22.066406 100 22.132812 100.0625 22.144531 C 100.253906 22.171875 100.4375 22.117188 100.585938 21.988281 C 100.789062 21.808594 100.839844 21.652344 101.101562 21.488281 C 101.214844 21.417969 101.34375 21.355469 101.460938 21.289062 C 101.742188 21.132812 102.027344 21.039062 102.320312 20.921875 C 102.527344 20.835938 102.761719 20.558594 102.675781 20.332031 " fill-opacity="1" fill-rule="nonzero"/><path fill="#804943" d="M 105.40625 18.816406 C 105.378906 18.78125 105.359375 18.730469 105.351562 18.675781 C 105.316406 18.398438 105.648438 18.15625 105.828125 17.996094 C 106.117188 17.746094 106.457031 17.558594 106.824219 17.445312 C 107.21875 17.328125 108.035156 17.214844 108.351562 17.515625 C 108.394531 17.558594 108.414062 17.652344 108.386719 17.707031 C 108.300781 17.878906 108.152344 18 107.957031 18.050781 C 107.695312 18.113281 107.539062 18.066406 107.253906 18.1875 C 107.128906 18.238281 107.003906 18.308594 106.886719 18.367188 C 106.597656 18.507812 106.359375 18.691406 106.089844 18.863281 C 105.902344 18.984375 105.542969 19.019531 105.40625 18.816406 " fill-opacity="1" fill-rule="nonzero"/><path fill="#f57e6c" d="M 105.304688 25.261719 C 105.203125 25.261719 105.113281 25.234375 105.042969 25.171875 C 104.785156 24.949219 104.070312 22.769531 103.773438 21.84375 C 103.742188 21.738281 103.800781 21.628906 103.902344 21.59375 C 104.003906 21.5625 104.117188 21.621094 104.148438 21.722656 C 104.601562 23.144531 105.15625 24.710938 105.304688 24.882812 C 105.398438 24.910156 105.84375 24.683594 106.21875 24.40625 C 106.304688 24.34375 106.425781 24.363281 106.492188 24.449219 C 106.554688 24.539062 106.535156 24.660156 106.449219 24.726562 C 106.144531 24.945312 105.65625 25.261719 105.304688 25.261719 " fill-opacity="1" fill-rule="nonzero"/><path fill="#f57e6c" d="M 105.726562 26.402344 L 109.015625 24.386719 C 109.015625 24.386719 109.148438 25.449219 107.6875 26.1875 C 106.226562 26.925781 105.726562 26.402344 105.726562 26.402344 " fill-opacity="1" fill-rule="nonzero"/><path fill="#67312c" d="M 106.726562 13.390625 C 106.691406 13.390625 106.660156 13.382812 106.628906 13.367188 C 106.535156 13.3125 106.5 13.191406 106.554688 13.097656 C 106.5625 13.082031 107.382812 11.621094 107.492188 10.832031 C 107.542969 10.476562 107.5 10.203125 107.457031 9.941406 C 107.40625 9.609375 107.355469 9.292969 107.503906 8.902344 C 107.757812 8.226562 108.035156 8.003906 108.066406 7.984375 C 108.152344 7.917969 108.273438 7.933594 108.339844 8.023438 C 108.40625 8.109375 108.386719 8.230469 108.300781 8.296875 C 108.300781 8.296875 108.082031 8.476562 107.871094 9.039062 C 107.761719 9.335938 107.796875 9.574219 107.847656 9.878906 C 107.890625 10.160156 107.9375 10.472656 107.882812 10.890625 C 107.761719 11.75 106.929688 13.230469 106.894531 13.292969 C 106.859375 13.355469 106.792969 13.390625 106.726562 13.390625 " fill-opacity="1" fill-rule="nonzero"/><path fill="#67312c" d="M 96.5 18.820312 C 96.402344 18.820312 96.320312 18.75 96.304688 18.648438 C 96.289062 18.542969 96.363281 18.441406 96.472656 18.429688 C 96.480469 18.425781 97.304688 18.296875 98.234375 17.46875 C 98.550781 17.183594 98.824219 16.902344 99.089844 16.625 C 99.648438 16.050781 100.222656 15.453125 101.203125 14.84375 C 102.640625 13.953125 105.390625 13.347656 105.503906 13.320312 C 105.613281 13.296875 105.714844 13.367188 105.738281 13.472656 C 105.761719 13.578125 105.695312 13.683594 105.589844 13.707031 C 105.5625 13.710938 102.789062 14.324219 101.410156 15.179688 C 100.472656 15.761719 99.9375 16.316406 99.371094 16.898438 C 99.101562 17.179688 98.820312 17.46875 98.496094 17.761719 C 97.472656 18.675781 96.5625 18.8125 96.527344 18.816406 C 96.515625 18.816406 96.507812 18.820312 96.5 18.820312 " fill-opacity="1" fill-rule="nonzero"/><path fill="#67312c" d="M 95.273438 17.222656 C 95.167969 17.222656 95.082031 17.140625 95.078125 17.03125 C 95.074219 16.925781 95.160156 16.832031 95.265625 16.828125 C 95.28125 16.828125 96.710938 16.769531 97.261719 15.867188 C 97.8125 14.96875 99.128906 13.6875 99.417969 13.6875 C 99.527344 13.6875 99.613281 13.773438 99.613281 13.882812 C 99.613281 13.976562 99.550781 14.050781 99.464844 14.074219 C 99.28125 14.171875 98.167969 15.136719 97.59375 16.074219 C 96.933594 17.15625 95.347656 17.21875 95.28125 17.222656 C 95.277344 17.222656 95.273438 17.222656 95.273438 17.222656 " fill-opacity="1" fill-rule="nonzero"/><path fill="#ffffff" d="M 133.109375 49.066406 C 133.109375 49.066406 133.449219 50.644531 134.054688 50.542969 C 134.664062 50.441406 142.621094 44.972656 142.621094 44.777344 C 142.621094 44.582031 141.378906 42.910156 141.378906 42.910156 L 133.109375 49.066406 " fill-opacity="1" fill-rule="nonzero"/><path fill="#67312c" d="M 98.3125 9.609375 C 98.25 9.609375 98.183594 9.574219 98.148438 9.515625 C 98.089844 9.425781 98.117188 9.304688 98.210938 9.246094 C 98.28125 9.199219 99.988281 8.136719 102.679688 7.941406 C 105.394531 7.742188 106.929688 8.863281 106.992188 8.910156 C 107.078125 8.976562 107.097656 9.097656 107.03125 9.1875 C 106.96875 9.273438 106.84375 9.292969 106.757812 9.226562 C 106.742188 9.214844 105.269531 8.140625 102.710938 8.332031 C 100.121094 8.523438 98.433594 9.566406 98.417969 9.578125 C 98.386719 9.597656 98.351562 9.609375 98.3125 9.609375 " fill-opacity="1" fill-rule="nonzero"/><path fill="#ff9f8f" d="M 105.523438 94.5 L 129.039062 91.179688 L 129.742188 83.078125 L 103.746094 80.964844 L 105.523438 94.5 " fill-opacity="1" fill-rule="nonzero"/><path fill="#ff9f8f" d="M 126.667969 90.902344 C 126.667969 90.902344 131.773438 92.578125 135.722656 92.929688 C 140.824219 93.382812 161.714844 91.28125 161.714844 91.28125 L 161.109375 87.734375 C 161.109375 87.734375 136.144531 83.464844 129.742188 83.078125 C 123.339844 82.695312 125.726562 89.972656 126.34375 90.558594 C 126.964844 91.148438 126.667969 90.902344 126.667969 90.902344 " fill-opacity="1" fill-rule="nonzero"/><path fill="#ff9f8f" d="M 160.410156 92.460938 C 160.410156 92.460938 162.371094 94.570312 164.5625 91.214844 C 164.761719 90.90625 165.191406 89.921875 165.773438 88.957031 C 167.273438 86.449219 170.171875 82.300781 170.394531 81.765625 C 170.707031 81.027344 168.863281 80.082031 167.585938 81.210938 C 166.644531 82.046875 161.132812 86.09375 159.921875 86.785156 C 159.710938 86.902344 158.0625 87.652344 158.078125 87.949219 C 158.09375 88.167969 157.890625 90.921875 157.890625 90.921875 L 160.410156 92.460938 " fill-opacity="1" fill-rule="nonzero"/><path fill="#4b3a4a" d="M 39.230469 86.894531 C 39.273438 85.882812 39.023438 84.910156 38.328125 84.234375 C 37.558594 83.488281 36.25 82.960938 36.179688 81.726562 C 36.117188 80.570312 36.726562 79.636719 35.5 78.734375 C 35.472656 78.714844 35.445312 78.695312 35.414062 78.675781 C 35.277344 78.652344 35.140625 78.632812 35 78.605469 C 33.265625 78.242188 29.488281 73.371094 24.984375 72.921875 C 24.59375 72.882812 23.773438 72.546875 22.097656 73.234375 C 21.070312 73.65625 19.378906 75.695312 18.953125 76.667969 C 18.523438 77.632812 17.964844 78.558594 17.613281 79.558594 C 17.007812 81.28125 16.269531 83.53125 16.601562 85.371094 C 16.84375 86.734375 17.199219 88.214844 17.988281 89.386719 C 18.75 90.523438 20.125 91.101562 21.410156 91.367188 C 22.546875 91.605469 23.527344 92.484375 24.554688 92.984375 C 25.734375 93.554688 27.070312 93.269531 28.308594 93.597656 C 29.148438 93.820312 29.867188 94.320312 30.65625 94.660156 C 31.289062 94.933594 32.636719 95.3125 33.253906 94.867188 C 33.691406 94.550781 33.542969 93.738281 33.71875 93.289062 C 34.042969 92.457031 34.917969 91.90625 35.511719 91.28125 C 36.28125 90.480469 37.089844 89.648438 37.691406 88.746094 C 38.089844 88.148438 38.488281 87.542969 38.832031 86.910156 C 38.964844 86.925781 39.101562 86.914062 39.230469 86.894531 " fill-opacity="1" fill-rule="nonzero"/><path fill="#ff9f8f" d="M 38.59375 80.226562 C 38.472656 81.085938 38.113281 83.125 37.925781 83.839844 C 37.234375 86.566406 37.222656 86.613281 33 87.914062 C 30.878906 88.566406 24.675781 90.371094 21.925781 88.289062 C 19.175781 86.214844 17.265625 83.488281 18.785156 79.894531 C 20.296875 76.304688 22.261719 73.914062 24.417969 74.160156 C 26.308594 74.371094 31.039062 75.1875 34.761719 76.179688 C 34.871094 76.207031 34.976562 76.238281 35.082031 76.265625 C 35.285156 76.320312 35.484375 76.375 35.671875 76.425781 C 35.726562 76.441406 35.78125 76.457031 35.835938 76.476562 C 35.949219 76.507812 36.058594 76.542969 36.164062 76.578125 C 38.988281 77.480469 38.792969 78.796875 38.59375 80.226562 " fill-opacity="1" fill-rule="nonzero"/><path fill="#ff9f8f" d="M 29.625 75.25 C 29.625 75.25 33.253906 74.28125 33.464844 74.464844 C 33.828125 74.773438 33.949219 76.746094 33.949219 76.746094 C 33.949219 76.746094 32.320312 76.699219 31.789062 76.546875 C 31.253906 76.394531 29.625 75.25 29.625 75.25 " fill-opacity="1" fill-rule="nonzero"/><path fill="#2e2833" d="M 29.941406 75.570312 C 29.75 75.179688 29.441406 75.324219 29.476562 75.671875 C 29.496094 75.882812 29.546875 76.097656 29.515625 76.3125 C 29.484375 76.546875 29.328125 76.746094 29.230469 76.957031 C 29.078125 77.273438 29.265625 77.429688 29.558594 77.191406 C 30.007812 76.828125 30.199219 76.238281 29.992188 75.6875 C 29.976562 75.648438 29.957031 75.609375 29.941406 75.570312 " fill-opacity="1" fill-rule="nonzero"/><path fill="#4b3a4a" d="M 27.335938 77.632812 C 27.230469 77.4375 27.246094 77.15625 27.230469 76.949219 C 27.199219 76.59375 27.183594 76.234375 27.21875 75.878906 C 27.25 75.546875 27.222656 74.871094 27.792969 74.984375 C 28.03125 75.03125 28.101562 75.285156 28.09375 75.496094 C 28.078125 75.863281 27.984375 76.222656 27.949219 76.585938 C 27.914062 76.96875 27.867188 77.359375 27.746094 77.722656 C 27.671875 77.949219 27.40625 77.753906 27.335938 77.632812 " fill-opacity="1" fill-rule="nonzero"/><path fill="#f57e6c" d="M 35.835938 76.476562 C 35.738281 76.738281 35.601562 77.027344 35.414062 77.316406 C 34.726562 78.355469 33.894531 78.4375 33.894531 78.4375 C 33.894531 78.4375 34.515625 76.878906 34.761719 76.179688 C 34.871094 76.207031 34.976562 76.238281 35.082031 76.265625 C 35.285156 76.320312 35.484375 76.375 35.671875 76.425781 C 35.726562 76.441406 35.78125 76.457031 35.835938 76.476562 " fill-opacity="1" fill-rule="nonzero"/><path fill="#ff9f8f" d="M 34.203125 79.773438 C 34.203125 79.773438 35.253906 81.40625 36.425781 81.796875 C 37.597656 82.1875 42.238281 82.878906 42.238281 82.878906 L 44.117188 86.957031 L 42.304688 91.425781 L 30.570312 89.484375 L 32.496094 82.261719 L 34.203125 79.773438 " fill-opacity="1" fill-rule="nonzero"/><path fill="#4b3a4a" d="M 32.476562 87.191406 C 31.902344 86.183594 31.867188 85.070312 31.039062 84.203125 C 30.746094 84.347656 30.011719 84.808594 29.867188 84.859375 C 29.519531 84.980469 29.167969 85.042969 28.792969 85.039062 C 28.171875 85.027344 27.167969 84.734375 27.042969 84.011719 C 26.992188 83.742188 27.21875 82.710938 27.21875 82.710938 C 27.21875 82.710938 25.894531 79.386719 25.5 78.382812 C 25.207031 77.640625 24.78125 77.066406 24.796875 76.210938 C 24.804688 75.738281 24.945312 75.1875 24.792969 74.722656 C 24.5625 73.996094 24.066406 73.542969 23.453125 73.253906 C 23.367188 73.273438 23.269531 73.253906 23.191406 73.164062 C 23.148438 73.121094 23.078125 73.105469 22.996094 73.101562 C 22.960938 73.167969 22.902344 73.222656 22.808594 73.246094 C 22.675781 73.285156 22.539062 73.316406 22.402344 73.351562 C 22.414062 73.359375 22.425781 73.367188 22.4375 73.367188 C 22.585938 73.402344 22.722656 73.445312 22.859375 73.492188 C 22.820312 73.523438 22.78125 73.558594 22.765625 73.578125 C 22.710938 73.644531 22.65625 73.707031 22.601562 73.773438 C 22.558594 73.769531 22.523438 73.761719 22.476562 73.757812 C 22.4375 73.757812 22.40625 73.765625 22.375 73.777344 C 21.558594 73.773438 20.789062 75.003906 20.390625 75.542969 C 19.433594 76.839844 18.519531 78.109375 17.839844 79.582031 C 17.207031 80.945312 16.886719 82.441406 17.015625 83.941406 C 17.113281 85.085938 17.742188 86.210938 18.429688 87.117188 C 19.160156 88.078125 19.707031 88.875 20.839844 89.375 C 22.296875 90.019531 23.785156 90.707031 25.425781 90.546875 C 26.25 90.464844 27.070312 90.347656 27.890625 90.222656 C 28.5625 90.664062 29.429688 90.921875 30.085938 91.179688 C 30.800781 91.460938 31.5 91.71875 32.15625 92.125 C 32.238281 92.175781 32.320312 92.230469 32.402344 92.289062 C 32.527344 91.964844 32.59375 91.617188 32.613281 91.3125 C 32.628906 91.023438 32.957031 90.941406 33.132812 91.070312 C 33.753906 89.6875 33.257812 88.558594 32.476562 87.191406 " fill-opacity="1" fill-rule="nonzero"/><path fill="#68535f" d="M 25.902344 83.917969 C 25.800781 83.917969 25.714844 83.84375 25.707031 83.738281 C 25.703125 83.726562 25.5625 82.261719 24.570312 80.023438 C 23.5625 77.757812 22.683594 76.097656 22.671875 76.082031 C 22.621094 75.988281 22.660156 75.867188 22.753906 75.816406 C 22.851562 75.765625 22.96875 75.800781 23.019531 75.898438 C 23.027344 75.914062 23.914062 77.582031 24.925781 79.863281 C 25.949219 82.167969 26.089844 83.644531 26.097656 83.703125 C 26.105469 83.8125 26.027344 83.90625 25.917969 83.917969 C 25.914062 83.917969 25.90625 83.917969 25.902344 83.917969 " fill-opacity="1" fill-rule="nonzero"/><path fill="#ff9f8f" d="M 97.097656 67.339844 C 97.097656 67.339844 109.324219 56.75 111.734375 55.890625 C 114.144531 55.027344 116.0625 56.921875 118.113281 58.988281 C 120.160156 61.054688 135.722656 86.6875 135.722656 86.6875 L 131.015625 87.796875 C 131.015625 87.796875 120.441406 77.621094 117.230469 74.972656 C 114.011719 72.320312 111.734375 69.175781 111.734375 69.175781 L 103.085938 80.636719 L 97.097656 67.339844 " fill-opacity="1" fill-rule="nonzero"/><path fill="#68535f" d="M 24.882812 87.382812 C 24.78125 87.382812 24.695312 87.304688 24.6875 87.199219 C 24.6875 87.175781 24.554688 85.058594 24.179688 83.097656 C 23.8125 81.152344 22.113281 77.878906 22.09375 77.847656 C 22.042969 77.75 22.082031 77.632812 22.179688 77.582031 C 22.273438 77.53125 22.390625 77.566406 22.441406 77.664062 C 22.515625 77.800781 24.1875 81.019531 24.566406 83.023438 C 24.945312 85.011719 25.078125 87.152344 25.082031 87.175781 C 25.085938 87.28125 25.003906 87.375 24.898438 87.382812 C 24.894531 87.382812 24.886719 87.382812 24.882812 87.382812 " fill-opacity="1" fill-rule="nonzero"/><path fill="#4b3a4a" d="M 18.253906 82.257812 C 17.921875 81.828125 17.515625 81.890625 17.070312 81.679688 C 17.058594 81.671875 17.046875 81.671875 17.035156 81.667969 C 15.953125 80.988281 14.253906 80.945312 13.214844 81.195312 C 12.082031 81.46875 11.710938 82.25 11.632812 83.324219 C 11.601562 83.785156 11.582031 84.113281 11.769531 84.519531 C 11.964844 84.949219 12.144531 85.148438 12.289062 85.65625 C 12.359375 85.910156 12.367188 86.191406 12.453125 86.4375 C 12.742188 87.246094 13.628906 87.355469 14.402344 87.449219 C 15.515625 87.582031 15.890625 87.183594 16.78125 86.503906 C 17.738281 85.773438 18.414062 84.785156 18.476562 83.550781 C 18.496094 83.105469 18.535156 82.625 18.253906 82.257812 " fill-opacity="1" fill-rule="nonzero"/><path fill="#68535f" d="M 16.527344 86.195312 C 16.523438 86.195312 16.519531 86.195312 16.515625 86.195312 C 16.40625 86.1875 16.324219 86.09375 16.332031 85.984375 C 16.332031 85.980469 16.359375 85.636719 16.335938 84.777344 C 16.332031 84.628906 16.425781 81.996094 16.761719 81.882812 C 16.867188 81.847656 16.976562 81.90625 17.011719 82.007812 C 17.03125 82.070312 17.019531 82.132812 16.984375 82.179688 C 16.910156 82.417969 16.703125 83.976562 16.726562 84.765625 C 16.75 85.652344 16.726562 86 16.722656 86.015625 C 16.714844 86.117188 16.628906 86.195312 16.527344 86.195312 " fill-opacity="1" fill-rule="nonzero"/><path fill="#68535f" d="M 15.746094 85.730469 Z M 15.746094 85.730469 Z M 15.746094 85.730469 Z M 15.746094 85.730469 Z M 15.746094 85.730469 Z M 13.871094 86.457031 C 13.386719 86.457031 13.15625 86.367188 13.121094 86.351562 C 13.019531 86.308594 12.972656 86.195312 13.015625 86.09375 C 13.058594 85.996094 13.171875 85.949219 13.273438 85.992188 C 13.273438 85.992188 13.71875 86.160156 14.757812 85.976562 C 15.535156 85.84375 15.730469 85.703125 15.765625 85.671875 C 15.796875 85.597656 15.878906 85.550781 15.964844 85.558594 C 16.070312 85.570312 16.148438 85.667969 16.136719 85.777344 C 16.109375 86.023438 15.679688 86.214844 14.824219 86.363281 C 14.433594 86.433594 14.121094 86.457031 13.871094 86.457031 " fill-opacity="1" fill-rule="nonzero"/><path fill="#68535f" d="M 13.882812 85.632812 C 13.863281 85.632812 13.847656 85.628906 13.828125 85.625 L 12.550781 85.253906 C 12.449219 85.226562 12.386719 85.117188 12.417969 85.011719 C 12.449219 84.90625 12.554688 84.847656 12.660156 84.878906 L 13.9375 85.246094 C 14.039062 85.277344 14.101562 85.382812 14.070312 85.488281 C 14.046875 85.574219 13.96875 85.632812 13.882812 85.632812 " fill-opacity="1" fill-rule="nonzero"/><path fill="#68535f" d="M 12.484375 82.890625 C 12.421875 82.890625 12.363281 82.863281 12.324219 82.808594 C 12.261719 82.71875 12.28125 82.597656 12.371094 82.535156 C 12.417969 82.5 13.511719 81.726562 14.421875 81.726562 C 15.332031 81.726562 15.839844 82.09375 15.863281 82.109375 C 15.949219 82.171875 15.96875 82.296875 15.902344 82.382812 C 15.839844 82.46875 15.71875 82.488281 15.628906 82.425781 C 15.617188 82.417969 15.1875 82.117188 14.421875 82.117188 C 13.636719 82.117188 12.609375 82.847656 12.597656 82.855469 C 12.5625 82.878906 12.523438 82.890625 12.484375 82.890625 " fill-opacity="1" fill-rule="nonzero"/><path fill="#ff9f8f" d="M 42.238281 82.878906 C 42.238281 82.878906 49.539062 79.152344 53.949219 78.4375 C 58.363281 77.722656 62.976562 78.550781 67.585938 79.855469 C 72.195312 81.160156 83 79.933594 83.433594 81.0625 C 83.863281 82.191406 83.238281 93.933594 83.238281 93.933594 C 83.238281 93.933594 50.222656 95.210938 45.90625 93.933594 C 41.59375 92.65625 38.695312 88.332031 38.695312 88.332031 L 42.238281 82.878906 " fill-opacity="1" fill-rule="nonzero"/><path fill="#4b3a4a" d="M 51.542969 79.019531 C 51.542969 79.019531 54.785156 84.058594 54.933594 85.925781 C 55.078125 87.792969 53.019531 92.175781 53.410156 92.390625 C 53.804688 92.605469 71.832031 94.683594 72.785156 94.660156 C 73.738281 94.636719 75.878906 94.828125 75.972656 94.5 C 76.066406 94.171875 75.1875 87.203125 75.1875 85.289062 C 75.1875 83.371094 75.980469 80.523438 75.980469 80.523438 C 75.980469 80.523438 72.488281 80.523438 68.910156 79.492188 C 65.328125 78.460938 61.601562 76.75 57.972656 76.746094 C 54.34375 76.738281 51.542969 79.019531 51.542969 79.019531 " fill-opacity="1" fill-rule="nonzero"/><path fill="#4b3a4a" d="M 47.101562 93.144531 C 46.90625 92.96875 42.410156 88.78125 43.933594 84.582031 C 45.449219 80.402344 52.152344 78.871094 52.4375 78.808594 L 52.523438 79.191406 C 52.453125 79.207031 45.742188 80.738281 44.300781 84.714844 C 42.867188 88.671875 47.320312 92.8125 47.363281 92.855469 L 47.101562 93.144531 " fill-opacity="1" fill-rule="nonzero"/><path fill="#f7ddba" d="M 81.0625 80.566406 C 81.0625 80.566406 81.96875 88.363281 81.839844 89.675781 C 81.710938 90.984375 81.839844 93.851562 81.839844 93.851562 C 81.839844 93.851562 105.597656 93.671875 106.160156 93.851562 C 106.722656 94.03125 106.628906 79.773438 106.628906 79.773438 C 106.628906 79.773438 101.882812 78.390625 93.847656 78.4375 C 89.851562 78.460938 81.0625 80.566406 81.0625 80.566406 " fill-opacity="1" fill-rule="nonzero"/><path fill="#ff9f8f" d="M 46.390625 84.113281 C 46.390625 84.113281 45.179688 86.78125 45.539062 88.898438 C 46.128906 92.355469 48.980469 92.699219 52.40625 92.816406 C 55.828125 92.933594 73.871094 93.046875 73.871094 93.046875 C 73.871094 93.046875 71.617188 87.003906 71.421875 86.675781 C 71.226562 86.347656 46.390625 84.113281 46.390625 84.113281 " fill-opacity="1" fill-rule="nonzero"/><path fill="#ff9f8f" d="M 67.132812 86.675781 C 67.132812 86.675781 77.042969 85.90625 81.105469 86.460938 C 85.164062 87.015625 95.5625 89.527344 95.5625 89.527344 L 95.917969 93.089844 L 73.871094 93.046875 L 67.132812 86.675781 " fill-opacity="1" fill-rule="nonzero"/><path fill="#ff9f8f" d="M 93.941406 92.894531 C 93.941406 92.894531 95.242188 93.960938 97.347656 93.84375 C 98.59375 93.769531 99.007812 93.042969 99.785156 92.863281 C 100.566406 92.683594 102.414062 93.25 103.210938 93.472656 C 104.007812 93.691406 104.222656 93.148438 104.222656 93.148438 C 104.222656 93.148438 105.03125 93.570312 105.375 93.425781 C 105.722656 93.28125 106.003906 92.925781 105.582031 92.566406 C 105.15625 92.207031 103.433594 90.65625 101.027344 90.164062 C 98.625 89.671875 95.4375 89.519531 95.4375 89.519531 C 95.4375 89.519531 93.378906 91.332031 93.359375 91.414062 C 93.339844 91.492188 93.941406 92.894531 93.941406 92.894531 " fill-opacity="1" fill-rule="nonzero"/><path fill="#f57e6c" d="M 104.191406 93.125 C 104.144531 93.125 104.09375 93.109375 104.054688 93.070312 C 104.039062 93.054688 103.773438 92.828125 102.496094 92.292969 C 101.121094 91.710938 100.214844 91.367188 100.203125 91.363281 C 100.101562 91.324219 100.054688 91.210938 100.089844 91.109375 C 100.128906 91.007812 100.242188 90.957031 100.34375 90.996094 C 100.351562 91 101.265625 91.347656 102.648438 91.929688 C 104.015625 92.503906 104.292969 92.75 104.332031 92.792969 C 104.410156 92.871094 104.40625 92.996094 104.328125 93.070312 C 104.289062 93.109375 104.242188 93.125 104.191406 93.125 " fill-opacity="1" fill-rule="nonzero"/><path fill="#f7ddba" d="M 81.730469 81.054688 C 82.101562 80.703125 88.136719 74.734375 90.480469 72.804688 C 92.828125 70.878906 97.097656 67.339844 97.097656 67.339844 C 97.097656 67.339844 103.878906 77.667969 104.160156 79 C 104.445312 80.332031 105.085938 83.632812 104.84375 84.265625 C 104.597656 84.894531 81.730469 81.054688 81.730469 81.054688 " fill-opacity="1" fill-rule="nonzero"/><path fill="#f57e6c" d="M 53.691406 84.980469 C 53.6875 84.980469 53.679688 84.980469 53.675781 84.980469 L 48.804688 84.53125 C 48.699219 84.519531 48.617188 84.425781 48.628906 84.316406 C 48.636719 84.207031 48.734375 84.132812 48.839844 84.136719 L 53.710938 84.589844 C 53.820312 84.597656 53.898438 84.695312 53.886719 84.800781 C 53.878906 84.90625 53.792969 84.980469 53.691406 84.980469 " fill-opacity="1" fill-rule="nonzero"/><path fill="#f57e6c" d="M 80.914062 86.503906 Z M 81.105469 86.65625 C 81.039062 86.65625 80.980469 86.625 80.945312 86.574219 C 80.894531 86.542969 80.605469 86.390625 79.371094 86.269531 C 77.738281 86.109375 75.792969 86.265625 75.777344 86.269531 C 75.664062 86.277344 75.574219 86.199219 75.5625 86.089844 C 75.554688 85.980469 75.636719 85.886719 75.742188 85.878906 C 75.761719 85.875 77.742188 85.714844 79.40625 85.878906 C 81.21875 86.054688 81.273438 86.308594 81.296875 86.417969 C 81.320312 86.523438 81.253906 86.628906 81.148438 86.652344 C 81.132812 86.65625 81.117188 86.65625 81.105469 86.65625 " fill-opacity="1" fill-rule="nonzero"/><path fill="#f57e6c" d="M 116.597656 59.546875 C 116.546875 59.546875 116.5 59.527344 116.464844 59.496094 C 116.265625 59.414062 115.144531 59.175781 114.140625 58.988281 C 114.035156 58.964844 113.964844 58.863281 113.984375 58.757812 C 114.003906 58.652344 114.109375 58.582031 114.214844 58.601562 C 116.792969 59.089844 116.792969 59.160156 116.792969 59.351562 C 116.792969 59.460938 116.707031 59.546875 116.597656 59.546875 " fill-opacity="1" fill-rule="nonzero"/><path fill="#f57e6c" d="M 133.074219 83.617188 C 133.0625 83.617188 133.054688 83.617188 133.042969 83.613281 C 133.027344 83.613281 131.558594 83.351562 130.234375 83.15625 C 128.925781 82.964844 126.496094 82.976562 126.472656 82.976562 C 126.363281 82.976562 126.277344 82.890625 126.273438 82.78125 C 126.273438 82.675781 126.363281 82.585938 126.46875 82.585938 C 126.570312 82.585938 128.953125 82.570312 130.292969 82.769531 C 131.621094 82.960938 133.09375 83.222656 133.109375 83.226562 C 133.214844 83.246094 133.289062 83.347656 133.269531 83.457031 C 133.25 83.550781 133.167969 83.617188 133.074219 83.617188 " fill-opacity="1" fill-rule="nonzero"/><path fill="#f57e6c" d="M 129.742188 85.648438 C 129.648438 85.648438 129.570312 85.582031 129.550781 85.492188 C 129.527344 85.382812 129.597656 85.28125 129.703125 85.257812 L 131.761719 84.832031 C 131.867188 84.808594 131.96875 84.878906 131.992188 84.984375 C 132.015625 85.09375 131.945312 85.195312 131.839844 85.21875 L 129.78125 85.644531 C 129.769531 85.648438 129.753906 85.648438 129.742188 85.648438 " fill-opacity="1" fill-rule="nonzero"/><path fill="#f57e6c" d="M 160.082031 89.9375 C 160.074219 89.9375 160.066406 89.9375 160.058594 89.9375 L 158.75 89.773438 C 158.644531 89.757812 158.566406 89.660156 158.582031 89.550781 C 158.59375 89.445312 158.691406 89.367188 158.796875 89.382812 L 160.105469 89.546875 C 160.214844 89.558594 160.289062 89.660156 160.277344 89.765625 C 160.265625 89.867188 160.179688 89.9375 160.082031 89.9375 " fill-opacity="1" fill-rule="nonzero"/><path fill="#edc590" d="M 103.183594 78.871094 C 103.175781 78.871094 103.167969 78.871094 103.160156 78.867188 L 92.84375 77.503906 C 92.738281 77.488281 92.664062 77.390625 92.675781 77.28125 C 92.691406 77.175781 92.789062 77.097656 92.898438 77.113281 L 103.210938 78.476562 C 103.320312 78.492188 103.394531 78.589844 103.378906 78.699219 C 103.367188 78.796875 103.28125 78.871094 103.183594 78.871094 " fill-opacity="1" fill-rule="nonzero"/><path fill="#ff9f8f" d="M 142.859375 52.535156 C 142.859375 52.535156 141.980469 50.90625 135.128906 53.957031 C 128.464844 56.929688 119.03125 61.039062 119.03125 61.039062 L 123.210938 64.4375 C 123.210938 64.4375 137.496094 60.90625 141.894531 59.328125 C 145.652344 57.984375 144.675781 53.953125 144.675781 53.953125 L 142.859375 52.535156 " fill-opacity="1" fill-rule="nonzero"/><path fill="#ff9f8f" d="M 121.785156 60.328125 C 121.785156 60.328125 116.9375 58.617188 116.175781 58.621094 C 115.414062 58.625 113.789062 59.753906 113.097656 60.398438 C 112.410156 61.042969 111.835938 62.496094 111.914062 62.78125 C 111.992188 63.066406 111.335938 64.132812 111.886719 64.570312 C 112.4375 65.007812 112.242188 64.820312 113.078125 64.824219 C 113.609375 64.824219 116.34375 63.597656 116.34375 63.597656 C 116.34375 63.597656 119.066406 64.535156 120.789062 64.605469 C 122.160156 64.65625 123.210938 64.4375 123.210938 64.4375 L 124.28125 62.199219 L 121.785156 60.328125 " fill-opacity="1" fill-rule="nonzero"/><path fill="#f57e6c" d="M 112.300781 62.160156 C 112.253906 62.160156 112.203125 62.140625 112.164062 62.101562 C 112.089844 62.027344 112.085938 61.902344 112.164062 61.824219 C 112.207031 61.777344 113.277344 60.707031 114.394531 60.144531 C 115.523438 59.578125 116.117188 59.535156 116.140625 59.535156 C 116.246094 59.53125 116.34375 59.609375 116.351562 59.71875 C 116.355469 59.828125 116.273438 59.921875 116.164062 59.925781 C 116.160156 59.925781 115.613281 59.972656 114.570312 60.496094 C 113.511719 61.027344 112.453125 62.089844 112.441406 62.101562 C 112.402344 62.140625 112.351562 62.160156 112.300781 62.160156 " fill-opacity="1" fill-rule="nonzero"/><path fill="#f57e6c" d="M 112.0625 63.53125 C 112.019531 63.53125 111.976562 63.515625 111.941406 63.488281 C 111.855469 63.421875 111.84375 63.296875 111.910156 63.210938 C 111.9375 63.179688 112.5625 62.398438 113.566406 61.8125 C 114.558594 61.234375 116.148438 60.832031 116.214844 60.816406 C 116.320312 60.789062 116.425781 60.855469 116.453125 60.960938 C 116.476562 61.066406 116.414062 61.171875 116.308594 61.199219 C 116.292969 61.203125 114.707031 61.605469 113.761719 62.152344 C 112.824219 62.699219 112.222656 63.449219 112.21875 63.457031 C 112.179688 63.503906 112.121094 63.53125 112.0625 63.53125 " fill-opacity="1" fill-rule="nonzero"/><path fill="#f57e6c" d="M 112.523438 64.542969 C 112.480469 64.542969 112.433594 64.527344 112.398438 64.496094 C 112.3125 64.425781 112.304688 64.300781 112.375 64.21875 C 112.402344 64.183594 113.117188 63.355469 114.527344 62.816406 C 115.90625 62.292969 116.613281 62.132812 116.640625 62.125 C 116.746094 62.101562 116.851562 62.167969 116.875 62.273438 C 116.898438 62.378906 116.832031 62.484375 116.726562 62.511719 C 116.71875 62.511719 116.015625 62.671875 114.667969 63.183594 C 113.347656 63.6875 112.679688 64.464844 112.675781 64.472656 C 112.636719 64.519531 112.578125 64.542969 112.523438 64.542969 " fill-opacity="1" fill-rule="nonzero"/><path fill="#ff9f8f" d="M 88.773438 54.605469 C 88.773438 54.605469 89.945312 53.171875 96.09375 57.464844 C 102.078125 61.644531 105.757812 64.535156 105.757812 64.535156 L 102.140625 66.21875 C 102.140625 66.21875 92.464844 63.839844 88.441406 61.460938 C 85.007812 59.429688 86.722656 55.65625 86.722656 55.65625 L 88.773438 54.605469 " fill-opacity="1" fill-rule="nonzero"/><path fill="#789592" d="M 142.128906 43.089844 L 137.433594 46.578125 L 132.203125 50.113281 L 130.726562 51.113281 L 122.449219 27.148438 C 122.449219 27.148438 128.597656 26.617188 131.910156 29.613281 C 133.777344 31.304688 142.128906 43.089844 142.128906 43.089844 " fill-opacity="1" fill-rule="nonzero"/><path fill="#ff9f8f" d="M 105.398438 61.316406 C 105.398438 61.316406 103.484375 60.476562 102.847656 60.847656 C 102.210938 61.21875 102.199219 61.050781 101.558594 61.523438 C 100.921875 61.996094 100.4375 62.847656 100.390625 63.335938 C 100.347656 63.820312 99.839844 65.003906 100.101562 65.589844 C 100.363281 66.175781 101.472656 67.015625 102.160156 67.113281 C 102.847656 67.210938 106.238281 66.570312 106.332031 66.226562 C 106.429688 65.882812 105.398438 61.316406 105.398438 61.316406 " fill-opacity="1" fill-rule="nonzero"/><path fill="#f57e6c" d="M 94.46875 56.585938 C 94.4375 56.585938 94.40625 56.578125 94.375 56.558594 L 92.074219 55.289062 C 91.980469 55.238281 91.945312 55.117188 91.996094 55.023438 C 92.046875 54.929688 92.167969 54.894531 92.261719 54.945312 L 94.566406 56.21875 C 94.660156 56.269531 94.695312 56.386719 94.640625 56.484375 C 94.605469 56.546875 94.539062 56.585938 94.46875 56.585938 " fill-opacity="1" fill-rule="nonzero"/><path fill="#f57e6c" d="M 103.113281 67.039062 C 102.273438 67.039062 101.480469 66.683594 100.871094 66.367188 C 100.777344 66.316406 100.660156 66.269531 100.535156 66.222656 C 100.097656 66.042969 99.550781 65.824219 99.425781 65.324219 C 99.417969 65.285156 99.410156 65.246094 99.40625 65.207031 C 99.410156 65.125 99.503906 64.09375 99.726562 63.566406 C 99.804688 63.378906 99.835938 63.253906 99.867188 63.132812 C 99.917969 62.929688 99.964844 62.734375 100.195312 62.375 C 100.5625 61.796875 101.203125 61.40625 101.234375 61.390625 C 101.324219 61.335938 101.445312 61.367188 101.5 61.457031 C 101.554688 61.550781 101.527344 61.671875 101.433594 61.726562 C 101.429688 61.730469 100.84375 62.085938 100.527344 62.585938 C 100.332031 62.894531 100.292969 63.042969 100.246094 63.230469 C 100.214844 63.359375 100.175781 63.507812 100.085938 63.71875 C 99.890625 64.191406 99.796875 65.191406 99.796875 65.203125 C 99.796875 65.183594 99.800781 65.207031 99.808594 65.226562 C 99.882812 65.53125 100.308594 65.703125 100.683594 65.855469 C 100.820312 65.910156 100.949219 65.964844 101.054688 66.019531 C 101.660156 66.335938 102.457031 66.6875 103.265625 66.640625 C 103.515625 66.625 103.917969 66.273438 104.167969 65.945312 C 104.230469 65.863281 104.347656 65.84375 104.433594 65.90625 C 104.441406 65.910156 104.445312 65.914062 104.449219 65.917969 C 104.558594 65.949219 104.867188 66.007812 104.933594 66.011719 C 105.214844 66.007812 105.605469 65.902344 105.777344 65.710938 C 105.847656 65.632812 105.878906 65.546875 105.867188 65.445312 C 105.839844 65.113281 106.054688 64.960938 106.214844 64.851562 C 106.328125 64.773438 106.433594 64.699219 106.496094 64.5625 C 106.75 64 106.253906 63.546875 106.234375 63.523438 C 106.195312 63.488281 106.171875 63.4375 106.167969 63.386719 C 106.167969 63.332031 106.1875 63.28125 106.226562 63.242188 C 106.5 62.960938 106.824219 62.46875 106.714844 62.289062 C 106.5625 62.046875 105.601562 61.5625 104.964844 61.300781 C 104.863281 61.257812 104.816406 61.144531 104.855469 61.042969 C 104.898438 60.941406 105.015625 60.894531 105.113281 60.9375 C 105.390625 61.050781 106.777344 61.644531 107.046875 62.085938 C 107.304688 62.503906 106.878906 63.09375 106.632812 63.378906 C 106.863281 63.664062 107.101562 64.171875 106.851562 64.722656 C 106.746094 64.957031 106.574219 65.078125 106.4375 65.175781 C 106.28125 65.285156 106.25 65.316406 106.257812 65.40625 C 106.277344 65.617188 106.210938 65.816406 106.070312 65.972656 C 105.792969 66.28125 105.28125 66.398438 104.925781 66.40625 C 104.921875 66.40625 104.609375 66.378906 104.378906 66.304688 C 104.179688 66.539062 103.726562 67.003906 103.292969 67.03125 C 103.230469 67.035156 103.171875 67.039062 103.113281 67.039062 " fill-opacity="1" fill-rule="nonzero"/><path fill="#f57e6c" d="M 106.367188 63.574219 C 106.34375 63.574219 106.320312 63.574219 106.300781 63.566406 L 102.425781 62.222656 C 102.324219 62.1875 102.273438 62.074219 102.304688 61.972656 C 102.34375 61.871094 102.453125 61.816406 102.554688 61.851562 L 106.429688 63.195312 C 106.53125 63.230469 106.585938 63.339844 106.550781 63.445312 C 106.523438 63.523438 106.445312 63.574219 106.367188 63.574219 " fill-opacity="1" fill-rule="nonzero"/><path fill="#f57e6c" d="M 105.972656 65.195312 C 105.945312 65.195312 105.917969 65.1875 105.890625 65.175781 C 105.871094 65.167969 104.0625 64.324219 103.121094 64.046875 C 102.183594 63.773438 101.84375 63.71875 101.839844 63.71875 C 101.734375 63.703125 101.660156 63.601562 101.675781 63.496094 C 101.691406 63.386719 101.792969 63.3125 101.898438 63.332031 C 101.914062 63.332031 102.261719 63.386719 103.230469 63.671875 C 104.203125 63.957031 105.980469 64.785156 106.054688 64.820312 C 106.152344 64.867188 106.195312 64.984375 106.152344 65.082031 C 106.117188 65.152344 106.046875 65.195312 105.972656 65.195312 " fill-opacity="1" fill-rule="nonzero"/><path fill="#f57e6c" d="M 104.324219 66.261719 C 104.296875 66.261719 104.273438 66.257812 104.25 66.25 L 101.492188 65.183594 C 101.394531 65.144531 101.34375 65.027344 101.382812 64.925781 C 101.421875 64.828125 101.535156 64.777344 101.636719 64.816406 L 104.390625 65.882812 C 104.496094 65.921875 104.542969 66.035156 104.503906 66.136719 C 104.476562 66.214844 104.402344 66.261719 104.324219 66.261719 " fill-opacity="1" fill-rule="nonzero"/><path fill="#f57e6c" d="M 112.910156 65.027344 C 112.441406 65.027344 112.199219 64.847656 112.183594 64.835938 L 111.398438 64.125 C 111.359375 64.082031 111.273438 63.96875 111.125 63.597656 C 110.96875 63.199219 111.328125 62.3125 111.46875 61.992188 C 111.472656 61.820312 111.523438 61.21875 111.9375 60.859375 C 112.175781 60.652344 115.042969 58.359375 115.890625 58.246094 C 116.6875 58.144531 117.796875 58.796875 117.84375 58.828125 C 117.9375 58.882812 117.96875 59.003906 117.914062 59.09375 C 117.859375 59.1875 117.738281 59.21875 117.644531 59.164062 C 117.632812 59.160156 116.605469 58.546875 115.945312 58.636719 C 115.320312 58.71875 112.761719 60.664062 112.191406 61.15625 C 111.859375 61.445312 111.859375 62.027344 111.859375 62.03125 L 111.863281 62.078125 L 111.84375 62.117188 C 111.617188 62.617188 111.417969 63.269531 111.492188 63.453125 C 111.617188 63.765625 111.679688 63.855469 111.683594 63.855469 L 112.433594 64.535156 C 112.4375 64.535156 112.8125 64.789062 113.601562 64.496094 C 114.507812 64.160156 116.25 63.425781 116.269531 63.417969 L 116.347656 63.382812 L 116.425781 63.417969 C 116.445312 63.425781 118.175781 64.222656 119.414062 64.464844 C 120.636719 64.699219 121.613281 64.539062 121.625 64.535156 C 121.730469 64.515625 121.832031 64.589844 121.851562 64.695312 C 121.867188 64.804688 121.796875 64.90625 121.6875 64.921875 C 121.644531 64.929688 120.632812 65.097656 119.339844 64.847656 C 118.195312 64.628906 116.703125 63.976562 116.339844 63.8125 C 115.988281 63.960938 114.539062 64.566406 113.738281 64.863281 C 113.410156 64.984375 113.136719 65.027344 112.910156 65.027344 " fill-opacity="1" fill-rule="nonzero"/><path fill="#ff9f8f" d="M 109.3125 32.519531 C 109.3125 32.519531 113.953125 38.128906 114.164062 38.128906 C 114.375 38.128906 117.378906 30.117188 117.378906 30.117188 L 112.523438 31.746094 L 109.3125 32.519531 " fill-opacity="1" fill-rule="nonzero"/><path fill="#f2ebeb" d="M 109.015625 35.550781 C 108.941406 35.550781 108.867188 35.507812 108.835938 35.429688 C 108.792969 35.332031 108.839844 35.214844 108.941406 35.171875 C 108.972656 35.160156 109.730469 34.84375 110.382812 34.863281 C 111.054688 34.890625 111.421875 35.191406 111.433594 35.203125 C 111.515625 35.273438 111.527344 35.398438 111.457031 35.480469 C 111.386719 35.5625 111.265625 35.574219 111.179688 35.503906 C 111.179688 35.503906 110.898438 35.277344 110.367188 35.257812 C 109.808594 35.222656 109.101562 35.53125 109.09375 35.535156 C 109.070312 35.546875 109.042969 35.550781 109.015625 35.550781 " fill-opacity="1" fill-rule="nonzero"/><path fill="#f2ebeb" d="M 115.867188 34.886719 C 115.839844 34.886719 115.808594 34.878906 115.78125 34.867188 C 115.683594 34.816406 115.644531 34.699219 115.695312 34.601562 C 115.707031 34.578125 116.023438 33.953125 116.585938 33.65625 C 117.136719 33.371094 118.007812 33.339844 118.046875 33.339844 C 118.15625 33.34375 118.246094 33.421875 118.246094 33.53125 C 118.25 33.640625 118.164062 33.730469 118.058594 33.734375 C 118.050781 33.734375 117.238281 33.761719 116.769531 34.003906 C 116.320312 34.242188 116.046875 34.773438 116.042969 34.777344 C 116.011719 34.847656 115.941406 34.886719 115.867188 34.886719 " fill-opacity="1" fill-rule="nonzero"/><path fill="#f2ebeb" d="M 114.742188 40.464844 C 114.648438 40.464844 114.570312 40.398438 114.550781 40.308594 L 114.164062 38.515625 C 114.140625 38.410156 114.210938 38.304688 114.316406 38.28125 C 114.421875 38.261719 114.527344 38.324219 114.550781 38.433594 L 114.933594 40.226562 C 114.957031 40.332031 114.886719 40.433594 114.78125 40.457031 C 114.769531 40.460938 114.753906 40.464844 114.742188 40.464844 " fill-opacity="1" fill-rule="nonzero"/><path fill="#f57e6c" d="M 136.8125 53.449219 C 136.734375 53.449219 136.65625 53.398438 136.628906 53.320312 C 136.589844 53.21875 136.644531 53.105469 136.746094 53.070312 L 138.269531 52.527344 C 138.371094 52.488281 138.484375 52.542969 138.519531 52.644531 C 138.554688 52.746094 138.503906 52.859375 138.402344 52.894531 L 136.878906 53.4375 C 136.859375 53.445312 136.835938 53.449219 136.8125 53.449219 " fill-opacity="1" fill-rule="nonzero"/><path fill="#547672" d="M 132.714844 48.738281 C 132.628906 48.738281 132.550781 48.679688 132.527344 48.59375 C 132.414062 48.179688 129.839844 38.390625 129.773438 35.84375 C 129.707031 33.296875 130.359375 30.109375 130.367188 30.074219 C 130.386719 29.96875 130.492188 29.898438 130.597656 29.925781 C 130.703125 29.945312 130.773438 30.050781 130.75 30.15625 C 130.742188 30.1875 130.101562 33.332031 130.164062 35.832031 C 130.230469 38.335938 132.878906 48.390625 132.90625 48.492188 C 132.933594 48.597656 132.871094 48.707031 132.765625 48.734375 C 132.75 48.738281 132.730469 48.738281 132.714844 48.738281 " fill-opacity="1" fill-rule="nonzero"/><path fill="#547672" d="M 102.140625 52.84375 C 102.054688 52.84375 101.976562 52.789062 101.953125 52.703125 C 101.9375 52.640625 100.230469 46.667969 99.835938 44.71875 C 99.441406 42.78125 98.136719 37.96875 98.125 37.917969 C 98.097656 37.816406 98.15625 37.707031 98.261719 37.679688 C 98.367188 37.652344 98.476562 37.710938 98.503906 37.816406 C 98.515625 37.863281 99.824219 42.691406 100.21875 44.640625 C 100.613281 46.574219 102.3125 52.535156 102.332031 52.59375 C 102.359375 52.699219 102.300781 52.804688 102.195312 52.835938 C 102.179688 52.839844 102.160156 52.84375 102.140625 52.84375 " fill-opacity="1" fill-rule="nonzero"/><path fill="#547672" d="M 100.390625 48.738281 C 100.3125 48.738281 100.238281 48.691406 100.207031 48.609375 C 99.882812 47.726562 97.019531 39.953125 96.964844 39.753906 C 96.9375 39.648438 96.996094 39.542969 97.101562 39.511719 C 97.207031 39.484375 97.3125 39.542969 97.34375 39.648438 C 97.40625 39.855469 99.484375 45.511719 100.578125 48.476562 C 100.613281 48.578125 100.5625 48.691406 100.460938 48.726562 C 100.4375 48.734375 100.414062 48.738281 100.390625 48.738281 " fill-opacity="1" fill-rule="nonzero"/><path fill="#547672" d="M 132.714844 47.199219 C 132.617188 47.199219 132.53125 47.125 132.519531 47.023438 C 132.519531 47.023438 132.128906 43.390625 131.714844 39.351562 C 131.304688 35.332031 131.710938 32.367188 131.714844 32.339844 C 131.730469 32.230469 131.832031 32.15625 131.9375 32.171875 C 132.042969 32.1875 132.121094 32.285156 132.105469 32.394531 C 132.101562 32.421875 131.699219 35.34375 132.105469 39.308594 C 132.519531 43.347656 132.910156 46.980469 132.910156 46.980469 C 132.921875 47.089844 132.84375 47.1875 132.738281 47.199219 C 132.730469 47.199219 132.722656 47.199219 132.714844 47.199219 " fill-opacity="1" fill-rule="nonzero"/><path fill="#f2e4e4" d="M 40.132812 93.28125 C 39.691406 92.292969 39.257812 91.214844 38.433594 90.476562 C 37.082031 89.265625 35.066406 89.238281 33.363281 89.046875 C 31.269531 88.808594 29.171875 88.601562 27.074219 88.433594 C 21.960938 88.015625 16.828125 87.796875 11.699219 87.796875 C 9.488281 87.796875 6.96875 88.046875 5.253906 89.589844 C 4.042969 90.679688 3.058594 92.453125 4.304688 93.878906 C 4.707031 94.347656 5.304688 94.640625 5.960938 94.839844 C 6.273438 94.847656 6.59375 94.847656 6.917969 94.847656 C 7.613281 94.847656 8.285156 94.960938 8.972656 94.957031 C 9.683594 94.953125 10.347656 94.800781 11.046875 94.675781 C 12.589844 94.402344 14.527344 94.386719 15.90625 95.289062 C 17.015625 96.015625 18.148438 96.558594 19.464844 96.734375 C 21.269531 96.980469 23.128906 97.097656 24.941406 96.847656 C 25.953125 96.710938 26.957031 96.390625 27.972656 96.332031 C 28.855469 96.28125 29.691406 96.300781 30.574219 96.335938 C 31.433594 96.367188 32.304688 96.320312 33.167969 96.328125 C 34.027344 96.332031 34.808594 96.152344 35.65625 96.117188 C 36.367188 96.085938 37.0625 96.285156 37.777344 96.226562 C 38.355469 96.183594 39.25 95.914062 39.835938 96.097656 C 39.835938 96.222656 39.929688 96.351562 40.078125 96.320312 C 40.105469 96.3125 40.132812 96.308594 40.160156 96.300781 C 40.21875 96.289062 40.285156 96.222656 40.296875 96.152344 C 40.460938 94.921875 40.632812 94.394531 40.132812 93.28125 " fill-opacity="1" fill-rule="nonzero"/><path fill="#685653" d="M 182.105469 105.535156 L 11.269531 105.535156 C 7.882812 105.535156 5.140625 102.789062 5.140625 99.394531 L 5.140625 96.59375 L 188.234375 96.59375 L 188.234375 99.394531 C 188.234375 102.789062 185.492188 105.535156 182.105469 105.535156 " fill-opacity="1" fill-rule="nonzero"/><g clip-path="url(#5bc1effcb4)"><path fill="#decece" d="M 70.703125 101.015625 L 3.726562 101.015625 C 1.796875 101.015625 0.234375 99.449219 0.234375 97.519531 L 0.234375 95.671875 C 0.234375 93.738281 1.796875 92.175781 3.726562 92.175781 L 70.703125 92.175781 C 72.628906 92.175781 74.191406 93.738281 74.191406 95.671875 L 74.191406 97.519531 C 74.191406 99.449219 72.628906 101.015625 70.703125 101.015625 " fill-opacity="1" fill-rule="nonzero"/></g><path fill="#decece" d="M 113.859375 101.015625 L 77.683594 101.015625 C 75.757812 101.015625 74.191406 99.449219 74.191406 97.519531 L 74.191406 95.671875 C 74.191406 93.738281 75.757812 92.175781 77.683594 92.175781 L 113.859375 92.175781 C 115.789062 92.175781 117.351562 93.738281 117.351562 95.671875 L 117.351562 97.519531 C 117.351562 99.449219 115.789062 101.015625 113.859375 101.015625 " fill-opacity="1" fill-rule="nonzero"/><g clip-path="url(#55f4acedb1)"><path fill="#decece" d="M 191.152344 101.015625 L 120.84375 101.015625 C 118.914062 101.015625 117.351562 99.449219 117.351562 97.519531 L 117.351562 95.671875 C 117.351562 93.738281 118.914062 92.175781 120.84375 92.175781 L 191.152344 92.175781 C 193.082031 92.175781 194.644531 93.738281 194.644531 95.671875 L 194.644531 97.519531 C 194.644531 99.449219 193.082031 101.015625 191.152344 101.015625 " fill-opacity="1" fill-rule="nonzero"/></g><g clip-path="url(#b128470d53)"><path fill="#685653" d="M 17.105469 166.414062 L 11.417969 166.414062 L 11.417969 102.980469 L 17.105469 102.980469 L 17.105469 166.414062 " fill-opacity="1" fill-rule="nonzero"/></g><g clip-path="url(#d522f95863)"><path fill="#685653" d="M 176.007812 166.414062 L 181.699219 166.414062 L 181.699219 102.980469 L 176.007812 102.980469 L 176.007812 166.414062 " fill-opacity="1" fill-rule="nonzero"/></g><path fill="#685653" d="M 177.382812 113.425781 L 15.929688 113.425781 L 15.929688 111.363281 L 177.382812 111.363281 L 177.382812 113.425781 " fill-opacity="1" fill-rule="nonzero"/><path fill="#685653" d="M 177.226562 147.523438 L 15.773438 147.523438 L 15.773438 145.460938 L 177.226562 145.460938 L 177.226562 147.523438 " fill-opacity="1" fill-rule="nonzero"/><path fill="#cbd4e6" d="M 46.417969 145.460938 L 21.371094 145.460938 C 20.714844 145.460938 20.1875 144.929688 20.1875 144.277344 L 20.1875 130.042969 C 20.1875 129.390625 20.714844 128.859375 21.371094 128.859375 L 46.417969 128.859375 C 47.070312 128.859375 47.601562 129.390625 47.601562 130.042969 L 47.601562 144.277344 C 47.601562 144.929688 47.070312 145.460938 46.417969 145.460938 " fill-opacity="1" fill-rule="nonzero"/><path fill="#bec7d7" d="M 30.9375 126.648438 C 30.433594 126.648438 30.019531 127.0625 30.019531 127.570312 L 30.019531 128.96875 C 30.019531 129.476562 30.433594 129.890625 30.9375 129.890625 L 36.847656 129.890625 C 37.355469 129.890625 37.769531 129.476562 37.769531 128.96875 L 37.769531 127.570312 C 37.769531 127.0625 37.355469 126.648438 36.847656 126.648438 Z M 36.847656 130.675781 L 30.9375 130.675781 C 30 130.675781 29.234375 129.910156 29.234375 128.96875 L 29.234375 127.570312 C 29.234375 126.628906 30 125.863281 30.9375 125.863281 L 36.847656 125.863281 C 37.789062 125.863281 38.554688 126.628906 38.554688 127.570312 L 38.554688 128.96875 C 38.554688 129.910156 37.789062 130.675781 36.847656 130.675781 " fill-opacity="1" fill-rule="nonzero"/><path fill="#cbd4e6" d="M 36.898438 127.164062 L 30.886719 127.164062 C 30.679688 127.164062 30.511719 126.996094 30.511719 126.785156 L 30.511719 125.800781 C 30.511719 125.589844 30.679688 125.421875 30.886719 125.421875 L 36.898438 125.421875 C 37.109375 125.421875 37.277344 125.589844 37.277344 125.800781 L 37.277344 126.785156 C 37.277344 126.996094 37.109375 127.164062 36.898438 127.164062 " fill-opacity="1" fill-rule="nonzero"/><path fill="#ffffff" d="M 23.242188 130.480469 C 22.527344 130.480469 21.941406 131.0625 21.941406 131.78125 L 21.941406 142.539062 C 21.941406 143.257812 22.527344 143.839844 23.242188 143.839844 L 44.546875 143.839844 C 45.261719 143.839844 45.84375 143.257812 45.84375 142.539062 L 45.84375 131.78125 C 45.84375 131.0625 45.261719 130.480469 44.546875 130.480469 Z M 44.546875 144.234375 L 23.242188 144.234375 C 22.308594 144.234375 21.550781 143.472656 21.550781 142.539062 L 21.550781 131.78125 C 21.550781 130.847656 22.308594 130.085938 23.242188 130.085938 L 44.546875 130.085938 C 45.476562 130.085938 46.238281 130.847656 46.238281 131.78125 L 46.238281 142.539062 C 46.238281 143.472656 45.476562 144.234375 44.546875 144.234375 " fill-opacity="1" fill-rule="nonzero"/><path fill="#ffffff" d="M 39.132812 137.160156 C 39.132812 134.339844 36.851562 132.050781 34.03125 132.050781 C 31.214844 132.050781 28.933594 134.339844 28.933594 137.160156 C 28.933594 139.980469 31.214844 142.269531 34.03125 142.269531 C 36.851562 142.269531 39.132812 139.980469 39.132812 137.160156 " fill-opacity="1" fill-rule="nonzero"/><path fill="#cbd4e6" d="M 35.097656 140.453125 L 32.96875 140.453125 L 32.96875 133.871094 L 35.097656 133.871094 L 35.097656 140.453125 " fill-opacity="1" fill-rule="nonzero"/><path fill="#cbd4e6" d="M 30.746094 138.226562 L 30.746094 136.097656 L 37.320312 136.097656 L 37.320312 138.226562 L 30.746094 138.226562 " fill-opacity="1" fill-rule="nonzero"/></svg>