<svg xmlns="http://www.w3.org/2000/svg" xmlns:xlink="http://www.w3.org/1999/xlink" width="260" zoomAndPan="magnify" viewBox="0 0 194.87999 172.499995" height="230" preserveAspectRatio="xMidYMid meet" version="1.0"><defs><clipPath id="179b480f6e"><path d="M 0.222656 0 L 194.539062 0 L 194.539062 172 L 0.222656 172 Z M 0.222656 0 " clip-rule="nonzero"/></clipPath><clipPath id="197e2eb3ce"><path d="M 4.839844 96 L 44 96 L 44 108 L 4.839844 108 Z M 4.839844 96 " clip-rule="nonzero"/></clipPath><clipPath id="704aac78c1"><path d="M 157.480469 96.40625 L 190.304688 96.40625 L 190.304688 107.09375 L 157.480469 107.09375 Z M 157.480469 96.40625 " clip-rule="nonzero"/></clipPath><clipPath id="59971449e7"><path d="M 18.222656 170.109375 L 23.351562 170.109375 L 23.351562 171.984375 L 18.222656 171.984375 Z M 18.222656 170.109375 " clip-rule="nonzero"/></clipPath><clipPath id="b32358f922"><path d="M 171 170.109375 L 176.097656 170.109375 L 176.097656 171.984375 L 171 171.984375 Z M 171 170.109375 " clip-rule="nonzero"/></clipPath></defs><g clip-path="url(#179b480f6e)"><path fill="#ffffff" d="M 0.222656 0 L 194.65625 0 L 194.65625 172 L 0.222656 172 Z M 0.222656 0 " fill-opacity="1" fill-rule="nonzero"/><path fill="#ffffff" d="M 0.222656 0 L 194.65625 0 L 194.65625 172 L 0.222656 172 Z M 0.222656 0 " fill-opacity="1" fill-rule="nonzero"/></g><path fill="#ffe9de" d="M 87.203125 163.667969 C 87.203125 163.667969 87.964844 170.871094 87.203125 171.199219 C 86.4375 171.523438 75.335938 171.933594 74.824219 171.441406 C 74.3125 170.953125 75.164062 168.796875 77.117188 168.058594 C 79.578125 167.132812 81.710938 166.429688 82.363281 166.058594 C 83.019531 165.691406 82.746094 163.667969 82.746094 163.667969 L 87.203125 163.667969 " fill-opacity="1" fill-rule="nonzero"/><path fill="#5c3d32" d="M 75.21875 75.253906 C 75.21875 75.253906 77.050781 159.5 77.273438 161.828125 C 77.496094 164.15625 79.484375 164.773438 82.785156 165.039062 C 88.007812 165.460938 90.234375 163.898438 90.472656 162.863281 C 90.707031 161.828125 90.78125 76.292969 90.78125 76.292969 L 75.21875 75.253906 " fill-opacity="1" fill-rule="nonzero"/><path fill="#ffe9de" d="M 98.402344 163.667969 C 98.402344 163.667969 97.636719 170.871094 98.402344 171.199219 C 99.167969 171.523438 110.269531 171.933594 110.78125 171.441406 C 111.292969 170.953125 110.441406 168.796875 108.484375 168.058594 C 106.027344 167.132812 103.894531 166.429688 103.238281 166.058594 C 102.582031 165.691406 102.855469 163.667969 102.855469 163.667969 L 98.402344 163.667969 " fill-opacity="1" fill-rule="nonzero"/><path fill="#5c3d32" d="M 107.253906 74.386719 C 107.253906 74.386719 108.554688 159.5 108.332031 161.828125 C 108.109375 164.15625 106.121094 164.773438 102.820312 165.039062 C 97.597656 165.460938 95.367188 163.898438 95.132812 162.863281 C 94.894531 161.828125 90.78125 75.253906 90.78125 75.253906 L 107.253906 74.386719 " fill-opacity="1" fill-rule="nonzero"/><path fill="#f7936a" d="M 106.921875 35.335938 C 106.921875 35.335938 111.765625 36.746094 113.871094 37.136719 C 115.972656 37.527344 121.125 37.96875 122.371094 35.449219 C 123.613281 32.933594 121.601562 30.640625 118.472656 29.230469 C 115.34375 27.820312 109.230469 26.625 109.230469 26.625 L 106.921875 35.335938 " fill-opacity="1" fill-rule="nonzero"/><path fill="#f7936a" d="M 107.449219 43.558594 C 107.449219 43.558594 109.976562 53.195312 109.886719 54.753906 C 109.800781 56.308594 109.199219 58.136719 106.234375 58.601562 C 103.265625 59.070312 100.847656 55.964844 100.847656 55.964844 C 100.847656 55.964844 99.976562 45.25 100.230469 45.046875 C 100.484375 44.847656 107.449219 43.558594 107.449219 43.558594 " fill-opacity="1" fill-rule="nonzero"/><path fill="#8997b0" d="M 87.4375 24.539062 C 87.4375 24.539062 91.898438 19.863281 97.328125 21.023438 C 100.1875 21.632812 113.125 26.578125 113.285156 27.160156 C 113.777344 28.96875 109.714844 37.292969 109.714844 37.292969 C 109.714844 37.292969 90.699219 28.449219 90.664062 27.839844 C 90.632812 27.230469 87.4375 24.539062 87.4375 24.539062 " fill-opacity="1" fill-rule="nonzero"/><path fill="#ffaf8f" d="M 119.976562 37.121094 C 118.953125 37.410156 116.136719 38.207031 112.945312 33.578125 C 108.546875 27.203125 101.53125 20.09375 101.53125 20.09375 C 101.53125 20.09375 100.949219 14.28125 101.753906 14.613281 C 102.5625 14.945312 108.171875 17.878906 119.003906 26.535156 C 124.496094 30.925781 124.765625 35.785156 119.976562 37.121094 " fill-opacity="1" fill-rule="nonzero"/><path fill="#a7b3c9" d="M 70.398438 28.742188 C 70.398438 28.742188 78.988281 23.433594 82.601562 22.394531 C 89.707031 20.355469 96.773438 21.769531 98.222656 22.574219 C 99.667969 23.375 101.292969 44.046875 101.324219 47.671875 C 101.359375 51.292969 101.523438 62.367188 102.972656 65.621094 C 104.421875 68.875 106.636719 81.578125 104.453125 82.34375 C 102.273438 83.105469 76.714844 87.042969 73.441406 82.535156 C 73.328125 82.382812 73.25 62.5 71.90625 51.191406 C 70.695312 41.007812 70.398438 28.742188 70.398438 28.742188 " fill-opacity="1" fill-rule="nonzero"/><path fill="#ffaf8f" d="M 86.972656 23.554688 L 85.820312 26.519531 L 82.914062 28.558594 L 78.917969 25.808594 L 78.496094 24.714844 L 77.242188 21.503906 C 77.242188 21.5 77.242188 21.5 77.242188 21.5 L 76.882812 20.578125 L 79.488281 20.691406 L 85.25 18.222656 L 86.972656 23.554688 " fill-opacity="1" fill-rule="nonzero"/><path fill="#ffaf8f" d="M 70.75 9.734375 C 70.75 9.734375 74.433594 18.421875 75.164062 19.660156 C 76.519531 21.953125 80.957031 23.03125 82.175781 22.675781 C 82.886719 22.46875 86.558594 19.277344 86.046875 15.785156 C 85.875 14.601562 83.597656 4.757812 83.523438 4.652344 C 83.449219 4.542969 75.535156 3.3125 75.535156 3.3125 L 70.75 9.734375 " fill-opacity="1" fill-rule="nonzero"/><path fill="#4d3932" d="M 76.179688 14.464844 C 76.125 14.234375 75.972656 13.992188 75.851562 13.925781 C 75.746094 13.871094 75.609375 13.816406 75.492188 13.878906 C 75.09375 14.097656 75.59375 14.949219 75.964844 14.917969 C 76.203125 14.898438 76.234375 14.691406 76.179688 14.464844 " fill-opacity="1" fill-rule="nonzero"/><path fill="#4d3932" d="M 82.980469 12.070312 C 82.925781 11.832031 82.773438 11.574219 82.648438 11.503906 C 82.539062 11.441406 82.398438 11.382812 82.277344 11.445312 C 81.855469 11.667969 82.359375 12.558594 82.746094 12.539062 C 82.992188 12.523438 83.03125 12.304688 82.980469 12.070312 " fill-opacity="1" fill-rule="nonzero"/><path fill="#f7936a" d="M 80.804688 16.167969 C 80.792969 15.695312 79.210938 13.425781 78.917969 13.695312 C 78.765625 13.839844 79.0625 15.550781 79.125 16.152344 C 79.144531 16.359375 79.1875 16.566406 79.304688 16.734375 C 79.558594 17.105469 80.136719 17.070312 80.464844 16.820312 C 80.71875 16.621094 80.8125 16.398438 80.804688 16.167969 " fill-opacity="1" fill-rule="nonzero"/><path fill="#ffaf8f" d="M 84.472656 9.308594 C 84.472656 9.308594 85.636719 8.453125 86.144531 10.15625 C 86.652344 11.863281 85.460938 13.554688 85.460938 13.554688 L 84.472656 9.308594 " fill-opacity="1" fill-rule="nonzero"/><path fill="#ffaf8f" d="M 72.398438 12.890625 C 72.398438 12.890625 70.953125 12.804688 71.460938 14.511719 C 71.96875 16.214844 73.992188 16.816406 73.992188 16.816406 L 72.398438 12.890625 " fill-opacity="1" fill-rule="nonzero"/><path fill="#f7936a" d="M 84.507812 21.894531 C 84.308594 22.632812 82.964844 24.40625 80.535156 24.601562 C 79.558594 24.679688 78.914062 24.710938 78.496094 24.714844 L 77.242188 21.503906 C 77.355469 21.558594 79.730469 22.886719 81.257812 22.730469 C 82.824219 22.566406 83.796875 20.796875 84.074219 20.816406 C 84.347656 20.832031 84.707031 21.15625 84.507812 21.894531 " fill-opacity="1" fill-rule="nonzero"/><path fill="#e67443" d="M 76.226562 11.648438 C 76.089844 11.53125 75.796875 11.496094 75.667969 11.511719 C 75.308594 11.542969 74.953125 11.699219 74.640625 11.867188 C 74.347656 12.023438 73.203125 12.671875 73.535156 13.148438 C 73.707031 13.394531 74.390625 12.910156 74.542969 12.820312 C 75.019531 12.53125 75.496094 12.332031 76.003906 12.109375 C 76.089844 12.070312 76.175781 12.027344 76.230469 11.953125 C 76.335938 11.816406 76.3125 11.71875 76.226562 11.648438 " fill-opacity="1" fill-rule="nonzero"/><path fill="#e67443" d="M 80.441406 10.292969 C 80.460938 10.113281 80.648438 9.886719 80.75 9.804688 C 81.03125 9.582031 81.394531 9.445312 81.734375 9.347656 C 82.054688 9.257812 83.328125 8.925781 83.421875 9.5 C 83.46875 9.789062 82.84375 9.875 82.667969 9.910156 C 82.207031 10 81.789062 10.132812 81.355469 10.304688 C 81.210938 10.359375 80.402344 10.671875 80.441406 10.292969 " fill-opacity="1" fill-rule="nonzero"/><path fill="#ffffff" d="M 82.144531 17.710938 C 82.042969 17.585938 81.875 17.527344 81.667969 17.613281 C 81.453125 17.699219 81.296875 17.882812 81.117188 18.03125 C 80.453125 18.578125 79.460938 18.4375 79.316406 18.722656 C 79.007812 19.328125 80 19.503906 80.394531 19.5 C 81.179688 19.492188 82.121094 19.011719 82.25 18.167969 C 82.277344 17.996094 82.238281 17.824219 82.144531 17.710938 " fill-opacity="1" fill-rule="nonzero"/><path fill="#e67443" d="M 72.113281 12.914062 C 72.113281 12.914062 72.21875 11.410156 72.152344 9.96875 C 72.089844 8.53125 75.019531 8.222656 76.597656 7.449219 C 77.925781 6.796875 78.960938 5.566406 80.757812 5.582031 C 82.554688 5.597656 84.613281 9.226562 84.613281 9.226562 C 84.613281 9.226562 84.21875 5.71875 83.425781 4.417969 C 81.929688 1.96875 78.128906 0.0273438 74.730469 1.265625 C 70.335938 2.859375 69.480469 5.945312 70.164062 9.582031 C 70.453125 11.144531 72.113281 12.914062 72.113281 12.914062 " fill-opacity="1" fill-rule="nonzero"/><path fill="#f7936a" d="M 63.976562 51.253906 C 63.976562 51.253906 63.609375 56.277344 63.667969 58.414062 C 63.722656 60.550781 64.367188 65.675781 67.089844 66.363281 C 69.816406 67.050781 71.640625 64.609375 72.371094 61.257812 C 73.097656 57.910156 72.992188 51.6875 72.992188 51.6875 L 63.976562 51.253906 " fill-opacity="1" fill-rule="nonzero"/><path fill="#a7b3c9" d="M 70.449219 28.703125 C 70.449219 28.703125 66.546875 30.902344 65.390625 36.035156 C 64.699219 39.109375 64.097656 45.839844 63.878906 47.269531 C 63.65625 48.699219 62.351562 51.78125 63.003906 52.023438 C 63.660156 52.261719 68 52.210938 70.527344 52.339844 C 73.058594 52.464844 74.339844 52.042969 74.136719 51.660156 C 73.933594 51.277344 73.980469 33.808594 73.644531 33.296875 C 73.308594 32.792969 70.449219 28.703125 70.449219 28.703125 " fill-opacity="1" fill-rule="nonzero"/><path fill="#ffaf8f" d="M 64.128906 62.269531 C 64.0625 61.210938 63.792969 58.34375 68.046875 55.320312 C 72.300781 52.296875 83.21875 44.703125 83.21875 44.703125 L 85.035156 48.339844 C 85.035156 48.339844 79.988281 54.707031 75.46875 60.8125 C 70.949219 66.917969 68.5625 67.15625 66.449219 66.34375 C 64.339844 65.53125 64.191406 63.324219 64.128906 62.269531 " fill-opacity="1" fill-rule="nonzero"/><path fill="#a7b3c9" d="M 78.265625 25.039062 C 78.265625 25.039062 79.632812 26.167969 82.21875 25.675781 C 85.558594 25.042969 86.976562 22.058594 87.050781 22.050781 C 87.121094 22.039062 89.246094 22.609375 89.320312 22.992188 C 89.390625 23.375 89.433594 25.71875 88.039062 26.511719 C 86.640625 27.304688 85.863281 27.46875 84.808594 27.980469 C 83.753906 28.488281 83.085938 29.035156 82.234375 29.0625 C 81.378906 29.09375 79.816406 28.042969 79.109375 27.605469 C 78.402344 27.164062 78.265625 25.039062 78.265625 25.039062 " fill-opacity="1" fill-rule="nonzero"/><path fill="#a65d4c" d="M 104.140625 130.914062 C 104.078125 131.109375 105.378906 140.59375 105.355469 141.371094 C 105.242188 145.21875 106.28125 149.28125 106.917969 150.445312 C 107.839844 152.132812 110.425781 152.128906 110.941406 150.253906 C 111.460938 148.375 111.230469 146.195312 110.941406 144.625 C 110.410156 141.714844 109.710938 139.96875 109.710938 139.453125 C 109.710938 138.933594 110.296875 130.914062 110.296875 130.914062 L 104.140625 130.914062 " fill-opacity="1" fill-rule="nonzero"/><path fill="#f0b067" d="M 87.871094 85.351562 C 87.871094 85.351562 86.066406 94.3125 86.605469 96.476562 C 87.140625 98.640625 113.132812 97.671875 113.132812 97.671875 C 113.132812 97.671875 113.089844 93.207031 112.210938 89.714844 C 111.332031 86.222656 111.234375 84.867188 111.234375 84.867188 L 87.871094 85.351562 " fill-opacity="1" fill-rule="nonzero"/><path fill="#362722" d="M 96.609375 31.230469 C 96.929688 29.894531 97.566406 28.773438 99.542969 27.324219 C 101.523438 25.878906 104.824219 25.980469 106.636719 26.792969 C 108.445312 27.601562 110.71875 28.921875 111.425781 31.527344 C 112.132812 34.132812 110.804688 38.707031 111.027344 40.261719 C 111.246094 41.8125 111.683594 41.847656 112.714844 43.710938 C 113.75 45.570312 114.144531 47.578125 113.328125 49.484375 C 112.511719 51.386719 111.332031 55.363281 105.910156 55.117188 C 100.484375 54.867188 96.621094 48.988281 95.550781 46.910156 C 94.476562 44.832031 95.910156 41.207031 95.902344 39.21875 C 95.898438 37.226562 96.289062 32.570312 96.609375 31.230469 " fill-opacity="1" fill-rule="nonzero"/><path fill="#a65d4c" d="M 105.816406 49.132812 L 103.644531 51.136719 L 100.382812 51.652344 L 98.171875 47.726562 L 98.261719 46.640625 L 98.53125 43.449219 C 98.527344 43.441406 98.527344 43.441406 98.527344 43.441406 L 98.609375 42.53125 L 100.738281 43.683594 L 106.558594 43.972656 L 105.816406 49.132812 " fill-opacity="1" fill-rule="nonzero"/><path fill="#a65d4c" d="M 97.917969 30.96875 C 97.917969 30.96875 97.664062 39.714844 97.765625 41.046875 C 97.960938 43.511719 101.136719 45.628906 102.300781 45.828125 C 102.976562 45.945312 107.074219 45.296875 108.074219 42.171875 C 108.417969 41.113281 110.6875 32.050781 110.667969 31.929688 C 110.652344 31.8125 104.539062 27.554688 104.539062 27.554688 L 97.917969 30.96875 " fill-opacity="1" fill-rule="nonzero"/><path fill="#362722" d="M 107.332031 38.214844 C 107.441406 37.992188 107.480469 37.699219 107.429688 37.566406 C 107.378906 37.449219 107.308594 37.316406 107.175781 37.289062 C 106.707031 37.199219 106.542969 38.210938 106.859375 38.433594 C 107.0625 38.578125 107.230469 38.429688 107.332031 38.214844 " fill-opacity="1" fill-rule="nonzero"/><path fill="#8f4838" d="M 103.75 40.269531 C 103.910156 39.984375 103.761719 38.050781 103.492188 38.109375 C 103.347656 38.144531 102.917969 39.28125 102.742188 39.667969 C 102.679688 39.796875 102.632812 39.9375 102.644531 40.082031 C 102.664062 40.394531 103.027344 40.578125 103.3125 40.542969 C 103.539062 40.515625 103.671875 40.414062 103.75 40.269531 " fill-opacity="1" fill-rule="nonzero"/><path fill="#a65d4c" d="M 109.417969 36.433594 C 109.417969 36.433594 110.738281 36.191406 110.464844 37.824219 C 110.191406 39.453125 108.503906 40.382812 108.503906 40.382812 L 109.417969 36.433594 " fill-opacity="1" fill-rule="nonzero"/><path fill="#a65d4c" d="M 98.136719 34.53125 C 98.136719 34.53125 96.964844 33.871094 96.691406 35.503906 C 96.417969 37.132812 97.863281 38.460938 97.863281 38.460938 L 98.136719 34.53125 " fill-opacity="1" fill-rule="nonzero"/><path fill="#8f4838" d="M 104.464844 46.472656 C 104 47.007812 102.152344 47.941406 100.042969 47.113281 C 99.195312 46.78125 98.644531 46.542969 98.292969 46.375 L 98.5625 43.0625 C 98.632812 43.15625 100.386719 45.335938 101.746094 45.769531 C 103.398438 46.296875 104.324219 45.265625 104.546875 45.394531 C 104.769531 45.519531 104.933594 45.9375 104.464844 46.472656 " fill-opacity="1" fill-rule="nonzero"/><path fill="#f5e8e1" d="M 179.070312 111.058594 L 15.253906 111.058594 C 11.945312 111.058594 9.261719 108.378906 9.261719 105.074219 L 185.0625 105.074219 C 185.0625 108.378906 182.378906 111.058594 179.070312 111.058594 " fill-opacity="1" fill-rule="nonzero"/><g clip-path="url(#197e2eb3ce)"><path fill="#874c43" d="M 39.25 107.015625 L 9.261719 107.015625 C 6.820312 107.015625 4.839844 105.039062 4.839844 102.601562 L 4.839844 100.890625 C 4.839844 98.453125 6.820312 96.476562 9.261719 96.476562 L 39.25 96.476562 C 41.691406 96.476562 43.671875 98.453125 43.671875 100.890625 L 43.671875 102.601562 C 43.671875 105.039062 41.691406 107.015625 39.25 107.015625 " fill-opacity="1" fill-rule="nonzero"/></g><path fill="#874c43" d="M 81.09375 107.015625 L 46.828125 107.015625 C 44.386719 107.015625 42.40625 105.039062 42.40625 102.601562 L 42.40625 100.890625 C 42.40625 98.453125 44.386719 96.476562 46.828125 96.476562 L 81.09375 96.476562 C 83.535156 96.476562 85.511719 98.453125 85.511719 100.890625 L 85.511719 102.601562 C 85.511719 105.039062 83.535156 107.015625 81.09375 107.015625 " fill-opacity="1" fill-rule="nonzero"/><path fill="#874c43" d="M 154.800781 107.015625 L 88.152344 107.015625 C 85.710938 107.015625 83.730469 105.039062 83.730469 102.601562 L 83.730469 100.890625 C 83.730469 98.453125 85.710938 96.476562 88.152344 96.476562 L 154.800781 96.476562 C 157.242188 96.476562 159.21875 98.453125 159.21875 100.890625 L 159.21875 102.601562 C 159.21875 105.039062 157.242188 107.015625 154.800781 107.015625 " fill-opacity="1" fill-rule="nonzero"/><g clip-path="url(#704aac78c1)"><path fill="#874c43" d="M 185.890625 107.015625 L 161.957031 107.015625 C 159.511719 107.015625 157.535156 105.039062 157.535156 102.601562 L 157.535156 100.890625 C 157.535156 98.453125 159.511719 96.476562 161.957031 96.476562 L 185.890625 96.476562 C 188.332031 96.476562 190.308594 98.453125 190.308594 100.890625 L 190.308594 102.601562 C 190.308594 105.039062 188.332031 107.015625 185.890625 107.015625 " fill-opacity="1" fill-rule="nonzero"/></g><path fill="#f5e8e1" d="M 23.203125 171.011719 L 18.347656 171.011719 L 18.347656 109.894531 L 23.203125 109.894531 L 23.203125 171.011719 " fill-opacity="1" fill-rule="nonzero"/><g clip-path="url(#59971449e7)"><path fill="#3d3227" d="M 22.03125 171.984375 L 19.515625 171.984375 C 18.597656 171.984375 17.976562 171.042969 18.339844 170.199219 L 18.34375 170.1875 L 23.203125 170.1875 L 23.210938 170.199219 C 23.570312 171.042969 22.953125 171.984375 22.03125 171.984375 " fill-opacity="1" fill-rule="nonzero"/></g><path fill="#f5e8e1" d="M 171.121094 171.011719 L 175.976562 171.011719 L 175.976562 109.894531 L 171.121094 109.894531 L 171.121094 171.011719 " fill-opacity="1" fill-rule="nonzero"/><g clip-path="url(#b32358f922)"><path fill="#3d3227" d="M 172.292969 171.984375 L 174.808594 171.984375 C 175.726562 171.984375 176.347656 171.042969 175.984375 170.199219 L 175.980469 170.1875 L 171.117188 170.1875 L 171.113281 170.199219 C 170.753906 171.042969 171.371094 171.984375 172.292969 171.984375 " fill-opacity="1" fill-rule="nonzero"/></g><path fill="#e8d4ca" d="M 22.6875 110.992188 L 18.667969 110.992188 C 18.417969 110.992188 18.417969 111.382812 18.667969 111.382812 L 22.6875 111.382812 C 22.9375 111.382812 22.9375 110.992188 22.6875 110.992188 " fill-opacity="1" fill-rule="nonzero"/><path fill="#e8d4ca" d="M 175.492188 110.800781 C 174.199219 110.800781 172.886719 110.875 171.605469 110.863281 C 171.355469 110.863281 171.355469 111.25 171.605469 111.253906 C 172.886719 111.261719 174.199219 111.1875 175.492188 111.1875 C 175.742188 111.1875 175.742188 110.800781 175.492188 110.800781 " fill-opacity="1" fill-rule="nonzero"/><path fill="#ffffff" d="M 104.449219 42.050781 C 104.425781 41.886719 104.3125 41.753906 104.089844 41.71875 C 103.863281 41.683594 103.632812 41.761719 103.402344 41.796875 C 102.550781 41.925781 101.773438 41.296875 101.503906 41.46875 C 100.929688 41.828125 101.6875 42.488281 102.03125 42.6875 C 102.707031 43.082031 103.761719 43.15625 104.304688 42.496094 C 104.417969 42.359375 104.46875 42.195312 104.449219 42.050781 " fill-opacity="1" fill-rule="nonzero"/><path fill="#362722" d="M 105.960938 35.996094 C 105.964844 35.945312 106 35.890625 106.066406 35.824219 C 106.335938 35.566406 106.945312 35.722656 107.285156 35.773438 C 107.746094 35.839844 108.34375 35.988281 108.539062 36.371094 C 108.621094 36.523438 107.964844 36.46875 107.898438 36.464844 C 107.496094 36.4375 107.097656 36.398438 106.699219 36.339844 C 106.476562 36.304688 105.933594 36.230469 105.960938 35.996094 " fill-opacity="1" fill-rule="nonzero"/><path fill="#362722" d="M 101.835938 30.019531 C 101.835938 30.019531 101.066406 32.121094 99.800781 33.203125 C 98.535156 34.285156 97.828125 34.421875 97.828125 34.421875 L 97.617188 30.363281 L 104.488281 27.203125 L 110.882812 31.746094 L 109.960938 35.960938 L 109.578125 36.417969 C 109.578125 36.417969 108.210938 35.960938 106.996094 34.464844 C 105.863281 33.066406 105.878906 31.804688 104.472656 31.589844 C 102.410156 31.277344 101.835938 30.019531 101.835938 30.019531 " fill-opacity="1" fill-rule="nonzero"/><path fill="#ffe9de" d="M 98.25 47.285156 C 98.25 47.285156 99.453125 48.710938 101.628906 49.003906 C 103.804688 49.296875 105.945312 48.417969 105.945312 48.417969 C 105.585938 48.316406 112.039062 49.800781 113.617188 50.671875 C 114.136719 50.957031 113.605469 62.859375 113.21875 65.625 C 112.832031 68.390625 111.195312 75.824219 111.105469 77.765625 C 111.015625 79.703125 112.199219 86.683594 111.929688 87.449219 C 111.664062 88.214844 102.367188 88.757812 99.886719 89.097656 C 97.40625 89.4375 87.871094 88.453125 87.125 86.054688 C 85.304688 80.21875 85.871094 70.554688 85.773438 68.84375 C 84.949219 54.15625 86.339844 42.503906 86.339844 42.503906 L 98.25 47.285156 " fill-opacity="1" fill-rule="nonzero"/><path fill="#a65d4c" d="M 97.449219 130.914062 C 97.511719 131.109375 96.210938 140.59375 96.234375 141.371094 C 96.347656 145.21875 95.3125 149.28125 94.675781 150.445312 C 93.75 152.132812 91.167969 152.128906 90.648438 150.253906 C 90.128906 148.375 90.359375 146.195312 90.648438 144.625 C 91.183594 141.714844 91.878906 139.96875 91.878906 139.453125 C 91.878906 138.933594 91.296875 130.914062 91.296875 130.914062 L 97.449219 130.914062 " fill-opacity="1" fill-rule="nonzero"/><path fill="#ffe9de" d="M 113.617188 50.671875 C 113.617188 50.671875 115.945312 51.910156 117.371094 55.640625 C 118.980469 59.839844 118.398438 64.316406 118.625 66.527344 C 118.847656 68.738281 121.367188 78.824219 121.578125 79.871094 C 121.789062 80.914062 122.535156 85.867188 119.535156 86.183594 C 116.539062 86.5 113.511719 85.375 113.320312 82.5 C 113.234375 81.207031 112.136719 75.921875 111.578125 74.523438 C 111.023438 73.121094 109.394531 69.804688 109.1875 68.679688 C 108.980469 67.558594 107.855469 62.179688 107.847656 60.886719 C 107.84375 59.589844 113.617188 50.671875 113.617188 50.671875 " fill-opacity="1" fill-rule="nonzero"/><path fill="#a65d4c" d="M 97.800781 83.734375 C 97.800781 83.734375 93.859375 83.191406 92.863281 83.167969 C 91.867188 83.148438 88.628906 85.441406 88.5 86.097656 C 88.371094 86.75 88.683594 86.886719 89.574219 87.074219 C 90.464844 87.257812 94.734375 87.011719 95.679688 87.570312 C 96.621094 88.128906 98.03125 87.144531 98.03125 87.144531 C 98.03125 87.144531 100.167969 85.007812 100.128906 84.835938 C 100.089844 84.664062 97.800781 83.734375 97.800781 83.734375 " fill-opacity="1" fill-rule="nonzero"/><path fill="#fec584" d="M 92.210938 86.195312 C 89.78125 86.144531 86.269531 87.082031 85.886719 92.175781 C 85.503906 97.269531 88.816406 131.058594 88.996094 131.785156 C 89.175781 132.515625 93.121094 133.277344 95.167969 133.128906 C 97.210938 132.976562 100.070312 132.363281 100.28125 131.589844 C 100.398438 131.152344 100.007812 119.109375 99.777344 107.953125 C 99.601562 99.492188 99.878906 91.535156 98.453125 89.542969 C 96.589844 86.9375 94.636719 86.25 92.210938 86.195312 " fill-opacity="1" fill-rule="nonzero"/><path fill="#a65d4c" d="M 120.386719 81.125 C 119.324219 79.910156 116.789062 79.261719 113.75 80.140625 C 110.710938 81.023438 97.800781 83.734375 97.800781 83.734375 L 98.03125 87.144531 C 98.03125 87.144531 114.835938 88.640625 118.535156 87.5 C 120.925781 86.761719 122.417969 83.453125 120.386719 81.125 " fill-opacity="1" fill-rule="nonzero"/><path fill="#fec584" d="M 106.757812 85.621094 C 109.175781 85.414062 112.742188 86.117188 113.457031 91.175781 C 114.167969 96.234375 113.066406 130.167969 112.9375 130.90625 C 112.804688 131.644531 108.914062 132.664062 106.867188 132.644531 C 104.816406 132.628906 101.921875 132.199219 101.664062 131.445312 C 101.519531 131.027344 101.601562 121.921875 101.078125 111.066406 C 100.65625 102.25 99.402344 91.53125 100.742188 89.367188 C 102.433594 86.644531 104.335938 85.832031 106.757812 85.621094 " fill-opacity="1" fill-rule="nonzero"/><path fill="#ffe9de" d="M 86.222656 57.449219 C 86.222656 57.449219 85.050781 49.769531 85.929688 42.375 C 86.441406 38.066406 88.875 18.460938 91.738281 16.546875 C 94.480469 14.714844 96.3125 16.492188 97.484375 17.605469 C 98.660156 18.71875 95.027344 40.167969 95.019531 41.339844 C 95.015625 42.515625 97.605469 46.933594 97.605469 46.933594 L 86.222656 57.449219 " fill-opacity="1" fill-rule="nonzero"/><path fill="#a65d4c" d="M 115.007812 23.589844 C 115.691406 23.957031 118.261719 25.875 119.003906 26.535156 C 119.746094 27.199219 120.550781 31.085938 120.199219 31.652344 C 119.84375 32.214844 119.523438 32.105469 118.746094 31.632812 C 117.964844 31.164062 114.859375 28.4375 113.941406 27.839844 C 112.957031 27.203125 112.511719 25.925781 112.511719 25.925781 L 112.550781 22.8125 C 112.550781 22.8125 114.328125 23.226562 115.007812 23.589844 " fill-opacity="1" fill-rule="nonzero"/><path fill="#a65d4c" d="M 91.816406 17.019531 C 93.058594 15.988281 95.664062 15.753906 98.523438 17.113281 C 101.378906 18.46875 113.6875 23.21875 113.6875 23.21875 L 112.910156 26.546875 C 112.910156 26.546875 96.082031 25.324219 92.613281 23.605469 C 90.375 22.492188 89.433594 18.988281 91.816406 17.019531 " fill-opacity="1" fill-rule="nonzero"/><path fill="#f0b067" d="M 96.996094 130.671875 C 95.597656 130.4375 94.230469 129.425781 93.109375 128.625 C 92.507812 128.199219 91.890625 127.882812 91.40625 127.320312 C 91.015625 126.859375 90.644531 126.355469 90.183594 125.96875 C 89.996094 125.808594 89.71875 126.078125 89.910156 126.242188 C 90.511719 126.753906 90.882812 127.492188 91.472656 128.007812 C 91.957031 128.429688 92.617188 128.839844 93.15625 129.171875 C 94.289062 129.867188 95.546875 130.820312 96.894531 131.046875 C 97.140625 131.085938 97.246094 130.710938 96.996094 130.671875 " fill-opacity="1" fill-rule="nonzero"/><path fill="#f0b067" d="M 111.429688 115.8125 C 111.425781 117.476562 111.363281 119.0625 110.800781 120.648438 C 110.304688 122.046875 109.5 123.664062 108.625 124.855469 C 107.789062 126 106.625 126.652344 105.699219 127.683594 C 105.257812 128.175781 104.824219 128.667969 104.371094 129.15625 C 103.953125 129.605469 103.429688 130.449219 102.828125 130.664062 C 102.59375 130.746094 102.695312 131.121094 102.929688 131.035156 C 103.402344 130.871094 103.761719 130.425781 104.097656 130.066406 C 104.65625 129.480469 105.222656 128.875 105.761719 128.273438 C 106.859375 127.042969 108.257812 126.167969 109.191406 124.769531 C 109.929688 123.664062 110.578125 122.300781 111.058594 121.058594 C 111.726562 119.34375 111.816406 117.628906 111.816406 115.8125 C 111.816406 115.5625 111.429688 115.5625 111.429688 115.8125 " fill-opacity="1" fill-rule="nonzero"/><path fill="#f0b067" d="M 111.433594 126.53125 C 111.140625 127.410156 109.660156 128.070312 108.957031 128.621094 C 107.980469 129.390625 107.011719 130.222656 106.140625 131.101562 C 105.964844 131.277344 106.242188 131.554688 106.417969 131.375 C 107.417969 130.367188 108.578125 129.394531 109.722656 128.546875 C 110.480469 127.988281 111.488281 127.589844 111.808594 126.632812 C 111.890625 126.394531 111.515625 126.292969 111.433594 126.53125 " fill-opacity="1" fill-rule="nonzero"/><path fill="#f0dace" d="M 113.964844 52.34375 C 113.84375 52.875 113.777344 53.304688 113.761719 53.855469 C 113.746094 54.503906 113.59375 55.121094 113.539062 55.761719 C 113.40625 57.226562 113.03125 58.636719 112.8125 60.089844 C 112.613281 61.421875 112.457031 62.8125 112.371094 64.148438 C 112.28125 65.523438 111.6875 66.726562 111.550781 68.082031 C 111.523438 68.328125 111.914062 68.34375 111.9375 68.097656 C 112.070312 66.796875 112.71875 65.648438 112.757812 64.328125 C 112.773438 63.769531 112.917969 63.238281 112.96875 62.679688 C 113.03125 61.945312 113.050781 61.210938 113.148438 60.476562 C 113.328125 59.121094 113.777344 57.789062 113.902344 56.429688 C 114.019531 55.144531 114.046875 53.71875 114.335938 52.460938 C 114.390625 52.21875 114.019531 52.097656 113.964844 52.34375 " fill-opacity="1" fill-rule="nonzero"/><path fill="#f0dace" d="M 113.792969 64.976562 C 113.53125 65.363281 113.570312 65.851562 113.453125 66.304688 C 113.269531 67.035156 113 67.734375 112.738281 68.441406 C 112.269531 69.710938 111.921875 71.023438 111.492188 72.300781 C 111.414062 72.535156 111.78125 72.65625 111.863281 72.417969 C 112.273438 71.195312 112.601562 69.9375 113.050781 68.71875 C 113.292969 68.054688 113.546875 67.398438 113.742188 66.714844 C 113.851562 66.335938 113.90625 65.503906 114.121094 65.1875 C 114.261719 64.980469 113.933594 64.769531 113.792969 64.976562 " fill-opacity="1" fill-rule="nonzero"/><path fill="#f0dace" d="M 94.65625 46.40625 C 94.40625 47.503906 93.652344 48.65625 93.105469 49.640625 C 92.839844 50.117188 92.566406 50.574219 92.335938 51.070312 C 92.003906 51.789062 91.566406 52.386719 91.199219 53.082031 C 90.101562 55.148438 88.867188 57.328125 88.214844 59.578125 C 88.148438 59.820312 88.515625 59.941406 88.585938 59.699219 C 88.917969 58.542969 89.460938 57.488281 89.976562 56.410156 C 90.550781 55.203125 91.136719 53.851562 91.847656 52.722656 C 92.488281 51.710938 93.007812 50.640625 93.570312 49.582031 C 94.082031 48.621094 94.785156 47.59375 95.023438 46.527344 C 95.082031 46.285156 94.710938 46.164062 94.65625 46.40625 " fill-opacity="1" fill-rule="nonzero"/><path fill="#f0dace" d="M 92.953125 40.945312 C 92.808594 41.84375 92.328125 42.671875 92.046875 43.539062 C 91.722656 44.53125 91.429688 45.539062 91.105469 46.53125 C 90.800781 47.441406 90.550781 48.34375 90.308594 49.273438 C 90.117188 50.011719 89.78125 50.785156 89.746094 51.542969 C 89.734375 51.792969 90.121094 51.8125 90.132812 51.5625 C 90.171875 50.6875 90.601562 49.730469 90.816406 48.878906 C 91.066406 47.882812 91.386719 46.933594 91.679688 45.953125 C 91.953125 45.019531 92.246094 44.082031 92.574219 43.164062 C 92.84375 42.421875 93.214844 41.746094 93.34375 40.960938 C 93.382812 40.714844 92.992188 40.699219 92.953125 40.945312 " fill-opacity="1" fill-rule="nonzero"/><path fill="#f0dace" d="M 105.574219 49.0625 C 105.363281 49.488281 104.554688 50.125 104.160156 50.324219 C 103.40625 50.714844 102.671875 50.921875 101.816406 50.871094 C 101.066406 50.828125 100.46875 50.675781 99.792969 50.367188 C 98.964844 49.988281 98.660156 49.472656 98.113281 48.8125 C 97.953125 48.617188 97.667969 48.878906 97.824219 49.074219 C 98.371094 49.734375 98.582031 50.234375 99.394531 50.617188 C 100.246094 51.019531 101.011719 51.21875 101.945312 51.269531 C 102.800781 51.3125 103.441406 51.089844 104.210938 50.726562 C 104.585938 50.550781 104.84375 50.347656 105.132812 50.058594 C 105.40625 49.789062 105.730469 49.617188 105.902344 49.273438 C 106.015625 49.050781 105.6875 48.839844 105.574219 49.0625 " fill-opacity="1" fill-rule="nonzero"/><path fill="#362722" d="M 100.378906 37.261719 C 100.472656 37.042969 100.5 36.757812 100.441406 36.632812 C 100.390625 36.523438 100.316406 36.398438 100.183594 36.382812 C 99.734375 36.3125 99.617188 37.292969 99.933594 37.492188 C 100.132812 37.621094 100.289062 37.476562 100.378906 37.261719 " fill-opacity="1" fill-rule="nonzero"/><path fill="#362722" d="M 101.796875 35.316406 C 101.800781 35.265625 101.785156 35.203125 101.734375 35.125 C 101.539062 34.808594 100.910156 34.8125 100.566406 34.777344 C 100.101562 34.730469 99.488281 34.730469 99.203125 35.054688 C 99.089844 35.183594 99.738281 35.289062 99.800781 35.300781 C 100.199219 35.371094 100.59375 35.429688 100.996094 35.46875 C 101.222656 35.492188 101.765625 35.546875 101.796875 35.316406 " fill-opacity="1" fill-rule="nonzero"/><path fill="#ffaf8f" d="M 83.421875 43.042969 C 83.824219 41.980469 85.109375 41.722656 86.945312 41.6875 C 88.785156 41.652344 89.589844 43.191406 89.554688 44.144531 C 89.519531 45.097656 87.59375 48.570312 85.691406 48.800781 C 82.980469 49.132812 83.015625 44.105469 83.421875 43.042969 " fill-opacity="1" fill-rule="nonzero"/><path fill="#ffaf8f" d="M 101.796875 14.628906 C 101.796875 14.628906 94.660156 12.289062 93.144531 12.699219 C 91.632812 13.109375 89.0625 17.183594 89.640625 17.875 C 90.214844 18.566406 91.515625 17.847656 92.511719 17.023438 C 93.507812 16.199219 98.714844 17.21875 98.714844 17.21875 L 101.796875 18.515625 L 101.796875 14.628906 " fill-opacity="1" fill-rule="nonzero"/><path fill="#8997b0" d="M 88.214844 22.238281 C 87.886719 24.386719 86.183594 26.21875 84.164062 26.871094 C 83.71875 27.015625 83.289062 27.21875 82.84375 27.351562 C 82.296875 27.511719 81.679688 27.433594 81.117188 27.433594 C 80.359375 27.433594 79.808594 27.414062 79.109375 27.09375 C 78.578125 26.847656 78.042969 26.671875 77.523438 26.390625 C 77.300781 26.273438 77.105469 26.609375 77.328125 26.726562 C 77.976562 27.078125 78.664062 27.390625 79.351562 27.65625 C 79.910156 27.867188 80.359375 27.828125 80.957031 27.820312 C 81.523438 27.816406 82.144531 27.902344 82.699219 27.789062 C 83.308594 27.667969 83.953125 27.363281 84.546875 27.15625 C 86.570312 26.457031 88.265625 24.488281 88.589844 22.34375 C 88.628906 22.097656 88.253906 21.992188 88.214844 22.238281 " fill-opacity="1" fill-rule="nonzero"/><path fill="#8997b0" d="M 75.871094 46.484375 L 75.871094 43.351562 C 75.871094 42.433594 75.832031 41.535156 75.773438 40.625 C 75.707031 39.640625 75.742188 38.644531 75.652344 37.664062 C 75.519531 36.21875 75.226562 34.921875 74.589844 33.609375 C 73.929688 32.242188 72.753906 31.296875 71.636719 30.304688 C 71.449219 30.136719 71.171875 30.410156 71.359375 30.578125 C 72.5 31.589844 73.621094 32.550781 74.269531 33.941406 C 74.898438 35.289062 75.214844 36.605469 75.292969 38.09375 C 75.382812 39.785156 75.480469 41.488281 75.480469 43.179688 C 75.480469 43.640625 75.625 48.570312 75.527344 48.589844 C 75.28125 48.640625 75.386719 49.011719 75.628906 48.964844 C 75.65625 48.957031 75.683594 48.953125 75.710938 48.945312 C 75.773438 48.933594 75.835938 48.871094 75.847656 48.8125 C 75.996094 48.0625 75.871094 47.246094 75.871094 46.484375 " fill-opacity="1" fill-rule="nonzero"/><path fill="#8997b0" d="M 74.40625 37.375 C 74.019531 36.414062 72.964844 35.5625 72.269531 34.816406 C 71.773438 34.285156 71.316406 33.710938 70.804688 33.195312 C 70.394531 32.789062 69.355469 32.246094 69.257812 31.652344 C 69.214844 31.40625 68.839844 31.507812 68.882812 31.753906 C 68.945312 32.132812 69.292969 32.402344 69.570312 32.644531 C 70.191406 33.1875 70.75 33.699219 71.285156 34.328125 C 71.738281 34.863281 72.226562 35.382812 72.707031 35.894531 C 73.148438 36.363281 73.785156 36.867188 74.03125 37.476562 C 74.125 37.707031 74.5 37.605469 74.40625 37.375 " fill-opacity="1" fill-rule="nonzero"/><path fill="#8997b0" d="M 83.261719 58.136719 C 82.820312 60.058594 82.511719 62.015625 82.144531 63.953125 C 81.785156 65.832031 81.207031 67.667969 80.613281 69.484375 C 80.015625 71.320312 79.910156 73.285156 79.417969 75.144531 C 79.164062 76.101562 79.015625 77.074219 78.699219 78.007812 C 78.429688 78.796875 78.371094 79.882812 77.9375 80.597656 C 77.804688 80.808594 78.144531 81.003906 78.273438 80.792969 C 78.585938 80.277344 78.667969 79.542969 78.828125 78.964844 C 79.105469 77.945312 79.363281 76.953125 79.609375 75.925781 C 80.085938 73.949219 80.320312 71.890625 80.882812 69.933594 C 81.414062 68.085938 82.066406 66.28125 82.453125 64.394531 C 82.871094 62.347656 83.167969 60.273438 83.636719 58.238281 C 83.691406 57.996094 83.316406 57.890625 83.261719 58.136719 " fill-opacity="1" fill-rule="nonzero"/><path fill="#8997b0" d="M 86.855469 28.738281 C 86.671875 29.339844 86.648438 29.875 86.527344 30.496094 C 86.398438 31.152344 86.214844 31.789062 86.125 32.453125 C 86.035156 33.128906 85.875 33.792969 85.777344 34.464844 C 85.652344 35.332031 85.640625 36.242188 85.398438 37.082031 C 85.328125 37.324219 85.703125 37.425781 85.773438 37.1875 C 85.949219 36.574219 85.984375 35.945312 86.0625 35.316406 C 86.152344 34.570312 86.328125 33.847656 86.441406 33.109375 C 86.65625 31.71875 86.820312 30.1875 87.230469 28.84375 C 87.304688 28.605469 86.929688 28.5 86.855469 28.738281 " fill-opacity="1" fill-rule="nonzero"/><path fill="#826055" d="M 80.121094 85.460938 C 80.042969 85.710938 79.625 86.101562 79.472656 86.304688 C 79.199219 86.664062 78.949219 87.007812 78.613281 87.3125 C 78.300781 87.589844 77.972656 87.847656 77.667969 88.132812 C 77.289062 88.488281 76.863281 88.667969 76.453125 88.964844 C 76.25 89.113281 76.445312 89.449219 76.648438 89.300781 C 77.015625 89.035156 77.425781 88.882812 77.765625 88.578125 C 78.167969 88.21875 78.589844 87.875 78.980469 87.503906 C 79.332031 87.167969 79.597656 86.773438 79.894531 86.390625 C 80.101562 86.117188 80.394531 85.890625 80.496094 85.5625 C 80.566406 85.324219 80.191406 85.222656 80.121094 85.460938 " fill-opacity="1" fill-rule="nonzero"/><path fill="#826055" d="M 88.246094 162.25 C 88.050781 161.886719 87.695312 161.640625 87.378906 161.386719 C 86.625 160.785156 85.964844 160.109375 85.324219 159.390625 C 84.101562 158.019531 83.023438 156.550781 82.074219 154.980469 C 80.082031 151.675781 78.746094 148.203125 77.902344 144.445312 C 77.847656 144.199219 77.472656 144.304688 77.527344 144.546875 C 78.351562 148.222656 79.632812 151.628906 81.558594 154.871094 C 82.453125 156.378906 83.453125 157.808594 84.59375 159.144531 C 85.195312 159.84375 85.808594 160.550781 86.496094 161.164062 C 86.9375 161.554688 87.625 161.910156 87.910156 162.445312 C 88.03125 162.664062 88.367188 162.46875 88.246094 162.25 " fill-opacity="1" fill-rule="nonzero"/></svg>