<svg xmlns="http://www.w3.org/2000/svg" xmlns:xlink="http://www.w3.org/1999/xlink" width="260" zoomAndPan="magnify" viewBox="0 0 194.87999 172.499995" height="230" preserveAspectRatio="xMidYMid meet" version="1.0"><defs><clipPath id="9ddbe5d389"><path d="M 0.222656 0 L 194.539062 0 L 194.539062 172 L 0.222656 172 Z M 0.222656 0 " clip-rule="nonzero"/></clipPath><clipPath id="d937e499c0"><path d="M 179.214844 55.203125 L 194.539062 55.203125 L 194.539062 70.847656 L 179.214844 70.847656 Z M 179.214844 55.203125 " clip-rule="nonzero"/></clipPath><clipPath id="446166032d"><path d="M 172 34 L 194.539062 34 L 194.539062 115 L 172 115 Z M 172 34 " clip-rule="nonzero"/></clipPath><clipPath id="e5cb0cf0af"><path d="M 100 17.460938 L 124 17.460938 L 124 44 L 100 44 Z M 100 17.460938 " clip-rule="nonzero"/></clipPath><clipPath id="7b7662e8ab"><path d="M 28.519531 106.867188 L 110.882812 106.867188 L 110.882812 154.3125 L 28.519531 154.3125 Z M 28.519531 106.867188 " clip-rule="nonzero"/></clipPath><clipPath id="c491d048cb"><path d="M 150.242188 143.890625 L 169.558594 143.890625 L 169.558594 154.3125 L 150.242188 154.3125 Z M 150.242188 143.890625 " clip-rule="nonzero"/></clipPath></defs><g clip-path="url(#9ddbe5d389)"><path fill="#ffffff" d="M 0.222656 0 L 194.65625 0 L 194.65625 530.960938 L 0.222656 530.960938 Z M 0.222656 0 " fill-opacity="1" fill-rule="nonzero"/><path fill="#ffffff" d="M 0.222656 0 L 194.65625 0 L 194.65625 172 L 0.222656 172 Z M 0.222656 0 " fill-opacity="1" fill-rule="nonzero"/><path fill="#ffffff" d="M 0.222656 0 L 194.65625 0 L 194.65625 172 L 0.222656 172 Z M 0.222656 0 " fill-opacity="1" fill-rule="nonzero"/></g><path fill="#fcf6f2" d="M 181.167969 88.640625 C 181.308594 86.078125 181.171875 83.511719 180.671875 80.980469 C 178.75 71.269531 171.769531 63.273438 163.929688 57.210938 C 156.09375 51.148438 147.210938 46.546875 139.324219 40.550781 C 132.554688 35.402344 126.476562 29.203125 118.882812 25.378906 C 103.222656 17.496094 84.003906 21.222656 68.300781 29.015625 C 59.082031 33.585938 50.582031 39.445312 41.40625 44.089844 C 31.46875 49.121094 21.210938 52.378906 13.292969 60.800781 C 3.945312 70.746094 0.242188 85.710938 2.113281 98.769531 C 5.765625 124.222656 21.128906 142.261719 42.367188 145.582031 C 53.039062 147.246094 63.761719 143.875 74.203125 141.113281 C 91.582031 136.511719 109.425781 133.515625 127.390625 132.851562 C 137.839844 132.464844 148.792969 132.75 158.078125 127.957031 C 167.511719 123.085938 173.765625 113.597656 177.609375 103.710938 C 179.484375 98.890625 180.886719 93.773438 181.167969 88.640625 " fill-opacity="1" fill-rule="nonzero"/><path fill="#a9b881" d="M 193.085938 80.730469 C 193.015625 80.65625 192.929688 80.585938 192.828125 80.527344 C 192.800781 80.507812 192.765625 80.492188 192.730469 80.480469 C 192.5 80.363281 192.230469 80.320312 191.96875 80.324219 C 191.839844 80.328125 191.710938 80.335938 191.582031 80.359375 C 190.542969 80.515625 189.613281 81.066406 188.734375 81.644531 C 185.960938 83.476562 183.59375 85.921875 182.042969 88.871094 C 180.976562 90.902344 179.050781 95.148438 181.554688 96.828125 C 181.65625 96.902344 181.773438 96.96875 181.894531 97.03125 C 181.90625 97.035156 181.914062 97.042969 181.925781 97.046875 C 182.085938 97.125 182.253906 97.191406 182.421875 97.242188 C 183.828125 97.683594 185.3125 96.816406 186.386719 95.804688 C 188.503906 93.804688 189.882812 91.171875 191.246094 88.597656 C 192.226562 86.742188 193.246094 84.832031 193.515625 82.742188 C 193.613281 82.042969 193.554688 81.222656 193.085938 80.730469 " fill-opacity="1" fill-rule="nonzero"/><path fill="#a9b881" d="M 162.207031 84.886719 C 160.65625 81.933594 158.285156 79.492188 155.515625 77.660156 C 154.636719 77.078125 153.707031 76.523438 152.664062 76.371094 C 152.535156 76.355469 152.40625 76.339844 152.277344 76.339844 C 152.011719 76.335938 151.75 76.375 151.515625 76.492188 C 151.484375 76.507812 151.449219 76.523438 151.421875 76.542969 C 151.320312 76.601562 151.234375 76.671875 151.164062 76.75 C 150.695312 77.234375 150.636719 78.054688 150.730469 78.757812 C 151.003906 80.847656 152.019531 82.753906 153.003906 84.613281 C 154.367188 87.183594 155.746094 89.820312 157.863281 91.820312 C 158.933594 92.832031 160.417969 93.699219 161.828125 93.253906 C 162 93.203125 162.167969 93.140625 162.324219 93.058594 C 162.335938 93.054688 162.347656 93.050781 162.355469 93.046875 C 162.476562 92.984375 162.59375 92.917969 162.695312 92.84375 C 165.199219 91.164062 163.265625 86.914062 162.207031 84.886719 " fill-opacity="1" fill-rule="nonzero"/><path fill="#697d2f" d="M 168.09375 112.367188 C 168.148438 112.636719 167.730469 112.746094 167.679688 112.476562 C 166.410156 105.855469 165.046875 99.25 162.324219 93.058594 C 162.121094 92.597656 161.914062 92.140625 161.695312 91.6875 C 159.042969 86.15625 155.476562 81.109375 151.164062 76.75 C 151.234375 76.671875 151.320312 76.601562 151.421875 76.542969 C 151.449219 76.523438 151.484375 76.507812 151.515625 76.492188 C 155.828125 80.871094 159.410156 85.929688 162.066406 91.472656 C 162.28125 91.925781 162.492188 92.382812 162.695312 92.84375 C 165.441406 99.066406 166.820312 105.699219 168.09375 112.367188 " fill-opacity="1" fill-rule="nonzero"/><path fill="#a9b881" d="M 159.390625 42.421875 C 159.167969 42.015625 158.933594 41.625 158.695312 41.246094 C 156.472656 37.734375 153.125 34.878906 149.132812 33.582031 C 148.5 33.375 147.832031 33.234375 147.164062 33.234375 C 146.835938 33.234375 146.566406 33.3125 146.34375 33.453125 C 146.21875 33.527344 146.109375 33.621094 146.015625 33.730469 C 145.171875 34.679688 145.351562 36.773438 145.597656 37.78125 C 145.886719 38.945312 146.429688 40.023438 147.03125 41.0625 C 148.496094 43.59375 150.253906 45.933594 151.980469 48.289062 C 153.484375 50.335938 154.976562 52.417969 157.105469 53.867188 C 157.722656 54.289062 158.460938 54.65625 159.175781 54.472656 C 159.253906 54.453125 159.328125 54.425781 159.402344 54.394531 C 159.535156 54.335938 159.664062 54.257812 159.777344 54.167969 C 160.097656 53.917969 160.355469 53.566406 160.550781 53.210938 C 162.4375 49.839844 161.1875 45.667969 159.390625 42.421875 " fill-opacity="1" fill-rule="nonzero"/><path fill="#697d2f" d="M 168.601562 111.664062 C 168.609375 111.941406 168.183594 111.941406 168.171875 111.664062 C 168.007812 105.144531 167.605469 98.625 166.945312 92.136719 C 165.796875 80.875 164.199219 69.394531 160.828125 58.554688 C 160.394531 57.15625 159.921875 55.769531 159.402344 54.394531 C 156.484375 46.625 152.210938 39.324219 146.015625 33.730469 C 146.109375 33.621094 146.21875 33.527344 146.34375 33.453125 C 150.109375 36.851562 153.214844 40.921875 155.707031 45.339844 C 157.304688 48.183594 158.644531 51.136719 159.777344 54.167969 C 162.464844 61.324219 164.027344 68.914062 165.273438 76.433594 C 167.207031 88.082031 168.308594 99.859375 168.601562 111.664062 " fill-opacity="1" fill-rule="nonzero"/><g clip-path="url(#d937e499c0)"><path fill="#a9b881" d="M 194.226562 56.035156 C 194.199219 55.996094 194.167969 55.964844 194.140625 55.929688 C 194.070312 55.859375 193.992188 55.789062 193.90625 55.730469 C 193.230469 55.222656 192.164062 55.171875 191.101562 55.40625 C 189.28125 55.816406 187.59375 56.679688 186.046875 57.726562 C 184.320312 58.894531 182.734375 60.300781 181.519531 61.996094 C 180.304688 63.6875 179.464844 65.679688 179.28125 67.75 C 179.226562 68.425781 179.269531 69.171875 179.554688 69.761719 C 179.621094 69.902344 179.703125 70.035156 179.800781 70.15625 C 179.898438 70.285156 180.019531 70.398438 180.15625 70.496094 C 180.859375 70.992188 181.828125 70.882812 182.65625 70.632812 C 184.828125 69.988281 186.679688 68.578125 188.359375 67.058594 C 190.179688 65.410156 191.867188 63.585938 193.167969 61.496094 C 193.894531 60.328125 194.507812 59.042969 194.628906 57.671875 C 194.675781 57.117188 194.585938 56.484375 194.226562 56.035156 " fill-opacity="1" fill-rule="nonzero"/></g><path fill="#a9b881" d="M 186.386719 34.605469 C 186.378906 34.597656 186.363281 34.59375 186.351562 34.589844 C 186.226562 34.542969 186.09375 34.507812 185.953125 34.492188 C 185.644531 34.441406 185.28125 34.457031 184.875 34.550781 C 184.121094 34.722656 183.449219 35.136719 182.808594 35.570312 C 180.253906 37.308594 178.03125 39.585938 176.566406 42.308594 C 175.105469 45.027344 174.425781 48.207031 174.886719 51.265625 C 175.027344 52.226562 175.292969 53.191406 175.828125 54 C 176.125 54.457031 176.519531 54.863281 176.972656 55.160156 C 177.09375 55.234375 177.21875 55.304688 177.347656 55.363281 C 177.605469 55.488281 177.875 55.574219 178.160156 55.617188 C 178.988281 55.746094 179.847656 55.492188 180.5625 55.046875 C 181.269531 54.601562 181.855469 53.976562 182.375 53.316406 C 184.203125 50.980469 185.328125 48.183594 186.296875 45.375 C 187.019531 43.269531 187.671875 41.121094 187.894531 38.90625 C 188.058594 37.296875 187.8125 35.164062 186.386719 34.605469 " fill-opacity="1" fill-rule="nonzero"/><g clip-path="url(#446166032d)"><path fill="#697d2f" d="M 194.226562 56.035156 C 188.617188 59.855469 183.726562 64.652344 179.800781 70.15625 C 177.425781 73.476562 175.402344 77.054688 173.78125 80.816406 C 173.753906 80.894531 173.691406 80.925781 173.632812 80.925781 C 173.042969 91.96875 173.359375 103.132812 173.136719 114.105469 C 173.132812 114.386719 172.703125 114.386719 172.707031 114.105469 C 172.84375 107.503906 172.785156 100.894531 172.835938 94.285156 C 172.941406 81.292969 173.585938 67.792969 176.972656 55.160156 C 178.917969 47.898438 181.773438 40.921875 185.953125 34.492188 C 186.09375 34.507812 186.226562 34.542969 186.351562 34.589844 C 186.363281 34.59375 186.378906 34.597656 186.386719 34.605469 C 183.527344 38.988281 181.234375 43.714844 179.457031 48.640625 C 178.652344 50.863281 177.953125 53.105469 177.347656 55.363281 C 175.179688 63.417969 174.164062 71.675781 173.683594 80.003906 C 175.285156 76.386719 177.261719 72.957031 179.554688 69.761719 C 183.476562 64.308594 188.339844 59.539062 193.90625 55.730469 C 193.992188 55.789062 194.070312 55.859375 194.140625 55.929688 C 194.167969 55.964844 194.199219 55.996094 194.226562 56.035156 " fill-opacity="1" fill-rule="nonzero"/></g><path fill="#697d2f" d="M 193.085938 80.730469 C 188.773438 85.09375 185.203125 90.144531 182.554688 95.675781 C 182.335938 96.128906 182.125 96.585938 181.925781 97.046875 C 179.199219 103.234375 177.835938 109.839844 176.566406 116.464844 C 176.515625 116.734375 176.101562 116.621094 176.152344 116.351562 C 177.429688 109.683594 178.808594 103.050781 181.554688 96.828125 C 181.753906 96.367188 181.964844 95.910156 182.183594 95.457031 C 184.839844 89.917969 188.417969 84.855469 192.730469 80.480469 C 192.765625 80.492188 192.800781 80.507812 192.828125 80.527344 C 192.929688 80.585938 193.015625 80.65625 193.085938 80.730469 " fill-opacity="1" fill-rule="nonzero"/><path fill="#de8b5b" d="M 181.394531 140.964844 L 161.738281 140.964844 C 161.507812 140.964844 161.316406 140.785156 161.308594 140.558594 L 159.628906 106.542969 C 159.617188 106.296875 159.816406 106.09375 160.058594 106.09375 L 183.070312 106.09375 C 183.316406 106.09375 183.511719 106.296875 183.5 106.542969 L 181.824219 140.558594 C 181.8125 140.785156 181.625 140.964844 181.394531 140.964844 " fill-opacity="1" fill-rule="nonzero"/><path fill="#ff9d87" d="M 73.433594 94.417969 C 73.433594 94.417969 86.082031 78.613281 88.441406 77.503906 C 90.800781 76.394531 94.667969 76.492188 95.609375 77.855469 C 96.554688 79.21875 93.601562 83.703125 88.707031 87.398438 C 83.8125 91.09375 74.601562 97.207031 74.601562 97.207031 L 73.433594 94.417969 " fill-opacity="1" fill-rule="nonzero"/><path fill="#ff9d87" d="M 87.882812 78.703125 L 93.703125 66.738281 L 98.113281 68.339844 L 101.195312 71.046875 L 94.230469 81.597656 L 89.050781 79.742188 L 87.882812 78.703125 " fill-opacity="1" fill-rule="nonzero"/><path fill="#ff9d87" d="M 150.894531 72.285156 L 143.96875 62.957031 L 148.621094 58.976562 L 151.929688 57.925781 L 158.203125 68.046875 L 154.554688 72.269531 L 150.894531 72.285156 " fill-opacity="1" fill-rule="nonzero"/><path fill="#301c15" d="M 155.84375 134.402344 C 155.84375 134.402344 157.507812 133.597656 157.882812 135.957031 C 158.257812 138.316406 158.421875 146.539062 157.882812 148.136719 C 157.347656 149.734375 154.304688 149.328125 153.757812 148.136719 C 153.210938 146.949219 155.84375 134.402344 155.84375 134.402344 " fill-opacity="1" fill-rule="nonzero"/><path fill="#2f3b80" d="M 112.390625 148.691406 L 132.871094 142.070312 L 132.269531 128.1875 L 120.757812 130.613281 L 112.390625 148.691406 " fill-opacity="1" fill-rule="nonzero"/><path fill="#5462b3" d="M 134.132812 114.179688 C 134.132812 114.179688 117.238281 143.355469 114.882812 146.644531 C 114.316406 147.433594 113.492188 148.097656 112.527344 148.617188 C 112.316406 148.730469 112.101562 148.835938 111.878906 148.9375 L 111.875 148.9375 C 108.867188 150.28125 104.882812 150.320312 103.058594 148.496094 C 100.480469 145.921875 100.625 136.78125 103.835938 128.914062 C 107.042969 121.054688 115.519531 102.175781 115.519531 102.175781 C 115.519531 102.175781 132.558594 104.1875 132.441406 104.757812 C 132.332031 105.332031 134.132812 114.179688 134.132812 114.179688 " fill-opacity="1" fill-rule="nonzero"/><path fill="#2f3b80" d="M 140.433594 134.457031 C 140.433594 134.457031 143.546875 131.992188 145.15625 133.707031 C 146.769531 135.421875 148.324219 139.175781 148.433594 139.710938 C 148.539062 140.246094 146.714844 149.511719 146.714844 149.511719 C 146.714844 149.511719 143.421875 150.730469 139.796875 151.039062 C 136.171875 151.347656 137.640625 138.589844 137.640625 138.589844 L 140.433594 134.457031 " fill-opacity="1" fill-rule="nonzero"/><path fill="#5462b3" d="M 149.597656 89.90625 C 149.480469 88.4375 149.191406 86.835938 148.320312 85.605469 C 147.429688 84.34375 145.910156 84.832031 144.566406 84.976562 C 140.808594 85.390625 137.097656 86.121094 133.460938 87.132812 C 133.457031 86.6875 133.453125 86.238281 133.449219 85.792969 C 133.445312 85.515625 133.015625 85.515625 133.019531 85.792969 C 133.023438 86.28125 133.027344 86.769531 133.03125 87.253906 C 132.859375 87.304688 132.683594 87.351562 132.507812 87.402344 C 132.242188 87.480469 132.355469 87.894531 132.625 87.816406 C 132.761719 87.777344 132.898438 87.738281 133.039062 87.699219 C 133.085938 91.632812 133.167969 95.574219 132.933594 99.5 C 132.660156 104.113281 131.921875 108.679688 131.222656 113.242188 C 130.546875 117.65625 129.929688 122.074219 129.714844 126.539062 C 129.5 131.09375 129.535156 135.660156 129.496094 140.21875 C 129.472656 143.441406 128.648438 147.878906 131.78125 149.96875 C 132.976562 150.765625 134.429688 151.117188 135.835938 151.304688 C 137.335938 151.503906 139.09375 151.71875 140.34375 150.675781 C 141.539062 149.679688 142.046875 148.035156 142.574219 146.632812 C 143.359375 144.5625 144.0625 142.460938 144.667969 140.335938 C 145.828125 136.261719 146.640625 132.082031 146.972656 127.863281 C 147.21875 124.761719 147.066406 121.648438 146.839844 118.550781 C 146.640625 115.859375 145.933594 113.1875 146.824219 110.546875 C 147.855469 107.484375 148.710938 104.496094 149.132812 101.277344 C 149.617188 97.558594 149.890625 93.652344 149.597656 89.90625 " fill-opacity="1" fill-rule="nonzero"/><path fill="#2f3b80" d="M 130.414062 116.851562 C 130.4375 116.800781 130.441406 116.738281 130.414062 116.675781 C 130.410156 116.660156 130.40625 116.648438 130.398438 116.636719 C 130.1875 113.300781 130.074219 109.960938 130.066406 106.617188 C 130.066406 106.339844 129.636719 106.339844 129.636719 106.617188 C 129.644531 109.5625 129.738281 112.507812 129.90625 115.445312 C 128.882812 112.972656 127.953125 110.460938 127.128906 107.910156 C 127.046875 107.648438 126.632812 107.761719 126.714844 108.023438 C 127.667969 110.976562 128.757812 113.875 129.976562 116.726562 C 130.046875 117.789062 130.125 118.851562 130.210938 119.914062 C 130.234375 120.1875 130.664062 120.191406 130.640625 119.914062 C 130.554688 118.894531 130.480469 117.875 130.414062 116.851562 " fill-opacity="1" fill-rule="nonzero"/><g clip-path="url(#e5cb0cf0af)"><path fill="#944426" d="M 123.59375 36.101562 C 123.496094 36.683594 122.992188 37.097656 122.421875 37.394531 C 122.296875 37.457031 122.167969 37.511719 122.039062 37.566406 L 122.035156 37.566406 C 121.714844 37.703125 121.390625 37.796875 121.132812 37.867188 C 120.375 38.074219 119.578125 38.25 118.792969 38.320312 C 117.558594 38.421875 116.433594 37.941406 115.296875 38.628906 C 113.796875 39.523438 112.75 40.417969 110.953125 40.703125 C 110.820312 40.71875 110.726562 40.632812 110.6875 40.535156 C 109.597656 41.539062 108.339844 42.53125 107 43.007812 C 106.207031 43.285156 105.574219 43.167969 104.78125 42.984375 C 104.613281 42.929688 104.441406 42.886719 104.265625 42.851562 C 104.121094 42.820312 103.980469 42.800781 103.835938 42.78125 C 103.820312 42.78125 103.8125 42.78125 103.800781 42.78125 C 103.304688 42.855469 102.882812 43.058594 102.523438 43.378906 C 102.519531 43.382812 102.515625 43.382812 102.511719 43.386719 C 102.386719 43.457031 102.285156 43.539062 102.164062 43.59375 C 102.121094 43.617188 102.082031 43.632812 102.035156 43.644531 C 100.457031 44.132812 101.105469 42.371094 100.695312 41.675781 C 100.339844 41.085938 99.988281 40.84375 100.066406 40.074219 C 100.148438 39.320312 100.648438 38.730469 100.914062 38.054688 C 101.558594 36.410156 100.351562 35.039062 100.4375 33.421875 C 100.476562 32.652344 100.796875 31.933594 100.753906 31.160156 C 100.710938 30.417969 100.453125 29.707031 100.28125 28.992188 C 99.890625 27.324219 100.257812 25.195312 100.8125 23.601562 C 101.679688 21.097656 103.660156 20.242188 105.917969 19.253906 C 106.894531 18.832031 107.890625 18.449219 108.917969 18.175781 C 110.855469 17.65625 113.09375 17.460938 114.964844 18.277344 C 115.007812 18.296875 115.046875 18.320312 115.089844 18.339844 C 117.625 18.929688 119.789062 21 120.570312 23.460938 C 121.066406 25.019531 121.175781 26.660156 121.570312 28.238281 C 121.796875 29.132812 122.125 29.929688 122.585938 30.722656 C 122.890625 31.25 123.222656 31.75 123.25 32.375 C 123.304688 33.550781 122.507812 34.066406 123.242188 35.246094 C 123.457031 35.59375 123.671875 35.652344 123.59375 36.101562 " fill-opacity="1" fill-rule="nonzero"/></g><path fill="#ff9d87" d="M 122.769531 42.449219 L 120.242188 45.25 L 115.746094 45.035156 L 115.050781 43.273438 L 113.789062 40.078125 L 113.398438 39.085938 L 117.816406 31.0625 L 122.769531 42.449219 " fill-opacity="1" fill-rule="nonzero"/><path fill="#e6684b" d="M 118.761719 36.875 C 118.550781 34.558594 116.824219 36.308594 116.003906 37.242188 C 115.210938 38.144531 114.539062 39.140625 113.789062 40.078125 L 115.050781 43.273438 C 115.4375 43.074219 115.792969 42.84375 116.089844 42.621094 C 117.835938 41.316406 118.960938 39.070312 118.761719 36.875 " fill-opacity="1" fill-rule="nonzero"/><path fill="#ff9d87" d="M 116.765625 23.664062 C 115.550781 22.039062 113.804688 20.734375 111.800781 20.285156 C 109.902344 19.859375 108.449219 20.304688 107.292969 21.617188 C 106.515625 21.847656 105.757812 22.125 105.023438 22.480469 C 104.308594 22.832031 103.242188 23.222656 102.953125 24.03125 C 102.652344 24.878906 102.945312 26.121094 103.0625 26.996094 C 103.210938 28.175781 103.449219 29.347656 103.773438 30.496094 C 103.808594 30.617188 103.84375 30.734375 103.882812 30.855469 C 103.972656 31.160156 104.070312 31.460938 104.175781 31.761719 C 104.753906 33.457031 105.523438 35.085938 106.46875 36.601562 C 107.476562 38.234375 108.5 39.863281 110.363281 40.589844 C 111.726562 41.121094 113.148438 41.9375 114.214844 41.488281 C 116.03125 40.722656 117.734375 38.339844 118.363281 36.183594 C 119.527344 32.191406 119.320312 27.097656 116.765625 23.664062 " fill-opacity="1" fill-rule="nonzero"/><path fill="#301c15" d="M 107.082031 33.667969 C 106.925781 33.507812 106.792969 33.320312 106.691406 33.121094 C 106.621094 32.984375 106.566406 32.832031 106.582031 32.679688 C 106.65625 31.847656 107.738281 32.878906 107.90625 33.183594 C 107.980469 33.320312 108.039062 33.46875 108.03125 33.625 C 108.027344 33.777344 107.941406 33.9375 107.796875 33.996094 C 107.605469 34.070312 107.398438 33.953125 107.242188 33.820312 C 107.1875 33.773438 107.132812 33.722656 107.082031 33.667969 " fill-opacity="1" fill-rule="nonzero"/><path fill="#301c15" d="M 112.480469 31.886719 C 112.320312 31.722656 112.183594 31.53125 112.082031 31.324219 C 112.007812 31.183594 111.953125 31.027344 111.964844 30.867188 C 112.042969 30.011719 113.15625 31.074219 113.328125 31.386719 C 113.40625 31.527344 113.46875 31.683594 113.460938 31.84375 C 113.453125 32 113.367188 32.164062 113.21875 32.222656 C 113.023438 32.300781 112.804688 32.179688 112.648438 32.046875 C 112.589844 31.996094 112.535156 31.945312 112.480469 31.886719 " fill-opacity="1" fill-rule="nonzero"/><path fill="#e6684b" d="M 113.570312 36.066406 C 112.910156 36.933594 112.015625 37.476562 110.910156 37.25 C 110.640625 37.195312 110.527344 37.609375 110.796875 37.664062 C 111.414062 37.792969 111.925781 37.796875 112.5 37.515625 C 113.082031 37.226562 113.550781 36.796875 113.941406 36.28125 C 114.109375 36.0625 113.734375 35.847656 113.570312 36.066406 " fill-opacity="1" fill-rule="nonzero"/><path fill="#944426" d="M 113.585938 28.703125 C 113.382812 28.582031 113.074219 28.480469 112.984375 28.453125 C 112.277344 28.265625 111.5 28.367188 110.878906 28.753906 C 110.53125 28.96875 110.019531 29.4375 110.199219 29.914062 C 110.390625 30.417969 111.042969 30.15625 111.40625 30.007812 C 111.792969 29.847656 112.140625 29.613281 112.515625 29.433594 C 112.875 29.257812 113.273438 29.226562 113.628906 29.058594 C 113.859375 28.949219 113.765625 28.816406 113.585938 28.703125 " fill-opacity="1" fill-rule="nonzero"/><path fill="#944426" d="M 106.949219 30.957031 C 106.753906 30.488281 106.058594 30.503906 105.65625 30.589844 C 105.050781 30.71875 104.503906 31.070312 104.125 31.554688 C 104.214844 31.859375 104.3125 32.160156 104.417969 32.457031 C 104.589844 32.367188 104.757812 32.269531 104.949219 32.210938 C 105.34375 32.082031 105.757812 32.007812 106.144531 31.859375 C 106.511719 31.714844 107.160156 31.449219 106.949219 30.957031 " fill-opacity="1" fill-rule="nonzero"/><path fill="#944426" d="M 119.03125 28.621094 C 118.824219 27.160156 118.667969 25.480469 117.898438 24.1875 C 117.210938 23.039062 115.949219 22.171875 114.847656 21.449219 C 113.613281 20.640625 112.203125 19.957031 110.722656 19.757812 C 109.320312 19.566406 107.914062 20.253906 106.652344 20.785156 C 105.449219 21.292969 104.277344 21.941406 103.367188 22.894531 C 101.199219 25.160156 102.078125 28.554688 102.84375 31.261719 C 102.878906 31.386719 102.984375 31.425781 103.085938 31.410156 C 102.839844 31.675781 102.535156 31.855469 102.175781 32.097656 C 101.949219 32.253906 102.164062 32.625 102.394531 32.46875 C 102.84375 32.160156 103.207031 31.964844 103.480469 31.660156 C 103.222656 32.125 102.816406 32.496094 102.367188 32.824219 C 102.144531 32.988281 102.359375 33.359375 102.582031 33.195312 C 103.277344 32.695312 103.925781 32.089844 104.128906 31.226562 C 104.226562 30.816406 104.167969 30.410156 104.15625 30 C 104.277344 29.675781 104.4375 29.371094 104.703125 29.097656 C 105.222656 28.5625 105.921875 28.382812 106.550781 28.023438 C 107.320312 27.589844 108.082031 26.9375 108.472656 26.132812 C 108.917969 25.210938 108.902344 24 108.945312 22.941406 C 108.945312 22.945312 108.945312 22.949219 108.949219 22.949219 C 109.753906 24.011719 110.664062 25.195312 111.828125 25.886719 C 112.46875 26.269531 113.210938 26.433594 113.878906 26.746094 C 114.660156 27.109375 115.359375 27.597656 116 28.164062 C 116.339844 29.023438 116.71875 29.875 117.234375 30.601562 C 117.691406 31.242188 118.152344 31.777344 118.441406 32.527344 C 118.644531 33.050781 118.808594 33.496094 119.1875 33.921875 C 119.308594 34.058594 119.566406 33.953125 119.554688 33.769531 C 119.445312 32.046875 119.273438 30.328125 119.03125 28.621094 " fill-opacity="1" fill-rule="nonzero"/><path fill="#ff9d87" d="M 117.804688 29.175781 C 117.726562 28.175781 117.199219 25.992188 115.785156 26.136719 C 114.796875 26.242188 114.648438 27.335938 114.695312 28.277344 C 114.621094 28.316406 114.566406 28.398438 114.605469 28.503906 C 114.660156 28.652344 114.710938 28.804688 114.761719 28.953125 C 114.777344 29.054688 114.792969 29.148438 114.804688 29.230469 C 114.816406 29.304688 114.859375 29.347656 114.90625 29.371094 C 115.152344 30.082031 115.394531 30.796875 115.683594 31.488281 C 115.863281 31.925781 116.175781 32.617188 116.707031 32.726562 C 118.09375 33.015625 117.859375 29.871094 117.804688 29.175781 " fill-opacity="1" fill-rule="nonzero"/><path fill="#e6684b" d="M 111.414062 35.597656 C 111.050781 35.667969 110.492188 35.648438 110.308594 35.246094 C 110.207031 35.027344 110.226562 34.640625 110.203125 34.394531 C 110.15625 33.84375 110.136719 33.292969 110.136719 32.738281 C 110.136719 32.460938 109.707031 32.460938 109.707031 32.738281 C 109.707031 33.253906 109.722656 33.769531 109.765625 34.285156 C 109.796875 34.648438 109.777344 35.148438 109.941406 35.492188 C 110.210938 36.046875 111.007812 36.109375 111.53125 36.007812 C 111.800781 35.957031 111.6875 35.542969 111.414062 35.597656 " fill-opacity="1" fill-rule="nonzero"/><path fill="#6e270d" d="M 109.328125 18.773438 C 108.417969 19.613281 108.492188 20.851562 108.445312 21.988281 C 108.433594 22.265625 108.863281 22.265625 108.875 21.988281 C 108.917969 20.972656 108.8125 19.828125 109.632812 19.078125 C 109.835938 18.890625 109.53125 18.585938 109.328125 18.773438 " fill-opacity="1" fill-rule="nonzero"/><path fill="#6e270d" d="M 104.097656 33.300781 C 103.453125 34.570312 103.367188 35.917969 103.8125 37.261719 C 104.023438 37.886719 104.191406 38.433594 103.941406 39.074219 C 103.574219 40.015625 102.691406 40.597656 102.457031 41.628906 C 102.320312 42.226562 102.363281 42.8125 102.511719 43.386719 C 102.386719 43.457031 102.285156 43.539062 102.164062 43.59375 C 101.847656 42.386719 101.933594 41.160156 102.789062 40.011719 C 103.363281 39.246094 103.808594 38.699219 103.507812 37.683594 C 103.359375 37.171875 103.171875 36.703125 103.117188 36.164062 C 103.003906 35.082031 103.238281 34.046875 103.726562 33.085938 C 103.851562 32.839844 104.222656 33.054688 104.097656 33.300781 " fill-opacity="1" fill-rule="nonzero"/><path fill="#6e270d" d="M 105.207031 39.964844 C 104.566406 40.859375 104.253906 41.859375 104.265625 42.851562 C 104.121094 42.820312 103.980469 42.800781 103.835938 42.78125 C 103.835938 41.738281 104.164062 40.683594 104.835938 39.746094 C 104.996094 39.527344 105.367188 39.742188 105.207031 39.964844 " fill-opacity="1" fill-rule="nonzero"/><path fill="#6e270d" d="M 122.421875 37.394531 C 122.296875 37.457031 122.167969 37.511719 122.039062 37.566406 L 122.035156 37.566406 C 121.234375 36.457031 120.660156 35.230469 120.871094 33.773438 C 121.078125 32.347656 121.257812 31.171875 120.757812 29.773438 C 120.300781 28.480469 119.558594 27.308594 118.980469 26.074219 C 118.867188 25.824219 119.234375 25.609375 119.351562 25.855469 C 120.230469 27.738281 121.550781 29.585938 121.585938 31.742188 C 121.605469 32.972656 121.039062 34.125 121.363281 35.359375 C 121.558594 36.113281 121.953125 36.773438 122.421875 37.394531 " fill-opacity="1" fill-rule="nonzero"/><path fill="#5462b3" d="M 150.171875 91.210938 C 150.171875 91.210938 142.9375 92.355469 133.773438 93.355469 C 124.613281 94.355469 116.035156 93.355469 116.035156 93.355469 C 116.035156 93.355469 113.578125 81.351562 112.726562 78.703125 C 111.875 76.058594 110.644531 71.371094 108.429688 67.769531 C 106.222656 64.164062 105.316406 48.058594 105.207031 47.414062 C 105.128906 46.933594 110.566406 44.613281 113.324219 43.472656 C 113.464844 43.414062 113.597656 43.355469 113.722656 43.304688 C 114.429688 43.015625 114.882812 42.835938 114.882812 42.835938 C 114.882812 42.835938 117.402344 43.019531 119.46875 41.953125 C 121.53125 40.890625 121.902344 40.355469 121.902344 40.355469 C 122.511719 40.375 123.125 40.394531 123.734375 40.417969 C 123.878906 40.417969 124.015625 40.429688 124.15625 40.4375 C 124.867188 40.457031 125.570312 40.484375 126.277344 40.507812 C 127.902344 40.574219 129.527344 40.640625 131.148438 40.71875 C 131.875 40.753906 132.605469 40.835938 133.332031 40.847656 C 134.023438 40.863281 136.273438 41.195312 136.902344 41.53125 C 137.394531 41.785156 136.246094 41.882812 136.539062 42.355469 C 137.1875 43.394531 137.730469 44.492188 138.246094 45.597656 C 139.003906 47.234375 139.660156 48.914062 140.214844 50.628906 C 140.742188 52.28125 141.183594 53.972656 141.433594 55.6875 C 141.871094 58.652344 143.082031 63.414062 144.3125 67.859375 C 144.84375 69.796875 145.382812 71.671875 145.855469 73.308594 C 146.632812 75.976562 147.246094 78.027344 147.429688 78.703125 C 149.066406 84.765625 150.171875 91.210938 150.171875 91.210938 " fill-opacity="1" fill-rule="nonzero"/><path fill="#2f3b80" d="M 153.660156 57.007812 C 152.808594 58.222656 151.894531 59.386719 150.769531 60.40625 C 148.207031 62.714844 145.136719 64.316406 142.289062 66.234375 C 141.976562 65.753906 141.8125 65.199219 141.464844 64.714844 C 141.15625 64.289062 140.738281 63.964844 140.351562 63.617188 C 139.632812 62.964844 139.183594 62.269531 138.851562 61.347656 C 137.710938 58.191406 137.066406 54.777344 136.523438 51.472656 C 136.476562 51.199219 136.0625 51.316406 136.105469 51.585938 C 136.324219 52.890625 136.546875 54.222656 136.8125 55.558594 C 136.8125 55.570312 136.808594 55.582031 136.808594 55.601562 C 137.199219 59.628906 138.433594 63.535156 140.5 67.015625 C 140.886719 67.679688 141.296875 68.269531 141.738281 68.820312 C 141.839844 68.941406 141.945312 69.0625 142.046875 69.179688 C 143.011719 73.367188 145.199219 77.199219 146.019531 81.449219 C 146.492188 83.878906 147.492188 86.15625 148 88.574219 C 148.472656 90.820312 148.296875 93.152344 149.296875 95.273438 C 149.417969 95.519531 149.785156 95.304688 149.667969 95.054688 C 148.640625 92.871094 148.875 90.390625 148.332031 88.082031 C 147.765625 85.667969 146.828125 83.382812 146.359375 80.941406 C 145.617188 77.089844 143.6875 73.605469 142.664062 69.851562 C 143.089844 70.285156 143.550781 70.707031 144.0625 71.121094 C 144.839844 71.761719 145.351562 72.472656 145.855469 73.308594 C 145.382812 71.671875 144.84375 69.796875 144.3125 67.859375 C 144.101562 67.863281 143.890625 67.902344 143.679688 67.984375 C 143.675781 67.976562 143.671875 67.96875 143.667969 67.964844 C 143.390625 67.472656 143.074219 67.070312 142.648438 66.671875 C 142.617188 66.636719 142.585938 66.601562 142.554688 66.566406 C 145.316406 64.710938 148.28125 63.144531 150.800781 60.945312 C 152.015625 59.886719 152.988281 58.664062 153.894531 57.386719 C 153.816406 57.261719 153.742188 57.132812 153.660156 57.007812 " fill-opacity="1" fill-rule="nonzero"/><path fill="#85391b" d="M 150.359375 114.277344 L 151.386719 136.277344 L 151.679688 146.5625 L 150.078125 148.496094 L 146.859375 146.480469 C 146.859375 146.480469 142.613281 120.578125 143.25 115.28125 C 143.882812 109.984375 144.988281 106.246094 145.3125 105.957031 C 145.632812 105.667969 150.359375 114.277344 150.359375 114.277344 " fill-opacity="1" fill-rule="nonzero"/><path fill="#85391b" d="M 164.03125 150.390625 C 163.054688 149.824219 161.589844 149.8125 160.5 149.5625 C 159.238281 149.273438 157.980469 148.933594 156.765625 148.484375 C 154.386719 147.601562 151.074219 146.054688 150.980469 143.128906 C 150.972656 142.863281 150.558594 142.863281 150.566406 143.128906 C 150.574219 143.28125 150.585938 143.425781 150.605469 143.570312 C 149.9375 142.996094 146.363281 143.34375 146.363281 143.34375 C 146.363281 143.34375 146.859375 146.210938 146.382812 147.566406 C 145.902344 148.941406 145.285156 150.652344 146.070312 152.035156 C 146.765625 153.257812 147.691406 153.273438 148.9375 153.121094 C 153.207031 152.597656 157.402344 153.488281 161.667969 153.324219 C 162.730469 153.285156 164.449219 153.117188 164.855469 151.890625 C 165.019531 151.394531 164.859375 150.996094 164.460938 150.675781 C 164.34375 150.578125 164.214844 150.5 164.085938 150.421875 C 164.066406 150.410156 164.050781 150.398438 164.03125 150.390625 " fill-opacity="1" fill-rule="nonzero"/><path fill="#e8985f" d="M 153.320312 110.265625 C 153.058594 106.164062 152.996094 103.289062 152.222656 99.253906 C 151.574219 95.855469 148.835938 94.730469 145.761719 93.980469 C 141.527344 92.949219 99.496094 91.78125 96.046875 91.988281 C 93.835938 91.542969 91.226562 92.050781 88.980469 91.824219 C 89.0625 91.582031 89.09375 91.324219 89.070312 91.03125 C 89.042969 90.757812 88.613281 90.757812 88.640625 91.03125 C 88.664062 91.304688 88.617188 91.550781 88.523438 91.78125 C 88.105469 91.742188 87.6875 91.699219 87.269531 91.667969 C 86.992188 91.644531 86.992188 92.074219 87.269531 92.09375 C 87.613281 92.121094 87.957031 92.15625 88.300781 92.1875 C 87.902344 92.757812 87.238281 93.207031 86.761719 93.667969 C 86.085938 94.320312 85.519531 95.070312 85.011719 95.855469 C 84.160156 97.164062 82.746094 99.015625 82.941406 100.667969 C 83.136719 102.351562 84.519531 103.734375 85.707031 104.816406 C 87.203125 106.175781 84.984375 106.804688 86.628906 107.972656 C 89.039062 109.683594 95.039062 112.382812 97.726562 113.667969 C 102.722656 116.058594 109.972656 115.53125 115.195312 114.085938 C 118.339844 113.214844 134.847656 110.546875 134.847656 110.546875 C 134.847656 110.546875 136.195312 117.726562 138.121094 123.109375 C 138.585938 124.410156 139.109375 125.695312 139.777344 126.90625 C 140.648438 128.480469 142.027344 131.59375 141.902344 133.4375 C 141.851562 134.179688 141.898438 134.925781 142.042969 135.65625 C 142.25 136.699219 142.140625 138.609375 143.183594 139.066406 C 144.597656 139.6875 147.136719 138.609375 148.628906 138.539062 C 150.527344 138.457031 152.414062 138.230469 154.285156 137.902344 C 154.386719 137.882812 153.988281 120.761719 153.320312 110.265625 " fill-opacity="1" fill-rule="nonzero"/><g clip-path="url(#7b7662e8ab)"><path fill="#e66b3e" d="M 110.851562 131.113281 C 110.851562 134.574219 110.304688 137.699219 109.042969 140.453125 C 108.953125 140.65625 108.855469 140.859375 108.753906 141.058594 C 104.476562 149.527344 93.097656 154.308594 69.707031 154.308594 C 47.527344 154.308594 36.148438 150.007812 31.382812 142.34375 C 31.261719 142.160156 31.152344 141.972656 31.050781 141.777344 C 29.304688 138.714844 28.558594 135.144531 28.558594 131.113281 L 28.558594 131.003906 C 28.558594 130.851562 28.558594 130.695312 28.5625 130.542969 C 28.605469 126.917969 29.085938 123.605469 30.320312 120.691406 C 30.378906 120.539062 30.441406 120.390625 30.511719 120.246094 C 32.628906 115.578125 36.753906 111.949219 44.210938 109.664062 C 44.375 109.613281 44.542969 109.5625 44.714844 109.515625 C 50.472656 107.828125 58.164062 106.914062 68.355469 106.914062 C 78.273438 106.914062 86.0625 107.777344 92.113281 109.378906 C 92.273438 109.417969 92.4375 109.46875 92.597656 109.511719 C 100.984375 111.820312 105.933594 115.589844 108.511719 120.472656 C 108.585938 120.601562 108.648438 120.730469 108.714844 120.863281 C 110.054688 123.554688 110.703125 126.574219 110.828125 129.867188 C 110.835938 130.023438 110.839844 130.179688 110.839844 130.339844 C 110.847656 130.597656 110.851562 130.855469 110.851562 131.113281 " fill-opacity="1" fill-rule="nonzero"/></g><path fill="#c95022" d="M 108.714844 120.863281 C 107.25 121.542969 105.757812 122.171875 104.246094 122.742188 C 89.171875 128.445312 72.597656 128.789062 56.699219 127.722656 C 49.121094 127.21875 41.148438 126.277344 34.207031 123.003906 C 32.851562 122.371094 31.539062 121.59375 30.320312 120.691406 C 30.378906 120.539062 30.441406 120.390625 30.511719 120.246094 C 32.953125 122.023438 35.792969 123.359375 38.558594 124.246094 C 45.980469 126.628906 53.859375 127.230469 61.605469 127.558594 C 69.480469 127.890625 77.402344 127.832031 85.238281 126.855469 C 93.222656 125.867188 101.199219 123.847656 108.511719 120.472656 C 108.585938 120.601562 108.648438 120.730469 108.714844 120.863281 " fill-opacity="1" fill-rule="nonzero"/><path fill="#c95022" d="M 92.597656 109.511719 C 91.402344 110.789062 90.058594 111.933594 88.609375 112.9375 C 80.242188 118.738281 68.644531 119.855469 58.898438 117.550781 C 53.949219 116.378906 47.949219 113.742188 44.210938 109.664062 C 44.375 109.613281 44.542969 109.5625 44.714844 109.515625 C 45.835938 110.757812 47.136719 111.851562 48.519531 112.757812 C 56.605469 118.054688 67.167969 119.246094 76.519531 117.394531 C 82.335938 116.242188 88.015625 113.574219 92.113281 109.378906 C 92.273438 109.417969 92.4375 109.46875 92.597656 109.511719 " fill-opacity="1" fill-rule="nonzero"/><path fill="#c95022" d="M 110.839844 130.339844 C 109.039062 131.164062 107.207031 131.925781 105.351562 132.625 C 90.046875 138.402344 73.402344 139.882812 57.199219 138.023438 C 49.167969 137.101562 41.046875 135.523438 33.382812 132.921875 C 31.753906 132.367188 30.128906 131.738281 28.558594 131.003906 C 28.558594 130.851562 28.558594 130.695312 28.5625 130.542969 C 31.253906 131.8125 34.113281 132.773438 36.917969 133.570312 C 52.777344 138.089844 69.714844 139.691406 86.066406 137.203125 C 94.601562 135.902344 102.984375 133.460938 110.828125 129.867188 C 110.835938 130.023438 110.839844 130.179688 110.839844 130.339844 " fill-opacity="1" fill-rule="nonzero"/><path fill="#c95022" d="M 109.042969 140.453125 C 108.953125 140.65625 108.855469 140.859375 108.753906 141.058594 C 101.625 144.785156 94.109375 147.832031 86.136719 149.144531 C 77.398438 150.585938 68.335938 150.34375 59.550781 149.476562 C 51.058594 148.640625 42.609375 146.921875 34.671875 143.75 C 33.578125 143.3125 32.476562 142.847656 31.382812 142.34375 C 31.261719 142.160156 31.152344 141.972656 31.050781 141.777344 C 33.742188 143.050781 36.546875 144.066406 39.210938 144.941406 C 47.238281 147.574219 55.65625 148.875 64.070312 149.410156 C 72.816406 149.964844 81.753906 149.933594 90.3125 147.863281 C 96.917969 146.261719 103.082031 143.589844 109.042969 140.453125 " fill-opacity="1" fill-rule="nonzero"/><path fill="#bf613d" d="M 154.976562 115.242188 L 156.003906 137.246094 L 156.296875 147.527344 L 154.695312 149.464844 L 151.476562 147.445312 C 151.476562 147.445312 147.230469 121.546875 147.867188 116.246094 C 148.5 110.949219 149.605469 107.210938 149.929688 106.921875 C 150.253906 106.632812 154.976562 115.242188 154.976562 115.242188 " fill-opacity="1" fill-rule="nonzero"/><path fill="#bf613d" d="M 46.644531 64.660156 C 46.644531 64.660156 46.644531 55.9375 47.574219 49.21875 C 48.507812 42.5 49.507812 36.140625 49.507812 36.140625 L 51.15625 34.636719 L 52.445312 36.710938 C 52.445312 36.710938 54.234375 60.085938 53.015625 64.660156 C 51.800781 69.234375 50.363281 72.378906 50.042969 72.59375 C 49.722656 72.808594 46.644531 64.660156 46.644531 64.660156 " fill-opacity="1" fill-rule="nonzero"/><path fill="#ffc799" d="M 155.46875 110.265625 C 155.207031 106.164062 155.144531 103.289062 154.371094 99.25 C 153.71875 95.855469 150.984375 94.730469 147.910156 93.980469 C 143.675781 92.949219 101.644531 91.78125 98.195312 91.984375 C 95.980469 91.542969 93.375 92.050781 91.128906 91.824219 C 91.210938 91.582031 91.242188 91.324219 91.21875 91.035156 C 91.191406 90.757812 90.761719 90.753906 90.789062 91.035156 C 90.808594 91.304688 90.765625 91.554688 90.671875 91.78125 C 90.25 91.742188 89.835938 91.699219 89.414062 91.664062 C 89.140625 91.648438 89.140625 92.078125 89.414062 92.09375 C 89.761719 92.125 90.105469 92.152344 90.449219 92.1875 C 90.050781 92.757812 89.382812 93.207031 88.90625 93.671875 C 88.238281 94.320312 87.664062 95.070312 87.160156 95.855469 C 86.308594 97.164062 84.894531 99.015625 85.089844 100.667969 C 85.285156 102.351562 86.667969 103.738281 87.855469 104.816406 C 89.347656 106.171875 87.132812 106.804688 88.777344 107.972656 C 91.1875 109.683594 97.1875 112.382812 99.875 113.664062 C 104.875 116.058594 112.121094 115.53125 117.34375 114.085938 C 120.488281 113.214844 138.144531 110.265625 138.144531 110.265625 C 138.144531 110.265625 139.152344 116.597656 141.078125 121.984375 C 141.539062 123.285156 141.257812 125.695312 141.929688 126.910156 C 142.296875 127.574219 142.710938 128.222656 143.179688 128.824219 C 143.816406 129.652344 144.542969 130.277344 144.414062 131.453125 C 144.339844 132.121094 144.097656 132.757812 144.050781 133.441406 C 144.003906 134.179688 144.046875 134.929688 144.191406 135.652344 C 144.398438 136.699219 144.824219 137.820312 145.863281 138.277344 C 147.03125 138.792969 148.597656 138.679688 149.953125 138.589844 C 150.097656 138.578125 150.242188 138.570312 150.382812 138.5625 C 150.519531 138.550781 150.648438 138.542969 150.777344 138.539062 C 152.675781 138.453125 154.5625 138.230469 156.433594 137.902344 C 156.53125 137.882812 156.132812 120.761719 155.46875 110.265625 " fill-opacity="1" fill-rule="nonzero"/><path fill="#e8985f" d="M 141.082031 108.117188 C 142.5625 106.738281 143.917969 105.230469 145.132812 103.59375 C 145.183594 103.648438 145.226562 103.699219 145.25 103.753906 C 145.320312 103.929688 145.148438 104.414062 145.125 104.640625 C 145.042969 105.433594 145.277344 106.074219 145.714844 106.683594 C 144.234375 107.386719 142.640625 108.070312 141.082031 108.117188 Z M 150.699219 127.273438 C 150.667969 125.527344 150.5 123.769531 150.046875 122.078125 C 149.597656 120.382812 148.792969 118.773438 148.628906 117.007812 C 148.371094 114.207031 149.761719 111.046875 147.9375 108.542969 C 147.519531 107.972656 146.875 107.441406 146.351562 106.851562 C 146.773438 106.648438 147.179688 106.453125 147.574219 106.265625 C 147.824219 106.152344 147.605469 105.78125 147.355469 105.898438 C 146.945312 106.085938 146.515625 106.296875 146.078125 106.507812 C 145.765625 106.085938 145.535156 105.628906 145.515625 105.101562 C 145.488281 104.460938 145.859375 103.644531 145.488281 103.121094 C 146.292969 102.332031 146.957031 101.429688 147.46875 100.425781 C 147.59375 100.175781 147.222656 99.964844 147.101562 100.207031 C 146.597656 101.195312 145.953125 102.074219 145.164062 102.84375 C 145.132812 102.828125 145.101562 102.8125 145.066406 102.796875 C 144.546875 102.574219 143.808594 102.675781 143.257812 102.671875 C 142.300781 102.664062 141.339844 102.695312 140.382812 102.742188 C 138.464844 102.839844 136.550781 103.011719 134.628906 103.078125 C 130.90625 103.199219 127.230469 102.46875 123.515625 102.601562 C 119.800781 102.730469 116.152344 103.546875 112.445312 103.8125 C 104.03125 104.414062 96.105469 101.214844 88.484375 98.058594 C 88.234375 97.957031 88.121094 98.367188 88.375 98.476562 C 94.6875 101.089844 101.179688 103.761719 108.078125 104.25 C 111.601562 104.5 115.0625 103.976562 118.542969 103.511719 C 120.394531 103.257812 122.253906 103.039062 124.121094 103.011719 C 125.9375 102.988281 127.738281 103.1875 129.542969 103.351562 C 133.179688 103.671875 136.75 103.355469 140.382812 103.171875 C 141.273438 103.128906 142.164062 103.097656 143.054688 103.101562 C 143.433594 103.101562 143.921875 103.035156 144.285156 103.128906 C 144.40625 103.15625 144.605469 103.234375 144.792969 103.34375 C 143 105.753906 140.902344 107.886719 138.527344 109.722656 C 138.304688 109.890625 138.613281 110.195312 138.828125 110.027344 C 139.445312 109.550781 140.042969 109.054688 140.621094 108.539062 C 142.425781 108.640625 144.277344 107.839844 145.988281 107.027344 C 147.058594 108.296875 148.222656 109.230469 148.425781 111.015625 C 148.601562 112.550781 148.265625 114.101562 148.191406 115.632812 C 148.113281 117.121094 148.40625 118.484375 148.882812 119.886719 C 149.488281 121.671875 149.992188 123.390625 150.167969 125.277344 C 150.535156 129.257812 149.949219 133.273438 149.941406 137.261719 C 149.941406 137.703125 149.949219 138.144531 149.953125 138.589844 C 150.097656 138.578125 150.242188 138.570312 150.382812 138.5625 L 150.382812 138.523438 C 150.332031 134.765625 150.765625 131.027344 150.699219 127.273438 " fill-opacity="1" fill-rule="nonzero"/><path fill="#85391b" d="M 43.417969 64.660156 L 41.699219 92.75 L 50.289062 92.75 L 49.789062 64.660156 L 43.417969 64.660156 " fill-opacity="1" fill-rule="nonzero"/><path fill="#85391b" d="M 43.417969 64.660156 C 43.417969 64.660156 43.417969 55.9375 44.347656 49.21875 C 45.28125 42.5 46.28125 36.140625 46.28125 36.140625 L 47.929688 34.636719 L 49.21875 36.710938 C 49.21875 36.710938 51.007812 60.085938 49.789062 64.660156 C 48.574219 69.234375 47.136719 72.378906 46.816406 72.59375 C 46.496094 72.808594 43.417969 64.660156 43.417969 64.660156 " fill-opacity="1" fill-rule="nonzero"/><path fill="#85391b" d="M 49.84375 33.109375 C 49.5 31.734375 48.789062 30.578125 48.828125 29.136719 C 48.863281 27.894531 48.816406 26.582031 48.527344 25.363281 C 48.378906 24.722656 48.046875 24.34375 47.570312 24.4375 C 47.5 23.578125 47.367188 22.734375 47.097656 21.929688 C 46.984375 21.585938 46.578125 20.996094 46.171875 20.960938 C 45.363281 20.898438 45.652344 22.109375 45.667969 22.585938 C 45.734375 24.503906 45.792969 26.417969 45.839844 28.335938 C 45.9375 32.167969 46 36.003906 46.027344 39.835938 C 46.027344 40.113281 46.457031 40.113281 46.457031 39.835938 C 46.457031 39.734375 46.453125 39.628906 46.453125 39.527344 C 46.558594 39.65625 46.707031 39.757812 46.914062 39.804688 C 47.472656 39.929688 49.09375 39.476562 49.386719 39.0625 C 50.566406 37.378906 50.339844 35.113281 49.84375 33.109375 " fill-opacity="1" fill-rule="nonzero"/><path fill="#85391b" d="M 47.597656 24.644531 C 46.941406 24.824219 47.128906 25.910156 47.105469 26.417969 C 47.042969 27.882812 47.054688 29.347656 47.121094 30.8125 C 47.132812 31.089844 47.5625 31.089844 47.550781 30.8125 C 47.507812 29.882812 47.484375 28.949219 47.492188 28.015625 C 47.496094 27.597656 47.371094 25.152344 47.710938 25.058594 C 47.976562 24.988281 47.867188 24.574219 47.597656 24.644531 " fill-opacity="1" fill-rule="nonzero"/><path fill="#242630" d="M 59.117188 86.292969 C 59.285156 85.769531 59.574219 85.210938 59.621094 84.644531 C 59.445312 84.679688 59.25 84.640625 59.082031 84.476562 C 58.179688 83.601562 57.082031 82.960938 56.148438 82.117188 C 56.132812 82.105469 56.121094 82.089844 56.109375 82.074219 C 55.886719 82.035156 55.660156 81.957031 55.433594 81.8125 C 51.683594 79.464844 42.75 73.742188 42.730469 73.878906 C 42.285156 77.1875 42.457031 79.898438 42.007812 83.207031 C 41.566406 86.480469 40.265625 100.796875 40.417969 102.148438 C 40.550781 103.34375 40.886719 104.507812 41.417969 105.589844 C 41.886719 106.546875 42.488281 107.71875 43.613281 107.96875 C 43.730469 107.992188 43.808594 107.929688 43.847656 107.84375 C 47.019531 107.550781 49.328125 105.386719 51.214844 102.921875 C 52.261719 101.550781 52.613281 100.011719 53.386719 98.511719 C 54.222656 96.882812 55.890625 96.105469 57.234375 94.972656 C 58.195312 94.167969 59.09375 93.085938 59.183594 91.785156 C 59.234375 91 58.910156 90.304688 58.757812 89.550781 C 58.535156 88.441406 58.773438 87.347656 59.117188 86.292969 " fill-opacity="1" fill-rule="nonzero"/><path fill="#301c15" d="M 39.195312 108.109375 C 39.195312 108.109375 37.121094 108.835938 36.683594 109.023438 C 33.566406 110.363281 29.621094 112.714844 26.171875 111.199219 C 24.355469 110.398438 23 108.421875 22.289062 106.636719 C 21.496094 104.632812 20.234375 102.808594 21.261719 100.625 C 21.296875 100.554688 21.28125 100.488281 21.246094 100.4375 C 21.316406 100.390625 21.382812 100.339844 21.449219 100.289062 C 21.65625 100.140625 21.648438 99.683594 21.414062 99.78125 C 19.425781 100.605469 17.878906 102.585938 17.191406 104.714844 C 16.617188 106.5 16.773438 108.480469 17.683594 110.132812 C 17.917969 110.558594 18.238281 110.914062 18.503906 111.316406 C 18.816406 111.789062 18.949219 112.324219 19.15625 112.84375 C 19.503906 113.703125 19.996094 114.496094 20.628906 115.171875 C 21.589844 116.199219 22.832031 116.867188 24.175781 117.09375 C 24.871094 117.898438 25.882812 118.144531 26.945312 118.167969 C 28.46875 118.195312 30.039062 118.042969 31.472656 117.5 C 32.945312 116.941406 34.550781 116.339844 35.503906 115.097656 C 36.425781 113.890625 37.042969 113.496094 37.398438 112.226562 C 37.636719 111.363281 38.269531 110.660156 38.648438 109.832031 C 38.8125 109.476562 39.195312 108.109375 39.195312 108.109375 " fill-opacity="1" fill-rule="nonzero"/><path fill="#bf613d" d="M 39.613281 107.160156 C 39.550781 107.417969 39.425781 107.710938 39.25 108.015625 C 37.664062 110.757812 31.753906 115.039062 26.292969 113.773438 C 20.214844 112.363281 19.683594 108.757812 18.851562 106.5 C 18.066406 104.367188 20.003906 100.496094 21.75 99.566406 C 21.847656 99.515625 21.949219 99.46875 22.046875 99.4375 C 23.707031 98.886719 29.199219 97.011719 32.773438 96.09375 C 32.90625 96.0625 33.035156 96.027344 33.160156 95.996094 C 33.359375 95.949219 33.546875 95.902344 33.730469 95.863281 C 37.195312 95.078125 38.265625 95.261719 38.851562 96.84375 C 39.433594 98.425781 40.21875 104.597656 39.613281 107.160156 " fill-opacity="1" fill-rule="nonzero"/><path fill="#bf613d" d="M 31.882812 95.921875 C 31.585938 94.871094 30.769531 93.96875 29.886719 94.710938 C 29.09375 95.371094 27.707031 97.511719 27.019531 98.324219 C 26.925781 98.433594 27.054688 98.566406 27.164062 98.597656 C 27.863281 99.328125 30.089844 98.53125 30.789062 98.191406 C 32.058594 97.574219 32.257812 97.253906 31.882812 95.921875 " fill-opacity="1" fill-rule="nonzero"/><path fill="#bf613d" d="M 38.851562 99.894531 L 48.441406 97.207031 L 49.144531 105.53125 L 36.992188 108.632812 L 38.851562 99.894531 " fill-opacity="1" fill-rule="nonzero"/><path fill="#301c15" d="M 27.523438 99.566406 C 27.300781 99.671875 27.0625 99.738281 26.824219 99.773438 C 26.65625 99.796875 26.480469 99.800781 26.328125 99.730469 C 25.5 99.363281 26.941406 98.617188 27.3125 98.550781 C 27.480469 98.523438 27.652344 98.515625 27.808594 98.578125 C 27.96875 98.640625 28.101562 98.78125 28.109375 98.949219 C 28.121094 99.171875 27.925781 99.34375 27.734375 99.457031 C 27.667969 99.496094 27.59375 99.535156 27.523438 99.566406 " fill-opacity="1" fill-rule="nonzero"/><path fill="#85391b" d="M 33.289062 98.640625 C 33.210938 98.882812 32.820312 98.808594 32.894531 98.5625 C 33.136719 97.785156 33.019531 96.914062 32.773438 96.09375 C 32.90625 96.0625 33.035156 96.027344 33.160156 95.996094 C 33.417969 96.871094 33.539062 97.8125 33.289062 98.640625 " fill-opacity="1" fill-rule="nonzero"/><path fill="#301c15" d="M 25.550781 101.640625 C 25.277344 101.175781 25.1875 100.625 25.144531 100.085938 C 25.128906 99.878906 25.121094 99.664062 25.03125 99.476562 C 24.945312 99.285156 24.753906 99.125 24.546875 99.140625 C 24.363281 99.15625 24.210938 99.304688 24.136719 99.476562 C 23.75 100.386719 24.296875 101.539062 24.949219 102.171875 C 25.113281 102.332031 25.304688 102.480469 25.53125 102.535156 C 25.585938 102.546875 25.648438 102.554688 25.699219 102.535156 C 25.828125 102.488281 25.863281 102.320312 25.832031 102.1875 C 25.789062 101.988281 25.660156 101.820312 25.550781 101.640625 " fill-opacity="1" fill-rule="nonzero"/><path fill="#301c15" d="M 36.507812 108.050781 C 34.710938 108.191406 33.460938 107.484375 31.996094 106.578125 C 30.921875 105.910156 29.570312 106.511719 28.417969 106.671875 C 26.480469 106.945312 24.011719 107.09375 22.957031 105.125 C 22.042969 103.421875 21.660156 101.492188 21.75 99.566406 C 20.003906 100.496094 17.546875 104.429688 18.335938 106.5625 C 18.753906 107.703125 19.222656 109.269531 20.359375 110.726562 C 19.800781 110.746094 19.175781 111.058594 18.6875 111.363281 C 18.171875 111.15625 17.617188 111.082031 17.054688 111.261719 C 16.246094 111.515625 15.640625 112.207031 15.640625 113.066406 C 15.640625 113.859375 15.785156 114.367188 15.554688 115.164062 C 15.371094 115.800781 15.359375 116.441406 15.414062 117.097656 C 15.515625 118.285156 16.222656 119.148438 17.238281 119.757812 C 17.628906 119.992188 18.0625 120.171875 18.527344 120.179688 C 19.066406 120.191406 19.417969 120.113281 19.960938 120.367188 C 20.144531 120.449219 20.28125 120.601562 20.476562 120.667969 C 21.433594 121.015625 22.398438 120.246094 22.996094 119.574219 C 24.507812 117.882812 24.734375 115.355469 23.476562 113.457031 C 23.382812 113.320312 23.285156 113.1875 23.179688 113.058594 C 24.03125 113.511719 25.042969 113.898438 26.265625 114.179688 C 31.726562 115.445312 37.609375 110.851562 39.195312 108.109375 C 39.183594 108.101562 37.265625 107.992188 36.507812 108.050781 " fill-opacity="1" fill-rule="nonzero"/><path fill="#bf613d" d="M 33.722656 105.136719 C 33.222656 104.578125 32.425781 104.59375 31.738281 104.683594 C 31.1875 104.753906 30.644531 104.898438 30.128906 105.105469 C 29.742188 105.261719 29.375 105.5 28.992188 105.683594 C 28.9375 105.59375 28.828125 105.542969 28.71875 105.617188 C 28.605469 105.695312 28.492188 105.789062 28.386719 105.894531 C 28.28125 105.914062 28.175781 105.929688 28.066406 105.929688 C 27.839844 105.929688 27.839844 106.242188 28.023438 106.308594 C 27.328125 107.242188 27.015625 108.605469 28.03125 109.371094 C 29.25 110.292969 31.296875 109.636719 32.398438 108.847656 C 33.40625 108.125 34.816406 106.359375 33.722656 105.136719 " fill-opacity="1" fill-rule="nonzero"/><path fill="#464752" d="M 93.324219 94.136719 C 93.191406 92.773438 92.9375 91.285156 91.75 90.433594 C 90.753906 89.710938 89.460938 89.589844 88.277344 89.5 C 86.933594 89.398438 85.59375 89.292969 84.257812 89.183594 C 83.679688 89.136719 83.097656 89.089844 82.523438 89.039062 C 79.03125 88.742188 75.542969 88.417969 72.058594 88.039062 C 69.980469 87.003906 67.839844 86.046875 65.617188 85.652344 C 62.472656 85.089844 59.503906 86.164062 56.75 87.597656 C 55.164062 88.421875 53.621094 89.328125 52.066406 90.203125 C 50.582031 91.039062 49.03125 91.8125 47.617188 92.773438 C 45.90625 93.941406 44.917969 95.722656 44.300781 97.652344 C 43.894531 98.9375 43.867188 100.238281 43.617188 101.546875 C 43.351562 102.941406 42.804688 104.292969 42.738281 105.730469 C 42.648438 107.628906 44.003906 108.921875 45.660156 109.625 C 47.515625 110.410156 49.5625 110.339844 51.523438 110.101562 C 53.742188 109.824219 55.945312 109.441406 58.160156 109.101562 C 63.15625 108.335938 68.160156 107.695312 73.222656 107.714844 C 78.199219 107.738281 83.15625 108.226562 88.117188 108.589844 C 88.945312 108.652344 89.734375 108.84375 90.335938 108.15625 C 90.96875 107.4375 91.175781 106.292969 91.320312 105.382812 C 91.503906 104.226562 91.644531 103.054688 91.761719 101.878906 C 91.992188 101.449219 92.191406 101.011719 92.375 100.566406 C 92.566406 100.089844 92.734375 99.609375 92.871094 99.117188 C 93.328125 97.507812 93.492188 95.824219 93.324219 94.136719 " fill-opacity="1" fill-rule="nonzero"/><path fill="#bf613d" d="M 46.644531 64.660156 L 44.925781 92.75 L 53.519531 92.75 L 53.015625 64.660156 L 46.644531 64.660156 " fill-opacity="1" fill-rule="nonzero"/><path fill="#464752" d="M 61.21875 86.261719 C 61.164062 85.636719 60.738281 85.058594 60.378906 84.578125 C 59.511719 83.429688 58.363281 82.539062 57.175781 81.738281 C 53.503906 79.269531 46.0625 74.4375 46.039062 74.574219 C 45.484375 77.867188 44.484375 81.390625 43.925781 84.683594 C 43.378906 87.9375 42.253906 97.859375 41.871094 99.527344 C 41.566406 100.84375 41.335938 102.121094 41.441406 103.476562 C 41.53125 104.675781 41.832031 105.851562 42.324219 106.949219 C 42.761719 107.921875 44.101562 109.40625 46.308594 109.863281 C 46.421875 109.886719 50.242188 107.003906 52.203125 104.601562 C 53.296875 103.261719 53.699219 101.738281 54.519531 100.261719 C 55.410156 98.664062 57.101562 97.941406 58.484375 96.855469 C 59.46875 96.078125 60.402344 95.027344 60.535156 93.730469 C 60.613281 92.949219 60.3125 92.242188 60.183594 91.484375 C 59.996094 90.367188 60.269531 89.285156 60.648438 88.238281 C 60.875 87.617188 61.273438 86.945312 61.21875 86.261719 " fill-opacity="1" fill-rule="nonzero"/><path fill="#bf613d" d="M 46.644531 64.660156 C 46.644531 64.660156 46.644531 55.9375 47.574219 49.21875 C 48.507812 42.5 49.507812 36.140625 49.507812 36.140625 L 51.15625 34.636719 L 52.445312 36.710938 C 52.445312 36.710938 54.234375 60.085938 53.015625 64.660156 C 51.800781 69.234375 50.363281 72.378906 50.042969 72.59375 C 49.722656 72.808594 46.644531 64.660156 46.644531 64.660156 " fill-opacity="1" fill-rule="nonzero"/><path fill="#bf613d" d="M 53.070312 33.109375 C 52.730469 31.734375 52.015625 30.578125 52.054688 29.136719 C 52.089844 27.894531 52.042969 26.582031 51.753906 25.363281 C 51.605469 24.722656 51.273438 24.34375 50.800781 24.4375 C 50.730469 23.578125 50.59375 22.734375 50.328125 21.929688 C 50.210938 21.585938 49.804688 20.996094 49.402344 20.960938 C 48.589844 20.898438 48.878906 22.109375 48.898438 22.585938 C 48.960938 24.503906 49.019531 26.417969 49.066406 28.335938 C 49.164062 32.167969 49.226562 36.003906 49.253906 39.835938 C 49.253906 40.113281 49.683594 40.113281 49.683594 39.835938 C 49.683594 39.734375 49.679688 39.628906 49.679688 39.527344 C 49.785156 39.65625 49.9375 39.757812 50.140625 39.804688 C 50.699219 39.929688 52.320312 39.476562 52.613281 39.0625 C 53.792969 37.378906 53.566406 35.113281 53.070312 33.109375 " fill-opacity="1" fill-rule="nonzero"/><path fill="#85391b" d="M 50.824219 24.644531 C 50.167969 24.824219 50.355469 25.910156 50.332031 26.417969 C 50.269531 27.882812 50.28125 29.347656 50.347656 30.8125 C 50.359375 31.089844 50.789062 31.089844 50.777344 30.8125 C 50.734375 29.882812 50.710938 28.949219 50.71875 28.015625 C 50.726562 27.597656 50.597656 25.152344 50.9375 25.058594 C 51.207031 24.988281 51.09375 24.574219 50.824219 24.644531 " fill-opacity="1" fill-rule="nonzero"/><g clip-path="url(#c491d048cb)"><path fill="#bf613d" d="M 169.414062 152.023438 C 169.335938 151.886719 169.226562 151.757812 169.082031 151.640625 C 169.007812 151.578125 168.925781 151.523438 168.839844 151.46875 C 168.792969 151.441406 168.75 151.414062 168.703125 151.382812 C 168.6875 151.375 168.667969 151.363281 168.652344 151.355469 C 167.671875 150.789062 166.210938 150.773438 165.121094 150.527344 C 163.851562 150.238281 162.597656 149.902344 161.382812 149.449219 C 159.007812 148.566406 155.691406 147.023438 155.601562 144.09375 C 155.59375 143.828125 155.179688 143.828125 155.183594 144.09375 C 155.191406 144.242188 155.207031 144.390625 155.226562 144.535156 C 154.558594 143.960938 150.980469 144.308594 150.980469 144.308594 C 150.980469 144.308594 151.476562 147.171875 151 148.53125 C 150.519531 149.90625 149.898438 151.617188 150.691406 153 C 151.382812 154.222656 152.308594 154.234375 153.554688 154.085938 C 157.824219 153.5625 162.019531 154.457031 166.285156 154.292969 C 167.21875 154.253906 168.65625 154.121094 169.265625 153.257812 C 169.351562 153.136719 169.425781 153.003906 169.472656 152.855469 C 169.578125 152.539062 169.550781 152.261719 169.414062 152.023438 " fill-opacity="1" fill-rule="nonzero"/></g><path fill="#85391b" d="M 154.152344 145.660156 C 154.039062 145.40625 153.667969 145.625 153.78125 145.875 C 154.265625 146.96875 154.527344 148.113281 154.574219 149.304688 C 154.585938 149.582031 155.015625 149.582031 155.003906 149.304688 C 154.953125 148.035156 154.667969 146.820312 154.152344 145.660156 " fill-opacity="1" fill-rule="nonzero"/><path fill="#85391b" d="M 169.472656 152.855469 C 169.425781 153.003906 169.351562 153.136719 169.265625 153.257812 C 168.839844 153 168.367188 152.894531 167.816406 152.882812 C 167.539062 152.871094 167.539062 152.441406 167.816406 152.453125 C 168.398438 152.464844 168.972656 152.554688 169.472656 152.855469 " fill-opacity="1" fill-rule="nonzero"/><path fill="#85391b" d="M 169.414062 152.023438 C 168.875 151.871094 168.300781 151.820312 167.710938 151.871094 C 167.433594 151.898438 167.433594 151.46875 167.710938 151.445312 C 168.09375 151.410156 168.46875 151.417969 168.839844 151.46875 C 168.925781 151.523438 169.007812 151.578125 169.082031 151.640625 C 169.226562 151.757812 169.335938 151.886719 169.414062 152.023438 " fill-opacity="1" fill-rule="nonzero"/><path fill="#242630" d="M 60.609375 98.117188 C 60.621094 98.09375 60.632812 98.070312 60.640625 98.046875 C 62.269531 94.253906 61.503906 90.246094 61.195312 86.257812 C 61.171875 85.984375 60.742188 85.984375 60.765625 86.257812 C 60.925781 88.34375 61.140625 90.429688 61.238281 92.519531 C 61.335938 94.65625 60.875 96.574219 59.964844 98.507812 C 59.644531 99.191406 59.214844 99.855469 59.011719 100.582031 C 58.796875 101.335938 58.921875 102.085938 58.972656 102.855469 C 59.101562 104.847656 58.636719 106.761719 57.625 108.488281 C 57.488281 108.726562 57.859375 108.945312 57.996094 108.707031 C 58.851562 107.238281 59.367188 105.613281 59.425781 103.910156 C 59.460938 102.851562 59.128906 101.734375 59.425781 100.699219 C 59.636719 99.949219 60.058594 99.242188 60.414062 98.53125 C 60.726562 100.628906 60.785156 102.726562 60.59375 104.839844 C 60.566406 105.113281 60.996094 105.113281 61.023438 104.839844 C 61.222656 102.640625 61.144531 100.449219 60.808594 98.269531 C 60.789062 98.152344 60.699219 98.109375 60.609375 98.117188 " fill-opacity="1" fill-rule="nonzero"/><path fill="#242630" d="M 90.996094 102.285156 C 90.023438 104.429688 88.101562 105.78125 86.132812 106.941406 C 85.894531 107.082031 86.109375 107.453125 86.347656 107.3125 C 88.378906 106.117188 90.363281 104.710938 91.367188 102.503906 C 91.480469 102.253906 91.109375 102.035156 90.996094 102.285156 " fill-opacity="1" fill-rule="nonzero"/><path fill="#ffffff" d="M 120.566406 48.710938 C 118.945312 48.8125 114.882812 42.832031 114.882812 42.832031 C 114.882812 42.832031 117.402344 43.019531 119.46875 41.953125 C 121.53125 40.890625 121.902344 40.355469 121.902344 40.355469 C 121.902344 40.355469 122.1875 48.597656 120.566406 48.710938 " fill-opacity="1" fill-rule="nonzero"/><path fill="#5462b3" d="M 113.738281 56.492188 C 113.078125 54.890625 112.007812 53.546875 111.097656 52.089844 C 110.535156 51.183594 110.058594 50.230469 109.855469 49.175781 C 109.726562 48.488281 109.65625 48.101562 109.019531 47.75 C 108.320312 47.359375 107.566406 46.949219 106.765625 46.828125 C 105.871094 46.6875 105.195312 47.226562 104.558594 47.804688 C 102.132812 50.011719 100 52.773438 98.496094 55.691406 C 96.929688 58.722656 93.523438 66.464844 91.847656 70.300781 C 91.789062 70.441406 91.734375 70.574219 91.675781 70.703125 C 91.277344 71.621094 91.003906 72.253906 90.917969 72.460938 C 90.910156 72.472656 90.90625 72.484375 90.898438 72.492188 C 90.886719 72.519531 90.882812 72.53125 90.882812 72.53125 C 90.882812 72.53125 93.859375 74.371094 97.039062 76.144531 C 99.152344 77.320312 101.347656 78.46875 102.824219 79.027344 C 103.804688 79.398438 104.714844 78.417969 105.371094 77.582031 C 105.46875 77.453125 105.558594 77.328125 105.648438 77.210938 C 105.726562 77.105469 105.800781 77.003906 105.871094 76.921875 C 106.386719 76.253906 106.875 75.566406 107.269531 74.824219 C 107.3125 74.738281 107.355469 74.65625 107.398438 74.570312 C 107.789062 73.773438 108.378906 73.210938 109.070312 72.597656 C 109.402344 72.300781 109.75 71.988281 110.117188 71.695312 C 110.617188 71.292969 111.144531 70.925781 111.699219 70.679688 C 112.316406 70.40625 113.117188 70.191406 113.5625 69.652344 C 114.003906 69.117188 113.972656 68.414062 113.933594 67.769531 C 113.804688 65.761719 114.453125 63.890625 114.601562 61.914062 C 114.742188 60.070312 114.441406 58.199219 113.738281 56.492188 " fill-opacity="1" fill-rule="nonzero"/><path fill="#5462b3" d="M 154.804688 58.96875 C 154.878906 59.105469 152.511719 62.195312 150.171875 64.230469 C 149.324219 64.964844 147.027344 66.390625 146.015625 66.875 C 145.640625 67.054688 144.6875 67.503906 143.667969 67.964844 C 143.007812 68.261719 142.320312 68.570312 141.738281 68.820312 C 141.1875 69.050781 140.742188 69.230469 140.507812 69.304688 C 138.671875 69.855469 139.824219 66.632812 138.164062 65.242188 C 136.488281 63.835938 136.507812 61.472656 136.523438 59.480469 C 136.578125 53.433594 133.3125 40.863281 133.585938 40.878906 C 140.167969 41.222656 144.414062 45.734375 148.019531 49.773438 C 149.667969 51.617188 151.265625 53.515625 152.6875 55.546875 C 153.023438 56.027344 153.351562 56.511719 153.660156 57.007812 C 153.742188 57.132812 153.816406 57.261719 153.894531 57.386719 C 154.214844 57.902344 154.519531 58.429688 154.804688 58.96875 " fill-opacity="1" fill-rule="nonzero"/><path fill="#2f3b80" d="M 116.246094 136.746094 C 115.398438 140.71875 114.421875 144.964844 112.527344 148.617188 C 112.316406 148.730469 112.101562 148.835938 111.878906 148.9375 C 113.945312 145.199219 114.945312 140.757812 115.828125 136.632812 C 115.886719 136.359375 116.300781 136.476562 116.246094 136.746094 " fill-opacity="1" fill-rule="nonzero"/><path fill="#ff9d87" d="M 154.171875 96.148438 C 153.429688 94.492188 149.597656 89.90625 149.597656 89.90625 C 149.597656 89.90625 148.925781 89.996094 147.820312 90.742188 C 147.734375 90.652344 147.558594 90.625 147.460938 90.757812 C 145.398438 93.480469 148.777344 96.113281 149.859375 98.394531 C 150.039062 98.777344 150.746094 99.851562 151.1875 99.003906 C 151.386719 98.621094 151.054688 97.964844 150.9375 97.617188 C 150.769531 97.113281 150.558594 96.632812 150.320312 96.164062 C 151.179688 96.917969 151.832031 98.039062 152.363281 98.972656 C 152.757812 99.667969 153.109375 100.390625 153.4375 101.121094 C 153.621094 101.53125 153.925781 102.863281 154.347656 103.066406 C 154.503906 103.140625 154.734375 103.007812 154.691406 102.84375 C 154.75 103.074219 155.253906 102.878906 155.351562 102.816406 C 155.636719 102.621094 155.722656 102.121094 155.738281 101.808594 C 155.820312 99.972656 154.910156 97.796875 154.171875 96.148438 " fill-opacity="1" fill-rule="nonzero"/><path fill="#ff9d87" d="M 147.066406 91.554688 C 147.066406 91.554688 149.75 70.105469 151.273438 67.992188 C 152.796875 65.878906 156.222656 66.832031 157.710938 67.570312 C 159.199219 68.304688 158.828125 72.621094 156.34375 78.222656 C 153.859375 83.828125 149.445312 93.433594 149.445312 93.433594 L 147.066406 91.554688 " fill-opacity="1" fill-rule="nonzero"/><path fill="#2f3b80" d="M 109.300781 70.003906 C 108.703125 68.910156 108.058594 67.863281 107.890625 66.601562 C 107.75 65.578125 107.617188 64.773438 107.128906 63.851562 C 106.46875 62.609375 105.851562 61.398438 105.402344 60.0625 C 105.328125 59.851562 104.96875 59.828125 104.976562 60.09375 C 105.074219 63.484375 106.640625 66.609375 106.625 70.019531 C 106.621094 71.433594 106.523438 72.882812 107.03125 74.238281 C 107.109375 74.4375 107.1875 74.632812 107.269531 74.824219 C 107.3125 74.738281 107.355469 74.65625 107.398438 74.570312 C 107.789062 73.773438 108.378906 73.210938 109.070312 72.597656 C 109.402344 72.300781 109.75 71.988281 110.117188 71.695312 C 109.875 71.121094 109.601562 70.554688 109.300781 70.003906 " fill-opacity="1" fill-rule="nonzero"/><path fill="#2f3b80" d="M 104.929688 58.890625 C 104.085938 57.609375 103.375 56.261719 102.800781 54.839844 C 102.699219 54.585938 102.28125 54.695312 102.386719 54.953125 C 102.972656 56.410156 103.695312 57.796875 104.558594 59.105469 C 104.710938 59.335938 105.082031 59.121094 104.929688 58.890625 " fill-opacity="1" fill-rule="nonzero"/><path fill="#2f3b80" d="M 105.648438 77.210938 C 105.558594 77.328125 105.46875 77.453125 105.371094 77.582031 C 102.855469 76.851562 100.476562 75.664062 98.160156 74.445312 C 98.007812 74.367188 97.863281 74.285156 97.714844 74.210938 C 95.675781 73.136719 93.691406 71.980469 91.75 70.75 C 91.726562 70.734375 91.703125 70.71875 91.675781 70.703125 C 91.734375 70.574219 91.789062 70.441406 91.847656 70.300781 C 91.878906 70.324219 91.910156 70.339844 91.941406 70.359375 C 93.777344 71.523438 95.65625 72.628906 97.578125 73.65625 C 97.851562 73.800781 98.121094 73.945312 98.390625 74.089844 C 100.714844 75.316406 103.113281 76.5 105.648438 77.210938 " fill-opacity="1" fill-rule="nonzero"/><path fill="#2f3b80" d="M 124.15625 40.4375 C 124.058594 41.925781 123.890625 43.40625 123.628906 44.875 C 123.378906 46.261719 123.042969 47.636719 122.59375 48.96875 C 122.367188 49.644531 122.136719 50.867188 121.417969 51.210938 C 120.664062 51.566406 119.757812 50.992188 119.160156 50.578125 C 118.144531 49.882812 117.277344 48.992188 116.503906 48.035156 C 115.363281 46.632812 114.199219 45.105469 113.324219 43.472656 C 113.464844 43.414062 113.597656 43.355469 113.722656 43.304688 C 114.503906 44.738281 115.523438 46.078125 116.496094 47.339844 C 117.128906 48.160156 117.8125 48.941406 118.601562 49.613281 C 119.074219 50.015625 119.609375 50.4375 120.1875 50.683594 C 121.089844 51.0625 121.527344 50.585938 121.855469 49.765625 C 123.015625 46.785156 123.519531 43.609375 123.734375 40.417969 C 123.878906 40.417969 124.015625 40.429688 124.15625 40.4375 " fill-opacity="1" fill-rule="nonzero"/><path fill="#ffffff" d="M 108.738281 60.371094 C 108.988281 60.148438 116.503906 57.960938 116.703125 58.175781 C 116.902344 58.390625 118.082031 62.714844 118.082031 63 C 118.082031 63.285156 110.351562 65.574219 110.207031 65.347656 C 110.0625 65.125 108.488281 60.589844 108.738281 60.371094 " fill-opacity="1" fill-rule="nonzero"/><path fill="#2f3b80" d="M 153.894531 57.386719 C 152.988281 58.664062 152.015625 59.886719 150.800781 60.945312 C 148.28125 63.144531 145.316406 64.710938 142.554688 66.566406 C 142.585938 66.601562 142.617188 66.636719 142.648438 66.671875 C 143.074219 67.070312 143.390625 67.472656 143.667969 67.964844 C 143.007812 68.261719 142.320312 68.570312 141.738281 68.820312 C 141.296875 68.269531 140.886719 67.679688 140.5 67.015625 C 138.433594 63.535156 137.199219 59.628906 136.808594 55.601562 C 136.808594 55.582031 136.8125 55.570312 136.8125 55.558594 C 136.546875 54.222656 136.324219 52.890625 136.105469 51.585938 C 136.0625 51.316406 136.476562 51.199219 136.523438 51.472656 C 137.066406 54.777344 137.710938 58.191406 138.851562 61.347656 C 139.183594 62.269531 139.632812 62.964844 140.351562 63.617188 C 140.738281 63.964844 141.15625 64.289062 141.464844 64.714844 C 141.8125 65.199219 141.976562 65.753906 142.289062 66.234375 C 145.136719 64.316406 148.207031 62.714844 150.769531 60.40625 C 151.894531 59.386719 152.808594 58.222656 153.660156 57.007812 C 153.742188 57.132812 153.816406 57.261719 153.894531 57.386719 " fill-opacity="1" fill-rule="nonzero"/><path fill="#e6684b" d="M 153.160156 96.566406 C 153.035156 96.320312 152.664062 96.535156 152.792969 96.78125 C 153.75 98.648438 154.398438 100.601562 154.753906 102.664062 C 154.800781 102.9375 155.214844 102.820312 155.167969 102.550781 C 154.808594 100.453125 154.136719 98.457031 153.160156 96.566406 " fill-opacity="1" fill-rule="nonzero"/><path fill="#ffffff" d="M 51.003906 83.714844 C 49.488281 82.441406 49.523438 85.859375 49.117188 86.335938 C 48.445312 87.125 47.433594 88.441406 48.589844 88.902344 C 49.019531 89.070312 49.503906 88.878906 49.753906 88.503906 C 50.203125 87.828125 49.71875 87.050781 50.222656 86.382812 C 50.703125 85.742188 52.011719 84.558594 51.003906 83.714844 " fill-opacity="1" fill-rule="nonzero"/><path fill="#ffffff" d="M 84.257812 89.183594 C 84.039062 89.746094 83.480469 90.300781 83.203125 90.667969 C 82.699219 91.339844 83.183594 92.117188 82.734375 92.792969 C 82.484375 93.167969 82 93.363281 81.570312 93.191406 C 80.414062 92.726562 81.429688 91.410156 82.097656 90.621094 C 82.269531 90.421875 82.359375 89.707031 82.523438 89.039062 C 83.097656 89.089844 83.679688 89.136719 84.257812 89.183594 " fill-opacity="1" fill-rule="nonzero"/><path fill="#ffffff" d="M 64.320312 92.761719 C 62.339844 92.671875 64.445312 95.363281 64.414062 95.988281 C 64.359375 97.023438 64.355469 98.683594 65.554688 98.347656 C 66 98.222656 66.269531 97.777344 66.238281 97.328125 C 66.183594 96.519531 65.328125 96.191406 65.320312 95.355469 C 65.3125 94.558594 65.632812 92.824219 64.320312 92.761719 " fill-opacity="1" fill-rule="nonzero"/><path fill="#ffffff" d="M 51.996094 103.929688 C 53.890625 103.355469 51.003906 101.519531 50.828125 100.921875 C 50.53125 99.929688 49.980469 98.359375 48.960938 99.078125 C 48.585938 99.34375 48.480469 99.851562 48.660156 100.269531 C 48.980469 101.011719 49.898438 101.035156 50.183594 101.820312 C 50.457031 102.570312 50.734375 104.3125 51.996094 103.929688 " fill-opacity="1" fill-rule="nonzero"/><path fill="#ffffff" d="M 92.871094 99.117188 C 92.734375 99.609375 92.566406 100.089844 92.375 100.566406 C 92.007812 100.003906 91.257812 99.914062 90.96875 99.253906 C 90.789062 98.839844 90.894531 98.328125 91.273438 98.0625 C 92.042969 97.523438 92.546875 98.28125 92.871094 99.117188 " fill-opacity="1" fill-rule="nonzero"/><path fill="#ffffff" d="M 77.828125 103.511719 C 78.683594 101.726562 75.378906 102.613281 74.816406 102.339844 C 73.882812 101.886719 72.351562 101.234375 72.195312 102.46875 C 72.136719 102.925781 72.441406 103.347656 72.871094 103.496094 C 73.636719 103.761719 74.273438 103.101562 75.046875 103.417969 C 75.785156 103.722656 77.261719 104.695312 77.828125 103.511719 " fill-opacity="1" fill-rule="nonzero"/></svg>