<svg xmlns="http://www.w3.org/2000/svg" xmlns:xlink="http://www.w3.org/1999/xlink" width="1080" zoomAndPan="magnify" viewBox="0 0 810 809.999993" height="1080" preserveAspectRatio="xMidYMid meet" version="1.0"><defs><clipPath id="86831018d0"><path d="M 223.632812 763.507812 L 302.5625 763.507812 L 302.5625 809.652344 L 223.632812 809.652344 Z M 223.632812 763.507812 " clip-rule="nonzero"/></clipPath><clipPath id="9dae4d3a63"><path d="M 494 533 L 718.875 533 L 718.875 589 L 494 589 Z M 494 533 " clip-rule="nonzero"/></clipPath></defs><path fill="#f7936a" d="M 587.644531 291.289062 L 568.460938 239.808594 L 462.644531 275.261719 C 462.644531 275.261719 435.875 304.394531 454.671875 315.265625 C 473.46875 326.132812 587.644531 291.289062 587.644531 291.289062 " fill-opacity="1" fill-rule="nonzero"/><path fill="#f7936a" d="M 473.476562 312.054688 C 467.21875 318.582031 452.875 321.550781 436.117188 315.824219 C 419.359375 310.09375 347.855469 291.527344 347.855469 291.527344 L 350.050781 272.492188 C 350.050781 272.492188 444.421875 268.511719 464.808594 275.875 C 477.980469 280.632812 485.453125 299.558594 473.476562 312.054688 " fill-opacity="1" fill-rule="nonzero"/><path fill="#f7936a" d="M 359.945312 277.054688 C 357.445312 273.890625 345.25 262.433594 341.167969 259.21875 C 337.089844 256.007812 316.375 255.414062 313.789062 257.742188 C 311.207031 260.070312 312.074219 261.609375 315.199219 265.179688 C 318.324219 268.753906 324.148438 283.523438 328.054688 287.707031 C 332.226562 292.167969 350.203125 292.007812 350.203125 292.007812 L 366.191406 288.960938 C 366.191406 288.960938 362.445312 280.21875 359.945312 277.054688 " fill-opacity="1" fill-rule="nonzero"/><path fill="#f7d8c8" d="M 588.6875 225.628906 C 588.6875 225.628906 496.730469 248.445312 494.078125 256.046875 C 491.425781 263.644531 492.675781 275.296875 494.078125 283.398438 C 495.476562 291.503906 504.59375 309.609375 504.59375 309.609375 C 504.59375 309.609375 572.476562 307.714844 572.476562 306.195312 C 572.476562 304.675781 597.890625 256.550781 597.847656 251.484375 C 597.804688 246.417969 588.6875 225.628906 588.6875 225.628906 " fill-opacity="1" fill-rule="nonzero"/><g clip-path="url(#86831018d0)"><path fill="#4d3932" d="M 293.863281 763.628906 C 293.863281 763.628906 305.449219 806.324219 301.460938 808.035156 C 297.472656 809.742188 227.132812 810.597656 224.464844 808.035156 C 221.789062 805.464844 227.441406 790.988281 237.632812 787.136719 C 250.457031 782.296875 264.425781 782.65625 267.839844 780.730469 C 271.261719 778.808594 266.359375 763.628906 266.359375 763.628906 L 293.863281 763.628906 " fill-opacity="1" fill-rule="nonzero"/></g><path fill="#ebc599" d="M 231.792969 352.132812 C 231.792969 352.132812 211.125 525.324219 213.175781 552.472656 C 215.226562 579.625 230.382812 767.011719 237.0625 768.6875 C 243.742188 770.367188 266.613281 772.839844 279.5625 770.773438 C 292.515625 768.707031 310.351562 763.492188 313.992188 758.261719 C 317.628906 753.03125 309.644531 557.203125 310.617188 551.164062 C 311.589844 545.125 339.609375 428.835938 342.644531 394.496094 C 345.679688 360.15625 337.171875 340.667969 337.171875 340.667969 L 231.792969 352.132812 " fill-opacity="1" fill-rule="nonzero"/><path fill="#f7936a" d="M 104.429688 79.296875 C 104.429688 79.296875 99.761719 93.660156 100.683594 97.777344 C 101.605469 101.898438 112.007812 100.691406 112.007812 100.691406 L 104.429688 79.296875 " fill-opacity="1" fill-rule="nonzero"/><path fill="#ffaf8f" d="M 104.628906 25.765625 C 99.273438 33.191406 91.132812 47.839844 99.171875 69.660156 C 107.210938 91.476562 117.929688 126.996094 128.421875 128.476562 C 142.269531 130.429688 155.222656 118.148438 159.023438 121.835938 C 162.824219 125.527344 185.851562 150.726562 185.851562 150.726562 L 222.253906 122.167969 L 188.453125 73.828125 L 158.347656 9.222656 C 158.347656 9.222656 122.238281 1.363281 104.628906 25.765625 " fill-opacity="1" fill-rule="nonzero"/><path fill="#f7936a" d="M 119.15625 106.324219 C 120.824219 106.277344 122.132812 106.339844 123.734375 105.695312 C 125.410156 105.015625 127.554688 104.042969 128.792969 102.699219 C 129.730469 101.679688 131.484375 102.957031 130.539062 103.988281 C 129.203125 105.441406 127.148438 106.515625 125.382812 107.347656 C 123.273438 108.34375 121.699219 108.410156 119.453125 108.472656 C 118.070312 108.515625 117.753906 106.363281 119.15625 106.324219 " fill-opacity="1" fill-rule="nonzero"/><path fill="#e8d4ca" d="M 103.589844 70.375 C 105.753906 71.421875 108.6875 69.824219 110.730469 69.085938 C 112.457031 68.464844 114.222656 67.992188 115.972656 67.4375 C 117.269531 67.019531 117.191406 66.058594 116.160156 65.300781 C 115.632812 64.914062 114.953125 64.773438 114.308594 64.773438 C 112.972656 64.773438 111.636719 64.835938 110.3125 65.011719 C 107.714844 65.359375 105.183594 66.167969 103.015625 67.664062 C 102.921875 67.730469 102.839844 67.796875 102.769531 67.871094 C 101.902344 68.703125 102.519531 69.855469 103.589844 70.375 " fill-opacity="1" fill-rule="nonzero"/><path fill="#4d3932" d="M 114.824219 79.152344 C 114.65625 77.878906 113.992188 76.472656 113.375 76.046875 C 112.835938 75.679688 112.148438 75.296875 111.480469 75.574219 C 109.191406 76.511719 111.363281 81.398438 113.382812 81.464844 C 114.671875 81.507812 114.984375 80.390625 114.824219 79.152344 " fill-opacity="1" fill-rule="nonzero"/><path fill="#3d2711" d="M 108.867188 70.414062 C 108.789062 70.414062 108.71875 70.425781 108.660156 70.453125 C 107.703125 70.820312 107.167969 74.65625 109.152344 79.832031 C 111.136719 85 114.113281 87.5 115.0625 87.125 C 116.015625 86.757812 116.554688 82.917969 114.566406 77.746094 C 112.710938 72.910156 109.992188 70.414062 108.867188 70.414062 Z M 114.855469 90.203125 C 111.582031 90.203125 108.195312 85.816406 106.3125 80.914062 C 104.179688 75.367188 103.929688 69.015625 107.566406 67.613281 C 111.203125 66.21875 115.273438 71.105469 117.402344 76.664062 C 119.539062 82.210938 119.789062 88.558594 116.152344 89.964844 C 115.722656 90.125 115.292969 90.203125 114.855469 90.203125 " fill-opacity="1" fill-rule="nonzero"/><path fill="#3d2711" d="M 115.984375 78.722656 C 115.484375 78.722656 114.992188 78.472656 114.703125 78.019531 C 114.253906 77.308594 114.464844 76.367188 115.171875 75.917969 L 145.886719 56.46875 C 146.59375 56.011719 147.535156 56.230469 147.984375 56.941406 C 148.433594 57.648438 148.222656 58.589844 147.515625 59.039062 L 116.796875 78.484375 C 116.546875 78.648438 116.265625 78.722656 115.984375 78.722656 " fill-opacity="1" fill-rule="nonzero"/><path fill="#e8d4ca" d="M 124.917969 11.109375 C 124.15625 11.542969 125.152344 22.007812 125.140625 23.316406 C 125.085938 28.925781 125.839844 35.179688 127.636719 40.507812 C 130.160156 47.976562 141.992188 59.820312 150.222656 52.261719 C 154.089844 48.710938 161.21875 52.289062 163.003906 56.652344 C 164.792969 61.023438 167.808594 71.058594 170.40625 72.738281 C 180.46875 79.242188 188.453125 73.828125 188.453125 73.828125 C 188.453125 73.828125 184.742188 64.902344 185.824219 58.035156 C 187.621094 46.597656 185.457031 39.15625 184.175781 32.046875 C 182.890625 24.941406 174.964844 12.566406 163.910156 8.238281 C 143.824219 0.378906 124.921875 11.109375 124.917969 11.109375 " fill-opacity="1" fill-rule="nonzero"/><path fill="#5c3d32" d="M 213.035156 99.484375 C 198.144531 98.75 171.4375 111.667969 160.097656 135.351562 C 148.753906 159.039062 158.058594 189.976562 172.792969 225.628906 C 187.527344 261.28125 205.414062 288.839844 209.683594 300.683594 C 213.949219 312.527344 214.402344 360.863281 222.4375 368.527344 C 230.472656 376.195312 264.863281 384.0625 286.265625 382.6875 C 307.664062 381.3125 349.042969 364.175781 349.328125 358.371094 C 349.609375 352.566406 331.335938 222.320312 299.800781 173.347656 C 260.015625 111.5625 241.570312 100.878906 213.035156 99.484375 " fill-opacity="1" fill-rule="nonzero"/><path fill="#ffaf8f" d="M 457.425781 797.222656 C 457.28125 801.761719 456.796875 805.085938 455.660156 805.574219 C 451.671875 807.273438 393.800781 809.402344 391.125 806.851562 C 388.449219 804.277344 392.90625 793.027344 403.101562 789.183594 C 404.699219 788.570312 406.179688 788.023438 407.578125 787.519531 C 417.386719 783.914062 422.390625 782.414062 425.386719 780.730469 C 428.8125 778.804688 429.582031 766.242188 429.582031 766.242188 L 455.660156 766.242188 C 455.660156 766.242188 457.726562 785.652344 457.425781 797.222656 " fill-opacity="1" fill-rule="nonzero"/><path fill="#f5e8e1" d="M 542.390625 610.8125 L 669.707031 610.8125 C 686.964844 610.8125 700.949219 596.820312 700.949219 579.5625 L 511.144531 579.5625 C 511.144531 596.820312 525.132812 610.8125 542.390625 610.8125 " fill-opacity="1" fill-rule="nonzero"/><g clip-path="url(#9dae4d3a63)"><path fill="#874c43" d="M 517.171875 588.34375 L 695.828125 588.34375 C 708.558594 588.34375 718.875 578.023438 718.875 565.300781 L 718.875 556.355469 C 718.875 543.628906 708.558594 533.3125 695.828125 533.3125 L 517.171875 533.3125 C 504.445312 533.3125 494.125 543.628906 494.125 556.355469 L 494.125 565.300781 C 494.125 578.023438 504.445312 588.34375 517.171875 588.34375 " fill-opacity="1" fill-rule="nonzero"/></g><path fill="#f5e8e1" d="M 672.414062 802.964844 L 697.742188 802.964844 L 697.742188 588.34375 L 672.414062 588.34375 L 672.414062 802.964844 " fill-opacity="1" fill-rule="nonzero"/><path fill="#3d3227" d="M 678.515625 808.035156 L 691.640625 808.035156 C 696.429688 808.035156 699.667969 803.132812 697.773438 798.726562 L 697.746094 798.664062 L 672.40625 798.664062 L 672.382812 798.726562 C 670.488281 803.132812 673.726562 808.035156 678.515625 808.035156 " fill-opacity="1" fill-rule="nonzero"/><path fill="#f5e8e1" d="M 541.707031 802.964844 L 516.378906 802.964844 L 516.378906 588.34375 L 541.707031 588.34375 L 541.707031 802.964844 " fill-opacity="1" fill-rule="nonzero"/><path fill="#3d3227" d="M 535.601562 808.035156 L 522.484375 808.035156 C 517.691406 808.035156 514.457031 803.132812 516.34375 798.726562 L 516.371094 798.664062 L 541.714844 798.664062 L 541.738281 798.726562 C 543.628906 803.132812 540.394531 808.035156 535.601562 808.035156 " fill-opacity="1" fill-rule="nonzero"/><path fill="#e8d4ca" d="M 674.609375 609.792969 L 695.546875 609.792969 C 696.851562 609.792969 696.851562 611.824219 695.546875 611.824219 L 674.609375 611.824219 C 673.304688 611.824219 673.304688 609.792969 674.609375 609.792969 " fill-opacity="1" fill-rule="nonzero"/><path fill="#e8d4ca" d="M 518.574219 609.792969 L 539.511719 609.792969 C 540.816406 609.792969 540.816406 611.824219 539.511719 611.824219 L 518.574219 611.824219 C 517.269531 611.824219 517.269531 609.792969 518.574219 609.792969 " fill-opacity="1" fill-rule="nonzero"/><path fill="#ffaf8f" d="M 455.675781 740.828125 L 455.667969 766.242188 L 429.585938 766.242188 L 425.023438 739.3125 L 455.675781 740.828125 " fill-opacity="1" fill-rule="nonzero"/><path fill="#a7b3c9" d="M 677.972656 468.792969 C 677.972656 468.792969 683.324219 516.453125 668.515625 525.539062 C 638.800781 543.777344 478.046875 549.855469 471.292969 553.90625 C 464.539062 557.960938 474.667969 590.714844 474.667969 610.8125 C 474.667969 630.902344 469.351562 675.488281 468.96875 695.074219 C 468.589844 714.664062 478.046875 760.433594 473.320312 764.488281 C 468.59375 768.539062 411.855469 768.539062 405.101562 767.1875 C 398.34375 765.835938 398.035156 711.960938 397.851562 698.449219 C 397.671875 684.941406 393.335938 554.582031 395.84375 537.023438 C 398.34375 519.460938 399.65625 496.828125 428.382812 483.828125 C 457.109375 470.832031 578.464844 458.660156 578.464844 458.660156 L 677.972656 468.792969 " fill-opacity="1" fill-rule="nonzero"/><path fill="#f7936a" d="M 545.828125 163.109375 C 545.828125 163.109375 538.023438 174.96875 537.835938 178.933594 C 537.648438 182.890625 547.375 184.386719 547.375 184.386719 L 545.828125 163.109375 " fill-opacity="1" fill-rule="nonzero"/><path fill="#ffaf8f" d="M 544.523438 153.09375 C 544.679688 164.59375 544.148438 179.34375 545.066406 191.058594 C 545.1875 192.675781 545.328125 194.210938 545.523438 195.699219 C 546.519531 203.878906 548.539062 209.808594 552.429688 210.6875 C 567.078125 214.007812 578.171875 209.265625 580.367188 213.714844 C 582.582031 218.164062 583.621094 246.628906 583.621094 246.628906 L 625.917969 243.859375 L 615.914062 118.105469 L 558.929688 115.355469 C 558.929688 115.355469 544.246094 131.226562 544.523438 153.09375 " fill-opacity="1" fill-rule="nonzero"/><path fill="#4d3932" d="M 549.625 165.667969 C 549.445312 164.445312 549.695312 162.96875 550.160156 162.414062 C 550.5625 161.933594 551.101562 161.402344 551.789062 161.480469 C 554.152344 161.757812 553.414062 166.847656 551.558594 167.441406 C 550.375 167.8125 549.796875 166.859375 549.625 165.667969 " fill-opacity="1" fill-rule="nonzero"/><path fill="#4d3932" d="M 547.589844 151.980469 C 549.246094 150.976562 552.34375 152.109375 554.019531 152.597656 C 556.589844 153.355469 558.882812 154.355469 561.015625 156.007812 C 561.457031 156.351562 561.441406 156.878906 561.101562 157.285156 C 560.257812 158.300781 558.324219 157.46875 557.296875 157.25 C 554.367188 156.636719 551.484375 155.234375 548.515625 154.945312 C 547.28125 154.820312 546.296875 152.777344 547.589844 151.980469 " fill-opacity="1" fill-rule="nonzero"/><path fill="#f7936a" d="M 547.652344 190.984375 C 549.140625 191.40625 551.777344 191.554688 553.191406 190.929688 C 553.914062 190.609375 554.707031 190.25 555.328125 189.75 C 555.882812 189.308594 556.003906 189.050781 556.757812 188.933594 C 558.042969 188.734375 558.082031 190.757812 556.808594 190.957031 C 557.074219 190.917969 555.820312 191.875 555.523438 192.03125 C 554.820312 192.40625 553.917969 193.007812 553.144531 193.179688 C 552.304688 193.371094 551.121094 193.269531 550.246094 193.273438 C 549.144531 193.285156 548.222656 193.253906 547.164062 192.953125 C 545.910156 192.601562 546.394531 190.628906 547.652344 190.984375 " fill-opacity="1" fill-rule="nonzero"/><path fill="#4d3932" d="M 550.695312 127.800781 C 550.695312 127.800781 558.570312 139.9375 568.285156 143.5625 C 577.996094 147.191406 584.761719 149.390625 585.589844 155.164062 C 586.417969 160.9375 594.796875 156.398438 599.609375 161.769531 C 606.453125 169.414062 597.832031 176.636719 598.207031 180.039062 C 598.585938 183.4375 622.121094 196.148438 622.121094 196.148438 C 622.121094 196.148438 640.472656 156.941406 634.449219 134.222656 C 628.425781 111.507812 600.542969 105.542969 577.222656 106.808594 C 557.742188 107.871094 550.695312 127.800781 550.695312 127.800781 " fill-opacity="1" fill-rule="nonzero"/><path fill="#ffe9de" d="M 623.617188 214.035156 C 623.617188 214.035156 604.304688 221.121094 594.058594 229.457031 C 575.855469 244.265625 564.675781 273.023438 556.234375 299.367188 C 547.792969 325.707031 563.664062 354.414062 566.703125 363.195312 C 569.742188 371.976562 564.339844 459.933594 568.730469 466.609375 C 573.121094 473.289062 592.734375 471.597656 614.671875 472.953125 C 636.609375 474.300781 655.550781 480.042969 669.550781 477.679688 C 683.550781 475.316406 693.347656 475.992188 690.644531 464.507812 C 687.945312 453.027344 679.5625 327.566406 677.472656 306.457031 C 669.550781 226.417969 623.617188 214.035156 623.617188 214.035156 " fill-opacity="1" fill-rule="nonzero"/><path fill="#ffaf8f" d="M 597.847656 318.875 L 571.105469 270.890625 L 471.863281 321.929688 C 471.863281 321.929688 449.804688 354.773438 470.027344 362.675781 C 490.253906 370.578125 597.847656 318.875 597.847656 318.875 " fill-opacity="1" fill-rule="nonzero"/><path fill="#ffaf8f" d="M 486.949219 358.042969 C 480.238281 364.097656 465.710938 366.015625 449.417969 359.085938 C 433.121094 352.152344 363.15625 328.433594 363.15625 328.433594 L 366.730469 309.609375 C 366.730469 309.609375 461.140625 312.503906 480.941406 321.332031 C 493.726562 327.03125 499.804688 346.449219 486.949219 358.042969 " fill-opacity="1" fill-rule="nonzero"/><path fill="#8997b0" d="M 459.785156 531.441406 C 455.605469 527.042969 452.140625 522.136719 448.988281 516.980469 C 447.578125 514.671875 445.957031 512.46875 444.640625 510.113281 C 443.714844 508.457031 440.972656 503.933594 440.9375 502.574219 C 440.902344 501.273438 438.875 501.269531 438.910156 502.574219 C 438.980469 505.246094 440.015625 506.265625 441.402344 508.410156 C 443.410156 511.527344 445.292969 514.816406 447.238281 518.003906 C 450.960938 524.101562 455.171875 530.03125 460.425781 534.933594 C 461.289062 535.738281 462.6875 536.496094 463.386719 537.4375 C 465.761719 540.640625 464.421875 542.035156 461.722656 542.101562 C 457.511719 542.203125 454.277344 537.523438 451.460938 534.953125 C 448.398438 532.160156 445.152344 529.515625 441.867188 526.984375 C 440.847656 526.199219 433.523438 522.328125 433.507812 520.8125 C 433.492188 519.507812 431.46875 519.507812 431.480469 520.8125 C 431.507812 523.390625 433.765625 523.972656 435.703125 525.09375 C 440.859375 528.085938 445.617188 532.386719 450.027344 536.386719 C 452.742188 538.851562 455.175781 542.144531 458.703125 543.5 C 460.699219 544.265625 464.386719 544.882812 466.371094 543.773438 C 472.546875 540.328125 461.601562 533.351562 459.785156 531.441406 " fill-opacity="1" fill-rule="nonzero"/><path fill="#8997b0" d="M 463.5625 550.867188 C 458.859375 551.089844 454.089844 552.261719 449.507812 553.308594 C 448.597656 553.515625 437.996094 557.578125 437.523438 556.339844 C 437.0625 555.132812 435.105469 555.65625 435.570312 556.878906 C 436.644531 559.6875 439.195312 558.988281 441.570312 558.089844 C 448.445312 555.484375 456.183594 553.242188 463.5625 552.894531 C 464.863281 552.835938 464.867188 550.808594 463.5625 550.867188 " fill-opacity="1" fill-rule="nonzero"/><path fill="#8997b0" d="M 628.960938 523.984375 C 627.28125 521.34375 626.015625 518.484375 624.367188 515.816406 C 621.269531 510.808594 618.152344 505.414062 614.476562 500.820312 C 610.839844 496.273438 606.953125 491.683594 602.089844 488.398438 C 597.347656 485.195312 592.238281 482.175781 587.679688 478.734375 C 586.636719 477.949219 585.625 479.707031 586.65625 480.484375 C 595.058594 486.832031 604.042969 491.480469 610.964844 499.722656 C 614.699219 504.167969 617.355469 509.121094 620.628906 513.878906 C 622.367188 516.402344 623.859375 518.976562 625.277344 521.6875 C 626.210938 523.472656 628.707031 526.238281 628.707031 528.242188 C 628.707031 529.546875 630.730469 529.546875 630.734375 528.242188 C 630.734375 526.472656 629.886719 525.4375 628.960938 523.984375 " fill-opacity="1" fill-rule="nonzero"/><path fill="#8997b0" d="M 632 509.8125 C 630.074219 506.773438 628.59375 503.566406 626.574219 500.5625 C 625.199219 498.519531 624.140625 496.71875 622.257812 495.121094 C 619.917969 493.136719 617.164062 491.796875 614.902344 489.699219 C 613.945312 488.816406 612.511719 490.246094 613.46875 491.136719 C 616.945312 494.355469 621.089844 496.144531 623.878906 500.136719 C 625.363281 502.253906 626.808594 504.394531 628 506.6875 C 629.21875 509.027344 631.777344 512.132812 632.082031 514.734375 C 632.234375 516.011719 634.261719 516.027344 634.109375 514.734375 C 633.867188 512.648438 633.113281 511.566406 632 509.8125 " fill-opacity="1" fill-rule="nonzero"/><path fill="#8997b0" d="M 462.847656 731.503906 C 459.492188 735.597656 456.59375 737.933594 451.828125 740.15625 C 446.605469 742.59375 441.335938 744.265625 435.734375 745.550781 C 425.585938 747.875 415.296875 751.863281 404.800781 752.144531 C 403.5 752.179688 403.496094 754.207031 404.800781 754.167969 C 416.023438 753.871094 427.128906 749.644531 437.972656 747.121094 C 443.132812 745.921875 448.0625 744.160156 452.847656 741.910156 C 457.964844 739.496094 460.722656 737.285156 464.28125 732.9375 C 465.101562 731.9375 463.675781 730.492188 462.847656 731.503906 " fill-opacity="1" fill-rule="nonzero"/><path fill="#4d3932" d="M 570.238281 108.148438 C 570.238281 108.148438 605.066406 92.417969 633.773438 117.75 C 649.980469 132.050781 661.464844 157.050781 666.191406 166.171875 C 670.917969 175.289062 678.347656 180.019531 679.363281 189.140625 C 680.0625 195.441406 674.703125 197.425781 670.289062 200.207031 C 665.238281 203.390625 662.898438 211.378906 656.84375 212.929688 C 652.386719 214.074219 647.683594 210.617188 643.164062 211.125 C 634.355469 212.097656 638.300781 218.6875 632.953125 223.761719 C 630.675781 225.914062 627.046875 226.054688 624.121094 224.941406 C 615.492188 221.632812 610.730469 212.019531 606.753906 204.375 C 602.363281 195.929688 598.207031 180.039062 598.207031 180.039062 C 598.207031 180.039062 615.875 164.167969 615.535156 161.476562 C 615.199219 158.785156 594.398438 126.363281 592.808594 126.363281 C 591.21875 126.363281 570.238281 108.148438 570.238281 108.148438 " fill-opacity="1" fill-rule="nonzero"/><path fill="#ffe9de" d="M 507.914062 300.371094 C 504.648438 307.722656 523.507812 352.585938 527.496094 352.585938 C 531.480469 352.585938 604.730469 317.191406 604.730469 317.191406 L 592.328125 234.738281 C 592.328125 234.738281 542.363281 275.714844 529.671875 284.054688 C 516.976562 292.394531 511.175781 293.019531 507.914062 300.371094 " fill-opacity="1" fill-rule="nonzero"/><path fill="#ffaf8f" d="M 276.121094 314.0625 C 276.121094 314.0625 275.53125 324.023438 265.667969 328.65625 C 255.800781 333.289062 242.582031 336.777344 235.410156 337.25 C 227.578125 337.765625 227.011719 330.449219 229.738281 324.382812 C 232.460938 318.3125 237.316406 310.832031 247.957031 305.015625 C 258.601562 299.195312 268.644531 297.109375 268.644531 297.109375 L 276.121094 314.0625 " fill-opacity="1" fill-rule="nonzero"/><path fill="#3d3227" d="M 457.425781 797.222656 C 457.28125 801.761719 456.796875 805.085938 455.660156 805.574219 C 451.671875 807.273438 393.800781 809.402344 391.125 806.851562 C 388.449219 804.277344 392.90625 793.027344 403.101562 789.183594 C 404.699219 788.570312 406.179688 788.023438 407.578125 787.519531 C 407.578125 787.519531 415.601562 796.71875 427.433594 797.222656 C 439.003906 797.707031 456.675781 797.246094 457.425781 797.222656 " fill-opacity="1" fill-rule="nonzero"/><path fill="#9e663f" d="M 225.136719 120.597656 C 212.410156 116.820312 192.347656 119.148438 186.683594 134.46875 C 179.210938 154.679688 202.175781 184.449219 225.136719 198.632812 C 248.101562 212.816406 272.753906 214.785156 274.109375 216.496094 C 275.457031 218.203125 256.585938 271.699219 252.492188 280.695312 C 249.539062 287.199219 247.429688 298.257812 259.921875 305.6875 C 272.417969 313.121094 281.742188 318.15625 291.328125 309.609375 C 314.292969 289.140625 339.789062 206.429688 337.59375 198.28125 C 333.207031 181.976562 270.753906 134.140625 225.136719 120.597656 " fill-opacity="1" fill-rule="nonzero"/><path fill="#ffaf8f" d="M 376.265625 314.878906 C 374.003906 311.542969 362.675781 299.226562 358.839844 295.726562 C 355.003906 292.226562 334.386719 290.128906 331.640625 292.261719 C 328.894531 294.398438 329.644531 295.992188 332.503906 299.785156 C 335.359375 303.574219 351.164062 318.226562 354.757812 322.6875 C 358.59375 327.441406 365.464844 329.085938 365.464844 329.085938 L 381.628906 327.207031 C 381.628906 327.207031 378.527344 318.21875 376.265625 314.878906 " fill-opacity="1" fill-rule="nonzero"/><path fill="#f0dace" d="M 627.019531 254.179688 C 622.429688 243.304688 611.628906 231.632812 599.324219 231.054688 C 598.023438 230.992188 598.023438 233.015625 599.324219 233.078125 C 611.035156 233.632812 622.078125 246.089844 625.78125 256.707031 C 629.792969 268.210938 627.988281 281.269531 621.414062 291.332031 C 620.699219 292.425781 622.453125 293.441406 623.164062 292.355469 C 630.347656 281.355469 632.226562 266.515625 627.019531 254.179688 " fill-opacity="1" fill-rule="nonzero"/><path fill="#f0dace" d="M 612.117188 300.246094 C 605.300781 306.746094 598.015625 311.976562 590.621094 317.648438 C 584.085938 322.660156 577.628906 327.226562 570.011719 330.378906 C 568.824219 330.867188 569.34375 332.828125 570.550781 332.332031 C 578.125 329.199219 584.3125 324.839844 590.972656 320.085938 C 598.957031 314.390625 606.429688 308.464844 613.550781 301.675781 C 614.496094 300.777344 613.0625 299.34375 612.117188 300.246094 " fill-opacity="1" fill-rule="nonzero"/><path fill="#f0dace" d="M 616.210938 223.960938 C 614.917969 223.933594 613.441406 224.941406 612.324219 225.519531 C 611.535156 225.929688 610.839844 226.492188 610.058594 226.90625 C 609.585938 227.164062 609.078125 227.296875 608.605469 227.542969 C 608.347656 227.675781 608.125 227.988281 607.835938 228.050781 C 606.5625 228.335938 607.101562 230.292969 608.375 230.003906 C 608.976562 229.871094 609.351562 229.480469 609.894531 229.199219 C 610.574219 228.847656 611.25 228.574219 611.902344 228.160156 C 612.640625 227.691406 613.367188 227.265625 614.15625 226.890625 C 614.726562 226.628906 615.585938 225.972656 616.210938 225.984375 C 617.515625 226.015625 617.515625 223.988281 616.210938 223.960938 " fill-opacity="1" fill-rule="nonzero"/><path fill="#f0dace" d="M 677.265625 440.808594 C 673.765625 439.75 670.328125 439.628906 666.699219 439.394531 C 661.46875 439.0625 656.324219 438.003906 651.300781 436.566406 C 640.816406 433.574219 631.390625 427.9375 622.109375 422.335938 C 613.234375 416.976562 604.539062 411.242188 595.953125 405.425781 C 586.402344 398.949219 577.890625 392.328125 571.15625 382.851562 C 570.410156 381.796875 568.648438 382.808594 569.40625 383.875 C 581.703125 401.175781 601.671875 412.175781 619.472656 423.097656 C 628.339844 428.542969 637.566406 434.355469 647.523438 437.5625 C 652.492188 439.164062 657.417969 440.257812 662.582031 440.933594 C 667.328125 441.5625 672.105469 441.367188 676.730469 442.761719 C 677.984375 443.140625 678.515625 441.1875 677.265625 440.808594 " fill-opacity="1" fill-rule="nonzero"/><path fill="#f0dace" d="M 658.019531 448.914062 C 647.601562 445.949219 637.003906 442.203125 627.128906 437.660156 C 622.601562 435.578125 617.972656 433.636719 613.78125 430.917969 C 608.929688 427.765625 604.484375 424.082031 599.835938 420.648438 C 598.785156 419.875 597.773438 421.632812 598.8125 422.398438 C 603.460938 425.832031 607.90625 429.515625 612.757812 432.664062 C 617.410156 435.6875 622.636719 437.871094 627.6875 440.140625 C 637.246094 444.441406 647.4375 448.011719 657.476562 450.867188 C 658.734375 451.226562 659.273438 449.273438 658.019531 448.914062 " fill-opacity="1" fill-rule="nonzero"/><path fill="#d4a979" d="M 302.300781 556.410156 C 300.15625 557.550781 298.691406 559.339844 296.375 560.378906 C 293.171875 561.816406 289.957031 562.816406 286.496094 563.402344 C 279.902344 564.527344 273.011719 565.046875 266.339844 565.050781 C 265.035156 565.054688 265.03125 567.078125 266.339844 567.078125 C 273.234375 567.066406 280.226562 566.515625 287.035156 565.363281 C 290.113281 564.832031 293.019531 563.988281 295.898438 562.789062 C 297.273438 562.214844 298.855469 561.652344 300.113281 560.832031 C 301.25 560.089844 302.164062 558.777344 303.324219 558.160156 C 304.472656 557.546875 303.453125 555.796875 302.300781 556.410156 " fill-opacity="1" fill-rule="nonzero"/><path fill="#d4a979" d="M 302.773438 564 C 300.558594 566.261719 297.695312 568.613281 295.109375 570.390625 C 292.359375 572.277344 289.800781 573.949219 286.765625 575.320312 C 285.582031 575.859375 286.609375 577.605469 287.789062 577.070312 C 293.859375 574.328125 299.5625 570.179688 304.203125 565.433594 C 305.117188 564.5 303.6875 563.066406 302.773438 564 " fill-opacity="1" fill-rule="nonzero"/><path fill="#d4a979" d="M 304.640625 740.492188 C 302.105469 744.277344 296.5 748.167969 292.476562 750.445312 C 288.261719 752.828125 283.421875 754.9375 278.769531 756.597656 C 278.382812 752.6875 277.054688 748.988281 276.839844 745.015625 C 276.648438 741.511719 276.832031 737.988281 276.878906 734.488281 C 276.96875 727.800781 275.105469 721.042969 274.777344 714.324219 C 274.425781 707.246094 273.828125 700.460938 272.566406 693.453125 C 271.84375 689.421875 270.816406 685.421875 270.257812 681.363281 C 269.722656 677.515625 270.148438 673.621094 269.914062 669.742188 C 268.957031 653.710938 268.527344 637.742188 268.117188 621.699219 C 267.949219 615.019531 265.664062 609.050781 264.351562 602.574219 C 262.6875 594.390625 263.300781 585.851562 263.300781 577.550781 C 263.300781 576.246094 261.273438 576.246094 261.273438 577.550781 C 261.273438 584.886719 260.769531 592.429688 261.804688 599.71875 C 262.867188 607.164062 265.796875 614.128906 266.089844 621.699219 C 266.410156 629.789062 265.894531 637.859375 266.640625 645.933594 C 267.371094 653.847656 267.429688 661.785156 267.890625 669.742188 C 268.085938 673.105469 267.703125 676.492188 267.976562 679.84375 C 268.269531 683.398438 269.246094 686.976562 269.925781 690.464844 C 271.484375 698.425781 272.355469 706.246094 272.75 714.324219 C 273.078125 721.054688 274.691406 727.808594 274.851562 734.488281 C 274.9375 737.988281 274.660156 741.507812 274.8125 745.015625 C 274.996094 749.203125 276.511719 753.0625 276.808594 757.210938 C 276.8125 757.238281 276.824219 757.261719 276.828125 757.289062 C 276.792969 757.296875 276.753906 757.316406 276.71875 757.328125 C 271.261719 759.128906 266.472656 759.777344 260.78125 760.34375 C 255.628906 760.855469 250.957031 761.921875 245.925781 763.121094 C 245.601562 763.199219 245.289062 763.496094 245.21875 763.824219 C 245.179688 764.007812 245.140625 764.191406 245.097656 764.371094 C 244.824219 765.640625 246.777344 766.1875 247.050781 764.910156 C 247.285156 763.828125 256.65625 762.980469 257.222656 762.910156 C 260.03125 762.574219 262.800781 762.335938 265.617188 762.128906 C 271.1875 761.71875 276.96875 759.75 282.105469 757.609375 C 287.082031 755.539062 292.363281 753.214844 296.722656 750 C 300.375 747.304688 303.859375 745.289062 306.390625 741.511719 C 307.117188 740.421875 305.363281 739.410156 304.640625 740.492188 " fill-opacity="1" fill-rule="nonzero"/><path fill="#d4a979" d="M 280.859375 390.457031 C 280.097656 396.84375 278.003906 402.980469 277.351562 409.367188 C 277.03125 412.515625 276.269531 415.5 275.800781 418.617188 C 275.273438 422.15625 275.628906 425.675781 275.109375 429.207031 C 273.039062 443.3125 276.300781 458.367188 272.15625 472.15625 C 270.199219 478.6875 268.363281 485.414062 267.285156 492.148438 C 266.285156 498.359375 266.226562 504.730469 266.007812 511.011719 C 265.769531 517.828125 265.359375 524.933594 264.125 531.621094 C 262.894531 538.296875 262.761719 545.464844 264.011719 552.152344 C 264.25 553.433594 266.203125 552.890625 265.964844 551.613281 C 264.386719 543.175781 266 535.433594 267.09375 527.121094 C 267.476562 524.242188 267.179688 521.433594 267.28125 518.550781 C 267.382812 515.582031 267.972656 512.703125 267.996094 509.730469 C 268.046875 502.925781 268.574219 495.597656 269.875 488.925781 C 271.171875 482.300781 273.628906 475.875 274.917969 469.277344 C 276.324219 462.078125 275.949219 455.15625 276.136719 447.851562 C 276.308594 441.035156 277.007812 434.210938 277.519531 427.453125 C 277.777344 423.996094 277.394531 420.78125 278.085938 417.316406 C 278.621094 414.636719 279.105469 412.089844 279.378906 409.367188 C 280.019531 402.988281 282.121094 396.839844 282.886719 390.457031 C 283.042969 389.164062 281.015625 389.175781 280.859375 390.457031 " fill-opacity="1" fill-rule="nonzero"/><path fill="#8a5530" d="M 313.613281 197.421875 C 310.765625 199.324219 305.78125 199.542969 302.519531 200.546875 C 298.40625 201.804688 294.460938 203.5625 290.519531 205.246094 C 286.578125 206.925781 278.972656 209.476562 277.183594 213.730469 C 276.675781 214.929688 278.636719 215.453125 279.136719 214.269531 C 280.207031 211.730469 285.277344 210.195312 287.542969 209.03125 C 290.386719 207.582031 293.3125 206.464844 296.203125 205.113281 C 299.980469 203.351562 303.910156 202.207031 307.925781 201.121094 C 309.972656 200.566406 312.839844 200.367188 314.636719 199.171875 C 315.714844 198.449219 314.703125 196.695312 313.613281 197.421875 " fill-opacity="1" fill-rule="nonzero"/><path fill="#8a5530" d="M 306.019531 206.910156 C 300.226562 207.386719 294.972656 211.089844 289.515625 212.789062 C 287.261719 213.488281 279.386719 214.433594 278.703125 217.277344 C 278.398438 218.542969 280.351562 219.082031 280.65625 217.816406 C 281.007812 216.355469 290.625 214.53125 292.214844 213.964844 C 296.675781 212.382812 301.246094 209.328125 306.019531 208.933594 C 307.3125 208.824219 307.324219 206.796875 306.019531 206.910156 " fill-opacity="1" fill-rule="nonzero"/><path fill="#8a5530" d="M 292.34375 300.117188 C 284.699219 300.113281 277.65625 300.367188 270.542969 297.066406 C 264.734375 294.375 258.679688 291.113281 253.34375 287.589844 C 252.25 286.871094 251.234375 288.625 252.320312 289.339844 C 258.308594 293.292969 265.324219 297.296875 271.996094 299.929688 C 278.574219 302.527344 285.40625 302.140625 292.34375 302.140625 C 293.644531 302.144531 293.648438 300.117188 292.34375 300.117188 " fill-opacity="1" fill-rule="nonzero"/></svg>