<svg xmlns="http://www.w3.org/2000/svg" xmlns:xlink="http://www.w3.org/1999/xlink" width="1080" zoomAndPan="magnify" viewBox="0 0 810 809.999993" height="1080" preserveAspectRatio="xMidYMid meet" version="1.0"><defs><clipPath id="607f270735"><path d="M 394.804688 743 L 451.550781 743 L 451.550781 778.28125 L 394.804688 778.28125 Z M 394.804688 743 " clip-rule="nonzero"/></clipPath><clipPath id="ad02b51aa8"><path d="M 640.054688 447.746094 L 809.996094 447.746094 L 809.996094 494 L 640.054688 494 Z M 640.054688 447.746094 " clip-rule="nonzero"/></clipPath><clipPath id="a8e9c347ce"><path d="M 729.019531 770 L 751.621094 770 L 751.621094 778.28125 L 729.019531 778.28125 Z M 729.019531 770 " clip-rule="nonzero"/></clipPath><clipPath id="4683f0cf69"><path d="M 62.035156 770 L 84.636719 770 L 84.636719 778.28125 L 62.035156 778.28125 Z M 62.035156 770 " clip-rule="nonzero"/></clipPath></defs><path fill="#8997b0" d="M 311.078125 353.742188 C 311.078125 353.742188 301.886719 382.34375 300.617188 396.164062 C 299.351562 409.980469 297.359375 419.3125 300.617188 422.988281 C 303.875 426.667969 319.714844 431.535156 336.121094 432.351562 C 352.527344 433.167969 368.085938 418.539062 373.601562 411.996094 C 379.117188 405.457031 388.257812 388.773438 379.585938 380.855469 C 370.914062 372.9375 311.078125 353.742188 311.078125 353.742188 " fill-opacity="1" fill-rule="nonzero"/><path fill="#4d3932" d="M 298.378906 577.617188 C 298.328125 578.65625 274.730469 621.195312 273.40625 624.921875 C 266.867188 643.363281 254.496094 660.703125 249.335938 665.050781 C 241.863281 671.347656 229.648438 666.574219 230.644531 656.738281 C 231.640625 646.902344 236.738281 637 240.988281 630.085938 C 248.871094 617.277344 255.375 610.285156 256.324219 607.832031 C 257.277344 605.386719 269.265625 566.324219 269.265625 566.324219 L 298.378906 577.617188 " fill-opacity="1" fill-rule="nonzero"/><g clip-path="url(#607f270735)"><path fill="#4d3932" d="M 396.414062 743.289062 C 396.414062 743.289062 393.070312 774.785156 396.414062 776.214844 C 399.753906 777.644531 448.234375 779.4375 450.472656 777.289062 C 452.707031 775.144531 448.984375 765.722656 440.449219 762.496094 C 429.707031 758.4375 420.398438 755.359375 417.535156 753.75 C 414.671875 752.140625 415.863281 743.289062 415.863281 743.289062 L 396.414062 743.289062 " fill-opacity="1" fill-rule="nonzero"/></g><path fill="#a7b3c9" d="M 448.75 356.714844 C 448.75 356.714844 440.75 725.074219 439.777344 735.253906 C 438.804688 745.433594 430.117188 748.132812 415.707031 749.289062 C 392.902344 751.125 383.164062 744.304688 382.132812 739.777344 C 381.101562 735.253906 380.773438 361.257812 380.773438 361.257812 L 448.75 356.714844 " fill-opacity="1" fill-rule="nonzero"/><path fill="#ffe9de" d="M 470.949219 145.296875 C 470.949219 145.296875 432.289062 130.132812 416.503906 125.597656 C 385.476562 116.683594 354.609375 122.867188 348.289062 126.375 C 341.96875 129.882812 319.859375 204.113281 319.714844 219.953125 C 319.574219 235.789062 312.082031 276.367188 310.90625 309.695312 C 310.359375 325.257812 304.441406 362.613281 327.070312 372.371094 C 336.34375 376.367188 435.59375 390.097656 449.882812 370.390625 C 450.371094 369.71875 457.351562 300.957031 463.214844 251.515625 C 468.5 206.980469 470.949219 145.296875 470.949219 145.296875 " fill-opacity="1" fill-rule="nonzero"/><path fill="#8f4838" d="M 504.839844 229.617188 C 504.839844 229.617188 510.742188 250.828125 512.339844 260.039062 C 513.929688 269.246094 518.382812 290.140625 504.605469 295.984375 C 493.304688 300.78125 483.523438 293.441406 477.519531 279.710938 C 471.515625 265.984375 466.621094 239.21875 466.621094 239.21875 L 504.839844 229.617188 " fill-opacity="1" fill-rule="nonzero"/><path fill="#a7b3c9" d="M 355.808594 356.171875 C 344.414062 351.46875 326.066406 349.457031 314.894531 372.882812 C 303.726562 396.308594 242.234375 595.117188 241.742188 598.894531 C 241.25 602.679688 258.527344 613.539062 268.472656 616.582031 C 278.421875 619.621094 293.078125 621.945312 295.496094 618.675781 C 296.871094 616.816406 332.195312 526.398438 351.609375 473.128906 C 366.335938 432.710938 382.277344 395.542969 379.203125 383.488281 C 375.179688 367.71875 367.203125 360.875 355.808594 356.171875 " fill-opacity="1" fill-rule="nonzero"/><path fill="#8f4838" d="M 301.539062 214.441406 C 301.539062 214.441406 285.5 229.542969 278.085938 235.234375 C 270.675781 240.925781 251.511719 252.875 241.671875 245.535156 C 231.828125 238.195312 235.101562 225.28125 244.46875 213.582031 C 253.832031 201.878906 275.25 185.09375 275.25 185.09375 L 301.539062 214.441406 " fill-opacity="1" fill-rule="nonzero"/><path fill="#ffe9de" d="M 470.949219 145.296875 C 470.949219 145.296875 485.890625 151.394531 492.976562 173.277344 C 497.21875 186.378906 504.875 212.121094 506.40625 218.253906 C 507.941406 224.390625 512.519531 240.613281 509.769531 241.925781 C 507.023438 243.238281 487.644531 249.3125 476.691406 250.875 C 465.738281 252.4375 454.765625 252.886719 455.492188 251.136719 C 456.21875 249.390625 454.734375 167.011719 455.988281 164.667969 C 457.238281 162.332031 470.949219 145.296875 470.949219 145.296875 " fill-opacity="1" fill-rule="nonzero"/><path fill="#747385" d="M 427.34375 401.34375 C 427.675781 402.4375 429.503906 404.144531 430.171875 405.027344 C 431.355469 406.601562 432.457031 408.113281 433.925781 409.4375 C 435.277344 410.660156 436.714844 411.777344 438.042969 413.023438 C 439.695312 414.578125 441.558594 415.363281 443.359375 416.671875 C 444.234375 417.308594 443.386719 418.777344 442.503906 418.136719 C 440.898438 416.96875 439.109375 416.308594 437.617188 414.96875 C 435.867188 413.402344 434.019531 411.894531 432.320312 410.277344 C 430.777344 408.8125 429.617188 407.085938 428.328125 405.40625 C 427.417969 404.222656 426.140625 403.222656 425.707031 401.792969 C 425.386719 400.746094 427.027344 400.296875 427.34375 401.34375 " fill-opacity="1" fill-rule="nonzero"/><path fill="#a65d4c" d="M 394.171875 132.476562 L 399.914062 145.128906 L 413.085938 153.3125 L 429.835938 140.332031 L 431.414062 135.46875 L 436.089844 121.140625 C 436.105469 121.121094 436.105469 121.121094 436.105469 121.121094 L 437.433594 117.019531 L 426.113281 118.136719 L 400.382812 108.765625 L 394.171875 132.476562 " fill-opacity="1" fill-rule="nonzero"/><path fill="#a65d4c" d="M 461.539062 68.183594 C 461.539062 68.183594 447.585938 107.007812 444.703125 112.585938 C 439.363281 122.921875 420.273438 128.710938 414.867188 127.460938 C 411.726562 126.730469 394.933594 113.6875 396.304688 98.320312 C 396.769531 93.105469 402.800781 54.84375 403.097656 54.363281 C 403.394531 53.878906 439.105469 41.304688 439.105469 41.304688 L 461.539062 68.183594 " fill-opacity="1" fill-rule="nonzero"/><path fill="#362722" d="M 438.96875 90.78125 C 439.160156 89.765625 439.757812 88.667969 440.273438 88.347656 C 440.722656 88.074219 441.296875 87.800781 441.820312 88.050781 C 443.621094 88.910156 441.652344 92.742188 440.023438 92.710938 C 438.984375 92.683594 438.785156 91.773438 438.96875 90.78125 " fill-opacity="1" fill-rule="nonzero"/><path fill="#362722" d="M 408.777344 81.359375 C 408.957031 80.296875 409.558594 79.144531 410.085938 78.800781 C 410.546875 78.507812 411.136719 78.214844 411.6875 78.464844 C 413.574219 79.320312 411.605469 83.34375 409.910156 83.339844 C 408.828125 83.335938 408.605469 82.390625 408.777344 81.359375 " fill-opacity="1" fill-rule="nonzero"/><path fill="#8f4838" d="M 417.898438 98.503906 C 417.886719 96.4375 424.496094 86.3125 425.800781 87.445312 C 426.503906 88.058594 425.417969 95.578125 425.230469 98.222656 C 425.167969 99.113281 425.011719 100.027344 424.53125 100.78125 C 423.46875 102.429688 420.9375 102.363281 419.476562 101.300781 C 418.335938 100.472656 417.902344 99.511719 417.898438 98.503906 " fill-opacity="1" fill-rule="nonzero"/><path fill="#a65d4c" d="M 401.589844 69.664062 C 401.589844 69.664062 396.304688 66.207031 394.507812 73.773438 C 392.714844 81.339844 398.316406 88.445312 398.316406 88.445312 L 401.589844 69.664062 " fill-opacity="1" fill-rule="nonzero"/><path fill="#a65d4c" d="M 455.125 82.355469 C 455.125 82.355469 461.398438 81.632812 459.605469 89.199219 C 457.808594 96.769531 449.132812 99.882812 449.132812 99.882812 L 455.125 82.355469 " fill-opacity="1" fill-rule="nonzero"/><path fill="#8f4838" d="M 404.511719 124.621094 C 405.558594 127.796875 411.851562 135.203125 422.492188 135.460938 C 426.769531 135.574219 429.59375 135.542969 431.414062 135.46875 L 436.089844 121.140625 C 435.613281 121.414062 423.484375 127.460938 416.785156 127.144531 C 409.925781 126.800781 406.855469 119.78125 405.65625 119.933594 C 404.449219 120.070312 403.46875 121.441406 404.511719 124.621094 " fill-opacity="1" fill-rule="nonzero"/><path fill="#362722" d="M 438.121094 79.273438 C 438.230469 79.003906 438.496094 78.75 438.972656 78.546875 C 440.183594 78.027344 442.378906 78.59375 443.582031 78.976562 C 446.324219 79.84375 448.746094 81.71875 449.808594 84.449219 C 450.472656 86.152344 446.492188 84.015625 445.894531 83.777344 C 444.050781 83.046875 442.195312 82.355469 440.3125 81.730469 C 439.1875 81.359375 437.757812 80.195312 438.121094 79.273438 " fill-opacity="1" fill-rule="nonzero"/><path fill="#362722" d="M 420.28125 73.984375 C 420.371094 73.707031 420.324219 73.339844 420.082031 72.882812 C 419.472656 71.714844 417.410156 70.769531 416.234375 70.304688 C 413.5625 69.253906 410.5 69.175781 407.949219 70.625 C 406.363281 71.523438 410.796875 72.378906 411.410156 72.570312 C 413.300781 73.167969 415.179688 73.800781 417.03125 74.507812 C 418.140625 74.925781 419.984375 74.925781 420.28125 73.984375 " fill-opacity="1" fill-rule="nonzero"/><path fill="#362722" d="M 400.953125 69.335938 C 400.953125 69.335938 402.644531 69.550781 405.78125 65.507812 C 407.789062 62.929688 409.394531 60.148438 410.402344 57.046875 C 410.898438 55.527344 411.566406 53.980469 413.15625 53.367188 C 414.046875 53.019531 415.023438 52.957031 415.984375 52.9375 C 429.050781 52.667969 441.398438 59.882812 448.21875 70.921875 C 449.277344 72.636719 450.351562 74.433594 451.042969 76.324219 C 451.8125 78.433594 452.269531 80.683594 453.507812 82.589844 C 457.019531 87.96875 464.558594 79.238281 465.867188 75.875 C 474.777344 52.933594 455.492188 41.746094 452.046875 39.179688 C 448.601562 36.609375 439.722656 31.527344 424.941406 35.011719 C 416.765625 36.9375 411.9375 33.71875 404.578125 49.855469 C 401.777344 55.996094 400.953125 69.335938 400.953125 69.335938 " fill-opacity="1" fill-rule="nonzero"/><path fill="#8f4838" d="M 426.214844 108.929688 C 422.824219 110.453125 414.285156 108.976562 412.714844 105.09375 C 412.308594 104.09375 410.667969 104.53125 411.078125 105.542969 C 413.125 110.609375 422.507812 112.445312 427.070312 110.394531 C 428.0625 109.949219 427.199219 108.488281 426.214844 108.929688 " fill-opacity="1" fill-rule="nonzero"/><path fill="#ffe9de" d="M 434.363281 134.339844 C 434.363281 134.339844 428.816406 139.761719 417.375 138.539062 C 402.625 136.960938 395.375 124.464844 395.054688 124.453125 C 394.738281 124.4375 385.691406 127.6875 385.515625 129.375 C 385.34375 131.066406 385.996094 141.296875 392.351562 144.25 C 398.707031 147.207031 401.5 149.5 406.273438 151.339844 C 411.046875 153.179688 414.621094 159.355469 418.347656 159.1875 C 422.066406 159.019531 428.679688 147.996094 431.601562 145.820312 C 434.523438 143.648438 434.363281 134.339844 434.363281 134.339844 " fill-opacity="1" fill-rule="nonzero"/><path fill="#f7936a" d="M 389.019531 311.289062 C 389.019531 311.289062 376.007812 284.421875 359.886719 281.878906 C 343.761719 279.332031 319.152344 291.210938 296.238281 301.109375 C 273.324219 311.007812 203.742188 340.980469 197.234375 341.832031 C 190.726562 342.679688 164.726562 325.949219 159.894531 323.730469 C 147.226562 317.910156 147.449219 327.125 148.863281 332.214844 C 150.277344 337.308594 170.644531 355.121094 177.433594 363.039062 C 184.222656 370.957031 185.070312 375.199219 192.144531 376.328125 C 199.214844 377.460938 202.609375 363.886719 211.378906 361.625 C 220.148438 359.363281 305.574219 348.050781 319.152344 342.113281 C 332.726562 336.175781 340.082031 331.523438 341.78125 333.066406 C 343.476562 334.605469 348.285156 342.960938 348.285156 342.960938 L 389.019531 311.289062 " fill-opacity="1" fill-rule="nonzero"/><path fill="#4f3228" d="M 455.492188 395.609375 C 455.492188 395.609375 391.425781 306.484375 388.03125 304.359375 C 384.636719 302.242188 359.601562 320.480469 354.507812 325.570312 C 349.417969 330.660156 339.660156 341.691406 339.660156 343.808594 C 339.660156 345.933594 373.601562 411.996094 373.601562 411.996094 L 405.011719 415.136719 L 455.492188 395.609375 " fill-opacity="1" fill-rule="nonzero"/><path fill="#ffaf8f" d="M 309.816406 404.890625 C 309.816406 404.890625 253.101562 406.050781 246.878906 406.050781 C 240.652344 406.050781 100.898438 423.878906 93.664062 425.070312 C 86.429688 426.265625 78.785156 379.777344 67.488281 382.078125 C 62.277344 383.140625 64.453125 402.195312 65.074219 416.878906 C 65.699219 431.566406 62.550781 447.855469 71.5625 449.960938 C 76.621094 451.140625 86.421875 447.363281 92.570312 446.796875 C 98.722656 446.226562 200.195312 454.554688 200.195312 454.554688 L 312.082031 451.269531 L 309.816406 404.890625 " fill-opacity="1" fill-rule="nonzero"/><path fill="#f7936a" d="M 81.464844 433.789062 C 82.648438 433.589844 84 434.402344 85.132812 434.714844 C 86.238281 435.015625 87.332031 435.25 88.484375 435.125 C 89.613281 435.003906 89.351562 433.261719 88.226562 433.382812 C 85.777344 433.648438 83.609375 431.648438 81.210938 432.046875 C 80.09375 432.230469 80.347656 433.972656 81.464844 433.789062 " fill-opacity="1" fill-rule="nonzero"/><path fill="#5c3d32" d="M 457.425781 394.464844 C 457.425781 394.464844 436.867188 388.226562 363.84375 391.910156 C 338.636719 393.183594 303.007812 396.3125 298.5 398.988281 C 293.996094 401.664062 292.960938 417.085938 293.410156 428.398438 C 293.859375 439.710938 298.367188 451.023438 300.617188 453.851562 C 302.871094 456.675781 452.359375 461.203125 452.359375 461.203125 L 457.425781 394.464844 " fill-opacity="1" fill-rule="nonzero"/><path fill="#f7936a" d="M 732.171875 383.914062 C 732.171875 383.914062 723.050781 376.28125 719.777344 375.742188 C 716.496094 375.207031 714.320312 383.152344 714.320312 383.152344 L 732.171875 383.914062 " fill-opacity="1" fill-rule="nonzero"/><path fill="#ffaf8f" d="M 771.847656 395.992188 C 771.847656 395.992188 759.054688 383.457031 740.757812 382.910156 C 722.460938 382.359375 693.367188 379.742188 689.203125 386.964844 C 683.707031 396.5 688.859375 409.566406 685.050781 411.257812 C 681.238281 412.949219 657.386719 412.800781 657.386719 412.800781 L 658.195312 448.277344 L 767.480469 443.875 L 771.847656 395.992188 " fill-opacity="1" fill-rule="nonzero"/><path fill="#f7936a" d="M 707.535156 384.320312 C 707.046875 385.632812 706.589844 386.628906 706.589844 388.078125 C 706.589844 389.589844 706.671875 391.5625 707.332031 392.941406 C 707.832031 393.988281 706.289062 394.949219 705.78125 393.894531 C 705.070312 392.402344 704.882812 390.46875 704.789062 388.839844 C 704.671875 386.886719 705.113281 385.644531 705.769531 383.875 C 706.167969 382.792969 707.9375 383.222656 707.535156 384.320312 " fill-opacity="1" fill-rule="nonzero"/><path fill="#d18d56" d="M 740.773438 387.433594 C 739.1875 388.675781 739.308594 391.46875 739.113281 393.277344 C 738.949219 394.804688 738.65625 396.308594 738.433594 397.828125 C 738.269531 398.960938 739.027344 399.253906 739.972656 398.757812 C 740.457031 398.5 740.808594 398.039062 741.046875 397.554688 C 741.539062 396.550781 741.984375 395.519531 742.339844 394.457031 C 743.03125 392.382812 743.355469 390.175781 743.023438 387.996094 C 743.007812 387.902344 742.988281 387.8125 742.960938 387.734375 C 742.652344 386.777344 741.558594 386.816406 740.773438 387.433594 " fill-opacity="1" fill-rule="nonzero"/><path fill="#4d3932" d="M 732.25 388.363281 C 733.253906 388.117188 734.507812 388.210938 735.003906 388.550781 C 735.441406 388.847656 735.925781 389.257812 735.910156 389.839844 C 735.867188 391.832031 731.566406 391.617188 730.925781 390.113281 C 730.523438 389.160156 731.269531 388.601562 732.25 388.363281 " fill-opacity="1" fill-rule="nonzero"/><path fill="#e35e4b" d="M 675.796875 442.445312 C 675.796875 442.445312 666.023438 415.746094 657.078125 404.078125 C 646.46875 390.242188 629.296875 380.613281 593.855469 382.335938 C 575.460938 383.234375 491.316406 389.375 480.289062 389.660156 C 469.253906 389.941406 462.066406 387.960938 455.902344 391.636719 C 449.738281 395.3125 446.910156 408.605469 444.082031 420.199219 C 441.25 431.792969 445.210938 451.007812 445.210938 451.007812 C 445.210938 451.007812 554.003906 485.519531 556.828125 485.519531 C 559.65625 485.519531 678.011719 450.171875 678.011719 450.171875 L 675.796875 442.445312 " fill-opacity="1" fill-rule="nonzero"/><path fill="#ffaf8f" d="M 429.035156 436.605469 C 429.035156 436.605469 405.027344 431.710938 401.398438 432.421875 C 397.765625 433.136719 383.058594 442.726562 381.148438 445.402344 C 379.234375 448.078125 379.617188 450.914062 379.617188 450.914062 C 379.617188 450.914062 426.425781 453.226562 426.808594 452.691406 C 427.191406 452.160156 430.4375 444.511719 430.4375 444.511719 L 429.035156 436.605469 " fill-opacity="1" fill-rule="nonzero"/><path fill="#ffaf8f" d="M 603.261719 418.167969 L 531.496094 423.355469 C 531.496094 423.355469 508.351562 419.722656 497.445312 421.699219 C 486.535156 423.675781 428.089844 436.816406 428.089844 436.816406 L 428.359375 451.84375 L 603.921875 454.554688 L 603.261719 418.167969 " fill-opacity="1" fill-rule="nonzero"/><path fill="#f5e8e1" d="M 49.082031 511.675781 L 764.515625 511.675781 C 778.972656 511.675781 790.691406 499.960938 790.691406 485.511719 L 22.910156 485.511719 C 22.910156 499.960938 34.628906 511.675781 49.082031 511.675781 " fill-opacity="1" fill-rule="nonzero"/><g clip-path="url(#ad02b51aa8)"><path fill="#874c43" d="M 659.714844 493.996094 L 790.695312 493.996094 C 801.355469 493.996094 809.996094 485.355469 809.996094 474.699219 L 809.996094 467.210938 C 809.996094 456.554688 801.355469 447.914062 790.695312 447.914062 L 659.714844 447.914062 C 649.0625 447.914062 640.414062 456.554688 640.414062 467.210938 L 640.414062 474.699219 C 640.414062 485.355469 649.0625 493.996094 659.714844 493.996094 " fill-opacity="1" fill-rule="nonzero"/></g><path fill="#874c43" d="M 476.984375 493.996094 L 626.628906 493.996094 C 637.285156 493.996094 645.929688 485.355469 645.929688 474.699219 L 645.929688 467.210938 C 645.929688 456.554688 637.285156 447.914062 626.628906 447.914062 L 476.984375 447.914062 C 466.324219 447.914062 457.679688 456.554688 457.679688 467.210938 L 457.679688 474.699219 C 457.679688 485.355469 466.324219 493.996094 476.984375 493.996094 " fill-opacity="1" fill-rule="nonzero"/><path fill="#874c43" d="M 155.078125 493.996094 L 446.160156 493.996094 C 456.820312 493.996094 465.460938 485.355469 465.460938 474.699219 L 465.460938 467.210938 C 465.460938 456.554688 456.820312 447.914062 446.160156 447.914062 L 155.078125 447.914062 C 144.417969 447.914062 135.777344 456.554688 135.777344 467.210938 L 135.777344 474.699219 C 135.777344 485.355469 144.417969 493.996094 155.078125 493.996094 " fill-opacity="1" fill-rule="nonzero"/><path fill="#874c43" d="M 19.304688 493.996094 L 123.828125 493.996094 C 134.488281 493.996094 143.128906 485.355469 143.128906 474.699219 L 143.128906 467.210938 C 143.128906 456.554688 134.488281 447.914062 123.828125 447.914062 L 19.304688 447.914062 C 8.644531 447.914062 0 456.554688 0 467.210938 L 0 474.699219 C 0 485.355469 8.644531 493.996094 19.304688 493.996094 " fill-opacity="1" fill-rule="nonzero"/><path fill="#f5e8e1" d="M 729.796875 773.816406 L 751.015625 773.816406 L 751.015625 506.585938 L 729.796875 506.585938 L 729.796875 773.816406 " fill-opacity="1" fill-rule="nonzero"/><g clip-path="url(#a8e9c347ce)"><path fill="#3d3227" d="M 734.914062 778.058594 L 745.902344 778.058594 C 749.917969 778.058594 752.625 773.957031 751.042969 770.265625 L 751.019531 770.210938 L 729.792969 770.210938 L 729.773438 770.265625 C 728.191406 773.957031 730.898438 778.058594 734.914062 778.058594 " fill-opacity="1" fill-rule="nonzero"/></g><path fill="#f5e8e1" d="M 83.804688 773.816406 L 62.589844 773.816406 L 62.589844 506.585938 L 83.804688 506.585938 L 83.804688 773.816406 " fill-opacity="1" fill-rule="nonzero"/><g clip-path="url(#4683f0cf69)"><path fill="#3d3227" d="M 78.691406 778.058594 L 67.703125 778.058594 C 63.6875 778.058594 60.976562 773.957031 62.558594 770.265625 L 62.582031 770.210938 L 83.808594 770.210938 L 83.832031 770.265625 C 85.414062 773.957031 82.703125 778.058594 78.691406 778.058594 " fill-opacity="1" fill-rule="nonzero"/></g><path fill="#e8d4ca" d="M 732.0625 511.394531 L 749.601562 511.394531 C 750.691406 511.394531 750.695312 513.089844 749.601562 513.089844 L 732.0625 513.089844 C 730.972656 513.089844 730.972656 511.394531 732.0625 511.394531 " fill-opacity="1" fill-rule="nonzero"/><path fill="#e8d4ca" d="M 64.707031 510.542969 C 70.351562 510.542969 76.082031 510.871094 81.683594 510.828125 C 82.773438 510.816406 82.777344 512.515625 81.683594 512.523438 C 76.085938 512.566406 70.355469 512.242188 64.707031 512.242188 C 63.617188 512.242188 63.617188 510.542969 64.707031 510.542969 " fill-opacity="1" fill-rule="nonzero"/><path fill="#c9503e" d="M 600.226562 410.300781 C 604.796875 410.15625 609.292969 409.523438 613.785156 408.742188 C 618.914062 407.847656 623.742188 407.6875 628.679688 405.78125 C 637.800781 402.257812 646.222656 405.414062 655.28125 407.550781 C 655.550781 407.613281 655.8125 407.867188 655.871094 408.144531 C 655.886719 408.222656 655.902344 408.300781 655.917969 408.378906 C 656.132812 409.445312 654.496094 409.898438 654.28125 408.828125 C 654.234375 408.597656 648.4375 407.472656 648.023438 407.382812 C 645.148438 406.742188 642.238281 406.023438 639.300781 405.773438 C 633.941406 405.3125 630.105469 407.441406 625.191406 408.914062 C 621.234375 410.097656 616.949219 409.863281 612.878906 410.632812 C 608.703125 411.425781 604.484375 411.863281 600.226562 411.996094 C 599.132812 412.03125 599.132812 410.335938 600.226562 410.300781 " fill-opacity="1" fill-rule="nonzero"/><path fill="#c9503e" d="M 607.894531 416.203125 C 612.261719 419.972656 616.113281 424.679688 619.113281 429.605469 C 620.375 431.679688 621.589844 433.769531 622.484375 436.027344 C 623.296875 438.085938 623.921875 441.132812 625.171875 443.140625 C 625.601562 443.132812 626.015625 443.402344 625.964844 443.953125 C 625.953125 444.121094 625.9375 444.285156 625.921875 444.453125 C 625.863281 445.105469 624.984375 445.671875 624.476562 445.050781 C 621.722656 441.746094 621.21875 436.710938 619.132812 432.96875 C 615.917969 427.203125 611.707031 421.730469 606.695312 417.40625 C 605.871094 416.691406 607.070312 415.496094 607.894531 416.203125 " fill-opacity="1" fill-rule="nonzero"/><path fill="#c9503e" d="M 623.300781 425.144531 C 625.035156 427.933594 626.515625 430.777344 627.6875 433.851562 C 628.417969 435.757812 629.082031 437.6875 629.714844 439.628906 C 630.082031 440.746094 630.402344 443.179688 631.484375 443.785156 C 632.4375 444.316406 631.582031 445.785156 630.628906 445.25 C 628.644531 444.136719 628.269531 440.585938 627.621094 438.664062 C 626.109375 434.191406 624.320312 430 621.839844 426 C 621.257812 425.066406 622.730469 424.214844 623.300781 425.144531 " fill-opacity="1" fill-rule="nonzero"/><path fill="#c9503e" d="M 469.597656 423.058594 C 472.40625 422.542969 474.375 418.339844 476.179688 416.167969 C 478.292969 413.625 480.574219 411.699219 483.074219 409.5625 C 485.210938 407.742188 487.542969 406.277344 489.808594 404.613281 C 493.09375 402.199219 496.027344 399.269531 498.921875 396.410156 C 499.699219 395.640625 500.902344 396.839844 500.125 397.609375 C 494.671875 402.996094 488.683594 407.15625 482.792969 411.953125 C 479.773438 414.410156 477.273438 417.261719 474.929688 420.367188 C 473.378906 422.421875 472.714844 424.203125 470.046875 424.691406 C 468.980469 424.886719 468.519531 423.253906 469.597656 423.058594 " fill-opacity="1" fill-rule="nonzero"/><path fill="#c9503e" d="M 461.367188 427.609375 C 462.558594 423.488281 464.410156 418.683594 467.046875 415.238281 C 470.171875 411.144531 475.566406 409.960938 479.121094 406.308594 C 479.886719 405.523438 481.085938 406.726562 480.320312 407.507812 C 477.101562 410.820312 472.253906 412.027344 469.140625 415.359375 C 466.144531 418.5625 464.210938 423.875 463.003906 428.058594 C 462.699219 429.105469 461.0625 428.660156 461.367188 427.609375 " fill-opacity="1" fill-rule="nonzero"/><path fill="#826055" d="M 434.761719 408.703125 C 436.007812 404.410156 437.699219 399.84375 439.953125 396.015625 C 440.507812 395.078125 441.976562 395.929688 441.417969 396.875 C 439.324219 400.433594 437.578125 405.1875 436.398438 409.15625 C 434.773438 414.617188 433.785156 420.019531 433.898438 425.710938 C 433.917969 426.804688 432.222656 426.804688 432.199219 425.710938 C 432.085938 419.789062 433.105469 414.414062 434.761719 408.703125 " fill-opacity="1" fill-rule="nonzero"/><path fill="#826055" d="M 424.605469 408.199219 C 425.171875 405.003906 425.5 401.796875 426.714844 398.765625 C 427.113281 397.761719 428.757812 398.199219 428.351562 399.214844 C 427.257812 401.945312 427 404.8125 426.402344 407.667969 C 425.644531 411.296875 424.664062 415.644531 424.5625 419.351562 C 424.535156 420.4375 422.835938 420.445312 422.867188 419.351562 C 422.964844 415.707031 423.964844 411.8125 424.605469 408.199219 " fill-opacity="1" fill-rule="nonzero"/><path fill="#d18d56" d="M 761.636719 388.796875 C 761.636719 388.796875 753.363281 396.683594 750.417969 404.195312 C 747.480469 411.714844 735.652344 412.90625 733.367188 415.136719 C 731.078125 417.371094 732.34375 423.066406 725.207031 424.742188 C 718.0625 426.421875 713.539062 418.117188 710.707031 418.167969 C 707.882812 418.21875 697.699219 420.734375 693.167969 424.710938 C 688.644531 428.679688 685.199219 430.378906 678.015625 432.359375 C 670.828125 434.335938 666.59375 433.128906 666.019531 440.558594 C 665.441406 447.984375 667.664062 452.433594 678.015625 452.433594 C 688.359375 452.433594 753.988281 451.304688 763.042969 450.457031 C 772.089844 449.609375 775.769531 444.515625 777.746094 433.207031 C 779.726562 421.894531 783.964844 417.429688 775.488281 400.371094 C 771.847656 393.050781 761.636719 388.796875 761.636719 388.796875 " fill-opacity="1" fill-rule="nonzero"/><path fill="#d18d56" d="M 671.347656 433.832031 C 671.347656 433.832031 662.128906 434.796875 661.070312 440.734375 C 660.007812 446.671875 656.46875 457.277344 657.386719 464.488281 C 658.308594 471.699219 661.492188 479.332031 670.402344 485.0625 C 679.316406 490.785156 690.128906 482.9375 696.707031 477.214844 C 703.285156 471.488281 709.011719 470.640625 720.257812 466.820312 C 731.5 463.003906 732.351562 456.074219 737.867188 454.554688 C 743.382812 453.035156 765.609375 450.058594 765.609375 450.058594 C 765.609375 450.058594 745.503906 440.945312 737.445312 440.3125 C 729.378906 439.675781 671.347656 433.832031 671.347656 433.832031 " fill-opacity="1" fill-rule="nonzero"/><path fill="#a65d4c" d="M 395.96875 125.621094 C 395.96875 125.621094 398.425781 154.417969 406.378906 154.523438 C 414.335938 154.628906 431.085938 136.476562 431.085938 136.476562 L 417.414062 135.53125 L 403.089844 128.75 L 395.96875 125.621094 " fill-opacity="1" fill-rule="nonzero"/><path fill="#f0dace" d="M 438.480469 140.695312 C 433.523438 145.945312 427.800781 151.167969 421.859375 155.285156 C 418.476562 157.628906 414.894531 159.429688 411.257812 161.320312 C 409.519531 162.21875 405.609375 165.566406 403.699219 165.503906 C 403.492188 165.5 403.34375 165.566406 403.222656 165.65625 C 400.902344 163.820312 399.203125 159.734375 397.945312 157.15625 C 396.785156 154.777344 395.53125 152.425781 394.453125 150.003906 C 393.046875 146.835938 391.964844 143.484375 391.175781 140.113281 C 390.464844 137.0625 389.167969 133.941406 389.660156 130.773438 C 389.832031 129.699219 388.167969 129.359375 388 130.4375 C 387.527344 133.441406 388.472656 136.039062 389.164062 138.941406 C 390.09375 142.851562 391.164062 146.582031 392.710938 150.304688 C 393.808594 152.941406 395.222656 155.464844 396.484375 158.023438 C 397.886719 160.871094 399.589844 164.96875 402.132812 166.960938 C 402.507812 167.25 402.921875 167.164062 403.207031 166.929688 C 403.355469 167.078125 403.554688 167.191406 403.8125 167.195312 C 406.054688 167.265625 409.164062 164.386719 411.027344 163.363281 C 414.851562 161.273438 418.703125 159.414062 422.367188 156.992188 C 428.660156 152.832031 434.59375 147.289062 439.761719 141.808594 C 440.511719 141.015625 439.230469 139.902344 438.480469 140.695312 " fill-opacity="1" fill-rule="nonzero"/><path fill="#ffe9de" d="M 359.976562 122.972656 C 359.976562 122.972656 321.839844 131.722656 306.988281 145.296875 C 292.136719 158.871094 256.070312 193.558594 256.070312 196.574219 C 256.070312 199.589844 282.800781 230.980469 287.042969 230.980469 C 291.289062 230.980469 351.113281 191.53125 351.113281 191.53125 L 359.976562 122.972656 " fill-opacity="1" fill-rule="nonzero"/><path fill="#a65d4c" d="M 235.6875 231.824219 C 235.101562 236.425781 233.472656 249.476562 251.140625 263.886719 C 268.8125 278.292969 313.378906 316 313.378906 316 L 323.175781 299.226562 C 323.175781 299.226562 303.003906 269.996094 285.066406 242.058594 C 267.132812 214.125 256.792969 212.394531 247.359375 215.335938 C 237.921875 218.277344 236.273438 227.230469 235.6875 231.824219 " fill-opacity="1" fill-rule="nonzero"/><path fill="#a65d4c" d="M 320.3125 295.058594 C 320.3125 295.058594 332.371094 308.152344 334.792969 313.605469 C 337.214844 319.054688 340.429688 334.15625 339.636719 336.804688 C 337.214844 344.871094 329.46875 347.613281 325.945312 346.5625 C 317.277344 343.972656 312.820312 330.1875 311.714844 326.800781 C 308.808594 317.914062 310.90625 309.695312 310.90625 309.695312 L 320.3125 295.058594 " fill-opacity="1" fill-rule="nonzero"/><path fill="#a65d4c" d="M 502.90625 261.628906 C 498.769531 259.542969 485.851562 255.738281 466.371094 267.59375 C 446.894531 279.449219 397.550781 310.148438 397.550781 310.148438 L 409.039062 323.710938 C 409.039062 323.710938 443.339844 314.484375 475.652344 306.84375 C 515.320312 297.464844 515.011719 287.816406 515 279.761719 C 514.988281 269.882812 507.054688 263.707031 502.90625 261.628906 " fill-opacity="1" fill-rule="nonzero"/><path fill="#a65d4c" d="M 399.839844 309.042969 C 399.839844 309.042969 390.960938 306.109375 385.664062 306.699219 C 380.363281 307.285156 367.585938 315.132812 363.878906 319.5 C 359.757812 324.355469 362.390625 331.121094 366.527344 334.800781 C 368.898438 336.90625 379.1875 337.890625 386.105469 337.15625 C 393.019531 336.421875 411.792969 323.15625 411.792969 323.15625 C 411.792969 323.15625 420.394531 308.90625 419.511719 308.171875 C 418.628906 307.433594 399.839844 309.042969 399.839844 309.042969 " fill-opacity="1" fill-rule="nonzero"/><path fill="#f0dace" d="M 339.800781 135.289062 C 339.800781 134.191406 338.148438 134.199219 338.101562 135.289062 C 337.859375 141.382812 336.011719 147.78125 334.59375 153.714844 C 333.207031 159.515625 331.644531 165.304688 329.542969 170.882812 C 327.835938 175.414062 326.464844 180.101562 324.78125 184.660156 C 323.878906 187.105469 322.917969 189.527344 321.742188 191.855469 C 320.835938 193.648438 319.496094 195.183594 318.898438 197.101562 C 318.574219 198.144531 320.210938 198.59375 320.535156 197.554688 C 321.324219 195.003906 323.289062 192.664062 324.410156 190.199219 C 325.257812 188.328125 325.945312 186.402344 326.652344 184.472656 C 328.5 179.429688 330.273438 174.359375 332.039062 169.296875 C 333.925781 163.898438 335.332031 158.175781 336.597656 152.597656 C 337.777344 147.394531 339.292969 141.996094 339.707031 136.636719 C 339.761719 136.523438 339.800781 136.398438 339.800781 136.246094 L 339.800781 135.289062 " fill-opacity="1" fill-rule="nonzero"/><path fill="#f0dace" d="M 341.496094 156.042969 C 341.5 159.308594 340.085938 163.378906 339.351562 166.527344 C 338.449219 170.375 337.335938 173.96875 335.949219 177.683594 C 334.394531 181.847656 332.375 185.808594 330.066406 189.605469 C 329.054688 191.269531 327.960938 192.882812 326.886719 194.507812 C 325.488281 196.621094 324.324219 199.769531 322.117188 201.121094 C 321.1875 201.6875 322.039062 203.152344 322.972656 202.582031 C 326.113281 200.660156 327.515625 196.660156 329.5 193.65625 C 332.308594 189.410156 334.832031 184.960938 336.773438 180.246094 C 338.457031 176.160156 339.972656 171.941406 340.867188 167.617188 C 341.648438 163.84375 343.195312 159.90625 343.195312 156.042969 C 343.195312 154.949219 341.496094 154.945312 341.496094 156.042969 " fill-opacity="1" fill-rule="nonzero"/><path fill="#f0dace" d="M 475.636719 154.65625 C 475.484375 154.695312 475.332031 154.730469 475.179688 154.769531 C 474.898438 154.835938 474.65625 155.078125 474.585938 155.359375 C 472.980469 161.675781 470.582031 167.773438 468.953125 174.058594 C 467.152344 181.011719 465.566406 188.109375 463.996094 195.109375 C 462.578125 201.457031 462.113281 207.402344 461.507812 213.820312 C 461.15625 217.554688 461.386719 221.183594 460.773438 224.917969 C 460.339844 227.570312 459.882812 230.292969 459.734375 232.960938 C 459.675781 234.050781 461.375 234.046875 461.433594 232.960938 C 461.613281 229.695312 462.363281 226.351562 462.792969 223.101562 C 463.238281 219.75 462.902344 216.371094 463.316406 213.023438 C 463.714844 209.789062 463.511719 206.570312 464.027344 203.355469 C 464.53125 200.25 465.261719 197.179688 465.960938 194.113281 C 467.449219 187.589844 468.910156 180.988281 470.589844 174.511719 C 471.433594 171.265625 472.796875 168.199219 473.738281 164.976562 C 474.117188 163.6875 475.210938 156.503906 476.085938 156.292969 C 477.148438 156.039062 476.699219 154.402344 475.636719 154.65625 " fill-opacity="1" fill-rule="nonzero"/><path fill="#f0dace" d="M 440.050781 191.808594 C 437.496094 195.238281 434.722656 198.523438 432.140625 201.941406 C 429.714844 205.152344 427.910156 208.644531 425.859375 212.097656 C 420.871094 220.484375 415.828125 229.214844 409.296875 236.527344 C 403.742188 242.746094 398.9375 249.457031 393.519531 255.792969 C 390.425781 259.40625 386.789062 262.59375 383.410156 265.9375 C 382.117188 267.21875 380.617188 268.449219 379.507812 269.894531 C 378.285156 271.496094 377.636719 273.246094 376.253906 274.773438 C 375.527344 275.582031 376.722656 276.789062 377.457031 275.976562 C 380.042969 273.105469 381.8125 269.90625 384.609375 267.136719 C 387.988281 263.792969 391.621094 260.597656 394.71875 256.988281 C 397.457031 253.800781 399.777344 250.273438 402.394531 247 C 405.253906 243.421875 408.515625 240.101562 411.476562 236.59375 C 417.324219 229.667969 421.847656 221.804688 426.605469 214.125 C 429.121094 210.066406 431.285156 205.984375 434.132812 202.136719 C 436.523438 198.910156 439.125 195.875 441.515625 192.664062 C 442.171875 191.789062 440.699219 190.945312 440.050781 191.808594 " fill-opacity="1" fill-rule="nonzero"/><path fill="#8997b0" d="M 432.550781 734.960938 C 431.769531 732.683594 429.691406 730.816406 428.15625 728.949219 C 425.589844 725.835938 423.667969 722.503906 421.378906 719.183594 C 416.972656 712.789062 412.90625 706.160156 409.347656 699.242188 C 405.414062 691.609375 401.671875 683.625 398.546875 675.625 C 395.871094 668.78125 393.609375 661.703125 390.601562 655.011719 C 390.152344 654.015625 388.691406 654.875 389.136719 655.867188 C 392.527344 663.40625 394.84375 671.46875 398.128906 679.074219 C 401.078125 685.902344 404.148438 692.765625 407.519531 699.398438 C 410.929688 706.105469 414.773438 712.710938 419.089844 718.867188 C 420.996094 721.589844 422.476562 724.636719 424.441406 727.285156 C 425.6875 728.964844 427.164062 730.511719 428.449219 732.164062 C 429.085938 732.988281 430.59375 734.472656 430.914062 735.410156 C 431.265625 736.433594 432.90625 735.992188 432.550781 734.960938 " fill-opacity="1" fill-rule="nonzero"/><path fill="#8997b0" d="M 417.058594 727.226562 C 414.535156 724.320312 412.675781 720.890625 410.601562 717.664062 C 408.671875 714.640625 407.832031 711.164062 405.875 708.171875 C 405.28125 707.261719 403.808594 708.113281 404.410156 709.027344 C 406.570312 712.335938 407.664062 716.203125 409.828125 719.574219 C 411.769531 722.59375 413.496094 725.707031 415.855469 728.429688 C 416.574219 729.257812 417.769531 728.050781 417.058594 727.226562 " fill-opacity="1" fill-rule="nonzero"/><path fill="#8997b0" d="M 321.378906 520.230469 C 318.925781 522.308594 316.101562 523.941406 313.796875 526.148438 C 311.46875 528.375 309.417969 531.046875 307.121094 533.359375 C 301.96875 538.546875 296.746094 543.589844 291.390625 548.566406 C 286.503906 553.097656 281.277344 557.636719 275.996094 561.753906 C 273.175781 563.945312 270.347656 566.058594 267.289062 567.910156 C 264.753906 569.445312 261.839844 571.859375 258.957031 572.613281 C 257.902344 572.886719 258.347656 574.527344 259.410156 574.246094 C 262.078125 573.550781 264.53125 571.507812 266.882812 570.113281 C 269.957031 568.285156 272.804688 566.324219 275.644531 564.152344 C 278.382812 562.054688 280.785156 559.753906 283.371094 557.488281 C 285.820312 555.347656 288.5 553.800781 290.808594 551.492188 C 296.1875 546.128906 301.867188 541.078125 307.222656 535.667969 C 309.332031 533.539062 311.601562 531.488281 313.542969 529.203125 C 316.101562 526.183594 319.535156 524.011719 322.578125 521.433594 C 323.414062 520.726562 322.207031 519.53125 321.378906 520.230469 " fill-opacity="1" fill-rule="nonzero"/></svg>