<svg xmlns="http://www.w3.org/2000/svg" xmlns:xlink="http://www.w3.org/1999/xlink" width="1080" zoomAndPan="magnify" viewBox="0 0 810 809.999993" height="1080" preserveAspectRatio="xMidYMid meet" version="1.0"><defs><clipPath id="e4de9020db"><path d="M 212.117188 519 L 464 519 L 464 755 L 212.117188 755 Z M 212.117188 519 " clip-rule="nonzero"/></clipPath></defs><path fill="#ffc7ad" d="M 366.300781 192.441406 C 364.527344 191.679688 362.914062 190.597656 361.550781 189.179688 C 359.644531 187.203125 357.261719 185.820312 354.90625 184.457031 C 348.191406 180.554688 341.476562 176.652344 334.761719 172.753906 C 333.660156 172.113281 332.171875 171.511719 331.15625 172.460938 C 330.710938 172.878906 330.5 173.496094 330.417969 174.101562 C 330.171875 175.953125 331.03125 177.726562 332.226562 178.996094 C 333.441406 180.261719 334.972656 181.121094 336.417969 182.070312 C 338.828125 183.65625 341.050781 185.535156 343.042969 187.65625 C 343.210938 187.851562 343.40625 188.0625 343.414062 188.339844 C 343.441406 188.851562 342.875 189.207031 342.398438 189.394531 C 340.234375 190.246094 337.976562 190.632812 335.726562 190.722656 C 334.554688 190.777344 333.394531 190.75 332.242188 190.660156 C 331.179688 190.589844 330.136719 190.839844 329.109375 190.679688 C 323.570312 189.800781 318.203125 187.867188 312.523438 187.984375 C 310.617188 188.019531 307.417969 189.492188 309.609375 191.664062 C 311.425781 193.453125 314.039062 194.03125 316.507812 194.632812 C 319.511719 195.359375 322.488281 196.21875 325.414062 197.222656 C 326.105469 197.453125 326.777344 197.753906 327.488281 197.921875 C 327.824219 198 328.480469 197.929688 328.71875 198.207031 C 330.109375 199.792969 324.890625 200.253906 324.253906 200.378906 C 321.726562 200.847656 319.210938 201.308594 316.6875 201.777344 C 313.84375 202.308594 310.722656 203 308.828125 205.394531 C 308.207031 206.175781 307.773438 206.894531 308.277344 207.664062 C 308.652344 208.25 309.617188 208.738281 310.273438 208.914062 C 311.707031 209.304688 313.277344 208.898438 314.78125 208.535156 C 318.457031 207.664062 322.179688 207.097656 325.902344 206.847656 C 327.628906 206.734375 329.621094 206.511719 331.3125 206.714844 C 333.546875 207 331.800781 208.605469 330.472656 209.011719 C 327.558594 209.925781 324.554688 210.75 321.835938 212.335938 C 320.710938 212.992188 319.113281 213.960938 318.28125 215.023438 C 317.253906 216.34375 318.433594 217.585938 319.679688 217.78125 C 320.921875 217.976562 322.214844 217.566406 323.457031 217.167969 C 326.449219 216.203125 329.453125 215.234375 332.457031 214.277344 C 333.6875 213.871094 335.246094 213.054688 336.515625 213.019531 C 337.460938 212.992188 338.257812 213.535156 337.53125 214.554688 C 336.550781 215.945312 334.972656 216.691406 333.695312 217.78125 C 332.8125 218.542969 332.058594 219.484375 331.5 220.527344 C 331.242188 221.015625 331.039062 221.65625 331.367188 222.042969 C 331.632812 222.347656 332.09375 222.328125 332.5 222.273438 C 334.726562 221.972656 337.074219 221.433594 339.023438 220.101562 C 341.121094 218.667969 343.769531 217.71875 346.066406 216.734375 C 350.664062 214.75 355.171875 213.585938 360.152344 213.1875 C 364.226562 212.859375 368.3125 213.417969 372.429688 212.949219 C 373.757812 212.796875 375.140625 212.542969 376.222656 211.753906 C 378.226562 210.308594 378.667969 207.566406 378.953125 205.113281 C 379.234375 202.691406 379.617188 199.394531 379.046875 196.992188 C 378.816406 196.007812 378.304688 195.050781 377.460938 194.480469 C 376.257812 193.675781 374.679688 193.816406 373.226562 193.816406 C 370.816406 193.808594 368.453125 193.355469 366.300781 192.441406 " fill-opacity="1" fill-rule="nonzero"/><path fill="#cddcfb" d="M 495.1875 103.300781 C 486.515625 99.550781 476.042969 102.699219 468.875 108.867188 C 455.558594 120.339844 438.097656 175.910156 436.492188 179.828125 C 435.519531 182.210938 434.464844 184.710938 432.4375 186.308594 C 430.378906 187.941406 427.644531 188.382812 425.019531 188.507812 C 415.957031 188.949219 382.824219 187.804688 375.398438 188 C 371.597656 188.097656 366.113281 187.558594 362.578125 189.304688 C 358.421875 191.363281 363.445312 214.945312 364.820312 215.351562 C 368.382812 216.398438 395.605469 222.941406 405.664062 225.113281 C 409.199219 225.875 437.519531 229.5625 444.210938 227.824219 C 450.121094 226.300781 454.042969 223.800781 457.988281 220.832031 C 466.199219 214.660156 468.972656 205.296875 473.039062 196.253906 C 477.992188 185.226562 482.242188 173.816406 486.628906 162.558594 C 490.023438 153.871094 495.179688 144.3125 496.488281 135.046875 C 497.003906 131.371094 497.890625 127.742188 499.246094 124.277344 C 500.300781 121.582031 502.746094 119.390625 503.683594 116.890625 C 505.785156 111.324219 499.902344 105.332031 495.1875 103.300781 " fill-opacity="1" fill-rule="nonzero"/><path fill="#7a472d" d="M 565.84375 51.703125 C 563.21875 54.78125 559.984375 57.210938 556.265625 58.566406 C 546.582031 62.105469 547.414062 58.070312 542.355469 52.378906 C 536.089844 45.332031 528.640625 45.339844 521.527344 40.027344 C 516.699219 36.421875 514.863281 29 517.355469 23.175781 C 519.125 19.035156 522.644531 16.003906 526.222656 13.46875 C 541.476562 2.707031 563.847656 -0.0507812 571.859375 21.4375 C 575.445312 31.046875 572.734375 43.628906 565.84375 51.703125 " fill-opacity="1" fill-rule="nonzero"/><path fill="#dae8fd" d="M 547.183594 591.164062 C 547.121094 592.289062 546.945312 593.398438 546.574219 594.460938 C 545.773438 596.75 544.285156 598.761719 543.242188 600.941406 C 540.460938 606.742188 536.597656 611.9375 533.132812 617.300781 C 529.15625 623.433594 525.160156 629.570312 521.171875 635.695312 C 518.292969 640.128906 516.601562 644.488281 514.667969 649.347656 C 513.933594 651.191406 513.421875 653.257812 514.003906 655.15625 C 514.386719 656.371094 515.183594 657.40625 516.058594 658.328125 C 520.207031 662.707031 527.039062 664.765625 532.847656 665.402344 C 536.136719 665.765625 539.371094 666.628906 542.585938 665.359375 C 545.6875 664.128906 547.785156 661.203125 550.082031 658.96875 C 555.546875 653.648438 558.070312 646.40625 560.90625 639.570312 C 561.945312 637.085938 563.769531 634.960938 565.761719 633.1875 C 569.589844 629.773438 574.097656 627.636719 576.492188 622.929688 C 579.191406 617.628906 580.777344 610.765625 578.679688 605.03125 C 576.375 598.699219 575.898438 591.332031 574.78125 584.648438 C 574.472656 582.796875 574.117188 580.863281 572.9375 579.398438 C 570.890625 576.875 567.96875 575.632812 564.777344 575.214844 C 562.078125 574.859375 559.339844 575.074219 556.628906 575.285156 C 554.351562 575.457031 551.921875 575.6875 550.117188 577.085938 C 547.394531 579.179688 547.023438 583.097656 547.140625 586.527344 C 547.183594 588.042969 547.28125 589.621094 547.183594 591.164062 " fill-opacity="1" fill-rule="nonzero"/><path fill="#dae8fd" d="M 496.199219 564.480469 C 493.371094 566.5625 490.847656 569.011719 488.074219 571.148438 C 485.335938 573.265625 482.449219 574.949219 479.746094 577.128906 C 473.800781 581.925781 467.632812 586.4375 461.253906 590.640625 C 456.4375 593.824219 451.476562 596.839844 447.007812 600.507812 C 443.527344 603.371094 440.339844 606.671875 437.964844 610.527344 C 436.652344 612.65625 436.15625 613.851562 436.839844 616.308594 C 437.449219 618.480469 438.671875 620.457031 439.914062 622.316406 C 442.261719 625.863281 445 629.453125 448.933594 631.058594 C 452.734375 632.601562 457.101562 632.035156 460.929688 630.582031 C 466.679688 628.398438 472.835938 624.160156 476.742188 619.410156 C 480.933594 614.320312 485.753906 610.234375 491.980469 607.839844 C 496.925781 605.941406 502.398438 605.144531 506.730469 602.105469 C 510.578125 599.402344 513.039062 594.96875 513.625 590.339844 C 514.296875 584.933594 512.109375 579.507812 512.464844 574.035156 C 512.683594 570.535156 508.378906 558.203125 505.464844 557.902344 C 502.203125 557.574219 498.925781 558.839844 496.355469 560.871094 L 496.199219 564.480469 " fill-opacity="1" fill-rule="nonzero"/><path fill="#275ebe" d="M 452.226562 356.460938 C 452.335938 358.207031 452.46875 359.953125 452.609375 361.703125 C 454.46875 384.742188 459.484375 407.082031 464.320312 429.628906 C 466.570312 440.097656 466.988281 466.976562 485.015625 462.128906 C 493.851562 459.753906 509.148438 444.148438 510.488281 424.886719 C 511.195312 414.503906 510.613281 399.726562 511.152344 389.335938 C 512.261719 367.835938 500.441406 296.65625 500.441406 296.65625 C 500.441406 296.65625 460.546875 282.90625 458.785156 287.109375 C 455.363281 295.210938 454.832031 303.675781 453.777344 311.019531 C 451.617188 326.054688 451.289062 341.3125 452.226562 356.460938 " fill-opacity="1" fill-rule="nonzero"/><path fill="#275ebe" d="M 460.902344 404.972656 C 462.894531 428.449219 467.652344 451.605469 471.84375 474.753906 C 476.238281 499.027344 478 522.714844 477.070312 547.433594 C 476.855469 553.078125 476.589844 558.71875 476.359375 564.363281 C 476.085938 571.109375 476.324219 578.921875 481.605469 583.125 C 488.039062 588.246094 497.589844 586.199219 504.660156 583.707031 C 507.296875 582.777344 512.144531 581.511719 513.773438 579.019531 C 516.007812 575.613281 514.652344 569.027344 514.386719 565.242188 C 512.394531 537.175781 520.667969 510.074219 519.90625 482.015625 C 519.410156 463.707031 515.113281 447.777344 507.476562 431.207031 C 505.632812 427.199219 502.964844 422.871094 498.632812 422.136719 L 460.902344 404.972656 " fill-opacity="1" fill-rule="nonzero"/><path fill="#3574e0" d="M 577.15625 324.128906 C 574.703125 307.90625 570.457031 289.582031 561.351562 280.121094 C 561.351562 280.121094 518.726562 306.816406 484.75 296.761719 C 481.117188 295.679688 485.113281 300.40625 486.140625 304.136719 C 488.453125 312.535156 490.765625 320.921875 493.085938 329.324219 C 498.128906 347.632812 505.632812 366.800781 508.230469 385.53125 C 511.019531 405.664062 513.570312 425.824219 517.601562 445.761719 C 519.417969 454.769531 524.894531 463.589844 529.519531 471.117188 C 534.894531 479.902344 540.042969 484.65625 548.832031 483.085938 C 552.820312 482.378906 559.4375 477.367188 561.429688 473.820312 C 562.8125 471.320312 563.308594 467.917969 563.980469 465.167969 C 567.570312 450.585938 568.855469 436.039062 570.261719 421.179688 C 571.742188 405.585938 572.566406 389.9375 573.859375 374.324219 C 575.207031 357.976562 579.617188 340.355469 577.15625 324.128906 " fill-opacity="1" fill-rule="nonzero"/><path fill="#3574e0" d="M 517.328125 438.023438 C 517.734375 438.105469 520.136719 451.570312 520.550781 453.015625 C 521.933594 457.863281 523.617188 462.625 525.378906 467.359375 C 528.933594 476.878906 533.34375 486.457031 535.585938 496.410156 C 540.523438 518.265625 542.320312 541.792969 541.40625 564.222656 C 541.203125 569.167969 540.859375 574.097656 540.371094 579.027344 C 539.804688 584.683594 539.058594 590.492188 540.601562 595.96875 C 542.832031 603.929688 550.035156 607.167969 557.460938 608.914062 C 560.542969 609.640625 563.761719 609.996094 566.894531 609.5 C 570.972656 608.851562 576.445312 607.46875 578.828125 603.84375 C 580.308594 601.597656 580.929688 598.914062 581.382812 596.269531 C 582.800781 588.042969 582.773438 579.667969 582.410156 571.351562 C 582.082031 563.824219 583.234375 556.667969 583.886719 549.132812 C 585.324219 532.644531 586.246094 515.984375 584.375 499.496094 C 582.3125 481.277344 575.710938 462.316406 567.160156 446.164062 C 565.105469 442.269531 564.902344 447.074219 560.527344 446.578125 L 517.328125 438.023438 " fill-opacity="1" fill-rule="nonzero"/><path fill="#f3a984" d="M 565.761719 119.792969 C 556.113281 115.402344 538.449219 106.75 528.933594 100.234375 C 527.542969 99.285156 521.136719 103.488281 519.488281 103.132812 C 507.164062 100.527344 494.035156 101.113281 482.605469 106.136719 L 482.226562 106.324219 L 482.226562 182.042969 L 554.75 182.042969 L 565.761719 119.792969 " fill-opacity="1" fill-rule="nonzero"/><path fill="#f3a984" d="M 538.441406 114.011719 C 538.441406 114.011719 493.308594 136.714844 495.480469 111.636719 C 498.5 76.695312 500.726562 72.796875 516.378906 68.285156 C 520.660156 67.042969 522.351562 63.425781 526.789062 63.601562 C 542.992188 64.25 536.199219 72.714844 535.222656 78.851562 C 532.316406 97.035156 538.730469 104.382812 538.441406 114.011719 " fill-opacity="1" fill-rule="nonzero"/><path fill="#dae8fd" d="M 497.675781 100.472656 C 497.472656 100.480469 497.269531 100.492188 497.066406 100.5 C 498.863281 99.949219 499.902344 100.421875 497.675781 100.472656 " fill-opacity="1" fill-rule="nonzero"/><path fill="#dae8fd" d="M 588.984375 145.855469 C 589.070312 147.246094 589.082031 148.691406 589.027344 150.199219 C 588.851562 154.394531 587.75 158.433594 586.828125 162.496094 C 585.742188 167.300781 583.4375 171.636719 580.851562 175.785156 C 578.113281 180.183594 575.878906 184.660156 573.160156 189.082031 C 561.582031 207.914062 554.652344 227.558594 559.234375 249.714844 C 561.785156 262.0625 566.523438 273.835938 570.246094 285.894531 C 572.070312 291.808594 574.570312 298.332031 575.019531 304.546875 C 575.347656 309.003906 568.117188 313.421875 564.621094 315.734375 C 555.378906 321.84375 544.535156 325.210938 533.699219 327.125 C 514.050781 330.609375 493.65625 329.792969 474.332031 324.769531 C 467.003906 322.863281 459.777344 320.195312 454.007812 315.121094 C 449.90625 311.503906 451.945312 303.347656 452.238281 298.261719 C 453.078125 283.785156 454.503906 269.136719 457.78125 254.988281 C 460.574219 242.96875 462.683594 229.945312 459.34375 217.675781 C 454.355469 199.367188 445.21875 185.234375 451.554688 165.800781 C 453.511719 159.800781 457.550781 154.144531 460.03125 148.144531 C 469.203125 126.164062 463.425781 101.695312 497.046875 100.480469 C 494.976562 101.121094 475.511719 133.921875 498.945312 143.542969 C 514.039062 149.746094 543.949219 133.203125 550.921875 112.664062 C 560.878906 117.328125 569.917969 120.277344 578.210938 126.40625 C 585.289062 131.636719 588.460938 137.824219 588.984375 145.855469 " fill-opacity="1" fill-rule="nonzero"/><path fill="#ffc7ad" d="M 520.960938 91.199219 C 522.261719 90.109375 523.546875 88.984375 524.804688 87.832031 C 529.128906 83.832031 534.046875 79.179688 537.066406 74.109375 C 546.757812 57.804688 547.308594 35.90625 533.664062 21.625 C 523.980469 11.492188 508.566406 7.261719 495.074219 11.03125 C 491.421875 12.058594 487.933594 13.609375 484.554688 15.332031 C 481.632812 16.820312 478.734375 18.476562 476.503906 20.890625 C 475.042969 22.46875 473.914062 24.320312 472.878906 26.207031 C 471.019531 29.601562 470.035156 32.945312 468.980469 36.644531 C 468.398438 38.671875 468.601562 40.816406 468.601562 42.917969 C 468.601562 46.625 468.855469 50.207031 469.582031 53.859375 C 470.175781 56.855469 470.585938 59.878906 470.65625 62.917969 C 470.726562 66.015625 469.21875 68.636719 468.238281 71.5 C 467.644531 73.257812 466.605469 75.996094 467.128906 77.761719 C 467.707031 79.691406 469.789062 81.246094 470.753906 83 C 471.796875 84.878906 472.109375 86.289062 472.195312 88.480469 C 472.25 89.886719 472.730469 90.792969 473.269531 92.035156 C 473.730469 93.089844 473.472656 93.851562 473.632812 94.90625 C 473.820312 96.148438 474.785156 97.230469 475.226562 98.382812 C 475.730469 99.683594 476.148438 100.953125 476.839844 102.195312 C 480.851562 109.453125 486.699219 109.933594 493.957031 107.121094 C 503.753906 103.320312 512.90625 97.894531 520.960938 91.199219 " fill-opacity="1" fill-rule="nonzero"/><path fill="#a26749" d="M 556.753906 43.167969 C 556.546875 39.796875 555.9375 36.449219 554.910156 33.21875 C 553.90625 30.109375 552.527344 27.128906 550.808594 24.355469 C 549.929688 22.929688 548.992188 21.449219 547.875 20.199219 C 546.855469 19.0625 544.703125 17.875 544.152344 16.492188 C 544.074219 16.304688 538.28125 1.933594 511.578125 1.945312 C 501.511719 1.945312 491.671875 5.613281 483.15625 10.886719 C 477.125 14.621094 473.417969 17.964844 470.53125 24.59375 C 467.679688 31.136719 466.242188 38.316406 466.457031 45.453125 C 466.484375 46.535156 466.589844 47.707031 467.332031 48.496094 C 468.449219 49.675781 470.363281 49.390625 471.929688 48.992188 C 477.847656 47.46875 482.785156 45.507812 488.003906 42.519531 C 490.421875 41.136719 496.828125 38.167969 499.660156 39.460938 C 502.007812 40.527344 500.253906 46.597656 501.140625 49.300781 C 502.265625 52.714844 504.4375 55.800781 507.394531 57.859375 C 509.910156 59.605469 512.898438 60.480469 515.421875 62.191406 C 517.671875 63.726562 519.320312 66.148438 519.871094 68.816406 C 520.117188 70.003906 520.152344 71.234375 520.507812 72.40625 C 520.695312 73.027344 520.988281 73.636719 521.402344 74.132812 C 521.820312 74.605469 522.554688 74.824219 522.863281 75.285156 C 523.175781 75.765625 523.164062 76.617188 523.457031 77.15625 C 523.785156 77.777344 524.253906 78.292969 524.867188 78.648438 C 528.359375 80.722656 537.96875 72.707031 537.472656 73.550781 C 535.160156 77.476562 535.488281 76.792969 534.640625 83.726562 C 545.703125 77.148438 554.199219 65.277344 556.28125 52.414062 C 556.777344 49.355469 556.9375 46.253906 556.753906 43.167969 " fill-opacity="1" fill-rule="nonzero"/><path fill="#ffc7ad" d="M 533.964844 60.367188 C 540.980469 59.921875 542.726562 68.65625 537.882812 75.367188 C 536.472656 77.324219 533.972656 79.0625 532.132812 80.613281 C 519.507812 91.28125 516.40625 79.675781 520.410156 76.039062 C 529.730469 67.601562 525.132812 60.933594 533.964844 60.367188 " fill-opacity="1" fill-rule="nonzero"/><path fill="#f3a984" d="M 529.410156 76.324219 C 530.226562 75.589844 538.234375 70.898438 532.804688 67.652344 C 531.308594 66.757812 529.617188 68.078125 529.375 69.667969 C 529.253906 70.5 529.507812 71.351562 529.386719 72.183594 C 529.304688 72.671875 529.101562 73.132812 528.835938 73.558594 C 528.117188 74.710938 525.699219 75.808594 526.160156 77.503906 C 526.578125 79 528.949219 76.75 529.410156 76.324219 " fill-opacity="1" fill-rule="nonzero"/><path fill="#f3a984" d="M 399.824219 267.132812 C 408.851562 263.84375 420.007812 272.84375 419.074219 282.871094 C 418.410156 289.960938 394.710938 325.167969 384.605469 339.492188 C 374.308594 354.058594 356.015625 385.984375 354.402344 388.351562 C 350.980469 393.359375 345.835938 393.644531 340.339844 391.933594 C 333.855469 389.902344 328.964844 384.253906 326.398438 377.960938 C 321.214844 365.328125 325.574219 354.289062 331.800781 343.199219 C 336.328125 335.132812 343.160156 327.683594 348.960938 320.496094 C 357.253906 310.21875 365.945312 300.273438 375.019531 290.679688 C 379.226562 286.222656 384.285156 282.054688 387.945312 277.160156 C 391.097656 272.933594 394.660156 269.003906 399.824219 267.132812 " fill-opacity="1" fill-rule="nonzero"/><g clip-path="url(#e4de9020db)"><path fill="#fe443e" d="M 463.675781 637.027344 C 463.675781 572.113281 407.480469 519.488281 338.152344 519.488281 C 268.828125 519.488281 212.632812 572.113281 212.632812 637.027344 C 212.632812 701.9375 268.828125 754.554688 338.152344 754.554688 C 407.480469 754.554688 463.675781 701.9375 463.675781 637.027344 " fill-opacity="1" fill-rule="nonzero"/></g><path fill="#ee342e" d="M 361.605469 521.542969 C 369.808594 528.867188 377.4375 537.085938 384.355469 546.164062 C 427.5 603.734375 399.929688 682.894531 340.003906 710.476562 C 302.121094 727.894531 253.757812 708.550781 221.03125 679.367188 C 239.183594 723.355469 284.773438 754.554688 338.152344 754.554688 C 407.480469 754.554688 463.675781 701.9375 463.675781 637.027344 C 463.675781 579.613281 419.714844 531.828125 361.605469 521.542969 " fill-opacity="1" fill-rule="nonzero"/><path fill="#222229" d="M 333.960938 563.425781 C 345.074219 571.226562 357.128906 575.917969 370.207031 579.363281 C 384.132812 583.042969 398.0625 586.722656 411.980469 590.402344 C 426.046875 594.109375 439.832031 597.378906 454.59375 596.234375 C 464.507812 595.464844 482.8125 591.757812 484.113281 579.746094 C 485.195312 569.648438 477.308594 560.898438 469.210938 554.773438 C 452.707031 542.28125 433.332031 534.558594 414.238281 527.003906 C 404.597656 523.195312 394.941406 519.40625 385.558594 515.011719 C 376.796875 510.90625 369.667969 505.996094 361.949219 500.179688 C 355.933594 495.640625 348.898438 491.605469 341.378906 492.050781 C 334.035156 492.492188 327.40625 497.34375 323.589844 503.636719 C 319.777344 509.929688 318.503906 517.503906 318.636719 524.859375 C 318.847656 537.140625 323.207031 555.855469 333.960938 563.425781 " fill-opacity="1" fill-rule="nonzero"/><path fill="#f3a984" d="M 442.554688 642.558594 C 447.257812 658.78125 455.035156 679.785156 457.214844 696.539062 C 458.101562 703.347656 458.269531 710.539062 461.699219 716.484375 C 465.128906 722.433594 473.359375 726.351562 479 722.445312 C 483.324219 719.445312 484.316406 704.421875 484.796875 699.179688 C 488.464844 658.800781 491.183594 621.75 485.273438 581.632812 C 484.910156 579.167969 483.546875 576.953125 482.855469 574.523438 C 481.773438 570.757812 481.003906 566.945312 478.0625 564.433594 C 471.152344 558.550781 459.972656 560.914062 453.363281 567.128906 C 444.394531 575.5625 442.429688 586.714844 440.339844 598.125 C 437.503906 613.59375 438.132812 627.34375 442.554688 642.558594 " fill-opacity="1" fill-rule="nonzero"/><path fill="#2e2e37" d="M 276.046875 590.808594 C 285.574219 600.492188 296.585938 607.28125 308.820312 613.035156 C 321.859375 619.160156 334.894531 625.296875 347.933594 631.421875 C 357.429688 635.890625 366.945312 640.359375 376.789062 644.019531 C 384.738281 646.964844 393.171875 649.410156 401.578125 648.382812 C 409.996094 647.34375 418.375 642.085938 420.792969 633.957031 C 423.683594 624.222656 417.5 614.1875 410.640625 606.707031 C 396.660156 591.449219 378.988281 580.359375 361.570312 569.480469 C 352.78125 563.992188 343.964844 558.53125 335.523438 552.503906 C 327.644531 546.882812 321.515625 540.765625 314.976562 533.65625 C 309.875 528.105469 303.679688 522.867188 296.203125 521.953125 C 288.902344 521.058594 281.503906 524.628906 276.625 530.136719 C 271.734375 535.640625 269.121094 542.847656 267.914062 550.117188 C 265.914062 562.238281 266.835938 581.429688 276.046875 590.808594 " fill-opacity="1" fill-rule="nonzero"/><path fill="#ffc7ad" d="M 454.585938 799.742188 C 455.285156 794.199219 444.128906 787.84375 441.128906 785.308594 C 438.425781 783.039062 428.199219 775.8125 426.117188 773.746094 C 422.769531 770.433594 418.96875 766.628906 416.144531 762.878906 C 412.847656 758.535156 413.433594 752.300781 413.929688 747.195312 C 416 725.722656 416.398438 699.074219 417.277344 677.503906 C 417.78125 665.15625 420.539062 653.285156 421.777344 640.996094 C 422.644531 632.398438 421.929688 623.160156 416.976562 616.066406 C 412.03125 608.976562 401.871094 605.046875 394.339844 609.285156 C 384.878906 614.597656 384.507812 626.75 380.855469 635.695312 C 375.140625 649.703125 372.421875 664.976562 374.132812 680.074219 C 375.832031 695.148438 382.460938 714.660156 385.101562 729.605469 C 386.019531 734.800781 387.058594 740.210938 387.183594 745.492188 C 387.269531 749.011719 386.613281 752.683594 386.179688 756.167969 C 385.914062 758.339844 385.800781 760.75 385.179688 762.859375 C 384.320312 765.777344 383.59375 768.578125 383.832031 771.699219 C 384.160156 775.992188 386.367188 779.75 389.546875 782.605469 C 391.628906 784.484375 394.046875 785.9375 396.5625 787.144531 C 398.886719 788.25 400.824219 789.519531 402.960938 790.964844 C 405.503906 792.675781 407.859375 794.652344 409.976562 796.859375 C 412.113281 799.09375 413.929688 801.480469 416.585938 803.144531 C 421.253906 806.078125 426.480469 808.191406 431.949219 809.058594 C 437.386719 809.917969 443.546875 806.441406 448.65625 804.714844 C 450.464844 804.101562 452.371094 803.421875 453.582031 801.949219 C 454.175781 801.238281 454.488281 800.496094 454.585938 799.742188 " fill-opacity="1" fill-rule="nonzero"/><path fill="#2e2e37" d="M 413.554688 752.300781 C 413.601562 750.554688 417.429688 699.917969 418.304688 678.347656 C 418.808594 665.996094 420.539062 653.285156 421.777344 640.996094 C 422.40625 634.816406 422.46875 628.214844 420.464844 622.40625 C 419.6875 620.136719 418.367188 618.0625 416.976562 616.066406 C 412.03125 608.976562 402.039062 603.308594 394.5 607.539062 C 385.039062 612.847656 382.351562 625.554688 378.703125 634.488281 C 372.988281 648.507812 372.421875 664.976562 374.132812 680.074219 C 375.832031 695.148438 382.460938 714.660156 385.101562 729.605469 C 386.019531 734.800781 386.054688 748.585938 385.746094 751.628906 C 394.019531 755.34375 405.628906 756.378906 413.554688 752.300781 " fill-opacity="1" fill-rule="nonzero"/><path fill="#d6af75" d="M 340.625 375.769531 C 339.6875 380.984375 335.921875 385.175781 333.980469 390.113281 C 329.550781 401.390625 328.285156 414 337.613281 423.226562 C 338.933594 424.53125 340.6875 425.761719 342.503906 425.371094 C 345.132812 424.796875 345.871094 421.488281 347.472656 419.316406 C 349.078125 417.15625 351.007812 417.554688 352.808594 416.25 C 354.515625 415.027344 355.191406 412.296875 355.820312 410.417969 C 357.792969 404.53125 356.324219 397.847656 355.359375 391.886719 C 353.640625 381.222656 353.355469 358.28125 354.90625 347.453125 C 362.738281 292.871094 340.617188 269.457031 340.617188 269.457031 C 340.617188 269.457031 344.398438 299.917969 343.691406 302.613281 C 339.5 318.484375 342.9375 362.890625 340.625 375.769531 " fill-opacity="1" fill-rule="nonzero"/><path fill="#f3a984" d="M 302.050781 354.175781 C 293.925781 356.167969 285.714844 358.589844 278.050781 362.066406 L 278.050781 428.679688 L 331.109375 428.679688 L 331.109375 354.175781 L 302.050781 354.175781 " fill-opacity="1" fill-rule="nonzero"/><path fill="#dae8fd" d="M 251.996094 393.707031 C 252.527344 399.289062 254.679688 404.875 256.679688 410.214844 C 262.679688 426.160156 267.640625 442.5 271.53125 459.097656 C 273.480469 467.402344 274.816406 475.808594 276.542969 484.160156 C 278.421875 493.175781 275.347656 503.050781 273.941406 512.039062 C 272.328125 522.359375 270.707031 532.679688 269.09375 543 C 268.792969 544.90625 268.5 546.875 268.925781 548.753906 C 269.890625 552.972656 273.335938 552.910156 276.710938 554.125 C 280.859375 555.613281 285.015625 556.972656 289.3125 557.980469 C 297.871094 559.984375 306.691406 560.863281 315.480469 560.632812 C 332.527344 560.199219 352.851562 556.269531 365.855469 544.542969 C 368.992188 541.714844 371.535156 538.292969 374.050781 534.894531 C 382 524.1875 374.53125 513.875 370.890625 503.21875 C 366.832031 491.347656 365.261719 478.636719 366.28125 466.128906 C 366.609375 462.109375 366.796875 456.828125 368.132812 452.996094 C 369.914062 447.882812 373.867188 443.484375 375.804688 438.308594 C 378.003906 432.4375 378.914062 425.894531 377.160156 419.875 C 374.789062 411.730469 367.425781 406.558594 364.625 398.820312 C 361.816406 391.054688 357.34375 384.511719 356.464844 376.019531 C 355.898438 370.609375 356.378906 364.964844 354.339844 359.929688 C 352.578125 355.558594 348.917969 352.003906 344.503906 350.363281 C 338.480469 348.121094 330.71875 349.839844 324.457031 350.566406 C 317.511719 351.363281 310.609375 352.535156 303.789062 354.050781 C 292.605469 356.53125 281.117188 359.386719 271.316406 365.433594 C 267.695312 367.675781 264.097656 369.9375 260.925781 372.800781 C 256.992188 376.355469 253.714844 380.832031 252.464844 385.992188 C 251.851562 388.546875 251.753906 391.125 251.996094 393.707031 " fill-opacity="1" fill-rule="nonzero"/><path fill="#f3a984" d="M 280.851562 363.722656 C 279.921875 366.835938 279.761719 369.957031 281.53125 373.003906 C 283.535156 376.460938 287.511719 376.691406 290.914062 378.003906 C 295.496094 379.75 300.144531 381.355469 304.964844 382.261719 C 311.398438 383.464844 318.226562 383.367188 324.261719 380.84375 C 327.195312 379.617188 330.152344 377.4375 330.5625 374.28125 C 330.84375 372.046875 329.578125 369.777344 328.894531 367.710938 C 327.414062 363.191406 326.902344 358.660156 325.804688 354.148438 C 324.589844 349.203125 323.046875 344.40625 322.117188 339.378906 C 321.125 334.085938 320.761719 330.257812 316.695312 326.222656 C 312.480469 322.039062 304.453125 322.136719 298.800781 321.648438 C 295.726562 321.382812 291.453125 319.964844 288.539062 321.273438 C 282.878906 323.8125 286.589844 330.148438 287.035156 334.589844 C 287.582031 340.148438 287.519531 345.789062 286.007812 351.195312 C 284.890625 355.167969 282.136719 359.433594 280.851562 363.722656 " fill-opacity="1" fill-rule="nonzero"/><path fill="#ffc7ad" d="M 296.070312 348.386719 C 295.75 347.96875 295.433594 347.515625 295.105469 347.019531 C 293.828125 345.050781 292.554688 342.914062 291.179688 341.105469 C 289.292969 338.605469 287.015625 336.425781 284.722656 334.308594 C 282.097656 331.859375 279.425781 329.40625 277.28125 326.515625 C 272.195312 319.660156 271.132812 308.820312 271.859375 300.503906 C 272.644531 291.496094 276.277344 282.878906 282.542969 276.300781 C 292.582031 265.761719 308.597656 261.34375 322.621094 265.246094 C 326.414062 266.300781 330.039062 267.914062 333.554688 269.695312 C 336.585938 271.238281 339.605469 272.957031 341.925781 275.449219 C 343.441406 277.089844 344.621094 279.015625 345.703125 280.972656 C 347.191406 283.6875 347.75 285.582031 347.933594 288.597656 C 348.136719 291.84375 348.023438 295.097656 348.164062 298.347656 C 348.714844 310.132812 349.832031 321.949219 348.304688 333.785156 C 347.605469 339.238281 346.710938 344.679688 345.265625 349.992188 C 344.398438 353.191406 343.902344 358.421875 341.988281 361.160156 C 339.976562 364.015625 336.566406 365.496094 332.738281 365.488281 C 326.804688 365.476562 318.421875 362.933594 313.265625 360.210938 C 308.617188 357.757812 304.035156 355.097656 299.835938 351.921875 C 298.285156 350.753906 297.152344 349.75 296.070312 348.386719 " fill-opacity="1" fill-rule="nonzero"/><path fill="#d6af75" d="M 267.515625 293.871094 C 267.613281 291.070312 267.667969 288.09375 268.242188 285.324219 C 268.800781 282.667969 278.03125 253.835938 319.488281 258.101562 C 329.675781 259.148438 338.367188 264.910156 343.566406 273.660156 C 352.035156 287.878906 348.625 307.039062 348.625 307.039062 C 348.644531 306.929688 345.71875 304.09375 345.480469 303.800781 C 343.984375 301.929688 342.582031 299.980469 341.199219 298.019531 C 340.519531 297.054688 339.835938 296.078125 339.171875 295.097656 C 338.683594 294.394531 338.101562 292.941406 337.390625 292.480469 C 336.265625 291.734375 334.609375 293.25 333.660156 293.835938 C 332.28125 294.707031 330.925781 295.617188 329.59375 296.585938 C 324.375 300.378906 319.671875 304.890625 315.648438 309.9375 C 313.648438 312.464844 311.804688 315.121094 310.15625 317.898438 C 308.5625 320.59375 307.03125 323.253906 304.285156 324.945312 C 301.351562 326.753906 297.53125 327.011719 294.394531 325.609375 C 293.121094 325.050781 291.96875 324.234375 290.703125 323.667969 C 289.433594 323.101562 287.957031 322.78125 286.652344 323.269531 C 285.476562 323.703125 284.589844 324.757812 284.171875 325.9375 C 283.5 327.863281 283.960938 328.828125 285.03125 330.308594 C 285.316406 330.699219 287.148438 333.765625 285.828125 333.777344 C 284.207031 333.792969 266.648438 318.730469 267.515625 293.871094 " fill-opacity="1" fill-rule="nonzero"/><path fill="#ffc7ad" d="M 231.636719 480.878906 C 231.582031 463.964844 233.746094 442.625 235.605469 415.71875 C 236.101562 408.476562 237.6875 401.1875 240.371094 394.414062 C 243.082031 387.570312 246.511719 382.457031 252.128906 377.648438 C 254.671875 375.476562 258.824219 373.589844 262.121094 374.273438 C 265.117188 374.882812 267.109375 377.632812 268.578125 380.273438 C 277.4375 396.195312 277.652344 416.367188 274.011719 433.832031 C 270.617188 450.082031 269.4375 466.765625 265.902344 483.050781 C 265.230469 486.144531 264.707031 489.503906 263.421875 492.429688 C 257.328125 506.339844 243.4375 505.339844 236.058594 497.101562 C 232.441406 493.070312 231.664062 490.074219 231.636719 480.878906 " fill-opacity="1" fill-rule="nonzero"/><path fill="#d6af75" d="M 265.082031 338.402344 C 264.832031 345.585938 262.394531 351.375 260.3125 358.511719 C 259.375 361.746094 253.582031 374.636719 257.175781 374.769531 C 258.417969 374.8125 262.050781 373.546875 264.328125 375.609375 C 267.585938 378.574219 270.140625 383.414062 271.652344 387.457031 C 275.152344 396.773438 276.296875 405.347656 277.667969 414.972656 C 279.035156 424.539062 287.132812 428.679688 296.035156 429.539062 C 299.808594 429.902344 309.441406 430.675781 310.421875 425.734375 C 311.035156 422.660156 308.066406 417.988281 306.878906 415.230469 C 302.519531 405.117188 296.382812 392.980469 296.683594 381.703125 C 296.851562 375.300781 298.878906 369.210938 298.613281 362.792969 C 298.445312 358.925781 297.53125 354.574219 295.679688 351.179688 C 294.796875 349.566406 293.945312 347.953125 293.003906 346.390625 C 292.375 345.355469 291.710938 344.335938 291.066406 343.304688 C 288.886719 339.796875 286.203125 335.902344 285.800781 331.710938 C 285.386719 327.304688 287.078125 323.179688 288.601562 319.175781 C 289.566406 316.59375 290.5 314.03125 291.730469 311.566406 C 292.765625 309.476562 292.121094 306.089844 291.949219 303.773438 C 291.5625 298.394531 290.578125 292.976562 288.453125 287.984375 C 285.882812 281.949219 277.582031 269.457031 277.582031 269.457031 C 277.667969 269.597656 275.578125 272.3125 275.445312 272.515625 C 273.664062 275.226562 271.496094 277.542969 270.023438 280.433594 C 266.0625 288.277344 263.59375 297.179688 263.167969 305.972656 C 262.6875 315.789062 264.601562 325.761719 265.0625 335.546875 C 265.105469 336.53125 265.117188 337.480469 265.082031 338.402344 " fill-opacity="1" fill-rule="nonzero"/><path fill="#ffc7ad" d="M 283.199219 315.65625 C 276.4375 315.203125 274.726562 323.605469 279.378906 330.078125 C 280.742188 331.976562 283.136719 333.652344 284.90625 335.160156 C 297.027344 345.460938 300.058594 334.289062 296.203125 330.789062 C 287.265625 322.632812 291.703125 316.214844 283.199219 315.65625 " fill-opacity="1" fill-rule="nonzero"/><path fill="#f3a984" d="M 285.03125 329.839844 C 284.386719 328.910156 277.4375 322.332031 283.648438 320.34375 C 285.367188 319.792969 286.75 321.503906 286.617188 323.171875 C 286.546875 324.03125 286.09375 324.820312 286.03125 325.679688 C 285.988281 326.195312 288.875 330.195312 288.015625 331.78125 C 287.246094 333.191406 285.394531 330.371094 285.03125 329.839844 " fill-opacity="1" fill-rule="nonzero"/><path fill="#ffc7ad" d="M 241.949219 575.675781 C 241.636719 580.515625 243.046875 576.128906 246.101562 580.347656 C 249.152344 584.558594 263.273438 576.378906 263.308594 573.1875 C 263.398438 564.691406 266.800781 505.097656 267.039062 481.96875 C 267.066406 479.070312 266.683594 475.578125 263.078125 473.75 C 260.234375 472.316406 255.46875 456.703125 252.464844 457.359375 C 242.117188 459.609375 232.390625 463.589844 231.777344 472.246094 C 230.253906 493.839844 237.09375 527.804688 240.335938 542.582031 C 242.117188 550.738281 242.460938 567.609375 241.949219 575.675781 " fill-opacity="1" fill-rule="nonzero"/><path fill="#ffc7ad" d="M 229.519531 613.683594 C 229.21875 614.507812 228.925781 615.386719 229.101562 616.246094 C 229.277344 617.113281 230.101562 617.921875 231.042969 617.824219 C 232.007812 617.707031 232.566406 616.769531 232.957031 615.933594 C 233.574219 614.640625 234.1875 613.335938 234.808594 612.042969 C 235.355469 610.871094 235.800781 609.578125 236.472656 608.496094 C 236.445312 608.539062 236.285156 609.5 236.226562 609.703125 C 236.046875 610.296875 235.886719 610.898438 235.71875 611.492188 C 235.382812 612.691406 235.039062 613.886719 234.703125 615.082031 C 234.027344 617.46875 233.34375 619.863281 232.671875 622.246094 C 232.398438 623.214844 232.125 624.222656 232.390625 625.179688 C 232.65625 626.148438 233.65625 627.007812 234.710938 626.8125 C 235.828125 626.609375 236.347656 625.4375 236.675781 624.4375 C 238.066406 620.289062 239.449219 616.148438 240.832031 612 C 239.671875 617.425781 238.511719 622.839844 237.351562 628.257812 C 237.039062 629.730469 237.085938 631.75 238.644531 632.121094 C 239.804688 632.398438 240.867188 631.441406 241.523438 630.507812 C 245.644531 624.632812 244.445312 616.636719 248.210938 610.554688 C 247.519531 614.90625 246.828125 619.257812 246.140625 623.613281 C 245.945312 624.800781 245.757812 626.03125 246.066406 627.203125 C 246.378906 628.371094 247.308594 629.480469 248.585938 629.695312 C 249.789062 629.890625 251.011719 629.234375 251.753906 628.335938 C 252.5 627.441406 252.863281 626.332031 253.21875 625.242188 C 254.777344 620.472656 256.328125 615.695312 257.886719 610.917969 C 258.667969 608.496094 259.453125 606.078125 260.242188 603.65625 C 260.632812 602.460938 261.109375 601.253906 261.429688 600.03125 C 261.484375 599.816406 261.527344 599.117188 261.703125 598.964844 C 262.441406 598.34375 262.828125 599.691406 263.085938 600.152344 C 263.664062 601.15625 264.34375 602.105469 265.019531 603.042969 C 266.472656 605.074219 271.21875 612.65625 274.195312 609.320312 C 274.871094 608.578125 274.746094 607.46875 274.523438 606.519531 C 273.761719 603.308594 272.300781 600.277344 270.855469 597.273438 C 268.277344 591.917969 264.574219 586.332031 263.761719 580.5625 C 262.855469 574.195312 263.59375 567.226562 263.511719 560.800781 C 263.484375 558.265625 263.371094 555.5 261.617188 553.546875 C 259.765625 551.472656 256.425781 550.914062 253.632812 551.6875 C 250.851562 552.457031 248.574219 554.347656 246.792969 556.472656 C 240.007812 564.585938 243.710938 572.929688 240.753906 581.777344 C 238.464844 588.601562 235.960938 595.375 233.566406 602.175781 C 232.21875 606.003906 230.863281 609.84375 229.519531 613.683594 " fill-opacity="1" fill-rule="nonzero"/><path fill="#f3a984" d="M 457.136719 713.621094 C 455.957031 719.429688 454.203125 725.253906 454.707031 731.148438 C 455.214844 737.035156 458.675781 743.171875 464.507812 744.667969 C 470.222656 746.132812 476.078125 742.824219 481.996094 742.691406 C 488.914062 742.542969 495.011719 746.679688 501.089844 749.882812 C 508.300781 753.667969 519.152344 759.527344 526.941406 754.492188 C 532.0625 751.195312 534.84375 743.816406 530.617188 738.527344 C 528.988281 736.488281 526.648438 735.164062 524.316406 734.011719 C 517.125 730.484375 509.425781 728.136719 502.082031 724.945312 C 497.429688 722.929688 493.210938 720.511719 489.019531 717.683594 C 485.292969 715.164062 484.449219 709.472656 484.40625 705.246094 C 484.359375 700.953125 482.191406 697.160156 482.695312 692.902344 C 482.933594 690.839844 483.121094 686.023438 482.183594 684.1875 C 480.921875 681.714844 480.898438 682.671875 478.125 682.699219 C 476.167969 682.71875 474.261719 683.257812 472.425781 683.914062 C 471.628906 684.199219 470.921875 684.542969 470.078125 684.589844 C 469.183594 684.640625 468.378906 684.613281 467.484375 684.855469 C 463.011719 685.996094 457.84375 700.671875 457.996094 703.304688 C 458.191406 706.582031 457.78125 710.40625 457.136719 713.621094 " fill-opacity="1" fill-rule="nonzero"/><path fill="#222229" d="M 442.554688 642.558594 C 445.371094 652.265625 449.773438 667.027344 452.707031 676.707031 C 454.1875 681.566406 455.488281 686.484375 456.417969 691.476562 C 456.808594 693.613281 457.757812 702.007812 458.023438 703.746094 C 458.09375 704.234375 461.113281 704.90625 462.105469 705.148438 C 466.75 706.265625 471.605469 706.496094 476.335938 705.847656 C 478.574219 705.539062 481.25 705.191406 483.308594 704.214844 C 485.085938 703.375 484.628906 701.023438 484.796875 699.179688 C 488.464844 658.800781 491.183594 621.75 485.273438 581.632812 C 484.902344 579.082031 484.496094 576.148438 483.636719 573.355469 C 482.375 569.265625 480.320312 565.367188 477.351562 562.539062 C 470.796875 556.28125 458.933594 559.613281 452.335938 565.828125 C 443.359375 574.257812 441.570312 586.316406 439.480469 597.726562 C 436.644531 613.195312 438.132812 627.34375 442.554688 642.558594 " fill-opacity="1" fill-rule="nonzero"/><path fill="#f3a984" d="M 386.480469 283.808594 C 389.796875 293.703125 409.019531 298.535156 415.585938 290.503906 C 419.617188 285.582031 420.183594 278.464844 418.464844 272.292969 C 416.746094 266.125 394.640625 232.132812 383.042969 214.863281 C 374.425781 202.027344 351.113281 199.871094 358.40625 213.054688 C 367.355469 229.226562 380.820312 266.859375 386.480469 283.808594 " fill-opacity="1" fill-rule="nonzero"/><path fill="#f3a984" d="M 390.398438 229.128906 C 389.636719 224.386719 386.863281 220.234375 384.089844 216.316406 C 380.863281 211.742188 377.136719 207.382812 374.210938 202.621094 C 371.660156 198.460938 371.011719 193.597656 369.59375 189.011719 C 367.929688 183.613281 366.238281 178.222656 364.597656 172.816406 C 364.050781 171.050781 363.367188 169.226562 362.234375 167.746094 C 360.949219 166.078125 360.140625 166.707031 358.558594 165.910156 C 356.351562 164.792969 356.207031 161.40625 355.066406 159.480469 C 353.898438 157.496094 352.273438 154.835938 350.328125 153.496094 C 349.140625 152.683594 347.890625 153.25 346.710938 152.195312 C 344.851562 150.535156 344.832031 146.972656 342.050781 146.34375 C 339.746094 145.8125 337.558594 148.019531 337.1875 150.359375 C 337.109375 150.855469 337.097656 151.351562 337.125 151.847656 L 336.824219 151.378906 C 335.628906 149.703125 333.289062 148.664062 331.472656 149.625 C 328.816406 151.015625 329.347656 154.933594 330.3125 157.78125 C 332.484375 164.164062 334.847656 170.464844 337.417969 176.699219 C 338.019531 178.179688 341.394531 183.339844 338.703125 184.039062 C 337.082031 184.464844 334.859375 182.230469 333.527344 181.539062 C 331.605469 180.546875 329.683594 179.542969 327.761719 178.550781 C 325.972656 177.621094 324.09375 176.664062 322.074219 176.644531 C 320.054688 176.628906 317.863281 177.859375 317.519531 179.855469 C 317.21875 181.574219 318.371094 183.265625 319.8125 184.261719 C 321.257812 185.246094 322.984375 185.730469 324.582031 186.441406 C 333.21875 190.308594 337.328125 200.421875 345.230469 205.636719 C 349.449219 208.425781 354.613281 209.714844 358.40625 213.054688 C 361.976562 216.210938 363.890625 220.804688 365.566406 225.261719 C 367.238281 229.722656 368.878906 234.359375 372.113281 237.859375 C 375.34375 241.363281 380.671875 243.429688 384.992188 241.40625 C 389.335938 239.375 391.160156 233.871094 390.398438 229.128906 " fill-opacity="1" fill-rule="nonzero"/><path fill="#e6f1fe" d="M 595.175781 144.757812 C 594.386719 139.808594 589.320312 131.175781 581.425781 128.84375 C 576.191406 127.300781 565.503906 133.84375 557.804688 144.613281 C 541.628906 167.273438 530.015625 197.648438 524.371094 219.394531 C 523.953125 220.964844 523.378906 222.648438 523.296875 224.277344 C 522.828125 233.96875 528.5 242.558594 538.402344 244.039062 C 551.0625 245.929688 555.589844 237.230469 561.730469 227.699219 C 570.007812 214.847656 597.292969 157.921875 595.175781 144.757812 " fill-opacity="1" fill-rule="nonzero"/><path fill="#ffc7ad" d="M 399.441406 280.042969 C 398.503906 278.890625 399.203125 278.277344 400.347656 277.753906 C 401.257812 277.328125 402.214844 277.019531 403.121094 276.574219 C 403.226562 276.523438 405.449219 275.335938 405.058594 275.050781 C 404.582031 274.695312 403.847656 274.730469 403.269531 274.707031 C 402.464844 274.660156 401.648438 274.757812 400.84375 274.742188 C 400.132812 274.730469 399.453125 274.875 398.742188 274.945312 C 397.980469 275.023438 397.414062 275.09375 396.6875 275.28125 C 396.128906 275.414062 395.429688 275.371094 394.863281 275.316406 C 393.71875 275.21875 392.460938 274.792969 392.285156 273.492188 C 392.046875 271.671875 394.339844 271.460938 395.535156 270.964844 C 396.226562 270.679688 398.824219 270.636719 398.992188 269.722656 C 399.140625 268.871094 396.042969 268.25 395.464844 268.136719 C 393.222656 267.675781 390.664062 267.691406 388.644531 266.476562 C 387.375 265.707031 385.765625 264.050781 387.953125 263.261719 C 389.378906 262.738281 390.832031 263.136719 392.292969 263.214844 C 394.171875 263.320312 396.042969 263.367188 397.9375 263.410156 C 398.390625 263.429688 401.101562 263.738281 401.214844 263.339844 C 401.304688 263.046875 400.507812 262.53125 400.355469 262.417969 C 399.089844 261.460938 397.804688 260.554688 396.40625 259.8125 C 395.296875 259.226562 394.101562 258.808594 392.992188 258.214844 C 391.796875 257.585938 388.6875 256.007812 389.679688 254.191406 C 390.636719 252.453125 394.277344 253.625 395.625 254.109375 C 398.460938 255.140625 401.199219 255.917969 404.199219 256.335938 C 408.0625 256.878906 412.015625 256.78125 415.539062 255.070312 C 416.949219 254.375 418.535156 252.957031 418.785156 251.363281 C 415.984375 250.21875 413.148438 250.414062 409.925781 250.378906 C 407.300781 250.351562 404.6875 250.058594 402.855469 247.984375 C 401.976562 246.992188 400.433594 245.527344 401.039062 244.058594 C 401.597656 242.675781 403.191406 242.300781 404.546875 242.53125 C 405.875 242.761719 407.097656 243.464844 408.460938 243.5625 C 409.753906 243.648438 410.988281 243.550781 412.273438 243.332031 C 414.558594 242.941406 416.886719 242.238281 419.191406 242.082031 C 421.519531 241.914062 423.84375 242.390625 426.011719 243.234375 C 426.800781 243.535156 427.535156 243.90625 428.308594 244.234375 C 430.125 245.023438 432.039062 245.601562 433.96875 246.105469 C 439.390625 247.550781 445.824219 246.015625 451.484375 246.496094 C 456.59375 246.9375 455.816406 252.035156 455.0625 256.160156 C 454.40625 259.714844 452.964844 261.789062 450.023438 263.710938 C 447.410156 265.441406 444.414062 266.007812 441.625 267.230469 C 439.683594 268.082031 437.761719 269.234375 435.925781 270.289062 C 435.261719 270.671875 434.597656 271.042969 433.949219 271.433594 C 431.753906 272.773438 429.496094 273.996094 427.21875 275.191406 C 424.292969 276.734375 421.21875 277.996094 418.058594 278.96875 C 415.027344 279.902344 411.96875 280.191406 408.886719 280.875 C 408.074219 281.0625 407.257812 281.273438 406.433594 281.460938 C 404.148438 282 401.082031 282.0625 399.441406 280.042969 " fill-opacity="1" fill-rule="nonzero"/><path fill="#e6f1fe" d="M 443.679688 268.152344 C 462.9375 264.066406 570.253906 255.734375 556.621094 224.785156 C 554.546875 220.066406 537.429688 214.386719 531.652344 214.011719 C 526.566406 213.683594 444.007812 240.832031 437.777344 245.226562 C 433.996094 247.886719 439.796875 268.976562 443.679688 268.152344 " fill-opacity="1" fill-rule="nonzero"/><path fill="#275ebe" d="M 530.253906 182.042969 L 511.328125 171.105469 L 516.289062 160.609375 L 535.214844 171.546875 L 530.253906 182.042969 " fill-opacity="1" fill-rule="nonzero"/></svg>