<svg xmlns="http://www.w3.org/2000/svg" xmlns:xlink="http://www.w3.org/1999/xlink" width="360" zoomAndPan="magnify" viewBox="0 0 270 149.999998" height="200" preserveAspectRatio="xMidYMid meet" version="1.0"><defs><clipPath id="a7bcb1a587"><path d="M 101.414062 141.390625 L 116 141.390625 L 116 149.9375 L 101.414062 149.9375 Z M 101.414062 141.390625 " clip-rule="nonzero"/></clipPath><clipPath id="6428d16894"><path d="M 151 98 L 193.125 98 L 193.125 109 L 151 109 Z M 151 98 " clip-rule="nonzero"/></clipPath></defs><path fill="#f7936a" d="M 168.824219 53.941406 L 165.269531 44.410156 L 145.675781 50.972656 C 145.675781 50.972656 140.71875 56.367188 144.199219 58.382812 C 147.679688 60.394531 168.824219 53.941406 168.824219 53.941406 " fill-opacity="1" fill-rule="nonzero"/><path fill="#f7936a" d="M 147.679688 57.789062 C 146.523438 58.996094 143.867188 59.546875 140.761719 58.484375 C 137.660156 57.425781 124.417969 53.988281 124.417969 53.988281 L 124.824219 50.460938 C 124.824219 50.460938 142.300781 49.722656 146.074219 51.089844 C 148.515625 51.96875 149.898438 55.472656 147.679688 57.789062 " fill-opacity="1" fill-rule="nonzero"/><path fill="#f7936a" d="M 126.65625 51.304688 C 126.195312 50.71875 123.933594 48.597656 123.179688 48.003906 C 122.425781 47.410156 118.589844 47.296875 118.109375 47.730469 C 117.632812 48.160156 117.792969 48.445312 118.371094 49.105469 C 118.949219 49.769531 120.027344 52.503906 120.75 53.277344 C 121.523438 54.105469 124.851562 54.074219 124.851562 54.074219 L 127.8125 53.511719 C 127.8125 53.511719 127.121094 51.890625 126.65625 51.304688 " fill-opacity="1" fill-rule="nonzero"/><path fill="#f7d8c8" d="M 169.015625 41.78125 C 169.015625 41.78125 151.988281 46.007812 151.496094 47.414062 C 151.003906 48.824219 151.234375 50.980469 151.496094 52.480469 C 151.753906 53.980469 153.445312 57.335938 153.445312 57.335938 C 153.445312 57.335938 166.015625 56.984375 166.015625 56.703125 C 166.015625 56.421875 170.71875 47.507812 170.710938 46.570312 C 170.703125 45.632812 169.015625 41.78125 169.015625 41.78125 " fill-opacity="1" fill-rule="nonzero"/><g clip-path="url(#a7bcb1a587)"><path fill="#4d3932" d="M 114.417969 141.414062 C 114.417969 141.414062 116.566406 149.320312 115.824219 149.636719 C 115.085938 149.953125 102.0625 150.109375 101.566406 149.636719 C 101.074219 149.160156 102.117188 146.480469 104.007812 145.765625 C 106.382812 144.871094 108.96875 144.9375 109.601562 144.578125 C 110.234375 144.222656 109.324219 141.414062 109.324219 141.414062 L 114.417969 141.414062 " fill-opacity="1" fill-rule="nonzero"/></g><path fill="#ebc599" d="M 102.925781 65.210938 C 102.925781 65.210938 99.097656 97.28125 99.476562 102.308594 C 99.855469 107.339844 102.664062 142.039062 103.902344 142.351562 C 105.136719 142.660156 109.375 143.117188 111.769531 142.734375 C 114.167969 142.351562 117.472656 141.386719 118.144531 140.417969 C 118.820312 139.449219 117.34375 103.1875 117.523438 102.066406 C 117.703125 100.949219 122.890625 79.414062 123.453125 73.054688 C 124.015625 66.695312 122.4375 63.085938 122.4375 63.085938 L 102.925781 65.210938 " fill-opacity="1" fill-rule="nonzero"/><path fill="#f7936a" d="M 79.339844 14.683594 C 79.339844 14.683594 78.472656 17.34375 78.644531 18.105469 C 78.816406 18.871094 80.742188 18.648438 80.742188 18.648438 L 79.339844 14.683594 " fill-opacity="1" fill-rule="nonzero"/><path fill="#ffaf8f" d="M 79.375 4.769531 C 78.382812 6.148438 76.875 8.859375 78.367188 12.898438 C 79.855469 16.941406 81.839844 23.519531 83.78125 23.792969 C 86.347656 24.152344 88.746094 21.878906 89.449219 22.5625 C 90.152344 23.246094 94.417969 27.914062 94.417969 27.914062 L 101.15625 22.625 L 94.898438 13.671875 L 89.324219 1.707031 C 89.324219 1.707031 82.636719 0.253906 79.375 4.769531 " fill-opacity="1" fill-rule="nonzero"/><path fill="#f7936a" d="M 82.066406 19.691406 C 82.375 19.679688 82.617188 19.691406 82.914062 19.574219 C 83.222656 19.445312 83.621094 19.265625 83.851562 19.019531 C 84.023438 18.828125 84.347656 19.066406 84.175781 19.257812 C 83.925781 19.527344 83.546875 19.726562 83.21875 19.878906 C 82.828125 20.0625 82.535156 20.074219 82.121094 20.085938 C 81.863281 20.09375 81.804688 19.695312 82.066406 19.691406 " fill-opacity="1" fill-rule="nonzero"/><path fill="#e8d4ca" d="M 79.183594 13.03125 C 79.582031 13.226562 80.128906 12.929688 80.503906 12.792969 C 80.824219 12.679688 81.152344 12.589844 81.476562 12.488281 C 81.71875 12.410156 81.703125 12.234375 81.511719 12.09375 C 81.414062 12.019531 81.289062 11.996094 81.167969 11.996094 C 80.921875 11.996094 80.671875 12.007812 80.429688 12.039062 C 79.949219 12.101562 79.476562 12.253906 79.078125 12.53125 C 79.058594 12.542969 79.042969 12.554688 79.03125 12.570312 C 78.871094 12.722656 78.984375 12.9375 79.183594 13.03125 " fill-opacity="1" fill-rule="nonzero"/><path fill="#4d3932" d="M 81.261719 14.65625 C 81.234375 14.421875 81.109375 14.160156 80.996094 14.082031 C 80.894531 14.015625 80.769531 13.945312 80.644531 13.996094 C 80.21875 14.167969 80.621094 15.074219 80.996094 15.085938 C 81.234375 15.09375 81.292969 14.886719 81.261719 14.65625 " fill-opacity="1" fill-rule="nonzero"/><path fill="#3d2711" d="M 80.160156 13.039062 C 80.144531 13.039062 80.132812 13.042969 80.121094 13.046875 C 79.945312 13.113281 79.84375 13.824219 80.214844 14.785156 C 80.582031 15.742188 81.132812 16.203125 81.308594 16.132812 C 81.484375 16.066406 81.582031 15.355469 81.214844 14.398438 C 80.871094 13.503906 80.367188 13.039062 80.160156 13.039062 Z M 81.269531 16.703125 C 80.664062 16.703125 80.035156 15.890625 79.6875 14.984375 C 79.292969 13.957031 79.246094 12.78125 79.921875 12.519531 C 80.59375 12.261719 81.347656 13.167969 81.742188 14.195312 C 82.136719 15.222656 82.183594 16.398438 81.507812 16.660156 C 81.429688 16.691406 81.351562 16.703125 81.269531 16.703125 " fill-opacity="1" fill-rule="nonzero"/><path fill="#3d2711" d="M 81.480469 14.578125 C 81.386719 14.578125 81.292969 14.53125 81.242188 14.449219 C 81.15625 14.316406 81.195312 14.140625 81.328125 14.058594 L 87.015625 10.457031 C 87.148438 10.371094 87.320312 10.414062 87.40625 10.542969 C 87.488281 10.675781 87.449219 10.851562 87.316406 10.933594 L 81.628906 14.535156 C 81.582031 14.5625 81.53125 14.578125 81.480469 14.578125 " fill-opacity="1" fill-rule="nonzero"/><path fill="#e8d4ca" d="M 83.132812 2.058594 C 82.992188 2.136719 83.175781 4.074219 83.175781 4.316406 C 83.164062 5.355469 83.304688 6.515625 83.636719 7.5 C 84.105469 8.882812 86.296875 11.078125 87.820312 9.679688 C 88.535156 9.019531 89.855469 9.683594 90.1875 10.492188 C 90.515625 11.300781 91.074219 13.160156 91.554688 13.46875 C 93.421875 14.675781 94.898438 13.671875 94.898438 13.671875 C 94.898438 13.671875 94.210938 12.019531 94.410156 10.746094 C 94.746094 8.628906 94.34375 7.25 94.105469 5.933594 C 93.867188 4.617188 92.402344 2.328125 90.351562 1.527344 C 86.632812 0.0703125 83.132812 2.058594 83.132812 2.058594 " fill-opacity="1" fill-rule="nonzero"/><path fill="#5c3d32" d="M 99.449219 18.421875 C 96.695312 18.289062 91.746094 20.679688 89.648438 25.066406 C 87.546875 29.453125 89.269531 35.179688 92 41.78125 C 94.726562 48.386719 98.039062 53.488281 98.828125 55.683594 C 99.621094 57.875 99.703125 66.828125 101.191406 68.246094 C 102.679688 69.664062 109.050781 71.121094 113.011719 70.867188 C 116.976562 70.613281 124.636719 67.441406 124.691406 66.363281 C 124.742188 65.289062 121.359375 41.171875 115.519531 32.101562 C 108.152344 20.660156 104.734375 18.679688 99.449219 18.421875 " fill-opacity="1" fill-rule="nonzero"/><path fill="#ffaf8f" d="M 144.707031 147.632812 C 144.683594 148.472656 144.59375 149.089844 144.382812 149.179688 C 143.644531 149.496094 132.925781 149.890625 132.429688 149.417969 C 131.933594 148.941406 132.761719 146.855469 134.648438 146.144531 C 134.945312 146.03125 135.21875 145.929688 135.476562 145.835938 C 137.292969 145.167969 138.21875 144.890625 138.777344 144.578125 C 139.410156 144.222656 139.550781 141.898438 139.550781 141.898438 L 144.382812 141.898438 C 144.382812 141.898438 144.765625 145.492188 144.707031 147.632812 " fill-opacity="1" fill-rule="nonzero"/><path fill="#f5e8e1" d="M 160.441406 113.113281 L 184.019531 113.113281 C 187.214844 113.113281 189.804688 110.523438 189.804688 107.328125 L 154.65625 107.328125 C 154.65625 110.523438 157.246094 113.113281 160.441406 113.113281 " fill-opacity="1" fill-rule="nonzero"/><g clip-path="url(#6428d16894)"><path fill="#874c43" d="M 155.773438 108.953125 L 188.855469 108.953125 C 191.214844 108.953125 193.125 107.042969 193.125 104.683594 L 193.125 103.027344 C 193.125 100.671875 191.214844 98.761719 188.855469 98.761719 L 155.773438 98.761719 C 153.414062 98.761719 151.503906 100.671875 151.503906 103.027344 L 151.503906 104.683594 C 151.503906 107.042969 153.414062 108.953125 155.773438 108.953125 " fill-opacity="1" fill-rule="nonzero"/></g><path fill="#f5e8e1" d="M 184.519531 148.695312 L 189.210938 148.695312 L 189.210938 108.953125 L 184.519531 108.953125 L 184.519531 148.695312 " fill-opacity="1" fill-rule="nonzero"/><path fill="#3d3227" d="M 185.652344 149.636719 L 188.082031 149.636719 C 188.96875 149.636719 189.566406 148.726562 189.21875 147.910156 L 189.210938 147.902344 L 184.519531 147.902344 L 184.515625 147.910156 C 184.164062 148.726562 184.765625 149.636719 185.652344 149.636719 " fill-opacity="1" fill-rule="nonzero"/><path fill="#f5e8e1" d="M 160.316406 148.695312 L 155.625 148.695312 L 155.625 108.953125 L 160.316406 108.953125 L 160.316406 148.695312 " fill-opacity="1" fill-rule="nonzero"/><path fill="#3d3227" d="M 159.1875 149.636719 L 156.757812 149.636719 C 155.867188 149.636719 155.269531 148.726562 155.621094 147.910156 L 155.625 147.902344 L 160.316406 147.902344 L 160.320312 147.910156 C 160.671875 148.726562 160.074219 149.636719 159.1875 149.636719 " fill-opacity="1" fill-rule="nonzero"/><path fill="#e8d4ca" d="M 184.925781 112.925781 L 188.804688 112.925781 C 189.046875 112.925781 189.046875 113.300781 188.804688 113.300781 L 184.925781 113.300781 C 184.6875 113.300781 184.6875 112.925781 184.925781 112.925781 " fill-opacity="1" fill-rule="nonzero"/><path fill="#e8d4ca" d="M 156.03125 112.925781 L 159.910156 112.925781 C 160.152344 112.925781 160.152344 113.300781 159.910156 113.300781 L 156.03125 113.300781 C 155.789062 113.300781 155.789062 112.925781 156.03125 112.925781 " fill-opacity="1" fill-rule="nonzero"/><path fill="#ffaf8f" d="M 144.382812 137.191406 L 144.382812 141.898438 L 139.554688 141.898438 L 138.707031 136.910156 L 144.382812 137.191406 " fill-opacity="1" fill-rule="nonzero"/><path fill="#a7b3c9" d="M 185.550781 86.8125 C 185.550781 86.8125 186.542969 95.640625 183.800781 97.324219 C 178.296875 100.699219 148.527344 101.824219 147.277344 102.574219 C 146.027344 103.324219 147.902344 109.390625 147.902344 113.113281 C 147.902344 116.835938 146.917969 125.089844 146.847656 128.71875 C 146.777344 132.34375 148.527344 140.820312 147.652344 141.570312 C 146.777344 142.320312 136.269531 142.320312 135.019531 142.070312 C 133.769531 141.820312 133.710938 131.84375 133.675781 129.34375 C 133.644531 126.839844 132.839844 102.699219 133.304688 99.449219 C 133.769531 96.195312 134.011719 92.003906 139.328125 89.597656 C 144.648438 87.191406 167.125 84.9375 167.125 84.9375 L 185.550781 86.8125 " fill-opacity="1" fill-rule="nonzero"/><path fill="#f7936a" d="M 161.078125 30.207031 C 161.078125 30.207031 159.632812 32.402344 159.597656 33.136719 C 159.5625 33.867188 161.367188 34.144531 161.367188 34.144531 L 161.078125 30.207031 " fill-opacity="1" fill-rule="nonzero"/><path fill="#ffaf8f" d="M 160.835938 28.351562 C 160.867188 30.480469 160.769531 33.210938 160.9375 35.382812 C 160.960938 35.679688 160.988281 35.964844 161.023438 36.242188 C 161.207031 37.753906 161.582031 38.855469 162.300781 39.015625 C 165.015625 39.628906 167.070312 38.753906 167.476562 39.578125 C 167.886719 40.402344 168.078125 45.671875 168.078125 45.671875 L 175.910156 45.160156 L 174.058594 21.871094 L 163.503906 21.363281 C 163.503906 21.363281 160.785156 24.300781 160.835938 28.351562 " fill-opacity="1" fill-rule="nonzero"/><path fill="#4d3932" d="M 161.78125 30.679688 C 161.75 30.453125 161.796875 30.179688 161.882812 30.078125 C 161.957031 29.988281 162.054688 29.890625 162.183594 29.902344 C 162.621094 29.957031 162.484375 30.898438 162.140625 31.007812 C 161.921875 31.078125 161.8125 30.898438 161.78125 30.679688 " fill-opacity="1" fill-rule="nonzero"/><path fill="#4d3932" d="M 161.40625 28.144531 C 161.710938 27.957031 162.285156 28.167969 162.597656 28.257812 C 163.074219 28.398438 163.496094 28.585938 163.890625 28.890625 C 163.972656 28.953125 163.96875 29.050781 163.90625 29.125 C 163.75 29.316406 163.394531 29.160156 163.203125 29.121094 C 162.660156 29.007812 162.125 28.746094 161.578125 28.695312 C 161.347656 28.671875 161.164062 28.292969 161.40625 28.144531 " fill-opacity="1" fill-rule="nonzero"/><path fill="#f7936a" d="M 161.417969 35.367188 C 161.691406 35.445312 162.179688 35.472656 162.441406 35.355469 C 162.578125 35.296875 162.722656 35.230469 162.839844 35.140625 C 162.941406 35.058594 162.964844 35.007812 163.101562 34.988281 C 163.339844 34.949219 163.347656 35.324219 163.113281 35.363281 C 163.160156 35.355469 162.929688 35.53125 162.875 35.5625 C 162.746094 35.632812 162.578125 35.742188 162.433594 35.773438 C 162.277344 35.808594 162.058594 35.789062 161.898438 35.792969 C 161.695312 35.792969 161.523438 35.789062 161.328125 35.730469 C 161.09375 35.667969 161.183594 35.300781 161.417969 35.367188 " fill-opacity="1" fill-rule="nonzero"/><path fill="#4d3932" d="M 161.980469 23.667969 C 161.980469 23.667969 163.4375 25.914062 165.238281 26.585938 C 167.035156 27.257812 168.289062 27.664062 168.441406 28.734375 C 168.597656 29.804688 170.148438 28.964844 171.039062 29.957031 C 172.304688 31.371094 170.710938 32.710938 170.78125 33.339844 C 170.847656 33.96875 175.207031 36.324219 175.207031 36.324219 C 175.207031 36.324219 178.605469 29.0625 177.492188 24.855469 C 176.375 20.648438 171.210938 19.542969 166.894531 19.78125 C 163.285156 19.976562 161.980469 23.667969 161.980469 23.667969 " fill-opacity="1" fill-rule="nonzero"/><path fill="#ffe9de" d="M 175.484375 39.636719 C 175.484375 39.636719 171.910156 40.949219 170.011719 42.492188 C 166.640625 45.234375 164.570312 50.558594 163.007812 55.4375 C 161.441406 60.316406 164.382812 65.632812 164.945312 67.257812 C 165.507812 68.882812 164.507812 85.171875 165.320312 86.410156 C 166.132812 87.644531 169.765625 87.332031 173.828125 87.582031 C 177.890625 87.832031 181.398438 88.898438 183.992188 88.460938 C 186.582031 88.023438 188.398438 88.148438 187.898438 86.019531 C 187.398438 83.894531 185.84375 60.660156 185.457031 56.75 C 183.992188 41.929688 175.484375 39.636719 175.484375 39.636719 " fill-opacity="1" fill-rule="nonzero"/><path fill="#ffaf8f" d="M 170.710938 59.050781 L 165.761719 50.164062 L 147.382812 59.617188 C 147.382812 59.617188 143.296875 65.699219 147.042969 67.160156 C 150.789062 68.625 170.710938 59.050781 170.710938 59.050781 " fill-opacity="1" fill-rule="nonzero"/><path fill="#ffaf8f" d="M 150.175781 66.304688 C 148.933594 67.425781 146.242188 67.78125 143.226562 66.496094 C 140.207031 65.214844 127.25 60.820312 127.25 60.820312 L 127.914062 57.335938 C 127.914062 57.335938 145.394531 57.871094 149.0625 59.503906 C 151.429688 60.5625 152.554688 64.15625 150.175781 66.304688 " fill-opacity="1" fill-rule="nonzero"/><path fill="#8997b0" d="M 145.144531 98.414062 C 144.371094 97.601562 143.730469 96.691406 143.144531 95.738281 C 142.886719 95.308594 142.585938 94.902344 142.339844 94.464844 C 142.167969 94.160156 141.660156 93.320312 141.65625 93.070312 C 141.648438 92.828125 141.273438 92.828125 141.28125 93.070312 C 141.292969 93.5625 141.484375 93.753906 141.742188 94.148438 C 142.113281 94.726562 142.460938 95.335938 142.820312 95.925781 C 143.511719 97.054688 144.289062 98.152344 145.265625 99.0625 C 145.421875 99.210938 145.683594 99.351562 145.8125 99.523438 C 146.253906 100.117188 146.003906 100.375 145.503906 100.390625 C 144.726562 100.410156 144.125 99.542969 143.605469 99.066406 C 143.035156 98.546875 142.4375 98.058594 141.828125 97.589844 C 141.636719 97.445312 140.28125 96.726562 140.277344 96.445312 C 140.277344 96.207031 139.902344 96.203125 139.902344 96.445312 C 139.910156 96.925781 140.328125 97.03125 140.6875 97.238281 C 141.640625 97.792969 142.523438 98.589844 143.339844 99.332031 C 143.839844 99.785156 144.292969 100.398438 144.945312 100.648438 C 145.3125 100.789062 145.996094 100.90625 146.363281 100.699219 C 147.507812 100.058594 145.480469 98.769531 145.144531 98.414062 " fill-opacity="1" fill-rule="nonzero"/><path fill="#8997b0" d="M 145.84375 102.011719 C 144.972656 102.054688 144.089844 102.269531 143.242188 102.464844 C 143.074219 102.503906 141.109375 103.253906 141.023438 103.027344 C 140.9375 102.800781 140.574219 102.898438 140.660156 103.125 C 140.859375 103.644531 141.332031 103.515625 141.773438 103.351562 C 143.046875 102.867188 144.480469 102.453125 145.84375 102.386719 C 146.085938 102.375 146.085938 102 145.84375 102.011719 " fill-opacity="1" fill-rule="nonzero"/><path fill="#8997b0" d="M 176.472656 97.035156 C 176.164062 96.546875 175.929688 96.015625 175.625 95.519531 C 175.050781 94.59375 174.472656 93.59375 173.792969 92.746094 C 173.117188 91.902344 172.398438 91.050781 171.496094 90.445312 C 170.621094 89.851562 169.671875 89.292969 168.828125 88.65625 C 168.636719 88.507812 168.449219 88.835938 168.640625 88.980469 C 170.195312 90.152344 171.859375 91.015625 173.140625 92.542969 C 173.832031 93.363281 174.324219 94.28125 174.929688 95.164062 C 175.253906 95.628906 175.53125 96.105469 175.792969 96.609375 C 175.964844 96.941406 176.425781 97.453125 176.425781 97.824219 C 176.425781 98.0625 176.800781 98.066406 176.800781 97.824219 C 176.800781 97.496094 176.644531 97.304688 176.472656 97.035156 " fill-opacity="1" fill-rule="nonzero"/><path fill="#8997b0" d="M 177.039062 94.410156 C 176.679688 93.847656 176.40625 93.253906 176.03125 92.695312 C 175.777344 92.316406 175.582031 91.984375 175.234375 91.6875 C 174.800781 91.320312 174.289062 91.074219 173.871094 90.683594 C 173.695312 90.523438 173.429688 90.785156 173.605469 90.949219 C 174.25 91.546875 175.015625 91.878906 175.535156 92.617188 C 175.808594 93.007812 176.074219 93.40625 176.296875 93.832031 C 176.523438 94.265625 176.996094 94.839844 177.050781 95.320312 C 177.082031 95.558594 177.457031 95.5625 177.425781 95.320312 C 177.382812 94.933594 177.242188 94.734375 177.039062 94.410156 " fill-opacity="1" fill-rule="nonzero"/><path fill="#8997b0" d="M 145.710938 135.464844 C 145.089844 136.222656 144.554688 136.65625 143.671875 137.066406 C 142.703125 137.515625 141.730469 137.828125 140.691406 138.066406 C 138.8125 138.496094 136.90625 139.234375 134.964844 139.285156 C 134.722656 139.292969 134.722656 139.667969 134.964844 139.660156 C 137.042969 139.605469 139.097656 138.824219 141.105469 138.355469 C 142.0625 138.132812 142.972656 137.808594 143.859375 137.390625 C 144.808594 136.945312 145.320312 136.535156 145.976562 135.730469 C 146.128906 135.542969 145.867188 135.277344 145.710938 135.464844 " fill-opacity="1" fill-rule="nonzero"/><path fill="#4d3932" d="M 165.601562 20.027344 C 165.601562 20.027344 172.050781 17.113281 177.367188 21.804688 C 180.367188 24.453125 182.492188 29.082031 183.367188 30.773438 C 184.242188 32.460938 185.621094 33.335938 185.808594 35.027344 C 185.9375 36.191406 184.945312 36.5625 184.128906 37.074219 C 183.191406 37.664062 182.757812 39.144531 181.636719 39.429688 C 180.8125 39.644531 179.941406 39.003906 179.105469 39.097656 C 177.472656 39.277344 178.203125 40.496094 177.214844 41.4375 C 176.792969 41.835938 176.121094 41.863281 175.578125 41.65625 C 173.980469 41.042969 173.097656 39.261719 172.363281 37.847656 C 171.550781 36.285156 170.78125 33.339844 170.78125 33.339844 C 170.78125 33.339844 174.050781 30.402344 173.988281 29.902344 C 173.925781 29.40625 170.074219 23.402344 169.78125 23.402344 C 169.484375 23.402344 165.601562 20.027344 165.601562 20.027344 " fill-opacity="1" fill-rule="nonzero"/><path fill="#ffe9de" d="M 154.058594 55.625 C 153.453125 56.984375 156.945312 65.292969 157.683594 65.292969 C 158.421875 65.292969 171.988281 58.738281 171.988281 58.738281 L 169.691406 43.46875 C 169.691406 43.46875 160.4375 51.058594 158.085938 52.601562 C 155.738281 54.148438 154.664062 54.261719 154.058594 55.625 " fill-opacity="1" fill-rule="nonzero"/><path fill="#ffaf8f" d="M 111.132812 58.160156 C 111.132812 58.160156 111.023438 60.003906 109.199219 60.863281 C 107.371094 61.71875 104.921875 62.367188 103.59375 62.453125 C 102.144531 62.550781 102.039062 61.195312 102.542969 60.070312 C 103.046875 58.945312 103.945312 57.5625 105.917969 56.484375 C 107.890625 55.40625 109.75 55.019531 109.75 55.019531 L 111.132812 58.160156 " fill-opacity="1" fill-rule="nonzero"/><path fill="#3d3227" d="M 144.707031 147.632812 C 144.683594 148.472656 144.59375 149.089844 144.382812 149.179688 C 143.644531 149.496094 132.925781 149.890625 132.429688 149.417969 C 131.933594 148.941406 132.761719 146.855469 134.648438 146.144531 C 134.945312 146.03125 135.21875 145.929688 135.476562 145.835938 C 135.476562 145.835938 136.964844 147.539062 139.15625 147.632812 C 141.296875 147.722656 144.570312 147.636719 144.707031 147.632812 " fill-opacity="1" fill-rule="nonzero"/><path fill="#9e663f" d="M 101.691406 22.332031 C 99.335938 21.632812 95.621094 22.066406 94.570312 24.902344 C 93.1875 28.644531 97.441406 34.15625 101.691406 36.785156 C 105.945312 39.410156 110.511719 39.773438 110.761719 40.09375 C 111.011719 40.40625 107.515625 50.3125 106.757812 51.980469 C 106.210938 53.183594 105.820312 55.234375 108.132812 56.609375 C 110.449219 57.984375 112.175781 58.917969 113.949219 57.335938 C 118.203125 53.542969 122.925781 38.226562 122.519531 36.71875 C 121.703125 33.699219 110.140625 24.839844 101.691406 22.332031 " fill-opacity="1" fill-rule="nonzero"/><path fill="#ffaf8f" d="M 129.679688 58.3125 C 129.257812 57.691406 127.160156 55.414062 126.453125 54.765625 C 125.742188 54.117188 121.921875 53.726562 121.414062 54.121094 C 120.90625 54.519531 121.046875 54.8125 121.574219 55.515625 C 122.105469 56.21875 125.03125 58.929688 125.695312 59.757812 C 126.40625 60.636719 127.679688 60.941406 127.679688 60.941406 L 130.671875 60.59375 C 130.671875 60.59375 130.097656 58.929688 129.679688 58.3125 " fill-opacity="1" fill-rule="nonzero"/><path fill="#f0dace" d="M 176.113281 47.070312 C 175.265625 45.054688 173.265625 42.894531 170.984375 42.789062 C 170.746094 42.777344 170.746094 43.152344 170.984375 43.164062 C 173.15625 43.265625 175.199219 45.570312 175.886719 47.539062 C 176.628906 49.667969 176.292969 52.085938 175.078125 53.949219 C 174.945312 54.152344 175.269531 54.339844 175.402344 54.140625 C 176.730469 52.101562 177.078125 49.355469 176.113281 47.070312 " fill-opacity="1" fill-rule="nonzero"/><path fill="#f0dace" d="M 173.355469 55.601562 C 172.09375 56.804688 170.742188 57.773438 169.375 58.824219 C 168.164062 59.75 166.96875 60.597656 165.558594 61.179688 C 165.335938 61.273438 165.433594 61.636719 165.65625 61.542969 C 167.058594 60.960938 168.207031 60.15625 169.441406 59.273438 C 170.917969 58.21875 172.300781 57.125 173.621094 55.867188 C 173.796875 55.699219 173.53125 55.433594 173.355469 55.601562 " fill-opacity="1" fill-rule="nonzero"/><path fill="#f0dace" d="M 174.113281 41.472656 C 173.875 41.46875 173.601562 41.65625 173.394531 41.761719 C 173.246094 41.839844 173.117188 41.941406 172.972656 42.019531 C 172.886719 42.066406 172.792969 42.09375 172.703125 42.136719 C 172.65625 42.160156 172.617188 42.21875 172.5625 42.230469 C 172.328125 42.285156 172.425781 42.648438 172.660156 42.59375 C 172.773438 42.570312 172.84375 42.496094 172.941406 42.445312 C 173.070312 42.378906 173.195312 42.328125 173.316406 42.25 C 173.453125 42.164062 173.585938 42.085938 173.734375 42.015625 C 173.839844 41.96875 173.996094 41.847656 174.113281 41.847656 C 174.355469 41.855469 174.355469 41.480469 174.113281 41.472656 " fill-opacity="1" fill-rule="nonzero"/><path fill="#f0dace" d="M 185.417969 81.632812 C 184.769531 81.433594 184.136719 81.414062 183.460938 81.371094 C 182.496094 81.308594 181.542969 81.113281 180.609375 80.847656 C 178.671875 80.292969 176.925781 79.246094 175.207031 78.210938 C 173.5625 77.21875 171.953125 76.15625 170.363281 75.078125 C 168.59375 73.878906 167.015625 72.652344 165.769531 70.898438 C 165.632812 70.703125 165.304688 70.890625 165.445312 71.085938 C 167.722656 74.292969 171.421875 76.328125 174.71875 78.351562 C 176.359375 79.359375 178.066406 80.4375 179.910156 81.03125 C 180.832031 81.328125 181.742188 81.527344 182.699219 81.65625 C 183.578125 81.769531 184.464844 81.734375 185.320312 81.992188 C 185.550781 82.0625 185.652344 81.703125 185.417969 81.632812 " fill-opacity="1" fill-rule="nonzero"/><path fill="#f0dace" d="M 181.855469 83.132812 C 179.925781 82.582031 177.964844 81.890625 176.136719 81.046875 C 175.296875 80.664062 174.4375 80.304688 173.664062 79.800781 C 172.765625 79.214844 171.941406 78.535156 171.082031 77.898438 C 170.886719 77.753906 170.699219 78.082031 170.890625 78.222656 C 171.753906 78.859375 172.574219 79.539062 173.472656 80.125 C 174.335938 80.683594 175.304688 81.085938 176.238281 81.507812 C 178.007812 82.304688 179.894531 82.964844 181.753906 83.496094 C 181.988281 83.558594 182.085938 83.199219 181.855469 83.132812 " fill-opacity="1" fill-rule="nonzero"/><path fill="#d4a979" d="M 115.980469 103.039062 C 115.585938 103.25 115.3125 103.582031 114.882812 103.773438 C 114.289062 104.039062 113.695312 104.226562 113.054688 104.335938 C 111.832031 104.542969 110.558594 104.636719 109.320312 104.640625 C 109.082031 104.640625 109.078125 105.015625 109.320312 105.015625 C 110.597656 105.011719 111.894531 104.910156 113.15625 104.695312 C 113.726562 104.597656 114.261719 104.441406 114.796875 104.21875 C 115.050781 104.113281 115.34375 104.011719 115.578125 103.859375 C 115.785156 103.71875 115.957031 103.476562 116.171875 103.363281 C 116.382812 103.25 116.195312 102.925781 115.980469 103.039062 " fill-opacity="1" fill-rule="nonzero"/><path fill="#d4a979" d="M 116.070312 104.445312 C 115.660156 104.863281 115.128906 105.296875 114.648438 105.628906 C 114.140625 105.976562 113.667969 106.285156 113.105469 106.542969 C 112.886719 106.640625 113.074219 106.964844 113.292969 106.863281 C 114.417969 106.355469 115.472656 105.589844 116.335938 104.710938 C 116.503906 104.535156 116.238281 104.269531 116.070312 104.445312 " fill-opacity="1" fill-rule="nonzero"/><path fill="#d4a979" d="M 116.414062 137.128906 C 115.945312 137.828125 114.90625 138.550781 114.164062 138.972656 C 113.382812 139.414062 112.484375 139.804688 111.625 140.109375 C 111.550781 139.386719 111.304688 138.703125 111.265625 137.964844 C 111.230469 137.316406 111.265625 136.664062 111.273438 136.015625 C 111.289062 134.777344 110.945312 133.527344 110.882812 132.28125 C 110.820312 130.972656 110.710938 129.714844 110.476562 128.417969 C 110.339844 127.671875 110.152344 126.929688 110.046875 126.179688 C 109.949219 125.464844 110.027344 124.746094 109.984375 124.027344 C 109.804688 121.058594 109.726562 118.101562 109.652344 115.128906 C 109.621094 113.890625 109.195312 112.785156 108.953125 111.585938 C 108.644531 110.074219 108.757812 108.492188 108.757812 106.953125 C 108.757812 106.710938 108.382812 106.710938 108.382812 106.953125 C 108.382812 108.3125 108.289062 109.710938 108.484375 111.058594 C 108.679688 112.4375 109.222656 113.726562 109.277344 115.128906 C 109.335938 116.628906 109.238281 118.121094 109.378906 119.617188 C 109.511719 121.082031 109.523438 122.554688 109.609375 124.027344 C 109.644531 124.648438 109.574219 125.277344 109.625 125.898438 C 109.679688 126.554688 109.859375 127.21875 109.984375 127.863281 C 110.273438 129.339844 110.4375 130.785156 110.507812 132.28125 C 110.570312 133.527344 110.867188 134.777344 110.898438 136.015625 C 110.914062 136.664062 110.863281 137.316406 110.890625 137.964844 C 110.925781 138.742188 111.207031 139.457031 111.261719 140.222656 C 111.261719 140.230469 111.265625 140.234375 111.265625 140.238281 C 111.257812 140.242188 111.25 140.242188 111.242188 140.246094 C 110.234375 140.578125 109.347656 140.699219 108.292969 140.804688 C 107.339844 140.898438 106.472656 141.097656 105.542969 141.316406 C 105.480469 141.332031 105.425781 141.386719 105.410156 141.449219 C 105.402344 141.484375 105.394531 141.515625 105.386719 141.550781 C 105.339844 141.785156 105.699219 141.886719 105.75 141.648438 C 105.792969 141.449219 107.527344 141.292969 107.632812 141.28125 C 108.152344 141.21875 108.667969 141.171875 109.1875 141.136719 C 110.21875 141.058594 111.289062 140.695312 112.242188 140.296875 C 113.164062 139.914062 114.140625 139.484375 114.949219 138.890625 C 115.625 138.390625 116.269531 138.015625 116.738281 137.316406 C 116.875 137.117188 116.546875 136.929688 116.414062 137.128906 " fill-opacity="1" fill-rule="nonzero"/><path fill="#d4a979" d="M 112.011719 72.304688 C 111.871094 73.488281 111.480469 74.625 111.363281 75.808594 C 111.300781 76.390625 111.160156 76.945312 111.074219 77.519531 C 110.976562 78.175781 111.042969 78.828125 110.945312 79.484375 C 110.5625 82.09375 111.167969 84.882812 110.398438 87.4375 C 110.035156 88.644531 109.695312 89.890625 109.496094 91.136719 C 109.3125 92.289062 109.300781 93.46875 109.261719 94.632812 C 109.214844 95.894531 109.140625 97.210938 108.914062 98.449219 C 108.683594 99.683594 108.660156 101.011719 108.890625 102.25 C 108.933594 102.488281 109.296875 102.386719 109.253906 102.148438 C 108.960938 100.589844 109.257812 99.152344 109.460938 97.613281 C 109.53125 97.082031 109.476562 96.5625 109.496094 96.027344 C 109.515625 95.476562 109.625 94.945312 109.628906 94.394531 C 109.636719 93.132812 109.734375 91.777344 109.976562 90.542969 C 110.214844 89.316406 110.671875 88.125 110.910156 86.902344 C 111.171875 85.570312 111.101562 84.289062 111.136719 82.933594 C 111.167969 81.671875 111.296875 80.410156 111.390625 79.15625 C 111.441406 78.519531 111.371094 77.921875 111.496094 77.28125 C 111.597656 76.785156 111.6875 76.3125 111.738281 75.808594 C 111.855469 74.628906 112.246094 73.488281 112.386719 72.304688 C 112.414062 72.066406 112.039062 72.070312 112.011719 72.304688 " fill-opacity="1" fill-rule="nonzero"/><path fill="#8a5530" d="M 118.078125 36.558594 C 117.550781 36.910156 116.625 36.953125 116.023438 37.136719 C 115.261719 37.371094 114.53125 37.695312 113.800781 38.007812 C 113.070312 38.320312 111.660156 38.792969 111.328125 39.578125 C 111.238281 39.800781 111.597656 39.898438 111.691406 39.679688 C 111.890625 39.210938 112.828125 38.925781 113.25 38.710938 C 113.773438 38.441406 114.316406 38.234375 114.851562 37.984375 C 115.550781 37.65625 116.28125 37.445312 117.023438 37.246094 C 117.402344 37.140625 117.933594 37.105469 118.265625 36.882812 C 118.464844 36.75 118.277344 36.425781 118.078125 36.558594 " fill-opacity="1" fill-rule="nonzero"/><path fill="#8a5530" d="M 116.671875 38.316406 C 115.597656 38.40625 114.625 39.089844 113.613281 39.40625 C 113.195312 39.535156 111.738281 39.710938 111.613281 40.238281 C 111.554688 40.472656 111.917969 40.570312 111.972656 40.335938 C 112.039062 40.066406 113.820312 39.726562 114.113281 39.621094 C 114.941406 39.332031 115.785156 38.765625 116.671875 38.691406 C 116.910156 38.671875 116.910156 38.296875 116.671875 38.316406 " fill-opacity="1" fill-rule="nonzero"/><path fill="#8a5530" d="M 114.136719 55.578125 C 112.722656 55.578125 111.417969 55.625 110.101562 55.011719 C 109.023438 54.511719 107.902344 53.910156 106.914062 53.257812 C 106.714844 53.125 106.523438 53.449219 106.726562 53.582031 C 107.835938 54.3125 109.132812 55.054688 110.371094 55.542969 C 111.585938 56.023438 112.851562 55.953125 114.136719 55.953125 C 114.378906 55.953125 114.378906 55.578125 114.136719 55.578125 " fill-opacity="1" fill-rule="nonzero"/></svg>