<svg xmlns="http://www.w3.org/2000/svg" xmlns:xlink="http://www.w3.org/1999/xlink" width="360" zoomAndPan="magnify" viewBox="0 0 270 149.999998" height="200" preserveAspectRatio="xMidYMid meet" version="1.0"><defs><clipPath id="06c015e7fa"><path d="M 133.027344 142.875 L 144.425781 142.875 L 144.425781 149.976562 L 133.027344 149.976562 Z M 133.027344 142.875 " clip-rule="nonzero"/></clipPath><clipPath id="362308f5e8"><path d="M 182.304688 83.605469 L 216.449219 83.605469 L 216.449219 92.96875 L 182.304688 92.96875 Z M 182.304688 83.605469 " clip-rule="nonzero"/></clipPath><clipPath id="b58b4b48a5"><path d="M 53.699219 83 L 83 83 L 83 93 L 53.699219 93 Z M 53.699219 83 " clip-rule="nonzero"/></clipPath><clipPath id="3090444a9e"><path d="M 200.179688 148.28125 L 204.71875 148.28125 L 204.71875 149.976562 L 200.179688 149.976562 Z M 200.179688 148.28125 " clip-rule="nonzero"/></clipPath><clipPath id="f055aab409"><path d="M 66.164062 148.28125 L 70.703125 148.28125 L 70.703125 149.976562 L 66.164062 149.976562 Z M 66.164062 148.28125 " clip-rule="nonzero"/></clipPath></defs><path fill="#8997b0" d="M 116.203125 64.730469 C 116.203125 64.730469 114.355469 70.472656 114.101562 73.25 C 113.847656 76.023438 113.445312 77.898438 114.101562 78.636719 C 114.753906 79.375 117.9375 80.351562 121.234375 80.515625 C 124.53125 80.679688 127.65625 77.742188 128.765625 76.429688 C 129.875 75.113281 131.710938 71.765625 129.96875 70.175781 C 128.226562 68.585938 116.203125 64.730469 116.203125 64.730469 " fill-opacity="1" fill-rule="nonzero"/><path fill="#4d3932" d="M 113.652344 109.683594 C 113.640625 109.890625 108.898438 118.433594 108.632812 119.183594 C 107.320312 122.886719 104.832031 126.367188 103.796875 127.238281 C 102.296875 128.503906 99.839844 127.546875 100.042969 125.570312 C 100.242188 123.597656 101.265625 121.609375 102.121094 120.21875 C 103.703125 117.648438 105.011719 116.242188 105.203125 115.75 C 105.394531 115.257812 107.800781 107.417969 107.800781 107.417969 L 113.652344 109.683594 " fill-opacity="1" fill-rule="nonzero"/><g clip-path="url(#06c015e7fa)"><path fill="#4d3932" d="M 133.347656 142.949219 C 133.347656 142.949219 132.675781 149.273438 133.347656 149.5625 C 134.019531 149.847656 143.761719 150.207031 144.210938 149.777344 C 144.660156 149.347656 143.910156 147.453125 142.195312 146.808594 C 140.039062 145.992188 138.167969 145.375 137.59375 145.050781 C 137.015625 144.726562 137.257812 142.949219 137.257812 142.949219 L 133.347656 142.949219 " fill-opacity="1" fill-rule="nonzero"/></g><path fill="#a7b3c9" d="M 143.863281 65.328125 C 143.863281 65.328125 142.257812 139.292969 142.0625 141.335938 C 141.867188 143.382812 140.121094 143.921875 137.226562 144.15625 C 132.644531 144.523438 130.6875 143.152344 130.480469 142.246094 C 130.273438 141.335938 130.207031 66.238281 130.207031 66.238281 L 143.863281 65.328125 " fill-opacity="1" fill-rule="nonzero"/><path fill="#ffe9de" d="M 148.324219 22.875 C 148.324219 22.875 140.558594 19.832031 137.386719 18.917969 C 131.152344 17.128906 124.949219 18.371094 123.679688 19.074219 C 122.410156 19.78125 117.96875 34.683594 117.9375 37.867188 C 117.910156 41.046875 116.402344 49.195312 116.167969 55.886719 C 116.058594 59.011719 114.871094 66.511719 119.417969 68.472656 C 121.28125 69.273438 141.222656 72.03125 144.09375 68.074219 C 144.191406 67.9375 145.59375 54.132812 146.769531 44.203125 C 147.832031 35.261719 148.324219 22.875 148.324219 22.875 " fill-opacity="1" fill-rule="nonzero"/><path fill="#8f4838" d="M 155.136719 39.804688 C 155.136719 39.804688 156.320312 44.066406 156.640625 45.914062 C 156.960938 47.761719 157.855469 51.957031 155.085938 53.132812 C 152.816406 54.097656 150.851562 52.621094 149.644531 49.863281 C 148.4375 47.109375 147.457031 41.734375 147.457031 41.734375 L 155.136719 39.804688 " fill-opacity="1" fill-rule="nonzero"/><path fill="#a7b3c9" d="M 125.191406 65.21875 C 122.902344 64.273438 119.214844 63.871094 116.96875 68.574219 C 114.726562 73.277344 102.371094 113.199219 102.269531 113.957031 C 102.171875 114.714844 105.644531 116.898438 107.640625 117.507812 C 109.640625 118.117188 112.585938 118.585938 113.070312 117.929688 C 113.347656 117.554688 120.445312 99.398438 124.347656 88.703125 C 127.304688 80.585938 130.507812 73.125 129.890625 70.703125 C 129.082031 67.535156 127.480469 66.164062 125.191406 65.21875 " fill-opacity="1" fill-rule="nonzero"/><path fill="#8f4838" d="M 114.285156 36.757812 C 114.285156 36.757812 111.0625 39.792969 109.574219 40.933594 C 108.085938 42.078125 104.234375 44.476562 102.257812 43.003906 C 100.277344 41.527344 100.9375 38.9375 102.820312 36.585938 C 104.699219 34.238281 109.003906 30.867188 109.003906 30.867188 L 114.285156 36.757812 " fill-opacity="1" fill-rule="nonzero"/><path fill="#ffe9de" d="M 148.324219 22.875 C 148.324219 22.875 151.328125 24.097656 152.75 28.492188 C 153.601562 31.125 155.140625 36.292969 155.449219 37.523438 C 155.757812 38.757812 156.679688 42.015625 156.125 42.277344 C 155.574219 42.542969 151.679688 43.761719 149.480469 44.074219 C 147.277344 44.390625 145.074219 44.480469 145.21875 44.128906 C 145.367188 43.777344 145.066406 27.234375 145.320312 26.765625 C 145.570312 26.296875 148.324219 22.875 148.324219 22.875 " fill-opacity="1" fill-rule="nonzero"/><path fill="#747385" d="M 139.5625 74.289062 C 139.628906 74.507812 139.996094 74.851562 140.132812 75.027344 C 140.371094 75.34375 140.589844 75.648438 140.886719 75.914062 C 141.15625 76.160156 141.445312 76.382812 141.714844 76.632812 C 142.046875 76.945312 142.421875 77.101562 142.78125 77.367188 C 142.957031 77.492188 142.789062 77.789062 142.609375 77.660156 C 142.285156 77.425781 141.929688 77.292969 141.628906 77.023438 C 141.277344 76.710938 140.90625 76.40625 140.5625 76.082031 C 140.253906 75.789062 140.019531 75.441406 139.761719 75.105469 C 139.578125 74.867188 139.320312 74.667969 139.234375 74.378906 C 139.171875 74.167969 139.5 74.078125 139.5625 74.289062 " fill-opacity="1" fill-rule="nonzero"/><path fill="#a65d4c" d="M 132.898438 20.300781 L 134.050781 22.839844 L 136.699219 24.484375 L 140.0625 21.878906 L 140.382812 20.902344 L 141.320312 18.023438 C 141.324219 18.019531 141.324219 18.019531 141.324219 18.019531 L 141.589844 17.195312 L 139.316406 17.421875 L 134.148438 15.539062 L 132.898438 20.300781 " fill-opacity="1" fill-rule="nonzero"/><path fill="#a65d4c" d="M 146.433594 7.390625 C 146.433594 7.390625 143.628906 15.1875 143.050781 16.308594 C 141.980469 18.382812 138.144531 19.542969 137.058594 19.292969 C 136.425781 19.148438 133.050781 16.527344 133.328125 13.441406 C 133.421875 12.394531 134.632812 4.710938 134.691406 4.617188 C 134.75 4.519531 141.925781 1.992188 141.925781 1.992188 L 146.433594 7.390625 " fill-opacity="1" fill-rule="nonzero"/><path fill="#362722" d="M 141.898438 11.929688 C 141.9375 11.722656 142.058594 11.503906 142.160156 11.441406 C 142.253906 11.386719 142.367188 11.328125 142.472656 11.378906 C 142.835938 11.550781 142.4375 12.320312 142.109375 12.316406 C 141.902344 12.308594 141.863281 12.128906 141.898438 11.929688 " fill-opacity="1" fill-rule="nonzero"/><path fill="#362722" d="M 135.832031 10.035156 C 135.867188 9.824219 135.988281 9.589844 136.097656 9.523438 C 136.1875 9.464844 136.308594 9.40625 136.417969 9.457031 C 136.796875 9.625 136.402344 10.433594 136.0625 10.433594 C 135.84375 10.433594 135.796875 10.242188 135.832031 10.035156 " fill-opacity="1" fill-rule="nonzero"/><path fill="#8f4838" d="M 137.664062 13.480469 C 137.664062 13.0625 138.992188 11.03125 139.253906 11.257812 C 139.394531 11.382812 139.175781 12.890625 139.140625 13.421875 C 139.125 13.601562 139.09375 13.785156 139 13.9375 C 138.785156 14.265625 138.277344 14.253906 137.984375 14.039062 C 137.753906 13.875 137.667969 13.679688 137.664062 13.480469 " fill-opacity="1" fill-rule="nonzero"/><path fill="#a65d4c" d="M 134.390625 7.6875 C 134.390625 7.6875 133.328125 6.992188 132.964844 8.511719 C 132.605469 10.03125 133.730469 11.460938 133.730469 11.460938 L 134.390625 7.6875 " fill-opacity="1" fill-rule="nonzero"/><path fill="#a65d4c" d="M 145.144531 10.234375 C 145.144531 10.234375 146.40625 10.089844 146.046875 11.609375 C 145.683594 13.128906 143.941406 13.753906 143.941406 13.753906 L 145.144531 10.234375 " fill-opacity="1" fill-rule="nonzero"/><path fill="#8f4838" d="M 134.976562 18.722656 C 135.1875 19.359375 136.449219 20.847656 138.589844 20.898438 C 139.449219 20.921875 140.015625 20.917969 140.382812 20.902344 L 141.320312 18.023438 C 141.226562 18.078125 138.789062 19.292969 137.441406 19.230469 C 136.0625 19.160156 135.445312 17.75 135.207031 17.78125 C 134.964844 17.808594 134.765625 18.085938 134.976562 18.722656 " fill-opacity="1" fill-rule="nonzero"/><path fill="#362722" d="M 141.730469 9.617188 C 141.75 9.5625 141.804688 9.511719 141.898438 9.472656 C 142.144531 9.367188 142.585938 9.480469 142.828125 9.558594 C 143.378906 9.730469 143.863281 10.109375 144.078125 10.65625 C 144.210938 11 143.410156 10.570312 143.289062 10.523438 C 142.921875 10.375 142.546875 10.234375 142.167969 10.109375 C 141.941406 10.035156 141.65625 9.800781 141.730469 9.617188 " fill-opacity="1" fill-rule="nonzero"/><path fill="#362722" d="M 138.144531 8.554688 C 138.164062 8.5 138.152344 8.425781 138.105469 8.335938 C 137.980469 8.101562 137.566406 7.910156 137.332031 7.816406 C 136.792969 7.605469 136.179688 7.589844 135.667969 7.878906 C 135.347656 8.0625 136.238281 8.234375 136.363281 8.273438 C 136.742188 8.390625 137.121094 8.519531 137.492188 8.660156 C 137.714844 8.746094 138.085938 8.746094 138.144531 8.554688 " fill-opacity="1" fill-rule="nonzero"/><path fill="#362722" d="M 134.261719 7.621094 C 134.261719 7.621094 134.601562 7.664062 135.230469 6.851562 C 135.632812 6.335938 135.957031 5.777344 136.160156 5.15625 C 136.257812 4.851562 136.394531 4.539062 136.714844 4.414062 C 136.890625 4.347656 137.089844 4.332031 137.28125 4.328125 C 139.90625 4.277344 142.386719 5.722656 143.757812 7.941406 C 143.96875 8.285156 144.1875 8.644531 144.324219 9.027344 C 144.480469 9.449219 144.570312 9.902344 144.820312 10.285156 C 145.527344 11.363281 147.042969 9.609375 147.304688 8.933594 C 149.09375 4.328125 145.21875 2.082031 144.527344 1.566406 C 143.835938 1.050781 142.050781 0.03125 139.082031 0.730469 C 137.4375 1.117188 136.46875 0.46875 134.988281 3.710938 C 134.425781 4.941406 134.261719 7.621094 134.261719 7.621094 " fill-opacity="1" fill-rule="nonzero"/><path fill="#8f4838" d="M 139.335938 15.570312 C 138.65625 15.878906 136.941406 15.582031 136.625 14.800781 C 136.542969 14.601562 136.214844 14.6875 136.296875 14.890625 C 136.707031 15.910156 138.589844 16.277344 139.507812 15.867188 C 139.707031 15.777344 139.535156 15.484375 139.335938 15.570312 " fill-opacity="1" fill-rule="nonzero"/><path fill="#ffe9de" d="M 140.972656 20.675781 C 140.972656 20.675781 139.859375 21.761719 137.5625 21.519531 C 134.597656 21.203125 133.140625 18.691406 133.074219 18.691406 C 133.011719 18.6875 131.195312 19.339844 131.160156 19.679688 C 131.125 20.015625 131.253906 22.070312 132.53125 22.664062 C 133.808594 23.257812 134.371094 23.71875 135.328125 24.089844 C 136.289062 24.457031 137.007812 25.699219 137.753906 25.664062 C 138.503906 25.628906 139.832031 23.417969 140.417969 22.980469 C 141.007812 22.542969 140.972656 20.675781 140.972656 20.675781 " fill-opacity="1" fill-rule="nonzero"/><path fill="#f7936a" d="M 131.863281 56.207031 C 131.863281 56.207031 129.25 50.8125 126.007812 50.300781 C 122.769531 49.789062 117.824219 52.175781 113.222656 54.160156 C 108.617188 56.148438 94.636719 62.167969 93.328125 62.339844 C 92.019531 62.507812 86.796875 59.148438 85.828125 58.703125 C 83.28125 57.535156 83.324219 59.386719 83.609375 60.40625 C 83.894531 61.429688 87.984375 65.007812 89.351562 66.597656 C 90.714844 68.1875 90.882812 69.039062 92.304688 69.265625 C 93.726562 69.492188 94.410156 66.765625 96.171875 66.3125 C 97.933594 65.859375 115.097656 63.585938 117.824219 62.394531 C 120.554688 61.203125 122.03125 60.269531 122.371094 60.578125 C 122.710938 60.886719 123.679688 62.566406 123.679688 62.566406 L 131.863281 56.207031 " fill-opacity="1" fill-rule="nonzero"/><path fill="#4f3228" d="M 145.21875 73.136719 C 145.21875 73.136719 132.347656 55.242188 131.664062 54.816406 C 130.980469 54.390625 125.953125 58.050781 124.929688 59.074219 C 123.90625 60.09375 121.945312 62.308594 121.945312 62.734375 C 121.945312 63.160156 128.765625 76.429688 128.765625 76.429688 L 135.078125 77.058594 L 145.21875 73.136719 " fill-opacity="1" fill-rule="nonzero"/><path fill="#ffaf8f" d="M 115.949219 75 C 115.949219 75 104.554688 75.234375 103.304688 75.234375 C 102.054688 75.234375 73.972656 78.8125 72.519531 79.054688 C 71.066406 79.292969 69.527344 69.957031 67.257812 70.421875 C 66.210938 70.632812 66.648438 74.460938 66.773438 77.40625 C 66.898438 80.355469 66.269531 83.628906 68.078125 84.050781 C 69.09375 84.289062 71.0625 83.527344 72.300781 83.414062 C 73.535156 83.300781 93.921875 84.972656 93.921875 84.972656 L 116.402344 84.3125 L 115.949219 75 " fill-opacity="1" fill-rule="nonzero"/><path fill="#f7936a" d="M 70.066406 80.804688 C 70.304688 80.765625 70.578125 80.925781 70.804688 80.988281 C 71.027344 81.050781 71.246094 81.097656 71.476562 81.070312 C 71.703125 81.046875 71.652344 80.699219 71.425781 80.722656 C 70.933594 80.773438 70.5 80.375 70.015625 80.453125 C 69.792969 80.492188 69.84375 80.839844 70.066406 80.804688 " fill-opacity="1" fill-rule="nonzero"/><path fill="#5c3d32" d="M 145.609375 72.90625 C 145.609375 72.90625 141.476562 71.65625 126.804688 72.394531 C 121.742188 72.648438 114.582031 73.277344 113.675781 73.816406 C 112.769531 74.351562 112.5625 77.449219 112.652344 79.722656 C 112.742188 81.992188 113.648438 84.265625 114.101562 84.832031 C 114.554688 85.398438 144.589844 86.308594 144.589844 86.308594 L 145.609375 72.90625 " fill-opacity="1" fill-rule="nonzero"/><path fill="#f7936a" d="M 200.8125 70.789062 C 200.8125 70.789062 198.980469 69.253906 198.320312 69.148438 C 197.660156 69.039062 197.222656 70.636719 197.222656 70.636719 L 200.8125 70.789062 " fill-opacity="1" fill-rule="nonzero"/><path fill="#ffaf8f" d="M 208.78125 73.214844 C 208.78125 73.214844 206.214844 70.695312 202.535156 70.585938 C 198.859375 70.476562 193.015625 69.949219 192.175781 71.402344 C 191.074219 73.316406 192.109375 75.941406 191.34375 76.277344 C 190.578125 76.617188 185.785156 76.589844 185.785156 76.589844 L 185.949219 83.714844 L 207.90625 82.828125 L 208.78125 73.214844 " fill-opacity="1" fill-rule="nonzero"/><path fill="#f7936a" d="M 195.859375 70.871094 C 195.761719 71.132812 195.671875 71.332031 195.671875 71.625 C 195.671875 71.929688 195.6875 72.324219 195.820312 72.601562 C 195.921875 72.8125 195.609375 73.003906 195.507812 72.792969 C 195.367188 72.492188 195.328125 72.105469 195.308594 71.777344 C 195.285156 71.386719 195.375 71.136719 195.507812 70.78125 C 195.585938 70.5625 195.941406 70.648438 195.859375 70.871094 " fill-opacity="1" fill-rule="nonzero"/><path fill="#d18d56" d="M 202.539062 71.496094 C 202.222656 71.746094 202.246094 72.304688 202.207031 72.667969 C 202.171875 72.976562 202.113281 73.277344 202.070312 73.582031 C 202.035156 73.808594 202.1875 73.867188 202.378906 73.769531 C 202.476562 73.71875 202.546875 73.625 202.59375 73.527344 C 202.691406 73.324219 202.78125 73.121094 202.855469 72.90625 C 202.992188 72.488281 203.058594 72.046875 202.992188 71.609375 C 202.988281 71.589844 202.984375 71.570312 202.980469 71.554688 C 202.917969 71.363281 202.699219 71.371094 202.539062 71.496094 " fill-opacity="1" fill-rule="nonzero"/><path fill="#4d3932" d="M 200.828125 71.683594 C 201.027344 71.632812 201.28125 71.652344 201.382812 71.71875 C 201.46875 71.78125 201.566406 71.863281 201.5625 71.976562 C 201.554688 72.378906 200.691406 72.335938 200.5625 72.035156 C 200.480469 71.839844 200.628906 71.730469 200.828125 71.683594 " fill-opacity="1" fill-rule="nonzero"/><path fill="#e35e4b" d="M 189.484375 82.542969 C 189.484375 82.542969 187.519531 77.179688 185.722656 74.835938 C 183.59375 72.058594 180.140625 70.125 173.019531 70.472656 C 169.324219 70.652344 152.417969 71.886719 150.203125 71.941406 C 147.984375 72 146.539062 71.601562 145.300781 72.339844 C 144.0625 73.078125 143.496094 75.746094 142.925781 78.074219 C 142.359375 80.402344 143.152344 84.261719 143.152344 84.261719 C 143.152344 84.261719 165.011719 91.191406 165.582031 91.191406 C 166.148438 91.191406 189.929688 84.09375 189.929688 84.09375 L 189.484375 82.542969 " fill-opacity="1" fill-rule="nonzero"/><path fill="#ffaf8f" d="M 139.902344 81.367188 C 139.902344 81.367188 135.078125 80.386719 134.351562 80.527344 C 133.621094 80.671875 130.664062 82.597656 130.28125 83.136719 C 129.898438 83.671875 129.972656 84.242188 129.972656 84.242188 C 129.972656 84.242188 139.378906 84.707031 139.457031 84.597656 C 139.53125 84.492188 140.183594 82.957031 140.183594 82.957031 L 139.902344 81.367188 " fill-opacity="1" fill-rule="nonzero"/><path fill="#ffaf8f" d="M 174.910156 77.667969 L 160.492188 78.707031 C 160.492188 78.707031 155.839844 77.980469 153.648438 78.375 C 151.457031 78.773438 139.714844 81.410156 139.714844 81.410156 L 139.769531 84.429688 L 175.042969 84.972656 L 174.910156 77.667969 " fill-opacity="1" fill-rule="nonzero"/><path fill="#f5e8e1" d="M 63.5625 96.441406 L 207.308594 96.441406 C 210.214844 96.441406 212.570312 94.089844 212.570312 91.1875 L 58.300781 91.1875 C 58.300781 94.089844 60.65625 96.441406 63.5625 96.441406 " fill-opacity="1" fill-rule="nonzero"/><g clip-path="url(#362308f5e8)"><path fill="#874c43" d="M 186.253906 92.890625 L 212.570312 92.890625 C 214.710938 92.890625 216.449219 91.15625 216.449219 89.019531 L 216.449219 87.515625 C 216.449219 85.375 214.710938 83.640625 212.570312 83.640625 L 186.253906 83.640625 C 184.113281 83.640625 182.375 85.375 182.375 87.515625 L 182.375 89.019531 C 182.375 91.15625 184.113281 92.890625 186.253906 92.890625 " fill-opacity="1" fill-rule="nonzero"/></g><path fill="#874c43" d="M 149.539062 92.890625 L 179.605469 92.890625 C 181.746094 92.890625 183.484375 91.15625 183.484375 89.019531 L 183.484375 87.515625 C 183.484375 85.375 181.746094 83.640625 179.605469 83.640625 L 149.539062 83.640625 C 147.394531 83.640625 145.660156 85.375 145.660156 87.515625 L 145.660156 89.019531 C 145.660156 91.15625 147.394531 92.890625 149.539062 92.890625 " fill-opacity="1" fill-rule="nonzero"/><path fill="#874c43" d="M 84.859375 92.890625 L 143.34375 92.890625 C 145.484375 92.890625 147.222656 91.15625 147.222656 89.019531 L 147.222656 87.515625 C 147.222656 85.375 145.484375 83.640625 143.34375 83.640625 L 84.859375 83.640625 C 82.714844 83.640625 80.980469 85.375 80.980469 87.515625 L 80.980469 89.019531 C 80.980469 91.15625 82.714844 92.890625 84.859375 92.890625 " fill-opacity="1" fill-rule="nonzero"/><g clip-path="url(#b58b4b48a5)"><path fill="#874c43" d="M 57.578125 92.890625 L 78.578125 92.890625 C 80.722656 92.890625 82.457031 91.15625 82.457031 89.019531 L 82.457031 87.515625 C 82.457031 85.375 80.722656 83.640625 78.578125 83.640625 L 57.578125 83.640625 C 55.4375 83.640625 53.699219 85.375 53.699219 87.515625 L 53.699219 89.019531 C 53.699219 91.15625 55.4375 92.890625 57.578125 92.890625 " fill-opacity="1" fill-rule="nonzero"/></g><path fill="#f5e8e1" d="M 200.335938 149.082031 L 204.597656 149.082031 L 204.597656 95.421875 L 200.335938 95.421875 L 200.335938 149.082031 " fill-opacity="1" fill-rule="nonzero"/><g clip-path="url(#3090444a9e)"><path fill="#3d3227" d="M 201.363281 149.929688 L 203.570312 149.929688 C 204.378906 149.929688 204.921875 149.109375 204.601562 148.367188 L 204.597656 148.355469 L 200.332031 148.355469 L 200.328125 148.367188 C 200.011719 149.109375 200.554688 149.929688 201.363281 149.929688 " fill-opacity="1" fill-rule="nonzero"/></g><path fill="#f5e8e1" d="M 70.539062 149.082031 L 66.273438 149.082031 L 66.273438 95.421875 L 70.539062 95.421875 L 70.539062 149.082031 " fill-opacity="1" fill-rule="nonzero"/><g clip-path="url(#f055aab409)"><path fill="#3d3227" d="M 69.511719 149.929688 L 67.300781 149.929688 C 66.496094 149.929688 65.953125 149.109375 66.269531 148.367188 L 66.273438 148.355469 L 70.539062 148.355469 L 70.542969 148.367188 C 70.859375 149.109375 70.316406 149.929688 69.511719 149.929688 " fill-opacity="1" fill-rule="nonzero"/></g><path fill="#e8d4ca" d="M 200.789062 96.386719 L 204.3125 96.386719 C 204.53125 96.386719 204.535156 96.726562 204.3125 96.726562 L 200.789062 96.726562 C 200.570312 96.726562 200.570312 96.386719 200.789062 96.386719 " fill-opacity="1" fill-rule="nonzero"/><path fill="#e8d4ca" d="M 66.699219 96.214844 C 67.835938 96.214844 68.984375 96.28125 70.109375 96.273438 C 70.332031 96.269531 70.332031 96.613281 70.109375 96.613281 C 68.988281 96.621094 67.835938 96.554688 66.699219 96.554688 C 66.480469 96.554688 66.480469 96.214844 66.699219 96.214844 " fill-opacity="1" fill-rule="nonzero"/><path fill="#c9503e" d="M 174.300781 76.085938 C 175.21875 76.058594 176.121094 75.929688 177.023438 75.773438 C 178.054688 75.59375 179.023438 75.5625 180.015625 75.179688 C 181.851562 74.472656 183.542969 75.105469 185.363281 75.535156 C 185.417969 75.546875 185.46875 75.597656 185.480469 75.652344 C 185.484375 75.667969 185.488281 75.683594 185.492188 75.699219 C 185.53125 75.914062 185.203125 76.007812 185.160156 75.792969 C 185.152344 75.746094 183.988281 75.519531 183.902344 75.5 C 183.328125 75.371094 182.742188 75.226562 182.152344 75.179688 C 181.074219 75.085938 180.304688 75.511719 179.316406 75.808594 C 178.519531 76.046875 177.660156 76 176.84375 76.152344 C 176.003906 76.3125 175.15625 76.402344 174.300781 76.429688 C 174.082031 76.433594 174.082031 76.09375 174.300781 76.085938 " fill-opacity="1" fill-rule="nonzero"/><path fill="#c9503e" d="M 175.839844 77.273438 C 176.71875 78.027344 177.492188 78.972656 178.09375 79.964844 C 178.347656 80.378906 178.59375 80.800781 178.773438 81.253906 C 178.9375 81.667969 179.0625 82.277344 179.3125 82.679688 C 179.398438 82.679688 179.480469 82.734375 179.472656 82.84375 C 179.46875 82.878906 179.464844 82.910156 179.464844 82.945312 C 179.453125 83.074219 179.273438 83.1875 179.171875 83.066406 C 178.621094 82.402344 178.519531 81.390625 178.097656 80.636719 C 177.453125 79.480469 176.605469 78.382812 175.601562 77.511719 C 175.433594 77.371094 175.675781 77.128906 175.839844 77.273438 " fill-opacity="1" fill-rule="nonzero"/><path fill="#c9503e" d="M 178.9375 79.066406 C 179.285156 79.628906 179.582031 80.199219 179.816406 80.816406 C 179.964844 81.199219 180.097656 81.585938 180.226562 81.976562 C 180.300781 82.199219 180.363281 82.6875 180.582031 82.8125 C 180.773438 82.917969 180.601562 83.210938 180.410156 83.105469 C 180.011719 82.882812 179.933594 82.167969 179.804688 81.78125 C 179.5 80.882812 179.140625 80.042969 178.644531 79.238281 C 178.527344 79.050781 178.820312 78.882812 178.9375 79.066406 " fill-opacity="1" fill-rule="nonzero"/><path fill="#c9503e" d="M 148.054688 78.648438 C 148.617188 78.546875 149.015625 77.699219 149.375 77.265625 C 149.800781 76.753906 150.257812 76.367188 150.761719 75.9375 C 151.191406 75.574219 151.660156 75.277344 152.113281 74.945312 C 152.773438 74.460938 153.363281 73.871094 153.945312 73.296875 C 154.101562 73.144531 154.34375 73.382812 154.1875 73.539062 C 153.089844 74.621094 151.886719 75.457031 150.703125 76.417969 C 150.097656 76.910156 149.59375 77.484375 149.125 78.109375 C 148.8125 78.519531 148.679688 78.878906 148.144531 78.976562 C 147.929688 79.015625 147.835938 78.6875 148.054688 78.648438 " fill-opacity="1" fill-rule="nonzero"/><path fill="#c9503e" d="M 146.398438 79.5625 C 146.640625 78.734375 147.011719 77.769531 147.539062 77.078125 C 148.167969 76.257812 149.253906 76.019531 149.96875 75.285156 C 150.121094 75.128906 150.363281 75.367188 150.207031 75.527344 C 149.5625 76.191406 148.585938 76.433594 147.960938 77.101562 C 147.359375 77.746094 146.972656 78.8125 146.726562 79.652344 C 146.667969 79.863281 146.339844 79.773438 146.398438 79.5625 " fill-opacity="1" fill-rule="nonzero"/><path fill="#826055" d="M 141.054688 75.765625 C 141.304688 74.902344 141.644531 73.988281 142.097656 73.21875 C 142.207031 73.03125 142.503906 73.199219 142.390625 73.390625 C 141.96875 74.105469 141.621094 75.058594 141.382812 75.855469 C 141.058594 76.953125 140.859375 78.039062 140.878906 79.179688 C 140.882812 79.402344 140.542969 79.402344 140.539062 79.179688 C 140.515625 77.992188 140.722656 76.914062 141.054688 75.765625 " fill-opacity="1" fill-rule="nonzero"/><path fill="#826055" d="M 139.011719 75.664062 C 139.128906 75.023438 139.191406 74.378906 139.4375 73.769531 C 139.519531 73.570312 139.847656 73.65625 139.765625 73.859375 C 139.546875 74.410156 139.496094 74.984375 139.375 75.558594 C 139.222656 76.285156 139.023438 77.160156 139.003906 77.902344 C 139 78.121094 138.65625 78.125 138.664062 77.902344 C 138.683594 77.171875 138.882812 76.390625 139.011719 75.664062 " fill-opacity="1" fill-rule="nonzero"/><path fill="#d18d56" d="M 206.730469 71.769531 C 206.730469 71.769531 205.070312 73.351562 204.476562 74.863281 C 203.886719 76.371094 201.511719 76.609375 201.050781 77.058594 C 200.59375 77.507812 200.847656 78.648438 199.410156 78.988281 C 197.976562 79.324219 197.066406 77.65625 196.5 77.667969 C 195.929688 77.675781 193.886719 78.183594 192.976562 78.980469 C 192.066406 79.777344 191.375 80.117188 189.929688 80.515625 C 188.484375 80.914062 187.636719 80.671875 187.519531 82.164062 C 187.402344 83.652344 187.851562 84.546875 189.929688 84.546875 C 192.007812 84.546875 205.195312 84.320312 207.015625 84.148438 C 208.832031 83.980469 209.570312 82.957031 209.96875 80.6875 C 210.367188 78.414062 211.21875 77.519531 209.515625 74.09375 C 208.78125 72.625 206.730469 71.769531 206.730469 71.769531 " fill-opacity="1" fill-rule="nonzero"/><path fill="#d18d56" d="M 188.589844 80.8125 C 188.589844 80.8125 186.738281 81.003906 186.523438 82.199219 C 186.3125 83.390625 185.601562 85.519531 185.785156 86.96875 C 185.972656 88.414062 186.609375 89.949219 188.402344 91.097656 C 190.191406 92.25 192.363281 90.671875 193.6875 89.523438 C 195.007812 88.375 196.160156 88.203125 198.417969 87.4375 C 200.675781 86.667969 200.847656 85.277344 201.957031 84.972656 C 203.0625 84.667969 207.53125 84.070312 207.53125 84.070312 C 207.53125 84.070312 203.492188 82.242188 201.871094 82.113281 C 200.25 81.984375 188.589844 80.8125 188.589844 80.8125 " fill-opacity="1" fill-rule="nonzero"/><path fill="#a65d4c" d="M 133.257812 18.925781 C 133.257812 18.925781 133.753906 24.707031 135.351562 24.726562 C 136.949219 24.75 140.316406 21.105469 140.316406 21.105469 L 137.566406 20.914062 L 134.691406 19.550781 L 133.257812 18.925781 " fill-opacity="1" fill-rule="nonzero"/><path fill="#f0dace" d="M 141.800781 21.953125 C 140.804688 23.003906 139.65625 24.054688 138.460938 24.878906 C 137.78125 25.351562 137.0625 25.714844 136.332031 26.09375 C 135.984375 26.273438 135.195312 26.945312 134.8125 26.933594 C 134.769531 26.929688 134.742188 26.945312 134.71875 26.964844 C 134.25 26.59375 133.910156 25.773438 133.65625 25.257812 C 133.421875 24.777344 133.171875 24.304688 132.953125 23.820312 C 132.671875 23.183594 132.453125 22.511719 132.296875 21.835938 C 132.152344 21.222656 131.894531 20.59375 131.992188 19.957031 C 132.027344 19.742188 131.691406 19.675781 131.660156 19.890625 C 131.5625 20.496094 131.753906 21.015625 131.890625 21.597656 C 132.078125 22.382812 132.292969 23.132812 132.605469 23.878906 C 132.824219 24.410156 133.109375 24.917969 133.363281 25.429688 C 133.644531 26 133.988281 26.824219 134.5 27.226562 C 134.574219 27.28125 134.65625 27.265625 134.714844 27.21875 C 134.742188 27.25 134.785156 27.269531 134.835938 27.273438 C 135.285156 27.285156 135.910156 26.707031 136.285156 26.503906 C 137.054688 26.082031 137.828125 25.710938 138.5625 25.222656 C 139.828125 24.386719 141.019531 23.273438 142.058594 22.175781 C 142.210938 22.015625 141.953125 21.792969 141.800781 21.953125 " fill-opacity="1" fill-rule="nonzero"/><path fill="#ffe9de" d="M 126.027344 18.390625 C 126.027344 18.390625 118.363281 20.148438 115.382812 22.875 C 112.398438 25.601562 105.148438 32.566406 105.148438 33.171875 C 105.148438 33.777344 110.523438 40.078125 111.375 40.078125 C 112.226562 40.078125 124.246094 32.160156 124.246094 32.160156 L 126.027344 18.390625 " fill-opacity="1" fill-rule="nonzero"/><path fill="#a65d4c" d="M 101.054688 40.25 C 100.9375 41.171875 100.609375 43.792969 104.160156 46.6875 C 107.710938 49.582031 116.664062 57.152344 116.664062 57.152344 L 118.632812 53.785156 C 118.632812 53.785156 114.582031 47.914062 110.976562 42.304688 C 107.375 36.695312 105.296875 36.347656 103.398438 36.9375 C 101.503906 37.53125 101.171875 39.328125 101.054688 40.25 " fill-opacity="1" fill-rule="nonzero"/><path fill="#a65d4c" d="M 118.058594 52.945312 C 118.058594 52.945312 120.480469 55.574219 120.96875 56.671875 C 121.453125 57.765625 122.101562 60.796875 121.941406 61.328125 C 121.453125 62.949219 119.898438 63.5 119.191406 63.289062 C 117.449219 62.769531 116.554688 60 116.332031 59.320312 C 115.746094 57.535156 116.167969 55.886719 116.167969 55.886719 L 118.058594 52.945312 " fill-opacity="1" fill-rule="nonzero"/><path fill="#a65d4c" d="M 154.746094 46.234375 C 153.914062 45.816406 151.320312 45.050781 147.40625 47.433594 C 143.492188 49.8125 133.578125 55.976562 133.578125 55.976562 L 135.886719 58.699219 C 135.886719 58.699219 142.777344 56.847656 149.269531 55.3125 C 157.238281 53.429688 157.179688 51.492188 157.175781 49.875 C 157.171875 47.890625 155.578125 46.652344 154.746094 46.234375 " fill-opacity="1" fill-rule="nonzero"/><path fill="#a65d4c" d="M 134.039062 55.753906 C 134.039062 55.753906 132.253906 55.164062 131.1875 55.285156 C 130.125 55.402344 127.554688 56.976562 126.8125 57.855469 C 125.984375 58.828125 126.511719 60.1875 127.34375 60.925781 C 127.820312 61.347656 129.886719 61.546875 131.277344 61.398438 C 132.667969 61.253906 136.4375 58.589844 136.4375 58.589844 C 136.4375 58.589844 138.167969 55.726562 137.988281 55.578125 C 137.8125 55.433594 134.039062 55.753906 134.039062 55.753906 " fill-opacity="1" fill-rule="nonzero"/><path fill="#f0dace" d="M 121.972656 20.867188 C 121.972656 20.644531 121.640625 20.644531 121.632812 20.867188 C 121.582031 22.089844 121.214844 23.375 120.925781 24.566406 C 120.648438 25.730469 120.335938 26.890625 119.914062 28.011719 C 119.570312 28.921875 119.292969 29.863281 118.957031 30.777344 C 118.773438 31.269531 118.582031 31.757812 118.34375 32.222656 C 118.164062 32.585938 117.894531 32.890625 117.773438 33.277344 C 117.707031 33.488281 118.039062 33.578125 118.101562 33.367188 C 118.261719 32.855469 118.65625 32.386719 118.882812 31.890625 C 119.050781 31.515625 119.191406 31.128906 119.332031 30.742188 C 119.703125 29.730469 120.058594 28.710938 120.414062 27.695312 C 120.792969 26.609375 121.078125 25.460938 121.328125 24.339844 C 121.566406 23.296875 121.871094 22.210938 121.953125 21.136719 C 121.964844 21.113281 121.972656 21.089844 121.972656 21.058594 L 121.972656 20.867188 " fill-opacity="1" fill-rule="nonzero"/><path fill="#f0dace" d="M 122.316406 25.03125 C 122.316406 25.6875 122.03125 26.503906 121.882812 27.136719 C 121.703125 27.910156 121.480469 28.632812 121.199219 29.378906 C 120.886719 30.214844 120.480469 31.007812 120.019531 31.773438 C 119.816406 32.105469 119.59375 32.429688 119.378906 32.757812 C 119.097656 33.179688 118.863281 33.8125 118.421875 34.085938 C 118.234375 34.199219 118.40625 34.492188 118.59375 34.378906 C 119.222656 33.992188 119.507812 33.1875 119.90625 32.585938 C 120.46875 31.734375 120.976562 30.839844 121.367188 29.894531 C 121.703125 29.074219 122.007812 28.226562 122.1875 27.355469 C 122.34375 26.597656 122.65625 25.808594 122.65625 25.03125 C 122.65625 24.8125 122.316406 24.8125 122.316406 25.03125 " fill-opacity="1" fill-rule="nonzero"/><path fill="#f0dace" d="M 149.265625 24.753906 C 149.234375 24.761719 149.207031 24.769531 149.175781 24.777344 C 149.117188 24.789062 149.070312 24.839844 149.054688 24.894531 C 148.734375 26.164062 148.25 27.386719 147.925781 28.648438 C 147.5625 30.046875 147.242188 31.472656 146.929688 32.878906 C 146.644531 34.152344 146.550781 35.347656 146.429688 36.632812 C 146.355469 37.382812 146.402344 38.113281 146.28125 38.863281 C 146.191406 39.394531 146.101562 39.941406 146.070312 40.476562 C 146.058594 40.695312 146.402344 40.695312 146.414062 40.476562 C 146.449219 39.820312 146.601562 39.148438 146.6875 38.496094 C 146.777344 37.824219 146.707031 37.144531 146.792969 36.472656 C 146.871094 35.824219 146.832031 35.179688 146.933594 34.53125 C 147.035156 33.910156 147.183594 33.292969 147.324219 32.675781 C 147.621094 31.367188 147.914062 30.042969 148.253906 28.742188 C 148.421875 28.089844 148.695312 27.472656 148.886719 26.828125 C 148.960938 26.566406 149.179688 25.125 149.355469 25.082031 C 149.570312 25.03125 149.480469 24.703125 149.265625 24.753906 " fill-opacity="1" fill-rule="nonzero"/><path fill="#f0dace" d="M 142.117188 32.214844 C 141.605469 32.902344 141.046875 33.5625 140.527344 34.25 C 140.039062 34.894531 139.675781 35.59375 139.265625 36.289062 C 138.261719 37.972656 137.25 39.726562 135.9375 41.195312 C 134.820312 42.441406 133.855469 43.789062 132.769531 45.0625 C 132.144531 45.789062 131.414062 46.425781 130.734375 47.097656 C 130.476562 47.355469 130.175781 47.601562 129.953125 47.894531 C 129.707031 48.214844 129.578125 48.566406 129.296875 48.875 C 129.152344 49.035156 129.394531 49.277344 129.539062 49.113281 C 130.058594 48.539062 130.414062 47.894531 130.976562 47.339844 C 131.65625 46.667969 132.386719 46.027344 133.007812 45.300781 C 133.558594 44.664062 134.023438 43.953125 134.550781 43.296875 C 135.125 42.578125 135.78125 41.910156 136.375 41.207031 C 137.550781 39.816406 138.460938 38.238281 139.414062 36.695312 C 139.921875 35.878906 140.355469 35.0625 140.929688 34.289062 C 141.40625 33.640625 141.929688 33.03125 142.410156 32.386719 C 142.542969 32.210938 142.246094 32.039062 142.117188 32.214844 " fill-opacity="1" fill-rule="nonzero"/><path fill="#8997b0" d="M 140.609375 141.277344 C 140.453125 140.820312 140.035156 140.445312 139.726562 140.070312 C 139.210938 139.445312 138.824219 138.777344 138.367188 138.109375 C 137.480469 136.828125 136.664062 135.496094 135.949219 134.105469 C 135.15625 132.574219 134.40625 130.96875 133.777344 129.363281 C 133.238281 127.988281 132.785156 126.566406 132.179688 125.222656 C 132.089844 125.023438 131.796875 125.199219 131.886719 125.394531 C 132.566406 126.910156 133.035156 128.527344 133.695312 130.054688 C 134.285156 131.425781 134.902344 132.804688 135.582031 134.136719 C 136.265625 135.484375 137.039062 136.808594 137.90625 138.046875 C 138.289062 138.59375 138.585938 139.203125 138.980469 139.738281 C 139.230469 140.074219 139.527344 140.386719 139.785156 140.714844 C 139.914062 140.882812 140.214844 141.179688 140.28125 141.367188 C 140.351562 141.574219 140.679688 141.484375 140.609375 141.277344 " fill-opacity="1" fill-rule="nonzero"/><path fill="#8997b0" d="M 137.496094 139.726562 C 136.988281 139.140625 136.617188 138.453125 136.199219 137.804688 C 135.8125 137.199219 135.644531 136.5 135.25 135.898438 C 135.128906 135.714844 134.835938 135.886719 134.957031 136.070312 C 135.390625 136.734375 135.609375 137.511719 136.042969 138.1875 C 136.433594 138.792969 136.78125 139.421875 137.253906 139.964844 C 137.398438 140.132812 137.640625 139.890625 137.496094 139.726562 " fill-opacity="1" fill-rule="nonzero"/><path fill="#8997b0" d="M 118.273438 98.160156 C 117.78125 98.578125 117.210938 98.90625 116.75 99.347656 C 116.28125 99.796875 115.867188 100.332031 115.40625 100.796875 C 114.371094 101.839844 113.324219 102.851562 112.246094 103.851562 C 111.265625 104.761719 110.214844 105.671875 109.152344 106.5 C 108.585938 106.9375 108.019531 107.363281 107.40625 107.734375 C 106.894531 108.042969 106.308594 108.527344 105.730469 108.679688 C 105.519531 108.734375 105.609375 109.0625 105.820312 109.007812 C 106.355469 108.867188 106.851562 108.457031 107.324219 108.175781 C 107.941406 107.808594 108.511719 107.417969 109.082031 106.980469 C 109.632812 106.558594 110.117188 106.097656 110.636719 105.640625 C 111.128906 105.210938 111.664062 104.902344 112.128906 104.4375 C 113.210938 103.359375 114.351562 102.347656 115.429688 101.261719 C 115.851562 100.832031 116.308594 100.421875 116.699219 99.960938 C 117.210938 99.355469 117.902344 98.917969 118.511719 98.402344 C 118.679688 98.261719 118.4375 98.019531 118.273438 98.160156 " fill-opacity="1" fill-rule="nonzero"/></svg>