<svg xmlns="http://www.w3.org/2000/svg" xmlns:xlink="http://www.w3.org/1999/xlink" width="360" zoomAndPan="magnify" viewBox="0 0 270 149.999998" height="200" preserveAspectRatio="xMidYMid meet" version="1.0"><defs><clipPath id="7b6b8219ab"><path d="M 99.28125 96 L 146 96 L 146 140 L 99.28125 140 Z M 99.28125 96 " clip-rule="nonzero"/></clipPath><clipPath id="dad70deca1"><path d="M 156 23 L 170.53125 23 L 170.53125 46 L 156 46 Z M 156 23 " clip-rule="nonzero"/></clipPath></defs><path fill="#ffc7ad" d="M 127.777344 35.636719 C 127.449219 35.496094 127.152344 35.296875 126.898438 35.035156 C 126.546875 34.667969 126.109375 34.410156 125.671875 34.160156 C 124.429688 33.4375 123.191406 32.714844 121.949219 31.992188 C 121.746094 31.875 121.46875 31.761719 121.28125 31.9375 C 121.199219 32.015625 121.160156 32.128906 121.144531 32.242188 C 121.101562 32.582031 121.257812 32.914062 121.480469 33.148438 C 121.703125 33.382812 121.988281 33.542969 122.253906 33.714844 C 122.699219 34.011719 123.109375 34.359375 123.480469 34.75 C 123.511719 34.789062 123.546875 34.828125 123.546875 34.878906 C 123.554688 34.972656 123.449219 35.039062 123.359375 35.074219 C 122.960938 35.230469 122.542969 35.300781 122.128906 35.320312 C 121.910156 35.328125 121.695312 35.324219 121.484375 35.308594 C 121.285156 35.292969 121.09375 35.339844 120.902344 35.3125 C 119.878906 35.148438 118.886719 34.789062 117.839844 34.8125 C 117.488281 34.820312 116.894531 35.089844 117.300781 35.492188 C 117.636719 35.824219 118.117188 35.929688 118.574219 36.042969 C 119.128906 36.179688 119.679688 36.335938 120.222656 36.523438 C 120.347656 36.566406 120.472656 36.621094 120.605469 36.652344 C 120.667969 36.667969 120.789062 36.652344 120.832031 36.703125 C 121.089844 37 120.125 37.082031 120.007812 37.105469 C 119.539062 37.195312 119.074219 37.28125 118.609375 37.367188 C 118.082031 37.464844 117.507812 37.59375 117.15625 38.035156 C 117.042969 38.179688 116.960938 38.3125 117.054688 38.457031 C 117.125 38.566406 117.300781 38.65625 117.421875 38.6875 C 117.6875 38.761719 117.976562 38.683594 118.257812 38.617188 C 118.9375 38.457031 119.625 38.351562 120.3125 38.304688 C 120.628906 38.285156 121 38.242188 121.3125 38.28125 C 121.722656 38.332031 121.402344 38.628906 121.15625 38.707031 C 120.617188 38.875 120.0625 39.027344 119.558594 39.320312 C 119.351562 39.441406 119.058594 39.621094 118.902344 39.820312 C 118.714844 40.0625 118.929688 40.292969 119.160156 40.328125 C 119.390625 40.367188 119.628906 40.289062 119.859375 40.214844 C 120.414062 40.039062 120.96875 39.859375 121.523438 39.679688 C 121.75 39.605469 122.039062 39.453125 122.273438 39.449219 C 122.449219 39.441406 122.59375 39.542969 122.460938 39.730469 C 122.28125 39.988281 121.988281 40.128906 121.753906 40.328125 C 121.589844 40.472656 121.449219 40.644531 121.347656 40.839844 C 121.296875 40.929688 121.261719 41.046875 121.320312 41.121094 C 121.371094 41.175781 121.457031 41.171875 121.53125 41.160156 C 121.941406 41.105469 122.375 41.007812 122.734375 40.761719 C 123.125 40.492188 123.613281 40.316406 124.039062 40.136719 C 124.886719 39.769531 125.722656 39.554688 126.640625 39.480469 C 127.394531 39.417969 128.148438 39.523438 128.910156 39.433594 C 129.15625 39.40625 129.410156 39.359375 129.613281 39.214844 C 129.980469 38.945312 130.0625 38.4375 130.117188 37.984375 C 130.167969 37.535156 130.238281 36.925781 130.132812 36.480469 C 130.089844 36.296875 129.996094 36.121094 129.839844 36.015625 C 129.617188 35.867188 129.328125 35.890625 129.058594 35.890625 C 128.613281 35.890625 128.175781 35.808594 127.777344 35.636719 " fill-opacity="1" fill-rule="nonzero"/><path fill="#cddcfb" d="M 151.597656 19.128906 C 149.996094 18.433594 148.0625 19.019531 146.734375 20.160156 C 144.273438 22.285156 141.046875 32.574219 140.75 33.300781 C 140.570312 33.742188 140.375 34.207031 140 34.5 C 139.621094 34.804688 139.117188 34.886719 138.628906 34.910156 C 136.957031 34.992188 130.832031 34.777344 129.460938 34.816406 C 128.757812 34.832031 127.742188 34.734375 127.089844 35.054688 C 126.320312 35.4375 127.25 39.804688 127.503906 39.878906 C 128.164062 40.074219 133.195312 41.285156 135.054688 41.6875 C 135.707031 41.828125 140.941406 42.511719 142.175781 42.191406 C 143.269531 41.90625 143.996094 41.445312 144.722656 40.894531 C 146.242188 39.75 146.753906 38.019531 147.503906 36.34375 C 148.421875 34.300781 149.207031 32.1875 150.015625 30.101562 C 150.644531 28.496094 151.597656 26.722656 151.839844 25.007812 C 151.933594 24.328125 152.097656 23.65625 152.347656 23.015625 C 152.542969 22.515625 152.996094 22.109375 153.167969 21.648438 C 153.558594 20.617188 152.46875 19.503906 151.597656 19.128906 " fill-opacity="1" fill-rule="nonzero"/><path fill="#7a472d" d="M 164.65625 9.574219 C 164.171875 10.144531 163.574219 10.59375 162.886719 10.84375 C 161.097656 11.5 161.25 10.753906 160.316406 9.699219 C 159.160156 8.394531 157.78125 8.394531 156.46875 7.414062 C 155.574219 6.746094 155.234375 5.371094 155.695312 4.292969 C 156.023438 3.523438 156.671875 2.964844 157.335938 2.492188 C 160.15625 0.5 164.289062 -0.0078125 165.769531 3.96875 C 166.433594 5.75 165.933594 8.078125 164.65625 9.574219 " fill-opacity="1" fill-rule="nonzero"/><path fill="#dae8fd" d="M 161.210938 109.476562 C 161.199219 109.683594 161.164062 109.886719 161.097656 110.085938 C 160.949219 110.507812 160.675781 110.882812 160.480469 111.285156 C 159.964844 112.359375 159.253906 113.320312 158.613281 114.316406 C 157.878906 115.449219 157.136719 116.585938 156.402344 117.722656 C 155.871094 118.542969 155.558594 119.351562 155.199219 120.25 C 155.0625 120.589844 154.96875 120.972656 155.078125 121.324219 C 155.148438 121.550781 155.292969 121.742188 155.457031 121.914062 C 156.222656 122.722656 157.484375 123.105469 158.558594 123.222656 C 159.167969 123.289062 159.765625 123.449219 160.359375 123.214844 C 160.933594 122.988281 161.320312 122.445312 161.746094 122.03125 C 162.753906 121.046875 163.222656 119.703125 163.746094 118.4375 C 163.9375 117.980469 164.273438 117.585938 164.644531 117.257812 C 165.351562 116.625 166.183594 116.230469 166.625 115.355469 C 167.125 114.375 167.417969 113.105469 167.03125 112.042969 C 166.605469 110.871094 166.515625 109.507812 166.308594 108.269531 C 166.253906 107.925781 166.1875 107.566406 165.96875 107.296875 C 165.589844 106.828125 165.050781 106.597656 164.460938 106.519531 C 163.960938 106.457031 163.457031 106.496094 162.953125 106.535156 C 162.535156 106.566406 162.085938 106.609375 161.75 106.867188 C 161.25 107.253906 161.179688 107.980469 161.199219 108.617188 C 161.210938 108.898438 161.226562 109.1875 161.210938 109.476562 " fill-opacity="1" fill-rule="nonzero"/><path fill="#dae8fd" d="M 151.785156 104.535156 C 151.261719 104.917969 150.796875 105.371094 150.285156 105.769531 C 149.777344 106.160156 149.246094 106.472656 148.746094 106.875 C 147.644531 107.765625 146.507812 108.601562 145.328125 109.378906 C 144.4375 109.96875 143.519531 110.527344 142.695312 111.207031 C 142.050781 111.734375 141.460938 112.347656 141.023438 113.058594 C 140.78125 113.453125 140.6875 113.675781 140.816406 114.132812 C 140.929688 114.53125 141.152344 114.898438 141.382812 115.242188 C 141.816406 115.902344 142.324219 116.566406 143.050781 116.863281 C 143.753906 117.148438 144.558594 117.042969 145.265625 116.773438 C 146.328125 116.371094 147.46875 115.585938 148.191406 114.707031 C 148.964844 113.761719 149.855469 113.007812 151.007812 112.5625 C 151.921875 112.210938 152.933594 112.0625 153.734375 111.5 C 154.445312 111 154.898438 110.179688 155.007812 109.320312 C 155.132812 108.320312 154.726562 107.316406 154.792969 106.304688 C 154.832031 105.65625 154.039062 103.371094 153.5 103.316406 C 152.894531 103.253906 152.289062 103.488281 151.816406 103.863281 L 151.785156 104.535156 " fill-opacity="1" fill-rule="nonzero"/><path fill="#275ebe" d="M 143.660156 66.011719 C 143.679688 66.335938 143.703125 66.660156 143.730469 66.980469 C 144.074219 71.25 145 75.386719 145.894531 79.5625 C 146.308594 81.5 146.386719 86.476562 149.71875 85.578125 C 151.351562 85.140625 154.179688 82.25 154.425781 78.683594 C 154.558594 76.761719 154.449219 74.023438 154.550781 72.097656 C 154.753906 68.117188 152.570312 54.9375 152.570312 54.9375 C 152.570312 54.9375 145.195312 52.390625 144.871094 53.167969 C 144.238281 54.667969 144.140625 56.238281 143.945312 57.597656 C 143.546875 60.378906 143.484375 63.207031 143.660156 66.011719 " fill-opacity="1" fill-rule="nonzero"/><path fill="#275ebe" d="M 145.261719 74.996094 C 145.628906 79.34375 146.511719 83.628906 147.285156 87.917969 C 148.097656 92.414062 148.421875 96.800781 148.25 101.375 C 148.210938 102.421875 148.164062 103.464844 148.121094 104.511719 C 148.070312 105.761719 148.113281 107.207031 149.089844 107.984375 C 150.277344 108.933594 152.042969 108.554688 153.351562 108.09375 C 153.835938 107.921875 154.734375 107.6875 155.035156 107.226562 C 155.445312 106.59375 155.195312 105.375 155.148438 104.675781 C 154.777344 99.476562 156.308594 94.457031 156.167969 89.261719 C 156.074219 85.871094 155.28125 82.921875 153.871094 79.851562 C 153.53125 79.109375 153.035156 78.308594 152.234375 78.171875 L 145.261719 74.996094 " fill-opacity="1" fill-rule="nonzero"/><path fill="#3574e0" d="M 166.75 60.023438 C 166.296875 57.019531 165.511719 53.625 163.828125 51.875 C 163.828125 51.875 155.949219 56.816406 149.671875 54.957031 C 149 54.753906 149.738281 55.628906 149.925781 56.320312 C 150.355469 57.875 150.78125 59.429688 151.210938 60.984375 C 152.144531 64.375 153.53125 67.925781 154.007812 71.394531 C 154.523438 75.125 154.996094 78.855469 155.742188 82.546875 C 156.078125 84.214844 157.089844 85.851562 157.945312 87.242188 C 158.9375 88.871094 159.890625 89.75 161.515625 89.460938 C 162.25 89.328125 163.472656 88.402344 163.84375 87.746094 C 164.097656 87.28125 164.1875 86.652344 164.3125 86.140625 C 164.976562 83.441406 165.214844 80.746094 165.476562 77.996094 C 165.75 75.109375 165.902344 72.210938 166.140625 69.320312 C 166.386719 66.292969 167.203125 63.027344 166.75 60.023438 " fill-opacity="1" fill-rule="nonzero"/><path fill="#3574e0" d="M 155.691406 81.117188 C 155.765625 81.128906 156.210938 83.625 156.289062 83.890625 C 156.542969 84.789062 156.855469 85.671875 157.179688 86.546875 C 157.835938 88.3125 158.652344 90.085938 159.066406 91.929688 C 159.976562 95.976562 160.308594 100.332031 160.140625 104.484375 C 160.105469 105.402344 160.039062 106.316406 159.949219 107.226562 C 159.84375 108.273438 159.707031 109.351562 159.992188 110.363281 C 160.40625 111.839844 161.738281 112.4375 163.109375 112.761719 C 163.679688 112.894531 164.273438 112.960938 164.851562 112.871094 C 165.605469 112.75 166.617188 112.492188 167.058594 111.824219 C 167.332031 111.40625 167.445312 110.910156 167.53125 110.421875 C 167.792969 108.898438 167.785156 107.34375 167.71875 105.804688 C 167.660156 104.410156 167.871094 103.085938 167.992188 101.691406 C 168.257812 98.636719 168.429688 95.554688 168.082031 92.5 C 167.703125 89.125 166.480469 85.613281 164.902344 82.621094 C 164.523438 81.902344 164.484375 82.792969 163.675781 82.699219 L 155.691406 81.117188 " fill-opacity="1" fill-rule="nonzero"/><path fill="#f3a984" d="M 164.644531 22.183594 C 162.859375 21.371094 159.59375 19.769531 157.835938 18.5625 C 157.578125 18.386719 156.394531 19.164062 156.089844 19.097656 C 153.8125 18.617188 151.386719 18.722656 149.273438 19.65625 L 149.203125 19.691406 L 149.203125 33.710938 L 162.609375 33.710938 L 164.644531 22.183594 " fill-opacity="1" fill-rule="nonzero"/><path fill="#f3a984" d="M 159.59375 21.113281 C 159.59375 21.113281 151.253906 25.316406 151.652344 20.671875 C 152.210938 14.203125 152.621094 13.480469 155.515625 12.644531 C 156.308594 12.414062 156.621094 11.746094 157.441406 11.777344 C 160.433594 11.898438 159.179688 13.464844 159 14.601562 C 158.460938 17.96875 159.648438 19.332031 159.59375 21.113281 " fill-opacity="1" fill-rule="nonzero"/><path fill="#dae8fd" d="M 152.058594 18.605469 C 152.023438 18.609375 151.984375 18.609375 151.945312 18.609375 C 152.277344 18.507812 152.46875 18.597656 152.058594 18.605469 " fill-opacity="1" fill-rule="nonzero"/><path fill="#dae8fd" d="M 168.933594 27.011719 C 168.949219 27.269531 168.953125 27.535156 168.941406 27.816406 C 168.910156 28.589844 168.707031 29.339844 168.535156 30.09375 C 168.335938 30.980469 167.910156 31.785156 167.429688 32.554688 C 166.925781 33.367188 166.511719 34.195312 166.011719 35.015625 C 163.871094 38.503906 162.589844 42.140625 163.4375 46.242188 C 163.90625 48.53125 164.785156 50.710938 165.472656 52.941406 C 165.808594 54.039062 166.269531 55.246094 166.355469 56.398438 C 166.414062 57.222656 165.078125 58.039062 164.433594 58.46875 C 162.722656 59.601562 160.71875 60.222656 158.71875 60.578125 C 155.085938 61.222656 151.316406 61.074219 147.746094 60.140625 C 146.390625 59.789062 145.054688 59.296875 143.988281 58.355469 C 143.230469 57.6875 143.605469 56.175781 143.660156 55.234375 C 143.816406 52.550781 144.082031 49.839844 144.6875 47.21875 C 145.203125 44.992188 145.589844 42.582031 144.972656 40.308594 C 144.050781 36.917969 142.363281 34.304688 143.535156 30.703125 C 143.898438 29.59375 144.644531 28.546875 145.101562 27.433594 C 146.796875 23.363281 145.730469 18.832031 151.941406 18.609375 C 151.558594 18.726562 147.960938 24.800781 152.292969 26.582031 C 155.082031 27.730469 160.613281 24.667969 161.898438 20.863281 C 163.742188 21.726562 165.410156 22.273438 166.945312 23.410156 C 168.25 24.375 168.839844 25.523438 168.933594 27.011719 " fill-opacity="1" fill-rule="nonzero"/><path fill="#ffc7ad" d="M 156.363281 16.890625 C 156.601562 16.6875 156.839844 16.476562 157.074219 16.265625 C 157.871094 15.523438 158.78125 14.664062 159.339844 13.722656 C 161.128906 10.703125 161.230469 6.648438 158.710938 4.003906 C 156.921875 2.128906 154.070312 1.34375 151.578125 2.042969 C 150.902344 2.234375 150.257812 2.519531 149.632812 2.839844 C 149.09375 3.113281 148.558594 3.421875 148.144531 3.867188 C 147.875 4.160156 147.667969 4.503906 147.476562 4.851562 C 147.132812 5.480469 146.949219 6.101562 146.753906 6.785156 C 146.648438 7.160156 146.683594 7.558594 146.683594 7.949219 C 146.683594 8.632812 146.734375 9.296875 146.867188 9.972656 C 146.976562 10.527344 147.050781 11.089844 147.066406 11.652344 C 147.078125 12.226562 146.800781 12.710938 146.617188 13.242188 C 146.507812 13.566406 146.316406 14.074219 146.414062 14.398438 C 146.519531 14.757812 146.90625 15.046875 147.082031 15.371094 C 147.277344 15.71875 147.332031 15.980469 147.351562 16.386719 C 147.359375 16.644531 147.449219 16.8125 147.546875 17.042969 C 147.632812 17.238281 147.585938 17.378906 147.617188 17.574219 C 147.648438 17.804688 147.828125 18.003906 147.910156 18.21875 C 148.003906 18.460938 148.082031 18.695312 148.207031 18.925781 C 148.949219 20.269531 150.03125 20.359375 151.371094 19.835938 C 153.183594 19.132812 154.875 18.128906 156.363281 16.890625 " fill-opacity="1" fill-rule="nonzero"/><path fill="#a26749" d="M 162.976562 7.992188 C 162.941406 7.371094 162.828125 6.75 162.636719 6.152344 C 162.453125 5.574219 162.195312 5.023438 161.878906 4.511719 C 161.71875 4.246094 161.542969 3.972656 161.335938 3.738281 C 161.148438 3.53125 160.75 3.308594 160.648438 3.054688 C 160.632812 3.019531 159.5625 0.359375 154.628906 0.359375 C 152.769531 0.359375 150.949219 1.039062 149.375 2.015625 C 148.261719 2.707031 147.574219 3.328125 147.042969 4.554688 C 146.515625 5.765625 146.25 7.097656 146.289062 8.417969 C 146.292969 8.617188 146.3125 8.835938 146.449219 8.980469 C 146.65625 9.199219 147.011719 9.144531 147.300781 9.074219 C 148.394531 8.789062 149.308594 8.425781 150.269531 7.875 C 150.71875 7.617188 151.902344 7.066406 152.425781 7.308594 C 152.859375 7.503906 152.535156 8.628906 152.699219 9.128906 C 152.90625 9.761719 153.308594 10.332031 153.855469 10.714844 C 154.320312 11.039062 154.871094 11.199219 155.339844 11.515625 C 155.753906 11.800781 156.058594 12.25 156.160156 12.742188 C 156.207031 12.964844 156.214844 13.191406 156.277344 13.410156 C 156.3125 13.523438 156.367188 13.636719 156.445312 13.730469 C 156.519531 13.816406 156.65625 13.855469 156.714844 13.941406 C 156.773438 14.03125 156.769531 14.1875 156.824219 14.289062 C 156.886719 14.402344 156.972656 14.5 157.085938 14.5625 C 157.730469 14.949219 159.507812 13.464844 159.414062 13.621094 C 158.988281 14.347656 159.046875 14.222656 158.890625 15.503906 C 160.9375 14.285156 162.507812 12.089844 162.890625 9.707031 C 162.984375 9.140625 163.011719 8.566406 162.976562 7.992188 " fill-opacity="1" fill-rule="nonzero"/><path fill="#ffc7ad" d="M 158.765625 11.179688 C 160.0625 11.097656 160.386719 12.714844 159.488281 13.957031 C 159.230469 14.320312 158.769531 14.640625 158.425781 14.929688 C 156.09375 16.902344 155.519531 14.753906 156.261719 14.082031 C 157.984375 12.519531 157.132812 11.285156 158.765625 11.179688 " fill-opacity="1" fill-rule="nonzero"/><path fill="#f3a984" d="M 157.925781 14.132812 C 158.074219 13.996094 159.554688 13.128906 158.550781 12.527344 C 158.273438 12.363281 157.960938 12.605469 157.917969 12.902344 C 157.894531 13.054688 157.941406 13.214844 157.917969 13.367188 C 157.90625 13.457031 157.867188 13.542969 157.816406 13.621094 C 157.683594 13.835938 157.238281 14.039062 157.324219 14.351562 C 157.402344 14.628906 157.839844 14.210938 157.925781 14.132812 " fill-opacity="1" fill-rule="nonzero"/><path fill="#f3a984" d="M 133.972656 49.46875 C 135.640625 48.859375 137.703125 50.527344 137.53125 52.382812 C 137.410156 53.695312 133.027344 60.214844 131.160156 62.871094 C 129.257812 65.566406 125.875 71.476562 125.578125 71.917969 C 124.945312 72.84375 123.996094 72.898438 122.980469 72.578125 C 121.78125 72.203125 120.878906 71.160156 120.402344 69.992188 C 119.445312 67.652344 120.25 65.609375 121.402344 63.554688 C 122.238281 62.0625 123.5 60.683594 124.574219 59.351562 C 126.105469 57.449219 127.710938 55.605469 129.390625 53.828125 C 130.167969 53.003906 131.101562 52.230469 131.777344 51.324219 C 132.359375 50.542969 133.019531 49.816406 133.972656 49.46875 " fill-opacity="1" fill-rule="nonzero"/><g clip-path="url(#7b6b8219ab)"><path fill="#fe443e" d="M 145.773438 117.96875 C 145.773438 105.945312 135.386719 96.203125 122.574219 96.203125 C 109.761719 96.203125 99.375 105.945312 99.375 117.96875 C 99.375 129.988281 109.761719 139.730469 122.574219 139.730469 C 135.386719 139.730469 145.773438 129.988281 145.773438 117.96875 " fill-opacity="1" fill-rule="nonzero"/></g><path fill="#ee342e" d="M 126.910156 96.582031 C 128.425781 97.9375 129.835938 99.460938 131.113281 101.140625 C 139.089844 111.804688 133.992188 126.460938 122.917969 131.570312 C 115.917969 134.796875 106.976562 131.214844 100.929688 125.808594 C 104.285156 133.953125 112.710938 139.730469 122.574219 139.730469 C 135.386719 139.730469 145.773438 129.988281 145.773438 117.96875 C 145.773438 107.335938 137.648438 98.488281 126.910156 96.582031 " fill-opacity="1" fill-rule="nonzero"/><path fill="#222229" d="M 121.800781 104.339844 C 123.855469 105.78125 126.082031 106.652344 128.5 107.289062 C 131.074219 107.972656 133.648438 108.652344 136.21875 109.332031 C 138.820312 110.019531 141.367188 110.625 144.097656 110.414062 C 145.929688 110.269531 149.3125 109.585938 149.550781 107.359375 C 149.753906 105.492188 148.292969 103.871094 146.796875 102.734375 C 143.746094 100.421875 140.167969 98.992188 136.636719 97.59375 C 134.855469 96.886719 133.070312 96.1875 131.335938 95.371094 C 129.71875 94.613281 128.398438 93.703125 126.972656 92.625 C 125.863281 91.785156 124.5625 91.039062 123.171875 91.121094 C 121.8125 91.203125 120.589844 92.101562 119.882812 93.265625 C 119.179688 94.433594 118.945312 95.832031 118.96875 97.195312 C 119.007812 99.46875 119.8125 102.9375 121.800781 104.339844 " fill-opacity="1" fill-rule="nonzero"/><path fill="#f3a984" d="M 141.871094 118.992188 C 142.742188 121.996094 144.179688 125.886719 144.582031 128.988281 C 144.746094 130.25 144.777344 131.582031 145.410156 132.683594 C 146.042969 133.785156 147.566406 134.511719 148.609375 133.785156 C 149.40625 133.230469 149.589844 130.449219 149.679688 129.476562 C 150.355469 122 150.859375 115.140625 149.765625 107.710938 C 149.699219 107.253906 149.449219 106.84375 149.320312 106.394531 C 149.121094 105.695312 148.976562 104.988281 148.433594 104.523438 C 147.15625 103.433594 145.089844 103.875 143.867188 105.023438 C 142.210938 106.585938 141.847656 108.652344 141.460938 110.765625 C 140.9375 113.628906 141.054688 116.175781 141.871094 118.992188 " fill-opacity="1" fill-rule="nonzero"/><path fill="#2e2e37" d="M 111.097656 109.410156 C 112.859375 111.203125 114.894531 112.460938 117.152344 113.523438 C 119.566406 114.660156 121.972656 115.796875 124.382812 116.929688 C 126.140625 117.757812 127.898438 118.585938 129.714844 119.261719 C 131.183594 119.808594 132.746094 120.261719 134.296875 120.070312 C 135.855469 119.878906 137.402344 118.90625 137.851562 117.398438 C 138.382812 115.597656 137.242188 113.738281 135.972656 112.351562 C 133.390625 109.527344 130.121094 107.472656 126.902344 105.460938 C 125.277344 104.441406 123.648438 103.433594 122.089844 102.316406 C 120.632812 101.273438 119.5 100.140625 118.292969 98.824219 C 117.347656 97.796875 116.203125 96.828125 114.824219 96.65625 C 113.472656 96.492188 112.105469 97.152344 111.203125 98.171875 C 110.300781 99.191406 109.816406 100.527344 109.59375 101.875 C 109.222656 104.117188 109.394531 107.671875 111.097656 109.410156 " fill-opacity="1" fill-rule="nonzero"/><path fill="#ffc7ad" d="M 144.09375 148.101562 C 144.222656 147.074219 142.164062 145.898438 141.609375 145.425781 C 141.109375 145.007812 139.21875 143.667969 138.832031 143.285156 C 138.214844 142.671875 137.511719 141.96875 136.988281 141.273438 C 136.382812 140.46875 136.488281 139.316406 136.582031 138.371094 C 136.964844 134.394531 137.039062 129.457031 137.199219 125.464844 C 137.292969 123.175781 137.800781 120.980469 138.03125 118.703125 C 138.191406 117.109375 138.058594 115.398438 137.144531 114.085938 C 136.230469 112.773438 134.351562 112.046875 132.960938 112.832031 C 131.210938 113.8125 131.144531 116.066406 130.46875 117.722656 C 129.410156 120.316406 128.910156 123.144531 129.226562 125.941406 C 129.539062 128.730469 130.765625 132.34375 131.253906 135.113281 C 131.421875 136.074219 131.613281 137.074219 131.636719 138.054688 C 131.652344 138.707031 131.53125 139.386719 131.453125 140.03125 C 131.402344 140.433594 131.382812 140.878906 131.265625 141.269531 C 131.109375 141.8125 130.972656 142.328125 131.019531 142.90625 C 131.078125 143.703125 131.488281 144.398438 132.074219 144.925781 C 132.460938 145.273438 132.90625 145.542969 133.371094 145.765625 C 133.800781 145.972656 134.160156 146.207031 134.554688 146.476562 C 135.023438 146.792969 135.460938 147.15625 135.851562 147.566406 C 136.246094 147.980469 136.582031 148.421875 137.070312 148.730469 C 137.933594 149.273438 138.902344 149.664062 139.910156 149.824219 C 140.917969 149.984375 142.054688 149.339844 143 149.019531 C 143.332031 148.90625 143.683594 148.78125 143.910156 148.507812 C 144.019531 148.378906 144.078125 148.238281 144.09375 148.101562 " fill-opacity="1" fill-rule="nonzero"/><path fill="#2e2e37" d="M 136.511719 139.316406 C 136.519531 138.992188 137.226562 129.613281 137.390625 125.621094 C 137.484375 123.332031 137.800781 120.980469 138.03125 118.703125 C 138.148438 117.558594 138.160156 116.335938 137.789062 115.261719 C 137.644531 114.839844 137.402344 114.457031 137.144531 114.085938 C 136.230469 112.773438 134.382812 111.722656 132.988281 112.507812 C 131.242188 113.492188 130.746094 115.84375 130.070312 117.5 C 129.015625 120.09375 128.910156 123.144531 129.226562 125.941406 C 129.539062 128.730469 130.765625 132.34375 131.253906 135.113281 C 131.421875 136.074219 131.429688 138.628906 131.371094 139.191406 C 132.902344 139.878906 135.046875 140.070312 136.511719 139.316406 " fill-opacity="1" fill-rule="nonzero"/><path fill="#d6af75" d="M 123.03125 69.585938 C 122.859375 70.550781 122.164062 71.328125 121.804688 72.242188 C 120.984375 74.332031 120.75 76.667969 122.476562 78.375 C 122.71875 78.617188 123.042969 78.84375 123.378906 78.773438 C 123.867188 78.664062 124 78.054688 124.296875 77.652344 C 124.59375 77.25 124.953125 77.324219 125.285156 77.082031 C 125.601562 76.855469 125.722656 76.351562 125.839844 76.003906 C 126.207031 74.914062 125.933594 73.675781 125.753906 72.570312 C 125.4375 70.597656 125.386719 66.347656 125.671875 64.34375 C 127.121094 54.234375 123.03125 49.898438 123.03125 49.898438 C 123.03125 49.898438 123.730469 55.539062 123.597656 56.039062 C 122.824219 58.976562 123.460938 67.203125 123.03125 69.585938 " fill-opacity="1" fill-rule="nonzero"/><path fill="#f3a984" d="M 115.902344 65.589844 C 114.402344 65.957031 112.882812 66.40625 111.46875 67.050781 L 111.46875 79.386719 L 121.273438 79.386719 L 121.273438 65.589844 L 115.902344 65.589844 " fill-opacity="1" fill-rule="nonzero"/><path fill="#dae8fd" d="M 106.652344 72.910156 C 106.75 73.941406 107.148438 74.976562 107.519531 75.964844 C 108.625 78.917969 109.542969 81.945312 110.261719 85.019531 C 110.621094 86.554688 110.871094 88.113281 111.1875 89.660156 C 111.535156 91.328125 110.96875 93.15625 110.707031 94.824219 C 110.410156 96.734375 110.109375 98.644531 109.8125 100.554688 C 109.757812 100.910156 109.703125 101.273438 109.78125 101.621094 C 109.960938 102.402344 110.597656 102.390625 111.21875 102.617188 C 111.988281 102.890625 112.753906 103.144531 113.546875 103.328125 C 115.128906 103.699219 116.761719 103.863281 118.386719 103.820312 C 121.535156 103.742188 125.292969 103.011719 127.695312 100.839844 C 128.277344 100.316406 128.746094 99.683594 129.210938 99.054688 C 130.679688 97.070312 129.300781 95.164062 128.625 93.1875 C 127.875 90.992188 127.585938 88.636719 127.773438 86.320312 C 127.835938 85.574219 127.871094 84.597656 128.117188 83.886719 C 128.445312 82.941406 129.175781 82.125 129.535156 81.167969 C 129.941406 80.082031 130.109375 78.871094 129.785156 77.753906 C 129.347656 76.246094 127.984375 75.289062 127.46875 73.855469 C 126.949219 72.417969 126.121094 71.207031 125.960938 69.632812 C 125.855469 68.632812 125.945312 67.585938 125.566406 66.652344 C 125.242188 65.84375 124.566406 65.1875 123.75 64.882812 C 122.636719 64.464844 121.203125 64.785156 120.042969 64.917969 C 118.761719 65.066406 117.484375 65.285156 116.222656 65.566406 C 114.15625 66.023438 112.035156 66.554688 110.222656 67.671875 C 109.554688 68.089844 108.886719 68.507812 108.300781 69.039062 C 107.574219 69.695312 106.96875 70.523438 106.738281 71.480469 C 106.625 71.953125 106.609375 72.429688 106.652344 72.910156 " fill-opacity="1" fill-rule="nonzero"/><path fill="#f3a984" d="M 111.984375 67.355469 C 111.8125 67.933594 111.785156 68.511719 112.109375 69.074219 C 112.480469 69.714844 113.214844 69.757812 113.84375 70 C 114.691406 70.324219 115.550781 70.621094 116.441406 70.789062 C 117.628906 71.011719 118.894531 70.996094 120.007812 70.527344 C 120.550781 70.300781 121.097656 69.894531 121.171875 69.3125 C 121.226562 68.898438 120.992188 68.476562 120.863281 68.09375 C 120.589844 67.257812 120.496094 66.417969 120.292969 65.582031 C 120.070312 64.667969 119.785156 63.777344 119.613281 62.847656 C 119.429688 61.867188 119.363281 61.160156 118.609375 60.410156 C 117.832031 59.636719 116.347656 59.65625 115.300781 59.5625 C 114.734375 59.515625 113.945312 59.253906 113.40625 59.496094 C 112.359375 59.964844 113.046875 61.140625 113.128906 61.960938 C 113.230469 62.992188 113.21875 64.035156 112.9375 65.035156 C 112.730469 65.773438 112.222656 66.5625 111.984375 67.355469 " fill-opacity="1" fill-rule="nonzero"/><path fill="#ffc7ad" d="M 114.796875 64.515625 C 114.738281 64.4375 114.679688 64.355469 114.621094 64.261719 C 114.382812 63.898438 114.148438 63.503906 113.894531 63.167969 C 113.546875 62.703125 113.125 62.300781 112.699219 61.910156 C 112.214844 61.457031 111.722656 61 111.324219 60.464844 C 110.386719 59.195312 110.1875 57.1875 110.324219 55.648438 C 110.46875 53.980469 111.140625 52.386719 112.296875 51.167969 C 114.152344 49.214844 117.113281 48.398438 119.707031 49.121094 C 120.40625 49.316406 121.074219 49.613281 121.726562 49.945312 C 122.285156 50.230469 122.84375 50.546875 123.273438 51.007812 C 123.554688 51.3125 123.769531 51.667969 123.972656 52.03125 C 124.246094 52.535156 124.347656 52.886719 124.382812 53.445312 C 124.421875 54.042969 124.398438 54.648438 124.425781 55.25 C 124.527344 57.433594 124.734375 59.621094 124.453125 61.8125 C 124.324219 62.820312 124.15625 63.828125 123.890625 64.8125 C 123.730469 65.40625 123.636719 66.375 123.285156 66.882812 C 122.914062 67.410156 122.28125 67.683594 121.574219 67.683594 C 120.476562 67.679688 118.929688 67.210938 117.976562 66.707031 C 117.117188 66.25 116.269531 65.757812 115.492188 65.171875 C 115.207031 64.953125 114.996094 64.769531 114.796875 64.515625 " fill-opacity="1" fill-rule="nonzero"/><path fill="#d6af75" d="M 109.519531 54.421875 C 109.539062 53.902344 109.546875 53.351562 109.65625 52.839844 C 109.757812 52.34375 111.464844 47.007812 119.125 47.796875 C 121.007812 47.988281 122.613281 49.058594 123.578125 50.675781 C 125.140625 53.3125 124.511719 56.859375 124.511719 56.859375 C 124.515625 56.839844 123.972656 56.3125 123.929688 56.257812 C 123.652344 55.914062 123.394531 55.550781 123.140625 55.1875 C 123.011719 55.011719 122.886719 54.828125 122.765625 54.648438 C 122.675781 54.519531 122.566406 54.25 122.433594 54.164062 C 122.226562 54.023438 121.921875 54.304688 121.746094 54.414062 C 121.488281 54.574219 121.238281 54.746094 120.992188 54.921875 C 120.03125 55.625 119.160156 56.460938 118.417969 57.394531 C 118.046875 57.863281 117.707031 58.355469 117.402344 58.871094 C 117.105469 59.367188 116.824219 59.863281 116.316406 60.175781 C 115.773438 60.511719 115.066406 60.558594 114.488281 60.296875 C 114.253906 60.195312 114.039062 60.042969 113.804688 59.9375 C 113.570312 59.832031 113.296875 59.773438 113.058594 59.863281 C 112.839844 59.945312 112.675781 60.140625 112.597656 60.359375 C 112.472656 60.714844 112.558594 60.894531 112.757812 61.167969 C 112.808594 61.242188 113.148438 61.808594 112.90625 61.808594 C 112.605469 61.8125 109.359375 59.023438 109.519531 54.421875 " fill-opacity="1" fill-rule="nonzero"/><path fill="#ffc7ad" d="M 102.890625 89.050781 C 102.878906 85.917969 103.277344 81.96875 103.621094 76.984375 C 103.714844 75.644531 104.007812 74.292969 104.503906 73.039062 C 105.003906 71.773438 105.636719 70.824219 106.675781 69.933594 C 107.144531 69.53125 107.914062 69.183594 108.523438 69.308594 C 109.078125 69.421875 109.445312 69.933594 109.71875 70.421875 C 111.355469 73.371094 111.394531 77.105469 110.722656 80.339844 C 110.09375 83.347656 109.875 86.4375 109.222656 89.453125 C 109.097656 90.027344 109 90.648438 108.765625 91.191406 C 107.636719 93.765625 105.070312 93.582031 103.707031 92.054688 C 103.039062 91.308594 102.894531 90.753906 102.890625 89.050781 " fill-opacity="1" fill-rule="nonzero"/><path fill="#d6af75" d="M 109.070312 62.667969 C 109.023438 63.996094 108.574219 65.070312 108.1875 66.390625 C 108.015625 66.988281 106.945312 69.378906 107.609375 69.402344 C 107.839844 69.410156 108.511719 69.175781 108.929688 69.558594 C 109.535156 70.105469 110.003906 71.003906 110.285156 71.75 C 110.933594 73.476562 111.144531 75.0625 111.398438 76.847656 C 111.648438 78.617188 113.144531 79.386719 114.792969 79.542969 C 115.488281 79.613281 117.269531 79.753906 117.449219 78.839844 C 117.5625 78.269531 117.015625 77.40625 116.796875 76.894531 C 115.988281 75.019531 114.855469 72.773438 114.910156 70.683594 C 114.941406 69.5 115.316406 68.371094 115.269531 67.183594 C 115.238281 66.46875 115.066406 65.660156 114.726562 65.03125 C 114.5625 64.734375 114.40625 64.433594 114.230469 64.144531 C 114.113281 63.953125 113.992188 63.765625 113.871094 63.574219 C 113.46875 62.925781 112.972656 62.203125 112.898438 61.425781 C 112.824219 60.613281 113.136719 59.847656 113.417969 59.105469 C 113.597656 58.628906 113.769531 58.152344 113.996094 57.699219 C 114.1875 57.308594 114.066406 56.683594 114.035156 56.253906 C 113.964844 55.257812 113.78125 54.253906 113.390625 53.332031 C 112.914062 52.210938 111.378906 49.898438 111.378906 49.898438 C 111.398438 49.925781 111.011719 50.429688 110.984375 50.464844 C 110.65625 50.96875 110.253906 51.398438 109.984375 51.933594 C 109.25 53.386719 108.796875 55.03125 108.714844 56.660156 C 108.628906 58.480469 108.980469 60.324219 109.066406 62.136719 C 109.074219 62.320312 109.078125 62.496094 109.070312 62.667969 " fill-opacity="1" fill-rule="nonzero"/><path fill="#ffc7ad" d="M 112.417969 58.453125 C 111.167969 58.371094 110.851562 59.925781 111.714844 61.125 C 111.964844 61.476562 112.40625 61.789062 112.734375 62.066406 C 114.976562 63.972656 115.535156 61.90625 114.824219 61.257812 C 113.171875 59.746094 113.992188 58.558594 112.417969 58.453125 " fill-opacity="1" fill-rule="nonzero"/><path fill="#f3a984" d="M 112.757812 61.082031 C 112.636719 60.910156 111.355469 59.691406 112.503906 59.324219 C 112.820312 59.222656 113.074219 59.539062 113.050781 59.847656 C 113.039062 60.007812 112.953125 60.152344 112.941406 60.3125 C 112.933594 60.40625 113.46875 61.148438 113.308594 61.441406 C 113.167969 61.703125 112.824219 61.179688 112.757812 61.082031 " fill-opacity="1" fill-rule="nonzero"/><path fill="#ffc7ad" d="M 104.792969 106.605469 C 104.738281 107.503906 104.996094 106.691406 105.5625 107.472656 C 106.125 108.25 108.734375 106.738281 108.742188 106.144531 C 108.757812 104.574219 109.386719 93.535156 109.433594 89.253906 C 109.4375 88.714844 109.367188 88.070312 108.699219 87.730469 C 108.175781 87.464844 107.292969 84.574219 106.738281 84.695312 C 104.824219 85.113281 103.027344 85.851562 102.914062 87.453125 C 102.632812 91.453125 103.898438 97.742188 104.496094 100.476562 C 104.824219 101.988281 104.890625 105.113281 104.792969 106.605469 " fill-opacity="1" fill-rule="nonzero"/><path fill="#ffc7ad" d="M 102.496094 113.644531 C 102.441406 113.796875 102.386719 113.960938 102.421875 114.121094 C 102.453125 114.28125 102.605469 114.429688 102.777344 114.410156 C 102.957031 114.390625 103.0625 114.214844 103.132812 114.0625 C 103.246094 113.820312 103.359375 113.582031 103.476562 113.339844 C 103.578125 113.125 103.660156 112.886719 103.78125 112.683594 C 103.777344 112.691406 103.75 112.871094 103.738281 112.90625 C 103.703125 113.019531 103.675781 113.128906 103.644531 113.238281 C 103.582031 113.460938 103.519531 113.683594 103.457031 113.90625 C 103.332031 114.347656 103.203125 114.789062 103.082031 115.230469 C 103.03125 115.410156 102.980469 115.597656 103.027344 115.773438 C 103.078125 115.953125 103.261719 116.113281 103.457031 116.078125 C 103.664062 116.039062 103.761719 115.820312 103.820312 115.636719 C 104.078125 114.867188 104.332031 114.101562 104.589844 113.332031 C 104.375 114.335938 104.160156 115.339844 103.945312 116.34375 C 103.886719 116.617188 103.894531 116.992188 104.183594 117.058594 C 104.398438 117.109375 104.59375 116.933594 104.714844 116.761719 C 105.476562 115.671875 105.257812 114.191406 105.953125 113.066406 C 105.824219 113.871094 105.695312 114.675781 105.570312 115.484375 C 105.535156 115.703125 105.5 115.933594 105.554688 116.148438 C 105.613281 116.367188 105.785156 116.570312 106.019531 116.609375 C 106.242188 116.644531 106.46875 116.523438 106.609375 116.359375 C 106.746094 116.191406 106.8125 115.988281 106.878906 115.785156 C 107.164062 114.902344 107.453125 114.019531 107.742188 113.132812 C 107.882812 112.683594 108.03125 112.238281 108.175781 111.789062 C 108.25 111.566406 108.335938 111.34375 108.394531 111.117188 C 108.40625 111.078125 108.414062 110.949219 108.445312 110.917969 C 108.582031 110.804688 108.652344 111.054688 108.703125 111.140625 C 108.808594 111.324219 108.933594 111.5 109.058594 111.675781 C 109.328125 112.050781 110.203125 113.453125 110.753906 112.835938 C 110.878906 112.699219 110.855469 112.492188 110.816406 112.320312 C 110.675781 111.722656 110.40625 111.164062 110.136719 110.605469 C 109.660156 109.613281 108.976562 108.582031 108.828125 107.511719 C 108.660156 106.332031 108.796875 105.042969 108.78125 103.851562 C 108.777344 103.382812 108.753906 102.871094 108.429688 102.507812 C 108.085938 102.125 107.46875 102.019531 106.953125 102.164062 C 106.441406 102.308594 106.019531 102.65625 105.691406 103.050781 C 104.4375 104.554688 105.121094 106.097656 104.574219 107.734375 C 104.152344 109 103.6875 110.253906 103.246094 111.515625 C 102.996094 112.222656 102.746094 112.933594 102.496094 113.644531 " fill-opacity="1" fill-rule="nonzero"/><path fill="#f3a984" d="M 144.566406 132.152344 C 144.347656 133.226562 144.023438 134.304688 144.117188 135.398438 C 144.210938 136.488281 144.851562 137.625 145.929688 137.902344 C 146.984375 138.171875 148.066406 137.558594 149.160156 137.535156 C 150.441406 137.507812 151.566406 138.273438 152.691406 138.867188 C 154.023438 139.566406 156.027344 140.652344 157.46875 139.722656 C 158.414062 139.109375 158.929688 137.742188 158.148438 136.765625 C 157.847656 136.386719 157.414062 136.140625 156.984375 135.929688 C 155.652344 135.273438 154.230469 134.839844 152.875 134.25 C 152.011719 133.875 151.234375 133.429688 150.460938 132.902344 C 149.769531 132.4375 149.613281 131.382812 149.605469 130.601562 C 149.597656 129.804688 149.195312 129.105469 149.289062 128.316406 C 149.335938 127.933594 149.367188 127.042969 149.195312 126.703125 C 148.964844 126.242188 148.957031 126.421875 148.445312 126.425781 C 148.082031 126.429688 147.730469 126.53125 147.394531 126.652344 C 147.246094 126.703125 147.113281 126.765625 146.957031 126.777344 C 146.792969 126.785156 146.644531 126.78125 146.480469 126.824219 C 145.652344 127.035156 144.699219 129.753906 144.726562 130.242188 C 144.761719 130.847656 144.6875 131.554688 144.566406 132.152344 " fill-opacity="1" fill-rule="nonzero"/><path fill="#222229" d="M 141.871094 118.992188 C 142.390625 120.789062 143.207031 123.523438 143.746094 125.316406 C 144.019531 126.214844 144.261719 127.125 144.433594 128.050781 C 144.503906 128.445312 144.679688 130 144.730469 130.324219 C 144.742188 130.414062 145.300781 130.539062 145.484375 130.582031 C 146.34375 130.789062 147.242188 130.832031 148.113281 130.710938 C 148.527344 130.65625 149.023438 130.589844 149.402344 130.410156 C 149.734375 130.253906 149.648438 129.820312 149.679688 129.476562 C 150.355469 122 150.859375 115.140625 149.765625 107.710938 C 149.699219 107.238281 149.621094 106.695312 149.464844 106.175781 C 149.230469 105.417969 148.851562 104.699219 148.304688 104.171875 C 147.089844 103.015625 144.898438 103.632812 143.679688 104.78125 C 142.019531 106.34375 141.691406 108.578125 141.304688 110.691406 C 140.777344 113.554688 141.054688 116.175781 141.871094 118.992188 " fill-opacity="1" fill-rule="nonzero"/><path fill="#f3a984" d="M 131.507812 52.558594 C 132.121094 54.390625 135.671875 55.285156 136.886719 53.796875 C 137.632812 52.886719 137.738281 51.566406 137.417969 50.425781 C 137.101562 49.28125 133.015625 42.988281 130.871094 39.789062 C 129.28125 37.414062 124.972656 37.011719 126.320312 39.453125 C 127.972656 42.449219 130.460938 49.417969 131.507812 52.558594 " fill-opacity="1" fill-rule="nonzero"/><path fill="#f3a984" d="M 132.230469 42.429688 C 132.089844 41.554688 131.578125 40.785156 131.066406 40.058594 C 130.46875 39.210938 129.78125 38.402344 129.238281 37.523438 C 128.769531 36.753906 128.648438 35.851562 128.386719 35.003906 C 128.078125 34.003906 127.765625 33.003906 127.464844 32.003906 C 127.363281 31.675781 127.234375 31.335938 127.027344 31.0625 C 126.789062 30.753906 126.640625 30.871094 126.347656 30.722656 C 125.9375 30.515625 125.914062 29.890625 125.703125 29.535156 C 125.484375 29.164062 125.1875 28.671875 124.824219 28.425781 C 124.605469 28.273438 124.375 28.378906 124.15625 28.183594 C 123.8125 27.878906 123.808594 27.21875 123.296875 27.101562 C 122.871094 27.003906 122.464844 27.410156 122.398438 27.84375 C 122.382812 27.9375 122.382812 28.027344 122.386719 28.121094 L 122.332031 28.03125 C 122.109375 27.722656 121.675781 27.53125 121.339844 27.707031 C 120.851562 27.964844 120.949219 28.691406 121.125 29.21875 C 121.527344 30.402344 121.964844 31.566406 122.441406 32.722656 C 122.550781 32.996094 123.175781 33.953125 122.675781 34.082031 C 122.378906 34.160156 121.964844 33.746094 121.722656 33.617188 C 121.367188 33.433594 121.011719 33.25 120.65625 33.066406 C 120.324219 32.894531 119.976562 32.714844 119.605469 32.710938 C 119.230469 32.707031 118.824219 32.9375 118.761719 33.304688 C 118.707031 33.625 118.917969 33.9375 119.1875 34.121094 C 119.453125 34.304688 119.773438 34.394531 120.066406 34.527344 C 121.664062 35.242188 122.421875 37.113281 123.882812 38.082031 C 124.664062 38.597656 125.617188 38.835938 126.320312 39.453125 C 126.980469 40.039062 127.332031 40.890625 127.640625 41.714844 C 127.953125 42.542969 128.253906 43.398438 128.851562 44.046875 C 129.449219 44.695312 130.433594 45.078125 131.234375 44.703125 C 132.035156 44.328125 132.371094 43.308594 132.230469 42.429688 " fill-opacity="1" fill-rule="nonzero"/><g clip-path="url(#dad70deca1)"><path fill="#e6f1fe" d="M 170.078125 26.808594 C 169.933594 25.890625 168.996094 24.292969 167.539062 23.859375 C 166.570312 23.574219 164.59375 24.785156 163.171875 26.78125 C 160.183594 30.976562 158.035156 36.601562 156.992188 40.628906 C 156.914062 40.917969 156.808594 41.230469 156.792969 41.53125 C 156.707031 43.328125 157.757812 44.917969 159.585938 45.191406 C 161.925781 45.542969 162.761719 43.933594 163.898438 42.167969 C 165.425781 39.785156 170.46875 29.246094 170.078125 26.808594 " fill-opacity="1" fill-rule="nonzero"/></g><path fill="#ffc7ad" d="M 133.902344 51.859375 C 133.730469 51.644531 133.859375 51.53125 134.070312 51.4375 C 134.238281 51.355469 134.414062 51.300781 134.582031 51.21875 C 134.601562 51.207031 135.011719 50.988281 134.941406 50.933594 C 134.851562 50.871094 134.71875 50.875 134.609375 50.871094 C 134.460938 50.863281 134.3125 50.882812 134.164062 50.878906 C 134.03125 50.875 133.90625 50.902344 133.773438 50.914062 C 133.632812 50.929688 133.527344 50.945312 133.394531 50.976562 C 133.292969 51.003906 133.160156 50.996094 133.058594 50.984375 C 132.84375 50.964844 132.613281 50.886719 132.582031 50.644531 C 132.535156 50.308594 132.960938 50.269531 133.179688 50.179688 C 133.308594 50.125 133.789062 50.117188 133.820312 49.949219 C 133.847656 49.792969 133.273438 49.675781 133.167969 49.65625 C 132.753906 49.570312 132.28125 49.574219 131.90625 49.347656 C 131.671875 49.203125 131.375 48.898438 131.78125 48.75 C 132.042969 48.65625 132.3125 48.730469 132.582031 48.742188 C 132.929688 48.761719 133.273438 48.773438 133.625 48.78125 C 133.707031 48.78125 134.210938 48.839844 134.230469 48.765625 C 134.246094 48.710938 134.101562 48.617188 134.070312 48.597656 C 133.839844 48.417969 133.601562 48.25 133.34375 48.113281 C 133.136719 48.003906 132.917969 47.925781 132.710938 47.816406 C 132.492188 47.699219 131.914062 47.410156 132.097656 47.074219 C 132.277344 46.75 132.949219 46.96875 133.199219 47.058594 C 133.722656 47.246094 134.226562 47.390625 134.78125 47.46875 C 135.496094 47.570312 136.226562 47.550781 136.878906 47.234375 C 137.140625 47.105469 137.433594 46.84375 137.476562 46.546875 C 136.960938 46.335938 136.4375 46.371094 135.839844 46.367188 C 135.355469 46.363281 134.871094 46.308594 134.535156 45.921875 C 134.371094 45.738281 134.085938 45.46875 134.199219 45.195312 C 134.300781 44.941406 134.597656 44.871094 134.847656 44.914062 C 135.09375 44.957031 135.316406 45.085938 135.570312 45.105469 C 135.808594 45.121094 136.035156 45.101562 136.273438 45.0625 C 136.695312 44.988281 137.128906 44.859375 137.554688 44.828125 C 137.984375 44.796875 138.414062 44.886719 138.8125 45.042969 C 138.960938 45.097656 139.097656 45.167969 139.238281 45.230469 C 139.574219 45.375 139.925781 45.480469 140.285156 45.574219 C 141.285156 45.84375 142.476562 45.558594 143.523438 45.648438 C 144.464844 45.730469 144.324219 46.671875 144.183594 47.4375 C 144.0625 48.09375 143.796875 48.480469 143.25 48.835938 C 142.769531 49.15625 142.214844 49.261719 141.699219 49.488281 C 141.339844 49.644531 140.984375 49.859375 140.644531 50.054688 C 140.523438 50.125 140.402344 50.191406 140.28125 50.265625 C 139.875 50.511719 139.457031 50.738281 139.035156 50.960938 C 138.496094 51.246094 137.929688 51.480469 137.34375 51.660156 C 136.785156 51.832031 136.21875 51.886719 135.648438 52.015625 C 135.5 52.046875 135.347656 52.085938 135.195312 52.121094 C 134.773438 52.222656 134.207031 52.234375 133.902344 51.859375 " fill-opacity="1" fill-rule="nonzero"/><path fill="#e6f1fe" d="M 142.078125 49.65625 C 145.640625 48.902344 165.472656 47.359375 162.953125 41.625 C 162.570312 40.753906 159.40625 39.699219 158.339844 39.632812 C 157.398438 39.570312 142.140625 44.597656 140.988281 45.414062 C 140.289062 45.90625 141.363281 49.8125 142.078125 49.65625 " fill-opacity="1" fill-rule="nonzero"/><path fill="#275ebe" d="M 158.082031 33.710938 L 154.582031 31.6875 L 155.5 29.742188 L 158.996094 31.769531 L 158.082031 33.710938 " fill-opacity="1" fill-rule="nonzero"/></svg>