<svg xmlns="http://www.w3.org/2000/svg" xmlns:xlink="http://www.w3.org/1999/xlink" width="80" zoomAndPan="magnify" viewBox="0 0 60 60" height="80" preserveAspectRatio="xMidYMid meet" version="1.0"><defs><clipPath id="40785453da"><path d="M 16.566406 56.554688 L 22.410156 56.554688 L 22.410156 59.972656 L 16.566406 59.972656 Z M 16.566406 56.554688 " clip-rule="nonzero"/></clipPath><clipPath id="fddb28830e"><path d="M 36 39 L 53.25 39 L 53.25 44 L 36 44 Z M 36 39 " clip-rule="nonzero"/></clipPath></defs><path fill="#f7936a" d="M 43.527344 21.578125 L 42.109375 17.761719 L 34.269531 20.390625 C 34.269531 20.390625 32.285156 22.546875 33.679688 23.351562 C 35.070312 24.15625 43.527344 21.578125 43.527344 21.578125 " fill-opacity="1" fill-rule="nonzero"/><path fill="#f7936a" d="M 35.070312 23.113281 C 34.609375 23.597656 33.546875 23.820312 32.304688 23.394531 C 31.0625 22.96875 25.765625 21.59375 25.765625 21.59375 L 25.929688 20.183594 C 25.929688 20.183594 32.921875 19.890625 34.429688 20.433594 C 35.40625 20.789062 35.960938 22.191406 35.070312 23.113281 " fill-opacity="1" fill-rule="nonzero"/><path fill="#f7936a" d="M 26.664062 20.523438 C 26.476562 20.289062 25.574219 19.441406 25.273438 19.203125 C 24.96875 18.964844 23.433594 18.917969 23.242188 19.09375 C 23.050781 19.265625 23.117188 19.378906 23.347656 19.644531 C 23.578125 19.90625 24.011719 21 24.300781 21.3125 C 24.609375 21.640625 25.941406 21.628906 25.941406 21.628906 L 27.125 21.40625 C 27.125 21.40625 26.847656 20.757812 26.664062 20.523438 " fill-opacity="1" fill-rule="nonzero"/><path fill="#f7d8c8" d="M 43.605469 16.714844 C 43.605469 16.714844 36.792969 18.402344 36.597656 18.964844 C 36.402344 19.527344 36.496094 20.390625 36.597656 20.992188 C 36.703125 21.59375 37.378906 22.933594 37.378906 22.933594 C 37.378906 22.933594 42.40625 22.792969 42.40625 22.679688 C 42.40625 22.570312 44.289062 19.003906 44.285156 18.628906 C 44.28125 18.253906 43.605469 16.714844 43.605469 16.714844 " fill-opacity="1" fill-rule="nonzero"/><g clip-path="url(#40785453da)"><path fill="#4d3932" d="M 21.769531 56.566406 C 21.769531 56.566406 22.625 59.726562 22.332031 59.855469 C 22.035156 59.980469 16.824219 60.042969 16.625 59.855469 C 16.429688 59.664062 16.847656 58.589844 17.601562 58.304688 C 18.550781 57.949219 19.585938 57.972656 19.839844 57.832031 C 20.09375 57.691406 19.730469 56.566406 19.730469 56.566406 L 21.769531 56.566406 " fill-opacity="1" fill-rule="nonzero"/></g><path fill="#ebc599" d="M 17.167969 26.082031 C 17.167969 26.082031 15.640625 38.914062 15.789062 40.925781 C 15.941406 42.933594 17.066406 56.816406 17.558594 56.941406 C 18.054688 57.0625 19.75 57.246094 20.707031 57.09375 C 21.667969 56.941406 22.988281 56.554688 23.257812 56.167969 C 23.527344 55.78125 22.9375 41.273438 23.007812 40.828125 C 23.082031 40.378906 25.15625 31.765625 25.382812 29.222656 C 25.605469 26.679688 24.976562 25.234375 24.976562 25.234375 L 17.167969 26.082031 " fill-opacity="1" fill-rule="nonzero"/><path fill="#f7936a" d="M 7.734375 5.875 C 7.734375 5.875 7.390625 6.9375 7.457031 7.242188 C 7.527344 7.546875 8.296875 7.457031 8.296875 7.457031 L 7.734375 5.875 " fill-opacity="1" fill-rule="nonzero"/><path fill="#ffaf8f" d="M 7.75 1.910156 C 7.355469 2.457031 6.75 3.542969 7.347656 5.160156 C 7.941406 6.777344 8.734375 9.40625 9.511719 9.515625 C 10.539062 9.660156 11.496094 8.75 11.78125 9.023438 C 12.0625 9.296875 13.765625 11.164062 13.765625 11.164062 L 16.464844 9.050781 L 13.960938 5.46875 L 11.730469 0.683594 C 11.730469 0.683594 9.054688 0.101562 7.75 1.910156 " fill-opacity="1" fill-rule="nonzero"/><path fill="#f7936a" d="M 8.828125 7.875 C 8.949219 7.871094 9.046875 7.878906 9.164062 7.828125 C 9.289062 7.777344 9.449219 7.707031 9.539062 7.605469 C 9.609375 7.53125 9.738281 7.625 9.667969 7.703125 C 9.570312 7.808594 9.417969 7.890625 9.289062 7.953125 C 9.132812 8.027344 9.015625 8.03125 8.847656 8.035156 C 8.746094 8.039062 8.722656 7.878906 8.828125 7.875 " fill-opacity="1" fill-rule="nonzero"/><path fill="#e8d4ca" d="M 7.671875 5.214844 C 7.832031 5.289062 8.050781 5.171875 8.203125 5.117188 C 8.328125 5.070312 8.460938 5.035156 8.589844 4.996094 C 8.6875 4.964844 8.679688 4.894531 8.605469 4.835938 C 8.566406 4.808594 8.515625 4.796875 8.46875 4.796875 C 8.367188 4.796875 8.269531 4.800781 8.171875 4.816406 C 7.980469 4.839844 7.792969 4.902344 7.628906 5.011719 C 7.625 5.015625 7.617188 5.023438 7.613281 5.027344 C 7.546875 5.089844 7.59375 5.175781 7.671875 5.214844 " fill-opacity="1" fill-rule="nonzero"/><path fill="#4d3932" d="M 8.503906 5.863281 C 8.492188 5.769531 8.445312 5.664062 8.398438 5.632812 C 8.359375 5.605469 8.308594 5.578125 8.257812 5.597656 C 8.089844 5.667969 8.25 6.03125 8.398438 6.035156 C 8.496094 6.039062 8.515625 5.953125 8.503906 5.863281 " fill-opacity="1" fill-rule="nonzero"/><path fill="#3d2711" d="M 8.0625 5.214844 C 8.058594 5.214844 8.054688 5.214844 8.046875 5.21875 C 7.976562 5.246094 7.9375 5.53125 8.085938 5.914062 C 8.234375 6.296875 8.453125 6.480469 8.523438 6.453125 C 8.59375 6.425781 8.632812 6.140625 8.488281 5.757812 C 8.347656 5.402344 8.148438 5.214844 8.0625 5.214844 Z M 8.507812 6.683594 C 8.265625 6.683594 8.015625 6.355469 7.875 5.992188 C 7.71875 5.582031 7.699219 5.113281 7.96875 5.007812 C 8.238281 4.90625 8.539062 5.265625 8.695312 5.679688 C 8.855469 6.089844 8.875 6.558594 8.605469 6.664062 C 8.570312 6.675781 8.539062 6.683594 8.507812 6.683594 " fill-opacity="1" fill-rule="nonzero"/><path fill="#3d2711" d="M 8.589844 5.832031 C 8.554688 5.832031 8.519531 5.8125 8.496094 5.777344 C 8.464844 5.726562 8.480469 5.65625 8.53125 5.625 L 10.804688 4.183594 C 10.859375 4.148438 10.929688 4.164062 10.960938 4.21875 C 10.996094 4.269531 10.980469 4.339844 10.925781 4.375 L 8.652344 5.8125 C 8.632812 5.824219 8.613281 5.832031 8.589844 5.832031 " fill-opacity="1" fill-rule="nonzero"/><path fill="#e8d4ca" d="M 9.253906 0.824219 C 9.195312 0.855469 9.269531 1.628906 9.269531 1.726562 C 9.265625 2.144531 9.320312 2.605469 9.453125 3 C 9.640625 3.554688 10.519531 4.429688 11.128906 3.871094 C 11.414062 3.609375 11.941406 3.875 12.074219 4.195312 C 12.207031 4.519531 12.429688 5.261719 12.621094 5.386719 C 13.367188 5.871094 13.960938 5.46875 13.960938 5.46875 C 13.960938 5.46875 13.683594 4.808594 13.765625 4.300781 C 13.898438 3.453125 13.738281 2.902344 13.640625 2.375 C 13.546875 1.847656 12.960938 0.929688 12.140625 0.609375 C 10.652344 0.0273438 9.253906 0.824219 9.253906 0.824219 " fill-opacity="1" fill-rule="nonzero"/><path fill="#5c3d32" d="M 15.78125 7.371094 C 14.675781 7.316406 12.699219 8.273438 11.859375 10.027344 C 11.019531 11.78125 11.707031 14.074219 12.800781 16.714844 C 13.890625 19.355469 15.214844 21.394531 15.53125 22.273438 C 15.847656 23.148438 15.882812 26.730469 16.476562 27.296875 C 17.070312 27.867188 19.621094 28.449219 21.203125 28.347656 C 22.789062 28.246094 25.855469 26.976562 25.875 26.546875 C 25.898438 26.117188 24.542969 16.46875 22.207031 12.839844 C 19.261719 8.265625 17.894531 7.472656 15.78125 7.371094 " fill-opacity="1" fill-rule="nonzero"/><path fill="#ffaf8f" d="M 33.882812 59.054688 C 33.871094 59.390625 33.835938 59.636719 33.753906 59.671875 C 33.457031 59.796875 29.171875 59.957031 28.972656 59.765625 C 28.773438 59.578125 29.105469 58.742188 29.859375 58.457031 C 29.976562 58.414062 30.085938 58.371094 30.191406 58.335938 C 30.917969 58.066406 31.289062 57.957031 31.511719 57.832031 C 31.765625 57.6875 31.820312 56.757812 31.820312 56.757812 L 33.753906 56.757812 C 33.753906 56.757812 33.90625 58.195312 33.882812 59.054688 " fill-opacity="1" fill-rule="nonzero"/><path fill="#f5e8e1" d="M 40.175781 45.246094 L 49.609375 45.246094 C 50.886719 45.246094 51.921875 44.207031 51.921875 42.929688 L 37.863281 42.929688 C 37.863281 44.207031 38.898438 45.246094 40.175781 45.246094 " fill-opacity="1" fill-rule="nonzero"/><g clip-path="url(#fddb28830e)"><path fill="#874c43" d="M 38.308594 43.582031 L 51.542969 43.582031 C 52.484375 43.582031 53.25 42.816406 53.25 41.875 L 53.25 41.210938 C 53.25 40.269531 52.484375 39.503906 51.542969 39.503906 L 38.308594 39.503906 C 37.367188 39.503906 36.601562 40.269531 36.601562 41.210938 L 36.601562 41.875 C 36.601562 42.816406 37.367188 43.582031 38.308594 43.582031 " fill-opacity="1" fill-rule="nonzero"/></g><path fill="#f5e8e1" d="M 49.808594 59.480469 L 51.683594 59.480469 L 51.683594 43.582031 L 49.808594 43.582031 L 49.808594 59.480469 " fill-opacity="1" fill-rule="nonzero"/><path fill="#3d3227" d="M 50.261719 59.855469 L 51.234375 59.855469 C 51.585938 59.855469 51.828125 59.492188 51.6875 59.164062 L 51.683594 59.160156 L 49.808594 59.160156 L 49.804688 59.164062 C 49.664062 59.492188 49.90625 59.855469 50.261719 59.855469 " fill-opacity="1" fill-rule="nonzero"/><path fill="#f5e8e1" d="M 40.125 59.480469 L 38.25 59.480469 L 38.25 43.582031 L 40.125 43.582031 L 40.125 59.480469 " fill-opacity="1" fill-rule="nonzero"/><path fill="#3d3227" d="M 39.675781 59.855469 L 38.703125 59.855469 C 38.347656 59.855469 38.109375 59.492188 38.246094 59.164062 L 38.25 59.160156 L 40.128906 59.160156 L 40.128906 59.164062 C 40.269531 59.492188 40.03125 59.855469 39.675781 59.855469 " fill-opacity="1" fill-rule="nonzero"/><path fill="#e8d4ca" d="M 49.972656 45.167969 L 51.523438 45.167969 C 51.617188 45.167969 51.617188 45.320312 51.523438 45.320312 L 49.972656 45.320312 C 49.875 45.320312 49.875 45.167969 49.972656 45.167969 " fill-opacity="1" fill-rule="nonzero"/><path fill="#e8d4ca" d="M 38.414062 45.167969 L 39.964844 45.167969 C 40.058594 45.167969 40.058594 45.320312 39.964844 45.320312 L 38.414062 45.320312 C 38.316406 45.320312 38.316406 45.167969 38.414062 45.167969 " fill-opacity="1" fill-rule="nonzero"/><path fill="#ffaf8f" d="M 33.753906 54.875 L 33.753906 56.757812 L 31.820312 56.757812 L 31.484375 54.765625 L 33.753906 54.875 " fill-opacity="1" fill-rule="nonzero"/><path fill="#a7b3c9" d="M 50.21875 34.726562 C 50.21875 34.726562 50.617188 38.253906 49.519531 38.929688 C 47.320312 40.28125 35.410156 40.730469 34.910156 41.03125 C 34.410156 41.332031 35.160156 43.757812 35.160156 45.246094 C 35.160156 46.734375 34.765625 50.035156 34.738281 51.488281 C 34.710938 52.9375 35.410156 56.328125 35.0625 56.628906 C 34.710938 56.929688 30.507812 56.929688 30.007812 56.828125 C 29.507812 56.730469 29.484375 52.738281 29.46875 51.738281 C 29.457031 50.738281 29.136719 41.082031 29.320312 39.78125 C 29.507812 38.480469 29.605469 36.800781 31.730469 35.839844 C 33.859375 34.875 42.847656 33.976562 42.847656 33.976562 L 50.21875 34.726562 " fill-opacity="1" fill-rule="nonzero"/><path fill="#f7936a" d="M 40.433594 12.082031 C 40.433594 12.082031 39.855469 12.960938 39.839844 13.253906 C 39.824219 13.546875 40.546875 13.660156 40.546875 13.660156 L 40.433594 12.082031 " fill-opacity="1" fill-rule="nonzero"/><path fill="#ffaf8f" d="M 40.335938 11.339844 C 40.347656 12.191406 40.308594 13.285156 40.375 14.152344 C 40.382812 14.273438 40.394531 14.386719 40.410156 14.496094 C 40.484375 15.101562 40.632812 15.542969 40.921875 15.605469 C 42.003906 15.851562 42.828125 15.5 42.988281 15.832031 C 43.152344 16.160156 43.230469 18.269531 43.230469 18.269531 L 46.363281 18.0625 L 45.625 8.75 L 41.402344 8.542969 C 41.402344 8.542969 40.316406 9.71875 40.335938 11.339844 " fill-opacity="1" fill-rule="nonzero"/><path fill="#4d3932" d="M 40.710938 12.273438 C 40.699219 12.179688 40.71875 12.070312 40.753906 12.03125 C 40.78125 11.996094 40.820312 11.957031 40.875 11.960938 C 41.046875 11.980469 40.992188 12.359375 40.855469 12.402344 C 40.769531 12.429688 40.726562 12.359375 40.710938 12.273438 " fill-opacity="1" fill-rule="nonzero"/><path fill="#4d3932" d="M 40.5625 11.257812 C 40.683594 11.183594 40.914062 11.265625 41.039062 11.304688 C 41.230469 11.359375 41.398438 11.433594 41.554688 11.554688 C 41.589844 11.582031 41.589844 11.621094 41.5625 11.652344 C 41.5 11.726562 41.355469 11.664062 41.28125 11.648438 C 41.0625 11.601562 40.851562 11.5 40.628906 11.476562 C 40.539062 11.46875 40.464844 11.316406 40.5625 11.257812 " fill-opacity="1" fill-rule="nonzero"/><path fill="#f7936a" d="M 40.566406 14.148438 C 40.675781 14.179688 40.871094 14.1875 40.976562 14.144531 C 41.03125 14.117188 41.089844 14.09375 41.136719 14.054688 C 41.175781 14.023438 41.183594 14.003906 41.242188 13.996094 C 41.335938 13.980469 41.339844 14.128906 41.246094 14.144531 C 41.265625 14.140625 41.171875 14.210938 41.148438 14.222656 C 41.097656 14.253906 41.03125 14.296875 40.972656 14.308594 C 40.910156 14.324219 40.824219 14.316406 40.757812 14.316406 C 40.675781 14.316406 40.609375 14.316406 40.53125 14.292969 C 40.4375 14.265625 40.472656 14.121094 40.566406 14.148438 " fill-opacity="1" fill-rule="nonzero"/><path fill="#4d3932" d="M 40.792969 9.464844 C 40.792969 9.464844 41.375 10.367188 42.09375 10.632812 C 42.816406 10.902344 43.316406 11.066406 43.378906 11.492188 C 43.4375 11.921875 44.058594 11.585938 44.414062 11.984375 C 44.921875 12.550781 44.285156 13.085938 44.3125 13.335938 C 44.339844 13.585938 46.082031 14.53125 46.082031 14.53125 C 46.082031 14.53125 47.441406 11.625 46.996094 9.941406 C 46.550781 8.257812 44.484375 7.816406 42.757812 7.910156 C 41.3125 7.992188 40.792969 9.464844 40.792969 9.464844 " fill-opacity="1" fill-rule="nonzero"/><path fill="#ffe9de" d="M 46.195312 15.855469 C 46.195312 15.855469 44.761719 16.378906 44.003906 16.996094 C 42.65625 18.09375 41.828125 20.222656 41.203125 22.175781 C 40.578125 24.125 41.753906 26.253906 41.976562 26.902344 C 42.203125 27.554688 41.804688 34.070312 42.128906 34.5625 C 42.453125 35.058594 43.90625 34.933594 45.53125 35.035156 C 47.15625 35.132812 48.558594 35.558594 49.597656 35.382812 C 50.632812 35.207031 51.359375 35.257812 51.160156 34.40625 C 50.957031 33.558594 50.335938 24.265625 50.183594 22.699219 C 49.597656 16.773438 46.195312 15.855469 46.195312 15.855469 " fill-opacity="1" fill-rule="nonzero"/><path fill="#ffaf8f" d="M 44.285156 23.621094 L 42.304688 20.066406 L 34.953125 23.847656 C 34.953125 23.847656 33.320312 26.28125 34.816406 26.863281 C 36.316406 27.449219 44.285156 23.621094 44.285156 23.621094 " fill-opacity="1" fill-rule="nonzero"/><path fill="#ffaf8f" d="M 36.070312 26.523438 C 35.574219 26.96875 34.496094 27.113281 33.289062 26.597656 C 32.082031 26.085938 26.898438 24.328125 26.898438 24.328125 L 27.164062 22.933594 C 27.164062 22.933594 34.160156 23.148438 35.625 23.800781 C 36.574219 24.222656 37.023438 25.664062 36.070312 26.523438 " fill-opacity="1" fill-rule="nonzero"/><path fill="#8997b0" d="M 34.058594 39.367188 C 33.75 39.039062 33.492188 38.675781 33.257812 38.292969 C 33.152344 38.125 33.035156 37.960938 32.9375 37.785156 C 32.867188 37.664062 32.664062 37.328125 32.660156 37.226562 C 32.660156 37.132812 32.507812 37.132812 32.511719 37.226562 C 32.515625 37.425781 32.59375 37.5 32.695312 37.660156 C 32.84375 37.890625 32.984375 38.132812 33.128906 38.371094 C 33.40625 38.824219 33.714844 39.261719 34.105469 39.625 C 34.167969 39.683594 34.273438 39.742188 34.324219 39.808594 C 34.5 40.046875 34.402344 40.152344 34.203125 40.15625 C 33.890625 40.164062 33.648438 39.816406 33.441406 39.625 C 33.214844 39.417969 32.972656 39.222656 32.730469 39.035156 C 32.65625 38.976562 32.113281 38.691406 32.113281 38.578125 C 32.109375 38.480469 31.960938 38.480469 31.960938 38.578125 C 31.964844 38.769531 32.128906 38.8125 32.273438 38.894531 C 32.65625 39.117188 33.007812 39.4375 33.335938 39.734375 C 33.535156 39.914062 33.714844 40.160156 33.976562 40.257812 C 34.125 40.316406 34.398438 40.363281 34.546875 40.28125 C 35.003906 40.023438 34.191406 39.507812 34.058594 39.367188 " fill-opacity="1" fill-rule="nonzero"/><path fill="#8997b0" d="M 34.339844 40.804688 C 33.988281 40.820312 33.636719 40.910156 33.296875 40.984375 C 33.230469 41 32.445312 41.300781 32.410156 41.210938 C 32.375 41.121094 32.230469 41.160156 32.265625 41.25 C 32.34375 41.457031 32.53125 41.40625 32.707031 41.339844 C 33.21875 41.148438 33.792969 40.980469 34.339844 40.957031 C 34.433594 40.949219 34.433594 40.800781 34.339844 40.804688 " fill-opacity="1" fill-rule="nonzero"/><path fill="#8997b0" d="M 46.589844 38.8125 C 46.464844 38.617188 46.371094 38.40625 46.25 38.207031 C 46.019531 37.835938 45.789062 37.4375 45.515625 37.097656 C 45.246094 36.761719 44.960938 36.421875 44.597656 36.175781 C 44.246094 35.941406 43.871094 35.71875 43.53125 35.460938 C 43.453125 35.402344 43.378906 35.535156 43.457031 35.589844 C 44.078125 36.0625 44.742188 36.40625 45.257812 37.015625 C 45.535156 37.347656 45.730469 37.710938 45.972656 38.066406 C 46.101562 38.253906 46.210938 38.441406 46.316406 38.644531 C 46.386719 38.777344 46.570312 38.980469 46.570312 39.128906 C 46.570312 39.226562 46.722656 39.226562 46.722656 39.128906 C 46.722656 38.996094 46.660156 38.921875 46.589844 38.8125 " fill-opacity="1" fill-rule="nonzero"/><path fill="#8997b0" d="M 46.816406 37.765625 C 46.671875 37.539062 46.5625 37.300781 46.414062 37.078125 C 46.3125 36.925781 46.234375 36.792969 46.09375 36.675781 C 45.917969 36.527344 45.714844 36.429688 45.546875 36.273438 C 45.476562 36.207031 45.371094 36.316406 45.441406 36.378906 C 45.699219 36.617188 46.007812 36.75 46.214844 37.046875 C 46.324219 37.203125 46.429688 37.363281 46.519531 37.53125 C 46.609375 37.707031 46.796875 37.9375 46.820312 38.128906 C 46.832031 38.222656 46.980469 38.222656 46.972656 38.128906 C 46.953125 37.972656 46.898438 37.894531 46.816406 37.765625 " fill-opacity="1" fill-rule="nonzero"/><path fill="#8997b0" d="M 34.285156 54.183594 C 34.035156 54.488281 33.820312 54.660156 33.46875 54.828125 C 33.082031 55.007812 32.691406 55.128906 32.277344 55.226562 C 31.523438 55.398438 30.761719 55.695312 29.984375 55.714844 C 29.890625 55.71875 29.886719 55.867188 29.984375 55.863281 C 30.816406 55.84375 31.640625 55.527344 32.441406 55.34375 C 32.824219 55.253906 33.191406 55.121094 33.542969 54.957031 C 33.921875 54.777344 34.128906 54.613281 34.390625 54.292969 C 34.453125 54.21875 34.347656 54.109375 34.285156 54.183594 " fill-opacity="1" fill-rule="nonzero"/><path fill="#4d3932" d="M 42.238281 8.011719 C 42.238281 8.011719 44.820312 6.847656 46.945312 8.722656 C 48.148438 9.78125 48.996094 11.632812 49.347656 12.308594 C 49.699219 12.984375 50.25 13.335938 50.324219 14.011719 C 50.375 14.476562 49.976562 14.625 49.652344 14.832031 C 49.277344 15.066406 49.101562 15.65625 48.65625 15.773438 C 48.324219 15.855469 47.976562 15.601562 47.640625 15.640625 C 46.988281 15.710938 47.28125 16.199219 46.886719 16.574219 C 46.714844 16.734375 46.449219 16.746094 46.230469 16.664062 C 45.59375 16.417969 45.238281 15.703125 44.945312 15.140625 C 44.621094 14.511719 44.3125 13.335938 44.3125 13.335938 C 44.3125 13.335938 45.621094 12.160156 45.59375 11.960938 C 45.570312 11.761719 44.03125 9.359375 43.910156 9.359375 C 43.792969 9.359375 42.238281 8.011719 42.238281 8.011719 " fill-opacity="1" fill-rule="nonzero"/><path fill="#ffe9de" d="M 37.625 22.25 C 37.382812 22.792969 38.777344 26.117188 39.074219 26.117188 C 39.367188 26.117188 44.792969 23.496094 44.792969 23.496094 L 43.875 17.386719 C 43.875 17.386719 40.175781 20.421875 39.234375 21.039062 C 38.292969 21.660156 37.863281 21.703125 37.625 22.25 " fill-opacity="1" fill-rule="nonzero"/><path fill="#ffaf8f" d="M 20.453125 23.265625 C 20.453125 23.265625 20.410156 24 19.679688 24.34375 C 18.949219 24.6875 17.96875 24.945312 17.4375 24.980469 C 16.859375 25.019531 16.816406 24.476562 17.015625 24.027344 C 17.21875 23.578125 17.578125 23.023438 18.367188 22.59375 C 19.15625 22.164062 19.898438 22.007812 19.898438 22.007812 L 20.453125 23.265625 " fill-opacity="1" fill-rule="nonzero"/><path fill="#3d3227" d="M 33.882812 59.054688 C 33.871094 59.390625 33.835938 59.636719 33.753906 59.671875 C 33.457031 59.796875 29.171875 59.957031 28.972656 59.765625 C 28.773438 59.578125 29.105469 58.742188 29.859375 58.457031 C 29.976562 58.414062 30.085938 58.371094 30.191406 58.335938 C 30.191406 58.335938 30.785156 59.015625 31.660156 59.054688 C 32.519531 59.089844 33.828125 59.054688 33.882812 59.054688 " fill-opacity="1" fill-rule="nonzero"/><path fill="#9e663f" d="M 16.675781 8.933594 C 15.734375 8.652344 14.25 8.824219 13.828125 9.960938 C 13.273438 11.457031 14.976562 13.664062 16.675781 14.714844 C 18.378906 15.765625 20.203125 15.910156 20.304688 16.035156 C 20.40625 16.164062 19.007812 20.125 18.703125 20.792969 C 18.484375 21.273438 18.328125 22.09375 19.253906 22.644531 C 20.179688 23.195312 20.871094 23.566406 21.578125 22.933594 C 23.28125 21.417969 25.167969 15.292969 25.007812 14.6875 C 24.683594 13.480469 20.054688 9.9375 16.675781 8.933594 " fill-opacity="1" fill-rule="nonzero"/><path fill="#ffaf8f" d="M 27.871094 23.324219 C 27.703125 23.078125 26.863281 22.164062 26.582031 21.90625 C 26.296875 21.644531 24.769531 21.492188 24.566406 21.648438 C 24.363281 21.808594 24.417969 21.925781 24.628906 22.207031 C 24.839844 22.488281 26.011719 23.574219 26.277344 23.902344 C 26.5625 24.253906 27.070312 24.375 27.070312 24.375 L 28.269531 24.238281 C 28.269531 24.238281 28.039062 23.570312 27.871094 23.324219 " fill-opacity="1" fill-rule="nonzero"/><path fill="#f0dace" d="M 46.445312 18.828125 C 46.105469 18.023438 45.304688 17.15625 44.394531 17.113281 C 44.296875 17.109375 44.296875 17.261719 44.394531 17.265625 C 45.261719 17.304688 46.078125 18.230469 46.355469 19.015625 C 46.652344 19.867188 46.515625 20.835938 46.03125 21.582031 C 45.976562 21.660156 46.109375 21.738281 46.160156 21.65625 C 46.691406 20.839844 46.832031 19.742188 46.445312 18.828125 " fill-opacity="1" fill-rule="nonzero"/><path fill="#f0dace" d="M 45.34375 22.242188 C 44.835938 22.722656 44.296875 23.109375 43.75 23.53125 C 43.265625 23.902344 42.789062 24.238281 42.222656 24.472656 C 42.136719 24.507812 42.171875 24.652344 42.261719 24.617188 C 42.824219 24.386719 43.28125 24.0625 43.777344 23.710938 C 44.367188 23.289062 44.921875 22.847656 45.449219 22.347656 C 45.519531 22.28125 45.410156 22.171875 45.34375 22.242188 " fill-opacity="1" fill-rule="nonzero"/><path fill="#f0dace" d="M 45.644531 16.589844 C 45.550781 16.585938 45.441406 16.664062 45.355469 16.703125 C 45.300781 16.734375 45.246094 16.777344 45.191406 16.808594 C 45.15625 16.828125 45.117188 16.835938 45.082031 16.855469 C 45.0625 16.863281 45.046875 16.886719 45.023438 16.894531 C 44.929688 16.914062 44.96875 17.058594 45.066406 17.039062 C 45.109375 17.027344 45.136719 17 45.175781 16.976562 C 45.226562 16.953125 45.277344 16.929688 45.324219 16.902344 C 45.378906 16.867188 45.433594 16.835938 45.492188 16.808594 C 45.535156 16.789062 45.597656 16.738281 45.644531 16.738281 C 45.742188 16.742188 45.742188 16.59375 45.644531 16.589844 " fill-opacity="1" fill-rule="nonzero"/><path fill="#f0dace" d="M 50.167969 32.652344 C 49.910156 32.574219 49.652344 32.566406 49.386719 32.546875 C 48.996094 32.523438 48.617188 32.445312 48.246094 32.339844 C 47.46875 32.117188 46.769531 31.699219 46.082031 31.285156 C 45.425781 30.886719 44.78125 30.460938 44.144531 30.03125 C 43.4375 29.550781 42.808594 29.0625 42.308594 28.359375 C 42.253906 28.28125 42.121094 28.355469 42.179688 28.433594 C 43.089844 29.714844 44.570312 30.53125 45.886719 31.339844 C 46.542969 31.742188 47.226562 32.175781 47.964844 32.414062 C 48.332031 32.53125 48.699219 32.613281 49.078125 32.660156 C 49.433594 32.707031 49.785156 32.695312 50.128906 32.796875 C 50.222656 32.824219 50.261719 32.679688 50.167969 32.652344 " fill-opacity="1" fill-rule="nonzero"/><path fill="#f0dace" d="M 48.742188 33.253906 C 47.96875 33.035156 47.183594 32.753906 46.453125 32.417969 C 46.117188 32.265625 45.777344 32.121094 45.464844 31.917969 C 45.105469 31.6875 44.777344 31.414062 44.433594 31.160156 C 44.355469 31.101562 44.28125 31.230469 44.355469 31.289062 C 44.699219 31.542969 45.03125 31.816406 45.390625 32.050781 C 45.734375 32.273438 46.121094 32.433594 46.496094 32.601562 C 47.203125 32.921875 47.957031 33.1875 48.703125 33.398438 C 48.796875 33.425781 48.835938 33.28125 48.742188 33.253906 " fill-opacity="1" fill-rule="nonzero"/><path fill="#d4a979" d="M 22.394531 41.214844 C 22.234375 41.300781 22.125 41.433594 21.953125 41.507812 C 21.714844 41.617188 21.476562 41.691406 21.222656 41.734375 C 20.734375 41.816406 20.222656 41.855469 19.730469 41.855469 C 19.632812 41.855469 19.632812 42.007812 19.730469 42.007812 C 20.238281 42.003906 20.757812 41.964844 21.261719 41.878906 C 21.488281 41.839844 21.707031 41.777344 21.917969 41.6875 C 22.019531 41.644531 22.136719 41.605469 22.230469 41.542969 C 22.316406 41.488281 22.382812 41.390625 22.46875 41.34375 C 22.554688 41.300781 22.476562 41.171875 22.394531 41.214844 " fill-opacity="1" fill-rule="nonzero"/><path fill="#d4a979" d="M 22.425781 41.777344 C 22.261719 41.945312 22.050781 42.121094 21.859375 42.25 C 21.65625 42.390625 21.464844 42.515625 21.242188 42.617188 C 21.152344 42.65625 21.230469 42.785156 21.316406 42.746094 C 21.765625 42.542969 22.191406 42.234375 22.535156 41.882812 C 22.601562 41.816406 22.496094 41.707031 22.425781 41.777344 " fill-opacity="1" fill-rule="nonzero"/><path fill="#d4a979" d="M 22.566406 54.851562 C 22.378906 55.132812 21.964844 55.417969 21.664062 55.589844 C 21.351562 55.765625 20.996094 55.921875 20.648438 56.042969 C 20.621094 55.753906 20.523438 55.480469 20.507812 55.1875 C 20.492188 54.925781 20.507812 54.664062 20.507812 54.40625 C 20.515625 53.910156 20.378906 53.410156 20.355469 52.914062 C 20.328125 52.390625 20.285156 51.886719 20.191406 51.367188 C 20.136719 51.066406 20.0625 50.773438 20.019531 50.472656 C 19.980469 50.1875 20.011719 49.898438 19.992188 49.609375 C 19.921875 48.421875 19.890625 47.238281 19.859375 46.050781 C 19.847656 45.558594 19.679688 45.113281 19.582031 44.636719 C 19.457031 44.027344 19.503906 43.394531 19.503906 42.78125 C 19.503906 42.683594 19.355469 42.683594 19.355469 42.78125 C 19.355469 43.324219 19.316406 43.882812 19.394531 44.421875 C 19.472656 44.976562 19.6875 45.492188 19.710938 46.050781 C 19.734375 46.652344 19.695312 47.25 19.75 47.847656 C 19.804688 48.433594 19.808594 49.019531 19.84375 49.609375 C 19.859375 49.859375 19.828125 50.109375 19.851562 50.359375 C 19.871094 50.621094 19.945312 50.886719 19.996094 51.144531 C 20.109375 51.734375 20.175781 52.316406 20.203125 52.914062 C 20.226562 53.410156 20.347656 53.910156 20.359375 54.40625 C 20.367188 54.664062 20.34375 54.925781 20.355469 55.1875 C 20.371094 55.496094 20.480469 55.78125 20.503906 56.089844 C 20.503906 56.089844 20.503906 56.09375 20.503906 56.09375 C 20.503906 56.097656 20.5 56.097656 20.496094 56.097656 C 20.09375 56.230469 19.738281 56.28125 19.316406 56.320312 C 18.933594 56.359375 18.589844 56.4375 18.214844 56.527344 C 18.191406 56.53125 18.167969 56.554688 18.164062 56.578125 C 18.160156 56.59375 18.160156 56.605469 18.15625 56.621094 C 18.136719 56.714844 18.28125 56.753906 18.300781 56.660156 C 18.316406 56.578125 19.011719 56.515625 19.054688 56.511719 C 19.261719 56.488281 19.46875 56.46875 19.675781 56.453125 C 20.089844 56.421875 20.515625 56.277344 20.898438 56.121094 C 21.265625 55.964844 21.65625 55.792969 21.980469 55.554688 C 22.25 55.355469 22.507812 55.207031 22.695312 54.925781 C 22.75 54.847656 22.621094 54.769531 22.566406 54.851562 " fill-opacity="1" fill-rule="nonzero"/><path fill="#d4a979" d="M 20.804688 28.921875 C 20.746094 29.394531 20.59375 29.851562 20.542969 30.324219 C 20.519531 30.558594 20.464844 30.777344 20.429688 31.007812 C 20.390625 31.269531 20.417969 31.53125 20.378906 31.792969 C 20.226562 32.835938 20.464844 33.953125 20.160156 34.976562 C 20.015625 35.457031 19.878906 35.957031 19.796875 36.457031 C 19.726562 36.914062 19.71875 37.386719 19.703125 37.851562 C 19.6875 38.359375 19.65625 38.882812 19.566406 39.378906 C 19.472656 39.875 19.464844 40.40625 19.554688 40.898438 C 19.574219 40.996094 19.71875 40.953125 19.699219 40.859375 C 19.585938 40.234375 19.703125 39.660156 19.785156 39.046875 C 19.8125 38.832031 19.792969 38.625 19.796875 38.410156 C 19.804688 38.191406 19.851562 37.976562 19.851562 37.757812 C 19.855469 37.253906 19.894531 36.710938 19.992188 36.214844 C 20.085938 35.726562 20.269531 35.25 20.363281 34.761719 C 20.46875 34.226562 20.441406 33.714844 20.453125 33.175781 C 20.46875 32.667969 20.519531 32.164062 20.558594 31.664062 C 20.578125 31.40625 20.546875 31.167969 20.597656 30.914062 C 20.636719 30.714844 20.675781 30.523438 20.695312 30.324219 C 20.742188 29.851562 20.898438 29.394531 20.953125 28.921875 C 20.964844 28.828125 20.816406 28.828125 20.804688 28.921875 " fill-opacity="1" fill-rule="nonzero"/><path fill="#8a5530" d="M 23.230469 14.625 C 23.019531 14.765625 22.652344 14.78125 22.410156 14.855469 C 22.105469 14.949219 21.8125 15.078125 21.519531 15.203125 C 21.226562 15.328125 20.664062 15.515625 20.53125 15.832031 C 20.496094 15.921875 20.640625 15.960938 20.675781 15.871094 C 20.757812 15.683594 21.132812 15.570312 21.300781 15.484375 C 21.511719 15.375 21.726562 15.292969 21.941406 15.195312 C 22.222656 15.0625 22.511719 14.976562 22.808594 14.898438 C 22.960938 14.855469 23.171875 14.84375 23.304688 14.753906 C 23.386719 14.699219 23.3125 14.570312 23.230469 14.625 " fill-opacity="1" fill-rule="nonzero"/><path fill="#8a5530" d="M 22.667969 15.328125 C 22.238281 15.363281 21.851562 15.636719 21.445312 15.761719 C 21.277344 15.8125 20.695312 15.882812 20.644531 16.09375 C 20.621094 16.1875 20.765625 16.226562 20.789062 16.132812 C 20.816406 16.027344 21.527344 15.890625 21.644531 15.847656 C 21.976562 15.730469 22.316406 15.503906 22.667969 15.476562 C 22.765625 15.46875 22.765625 15.320312 22.667969 15.328125 " fill-opacity="1" fill-rule="nonzero"/><path fill="#8a5530" d="M 21.65625 22.230469 C 21.089844 22.230469 20.566406 22.25 20.039062 22.003906 C 19.609375 21.804688 19.160156 21.5625 18.765625 21.304688 C 18.683594 21.25 18.609375 21.378906 18.691406 21.433594 C 19.132812 21.726562 19.652344 22.023438 20.148438 22.21875 C 20.636719 22.410156 21.140625 22.382812 21.65625 22.382812 C 21.75 22.382812 21.75 22.230469 21.65625 22.230469 " fill-opacity="1" fill-rule="nonzero"/></svg>