<svg xmlns="http://www.w3.org/2000/svg" xmlns:xlink="http://www.w3.org/1999/xlink" width="80" zoomAndPan="magnify" viewBox="0 0 60 60" height="80" preserveAspectRatio="xMidYMid meet" version="1.0"><defs><clipPath id="e83ec56d37"><path d="M 29.246094 55.191406 L 33.449219 55.191406 L 33.449219 57.816406 L 29.246094 57.816406 Z M 29.246094 55.191406 " clip-rule="nonzero"/></clipPath><clipPath id="2c9228a722"><path d="M 29 2.324219 L 35 2.324219 L 35 7 L 29 7 Z M 29 2.324219 " clip-rule="nonzero"/></clipPath><clipPath id="db2a5ee60e"><path d="M 47.410156 33.257812 L 60 33.257812 L 60 36.722656 L 47.410156 36.722656 Z M 47.410156 33.257812 " clip-rule="nonzero"/></clipPath><clipPath id="99f2546be7"><path d="M 54 37 L 56 37 L 56 57.824219 L 54 57.824219 Z M 54 37 " clip-rule="nonzero"/></clipPath><clipPath id="2c2e1832f9"><path d="M 54 57.191406 L 55.675781 57.191406 L 55.675781 57.816406 L 54 57.816406 Z M 54 57.191406 " clip-rule="nonzero"/></clipPath><clipPath id="2249b66262"><path d="M 4 37 L 7 37 L 7 57.824219 L 4 57.824219 Z M 4 37 " clip-rule="nonzero"/></clipPath><clipPath id="da132c00d5"><path d="M 4.59375 57.191406 L 6.269531 57.191406 L 6.269531 57.816406 L 4.59375 57.816406 Z M 4.59375 57.191406 " clip-rule="nonzero"/></clipPath></defs><path fill="#8997b0" d="M 23.042969 26.273438 C 23.042969 26.273438 22.363281 28.398438 22.269531 29.425781 C 22.175781 30.453125 22.027344 31.148438 22.269531 31.421875 C 22.507812 31.691406 23.683594 32.054688 24.898438 32.117188 C 26.113281 32.175781 27.265625 31.089844 27.675781 30.601562 C 28.082031 30.117188 28.761719 28.878906 28.117188 28.289062 C 27.476562 27.699219 23.042969 26.273438 23.042969 26.273438 " fill-opacity="1" fill-rule="nonzero"/><path fill="#4d3932" d="M 22.101562 42.910156 C 22.097656 42.984375 20.351562 46.148438 20.253906 46.421875 C 19.769531 47.792969 18.851562 49.082031 18.46875 49.40625 C 17.914062 49.871094 17.011719 49.519531 17.085938 48.789062 C 17.160156 48.058594 17.535156 47.320312 17.851562 46.808594 C 18.433594 45.855469 18.917969 45.335938 18.988281 45.152344 C 19.058594 44.972656 19.945312 42.070312 19.945312 42.070312 L 22.101562 42.910156 " fill-opacity="1" fill-rule="nonzero"/><g clip-path="url(#e83ec56d37)"><path fill="#4d3932" d="M 29.363281 55.21875 C 29.363281 55.21875 29.117188 57.558594 29.363281 57.664062 C 29.613281 57.769531 33.203125 57.902344 33.367188 57.746094 C 33.535156 57.585938 33.257812 56.886719 32.625 56.644531 C 31.832031 56.34375 31.140625 56.113281 30.929688 55.996094 C 30.714844 55.875 30.804688 55.21875 30.804688 55.21875 L 29.363281 55.21875 " fill-opacity="1" fill-rule="nonzero"/></g><path fill="#a7b3c9" d="M 33.242188 26.496094 C 33.242188 26.496094 32.648438 53.863281 32.574219 54.621094 C 32.503906 55.378906 31.859375 55.578125 30.792969 55.664062 C 29.105469 55.800781 28.382812 55.292969 28.304688 54.957031 C 28.230469 54.621094 28.207031 26.832031 28.207031 26.832031 L 33.242188 26.496094 " fill-opacity="1" fill-rule="nonzero"/><path fill="#ffe9de" d="M 34.886719 10.789062 C 34.886719 10.789062 32.019531 9.660156 30.851562 9.324219 C 28.554688 8.660156 26.265625 9.121094 25.800781 9.382812 C 25.332031 9.640625 23.691406 15.15625 23.683594 16.335938 C 23.671875 17.511719 23.117188 20.527344 23.03125 23.003906 C 22.988281 24.160156 22.550781 26.933594 24.226562 27.660156 C 24.914062 27.957031 32.265625 28.976562 33.324219 27.511719 C 33.359375 27.460938 33.878906 22.351562 34.3125 18.679688 C 34.703125 15.371094 34.886719 10.789062 34.886719 10.789062 " fill-opacity="1" fill-rule="nonzero"/><path fill="#8f4838" d="M 37.394531 17.050781 C 37.394531 17.050781 37.832031 18.628906 37.949219 19.3125 C 38.070312 19.996094 38.398438 21.550781 37.378906 21.984375 C 36.542969 22.339844 35.816406 21.792969 35.371094 20.773438 C 34.925781 19.753906 34.566406 17.765625 34.566406 17.765625 L 37.394531 17.050781 " fill-opacity="1" fill-rule="nonzero"/><path fill="#a7b3c9" d="M 26.355469 26.457031 C 25.511719 26.105469 24.152344 25.957031 23.324219 27.695312 C 22.5 29.4375 17.945312 44.210938 17.90625 44.488281 C 17.871094 44.769531 19.148438 45.578125 19.886719 45.804688 C 20.625 46.03125 21.710938 46.203125 21.886719 45.960938 C 21.992188 45.820312 24.605469 39.101562 26.046875 35.144531 C 27.136719 32.140625 28.316406 29.378906 28.089844 28.484375 C 27.792969 27.3125 27.199219 26.804688 26.355469 26.457031 " fill-opacity="1" fill-rule="nonzero"/><path fill="#8f4838" d="M 22.335938 15.925781 C 22.335938 15.925781 21.148438 17.046875 20.597656 17.46875 C 20.050781 17.894531 18.628906 18.78125 17.902344 18.234375 C 17.171875 17.691406 17.414062 16.730469 18.109375 15.859375 C 18.800781 14.992188 20.390625 13.746094 20.390625 13.746094 L 22.335938 15.925781 " fill-opacity="1" fill-rule="nonzero"/><path fill="#ffe9de" d="M 34.886719 10.789062 C 34.886719 10.789062 35.992188 11.242188 36.515625 12.867188 C 36.832031 13.839844 37.398438 15.753906 37.511719 16.207031 C 37.625 16.664062 37.964844 17.871094 37.761719 17.96875 C 37.558594 18.066406 36.121094 18.515625 35.308594 18.632812 C 34.5 18.75 33.6875 18.78125 33.738281 18.652344 C 33.792969 18.523438 33.683594 12.402344 33.777344 12.226562 C 33.871094 12.054688 34.886719 10.789062 34.886719 10.789062 " fill-opacity="1" fill-rule="nonzero"/><path fill="#747385" d="M 31.65625 29.8125 C 31.679688 29.894531 31.816406 30.019531 31.863281 30.085938 C 31.953125 30.203125 32.035156 30.316406 32.140625 30.414062 C 32.242188 30.503906 32.347656 30.585938 32.449219 30.679688 C 32.570312 30.792969 32.707031 30.851562 32.839844 30.949219 C 32.90625 30.996094 32.84375 31.105469 32.777344 31.058594 C 32.660156 30.972656 32.527344 30.921875 32.417969 30.824219 C 32.285156 30.707031 32.148438 30.59375 32.023438 30.476562 C 31.910156 30.367188 31.824219 30.238281 31.726562 30.113281 C 31.660156 30.027344 31.566406 29.953125 31.535156 29.84375 C 31.511719 29.765625 31.632812 29.734375 31.65625 29.8125 " fill-opacity="1" fill-rule="nonzero"/><path fill="#a65d4c" d="M 29.199219 9.835938 L 29.625 10.773438 L 30.597656 11.382812 L 31.839844 10.417969 L 31.957031 10.058594 L 32.304688 8.992188 L 32.402344 8.6875 L 31.5625 8.769531 L 29.65625 8.074219 L 29.199219 9.835938 " fill-opacity="1" fill-rule="nonzero"/><path fill="#a65d4c" d="M 34.1875 5.058594 C 34.1875 5.058594 33.15625 7.941406 32.941406 8.355469 C 32.546875 9.125 31.132812 9.554688 30.730469 9.460938 C 30.5 9.40625 29.253906 8.4375 29.355469 7.296875 C 29.390625 6.910156 29.835938 4.066406 29.859375 4.03125 C 29.882812 3.996094 32.527344 3.0625 32.527344 3.0625 L 34.1875 5.058594 " fill-opacity="1" fill-rule="nonzero"/><path fill="#362722" d="M 32.515625 6.738281 C 32.53125 6.660156 32.574219 6.578125 32.613281 6.554688 C 32.644531 6.535156 32.6875 6.515625 32.726562 6.535156 C 32.859375 6.597656 32.714844 6.882812 32.59375 6.878906 C 32.515625 6.878906 32.503906 6.808594 32.515625 6.738281 " fill-opacity="1" fill-rule="nonzero"/><path fill="#362722" d="M 30.28125 6.035156 C 30.292969 5.957031 30.335938 5.871094 30.375 5.847656 C 30.410156 5.824219 30.453125 5.804688 30.496094 5.820312 C 30.636719 5.886719 30.488281 6.183594 30.363281 6.183594 C 30.285156 6.183594 30.265625 6.113281 30.28125 6.035156 " fill-opacity="1" fill-rule="nonzero"/><path fill="#8f4838" d="M 30.957031 7.3125 C 30.953125 7.15625 31.445312 6.40625 31.539062 6.488281 C 31.59375 6.535156 31.511719 7.09375 31.5 7.289062 C 31.492188 7.355469 31.480469 7.421875 31.445312 7.480469 C 31.367188 7.601562 31.179688 7.597656 31.074219 7.519531 C 30.988281 7.457031 30.957031 7.386719 30.957031 7.3125 " fill-opacity="1" fill-rule="nonzero"/><path fill="#a65d4c" d="M 29.746094 5.167969 C 29.746094 5.167969 29.355469 4.910156 29.222656 5.472656 C 29.089844 6.035156 29.503906 6.5625 29.503906 6.5625 L 29.746094 5.167969 " fill-opacity="1" fill-rule="nonzero"/><path fill="#a65d4c" d="M 33.714844 6.109375 C 33.714844 6.109375 34.179688 6.058594 34.042969 6.621094 C 33.910156 7.183594 33.269531 7.414062 33.269531 7.414062 L 33.714844 6.109375 " fill-opacity="1" fill-rule="nonzero"/><path fill="#8f4838" d="M 29.964844 9.25 C 30.042969 9.488281 30.507812 10.039062 31.296875 10.058594 C 31.613281 10.066406 31.820312 10.0625 31.957031 10.058594 L 32.304688 8.992188 C 32.269531 9.011719 31.371094 9.460938 30.875 9.4375 C 30.363281 9.414062 30.136719 8.890625 30.046875 8.902344 C 29.960938 8.914062 29.886719 9.015625 29.964844 9.25 " fill-opacity="1" fill-rule="nonzero"/><path fill="#362722" d="M 32.453125 5.882812 C 32.460938 5.863281 32.480469 5.84375 32.515625 5.828125 C 32.605469 5.789062 32.769531 5.832031 32.859375 5.859375 C 33.0625 5.925781 33.242188 6.0625 33.320312 6.265625 C 33.367188 6.394531 33.074219 6.234375 33.027344 6.214844 C 32.894531 6.164062 32.753906 6.109375 32.617188 6.0625 C 32.53125 6.035156 32.425781 5.949219 32.453125 5.882812 " fill-opacity="1" fill-rule="nonzero"/><path fill="#362722" d="M 31.132812 5.488281 C 31.136719 5.46875 31.136719 5.441406 31.117188 5.40625 C 31.070312 5.320312 30.917969 5.25 30.832031 5.214844 C 30.632812 5.136719 30.40625 5.132812 30.21875 5.238281 C 30.101562 5.304688 30.429688 5.371094 30.476562 5.382812 C 30.613281 5.429688 30.753906 5.476562 30.890625 5.527344 C 30.972656 5.558594 31.109375 5.558594 31.132812 5.488281 " fill-opacity="1" fill-rule="nonzero"/><g clip-path="url(#2c9228a722)"><path fill="#362722" d="M 29.699219 5.144531 C 29.699219 5.144531 29.824219 5.160156 30.058594 4.859375 C 30.207031 4.667969 30.324219 4.460938 30.398438 4.230469 C 30.4375 4.117188 30.488281 4.003906 30.605469 3.957031 C 30.671875 3.929688 30.742188 3.925781 30.8125 3.925781 C 31.78125 3.90625 32.695312 4.441406 33.203125 5.261719 C 33.28125 5.390625 33.359375 5.523438 33.410156 5.664062 C 33.46875 5.820312 33.5 5.988281 33.59375 6.128906 C 33.851562 6.527344 34.410156 5.878906 34.507812 5.628906 C 35.167969 3.925781 33.738281 3.09375 33.484375 2.902344 C 33.230469 2.710938 32.570312 2.335938 31.476562 2.59375 C 30.871094 2.738281 30.515625 2.496094 29.96875 3.695312 C 29.761719 4.152344 29.699219 5.144531 29.699219 5.144531 " fill-opacity="1" fill-rule="nonzero"/></g><path fill="#8f4838" d="M 31.570312 8.085938 C 31.320312 8.199219 30.6875 8.089844 30.570312 7.800781 C 30.542969 7.726562 30.417969 7.757812 30.449219 7.832031 C 30.601562 8.210938 31.296875 8.347656 31.636719 8.195312 C 31.707031 8.160156 31.644531 8.050781 31.570312 8.085938 " fill-opacity="1" fill-rule="nonzero"/><path fill="#ffe9de" d="M 32.175781 9.972656 C 32.175781 9.972656 31.765625 10.375 30.917969 10.285156 C 29.824219 10.167969 29.285156 9.238281 29.261719 9.238281 C 29.238281 9.238281 28.570312 9.480469 28.558594 9.605469 C 28.542969 9.730469 28.59375 10.492188 29.0625 10.710938 C 29.535156 10.929688 29.742188 11.101562 30.09375 11.238281 C 30.449219 11.375 30.710938 11.832031 30.988281 11.820312 C 31.265625 11.808594 31.753906 10.988281 31.96875 10.828125 C 32.1875 10.664062 32.175781 9.972656 32.175781 9.972656 " fill-opacity="1" fill-rule="nonzero"/><path fill="#f7936a" d="M 28.816406 23.121094 C 28.816406 23.121094 27.851562 21.125 26.65625 20.9375 C 25.464844 20.746094 23.640625 21.628906 21.945312 22.363281 C 20.246094 23.101562 15.09375 25.328125 14.609375 25.390625 C 14.128906 25.453125 12.203125 24.210938 11.84375 24.046875 C 10.90625 23.613281 10.921875 24.296875 11.027344 24.675781 C 11.132812 25.054688 12.640625 26.378906 13.144531 26.964844 C 13.644531 27.554688 13.707031 27.867188 14.234375 27.953125 C 14.757812 28.039062 15.007812 27.027344 15.65625 26.859375 C 16.308594 26.691406 22.636719 25.851562 23.640625 25.410156 C 24.648438 24.96875 25.191406 24.625 25.316406 24.738281 C 25.441406 24.851562 25.800781 25.472656 25.800781 25.472656 L 28.816406 23.121094 " fill-opacity="1" fill-rule="nonzero"/><path fill="#4f3228" d="M 33.738281 29.386719 C 33.738281 29.386719 28.996094 22.761719 28.742188 22.605469 C 28.492188 22.449219 26.636719 23.804688 26.261719 24.183594 C 25.882812 24.558594 25.160156 25.378906 25.160156 25.535156 C 25.160156 25.695312 27.675781 30.601562 27.675781 30.601562 L 30 30.835938 L 33.738281 29.386719 " fill-opacity="1" fill-rule="nonzero"/><path fill="#ffaf8f" d="M 22.949219 30.074219 C 22.949219 30.074219 18.75 30.160156 18.289062 30.160156 C 17.828125 30.160156 7.472656 31.484375 6.9375 31.574219 C 6.402344 31.664062 5.835938 28.210938 5 28.378906 C 4.613281 28.460938 4.773438 29.875 4.820312 30.964844 C 4.867188 32.058594 4.632812 33.269531 5.300781 33.425781 C 5.675781 33.511719 6.402344 33.230469 6.855469 33.1875 C 7.3125 33.148438 14.828125 33.765625 14.828125 33.765625 L 23.117188 33.519531 L 22.949219 30.074219 " fill-opacity="1" fill-rule="nonzero"/><path fill="#f7936a" d="M 6.035156 32.222656 C 6.121094 32.207031 6.222656 32.269531 6.304688 32.292969 C 6.386719 32.3125 6.46875 32.332031 6.554688 32.320312 C 6.636719 32.3125 6.617188 32.183594 6.535156 32.191406 C 6.355469 32.210938 6.191406 32.0625 6.015625 32.09375 C 5.933594 32.105469 5.953125 32.234375 6.035156 32.222656 " fill-opacity="1" fill-rule="nonzero"/><path fill="#5c3d32" d="M 33.882812 29.300781 C 33.882812 29.300781 32.359375 28.835938 26.953125 29.109375 C 25.085938 29.207031 22.445312 29.4375 22.109375 29.636719 C 21.777344 29.835938 21.699219 30.980469 21.734375 31.820312 C 21.765625 32.664062 22.101562 33.503906 22.269531 33.714844 C 22.433594 33.921875 33.507812 34.257812 33.507812 34.257812 L 33.882812 29.300781 " fill-opacity="1" fill-rule="nonzero"/><path fill="#f7936a" d="M 54.234375 28.515625 C 54.234375 28.515625 53.558594 27.949219 53.316406 27.910156 C 53.074219 27.871094 52.914062 28.460938 52.914062 28.460938 L 54.234375 28.515625 " fill-opacity="1" fill-rule="nonzero"/><path fill="#ffaf8f" d="M 57.171875 29.414062 C 57.171875 29.414062 56.226562 28.484375 54.871094 28.441406 C 53.515625 28.402344 51.359375 28.207031 51.050781 28.742188 C 50.644531 29.453125 51.027344 30.421875 50.746094 30.546875 C 50.460938 30.675781 48.695312 30.664062 48.695312 30.664062 L 48.753906 33.300781 L 56.851562 32.972656 L 57.171875 29.414062 " fill-opacity="1" fill-rule="nonzero"/><path fill="#f7936a" d="M 52.410156 28.546875 C 52.375 28.644531 52.339844 28.71875 52.339844 28.824219 C 52.339844 28.9375 52.347656 29.085938 52.394531 29.1875 C 52.433594 29.265625 52.316406 29.335938 52.28125 29.257812 C 52.226562 29.148438 52.214844 29.003906 52.207031 28.882812 C 52.199219 28.738281 52.230469 28.644531 52.277344 28.515625 C 52.308594 28.433594 52.441406 28.464844 52.410156 28.546875 " fill-opacity="1" fill-rule="nonzero"/><path fill="#d18d56" d="M 54.871094 28.777344 C 54.753906 28.871094 54.761719 29.078125 54.75 29.210938 C 54.738281 29.324219 54.714844 29.4375 54.699219 29.550781 C 54.6875 29.632812 54.742188 29.65625 54.8125 29.621094 C 54.847656 29.601562 54.875 29.566406 54.890625 29.53125 C 54.929688 29.457031 54.960938 29.378906 54.988281 29.300781 C 55.039062 29.144531 55.0625 28.980469 55.039062 28.820312 C 55.039062 28.8125 55.035156 28.804688 55.035156 28.800781 C 55.011719 28.730469 54.929688 28.730469 54.871094 28.777344 " fill-opacity="1" fill-rule="nonzero"/><path fill="#4d3932" d="M 54.242188 28.847656 C 54.316406 28.828125 54.40625 28.835938 54.445312 28.859375 C 54.476562 28.882812 54.511719 28.914062 54.511719 28.957031 C 54.507812 29.105469 54.191406 29.089844 54.144531 28.976562 C 54.113281 28.90625 54.167969 28.863281 54.242188 28.847656 " fill-opacity="1" fill-rule="nonzero"/><path fill="#e35e4b" d="M 50.058594 32.867188 C 50.058594 32.867188 49.335938 30.882812 48.671875 30.015625 C 47.886719 28.988281 46.613281 28.269531 43.988281 28.398438 C 42.625 28.464844 36.394531 28.921875 35.578125 28.945312 C 34.757812 28.964844 34.226562 28.816406 33.769531 29.089844 C 33.3125 29.363281 33.105469 30.351562 32.894531 31.210938 C 32.683594 32.074219 32.980469 33.5 32.980469 33.5 C 32.980469 33.5 41.039062 36.066406 41.246094 36.066406 C 41.457031 36.066406 50.222656 33.441406 50.222656 33.441406 L 50.058594 32.867188 " fill-opacity="1" fill-rule="nonzero"/><path fill="#ffaf8f" d="M 31.78125 32.433594 C 31.78125 32.433594 30.003906 32.066406 29.734375 32.121094 C 29.464844 32.175781 28.375 32.886719 28.234375 33.085938 C 28.089844 33.285156 28.121094 33.496094 28.121094 33.496094 C 28.121094 33.496094 31.585938 33.667969 31.617188 33.625 C 31.644531 33.585938 31.882812 33.019531 31.882812 33.019531 L 31.78125 32.433594 " fill-opacity="1" fill-rule="nonzero"/><path fill="#ffaf8f" d="M 44.6875 31.0625 L 39.371094 31.445312 C 39.371094 31.445312 37.65625 31.175781 36.847656 31.324219 C 36.039062 31.472656 31.710938 32.449219 31.710938 32.449219 L 31.730469 33.5625 L 44.734375 33.765625 L 44.6875 31.0625 " fill-opacity="1" fill-rule="nonzero"/><path fill="#f5e8e1" d="M 3.636719 38.007812 L 56.628906 38.007812 C 57.703125 38.007812 58.570312 37.140625 58.570312 36.066406 L 1.695312 36.066406 C 1.695312 37.140625 2.566406 38.007812 3.636719 38.007812 " fill-opacity="1" fill-rule="nonzero"/><g clip-path="url(#db2a5ee60e)"><path fill="#874c43" d="M 48.867188 36.695312 L 58.570312 36.695312 C 59.359375 36.695312 60 36.054688 60 35.261719 L 60 34.707031 C 60 33.914062 59.359375 33.273438 58.570312 33.273438 L 48.867188 33.273438 C 48.078125 33.273438 47.4375 33.914062 47.4375 34.707031 L 47.4375 35.261719 C 47.4375 36.054688 48.078125 36.695312 48.867188 36.695312 " fill-opacity="1" fill-rule="nonzero"/></g><path fill="#874c43" d="M 35.332031 36.695312 L 46.417969 36.695312 C 47.207031 36.695312 47.847656 36.054688 47.847656 35.261719 L 47.847656 34.707031 C 47.847656 33.914062 47.207031 33.273438 46.417969 33.273438 L 35.332031 33.273438 C 34.542969 33.273438 33.902344 33.914062 33.902344 34.707031 L 33.902344 35.261719 C 33.902344 36.054688 34.542969 36.695312 35.332031 36.695312 " fill-opacity="1" fill-rule="nonzero"/><path fill="#874c43" d="M 11.488281 36.695312 L 33.046875 36.695312 C 33.839844 36.695312 34.476562 36.054688 34.476562 35.261719 L 34.476562 34.707031 C 34.476562 33.914062 33.839844 33.273438 33.046875 33.273438 L 11.488281 33.273438 C 10.699219 33.273438 10.058594 33.914062 10.058594 34.707031 L 10.058594 35.261719 C 10.058594 36.054688 10.699219 36.695312 11.488281 36.695312 " fill-opacity="1" fill-rule="nonzero"/><path fill="#874c43" d="M 1.429688 36.695312 L 9.171875 36.695312 C 9.960938 36.695312 10.601562 36.054688 10.601562 35.261719 L 10.601562 34.707031 C 10.601562 33.914062 9.960938 33.273438 9.171875 33.273438 L 1.429688 33.273438 C 0.640625 33.273438 0 33.914062 0 34.707031 L 0 35.261719 C 0 36.054688 0.640625 36.695312 1.429688 36.695312 " fill-opacity="1" fill-rule="nonzero"/><g clip-path="url(#99f2546be7)"><path fill="#f5e8e1" d="M 54.058594 57.488281 L 55.628906 57.488281 L 55.628906 37.632812 L 54.058594 37.632812 L 54.058594 57.488281 " fill-opacity="1" fill-rule="nonzero"/></g><g clip-path="url(#2c2e1832f9)"><path fill="#3d3227" d="M 54.4375 57.800781 L 55.253906 57.800781 C 55.550781 57.800781 55.75 57.496094 55.632812 57.222656 L 55.632812 57.21875 L 54.058594 57.21875 L 54.058594 57.222656 C 53.941406 57.496094 54.140625 57.800781 54.4375 57.800781 " fill-opacity="1" fill-rule="nonzero"/></g><g clip-path="url(#2249b66262)"><path fill="#f5e8e1" d="M 6.207031 57.488281 L 4.636719 57.488281 L 4.636719 37.632812 L 6.207031 37.632812 L 6.207031 57.488281 " fill-opacity="1" fill-rule="nonzero"/></g><g clip-path="url(#da132c00d5)"><path fill="#3d3227" d="M 5.828125 57.800781 L 5.015625 57.800781 C 4.71875 57.800781 4.515625 57.496094 4.632812 57.222656 L 4.636719 57.21875 L 6.207031 57.21875 L 6.210938 57.222656 C 6.328125 57.496094 6.125 57.800781 5.828125 57.800781 " fill-opacity="1" fill-rule="nonzero"/></g><path fill="#e8d4ca" d="M 54.226562 37.988281 L 55.527344 37.988281 C 55.605469 37.988281 55.605469 38.113281 55.527344 38.113281 L 54.226562 38.113281 C 54.144531 38.113281 54.144531 37.988281 54.226562 37.988281 " fill-opacity="1" fill-rule="nonzero"/><path fill="#e8d4ca" d="M 4.792969 37.925781 C 5.210938 37.925781 5.636719 37.949219 6.050781 37.945312 C 6.132812 37.945312 6.132812 38.070312 6.050781 38.074219 C 5.636719 38.074219 5.210938 38.050781 4.792969 38.050781 C 4.710938 38.050781 4.710938 37.925781 4.792969 37.925781 " fill-opacity="1" fill-rule="nonzero"/><path fill="#c9503e" d="M 44.460938 30.476562 C 44.800781 30.464844 45.132812 30.417969 45.464844 30.363281 C 45.84375 30.292969 46.203125 30.28125 46.570312 30.140625 C 47.246094 29.878906 47.867188 30.113281 48.539062 30.273438 C 48.558594 30.277344 48.578125 30.296875 48.582031 30.316406 C 48.585938 30.324219 48.585938 30.328125 48.585938 30.335938 C 48.601562 30.414062 48.480469 30.449219 48.464844 30.367188 C 48.460938 30.351562 48.03125 30.265625 48 30.261719 C 47.789062 30.214844 47.574219 30.160156 47.355469 30.140625 C 46.957031 30.105469 46.675781 30.265625 46.308594 30.375 C 46.015625 30.460938 45.699219 30.445312 45.398438 30.503906 C 45.089844 30.5625 44.777344 30.59375 44.460938 30.601562 C 44.378906 30.605469 44.378906 30.480469 44.460938 30.476562 " fill-opacity="1" fill-rule="nonzero"/><path fill="#c9503e" d="M 45.027344 30.914062 C 45.351562 31.195312 45.636719 31.546875 45.859375 31.910156 C 45.953125 32.066406 46.042969 32.222656 46.109375 32.390625 C 46.171875 32.542969 46.214844 32.769531 46.308594 32.917969 C 46.339844 32.917969 46.371094 32.9375 46.367188 32.976562 C 46.367188 32.988281 46.367188 33.003906 46.363281 33.015625 C 46.359375 33.0625 46.296875 33.105469 46.257812 33.058594 C 46.054688 32.8125 46.015625 32.441406 45.863281 32.160156 C 45.625 31.734375 45.3125 31.328125 44.941406 31.003906 C 44.878906 30.953125 44.96875 30.863281 45.027344 30.914062 " fill-opacity="1" fill-rule="nonzero"/><path fill="#c9503e" d="M 46.171875 31.578125 C 46.296875 31.789062 46.410156 32 46.496094 32.226562 C 46.550781 32.367188 46.597656 32.511719 46.644531 32.65625 C 46.671875 32.738281 46.695312 32.921875 46.777344 32.964844 C 46.847656 33.003906 46.785156 33.113281 46.714844 33.074219 C 46.566406 32.992188 46.539062 32.726562 46.492188 32.585938 C 46.378906 32.253906 46.246094 31.941406 46.0625 31.644531 C 46.019531 31.574219 46.128906 31.511719 46.171875 31.578125 " fill-opacity="1" fill-rule="nonzero"/><path fill="#c9503e" d="M 34.785156 31.425781 C 34.992188 31.386719 35.140625 31.074219 35.273438 30.914062 C 35.429688 30.722656 35.597656 30.582031 35.785156 30.421875 C 35.941406 30.289062 36.113281 30.179688 36.28125 30.054688 C 36.527344 29.875 36.742188 29.65625 36.957031 29.445312 C 37.015625 29.386719 37.105469 29.476562 37.046875 29.535156 C 36.640625 29.933594 36.199219 30.242188 35.761719 30.601562 C 35.539062 30.78125 35.355469 30.996094 35.179688 31.226562 C 35.066406 31.378906 35.015625 31.511719 34.816406 31.546875 C 34.738281 31.5625 34.707031 31.441406 34.785156 31.425781 " fill-opacity="1" fill-rule="nonzero"/><path fill="#c9503e" d="M 34.175781 31.761719 C 34.261719 31.457031 34.402344 31.101562 34.597656 30.84375 C 34.828125 30.539062 35.226562 30.453125 35.492188 30.179688 C 35.546875 30.121094 35.636719 30.210938 35.578125 30.269531 C 35.339844 30.515625 34.980469 30.605469 34.75 30.851562 C 34.527344 31.089844 34.386719 31.484375 34.296875 31.796875 C 34.273438 31.875 34.152344 31.839844 34.175781 31.761719 " fill-opacity="1" fill-rule="nonzero"/><path fill="#826055" d="M 32.203125 30.359375 C 32.296875 30.039062 32.421875 29.699219 32.589844 29.414062 C 32.628906 29.347656 32.738281 29.410156 32.699219 29.480469 C 32.542969 29.742188 32.414062 30.097656 32.324219 30.390625 C 32.207031 30.796875 32.132812 31.199219 32.140625 31.621094 C 32.140625 31.703125 32.015625 31.703125 32.015625 31.621094 C 32.007812 31.183594 32.082031 30.78125 32.203125 30.359375 " fill-opacity="1" fill-rule="nonzero"/><path fill="#826055" d="M 31.453125 30.320312 C 31.496094 30.082031 31.519531 29.84375 31.609375 29.621094 C 31.636719 29.546875 31.761719 29.578125 31.730469 29.652344 C 31.648438 29.855469 31.628906 30.070312 31.585938 30.28125 C 31.527344 30.550781 31.457031 30.875 31.449219 31.148438 C 31.445312 31.230469 31.320312 31.230469 31.324219 31.148438 C 31.332031 30.878906 31.40625 30.589844 31.453125 30.320312 " fill-opacity="1" fill-rule="nonzero"/><path fill="#d18d56" d="M 56.417969 28.878906 C 56.417969 28.878906 55.804688 29.464844 55.585938 30.023438 C 55.367188 30.582031 54.492188 30.671875 54.324219 30.835938 C 54.152344 31.003906 54.246094 31.425781 53.71875 31.550781 C 53.191406 31.675781 52.855469 31.058594 52.644531 31.0625 C 52.4375 31.066406 51.679688 31.253906 51.347656 31.546875 C 51.011719 31.84375 50.753906 31.96875 50.222656 32.117188 C 49.691406 32.261719 49.378906 32.171875 49.335938 32.726562 C 49.292969 33.277344 49.457031 33.609375 50.222656 33.609375 C 50.988281 33.609375 55.851562 33.523438 56.523438 33.460938 C 57.191406 33.398438 57.464844 33.019531 57.609375 32.179688 C 57.757812 31.339844 58.070312 31.007812 57.445312 29.738281 C 57.171875 29.195312 56.417969 28.878906 56.417969 28.878906 " fill-opacity="1" fill-rule="nonzero"/><path fill="#d18d56" d="M 49.730469 32.226562 C 49.730469 32.226562 49.046875 32.296875 48.96875 32.738281 C 48.890625 33.179688 48.628906 33.96875 48.695312 34.503906 C 48.765625 35.039062 49 35.605469 49.660156 36.03125 C 50.320312 36.457031 51.121094 35.875 51.609375 35.449219 C 52.09375 35.023438 52.519531 34.960938 53.351562 34.675781 C 54.183594 34.394531 54.25 33.878906 54.65625 33.765625 C 55.066406 33.652344 56.710938 33.429688 56.710938 33.429688 C 56.710938 33.429688 55.222656 32.753906 54.625 32.707031 C 54.027344 32.660156 49.730469 32.226562 49.730469 32.226562 " fill-opacity="1" fill-rule="nonzero"/><path fill="#a65d4c" d="M 29.332031 9.324219 C 29.332031 9.324219 29.511719 11.464844 30.101562 11.472656 C 30.691406 11.480469 31.933594 10.132812 31.933594 10.132812 L 30.917969 10.0625 L 29.859375 9.558594 L 29.332031 9.324219 " fill-opacity="1" fill-rule="nonzero"/><path fill="#f0dace" d="M 32.480469 10.445312 C 32.113281 10.835938 31.6875 11.222656 31.25 11.53125 C 31 11.703125 30.734375 11.835938 30.464844 11.976562 C 30.335938 12.042969 30.046875 12.292969 29.902344 12.289062 C 29.886719 12.289062 29.878906 12.292969 29.867188 12.300781 C 29.695312 12.164062 29.570312 11.859375 29.476562 11.667969 C 29.390625 11.492188 29.296875 11.316406 29.21875 11.136719 C 29.113281 10.902344 29.035156 10.652344 28.976562 10.402344 C 28.921875 10.175781 28.828125 9.945312 28.863281 9.707031 C 28.875 9.628906 28.753906 9.601562 28.742188 9.683594 C 28.707031 9.90625 28.777344 10.097656 28.828125 10.316406 C 28.894531 10.605469 28.976562 10.882812 29.089844 11.160156 C 29.171875 11.355469 29.277344 11.542969 29.367188 11.734375 C 29.472656 11.945312 29.597656 12.25 29.789062 12.398438 C 29.816406 12.417969 29.847656 12.410156 29.867188 12.394531 C 29.878906 12.40625 29.894531 12.414062 29.914062 12.414062 C 30.078125 12.417969 30.308594 12.207031 30.445312 12.128906 C 30.730469 11.972656 31.015625 11.835938 31.285156 11.65625 C 31.753906 11.347656 32.191406 10.933594 32.574219 10.527344 C 32.628906 10.46875 32.535156 10.386719 32.480469 10.445312 " fill-opacity="1" fill-rule="nonzero"/><path fill="#ffe9de" d="M 26.664062 9.128906 C 26.664062 9.128906 23.839844 9.777344 22.738281 10.789062 C 21.640625 11.796875 18.96875 14.375 18.96875 14.597656 C 18.96875 14.820312 20.949219 17.152344 21.261719 17.152344 C 21.578125 17.152344 26.007812 14.222656 26.007812 14.222656 L 26.664062 9.128906 " fill-opacity="1" fill-rule="nonzero"/><path fill="#a65d4c" d="M 17.457031 17.214844 C 17.414062 17.558594 17.292969 18.527344 18.601562 19.597656 C 19.910156 20.667969 23.214844 23.46875 23.214844 23.46875 L 23.9375 22.222656 C 23.9375 22.222656 22.445312 20.050781 21.117188 17.976562 C 19.789062 15.902344 19.023438 15.773438 18.324219 15.992188 C 17.625 16.210938 17.5 16.875 17.457031 17.214844 " fill-opacity="1" fill-rule="nonzero"/><path fill="#a65d4c" d="M 23.726562 21.914062 C 23.726562 21.914062 24.621094 22.886719 24.800781 23.292969 C 24.980469 23.699219 25.21875 24.820312 25.15625 25.015625 C 24.980469 25.617188 24.40625 25.820312 24.144531 25.742188 C 23.503906 25.550781 23.171875 24.523438 23.089844 24.273438 C 22.875 23.613281 23.03125 23.003906 23.03125 23.003906 L 23.726562 21.914062 " fill-opacity="1" fill-rule="nonzero"/><path fill="#a65d4c" d="M 37.253906 19.429688 C 36.945312 19.277344 35.988281 18.992188 34.546875 19.875 C 33.101562 20.753906 29.449219 23.035156 29.449219 23.035156 L 30.300781 24.042969 C 30.300781 24.042969 32.839844 23.359375 35.234375 22.789062 C 38.171875 22.09375 38.148438 21.375 38.148438 20.777344 C 38.148438 20.042969 37.558594 19.585938 37.253906 19.429688 " fill-opacity="1" fill-rule="nonzero"/><path fill="#a65d4c" d="M 29.617188 22.953125 C 29.617188 22.953125 28.960938 22.734375 28.566406 22.78125 C 28.175781 22.824219 27.226562 23.40625 26.953125 23.730469 C 26.648438 24.089844 26.84375 24.59375 27.148438 24.867188 C 27.324219 25.023438 28.085938 25.097656 28.601562 25.042969 C 29.113281 24.988281 30.503906 24.003906 30.503906 24.003906 C 30.503906 24.003906 31.140625 22.945312 31.074219 22.890625 C 31.007812 22.835938 29.617188 22.953125 29.617188 22.953125 " fill-opacity="1" fill-rule="nonzero"/><path fill="#f0dace" d="M 25.171875 10.042969 C 25.171875 9.960938 25.046875 9.960938 25.042969 10.042969 C 25.027344 10.496094 24.890625 10.972656 24.785156 11.414062 C 24.683594 11.84375 24.566406 12.273438 24.410156 12.6875 C 24.285156 13.023438 24.183594 13.375 24.058594 13.710938 C 23.992188 13.894531 23.917969 14.074219 23.832031 14.246094 C 23.765625 14.378906 23.667969 14.492188 23.621094 14.636719 C 23.597656 14.714844 23.71875 14.746094 23.742188 14.671875 C 23.800781 14.480469 23.949219 14.308594 24.03125 14.125 C 24.09375 13.984375 24.144531 13.839844 24.195312 13.699219 C 24.332031 13.324219 24.464844 12.945312 24.59375 12.570312 C 24.734375 12.167969 24.839844 11.746094 24.933594 11.328125 C 25.019531 10.941406 25.132812 10.542969 25.164062 10.144531 C 25.167969 10.136719 25.171875 10.125 25.171875 10.113281 L 25.171875 10.042969 " fill-opacity="1" fill-rule="nonzero"/><path fill="#f0dace" d="M 25.296875 11.585938 C 25.296875 11.828125 25.191406 12.128906 25.136719 12.363281 C 25.070312 12.652344 24.988281 12.917969 24.886719 13.195312 C 24.769531 13.503906 24.621094 13.796875 24.449219 14.078125 C 24.375 14.203125 24.292969 14.324219 24.214844 14.445312 C 24.109375 14.601562 24.023438 14.835938 23.859375 14.933594 C 23.792969 14.976562 23.855469 15.085938 23.925781 15.042969 C 24.15625 14.902344 24.261719 14.605469 24.40625 14.378906 C 24.617188 14.066406 24.800781 13.734375 24.945312 13.382812 C 25.070312 13.082031 25.183594 12.765625 25.25 12.445312 C 25.308594 12.164062 25.421875 11.871094 25.421875 11.585938 C 25.421875 11.503906 25.296875 11.503906 25.296875 11.585938 " fill-opacity="1" fill-rule="nonzero"/><path fill="#f0dace" d="M 35.230469 11.484375 C 35.222656 11.484375 35.210938 11.488281 35.199219 11.492188 C 35.175781 11.496094 35.160156 11.515625 35.15625 11.535156 C 35.035156 12.003906 34.859375 12.457031 34.738281 12.925781 C 34.605469 13.441406 34.484375 13.96875 34.371094 14.488281 C 34.265625 14.960938 34.230469 15.402344 34.1875 15.878906 C 34.160156 16.15625 34.175781 16.425781 34.132812 16.703125 C 34.097656 16.902344 34.066406 17.101562 34.054688 17.300781 C 34.050781 17.382812 34.175781 17.382812 34.179688 17.300781 C 34.195312 17.058594 34.25 16.808594 34.28125 16.566406 C 34.3125 16.320312 34.289062 16.066406 34.320312 15.820312 C 34.347656 15.578125 34.335938 15.339844 34.371094 15.101562 C 34.410156 14.871094 34.464844 14.640625 34.515625 14.414062 C 34.625 13.929688 34.734375 13.4375 34.859375 12.957031 C 34.921875 12.71875 35.023438 12.488281 35.09375 12.25 C 35.121094 12.152344 35.199219 11.621094 35.265625 11.605469 C 35.34375 11.585938 35.3125 11.464844 35.230469 11.484375 " fill-opacity="1" fill-rule="nonzero"/><path fill="#f0dace" d="M 32.597656 14.242188 C 32.40625 14.496094 32.203125 14.742188 32.011719 14.996094 C 31.832031 15.234375 31.695312 15.496094 31.546875 15.75 C 31.175781 16.375 30.800781 17.023438 30.316406 17.566406 C 29.90625 18.027344 29.550781 18.527344 29.148438 18.996094 C 28.921875 19.265625 28.652344 19.503906 28.402344 19.75 C 28.304688 19.847656 28.195312 19.9375 28.113281 20.046875 C 28.019531 20.164062 27.972656 20.292969 27.871094 20.40625 C 27.816406 20.46875 27.90625 20.558594 27.960938 20.496094 C 28.152344 20.285156 28.28125 20.046875 28.488281 19.839844 C 28.738281 19.589844 29.007812 19.355469 29.238281 19.085938 C 29.441406 18.847656 29.613281 18.585938 29.808594 18.34375 C 30.019531 18.078125 30.261719 17.832031 30.480469 17.570312 C 30.914062 17.054688 31.25 16.472656 31.601562 15.902344 C 31.785156 15.601562 31.945312 15.296875 32.15625 15.011719 C 32.335938 14.769531 32.527344 14.546875 32.703125 14.308594 C 32.753906 14.242188 32.644531 14.179688 32.597656 14.242188 " fill-opacity="1" fill-rule="nonzero"/><path fill="#8997b0" d="M 32.039062 54.597656 C 31.984375 54.429688 31.828125 54.292969 31.714844 54.152344 C 31.523438 53.921875 31.382812 53.675781 31.214844 53.425781 C 30.886719 52.953125 30.585938 52.460938 30.320312 51.945312 C 30.03125 51.378906 29.753906 50.785156 29.523438 50.191406 C 29.324219 49.683594 29.15625 49.15625 28.933594 48.660156 C 28.898438 48.585938 28.792969 48.648438 28.824219 48.722656 C 29.074219 49.28125 29.246094 49.882812 29.492188 50.445312 C 29.710938 50.953125 29.9375 51.464844 30.1875 51.957031 C 30.4375 52.457031 30.722656 52.945312 31.042969 53.402344 C 31.183594 53.605469 31.292969 53.832031 31.441406 54.027344 C 31.53125 54.152344 31.640625 54.269531 31.738281 54.390625 C 31.785156 54.453125 31.894531 54.5625 31.917969 54.632812 C 31.945312 54.710938 32.066406 54.675781 32.039062 54.597656 " fill-opacity="1" fill-rule="nonzero"/><path fill="#8997b0" d="M 30.894531 54.023438 C 30.707031 53.808594 30.570312 53.554688 30.414062 53.3125 C 30.273438 53.089844 30.210938 52.832031 30.066406 52.609375 C 30.019531 52.542969 29.910156 52.605469 29.957031 52.671875 C 30.117188 52.917969 30.199219 53.207031 30.359375 53.457031 C 30.5 53.679688 30.628906 53.910156 30.804688 54.113281 C 30.855469 54.175781 30.945312 54.085938 30.894531 54.023438 " fill-opacity="1" fill-rule="nonzero"/><path fill="#8997b0" d="M 23.804688 38.644531 C 23.625 38.800781 23.414062 38.921875 23.246094 39.085938 C 23.070312 39.25 22.917969 39.449219 22.75 39.621094 C 22.367188 40.007812 21.980469 40.378906 21.585938 40.75 C 21.222656 41.085938 20.835938 41.425781 20.445312 41.730469 C 20.234375 41.894531 20.027344 42.050781 19.800781 42.1875 C 19.609375 42.300781 19.394531 42.480469 19.183594 42.535156 C 19.105469 42.558594 19.136719 42.679688 19.214844 42.660156 C 19.414062 42.605469 19.59375 42.453125 19.769531 42.351562 C 19.996094 42.214844 20.207031 42.070312 20.417969 41.910156 C 20.621094 41.753906 20.800781 41.582031 20.992188 41.414062 C 21.171875 41.253906 21.371094 41.140625 21.542969 40.96875 C 21.941406 40.570312 22.359375 40.195312 22.757812 39.792969 C 22.914062 39.632812 23.082031 39.480469 23.226562 39.3125 C 23.414062 39.085938 23.667969 38.925781 23.894531 38.734375 C 23.957031 38.683594 23.867188 38.59375 23.804688 38.644531 " fill-opacity="1" fill-rule="nonzero"/></svg>