<svg xmlns="http://www.w3.org/2000/svg" xmlns:xlink="http://www.w3.org/1999/xlink" width="80" zoomAndPan="magnify" viewBox="0 0 60 60" height="80" preserveAspectRatio="xMidYMid meet" version="1.0"><defs><clipPath id="c0eca47471"><path d="M 15.710938 38 L 35 38 L 35 56 L 15.710938 56 Z M 15.710938 38 " clip-rule="nonzero"/></clipPath><clipPath id="0c96a15479"><path d="M 38 9 L 44.210938 9 L 44.210938 19 L 38 19 Z M 38 9 " clip-rule="nonzero"/></clipPath></defs><path fill="#ffc7ad" d="M 27.109375 14.253906 C 26.980469 14.199219 26.859375 14.117188 26.757812 14.011719 C 26.617188 13.867188 26.441406 13.765625 26.269531 13.664062 C 25.773438 13.375 25.273438 13.085938 24.777344 12.796875 C 24.699219 12.75 24.585938 12.703125 24.511719 12.773438 C 24.480469 12.804688 24.464844 12.851562 24.457031 12.894531 C 24.4375 13.035156 24.503906 13.164062 24.589844 13.257812 C 24.679688 13.351562 24.792969 13.417969 24.902344 13.488281 C 25.078125 13.605469 25.242188 13.742188 25.390625 13.902344 C 25.402344 13.914062 25.417969 13.929688 25.417969 13.949219 C 25.421875 13.988281 25.378906 14.015625 25.34375 14.027344 C 25.183594 14.09375 25.015625 14.121094 24.851562 14.128906 C 24.761719 14.132812 24.675781 14.128906 24.59375 14.125 C 24.515625 14.117188 24.4375 14.136719 24.359375 14.125 C 23.953125 14.058594 23.554688 13.917969 23.132812 13.925781 C 22.992188 13.925781 22.757812 14.035156 22.917969 14.195312 C 23.054688 14.328125 23.246094 14.371094 23.429688 14.417969 C 23.652344 14.472656 23.871094 14.535156 24.085938 14.609375 C 24.136719 14.625 24.1875 14.648438 24.242188 14.660156 C 24.265625 14.667969 24.3125 14.660156 24.332031 14.683594 C 24.433594 14.800781 24.046875 14.832031 24 14.84375 C 23.816406 14.878906 23.628906 14.910156 23.441406 14.945312 C 23.230469 14.984375 23 15.039062 22.859375 15.214844 C 22.816406 15.273438 22.785156 15.324219 22.820312 15.382812 C 22.847656 15.425781 22.917969 15.460938 22.96875 15.476562 C 23.074219 15.503906 23.191406 15.472656 23.300781 15.445312 C 23.574219 15.382812 23.847656 15.339844 24.125 15.320312 C 24.25 15.3125 24.398438 15.296875 24.523438 15.3125 C 24.6875 15.332031 24.558594 15.453125 24.460938 15.480469 C 24.246094 15.550781 24.023438 15.609375 23.824219 15.730469 C 23.738281 15.777344 23.621094 15.847656 23.558594 15.925781 C 23.484375 16.027344 23.570312 16.117188 23.664062 16.132812 C 23.753906 16.144531 23.851562 16.117188 23.941406 16.085938 C 24.164062 16.015625 24.386719 15.945312 24.609375 15.871094 C 24.699219 15.84375 24.816406 15.78125 24.910156 15.777344 C 24.976562 15.777344 25.039062 15.816406 24.984375 15.894531 C 24.910156 15.996094 24.792969 16.050781 24.699219 16.132812 C 24.632812 16.1875 24.578125 16.257812 24.539062 16.335938 C 24.519531 16.371094 24.503906 16.417969 24.527344 16.449219 C 24.546875 16.46875 24.582031 16.46875 24.613281 16.464844 C 24.777344 16.441406 24.949219 16.402344 25.09375 16.304688 C 25.25 16.199219 25.445312 16.128906 25.613281 16.054688 C 25.953125 15.90625 26.289062 15.820312 26.65625 15.792969 C 26.957031 15.765625 27.257812 15.808594 27.5625 15.773438 C 27.664062 15.761719 27.765625 15.742188 27.84375 15.683594 C 27.992188 15.578125 28.023438 15.375 28.046875 15.195312 C 28.066406 15.015625 28.09375 14.769531 28.054688 14.59375 C 28.035156 14.519531 28 14.449219 27.9375 14.40625 C 27.847656 14.347656 27.730469 14.355469 27.621094 14.355469 C 27.445312 14.355469 27.269531 14.324219 27.109375 14.253906 " fill-opacity="1" fill-rule="nonzero"/><path fill="#cddcfb" d="M 36.640625 7.652344 C 36 7.375 35.226562 7.605469 34.695312 8.0625 C 33.710938 8.914062 32.417969 13.03125 32.300781 13.320312 C 32.230469 13.496094 32.152344 13.683594 32 13.800781 C 31.847656 13.921875 31.644531 13.953125 31.453125 13.964844 C 30.78125 13.996094 28.332031 13.910156 27.785156 13.925781 C 27.503906 13.933594 27.097656 13.894531 26.835938 14.023438 C 26.527344 14.175781 26.898438 15.921875 27 15.953125 C 27.265625 16.03125 29.277344 16.515625 30.019531 16.675781 C 30.28125 16.730469 32.375 17.003906 32.871094 16.875 C 33.308594 16.761719 33.597656 16.578125 33.890625 16.359375 C 34.496094 15.902344 34.703125 15.207031 35.003906 14.539062 C 35.371094 13.71875 35.683594 12.875 36.007812 12.042969 C 36.257812 11.398438 36.640625 10.691406 36.738281 10.003906 C 36.773438 9.730469 36.839844 9.460938 36.941406 9.207031 C 37.019531 9.007812 37.199219 8.84375 37.269531 8.660156 C 37.425781 8.246094 36.988281 7.800781 36.640625 7.652344 " fill-opacity="1" fill-rule="nonzero"/><path fill="#7a472d" d="M 41.863281 3.828125 C 41.671875 4.058594 41.433594 4.238281 41.15625 4.339844 C 40.441406 4.601562 40.503906 4.300781 40.128906 3.878906 C 39.664062 3.359375 39.113281 3.359375 38.589844 2.964844 C 38.230469 2.699219 38.097656 2.148438 38.28125 1.714844 C 38.410156 1.410156 38.671875 1.183594 38.933594 0.996094 C 40.0625 0.199219 41.71875 -0.00390625 42.308594 1.589844 C 42.574219 2.300781 42.375 3.230469 41.863281 3.828125 " fill-opacity="1" fill-rule="nonzero"/><path fill="#dae8fd" d="M 40.484375 43.789062 C 40.480469 43.875 40.46875 43.957031 40.441406 44.035156 C 40.382812 44.203125 40.269531 44.351562 40.195312 44.515625 C 39.988281 44.945312 39.703125 45.328125 39.445312 45.726562 C 39.152344 46.179688 38.855469 46.636719 38.5625 47.089844 C 38.347656 47.417969 38.222656 47.738281 38.082031 48.101562 C 38.027344 48.238281 37.988281 48.390625 38.03125 48.53125 C 38.058594 48.621094 38.121094 48.695312 38.183594 48.765625 C 38.492188 49.089844 38.996094 49.242188 39.425781 49.289062 C 39.667969 49.316406 39.90625 49.378906 40.144531 49.285156 C 40.375 49.195312 40.53125 48.976562 40.699219 48.8125 C 41.105469 48.417969 41.289062 47.882812 41.5 47.375 C 41.578125 47.191406 41.710938 47.035156 41.859375 46.902344 C 42.140625 46.648438 42.476562 46.492188 42.652344 46.144531 C 42.851562 45.75 42.96875 45.242188 42.8125 44.816406 C 42.644531 44.347656 42.609375 43.800781 42.527344 43.308594 C 42.503906 43.171875 42.476562 43.027344 42.390625 42.917969 C 42.238281 42.730469 42.023438 42.640625 41.785156 42.609375 C 41.585938 42.582031 41.382812 42.597656 41.183594 42.613281 C 41.015625 42.625 40.835938 42.644531 40.703125 42.746094 C 40.5 42.902344 40.472656 43.191406 40.480469 43.445312 C 40.484375 43.558594 40.492188 43.675781 40.484375 43.789062 " fill-opacity="1" fill-rule="nonzero"/><path fill="#dae8fd" d="M 36.714844 41.8125 C 36.507812 41.96875 36.320312 42.148438 36.113281 42.308594 C 35.914062 42.464844 35.699219 42.589844 35.5 42.75 C 35.058594 43.105469 34.601562 43.441406 34.132812 43.75 C 33.777344 43.988281 33.410156 44.210938 33.078125 44.480469 C 32.820312 44.695312 32.585938 44.9375 32.410156 45.222656 C 32.3125 45.382812 32.277344 45.46875 32.328125 45.652344 C 32.371094 45.8125 32.460938 45.960938 32.554688 46.097656 C 32.726562 46.359375 32.929688 46.625 33.21875 46.746094 C 33.5 46.859375 33.824219 46.816406 34.109375 46.710938 C 34.53125 46.546875 34.988281 46.234375 35.277344 45.882812 C 35.585938 45.503906 35.941406 45.203125 36.402344 45.023438 C 36.769531 44.882812 37.175781 44.824219 37.496094 44.601562 C 37.777344 44.398438 37.960938 44.070312 38.003906 43.730469 C 38.054688 43.328125 37.890625 42.925781 37.917969 42.519531 C 37.933594 42.261719 37.617188 41.347656 37.402344 41.324219 C 37.160156 41.300781 36.917969 41.394531 36.726562 41.546875 L 36.714844 41.8125 " fill-opacity="1" fill-rule="nonzero"/><path fill="#275ebe" d="M 33.464844 26.40625 C 33.472656 26.535156 33.480469 26.664062 33.492188 26.792969 C 33.628906 28.5 34 30.15625 34.359375 31.824219 C 34.523438 32.601562 34.554688 34.589844 35.890625 34.230469 C 36.542969 34.054688 37.671875 32.898438 37.773438 31.472656 C 37.824219 30.703125 37.78125 29.609375 37.820312 28.839844 C 37.902344 27.246094 37.027344 21.972656 37.027344 21.972656 C 37.027344 21.972656 34.078125 20.957031 33.949219 21.265625 C 33.695312 21.867188 33.65625 22.496094 33.578125 23.039062 C 33.417969 24.152344 33.394531 25.28125 33.464844 26.40625 " fill-opacity="1" fill-rule="nonzero"/><path fill="#275ebe" d="M 34.105469 29.996094 C 34.253906 31.738281 34.605469 33.453125 34.914062 35.167969 C 35.238281 36.964844 35.371094 38.71875 35.300781 40.550781 C 35.285156 40.96875 35.265625 41.386719 35.25 41.804688 C 35.226562 42.304688 35.246094 42.882812 35.636719 43.195312 C 36.113281 43.574219 36.816406 43.421875 37.339844 43.238281 C 37.535156 43.167969 37.894531 43.074219 38.015625 42.890625 C 38.179688 42.636719 38.078125 42.148438 38.058594 41.871094 C 37.914062 39.789062 38.523438 37.78125 38.46875 35.703125 C 38.433594 34.347656 38.113281 33.167969 37.550781 31.941406 C 37.414062 31.644531 37.214844 31.324219 36.894531 31.269531 L 34.105469 29.996094 " fill-opacity="1" fill-rule="nonzero"/><path fill="#3574e0" d="M 42.703125 24.007812 C 42.519531 22.808594 42.207031 21.449219 41.53125 20.75 C 41.53125 20.75 38.382812 22.726562 35.867188 21.980469 C 35.601562 21.902344 35.894531 22.253906 35.972656 22.527344 C 36.144531 23.152344 36.3125 23.773438 36.484375 24.394531 C 36.859375 25.75 37.414062 27.171875 37.605469 28.558594 C 37.8125 30.050781 38 31.542969 38.296875 33.019531 C 38.433594 33.6875 38.835938 34.339844 39.179688 34.898438 C 39.578125 35.546875 39.957031 35.902344 40.605469 35.785156 C 40.902344 35.730469 41.390625 35.359375 41.539062 35.097656 C 41.640625 34.914062 41.675781 34.660156 41.726562 34.457031 C 41.992188 33.375 42.085938 32.300781 42.191406 31.199219 C 42.300781 30.042969 42.363281 28.882812 42.457031 27.726562 C 42.558594 26.515625 42.882812 25.210938 42.703125 24.007812 " fill-opacity="1" fill-rule="nonzero"/><path fill="#3574e0" d="M 38.277344 32.445312 C 38.308594 32.453125 38.484375 33.449219 38.515625 33.558594 C 38.617188 33.914062 38.742188 34.269531 38.875 34.621094 C 39.136719 35.324219 39.460938 36.035156 39.628906 36.769531 C 39.992188 38.390625 40.125 40.132812 40.058594 41.792969 C 40.042969 42.160156 40.019531 42.527344 39.980469 42.890625 C 39.941406 43.308594 39.882812 43.738281 40 44.144531 C 40.164062 44.734375 40.695312 44.976562 41.246094 45.105469 C 41.472656 45.160156 41.710938 45.183594 41.941406 45.148438 C 42.246094 45.101562 42.648438 44.996094 42.824219 44.730469 C 42.933594 44.5625 42.980469 44.363281 43.015625 44.167969 C 43.117188 43.558594 43.117188 42.9375 43.089844 42.320312 C 43.066406 41.765625 43.152344 41.234375 43.199219 40.675781 C 43.304688 39.457031 43.375 38.222656 43.234375 37 C 43.082031 35.648438 42.59375 34.246094 41.960938 33.050781 C 41.8125 32.761719 41.796875 33.117188 41.472656 33.078125 L 38.277344 32.445312 " fill-opacity="1" fill-rule="nonzero"/><path fill="#f3a984" d="M 41.859375 8.875 C 41.144531 8.546875 39.839844 7.90625 39.136719 7.425781 C 39.03125 7.355469 38.558594 7.664062 38.4375 7.640625 C 37.527344 7.445312 36.554688 7.488281 35.710938 7.863281 L 35.683594 7.875 L 35.683594 13.484375 L 41.042969 13.484375 L 41.859375 8.875 " fill-opacity="1" fill-rule="nonzero"/><path fill="#f3a984" d="M 39.839844 8.445312 C 39.839844 8.445312 36.5 10.128906 36.664062 8.269531 C 36.886719 5.679688 37.050781 5.390625 38.207031 5.058594 C 38.523438 4.964844 38.648438 4.699219 38.976562 4.710938 C 40.175781 4.757812 39.671875 5.386719 39.601562 5.839844 C 39.386719 7.1875 39.859375 7.730469 39.839844 8.445312 " fill-opacity="1" fill-rule="nonzero"/><path fill="#dae8fd" d="M 36.824219 7.441406 C 36.808594 7.441406 36.792969 7.445312 36.78125 7.445312 C 36.914062 7.402344 36.988281 7.4375 36.824219 7.441406 " fill-opacity="1" fill-rule="nonzero"/><path fill="#dae8fd" d="M 43.574219 10.804688 C 43.582031 10.90625 43.582031 11.015625 43.578125 11.125 C 43.566406 11.4375 43.484375 11.734375 43.417969 12.035156 C 43.335938 12.394531 43.167969 12.714844 42.976562 13.019531 C 42.773438 13.347656 42.605469 13.679688 42.40625 14.007812 C 41.550781 15.402344 41.039062 16.855469 41.375 18.496094 C 41.566406 19.410156 41.914062 20.285156 42.191406 21.175781 C 42.324219 21.617188 42.511719 22.097656 42.542969 22.558594 C 42.566406 22.890625 42.035156 23.214844 41.773438 23.386719 C 41.089844 23.839844 40.289062 24.089844 39.488281 24.230469 C 38.035156 24.488281 36.527344 24.429688 35.097656 24.058594 C 34.558594 23.914062 34.023438 23.71875 33.597656 23.34375 C 33.292969 23.074219 33.441406 22.46875 33.464844 22.09375 C 33.527344 21.019531 33.632812 19.9375 33.875 18.886719 C 34.082031 17.996094 34.238281 17.03125 33.992188 16.125 C 33.621094 14.769531 32.945312 13.722656 33.414062 12.28125 C 33.558594 11.835938 33.859375 11.417969 34.042969 10.972656 C 34.71875 9.34375 34.292969 7.53125 36.777344 7.441406 C 36.625 7.492188 35.1875 9.921875 36.917969 10.632812 C 38.035156 11.09375 40.246094 9.867188 40.761719 8.34375 C 41.5 8.691406 42.167969 8.910156 42.78125 9.363281 C 43.304688 9.75 43.539062 10.210938 43.574219 10.804688 " fill-opacity="1" fill-rule="nonzero"/><path fill="#ffc7ad" d="M 38.546875 6.753906 C 38.644531 6.675781 38.738281 6.589844 38.832031 6.507812 C 39.152344 6.210938 39.515625 5.863281 39.738281 5.488281 C 40.453125 4.28125 40.496094 2.660156 39.484375 1.601562 C 38.769531 0.851562 37.628906 0.539062 36.632812 0.816406 C 36.363281 0.894531 36.105469 1.007812 35.855469 1.136719 C 35.636719 1.246094 35.425781 1.367188 35.257812 1.546875 C 35.152344 1.664062 35.066406 1.800781 34.992188 1.941406 C 34.855469 2.191406 34.78125 2.441406 34.703125 2.714844 C 34.660156 2.863281 34.675781 3.023438 34.675781 3.179688 C 34.675781 3.453125 34.695312 3.71875 34.746094 3.988281 C 34.792969 4.210938 34.820312 4.433594 34.828125 4.660156 C 34.832031 4.890625 34.722656 5.085938 34.648438 5.296875 C 34.605469 5.425781 34.527344 5.628906 34.566406 5.761719 C 34.609375 5.902344 34.761719 6.019531 34.835938 6.148438 C 34.910156 6.289062 34.933594 6.390625 34.941406 6.554688 C 34.945312 6.660156 34.980469 6.726562 35.019531 6.816406 C 35.054688 6.894531 35.035156 6.953125 35.046875 7.03125 C 35.0625 7.121094 35.132812 7.203125 35.164062 7.289062 C 35.203125 7.382812 35.234375 7.476562 35.285156 7.570312 C 35.582031 8.109375 36.011719 8.144531 36.550781 7.933594 C 37.273438 7.652344 37.949219 7.25 38.546875 6.753906 " fill-opacity="1" fill-rule="nonzero"/><path fill="#a26749" d="M 41.191406 3.199219 C 41.179688 2.949219 41.132812 2.699219 41.058594 2.460938 C 40.984375 2.230469 40.878906 2.007812 40.753906 1.804688 C 40.6875 1.699219 40.617188 1.589844 40.535156 1.496094 C 40.460938 1.410156 40.300781 1.324219 40.261719 1.222656 C 40.253906 1.207031 39.828125 0.144531 37.851562 0.144531 C 37.109375 0.144531 36.378906 0.414062 35.75 0.804688 C 35.304688 1.082031 35.03125 1.332031 34.816406 1.820312 C 34.605469 2.304688 34.5 2.839844 34.515625 3.367188 C 34.519531 3.445312 34.527344 3.535156 34.582031 3.59375 C 34.664062 3.679688 34.804688 3.660156 34.921875 3.628906 C 35.359375 3.515625 35.722656 3.371094 36.109375 3.148438 C 36.289062 3.046875 36.761719 2.828125 36.972656 2.921875 C 37.144531 3 37.015625 3.453125 37.082031 3.652344 C 37.164062 3.90625 37.324219 4.132812 37.542969 4.285156 C 37.730469 4.414062 37.949219 4.480469 38.136719 4.605469 C 38.304688 4.71875 38.425781 4.898438 38.464844 5.097656 C 38.484375 5.183594 38.488281 5.277344 38.511719 5.363281 C 38.527344 5.410156 38.546875 5.453125 38.578125 5.492188 C 38.609375 5.527344 38.664062 5.542969 38.6875 5.578125 C 38.710938 5.613281 38.710938 5.675781 38.730469 5.714844 C 38.753906 5.761719 38.789062 5.800781 38.835938 5.824219 C 39.09375 5.980469 39.804688 5.386719 39.765625 5.449219 C 39.597656 5.738281 39.621094 5.6875 39.558594 6.203125 C 40.375 5.714844 41.003906 4.835938 41.160156 3.882812 C 41.195312 3.65625 41.207031 3.425781 41.191406 3.199219 " fill-opacity="1" fill-rule="nonzero"/><path fill="#ffc7ad" d="M 39.507812 4.472656 C 40.027344 4.4375 40.15625 5.085938 39.796875 5.582031 C 39.695312 5.726562 39.507812 5.855469 39.371094 5.972656 C 38.4375 6.761719 38.210938 5.902344 38.503906 5.632812 C 39.195312 5.007812 38.855469 4.511719 39.507812 4.472656 " fill-opacity="1" fill-rule="nonzero"/><path fill="#f3a984" d="M 39.171875 5.652344 C 39.230469 5.597656 39.824219 5.25 39.421875 5.011719 C 39.3125 4.945312 39.1875 5.042969 39.167969 5.160156 C 39.160156 5.222656 39.179688 5.285156 39.167969 5.347656 C 39.164062 5.382812 39.148438 5.417969 39.128906 5.449219 C 39.074219 5.535156 38.898438 5.617188 38.929688 5.742188 C 38.960938 5.851562 39.136719 5.683594 39.171875 5.652344 " fill-opacity="1" fill-rule="nonzero"/><path fill="#f3a984" d="M 29.589844 19.789062 C 30.257812 19.542969 31.082031 20.210938 31.011719 20.953125 C 30.964844 21.480469 29.210938 24.085938 28.464844 25.148438 C 27.703125 26.226562 26.351562 28.589844 26.230469 28.765625 C 25.976562 29.136719 25.597656 29.160156 25.191406 29.03125 C 24.710938 28.882812 24.351562 28.464844 24.160156 27.996094 C 23.777344 27.0625 24.097656 26.242188 24.558594 25.421875 C 24.894531 24.824219 25.398438 24.273438 25.828125 23.742188 C 26.441406 22.980469 27.085938 22.242188 27.753906 21.53125 C 28.066406 21.203125 28.441406 20.894531 28.710938 20.53125 C 28.945312 20.21875 29.207031 19.925781 29.589844 19.789062 " fill-opacity="1" fill-rule="nonzero"/><g clip-path="url(#c0eca47471)"><path fill="#fe443e" d="M 34.3125 47.1875 C 34.3125 42.378906 30.15625 38.480469 25.03125 38.480469 C 19.902344 38.480469 15.75 42.378906 15.75 47.1875 C 15.75 51.996094 19.902344 55.894531 25.03125 55.894531 C 30.15625 55.894531 34.3125 51.996094 34.3125 47.1875 " fill-opacity="1" fill-rule="nonzero"/></g><path fill="#ee342e" d="M 26.761719 38.632812 C 27.371094 39.175781 27.933594 39.785156 28.445312 40.457031 C 31.636719 44.722656 29.597656 50.585938 25.167969 52.628906 C 22.367188 53.917969 18.789062 52.484375 16.371094 50.324219 C 17.710938 53.582031 21.082031 55.894531 25.03125 55.894531 C 30.15625 55.894531 34.3125 51.996094 34.3125 47.1875 C 34.3125 42.933594 31.058594 39.394531 26.761719 38.632812 " fill-opacity="1" fill-rule="nonzero"/><path fill="#222229" d="M 24.71875 41.734375 C 25.542969 42.3125 26.433594 42.660156 27.398438 42.914062 C 28.429688 43.1875 29.460938 43.460938 30.488281 43.734375 C 31.527344 44.007812 32.546875 44.25 33.640625 44.164062 C 34.371094 44.109375 35.726562 43.832031 35.820312 42.945312 C 35.902344 42.195312 35.320312 41.546875 34.71875 41.09375 C 33.5 40.167969 32.066406 39.597656 30.65625 39.039062 C 29.941406 38.753906 29.230469 38.476562 28.535156 38.148438 C 27.886719 37.84375 27.359375 37.480469 26.789062 37.050781 C 26.34375 36.714844 25.824219 36.414062 25.269531 36.449219 C 24.726562 36.480469 24.234375 36.839844 23.953125 37.304688 C 23.671875 37.773438 23.578125 38.332031 23.585938 38.878906 C 23.601562 39.789062 23.925781 41.175781 24.71875 41.734375 " fill-opacity="1" fill-rule="nonzero"/><path fill="#f3a984" d="M 32.75 47.597656 C 33.097656 48.796875 33.671875 50.355469 33.832031 51.59375 C 33.898438 52.101562 33.910156 52.632812 34.164062 53.074219 C 34.417969 53.515625 35.027344 53.804688 35.445312 53.515625 C 35.761719 53.292969 35.835938 52.179688 35.871094 51.792969 C 36.144531 48.800781 36.34375 46.054688 35.90625 43.085938 C 35.882812 42.902344 35.78125 42.738281 35.730469 42.558594 C 35.648438 42.277344 35.59375 41.996094 35.375 41.808594 C 34.863281 41.375 34.035156 41.550781 33.546875 42.007812 C 32.886719 42.632812 32.738281 43.460938 32.585938 44.304688 C 32.375 45.453125 32.421875 46.46875 32.75 47.597656 " fill-opacity="1" fill-rule="nonzero"/><path fill="#2e2e37" d="M 20.4375 43.765625 C 21.140625 44.480469 21.957031 44.984375 22.859375 45.410156 C 23.824219 45.863281 24.789062 46.316406 25.753906 46.773438 C 26.453125 47.101562 27.160156 47.433594 27.886719 47.707031 C 28.472656 47.921875 29.097656 48.105469 29.71875 48.027344 C 30.339844 47.953125 30.960938 47.5625 31.140625 46.960938 C 31.355469 46.238281 30.894531 45.496094 30.390625 44.941406 C 29.355469 43.8125 28.046875 42.988281 26.761719 42.183594 C 26.109375 41.777344 25.460938 41.371094 24.835938 40.925781 C 24.253906 40.511719 23.800781 40.058594 23.316406 39.53125 C 22.9375 39.117188 22.480469 38.730469 21.925781 38.664062 C 21.386719 38.597656 20.839844 38.863281 20.480469 39.269531 C 20.117188 39.675781 19.925781 40.210938 19.835938 40.75 C 19.6875 41.648438 19.757812 43.070312 20.4375 43.765625 " fill-opacity="1" fill-rule="nonzero"/><path fill="#ffc7ad" d="M 33.636719 59.238281 C 33.691406 58.828125 32.867188 58.359375 32.644531 58.171875 C 32.445312 58.003906 31.6875 57.46875 31.535156 57.316406 C 31.285156 57.070312 31.003906 56.789062 30.796875 56.507812 C 30.550781 56.1875 30.59375 55.726562 30.632812 55.347656 C 30.785156 53.757812 30.816406 51.785156 30.878906 50.183594 C 30.917969 49.269531 31.121094 48.390625 31.210938 47.480469 C 31.277344 46.84375 31.222656 46.160156 30.859375 45.632812 C 30.492188 45.109375 29.742188 44.820312 29.183594 45.132812 C 28.484375 45.527344 28.457031 46.425781 28.1875 47.089844 C 27.765625 48.125 27.5625 49.257812 27.691406 50.375 C 27.816406 51.492188 28.304688 52.9375 28.5 54.046875 C 28.570312 54.429688 28.644531 54.832031 28.65625 55.222656 C 28.660156 55.484375 28.613281 55.753906 28.582031 56.011719 C 28.5625 56.171875 28.550781 56.351562 28.507812 56.507812 C 28.441406 56.722656 28.390625 56.933594 28.40625 57.164062 C 28.429688 57.480469 28.59375 57.757812 28.828125 57.96875 C 28.984375 58.109375 29.164062 58.21875 29.347656 58.308594 C 29.519531 58.390625 29.664062 58.484375 29.820312 58.589844 C 30.007812 58.714844 30.183594 58.863281 30.339844 59.027344 C 30.5 59.191406 30.632812 59.367188 30.828125 59.492188 C 31.175781 59.710938 31.5625 59.867188 31.964844 59.929688 C 32.367188 59.992188 32.824219 59.738281 33.199219 59.609375 C 33.332031 59.5625 33.476562 59.511719 33.566406 59.402344 C 33.609375 59.351562 33.632812 59.296875 33.636719 59.238281 " fill-opacity="1" fill-rule="nonzero"/><path fill="#2e2e37" d="M 30.605469 55.726562 C 30.609375 55.597656 30.890625 51.84375 30.957031 50.246094 C 30.992188 49.332031 31.121094 48.390625 31.210938 47.480469 C 31.257812 47.023438 31.265625 46.535156 31.117188 46.105469 C 31.058594 45.9375 30.960938 45.78125 30.859375 45.632812 C 30.492188 45.109375 29.753906 44.691406 29.195312 45.003906 C 28.496094 45.394531 28.296875 46.335938 28.027344 47 C 27.605469 48.039062 27.5625 49.257812 27.691406 50.375 C 27.816406 51.492188 28.304688 52.9375 28.5 54.046875 C 28.570312 54.429688 28.570312 55.449219 28.546875 55.675781 C 29.160156 55.953125 30.019531 56.027344 30.605469 55.726562 " fill-opacity="1" fill-rule="nonzero"/><path fill="#d6af75" d="M 25.210938 27.835938 C 25.144531 28.222656 24.863281 28.53125 24.722656 28.898438 C 24.394531 29.734375 24.300781 30.667969 24.988281 31.351562 C 25.085938 31.445312 25.21875 31.539062 25.351562 31.507812 C 25.546875 31.464844 25.601562 31.222656 25.71875 31.0625 C 25.835938 30.898438 25.980469 30.929688 26.113281 30.832031 C 26.238281 30.742188 26.289062 30.539062 26.335938 30.402344 C 26.480469 29.964844 26.375 29.46875 26.300781 29.027344 C 26.175781 28.238281 26.152344 26.539062 26.269531 25.738281 C 26.847656 21.695312 25.210938 19.960938 25.210938 19.960938 C 25.210938 19.960938 25.492188 22.214844 25.4375 22.414062 C 25.128906 23.589844 25.382812 26.878906 25.210938 27.835938 " fill-opacity="1" fill-rule="nonzero"/><path fill="#f3a984" d="M 22.359375 26.234375 C 21.757812 26.382812 21.152344 26.5625 20.585938 26.820312 L 20.585938 31.753906 L 24.507812 31.753906 L 24.507812 26.234375 L 22.359375 26.234375 " fill-opacity="1" fill-rule="nonzero"/><path fill="#dae8fd" d="M 18.660156 29.164062 C 18.699219 29.578125 18.855469 29.992188 19.003906 30.386719 C 19.449219 31.566406 19.816406 32.777344 20.101562 34.007812 C 20.246094 34.621094 20.347656 35.246094 20.472656 35.863281 C 20.613281 36.53125 20.386719 37.261719 20.28125 37.929688 C 20.164062 38.691406 20.042969 39.457031 19.921875 40.222656 C 19.902344 40.363281 19.878906 40.507812 19.910156 40.648438 C 19.980469 40.960938 20.238281 40.957031 20.488281 41.046875 C 20.792969 41.15625 21.101562 41.257812 21.417969 41.332031 C 22.050781 41.480469 22.703125 41.546875 23.351562 41.527344 C 24.613281 41.496094 26.117188 41.207031 27.078125 40.335938 C 27.308594 40.125 27.496094 39.875 27.683594 39.621094 C 28.269531 38.828125 27.71875 38.066406 27.449219 37.277344 C 27.148438 36.394531 27.035156 35.453125 27.109375 34.527344 C 27.132812 34.230469 27.148438 33.839844 27.246094 33.554688 C 27.378906 33.175781 27.671875 32.851562 27.8125 32.46875 C 27.976562 32.03125 28.042969 31.546875 27.914062 31.101562 C 27.738281 30.5 27.195312 30.117188 26.988281 29.542969 C 26.777344 28.96875 26.449219 28.480469 26.382812 27.851562 C 26.339844 27.453125 26.378906 27.035156 26.226562 26.660156 C 26.097656 26.335938 25.824219 26.074219 25.5 25.953125 C 25.054688 25.785156 24.480469 25.914062 24.015625 25.96875 C 23.503906 26.027344 22.992188 26.113281 22.488281 26.226562 C 21.660156 26.410156 20.8125 26.621094 20.085938 27.070312 C 19.820312 27.234375 19.554688 27.402344 19.320312 27.613281 C 19.027344 27.878906 18.785156 28.210938 18.695312 28.59375 C 18.648438 28.78125 18.640625 28.972656 18.660156 29.164062 " fill-opacity="1" fill-rule="nonzero"/><path fill="#f3a984" d="M 20.792969 26.941406 C 20.722656 27.171875 20.710938 27.402344 20.84375 27.628906 C 20.992188 27.886719 21.285156 27.902344 21.535156 28 C 21.875 28.128906 22.21875 28.25 22.574219 28.316406 C 23.050781 28.40625 23.554688 28.398438 24.003906 28.210938 C 24.21875 28.121094 24.4375 27.957031 24.46875 27.722656 C 24.488281 27.558594 24.394531 27.390625 24.34375 27.238281 C 24.234375 26.902344 24.199219 26.566406 24.117188 26.234375 C 24.027344 25.867188 23.914062 25.511719 23.84375 25.140625 C 23.769531 24.746094 23.742188 24.464844 23.441406 24.164062 C 23.132812 23.855469 22.539062 23.863281 22.121094 23.824219 C 21.890625 23.804688 21.578125 23.699219 21.359375 23.796875 C 20.941406 23.984375 21.21875 24.457031 21.25 24.785156 C 21.289062 25.195312 21.285156 25.613281 21.171875 26.015625 C 21.089844 26.308594 20.886719 26.625 20.792969 26.941406 " fill-opacity="1" fill-rule="nonzero"/><path fill="#ffc7ad" d="M 21.917969 25.804688 C 21.894531 25.777344 21.871094 25.742188 21.847656 25.707031 C 21.753906 25.558594 21.65625 25.402344 21.554688 25.265625 C 21.417969 25.082031 21.25 24.921875 21.078125 24.761719 C 20.886719 24.582031 20.6875 24.398438 20.527344 24.1875 C 20.152344 23.679688 20.074219 22.875 20.128906 22.257812 C 20.1875 21.59375 20.453125 20.953125 20.917969 20.464844 C 21.660156 19.6875 22.84375 19.359375 23.882812 19.648438 C 24.160156 19.726562 24.429688 19.84375 24.691406 19.976562 C 24.914062 20.089844 25.136719 20.21875 25.308594 20.402344 C 25.421875 20.523438 25.507812 20.667969 25.585938 20.8125 C 25.699219 21.015625 25.738281 21.15625 25.753906 21.378906 C 25.769531 21.617188 25.757812 21.859375 25.769531 22.101562 C 25.808594 22.972656 25.894531 23.847656 25.78125 24.726562 C 25.726562 25.128906 25.664062 25.53125 25.554688 25.925781 C 25.492188 26.164062 25.453125 26.550781 25.3125 26.753906 C 25.164062 26.964844 24.914062 27.074219 24.628906 27.074219 C 24.191406 27.074219 23.570312 26.882812 23.1875 26.683594 C 22.84375 26.5 22.507812 26.304688 22.195312 26.070312 C 22.082031 25.980469 21.996094 25.90625 21.917969 25.804688 " fill-opacity="1" fill-rule="nonzero"/><path fill="#d6af75" d="M 19.804688 21.769531 C 19.8125 21.5625 19.816406 21.339844 19.859375 21.136719 C 19.902344 20.9375 20.585938 18.800781 23.648438 19.117188 C 24.402344 19.195312 25.046875 19.621094 25.429688 20.269531 C 26.054688 21.324219 25.804688 22.742188 25.804688 22.742188 C 25.804688 22.734375 25.589844 22.527344 25.570312 22.503906 C 25.460938 22.367188 25.355469 22.222656 25.253906 22.074219 C 25.203125 22.003906 25.152344 21.933594 25.105469 21.859375 C 25.070312 21.808594 25.027344 21.699219 24.972656 21.664062 C 24.890625 21.609375 24.765625 21.722656 24.699219 21.765625 C 24.59375 21.828125 24.496094 21.898438 24.398438 21.96875 C 24.011719 22.25 23.664062 22.585938 23.367188 22.957031 C 23.21875 23.144531 23.082031 23.34375 22.960938 23.546875 C 22.839844 23.746094 22.726562 23.945312 22.523438 24.070312 C 22.308594 24.203125 22.027344 24.222656 21.792969 24.121094 C 21.699219 24.078125 21.613281 24.015625 21.519531 23.976562 C 21.425781 23.933594 21.316406 23.910156 21.222656 23.945312 C 21.132812 23.976562 21.070312 24.054688 21.039062 24.144531 C 20.988281 24.285156 21.023438 24.359375 21.101562 24.46875 C 21.121094 24.496094 21.257812 24.722656 21.160156 24.722656 C 21.039062 24.726562 19.742188 23.609375 19.804688 21.769531 " fill-opacity="1" fill-rule="nonzero"/><path fill="#ffc7ad" d="M 17.152344 35.621094 C 17.148438 34.367188 17.308594 32.785156 17.445312 30.792969 C 17.484375 30.257812 17.601562 29.71875 17.800781 29.214844 C 18 28.707031 18.253906 28.328125 18.667969 27.972656 C 18.855469 27.8125 19.164062 27.671875 19.40625 27.722656 C 19.628906 27.769531 19.777344 27.972656 19.886719 28.167969 C 20.539062 29.347656 20.554688 30.84375 20.285156 32.136719 C 20.035156 33.339844 19.949219 34.574219 19.6875 35.78125 C 19.636719 36.011719 19.597656 36.257812 19.503906 36.476562 C 19.054688 37.507812 18.027344 37.433594 17.480469 36.824219 C 17.214844 36.523438 17.15625 36.300781 17.152344 35.621094 " fill-opacity="1" fill-rule="nonzero"/><path fill="#d6af75" d="M 19.625 25.066406 C 19.609375 25.597656 19.429688 26.027344 19.273438 26.554688 C 19.203125 26.796875 18.777344 27.75 19.042969 27.761719 C 19.132812 27.765625 19.402344 27.671875 19.570312 27.824219 C 19.8125 28.042969 20 28.402344 20.113281 28.699219 C 20.371094 29.390625 20.457031 30.027344 20.558594 30.738281 C 20.65625 31.449219 21.257812 31.753906 21.914062 31.816406 C 22.195312 31.84375 22.90625 31.902344 22.980469 31.535156 C 23.023438 31.308594 22.804688 30.960938 22.71875 30.757812 C 22.394531 30.007812 21.941406 29.109375 21.964844 28.273438 C 21.976562 27.800781 22.125 27.347656 22.105469 26.875 C 22.09375 26.585938 22.027344 26.265625 21.890625 26.011719 C 21.824219 25.894531 21.761719 25.773438 21.691406 25.660156 C 21.644531 25.582031 21.59375 25.507812 21.546875 25.429688 C 21.386719 25.171875 21.1875 24.882812 21.160156 24.570312 C 21.128906 24.246094 21.253906 23.9375 21.367188 23.640625 C 21.4375 23.453125 21.503906 23.261719 21.597656 23.078125 C 21.671875 22.925781 21.625 22.671875 21.613281 22.5 C 21.585938 22.101562 21.511719 21.703125 21.355469 21.332031 C 21.164062 20.886719 20.550781 19.960938 20.550781 19.960938 C 20.558594 19.96875 20.402344 20.171875 20.394531 20.1875 C 20.261719 20.386719 20.101562 20.558594 19.992188 20.773438 C 19.699219 21.355469 19.515625 22.011719 19.484375 22.664062 C 19.449219 23.390625 19.589844 24.128906 19.625 24.855469 C 19.628906 24.929688 19.628906 25 19.625 25.066406 " fill-opacity="1" fill-rule="nonzero"/><path fill="#ffc7ad" d="M 20.964844 23.382812 C 20.464844 23.347656 20.339844 23.972656 20.683594 24.449219 C 20.785156 24.589844 20.960938 24.714844 21.09375 24.828125 C 21.988281 25.589844 22.210938 24.761719 21.925781 24.503906 C 21.265625 23.898438 21.59375 23.421875 20.964844 23.382812 " fill-opacity="1" fill-rule="nonzero"/><path fill="#f3a984" d="M 21.101562 24.433594 C 21.054688 24.363281 20.539062 23.875 21 23.730469 C 21.125 23.6875 21.230469 23.816406 21.21875 23.9375 C 21.214844 24.003906 21.179688 24.0625 21.175781 24.125 C 21.171875 24.164062 21.386719 24.457031 21.324219 24.578125 C 21.265625 24.679688 21.128906 24.472656 21.101562 24.433594 " fill-opacity="1" fill-rule="nonzero"/><path fill="#ffc7ad" d="M 17.914062 42.644531 C 17.894531 43 17.996094 42.675781 18.222656 42.988281 C 18.449219 43.300781 19.492188 42.695312 19.496094 42.457031 C 19.5 41.828125 19.753906 37.414062 19.769531 35.703125 C 19.773438 35.488281 19.746094 35.226562 19.476562 35.09375 C 19.269531 34.984375 18.914062 33.828125 18.695312 33.878906 C 17.929688 34.046875 17.210938 34.339844 17.164062 34.980469 C 17.050781 36.582031 17.558594 39.097656 17.796875 40.191406 C 17.929688 40.796875 17.953125 42.046875 17.914062 42.644531 " fill-opacity="1" fill-rule="nonzero"/><path fill="#ffc7ad" d="M 16.996094 45.457031 C 16.976562 45.519531 16.953125 45.585938 16.964844 45.648438 C 16.980469 45.710938 17.039062 45.773438 17.109375 45.765625 C 17.179688 45.757812 17.222656 45.6875 17.25 45.625 C 17.296875 45.527344 17.34375 45.433594 17.386719 45.335938 C 17.429688 45.25 17.460938 45.152344 17.511719 45.074219 C 17.507812 45.078125 17.496094 45.148438 17.492188 45.164062 C 17.480469 45.207031 17.46875 45.25 17.457031 45.296875 C 17.429688 45.382812 17.40625 45.472656 17.378906 45.5625 C 17.332031 45.738281 17.28125 45.914062 17.230469 46.09375 C 17.210938 46.164062 17.191406 46.238281 17.210938 46.308594 C 17.230469 46.382812 17.304688 46.445312 17.378906 46.429688 C 17.464844 46.414062 17.5 46.328125 17.527344 46.253906 C 17.628906 45.945312 17.730469 45.640625 17.832031 45.332031 C 17.746094 45.734375 17.660156 46.136719 17.574219 46.539062 C 17.554688 46.648438 17.554688 46.796875 17.671875 46.824219 C 17.757812 46.84375 17.835938 46.773438 17.882812 46.703125 C 18.1875 46.269531 18.101562 45.675781 18.378906 45.226562 C 18.328125 45.546875 18.277344 45.871094 18.226562 46.195312 C 18.210938 46.28125 18.199219 46.371094 18.21875 46.460938 C 18.242188 46.546875 18.3125 46.628906 18.40625 46.644531 C 18.496094 46.660156 18.585938 46.609375 18.640625 46.542969 C 18.695312 46.476562 18.722656 46.394531 18.75 46.3125 C 18.863281 45.960938 18.980469 45.605469 19.09375 45.253906 C 19.152344 45.074219 19.210938 44.894531 19.269531 44.714844 C 19.296875 44.625 19.332031 44.539062 19.355469 44.445312 C 19.359375 44.429688 19.363281 44.378906 19.375 44.367188 C 19.429688 44.320312 19.460938 44.421875 19.480469 44.457031 C 19.523438 44.53125 19.570312 44.601562 19.621094 44.671875 C 19.730469 44.820312 20.082031 45.382812 20.300781 45.136719 C 20.351562 45.078125 20.339844 44.996094 20.324219 44.925781 C 20.269531 44.691406 20.160156 44.464844 20.054688 44.242188 C 19.863281 43.847656 19.589844 43.433594 19.527344 43.003906 C 19.460938 42.53125 19.515625 42.015625 19.511719 41.539062 C 19.507812 41.351562 19.5 41.148438 19.371094 41.003906 C 19.234375 40.851562 18.988281 40.808594 18.78125 40.867188 C 18.574219 40.921875 18.40625 41.0625 18.273438 41.21875 C 17.773438 41.820312 18.046875 42.4375 17.828125 43.09375 C 17.660156 43.601562 17.472656 44.101562 17.296875 44.605469 C 17.195312 44.890625 17.097656 45.171875 16.996094 45.457031 " fill-opacity="1" fill-rule="nonzero"/><path fill="#f3a984" d="M 33.828125 52.859375 C 33.738281 53.292969 33.609375 53.722656 33.648438 54.160156 C 33.683594 54.59375 33.941406 55.050781 34.371094 55.160156 C 34.792969 55.269531 35.226562 55.023438 35.664062 55.015625 C 36.175781 55.003906 36.628906 55.308594 37.078125 55.546875 C 37.609375 55.828125 38.414062 56.261719 38.988281 55.886719 C 39.367188 55.644531 39.574219 55.097656 39.261719 54.707031 C 39.140625 54.554688 38.96875 54.457031 38.792969 54.371094 C 38.261719 54.109375 37.695312 53.9375 37.152344 53.699219 C 36.804688 53.550781 36.496094 53.371094 36.183594 53.160156 C 35.910156 52.976562 35.847656 52.554688 35.84375 52.242188 C 35.839844 51.921875 35.679688 51.640625 35.71875 51.328125 C 35.734375 51.171875 35.75 50.816406 35.679688 50.679688 C 35.585938 50.496094 35.585938 50.570312 35.378906 50.570312 C 35.234375 50.570312 35.09375 50.613281 34.957031 50.660156 C 34.898438 50.679688 34.847656 50.707031 34.785156 50.710938 C 34.71875 50.714844 34.660156 50.710938 34.59375 50.730469 C 34.261719 50.816406 33.878906 51.902344 33.890625 52.097656 C 33.90625 52.339844 33.875 52.621094 33.828125 52.859375 " fill-opacity="1" fill-rule="nonzero"/><path fill="#222229" d="M 32.75 47.597656 C 32.957031 48.316406 33.28125 49.410156 33.5 50.125 C 33.609375 50.484375 33.707031 50.851562 33.773438 51.21875 C 33.804688 51.378906 33.875 52 33.894531 52.128906 C 33.898438 52.164062 34.121094 52.214844 34.195312 52.234375 C 34.539062 52.316406 34.898438 52.332031 35.246094 52.285156 C 35.414062 52.261719 35.609375 52.238281 35.761719 52.164062 C 35.894531 52.101562 35.859375 51.929688 35.871094 51.792969 C 36.144531 48.800781 36.34375 46.054688 35.90625 43.085938 C 35.878906 42.894531 35.851562 42.675781 35.785156 42.46875 C 35.695312 42.167969 35.542969 41.878906 35.320312 41.667969 C 34.835938 41.207031 33.960938 41.453125 33.472656 41.914062 C 32.808594 42.539062 32.675781 43.429688 32.523438 44.277344 C 32.3125 45.421875 32.421875 46.46875 32.75 47.597656 " fill-opacity="1" fill-rule="nonzero"/><path fill="#f3a984" d="M 28.601562 21.023438 C 28.847656 21.753906 30.269531 22.113281 30.753906 21.519531 C 31.054688 21.15625 31.09375 20.628906 30.96875 20.167969 C 30.839844 19.710938 29.207031 17.195312 28.347656 15.914062 C 27.710938 14.964844 25.988281 14.804688 26.527344 15.78125 C 27.1875 16.980469 28.183594 19.765625 28.601562 21.023438 " fill-opacity="1" fill-rule="nonzero"/><path fill="#f3a984" d="M 28.890625 16.972656 C 28.835938 16.621094 28.632812 16.3125 28.425781 16.023438 C 28.1875 15.683594 27.910156 15.363281 27.695312 15.007812 C 27.507812 14.699219 27.460938 14.339844 27.355469 14 C 27.230469 13.601562 27.105469 13.203125 26.984375 12.800781 C 26.945312 12.671875 26.894531 12.535156 26.808594 12.425781 C 26.714844 12.300781 26.65625 12.347656 26.539062 12.289062 C 26.375 12.207031 26.363281 11.957031 26.28125 11.8125 C 26.195312 11.667969 26.074219 11.46875 25.929688 11.371094 C 25.839844 11.308594 25.75 11.351562 25.664062 11.273438 C 25.523438 11.152344 25.523438 10.886719 25.316406 10.839844 C 25.148438 10.800781 24.984375 10.964844 24.957031 11.136719 C 24.953125 11.175781 24.953125 11.210938 24.953125 11.246094 L 24.929688 11.214844 C 24.84375 11.089844 24.667969 11.011719 24.535156 11.082031 C 24.339844 11.1875 24.378906 11.476562 24.449219 11.6875 C 24.609375 12.160156 24.785156 12.628906 24.976562 13.089844 C 25.019531 13.199219 25.269531 13.582031 25.070312 13.632812 C 24.949219 13.664062 24.785156 13.5 24.6875 13.449219 C 24.546875 13.375 24.402344 13.300781 24.261719 13.226562 C 24.128906 13.15625 23.988281 13.085938 23.839844 13.085938 C 23.691406 13.082031 23.53125 13.175781 23.503906 13.324219 C 23.480469 13.449219 23.566406 13.574219 23.671875 13.648438 C 23.78125 13.722656 23.90625 13.757812 24.027344 13.808594 C 24.664062 14.097656 24.96875 14.847656 25.554688 15.230469 C 25.863281 15.4375 26.246094 15.535156 26.527344 15.78125 C 26.789062 16.015625 26.933594 16.355469 27.054688 16.6875 C 27.179688 17.015625 27.300781 17.359375 27.539062 17.621094 C 27.78125 17.878906 28.171875 18.03125 28.492188 17.882812 C 28.8125 17.730469 28.949219 17.324219 28.890625 16.972656 " fill-opacity="1" fill-rule="nonzero"/><g clip-path="url(#0c96a15479)"><path fill="#e6f1fe" d="M 44.035156 10.722656 C 43.976562 10.355469 43.601562 9.714844 43.015625 9.542969 C 42.628906 9.429688 41.839844 9.914062 41.269531 10.710938 C 40.074219 12.390625 39.214844 14.640625 38.796875 16.25 C 38.769531 16.367188 38.726562 16.492188 38.71875 16.613281 C 38.683594 17.332031 39.105469 17.96875 39.835938 18.078125 C 40.773438 18.21875 41.105469 17.574219 41.5625 16.867188 C 42.171875 15.914062 44.191406 11.699219 44.035156 10.722656 " fill-opacity="1" fill-rule="nonzero"/></g><path fill="#ffc7ad" d="M 29.5625 20.742188 C 29.492188 20.660156 29.542969 20.613281 29.628906 20.574219 C 29.695312 20.542969 29.765625 20.519531 29.832031 20.488281 C 29.839844 20.484375 30.003906 20.394531 29.976562 20.375 C 29.941406 20.347656 29.886719 20.351562 29.84375 20.347656 C 29.785156 20.34375 29.722656 20.351562 29.664062 20.351562 C 29.613281 20.351562 29.5625 20.359375 29.507812 20.367188 C 29.453125 20.371094 29.410156 20.378906 29.359375 20.390625 C 29.316406 20.402344 29.265625 20.398438 29.222656 20.394531 C 29.136719 20.386719 29.046875 20.355469 29.03125 20.257812 C 29.015625 20.125 29.183594 20.109375 29.273438 20.070312 C 29.324219 20.050781 29.515625 20.046875 29.527344 19.980469 C 29.539062 19.917969 29.308594 19.871094 29.265625 19.863281 C 29.101562 19.828125 28.914062 19.828125 28.761719 19.738281 C 28.667969 19.683594 28.550781 19.558594 28.710938 19.5 C 28.816406 19.460938 28.925781 19.492188 29.03125 19.496094 C 29.171875 19.503906 29.308594 19.507812 29.449219 19.511719 C 29.484375 19.511719 29.683594 19.535156 29.691406 19.507812 C 29.699219 19.484375 29.640625 19.445312 29.628906 19.4375 C 29.535156 19.367188 29.441406 19.300781 29.335938 19.246094 C 29.253906 19.203125 29.167969 19.171875 29.085938 19.128906 C 28.996094 19.082031 28.765625 18.964844 28.839844 18.828125 C 28.910156 18.699219 29.179688 18.785156 29.277344 18.824219 C 29.488281 18.898438 29.691406 18.957031 29.914062 18.988281 C 30.199219 19.027344 30.492188 19.019531 30.75 18.894531 C 30.855469 18.84375 30.972656 18.738281 30.992188 18.621094 C 30.785156 18.535156 30.574219 18.550781 30.335938 18.546875 C 30.140625 18.542969 29.949219 18.523438 29.8125 18.371094 C 29.75 18.296875 29.632812 18.1875 29.679688 18.078125 C 29.71875 17.976562 29.839844 17.949219 29.9375 17.964844 C 30.035156 17.984375 30.128906 18.035156 30.226562 18.042969 C 30.324219 18.046875 30.414062 18.039062 30.511719 18.023438 C 30.679688 17.996094 30.851562 17.945312 31.023438 17.933594 C 31.195312 17.917969 31.367188 17.953125 31.527344 18.015625 C 31.585938 18.039062 31.636719 18.066406 31.695312 18.089844 C 31.828125 18.148438 31.972656 18.191406 32.113281 18.230469 C 32.515625 18.335938 32.992188 18.222656 33.410156 18.257812 C 33.789062 18.292969 33.730469 18.667969 33.675781 18.976562 C 33.625 19.238281 33.519531 19.390625 33.300781 19.535156 C 33.109375 19.664062 32.886719 19.703125 32.679688 19.796875 C 32.535156 19.859375 32.394531 19.941406 32.257812 20.023438 C 32.210938 20.050781 32.160156 20.078125 32.113281 20.105469 C 31.949219 20.207031 31.785156 20.296875 31.613281 20.382812 C 31.398438 20.5 31.171875 20.59375 30.9375 20.664062 C 30.714844 20.734375 30.488281 20.753906 30.257812 20.804688 C 30.199219 20.820312 30.140625 20.835938 30.078125 20.847656 C 29.910156 20.890625 29.683594 20.894531 29.5625 20.742188 " fill-opacity="1" fill-rule="nonzero"/><path fill="#e6f1fe" d="M 32.832031 19.863281 C 34.257812 19.558594 42.191406 18.941406 41.183594 16.652344 C 41.03125 16.300781 39.765625 15.878906 39.335938 15.851562 C 38.960938 15.828125 32.855469 17.839844 32.394531 18.164062 C 32.117188 18.363281 32.546875 19.925781 32.832031 19.863281 " fill-opacity="1" fill-rule="nonzero"/><path fill="#275ebe" d="M 39.234375 13.484375 L 37.835938 12.675781 L 38.203125 11.898438 L 39.601562 12.707031 L 39.234375 13.484375 " fill-opacity="1" fill-rule="nonzero"/></svg>